<?xml version="1.0" standalone="no"?>
<!DOCTYPE svg PUBLIC "-//W3C//DTD SVG 1.1//EN" "http://www.w3.org/Graphics/SVG/1.1/DTD/svg11.dtd" >
<svg xmlns="http://www.w3.org/2000/svg" xmlns:xlink="http://www.w3.org/1999/xlink" version="1.1">
<metadata>
Created by FontForge 20170731 at Wed Apr  8 16:16:17 2020
 By Aleksey,,,
In collaboration of Herbanu x Aulia x Alita Copyright (c) 2020
</metadata>
<defs>
<font id="Amali" horiz-adv-x="437" >
  <font-face 
    font-family="Amali"
    font-weight="400"
    font-stretch="normal"
    units-per-em="1000"
    panose-1="2 0 5 3 0 0 0 0 0 0"
    ascent="800"
    descent="-200"
    x-height="464"
    cap-height="700"
    bbox="-6 -247 945 771"
    underline-thickness="50"
    underline-position="-150"
    unicode-range="U+0020-007E"
  />
<missing-glyph horiz-adv-x="364" 
d="M33 0v666h265v-666h-265zM66 33h199v600h-199v-600z" />
    <glyph glyph-name=".notdef" horiz-adv-x="364" 
d="M33 0v666h265v-666h-265zM66 33h199v600h-199v-600z" />
    <glyph glyph-name=".null" horiz-adv-x="0" 
 />
    <glyph glyph-name="nonmarkingreturn" horiz-adv-x="333" 
 />
    <glyph glyph-name="space" unicode=" " horiz-adv-x="300" 
 />
    <glyph glyph-name="exclam" unicode="!" horiz-adv-x="205" 
d="M121 702h1q13 0 24 -9t11 -21v-6.5t-0.5 -7t-0.5 -5.5v-6.5v-6.5q0 -23 -2 -36q-5 -27 -6.5 -78t-3.5 -69v-4v-4q0 -10 -1.5 -29t-1.5 -29v-12q-2 -18 -2 -41q0 -20 2 -58.5t3 -56.5v-2.5v-2.5q0 -5 -1.5 -15.5t-1.5 -16.5q0 -3 0.5 -11t0.5 -12q0 -24 -11 -35
q-9 -11 -26 -11q-4 0 -7 0.5t-6.5 1t-6.5 1.5q-14 10 -14 34q0 5 1 10q5 29 5 69q0 13 -0.5 39t-0.5 40v21t1 20q4 44 6.5 126t3.5 110q0 2 -0.5 5t-1 12.5t-0.5 18.5q0 11 1 20.5t3 19.5t5 17q7 20 27 20zM112 23q8 0 16 -3q27 -9 32 -47q1 -4 1 -7q0 -14 -12 -30
q-18 -27 -46 -27q-5 0 -9 1q-20 6 -36 22q-6 6 -9.5 14.5t-3.5 17.5q0 7 3 14q7 19 25 32t39 13z" />
    <glyph glyph-name="quotedbl" unicode="&#x22;" horiz-adv-x="265" 
d="M195 735q7 0 14 -6q11 -29 11 -56q0 -8 -1 -16q0 -9 1 -35t1 -40q0 -10 -0.5 -19t-1.5 -18.5t-2 -18.5q-1 -8 -8 -13t-15 -1q-10 12 -17 31.5t-11 42.5t-6 44.5t-2 43.5v6.5v6.5t0.5 6t0.5 6q20 35 36 36zM81 727q8 0 15 -5q11 -30 11 -57q0 -8 -1 -15q0 -10 0.5 -35.5
t0.5 -39.5q0 -16 -0.5 -29.5t-2.5 -27.5q-2 -8 -8.5 -12.5t-14.5 -1.5q-36 43 -36 162v13t1 12q19 35 35 36z" />
    <glyph glyph-name="numbersign" unicode="#" horiz-adv-x="681" 
d="M336 687q10 -1 19 -14q13 -20 13 -36q0 -5 -1 -9q-3 -9 -11 -24.5t-12.5 -28.5t-4.5 -26v-8q0 -9 -2.5 -17.5t-7.5 -18.5q0 -2 -2.5 -7.5t-3.5 -8t-2 -7t-1 -8.5q0 -5 2 -9q4 -8 24 -6q5 1 12 1q4 0 9 -0.5t10 -0.5h9q28 0 44 9q9 22 18 72q5 29 15 60q2 33 22 48
q8 8 18 8q3 0 5.5 -0.5t4.5 -1.5l4 -2q5 -3 7 -8.5t2 -11.5q0 -4 -1 -9q-24 -88 -31 -128q-4 -13 1 -18q13 -13 44 -13h3h10q17 0 32 -4q15 -1 27.5 -10.5t18.5 -23.5q4 -6 0.5 -14t-11.5 -8q-36 9 -89 13q-10 2 -17 2q-17 0 -27 -10q-5 -6 -8.5 -13.5t-6 -15.5t-4 -15
t-3 -17t-3.5 -16q-1 -9 -3.5 -18t-7.5 -22t-6 -17t-2 -7.5t-1 -6.5q0 -14 10 -21q3 -1 24 -3h11h13h12q35 0 59 -5q2 0 11 -2t12.5 -3t10.5 -3.5t11 -4.5t9 -6t9 -8q6 -7 2.5 -14.5t-10.5 -10.5q-61 6 -110 7q-8 -2 -17 -2q-7 0 -21.5 1.5t-20.5 2.5h-5q-5 0 -10 -2.5
t-8.5 -7t-3.5 -9.5q-18 -18 -24 -49q-3 -9 -8 -32t-8 -35t-9 -30.5t-13 -32.5q-5 -14 -19 -14q-4 0 -8 2q-11 13 -11 36q0 6 1 12q4 16 10 54t12 58q0 6 6 16.5t6 17.5t-6 12t-13 5q-2 0 -4 -1q-15 -5 -62 -7q-33 -1 -42 -16q-1 -7 -12 -16q-9 -12 -16.5 -40t-10.5 -36
q-2 -3 -0.5 -5.5t4.5 -2.5q11 -9 0 -27q-4 -14 -16.5 -23t-26.5 -9q-5 0 -11 1q-5 1 -9.5 5t-7 9.5t-2.5 10.5q0 21 13.5 58.5t16.5 50.5q1 4 0.5 7.5t-3.5 6.5t-7 3q-2 1 -5 1q-12 0 -33 -9.5t-32 -10.5q-25 1 -33 11q0 2 -0.5 3.5t-0.5 2.5q0 6 4 12t10 10q14 8 34 14
t40.5 11.5t34.5 12.5l4 2l4 2t3.5 2.5t1.5 3.5q4 17 17.5 49.5t17.5 49.5q1 9 10.5 30t9.5 33q1 6 -4 10t-10 4h-5.5h-5.5h-15.5h-15.5h-5.5h-4.5q-14 -1 -23 -1q-15 0 -27 3t-23 10q-5 2 -2 15q4 16 28 19q6 1 14 1q4 0 11 -0.5t11 -0.5q3 0 6 0.5t6.5 1t6.5 1.5
q5 1 10.5 2t10.5 1q10 0 27 -3q8 -1 12 -1q7 0 11.5 1.5t8.5 5.5q8 17 16 58q1 5 3 16.5t4 20t6 15.5q12 21 15 59q2 40 34 60zM418 409v3q-14 0 -36 -1q-9 -1 -27.5 -1.5t-27.5 -1.5q-23 -2 -35 -31q-6 -16 -15 -48t-15 -47q0 -1 -1 -3t-1.5 -3.5t-1.5 -3.5t-1.5 -4
t-1.5 -4t-1.5 -3.5t-1 -3.5t-0.5 -4t-0.5 -4t-0.5 -4q0 -7 3 -13q11 0 25.5 2t29 4.5t25.5 2.5h1.5h0.5q3 0 8.5 -0.5t8.5 -0.5q15 0 22 7q10 11 15.5 36t8.5 31v6q0 15 10 44t9 45z" />
    <glyph glyph-name="dollar" unicode="$" horiz-adv-x="409" 
d="M239 697h1q19 0 27 -16q5 -19 7.5 -56.5t3.5 -46.5h3.5t3 0.5t3 0.5h3.5q10 0 19 -3t18 -8q17 -11 26.5 -30.5t9.5 -41.5q0 -9 -1 -17q-3 -20 -27 -47q-2 -3 -4 -5t-4.5 -4t-5.5 -2.5t-6 -0.5q-4 0 -8 1q-7 2 -10 10t1 14q13 18 13 39q0 4 -0.5 8t-2.5 8q-8 21 -22 24
q-27 -4 -51 -16q-23 -10 -30 -31q-3 -15 -3 -32q0 -10 1 -20t3 -20q4 -13 12.5 -28t13.5 -22t19.5 -26t17 -22t11.5 -15t12.5 -17.5t9.5 -15.5t10 -19t6 -18l2 -8t1 -8q0 -13 -6 -25t-16 -19q-5 -5 -11.5 -8t-14.5 -6t-13 -6q-3 -2 -5.5 -5t-4 -7t-2 -8t-0.5 -9q0 -8 2 -25
t2 -25q0 -7 -0.5 -12.5t-1.5 -11.5q-1 -4 -2.5 -13t-2.5 -14.5t-3 -12.5t-5 -13t-8 -11q-5 -4 -11 -4t-11 3t-8 8q-2 7 -3 15t-1.5 16t-1 15t-0.5 16q0 7 1 29v6v4v4v4v4v4v4.5v3.5v10.5t-1 9.5q0 14 -11 18q-4 2 -10.5 3t-12.5 2.5t-11 3.5q-64 19 -96 82q-8 12 -8 23
q0 3 0.5 5t0.5 4q6 20 20 23q12 2 22 -15q10 -19 36 -49q11 -15 37 -19q6 -1 13.5 -3.5t13 -4.5t12.5 -4t14 -3.5t13 -1.5l4.5 -0.5t7.5 -0.5q13 0 19 7q0 2 0.5 4t0.5 4q0 10 -9 25q-54 72 -55 74q-42 58 -48 125q-1 2 -1 3.5v3.5t-0.5 3.5t-0.5 3.5v3.5v3.5q0 35 17 60
q14 24 43 35q17 5 19 26q1 2 1 4v4q0 7 -1 15.5l-2 17t-1 15.5q1 6 -0.5 14t-3.5 15.5t-2 14.5q0 10 7 18t17 8v0z" />
    <glyph glyph-name="percent" unicode="%" horiz-adv-x="670" 
d="M500 220q-2 1 -4.5 1h-5.5q-6 0 -12 -1t-12 -3t-11 -5t-10 -7q-28 -26 -28 -77q2 -37 2 -39q2 -13 12 -21t23 -11q6 -1 12 -1.5t11 -0.5q50 0 84 33q23 22 23 51q0 8 -3 15q-9 26 -31 44t-50 22zM478 286q40 -7 81 -35q43 -32 55 -50q4 -6 6.5 -13.5t4 -15t1.5 -14.5
q0 -10 -2 -20.5t-5 -20.5q-12 -29 -33 -57q-18 -23 -44.5 -37t-55.5 -14h-2h-1q-45 0 -76 26q-42 35 -42 83q0 4 0.5 8t1.5 8q4 13 8.5 37t10.5 43t15 35q22 37 73 37h2h2zM190 584q-6 1 -14 0q-25 -7 -44 -26.5t-26 -44.5q-3 -9 -5.5 -18.5t-3.5 -19.5t-1 -20q0 -8 1 -17
t3 -17q5 -24 20 -33q5 -2 10.5 -3.5t11.5 -1.5q10 0 19.5 3t18.5 9q23 12 31 39q13 53 13 79q0 16 -3 31q-10 34 -31 40zM465 598q11 -2 18 -7q7 -6 7 -16q0 -7 -3 -15q-10 -22 -22.5 -45t-30.5 -53.5t-25 -43.5q-1 -1 -9.5 -18.5t-13.5 -25.5q-8 -11 -20.5 -34t-14.5 -26
q-19 -31 -81 -150q-5 -9 -17.5 -32t-20 -40t-10.5 -35q0 -20 -18 -30q-5 -3 -12.5 -3t-10.5 6q-3 15 -3 30q0 31 14 67q18 41 38 77q11 19 22 38.5t22 41t19 38t20.5 42.5t18.5 40q6 10 17 32.5t18 36t17.5 32t21 34.5t21.5 30q0 1 2.5 4t4 4.5l4 4l4 4t4 3.5t4.5 3.5
t4.5 2.5t5 1.5t5.5 1.5zM229 620q25 -9 37 -29q8 -19 12.5 -39.5t4.5 -40.5t-4 -38q-13 -49 -58 -95q-13 -12 -27 -21.5t-31.5 -15.5t-33.5 -6q-2 0 -4.5 0.5t-4.5 0.5q-41 5 -65 52q-10 35 -10 73q0 43 13 85q5 23 21 41.5t38 26.5q29 9 66 9q20 0 46 -3z" />
    <glyph glyph-name="ampersand" unicode="&#x26;" horiz-adv-x="586" 
d="M282 704h5q26 0 51 -8t47 -23t37 -36q31 -38 31 -93q0 -50 -25 -99q-12 -20 -33 -38t-36 -26.5t-47 -24t-42 -20.5q94 -88 148 -156q29 59 36 125q-1 2 -1.5 4t-0.5 4v4q0 8 5 16t13 12.5t16 4.5q17 0 20 -21q1 -4 1 -8v-7q0 -61 -33 -139q-2 -3 -4 -6.5t-3.5 -6.5t-2 -6
t-0.5 -5q0 -11 8 -20.5t22 -18.5q4 -5 17.5 -15t21.5 -19.5t8 -19.5q0 -4 -1.5 -8.5t-4.5 -9.5q-9 -7 -18 -7q-8 0 -16.5 5t-15.5 11t-15.5 14t-13.5 12q-8 17 -23 17q-16 0 -25 -19q-24 -27 -54 -47t-65 -32t-70 -12q-33 0 -63 11q-10 3 -20 8t-18 11t-16 13t-14.5 14.5
t-12.5 16.5t-10.5 18t-8.5 19t-6 20t-3.5 20.5t-1.5 21.5q0 12 2 24.5t6 24.5q12 47 47.5 82.5t88.5 66.5q-33 45 -52 91.5t-19 93.5v6q-1 64 49.5 111.5t114.5 48.5zM288.5 651h-1.5h-1q-33 0 -60.5 -21t-38.5 -52q-10 -24 -10 -51q0 -70 60 -149q76 27 122 66q47 36 47 82
q0 4 -0.5 8.5t-1.5 8.5q-4 44 -37.5 76t-76.5 32h-0.5h-1zM222 309q-78 -38 -104 -92q-9 -13 -13.5 -27.5t-4.5 -30.5q0 -40 26 -75t65 -45q14 -3 29 -3q48 0 93.5 28t76.5 71q-32 34 -168 174z" />
    <glyph glyph-name="quotesingle" unicode="'" horiz-adv-x="122" 
d="M66 727q8 0 15 -5l4 -14t3.5 -14t2.5 -14.5t1 -14.5q0 -8 -1 -15q0 -10 0.5 -35.5t0.5 -39.5q0 -16 -0.5 -29.5t-2.5 -27.5q-2 -8 -8.5 -12.5t-14.5 -1.5q-8 10 -14.5 25t-10.5 31.5t-6.5 35.5t-3.5 36t-1 34v13t1 12q19 35 35 36z" />
    <glyph glyph-name="parenleft" unicode="(" horiz-adv-x="307" 
d="M240 690q19 1 26 -13q2 -5 2 -10q0 -6 -3.5 -12t-10 -10t-12.5 -4q-2 0 -3 1q-37 -2 -68.5 -25.5t-46.5 -58.5q-40 -107 -40 -227q0 -88 22 -174q2 -7 5 -19t6 -22t6 -18q24 -42 74 -55q10 -3 24 -3h5h4.5t5 0.5t5.5 0.5h1.5h1.5q12 0 22.5 -7.5t10.5 -19.5
q0 -24 -30 -34q-4 -1 -7.5 -2t-7.5 -1t-8 -0.5t-8 -0.5q-33 0 -66 16q-45 23 -73 69.5t-30 98.5v4v3.5v3.5q0 22 -4 43q-6 33 -9.5 66.5t-3.5 66.5q0 104 33 192q1 3 3 8q30 72 58 100q41 38 116 43z" />
    <glyph glyph-name="parenright" unicode=")" horiz-adv-x="307" 
d="M67 690q75 -5 117 -43q13 -14 25.5 -35.5t17.5 -32t17 -40.5q33 -88 33 -192q0 -65 -13 -133q-4 -21 -4 -43v-11q-1 -52 -29 -98.5t-74 -69.5q-32 -16 -66 -16q-8 0 -15.5 1t-15.5 3q-30 10 -30 34q0 12 10.5 19.5t22.5 7.5h4q15 -1 19.5 -1h8t8 1t7.5 2q50 13 74 55
q3 6 5.5 14t4 14.5t4 15.5t4.5 15q7 28 11.5 57t7 58.5t2.5 58.5q0 120 -39 227q-16 35 -47 58.5t-68 25.5l-3 -1q-10 0 -18.5 8t-8.5 18q0 3 1 5t2 5q7 14 25 13z" />
    <glyph glyph-name="asterisk" unicode="*" horiz-adv-x="381" 
d="M198 771q4 0 8 -1.5t7 -4.5t5 -6.5t2 -7.5v-6.5v-6.5v-4v-4q0 -15 -1 -24q-3 -11 -5 -60q25 13 43 23q3 1 16 9.5t21.5 12.5t17.5 4q14 3 21 -8q4 -6 4 -13q0 -6 -3 -11.5t-9 -7.5q-4 -2 -11.5 -6.5t-13.5 -7.5l-12 -6q-12 -4 -53 -25q6 -3 11 -5q15 -7 32 -17.5
t39 -18.5q19 -8 20 -22q-6 -21 -20 -24h-4q-10 0 -30 12q-3 3 -7.5 4.5t-9 3.5t-7.5 5q-4 2 -10.5 7t-15.5 10t-22 11q0 -3 -0.5 -6.5t-0.5 -6.5v-5.5v-5.5q0 -8 1 -18.5t1 -14.5t-1 -13.5t-1 -13.5q1 -11 1 -12q0 -16 -7 -24q-6 -6 -18 -6h-4t-4 0.5t-4 0.5q-5 4 -7.5 9.5
t-2.5 12.5v3.5t1 3.5q2 12 3 19.5t1 14.5q0 2 -0.5 5t-0.5 5v5v6q0 11 1 24q1 8 1 17q-13 -6 -21.5 -11.5t-15 -10t-10.5 -6.5q-3 -3 -7.5 -5t-9 -3.5t-7.5 -4.5q-21 -12 -30 -12h-5q-14 3 -19 24q1 14 20 22q22 8 39 18.5t32 16.5q5 3 11 6q-41 21 -53 25q-6 3 -12.5 6
t-13.5 7.5t-11 6.5q-12 5 -12 19q0 3 1 6.5t3 6.5q6 11 20 8q10 0 18.5 -4t21 -12.5t15.5 -9.5q20 -10 49 -26q0 32 1 53q0 2 -1 24q0 7 0.5 13.5t2 13t3.5 10.5q4 14 17 14h2z" />
    <glyph glyph-name="plus" unicode="+" horiz-adv-x="523" 
d="M250 504q23 -6 30 -39q3 -20 4 -62q-1 -21 -1 -43q0 -28 2 -57q30 -1 99 -1q67 -1 78 -2q23 -1 31 -15q1 -4 -6 -14q-14 -15 -50 -19q-30 -2 -149 -3q4 -69 4 -102v-8.5v-8.5v-3.5v-3.5q0 -33 -8 -49q-15 -27 -32 -33q-3 -1 -5 -1q-5 0 -8.5 2.5t-6.5 6t-4 8.5v21
q0 23 1.5 68.5t1.5 68.5v33h-33q-44 0 -77 1q-5 1 -10 1t-15 -0.5t-14 -0.5q-11 0 -20 2q-25 13 -31 31q-1 3 -1 6q0 4 2.5 8t6 6.5t7.5 3.5h21q23 0 70 -2t71 -2q12 0 23 1q1 23 1 52t0.5 59.5t0.5 52.5q1 28 17 37z" />
    <glyph glyph-name="comma" unicode="," horiz-adv-x="162" 
d="M92 36q8 0 16.5 -4t13.5 -12q10 -16 10 -36q0 -37 -23 -64q-4 -4 -20 -21t-28 -26.5t-24 -10.5q-4 5 -6 9.5t-2 9.5q0 10 8 19.5t19.5 20t15.5 15.5q9 9 9 22q0 10 -6.5 17.5t-18.5 10.5q-7 5 -7 12q0 9 7.5 19t13.5 13q2 2 10 4t12 2z" />
    <glyph glyph-name="hyphen" unicode="-" horiz-adv-x="389" 
d="M55 285q4 1 10 1.5t11.5 1t14.5 0.5h2.5h2.5q28 0 42 2q62 4 141 4h21.5t16.5 -1q6 0 10.5 -1t7.5 -2.5t5.5 -3t3 -3.5t0.5 -4q0 -5 -5 -10.5t-14.5 -9.5t-21.5 -6q-49 -13 -153 -13q-14 0 -28 1q-75 5 -77 31q0 5 3 8.5t7 4.5z" />
    <glyph glyph-name="period" unicode="." horiz-adv-x="160" 
d="M64 -43q-34 15 -34 41q0 20 18.5 37t39.5 17q35 0 42 -50q-1 -9 -5.5 -18t-11 -16t-15 -11.5t-17.5 -4.5t-17 5z" />
    <glyph glyph-name="slash" unicode="/" horiz-adv-x="409" 
d="M335 704q3 0 5.5 -1t5.5 -3.5t4.5 -3.5t4 -4.5t3.5 -5t3.5 -5.5t3.5 -5q-8 -41 -37 -115.5t-37 -109.5q-16 -50 -40.5 -103t-57 -115.5t-49.5 -98.5q-12 -20 -20 -64.5t-20 -64.5q-15 -30 -35 -30q-7 0 -12 5q-12 10 -12 32q0 4 0.5 9.5t1 8t1.5 9.5q3 28 13.5 55t29 65
t24.5 52q99 181 167 395q7 13 15.5 39t13.5 37q10 22 24 22z" />
    <glyph glyph-name="zero" unicode="0" horiz-adv-x="553" 
d="M319 644q72 -19 120 -70q64 -68 64 -172v-5q-1 -23 -13 -77q-31 -138 -86 -211q-36 -51 -101 -85q-18 -11 -38.5 -17t-42.5 -6q-37 0 -68 17q-20 12 -37 29.5t-28 38t-17.5 44t-6.5 46.5q0 7 1 14q-1 11 -3.5 24.5t-4.5 27t-4 24.5q-2 18 -3 36t-1 37q0 123 50 219
q25 53 58 70q42 24 96 24q32 0 65 -8zM272 602q-13 3 -27 3q-35 0 -64.5 -22t-44.5 -56q-34 -96 -34 -203q0 -100 30 -195q4 -20 21 -35q31 -33 74 -33q6 0 13 1q54 9 104 62q72 80 81 167q15 51 15 87v6q-1 49 -20 94.5t-54 76.5q-29 29 -94 47z" />
    <glyph glyph-name="one" unicode="1" horiz-adv-x="241" 
d="M111 613q6 3 9 0l9 -15q14 -23 14 -46v-8q-7 -59 -7 -74v-5q5 -86 5 -113q1 -59 2 -83q3 -58 3 -102q0 -26 -1 -50.5t-3 -48.5v-13q0 -16 3 -23q9 -5 28 -8t27 -7q12 -5 12 -19q0 -4 -2 -8q-3 -16 -23 -19q-29 -2 -56 -2t-52 2h-2q-8 0 -14.5 6t-6.5 15q0 12 17 26
q1 1 7.5 5.5t8.5 8.5q5 21 5 74v11v11v11.5v11.5q0 24 1 41q-1 28 -1 113q0 12 -0.5 26t-1.5 30.5t-1 26.5q0 8 -2 32.5t-2 37.5q0 30 7 53q1 2 1 5t-3 2q-5 -3 -13.5 -10.5t-12.5 -10.5q-6 -4 -15 -4q-15 0 -20 12q-1 4 -1 8q0 7 2.5 14t7.5 13q40 51 71 73z" />
    <glyph glyph-name="two" unicode="2" horiz-adv-x="517" 
d="M247 622h2q53 0 109 -45q62 -50 63 -119v-15q0 -13 -2 -25.5t-8 -23.5q-22 -50 -79 -72q-15 -7 -46 -18t-45 -18q-28 -14 -37 -29q-23 -37 -58 -130q-8 -18 1 -27q7 -3 17 -3q5 0 21 2q4 1 8 1h8t8 0.5t7.5 0.5h7.5h7.5h6.5q71 0 186 -21q3 -1 10 -1.5t11.5 -1.5t10 -3.5
t8.5 -6.5q4 -5 4 -12q0 -4 -1.5 -8.5t-3 -8t-3.5 -7.5q-10 -8 -27 -11l-16 -1q-20 0 -56 10t-47 12q-19 3 -36 5t-35.5 3.5t-35.5 1.5q-13 0 -26 -1l-26 -2q-2 -1 -12 -2t-14 -3q-6 -6 -10 -21t-8 -21q-2 -4 -6.5 -6t-9.5 -2q-7 0 -14 4q-23 33 -23 53q0 24 26 39
q2 6 5.5 18t5.5 17q21 64 53 135q11 31 34 49q31 27 108 49q50 13 72 51q4 5 6 11.5t3.5 12.5t1.5 13q0 9 -3 17q-9 54 -58 87q-9 6 -17.5 10.5t-17.5 8t-19 5.5t-19 2q-3 0 -5.5 -0.5t-5.5 -0.5q-10 -1 -20 -4t-18.5 -7t-19 -9.5t-17.5 -10t-18 -11.5t-17 -10q-2 -2 -11 -7
t-13 -7t-11.5 -4.5t-14.5 -3.5q-6 -1 -11.5 2.5t-6.5 10.5q0 20 24 34q9 4 24 14.5t19 12.5q73 47 130 48z" />
    <glyph glyph-name="three" unicode="3" horiz-adv-x="499" 
d="M229 638q70 -3 119 -61q39 -45 42 -105v-7.5v-6.5q0 -12 -0.5 -22t-3.5 -21t-7 -20q-25 -53 -93 -84q48 -14 87 -45t60 -74q16 -33 16 -72q0 -29 -9 -57q-12 -38 -49 -60q-43 -25 -109 -25q-14 0 -29 1q-97 7 -180 50q-23 13 -23 45q0 11 3 20q3 6 10.5 9t14.5 1
q9 -4 19.5 -20t18.5 -20q73 -39 158 -39q31 0 62 5q29 5 49 29.5t20 54.5v7q-5 38 -28.5 70.5t-58.5 52.5q-33 17 -61 29q-63 25 -72 28q-1 0 -4 0.5t-5 1t-4.5 2t-3.5 3.5q-3 4 -3 10t3.5 11.5t8.5 6.5q9 2 23 3t26 2.5t26.5 5t30 11t29.5 19.5q20 15 29 47q2 8 3 16t1 16
q0 60 -44 102q-16 15 -36.5 24.5t-41.5 9.5q-7 0 -13.5 -1t-12.5 -4q-34 -12 -73 -51q-3 -2 -6 -8.5t-7 -11t-8 -4.5q-14 -2 -20 16q-1 5 -1 9q0 17 16 39q36 48 81 55q8 2 11.5 2.5t10 2t12 2t10.5 0.5h6z" />
    <glyph glyph-name="four" unicode="4" 
d="M360 657h1q9 0 15 -7t9 -16q-5 -7 -15.5 -24t-17 -26t-16 -22.5t-18.5 -25t-18 -21.5q-18 -19 -36 -45.5t-37 -55t-34 -47.5q-4 -6 -15 -18t-16 -20q-9 -13 1 -23q13 -11 43 -17q12 -3 26.5 -4.5t31 -2.5t27.5 -3q17 -4 24 5q10 15 10 41q0 3 -1 20q-1 8 -1 14q0 15 6 26
q3 6 6 10.5t8.5 8t11.5 3.5q9 0 15 -8t7 -18q1 -2 1 -4v-3.5v-3.5q0 -13 -7 -38t-7 -38q0 -6 2.5 -11t7 -10.5t5.5 -8.5q4 -6 6 -12t2 -11q0 -6 -3 -11q-3 -8 -15 -14q-1 -4 -3 -25q-1 -4 -1 -7v-6t-0.5 -6t-0.5 -5q0 -14 3 -38t4 -37t1 -24q0 -24 -4.5 -45.5t-16.5 -38.5
q-5 -6 -13 -6q-12 0 -19 8v20v20v18v18v18v18q0 38 -2 70q1 25 -12 42q-3 4 -6.5 7.5t-6.5 5.5t-9 4.5t-9 3t-10 2.5t-9 3q-22 0 -62 11.5t-59 13.5q-2 1 -4.5 1.5l-5 1t-4 0.5t-3.5 0.5t-4 0.5q-5 0 -16 -2.5t-21 -3.5h-1q-10 0 -17.5 9t-7.5 20q0 19 22 25q12 3 33 20
q21 19 41.5 44t34 44t34.5 51t32 47q41 62 47 70q5 6 11.5 18.5t10.5 17.5q23 31 44 32z" />
    <glyph glyph-name="five" unicode="5" horiz-adv-x="476" 
d="M103 618h1.5h0.5q14 0 26.5 -7t17.5 -19q27 1 62 6.5t64 5.5q6 1 12 1h3.5t3.5 -0.5t3.5 -0.5h3h3.5h4h6t6 0.5t6 0.5q5 1 10.5 1.5t11 1.5t11 1.5t10.5 1.5t10.5 1.5l11 1t11.5 0.5h3.5h3.5q17 -2 18 -13q-1 -9 -17 -30q-1 0 -22 -4q-32 -6 -54.5 -8t-58.5 -3.5
t-55 -2.5h-14q-16 0 -28 -2q-32 -7 -43 -21q-18 -30 -26 -78q-1 -5 -1.5 -9t-1 -8.5t-0.5 -9v-9.5q0 -34 13 -59q13 -21 26 -24q3 -1 6 -1q13 0 43 17q32 20 61 20h1q18 0 36.5 -6.5t33.5 -17.5t27 -25q40 -47 40 -97v-6q-6 -93 -49 -149q-18 -24 -49 -44.5t-59 -25.5
q-61 -10 -117 -10h-15q-3 0 -6.5 0.5t-6.5 0.5h-6.5t-6.5 0.5t-6 2.5q-9 3 -13.5 12t-4.5 20v7q4 24 21 27h2q8 0 14.5 -5.5t12.5 -14.5q45 1 60 1q77 5 114 24q38 20 54 74q4 13 5.5 26t1.5 27q0 54 -28 96q-9 14 -23.5 23.5t-31.5 9.5q-21 0 -55.5 -15t-47.5 -17
q-7 -2 -13.5 -2t-13.5 1.5t-13 5t-11 7.5q-35 35 -47 93q-1 4 -1.5 8.5l-1 9l-1 9l-1 9t-0.5 9v9.5q0 58 22 123q-6 15 -3 27q2 10 12.5 16t21.5 6z" />
    <glyph glyph-name="six" unicode="6" horiz-adv-x="478" 
d="M246 628h6q52 -4 84 -29q10 -7 17.5 -20t7.5 -23q0 -11 -10 -14q-2 0 -4 -0.5t-3 -0.5q-11 0 -27 15.5t-27 18.5q-18 6 -36 6q-31 0 -54 -16q-58 -48 -87 -131q-19 -58 -19 -117q0 -28 4.5 -55.5t6.5 -39t7.5 -34t12.5 -39t17 -32.5q4 8 10 18q3 6 11.5 22t13.5 24.5
t12.5 21t16 22.5t18.5 18q29 36 74 47q8 2 16 3t16 1q9 0 17.5 -1.5t16.5 -3.5t16 -5.5t15 -8.5t14 -11t12 -23q4 -12 5.5 -24t1.5 -25q0 -80 -56 -138q-4 -5 -40 -33q-11 -9 -24 -15t-26.5 -9t-27.5 -3q-21 0 -41 6q-71 22 -111 100q-35 73 -47 153q-2 17 -3.5 34.5
t-1.5 34.5q0 27 3.5 53t10.5 50q29 98 75 150q45 53 107 53zM338 248h-6t-5.5 -0.5t-5.5 -1t-5 -0.5q-44 -18 -76.5 -53t-43.5 -79q-1 -3 -1.5 -5.5t-1 -5.5t-0.5 -5q0 -10 3.5 -19t10.5 -16q16 -17 49 -19h7q18 0 38 12q40 25 69 70q5 8 8.5 17.5t5.5 19t2 19.5q0 17 -6 33
q-3 10 -9 17t-14.5 11.5t-18.5 4.5v0z" />
    <glyph glyph-name="seven" unicode="7" horiz-adv-x="549" 
d="M133 632h1h2q10 0 20.5 -0.5t23.5 -1.5q27 -4 46 -6t44 -4t46 -2q36 0 68 5h6h5.5h5.5q12 0 33.5 1t26.5 1t15.5 1t15.5 1q21 0 26 -17q1 -4 1 -9q0 -18 -32 -41q-29 -20 -48 -59q-145 -285 -193 -462q-7 -24 -13.5 -34t-19.5 -10q-17 0 -24 17q-4 11 -4 21q0 15 9 37
q13 32 33.5 87t36.5 97.5t36 91t42 89t44 69.5q7 9 16.5 27t14.5 24q0 2 3 6t4.5 7.5t0.5 6.5q-3 3 -20 2q-42 -9 -89 -9q-49 0 -106 9q-7 1 -32 7q-6 1 -13 1q-16 0 -44.5 -8t-36.5 -10q-8 -1 -16 -1q-26 0 -41 16q5 17 20 29q27 19 86 21z" />
    <glyph glyph-name="eight" unicode="8" horiz-adv-x="466" 
d="M326 616q9 -2 20 -7q50 -21 65 -59q2 -6 3.5 -12.5t2 -13t0.5 -12.5q0 -31 -14 -66q-5 -13 -11.5 -25t-18 -31t-14.5 -23q-15 -30 -57 -63q-4 -4 -10.5 -9t-11 -8.5t-9.5 -8.5t-9 -10.5t-6 -11.5q-4 -10 -2 -16q47 -9 88 -59q11 -15 30 -41q10 -15 10 -35q0 -22 -13 -38
q-34 -40 -101 -60q-31 -10 -100 -16l-23 -2q-7 0 -14.5 1t-14.5 3q-25 8 -44 28.5t-21 46.5q-1 4 -1 8q0 29 23 55q3 4 8 9.5t11 13t13 15.5t13.5 16l13 16t12 14.5t9.5 11.5t6 8l3 3q-18 23 -33 48q-63 81 -63 179v9t1 10q5 50 16 73q20 41 74 55q17 5 35.5 7t39.5 2
q1 0 94 -5zM311 566q-3 1 -5 1q-13 -1 -29 -1q-4 0 -52 1q-54 0 -75 -13q-29 -18 -29 -62q0 -23 7 -48.5t19.5 -56.5t16.5 -47q7 -29 20 -39q8 -8 20 -8t20 7q10 6 19 14t16.5 15.5t15.5 17.5t14 18t14.5 19t14.5 18q13 12 22.5 27t15 32.5t5.5 35.5v3.5v3.5q0 22 -14.5 40
t-35.5 22zM312 136q-18 24 -46.5 44t-59.5 26q-8 -11 -23 -26l-29.5 -29.5t-23.5 -25.5q-21 -26 -21 -48q0 -2 0.5 -4l1 -4t0.5 -4q13 -9 38 -13q4 -1 8.5 -1t9 -0.5t9.5 -0.5q57 0 114 30q8 3 14 9t9 13.5t3 16.5t-4 17z" />
    <glyph glyph-name="nine" unicode="9" horiz-adv-x="490" 
d="M225 649q35 0 66 -20t48 -52q12 -23 15 -37v-8q0 -17 -9 -25q-7 -5 -13.5 -2.5t-11.5 8.5q-3 5 -6 11.5t-5 12.5t-4.5 12t-6 12t-7.5 10q-3 4 -10 7t-9 5q-14 13 -35 13q-18 0 -34 -10q-50 -38 -79 -110q-26 -65 -26 -131v-8q-1 -21 14 -38t36 -19h2q14 0 28 3t30 9
q56 20 87 46q46 39 47 90q-2 5 -2.5 10.5t-0.5 10.5q0 11 2.5 21.5t7.5 20.5q14 25 24 34q4 5 11 5t12 -4q11 -11 11 -28q0 -7 -3 -14q-5 -9 -8 -31t-3 -45q0 -74 35 -172q3 -12 10 -58q3 -25 3 -45q0 -21 -4 -40t-12 -36q-18 -40 -68 -51q-18 -4 -38 -4q-14 0 -29.5 1.5
t-35.5 4.5t-29 4q-16 7 -56.5 13.5t-59.5 17.5q-16 7 -16 26q0 3 0.5 5.5t1.5 5t3 5.5q7 11 21 11q9 0 16 -5q16 -3 50 -14.5t53 -14.5q6 -1 35 -6t45 -5q8 0 15.5 0.5t14.5 3.5q15 2 26 14.5t13 28.5q1 10 1 23v9.5v11v9.5q-3 106 -44 171q-1 0 -2 -1l-2.5 -2.5t-2.5 -1.5
q-86 -71 -169 -82q-1 -1 -5 -1t-6 -0.5t-5.5 -0.5h-6h-5.5q-8 0 -14 1q-23 5 -40 22.5t-26 40.5q-5 14 -7.5 29t-2.5 31q0 29 8 63q19 74 45 120q47 83 122 109z" />
    <glyph glyph-name="colon" unicode=":" horiz-adv-x="1000" 
d="M443 458q6 0 11 -2q6 -3 10 -7.5t5.5 -9.5t1.5 -11.5t-1.5 -14t-3.5 -12.5t-4.5 -11.5t-3.5 -6.5q-16 -35 -48 -40q-33 19 -33 48q0 25 21.5 46t43.5 21h1zM447 234q5 0 10 -2q18 -8 18 -28q0 -6 -2 -14t-4 -13t-4.5 -11t-2.5 -7q-16 -35 -49 -40q-32 19 -32 49
q0 24 21 45t44 21h1z" />
    <glyph glyph-name="semicolon" unicode=";" horiz-adv-x="1000" 
d="M427 450q6 0 11 -2q10 -4 14.5 -11.5t4.5 -18.5q0 -10 -11 -42q-14 -36 -46 -43q-18 9 -26.5 22t-8.5 27q0 25 20 46t42 22zM422 254q19 0 30 -17q5 -9 8 -19.5t3 -21.5q0 -41 -21 -66q-56 -52 -71 -52q-2 0 -4 1q-8 9 -8 19t8.5 21t22 23t16.5 16q12 11 12 21
q0 13 -18 25l-2.5 2.5t-2.5 3.5t-1.5 3.5t-0.5 3.5q0 9 7 19t12 14q4 4 10 4z" />
    <glyph glyph-name="less" unicode="&#x3c;" 
d="M366 688q11 0 19 -7q13 -11 13 -28q0 -14 -9 -21q-1 -1 -18 -20t-27 -27q-18 -13 -34 -28.5t-40.5 -41.5t-31 -32.5l-26 -26t-33.5 -34t-26 -29.5q-4 -5 -14.5 -14t-14.5 -15l-2 -2l2 -3q3 -4 8.5 -9t11.5 -10.5t9 -9.5q12 -15 26 -29.5t33.5 -33.5t26 -26t31 -33
t40.5 -41.5t34 -28.5q6 -5 12 -11t11 -11.5t11 -12.5t11 -11q9 -8 9 -22q0 -17 -13 -28q-8 -7 -19 -7q-8 0 -15 4q-13 6 -24 15.5t-25 27.5t-18 22q-21 21 -59.5 62.5t-70.5 71.5q-17 16 -32 32t-27.5 27.5t-34.5 28.5q-20 17 -20 36q0 18 20 35q22 17 34.5 28.5t27.5 27.5
t32 32q32 31 70.5 72t59.5 62q4 4 18 22t25 27.5t24 15.5q7 4 15 4z" />
    <glyph glyph-name="equal" unicode="=" horiz-adv-x="424" 
d="M344 359h1q12 -1 23 -8.5t11 -19.5q0 -15 -31 -18q-64 -14 -145 -14q-42 0 -122 5q-27 2 -35 13q-6 8 -6 19q0 13 10 20q5 3 12 3q5 0 14 -2.5t13 -2.5q28 -2 61 -2q34 0 98.5 3.5t95.5 3.5zM113 189h1h2q14 0 28 -1q23 -3 50 -3q18 0 51 1.5t47 2.5q4 -1 8 -1
q8 0 25 1.5t25 1.5h5h1q5 0 10 -1.5t9 -3.5t6.5 -6.5t2.5 -9.5q0 -8 -7 -14t-15 -7q-18 -1 -51.5 -5t-47.5 -5q-38 -3 -81 -3q-35 0 -54 3q-53 6 -64 16q-7 4 -9 12t3 14q8 9 25 9q5 0 13.5 -0.5t12.5 -0.5h4z" />
    <glyph glyph-name="greater" unicode="&#x3e;" 
d="M72 688q8 0 15 -4q13 -6 23.5 -15.5t25 -27.5t18.5 -22q20 -21 59 -62t71 -72q17 -16 32 -32t27.5 -27.5t34.5 -28.5q20 -17 20 -35q0 -19 -20 -36q-22 -17 -34.5 -28.5t-27.5 -27.5t-32 -32q-25 -23 -44.5 -44t-42 -44.5t-43.5 -45.5q-4 -4 -18.5 -22t-25 -27.5
t-23.5 -15.5q-7 -4 -16 -4q-10 0 -18 7q-13 11 -13 28q0 7 2.5 12.5t6.5 9.5q1 0 18 19t26 27q18 13 34.5 28.5t41 41.5t30.5 33q8 7 21.5 20.5l22.5 22.5t21 21.5t21 24.5q3 4 9 9.5t11.5 10.5t8.5 9l2 3l-2 2q-3 5 -8.5 10t-11.5 10t-9 9q-9 12 -21 24.5t-21 22
t-22.5 22.5t-21.5 20q-6 7 -30.5 33t-41 41.5t-34.5 28.5q-5 5 -11.5 11t-11 11.5t-10.5 12.5t-11 12q-3 2 -5 5.5t-3 7.5t-1 8q0 5 1.5 10.5t4.5 10t7 7.5q8 7 19 7z" />
    <glyph glyph-name="question" unicode="?" horiz-adv-x="455" 
d="M249 701q31 -2 59 -11q34 -11 62 -34.5t44 -55.5q9 -17 11 -44q1 -5 1 -10q0 -43 -28 -77q-14 -17 -31.5 -31.5t-48.5 -35t-37 -24.5q-69 -48 -85 -95q-11 -18 -14 -38q-2 -13 -2 -24q0 -15 5 -40.5t6 -42.5t1 -27q0 -34 -11 -55q-9 -16 -33 -16q-20 0 -23 13
q-11 66 -11 129q0 27 2.5 48.5t8 42.5t15 41t24.5 43q17 14 50 37t58.5 43t45.5 42q36 39 36 74v7q-5 36 -47 69q-29 18 -66 18q-14 0 -27 -2q-76 -14 -138 -78q-24 -26 -39 -58q-8 -14 -20 -14q-4 0 -7 2q-16 8 -16 33q0 43 49 80q34 43 86 67t109 24h11zM179 -8
q12 -1 22 -7q25 -15 28 -58q-2 -19 -18 -37q-19 -23 -44 -23q-8 0 -15 3q-26 11 -39 29q-9 11 -9 27q0 14 6 25q11 18 29 29.5t38 11.5h1h1z" />
    <glyph glyph-name="at" unicode="@" horiz-adv-x="831" 
d="M437 696q56 -1 104 -18t83 -43t66 -65.5t52.5 -79.5t42.5 -91q17 -45 17 -96q0 -61 -23 -122q-31 -79 -63 -122q-41 -54 -85 -66q-18 -4 -36 -4q-29 0 -54 10q-40 18 -60 76q-5 10 -5.5 31.5t-4.5 31.5q-1 7 -8 0q-12 -11 -26 -29t-27.5 -34.5t-26.5 -28.5
q-34 -28 -63 -40q-22 -9 -44 -9q-26 0 -45 13q-31 19 -31 59q0 53 41 123q15 27 34.5 52t45 51t42.5 41.5t48 44.5q44 41 80 44q4 1 7 1q30 0 45 -26q10 -16 10 -39q0 -13 -4 -31q-12 -54 -13 -65q-5 -47 -5 -78q0 -55 16 -96q12 -27 18 -33q15 -10 36 -10q19 0 38 9
q32 17 42 40q13 19 23.5 41.5t18.5 46.5t12 49t4 49q0 53 -21.5 114.5t-57.5 114.5t-89 88.5t-108 35.5q-61 0 -119 -27.5t-102.5 -74t-79 -105t-52.5 -122.5t-18 -124q0 -44 10 -82q20 -53 56 -100q9 -12 36.5 -23t37.5 -22q5 -6 5 -14q0 -11 -9 -21q-3 -5 -11 -4h-2
q-57 0 -105 52q-38 39 -68 123q-12 42 -12 92q0 66 21.5 138.5t60 138.5t88.5 119t112.5 84.5t124.5 31.5zM481 354v1q-59 -25 -115 -95q-6 -10 -21.5 -29.5t-27 -35t-20.5 -30.5q-18 -28 -27 -62q-4 -8 -4 -17q0 -18 13 -26q5 -3 11 -3q10 0 20 6q46 13 77 66q5 7 19 26
t23.5 32.5t16.5 26.5q36 63 36 121q0 9 -1 19z" />
    <glyph glyph-name="A" unicode="A" horiz-adv-x="584" 
d="M320 702q9 0 14 -12q1 -3 3 -14t4 -17q17 -52 19 -80q2 -40 6.5 -114.5t6.5 -108.5v-13t4 -17h2q5 0 11 2t13 5t11 4q11 4 20 4q10 0 17 -6q8 -8 8 -19q0 -4 -1 -8t-2.5 -7.5t-4 -7t-5.5 -5.5q-9 -9 -30 -15.5t-28 -10.5q5 -18 20.5 -90t32.5 -108q6 -8 6 -19
q0 -20 -16 -29q-6 -4 -14 -4q-23 0 -34 21q-4 12 -7 24.5t-6 31.5t-5 25q0 3 -4.5 25t-6.5 29t-6.5 23t-10.5 27.5t-13 21.5q-40 -7 -100 -42q-1 -1 -21.5 -13t-29.5 -20q-28 -27 -44 -94q-1 -4 -3.5 -15.5t-4 -17t-4.5 -15.5t-6 -16t-7.5 -14t-9.5 -14q-2 -4 -6 -6.5t-8 -4
t-8 -1.5q-11 0 -18 8q-4 9 -4 20q0 13 6 31q56 129 101 276q15 43 44 135t45 140q7 15 15.5 43.5t12.5 39.5q5 16 17.5 28.5t28.5 13.5zM307 577q0 5 -3 -1l-1 -2q-29 -71 -40 -111q-4 -24 -13 -43q-8 -21 -26.5 -82.5t-33.5 -93.5q15 5 32.5 13.5t30.5 16.5t30.5 18.5
t30.5 17.5q1 0 2.5 1t3 1.5t1.5 1.5q-5 27 -7 55.5t-2 64.5v14.5v17v15.5q0 59 -5 96z" />
    <glyph glyph-name="B" unicode="B" horiz-adv-x="584" 
d="M204 713q6 0 10 -2q5 -1 8.5 -5.5t4.5 -7t4 -9.5t3 -8q5 -16 19 -15q35 4 64 4q40 0 74 -7q60 -12 78 -41q9 -15 13 -30t4 -31t-3.5 -32t-10 -32t-13.5 -30t-17 -29t-17 -25t-16.5 -23.5t-13.5 -18.5q3 -1 13 -3t12 -2q35 -6 74 -28q13 -8 23 -20t15.5 -27t8.5 -31.5
t3 -35.5q0 -21 -3.5 -42.5t-10.5 -40.5q-17 -49 -94 -100q-56 -37 -87 -46q-13 -3 -29 -3q-47 0 -70 21q-19 18 -24 34q-2 10 -2 19q0 8 2 16t6 14q2 4 5.5 6t7.5 1.5t6 -3.5q30 -42 67 -42t104 48q45 33 60 69q4 10 6 20.5t2 21.5q0 34 -18 62q-15 20 -38.5 32t-48.5 12
q-6 0 -11.5 -0.5t-11.5 -2.5q-51 -17 -96 -47q-52 -37 -62 -78v-6.5v-6.5v-6q0 -16 0.5 -32t1.5 -32q1 -6 1.5 -11.5t0.5 -11.5q0 -13 -2.5 -26t-7.5 -25q-11 -23 -27 -25q-13 0 -17 14q-5 17 -5 47v9.5v9.5q1 214 16 402q1 10 4.5 27.5t3.5 29.5q-2 9 -3 9h-1
q-4 0 -12.5 -8t-13.5 -16q-23 -36 -29 -53q-1 -3 -1.5 -7l-1 -8t-1 -7.5t-2 -7.5t-4.5 -6q-5 -4 -10.5 -2.5t-8.5 6.5q-11 13 -11 33q0 14 6 29q10 28 37 65q7 10 26.5 28.5t26.5 30.5q4 7 6 14.5t2.5 13.5t1.5 14.5t2 14.5q2 8 8 13t14 5zM309 612q-42 0 -70 -16
q-11 -46 -18 -129q-7 -73 -9 -109q0 -3 -0.5 -6t-0.5 -6.5v-6.5q0 -8 4 -13q3 -2 5.5 -3t6.5 -1q5 0 19 4q26 10 46 20q14 8 28.5 21.5t22 21.5t24 29.5t20.5 25.5q42 78 42 113q0 8 -2 15t-6.5 12.5t-11.5 9.5q-34 17 -100 18z" />
    <glyph glyph-name="C" unicode="C" horiz-adv-x="471" 
d="M285 688h2.5h2.5q48 0 73 -18q10 -8 15.5 -19.5t5.5 -23.5q0 -9 -3 -17q-7 -23 -22 -25q-13 0 -18 21q-21 15 -47 16h-2q-15 0 -30.5 -6.5t-27.5 -16t-23 -22.5q-43 -51 -71 -140q-26 -87 -26 -169q0 -26 3 -51q10 -83 48 -125q5 -6 11.5 -11t13 -9t14 -7.5t15 -5.5
t15 -3t15.5 -1q11 0 22 2q20 4 41.5 15.5t33 19.5t35.5 26q15 15 24 15h1.5h1.5q13 -3 13 -20v-6q-7 -25 -18 -39q-30 -37 -91 -59q-40 -13 -74 -13q-25 0 -47 7q-25 8 -54 40q-72 78 -85 205q0 6 -0.5 12l-1 12t-0.5 12v12q0 121 53 227q55 110 147 154q28 11 34 11h1z" />
    <glyph glyph-name="D" unicode="D" horiz-adv-x="548" 
d="M185 700h1q19 0 47 -2q5 0 9 -1q8 1 15 1.5t15 0.5q25 0 50 -5t47.5 -16t38.5 -27q23 -22 40.5 -53.5t28.5 -67t16 -74t5 -78.5q0 -69 -15 -132q-25 -101 -89 -174.5t-136 -73.5h-3h-3h-27h-26.5t-30.5 0.5t-25 0.5h-10h-2q-34 0 -34 18q0 11 11.5 25t22.5 23
q17 95 20 292t10 262q-3 7 -1 16q-4 6 -8.5 8.5t-9.5 2.5q-13 0 -43 -16t-40 -16q-5 0 -8 2q-1 5 -1 9q0 18 18 36q23 22 50 30t67 9zM252 642h-1h-1q-18 0 -35 -6q-8 -79 -8 -224v-16.5v-19v-17.5q0 -147 -9 -226q-1 -5 -1 -9.5v-9.5q0 -31 17 -50q21 -9 41 -9q53 0 98 56
t69 146q6 23 10 46.5t6 47t2 46.5q0 86 -30 148.5t-91 82.5q-43 14 -67 14z" />
    <glyph glyph-name="E" unicode="E" horiz-adv-x="538" 
d="M232 720q8 0 14 -9q7 -13 7 -39v-5.5v-4.5v-18q11 7 18 12t18 10.5t20 8.5t21 5.5t24 2.5q17 0 36 -5q14 -3 41 -23q3 -4 24 -26t31 -37q3 -5 3 -12q0 -3 -0.5 -6t-2 -5t-3.5 -4t-5 -3q-9 -3 -19 6q-7 5 -20.5 16.5t-22 18t-21.5 13t-26 9.5q-10 3 -20 3
q-14 0 -27.5 -3.5t-27.5 -10.5q-3 -1 -11.5 -5t-13 -6.5t-10 -7t-9.5 -9.5q-5 -11 -8.5 -23.5t-5.5 -29.5t-4 -25q-4 -21 -6.5 -39t-4 -39t-1.5 -40v-5v-6v-6v-3.5v-4v-3.5q14 -3 55 -8.5t68 -15.5t43 -30l4 -8v-14q-5 -7 -20 -7q-18 0 -29 6q-43 17 -77 17q-11 0 -26 -1
q-16 -1 -17 -30q2 -81 13 -152q1 -2 6 -23t10 -28q22 -27 62 -27h5q59 2 91 39q3 3 7 9.5t7.5 11.5t8 11t8.5 10.5t9 8.5t10 7q13 5 18 2q5 -6 1 -26q-14 -47 -47 -87q-14 -17 -37 -26q-43 -17 -87 -17q-56 0 -85 29q-39 40 -47 105q-1 10 -6 48.5t-7 58.5q-1 17 -1 37
q-3 16 -11 21q-5 2 -12 2q-10 0 -30.5 -5.5t-28.5 -5.5q-5 0 -9.5 1.5t-7.5 4.5q-11 11 -11 21q0 14 21.5 24t51 18.5t37.5 12.5q0 20 1 44q2 69 21 185q15 79 26 111q9 22 24 24z" />
    <glyph glyph-name="F" unicode="F" horiz-adv-x="602" 
d="M174 11q-13 30 -13 77q0 11 0.5 24t1.5 25l2 24t1.5 24.5t0.5 22.5q0 49 -15 75q-5 2 -12 2q-10 0 -30 -5.5t-29 -5.5q-5 0 -9 1.5t-8 4.5q-11 11 -11 21q0 9 9 16.5t23 12.5t29 9.5t29 9t20 7.5q-1 74 24 244q-6 0 -117 -11h-2q-8 0 -13 5.5t-5 14.5t6.5 17.5t19.5 12.5
q91 25 128 29q14 1 60 2t71 6q8 1 38.5 2.5t46.5 1.5q49 0 83 -13q10 -7 19 -18t15.5 -24t11 -27.5t4.5 -26.5q0 -10 -3 -18.5t-10 -14.5q-6 -6 -12 -6q-9 0 -18.5 14t-17 30.5t-20 30t-27.5 14.5q-50 5 -77 5q-59 0 -101 -22q-16 -22 -25.5 -56t-12.5 -59.5t-5.5 -68
t-4.5 -57.5q16 -4 56.5 -9t69 -15t44.5 -31q6 -9 6 -16q0 -13 -22 -13q-17 0 -29 6q-42 17 -92 17h-13t-14 -1q-12 -5 -10 -26q-1 -14 -2 -28.5t-1 -30.5q0 -23 2.5 -69.5t2.5 -69.5q4 -35 4 -37q0 -28 -22 -39q-15 -7 -25 10z" />
    <glyph glyph-name="G" unicode="G" horiz-adv-x="509" 
d="M360 75q-16 -3 -32 -5.5t-30.5 -4.5t-28 -3t-26.5 -1q-103 0 -148 50t-45 134q0 67 27 152q33 98 71 162q24 38 67.5 67t91.5 47q10 3 22 3q21 0 42.5 -13.5t35.5 -30.5t23 -34q3 -7 9.5 -18t10 -18t6.5 -15t3 -14q0 -10 -10 -16q-5 -4 -11 -4q-9 0 -18 10t-23 31
q-9 14 -14.5 21.5t-14.5 18t-18.5 15t-19.5 4.5q-6 0 -11 -1q-29 -8 -66.5 -38t-58.5 -58q-89 -130 -90 -284q2 -32 13.5 -56t29.5 -37t38.5 -19t45.5 -6q44 0 87 17q49 26 49 140q0 9 -0.5 18.5t-1 17.5t-1.5 15.5t-2 13t-2 10t-1.5 6.5t-1.5 2q-16 0 -59 -18.5t-64 -18.5
h-5.5t-5 0.5l-5 1t-4.5 1.5q-17 5 -17 13q0 11 50 31q40 15 149 45q2 1 4.5 1.5l5 1t4.5 0.5h4q13 0 23 -5.5t15 -13t5 -15.5q0 -6 -4 -10.5t-11 -5.5q-9 -2 -15.5 -8.5t-9.5 -18t-4 -22.5t-1 -27q0 -6 0.5 -19t0.5 -19q0 -18 -2 -30q0 -15 -1 -58.5t-1 -74.5q0 -17 2 -47.5
t2 -41.5q0 -32 -13 -34q-5 -1 -10 -1q-9 0 -14.5 3t-8.5 9t-4 12.5t-1 16.5q0 8 1 24.5t1 24.5q0 15 -4 24z" />
    <glyph glyph-name="H" unicode="H" horiz-adv-x="616" 
d="M148 22v20v20.5v21.5v22q0 69 -3.5 116t-13.5 64q-4 7 -4.5 18.5t-6.5 16t-28 6.5q-20 0 -31 8.5t-11 20.5q0 13 13 22t35 9h8q16 0 24.5 9t9.5 17.5t1 21.5v2q0 8 1 11q3 27 4 80.5t7.5 84t26.5 46.5q32 -13 32 -86q0 -35 -8.5 -97.5t-8.5 -72.5q0 -11 4 -11
q37 11 82.5 14.5t79.5 3t65.5 1.5t50.5 15t22 40l1 19q0 22 -3.5 74.5t-3.5 73.5q0 16 1 27t4.5 18t8.5 8t8 1q13 0 21.5 -7t13 -19.5t6.5 -27t2 -33.5q0 -23 -3.5 -65t-2.5 -55q-7 -35 -7 -87q0 -59 11 -179.5t11 -162.5q0 -8 -0.5 -15.5t-1 -14.5t-1.5 -13.5t-2 -11.5
t-3 -9.5t-4 -8t-5 -5.5t-6 -3.5t-7 -1.5q-1 0 -3 0.5t-3 0.5q-20 5 -28 53.5t-10 132.5t-6 114q-4 39 -26.5 61.5t-58.5 25.5q-5 0 -27.5 -0.5t-32 -1.5t-30 -2.5t-31.5 -4.5t-26 -7.5t-25.5 -11.5t-17.5 -17q-3 -3 -5.5 -9.5t-4.5 -15.5t-3 -20.5t-1.5 -23.5t-0.5 -26
q0 -36 3.5 -104.5t3.5 -88.5q0 -8 -2.5 -15t-6.5 -11t-9 -6.5t-10 -2.5q-12 0 -20 9t-8 25z" />
    <glyph glyph-name="I" unicode="I" horiz-adv-x="371" 
d="M169 62q6 53 6 122q0 43 -2.5 97.5t-5 98.5t-5 96.5t-2.5 92.5q0 10 0.5 19.5t0.5 19.5t1 19q-7 15 -20 15q-11 0 -27 -9.5t-31.5 -19t-24.5 -9.5l-7 3q-1 1 -1 2.5t-0.5 4t-0.5 4.5q0 16 16 34q26 29 61 38t100 10h5q26 0 45.5 -4t31 -11.5t13.5 -18.5q-10 -10 -34 -10
q-6 0 -18.5 0.5t-19.5 0.5q-22 0 -35 -7q-2 -29 -2 -62q0 -66 9.5 -201t9.5 -201q0 -27 -1 -52v-10q0 -13 2 -24.5t8 -19t10.5 -13t13.5 -10t13.5 -6.5t15.5 -5t13 -4q12 -4 12 -20q0 -8 -4 -14.5t-12 -7.5q-7 -1 -14.5 -1.5t-14.5 -0.5t-13.5 -0.5t-14.5 -0.5
q-5 0 -15.5 0.5t-15.5 0.5q-23 0 -39 -2h-10q-28 0 -28 17q0 7 5.5 17.5t12.5 18.5t13 13z" />
    <glyph glyph-name="J" unicode="J" horiz-adv-x="619" 
d="M382 684h1h2q73 0 128 -20q30 -11 38 -17q19 -20 19 -54q0 -4 -1 -9q-3 -23 -8 -30q-4 -6 -11 -8t-13 3q-4 4 -6 10.5t-2 11.5t-1.5 11.5t-5.5 10.5q-17 16 -43 25q4 -18 7 -72.5t5 -68.5q3 -17 4.5 -35.5t1.5 -39.5q0 -22 -2 -65.5t-2 -64.5v-5.5v-4.5q0 -9 -1 -39
t-2 -44.5t-5 -42t-10 -44.5t-17.5 -37t-27.5 -35q-33 -17 -72.5 -26t-81.5 -9q-56 0 -110 15q-15 7 -48 16t-48 17q-20 5 -20 27q0 4 0.5 7.5t2 6.5t3 5.5t4 4.5t5.5 3.5t6 1.5t6.5 -1.5t6.5 -4.5q86 -23 137 -32q31 -6 58 -6q75 0 116.5 49t41.5 141v10q0 11 0.5 22
t0.5 21.5v20.5q0 88 -12 210q-1 7 -2 15.5t-2 19t-1 20.5q0 16 2 30t7 24q-21 2 -42 2q-87 0 -175 -30q-5 -1 -10 -3t-10.5 -5t-9.5 -5q-5 -3 -10.5 0t-6.5 9q2 31 30 49q77 37 186 39z" />
    <glyph glyph-name="K" unicode="K" horiz-adv-x="634" 
d="M314 124q-7 13 -17.5 37t-20.5 46t-22 47.5t-23.5 46.5t-23 38.5t-22.5 27.5t-20 10q-3 0 -5 -0.5t-5 -2.5q-41 -14 -41 -152q0 -14 0.5 -26.5t1.5 -23.5q1 -73 25 -155q1 -2 1 -3.5v-2.5q-2 -29 -25 -30q-13 0 -26 10.5t-19 26.5q-21 60 -21 175q0 21 1 48.5t1.5 54
t0.5 45.5q0 47 -4 75q0 38 5.5 118.5t5.5 123.5q0 21 9 33t22 12q11 0 18.5 -10t6.5 -28q2 -13 2.5 -26t0.5 -27q0 -29 -4 -85t-4 -81q0 -16 1 -29q0 -2 2 -2q4 0 20.5 11.5t39 28t55.5 36.5t68 37t77.5 28t83.5 11h4q37 -1 64 -13q22 -14 22 -38q0 -17 -11 -31t-26 -14
q-9 0 -17 6q-25 21 -73 21q-39 0 -77.5 -12.5t-65 -35.5t-26.5 -49q0 -10 4 -19q58 -100 111 -249q17 -46 47.5 -70.5t67.5 -24.5q35 0 71 21q10 6 17 6t10.5 -5.5t3.5 -15.5q0 -22 -20 -38t-44.5 -22.5t-49.5 -6.5q-110 0 -157 147z" />
    <glyph glyph-name="L" unicode="L" horiz-adv-x="524" 
d="M101 700h2q8 0 14 -5.5t7 -14.5v-43q0 -18 -0.5 -51.5t-0.5 -37.5q-1 -133 -1 -179q0 -129 7 -225q6 -31 16 -54q12 -25 34 -27h7.5h7.5h8h8q43 0 75 5q28 1 70 4l36 2q13 0 24 -2q3 0 14 -1.5t16 -2.5t12.5 -4t11.5 -9q5 -6 5 -15q0 -8 -3 -15q-14 -29 -51 -31
q-27 3 -95 5q-6 0 -49 2.5t-66 2.5q-4 0 -13 -0.5t-15.5 -1t-12.5 -0.5q-8 0 -15 0.5t-14 2.5q-41 8 -60 46q-5 9 -9 20t-6 24t-3 21t-2.5 24.5t-1.5 22.5q-3 33 -4.5 68t-2.5 69t-1 69q0 103 7 218q1 13 3 40.5t3 42.5q3 12 14 20.5t24 9.5z" />
    <glyph glyph-name="M" unicode="M" horiz-adv-x="886" 
d="M57 64q-2 127 -2 143q0 32 1 63.5t3 65.5q-1 11 -1 29q0 17 1 69t1 82q0 69 22 114.5t53 46.5q7 0 15 -3q33 -27 56 -51.5t33.5 -39.5t29 -44t32.5 -49q10 -14 27.5 -42t30.5 -46.5t30.5 -40t37 -36t40.5 -20.5q35 15 94 79.5t108 131.5t75 112q17 30 46 30
q14 0 23.5 -14t10.5 -32q1 -19 1 -38q0 -25 -1.5 -73t-1.5 -75q0 -64 -1.5 -198.5t-1.5 -208.5q0 -6 -1.5 -10.5t-5 -7.5t-4.5 -3.5t-6 -2.5q-3 -2 -8 -2q-16 0 -29.5 18t-14.5 62q-1 13 -1 33q0 35 3.5 146t3.5 160q0 46 -2.5 72t-8.5 26q-2 0 -5 -3q-27 -51 -60 -91.5
t-84.5 -92t-73.5 -76.5q-4 -2 -7.5 -4.5t-7.5 -4l-8 -3t-7.5 -2.5t-7.5 -1.5t-8 -0.5q-24 0 -49.5 13t-50.5 34q-46 50 -114.5 149t-89.5 126l-5 5l-3.5 3.5t-3.5 2.5t-3.5 1.5t-3.5 0.5q-20 0 -23 -58q-4 -53 -8.5 -146.5t-6.5 -136.5q-1 -23 -1 -50q0 -17 0.5 -50t0.5 -49
q0 -23 -1 -44q-8 -32 -26 -33q-13 0 -23 14.5t-10 34.5q0 8 2 16z" />
    <glyph glyph-name="N" unicode="N" horiz-adv-x="700" 
d="M58 463q-1 12 -4.5 56t-3.5 69q0 91 43 101q15 -6 30 -17t28.5 -27.5t24 -31t24.5 -35t22 -31.5q20 -27 46.5 -71t44.5 -76t48 -89t38 -71q3 -6 14.5 -26.5t15.5 -28.5t15 -25.5t17 -26t16.5 -21t19.5 -19t20 -13t22 -9.5h3q36 0 36 92q0 16 -1 48t-1 46q0 32 -5.5 130
t-5.5 150q0 37 2 68.5t8 55.5q5 23 16.5 34.5t24.5 11.5q8 0 15 -4t11 -12.5t4 -19.5q0 -17 -10 -36q-1 -8 -1.5 -17.5t-0.5 -19.5t-0.5 -20t-0.5 -22q0 -23 1 -52.5t2 -57.5t2 -55t1.5 -54t0.5 -47v-25q-1 -4 -1 -9q0 -7 9 -97q2 -22 2 -38q0 -51 -23 -81q-32 -42 -69 -43
q-13 0 -28 6t-25.5 12t-28 17.5t-25.5 16.5q-32 18 -64 65t-54 94.5t-49.5 104t-46.5 84.5q-6 8 -13.5 20.5t-14.5 24t-15 25t-16 24.5t-16 20t-17 14t-17 5q-3 0 -7 -1q-12 -60 -12 -226q0 -32 0.5 -90.5t0.5 -82.5q0 -96 -6 -118q0 -3 -1.5 -5t-3 -3.5t-3.5 -2.5
t-4.5 -1.5t-4.5 -0.5q-18 0 -23 16q-4 12 -5 59t-1 124v89v89v87z" />
    <glyph glyph-name="O" unicode="O" horiz-adv-x="587" 
d="M252 716h1q29 0 54.5 -12.5t57.5 -34.5q77 -59 125 -149q25 -49 38 -97q2 -9 4 -19t3 -19.5t1.5 -19t0.5 -19.5q0 -33 -6 -66t-18 -65q-40 -109 -125 -179q-31 -25 -66 -41t-72 -18h-5q-64 0 -100 44q-39 36 -62 114q-19 55 -24 86q-5 24 -7 49.5t-2 52.5q0 26 1.5 55.5
t4.5 66.5t4 56q0 16 11 47q19 50 54.5 90.5t82.5 63.5q3 1 10 4t11.5 5t11 3.5t11.5 1.5zM186 605q-25 -21 -44 -63q-22 -50 -29 -109q-3 -33 -3 -66q0 -62 10 -121q12 -74 44 -137q1 -2 2.5 -5.5t3 -5.5t3 -5.5t3 -5.5t3.5 -5t4 -4.5t5 -3.5t5 -3q25 -7 50 -7q19 0 37 3.5
t34 11.5q68 31 112 115q46 91 46 184v7v6q-9 45 -36 99q-44 82 -96 112q-45 32 -77 32q-30 0 -77 -29z" />
    <glyph glyph-name="P" unicode="P" horiz-adv-x="491" 
d="M112 708q7 8 17 8q18 0 30 -14q3 -3 5.5 -19t10.5 -16q15 11 31 15q14 4 30 4q21 0 42.5 -5.5t43.5 -15.5q60 -21 93 -73q29 -45 29 -109q0 -57 -24.5 -108t-69.5 -79q-9 -5 -18 -9.5t-18 -7.5t-19 -5t-21 -3.5t-22.5 -2t-24.5 -0.5q-22 0 -55 2q-18 1 -21 -2v-116v-7
v-8.5v-7.5q0 -40 13 -61q4 2 8.5 2t9 -3t6.5 -7q5 -13 5 -26q0 -15 -6 -28q-1 -2 -3.5 -4t-6.5 -3.5t-9 -2t-10 -0.5q-7 0 -13.5 1t-9.5 3q-14 8 -22.5 24.5t-12 44.5t-4 40t-1.5 41v7.5v6.5v6v5q0 14 0.5 34.5t0.5 37.5v21q-2 0 -4 -0.5t-4 -0.5t-4 -0.5t-4 -0.5h-4h-4h-4
q-11 0 -19.5 7.5t-8.5 23.5q0 26 20 34q3 1 7.5 1.5t8 0.5t6.5 1.5t2 5.5v24q0 25 0.5 56t1 60t0.5 48q1 12 1.5 36.5t1.5 36t4 31t8 38.5q0 1 4.5 18.5t6.5 19.5zM242 619q-17 0 -35 -7q-28 -8 -43 -42q-16 -39 -16 -150v-25.5v-23.5v-8v-12.5v-10.5v-10q7 -1 15.5 -1.5
t18 -0.5h13.5h19q171 0 171 140q0 23 -5 51q-2 11 -15 29t-25 27q-14 10 -23 16t-22.5 13.5t-26 11t-26.5 3.5z" />
    <glyph glyph-name="Q" unicode="Q" horiz-adv-x="728" 
d="M521 692q5 0 10 -1q26 -13 43.5 -37t23.5 -53q16 -42 16 -90v-6.5v-7.5v-7q0 -15 -2 -27q-5 -33 -15 -89q-18 -102 -44 -170q6 -23 33 -68q9 -15 23.5 -42t20.5 -37q13 -22 20.5 -35t15 -34t8.5 -40q-1 -4 3 -17q1 -5 1 -10q0 -27 -21 -33h-3h-2q-16 0 -24 19
q-8 37 -11 44q-25 73 -71 127q-3 3 -7 8.5t-7 9t-7 7.5t-8.5 7t-9.5 6q-4 2 -10 -6q-17 -21 -43 -39t-45.5 -27.5t-53.5 -24.5q-42 -17 -135 -17q-16 0 -33 1q-55 3 -82 30q-40 37 -51 96q-4 24 -4 52q0 46 19 145q13 83 57 165q51 96 119 142q47 34 102 34q16 0 30 -3
q5 -2 10 -2t25 6q8 2 23 7.5t25 8.5t24 6t26 3h5.5t5.5 -1zM492 621h-9q-31 0 -68 -24q-30 -21 -53 -34q-65 -38 -82 -78q-12 -2 -17 -1q-8 2 -12 8.5t-3 14.5q4 25 32 68q-6 -3 -13 -6q-7 -5 -14.5 -10.5t-13 -10.5t-12.5 -13t-11 -12.5t-11.5 -14.5t-10 -14t-10 -15
t-9.5 -14q-63 -136 -65 -272v-7v-6q0 -6 0.5 -11.5t1 -11.5t2 -11.5t3.5 -11t5 -10.5q24 -48 99 -48q44 0 154 27q54 20 80 66q13 22 13 47q0 18 -8 33q-16 18 -44 67t-50 70q-7 8 -18 11q-16 6 -16 22q0 3 1 6q5 12 17 19.5t25 7.5h2h2q9 0 27 -15q19 -15 36 -37.5
t35 -50.5t30 -43q8 6 15 24t13.5 40t11 44.5t7.5 44.5t3 38v3.5v2.5q1 47 -16 82q-7 15 -20.5 25t-28.5 11z" />
    <glyph glyph-name="R" unicode="R" horiz-adv-x="535" 
d="M134 746q5 -1 14 -11q5 -5 8 -11t4 -13t1.5 -13t0.5 -14v-4v-4v-4q0 -20 11 -24l20 7q5 2 10 3t10 1.5l10 1l10 1l10 1t10 0.5q34 0 68 -9q73 -18 105 -65q18 -28 18 -55q-5 -63 -58 -131l-12 -15t-14.5 -17.5t-12.5 -13.5q-28 -24 -100 -52q12 -12 22 -25
q22 -28 52 -87.5t35 -67.5q15 -27 42 -55q5 -4 11 -7.5t12 -5.5t12.5 -3.5t13 -2t13.5 -0.5h6.5t6.5 0.5t7 0.5q6 -8 5 -17q-2 -21 -29 -39q-26 -16 -43 -16h-3.5t-3 0.5t-3.5 0.5q-8 4 -24 20q-14 15 -29 36t-21 31.5t-23.5 43t-19.5 35.5q-38 67 -59 90q-3 3 -11 10.5
t-12 11.5t-11 9.5t-13.5 9t-14.5 5.5l-4 1q-9 0 -15 -8.5t-7 -19.5q0 -7 5 -167q0 -7 1.5 -21t1.5 -21q0 -9 -1.5 -17.5t-5.5 -15.5q-9 -21 -32 -21q-13 0 -16 4q-15 17 -15 70v12.5v11.5q0 25 3.5 73t3.5 72q0 14 -1 26q1 4 -4 6q-2 0 -3 1q-26 17 -26 42q0 9 7.5 15
t16.5 6q3 1 9 11q6 17 6 41q0 9 -1.5 28.5t-0.5 29.5q-5 90 -5 112v8q2 98 17 144q12 34 35 40zM227 603q-17 0 -31 -4q-37 -8 -47 -39q-10 -34 -10 -101v-4.5v-4.5q0 -15 -0.5 -26t-0.5 -22q-1 -4 -1 -8q0 -22 15 -32q3 -2 6.5 -3.5t6.5 -2.5t6.5 -1.5t7 -0.5h7.5
q14 0 33 5q57 16 101 59.5t63 99.5q8 15 -3 29q-19 20 -70 38q-62 18 -83 18z" />
    <glyph glyph-name="S" unicode="S" horiz-adv-x="497" 
d="M302 690h6q31 -2 47 -12q12 -7 12 -22q0 -8 -4 -15q-12 -22 -34 -24h-3q-5 0 -9.5 2.5t-7 6.5t-2.5 9q-11 -2 -23 -4q-103 -27 -154 -86q-19 -23 -22 -32v-8q0 -7 1 -15t3 -16q10 -38 40 -53q24 -12 57 -12q17 0 37 3q6 1 9.5 2t9 2t9.5 1.5t9.5 1.5t10 1.5t9.5 0.5h10
h6.5t7.5 -0.5t7.5 -1t7.5 -1.5q46 -8 74 -50q28 -40 29 -98q1 -12 1.5 -21t1 -20t0.5 -21q0 -52 -12 -90q-17 -63 -72 -95q-61 -35 -146 -35h-13q-70 1 -108 36q-20 16 -28 49q-18 55 -18 83q0 3 0.5 6t0.5 6.5t0.5 6.5t1.5 7q0 3 2 6.5t5 5.5t6.5 3t6.5 1q4 0 7 -1t5 -3
q10 -10 14 -43q0 -8 3.5 -20.5t4.5 -14.5q4 -32 27 -51q25 -20 69 -21q5 0 10 -0.5t10 -0.5q32 0 58 9q60 20 90 83q22 46 22 101q0 11 -1 21.5t-3 21.5t-5 21q-3 13 -10.5 24.5t-19.5 20t-25 10.5h-7q-16 0 -46.5 -4t-34.5 -4q-28 -3 -44 -3q-18 0 -33.5 3t-29.5 10
q-39 21 -70 85q-7 14 -11 30t-4 32q0 41 23 72q32 37 86 68q79 44 143 46z" />
    <glyph glyph-name="T" unicode="T" horiz-adv-x="804" 
d="M301 445q1 4 5 40.5t4 55.5q0 70 -47 70h-3q-11 -2 -31.5 -4t-35.5 -4t-31.5 -7t-26.5 -16.5t-13 -28.5q-8 -21 -32 -21q-15 0 -27.5 8.5t-12.5 20.5t15 23q5 10 12.5 18t14 13.5t17.5 12.5t16.5 10t19 9t17.5 8q22 5 65.5 11t64.5 9q10 1 22 1q31 0 71 -3t80.5 -6
t70.5 -3q12 0 22.5 0.5t21.5 1.5h2.5h2.5q17 0 50.5 2.5t49.5 2.5q29 0 51 -6q18 -14 18 -30q0 -23 -28.5 -44t-50.5 -21q-3 0 -5 0.5t-4 1.5t-3 2.5t-2 3.5t-1 4q0 4 2 8q-10 29 -124 29q-50 0 -100 -6t-68 -14v-7.5v-8.5t0.5 -8.5t0.5 -9.5q0 -27 -6 -131q-1 -30 -1 -62
q0 -57 6 -161q0 -7 0.5 -23t1 -24t2 -23t3 -24l3.5 -21t5 -20.5t7.5 -16.5t10.5 -14q4 -5 4 -11q0 -9 -6.5 -19t-17.5 -17t-22 -7q-13 0 -24 9.5t-18 30.5q-20 53 -20 186q0 32 1.5 96t1.5 93q0 23 -1 41z" />
    <glyph glyph-name="U" unicode="U" horiz-adv-x="638" 
d="M492 658q3 9 6.5 13t8.5 4q6 0 15 -8q9 -7 14.5 -17t8 -20t2.5 -22q0 -17 -3 -50.5t-3 -50.5q0 -24 1 -36q0 -9 0.5 -17.5t0.5 -17.5q0 -32 -3.5 -73.5l-7 -83t-3.5 -73.5q0 -3 0.5 -7.5t0.5 -6.5q0 -16 -3 -48t-3 -48q0 -4 0.5 -8t0.5 -8q2 -31 13 -40q8 -3 10.5 -3
t9 2.5t10.5 2.5q8 2 14 -8q6 -9 6 -21q0 -14 -8 -26q-13 -18 -40 -18q-7 0 -15 1q-20 2 -34.5 15.5t-17.5 37.5q-1 16 -2.5 41t-3.5 42q0 2 -1 7t-1.5 8t-2.5 6.5t-5 4.5q-1 1 -2 1q-8 0 -27 -16q-41 -27 -87 -53q-67 -38 -120 -39q-14 0 -28 3q-13 2 -25 9.5t-21 16.5
t-17 24t-13.5 27t-10.5 31t-8 31t-6 31.5t-4 27.5t-3 25t-2 18q-4 35 -4 82q0 16 0.5 49t0.5 50v6.5v6.5q0 5 -0.5 32.5t-1 38.5t-2.5 31t-5 36q-4 13 -14 24q-3 6 -5 13t-2 14q0 8 3 15q2 4 6 8t8 6t9 3.5t10.5 1.5t10 -1t9.5 -4q24 -11 24 -42q0 -9 2 -17q2 -11 3 -22.5
t1.5 -21t0.5 -21.5v-7.5v-9v-8.5q0 -24 -2 -63q0 -6 -2 -46.5t-2 -61.5q0 -18 1 -36.5t4 -46.5t4 -36q6 -66 40 -114q1 -2 4 -6.5t5 -7t4.5 -6t5.5 -5.5t6.5 -4t7.5 -3t8 -1h6t7 1q73 15 152 66q9 7 36 19.5t39 24.5q20 22 22 234v8v7.5t0.5 7.5t0.5 8t0.5 8t0.5 7
q0 5 -0.5 10t-1 9.5t-0.5 9t-0.5 9t-0.5 8.5q0 19 1.5 39t4.5 45.5t4 41.5z" />
    <glyph glyph-name="V" unicode="V" horiz-adv-x="682" 
d="M574 675q4 -1 6 -3q16 -14 16 -36q0 -6 -2 -11q-5 -22 -29 -56t-29 -43q-58 -76 -121 -230q-49 -102 -85 -225q-3 -8 -9 -31.5t-11 -35.5q-13 -30 -35 -30q-21 0 -32 28q-46 82 -78 178q-4 13 -46 166q-11 75 -37 155q-4 15 -13.5 42.5t-13.5 40.5q-5 30 -5 54
q0 6 0.5 12t0.5 11q2 21 13 22q3 0 5 -0.5t4 -2t3 -2.5t3 -4t2.5 -3.5t2.5 -4t3 -3.5q6 -11 12.5 -24t11 -23t10 -25.5t8 -24t7.5 -26.5t6.5 -24.5t6.5 -26.5t6 -25q5 -28 22.5 -85.5t20.5 -89.5q6 -23 47 -157q1 -3 4 -14.5t6 -16.5q9 -12 15 -7q8 9 22 50q1 3 5.5 15.5
t6.5 18t7.5 14t11.5 14.5q7 17 16 39.5t15.5 40t15.5 39.5t17 40q8 17 25.5 49.5t19.5 36.5q9 17 30 52t30 53q5 9 21 28q6 7 11.5 15.5t8 14.5t7 17.5t6.5 17.5q12 26 26 26h2z" />
    <glyph glyph-name="W" unicode="W" horiz-adv-x="864" 
d="M56 653q9 10 26 -2q10 -6 11 -17q33 -103 43 -198q10 -91 26 -143q13 -44 19 -65t20.5 -56t30.5 -60q4 -5 10 -13t9.5 -13t9.5 -11.5t11 -11t11.5 -9.5t14.5 -8q2 -1 4.5 -1.5l5 -1t5.5 -0.5q7 0 13.5 2.5t10.5 8.5q7 8 11 18t8 23.5t7 20.5q65 195 88 280q1 43 30 57
q4 3 9 3q17 0 21 -14q4 -9 4 -19q0 -7 -7 -39q-2 -12 -2 -25t2.5 -28t4 -23.5t7.5 -29t7 -24.5q7 -23 11 -54q8 -14 26 -60t34 -67q13 -18 28 -18q3 0 5 1q5 6 20 30q32 52 74 156t54 129q25 57 42 112q1 4 5.5 20t6.5 21t6.5 18.5t7.5 20.5t8 18t11 19l12 16q21 24 41 30
q7 2 14 -2t9 -11q1 -4 2 -7t1 -6.5v-6.5q0 -9 -1.5 -17.5t-4.5 -20.5q-10 -40 -34 -65q-11 -14 -20 -30t-17.5 -36.5t-13.5 -32.5t-13.5 -38.5t-11.5 -34.5q-4 -14 -15 -37.5t-15 -31.5q-1 -4 -10.5 -25.5t-12 -27t-11 -25t-12 -27t-11.5 -25t-12.5 -26.5t-12.5 -24
t-14 -25.5t-13.5 -23.5t-15.5 -24q-6 -16 -20 -26t-31 -10h-5q-28 2 -45 19q-18 22 -32 52.5t-21 51t-18 59.5q-1 4 -3 12.5t-3.5 13.5t-4 12.5t-6 13.5t-7.5 11q-6 6 -11 -1q-6 -7 -10 -15.5t-9 -22t-6 -16.5q-12 -36 -23 -54q-1 -3 -2 -9q-26 -83 -53 -117
q-22 -27 -50 -27l-7 1q-6 1 -11.5 3.5t-14.5 8t-10 6.5q-73 50 -123 157q-34 75 -51 154q-4 27 -9.5 60.5t-9.5 55t-8.5 50.5t-7.5 53.5t-6 55.5t-6 65q0 13 6 20z" />
    <glyph glyph-name="X" unicode="X" horiz-adv-x="647" 
d="M593 690q5 -2 5 -7t-3 -8q-8 -10 -27.5 -25.5t-26.5 -26.5q-94 -159 -154 -231q-8 -11 -22.5 -24t-26.5 -26t-19 -26q-5 -10 -5 -22q0 -18 9 -34q55 -75 113 -129q51 -49 99 -76q6 -4 17 -9.5t19.5 -10.5t15.5 -11q6 -7 6 -17q0 -6 -2 -12t-6 -10q-7 -6 -18 -6
q-6 0 -11 1t-11 3q-14 5 -28.5 13.5t-24.5 15t-27 18t-24 16.5q-8 5 -15 10.5t-14 13t-11.5 12t-13 14.5t-11.5 13q-17 15 -40.5 49t-28.5 40q-27 35 -57 35h-2q-3 -3 -15 -18q-20 -27 -50.5 -79.5t-41.5 -69.5q-33 -49 -53 -63q-14 -9 -21 -6q-17 8 -17 30v6q4 31 36 75
q49 62 53 67q50 71 64 121q5 17 5 30q0 22 -11 35q-23 39 -46 84q-63 127 -66 228q3 5 9.5 7t11.5 -1q15 -8 24 -36q5 -25 16 -52.5t26 -59.5t23 -51q3 -8 8.5 -26.5t9.5 -27.5q18 -37 48 -41h5q15 0 29 8.5t26 22.5q71 84 138 183q26 48 38 62q28 35 63 35q22 0 33 -6z" />
    <glyph glyph-name="Y" unicode="Y" horiz-adv-x="602" 
d="M68 729q18 0 28 -15q11 -43 18 -65q42 -129 76 -198q1 -2 5.5 -10t6.5 -12t6 -10t8 -10l8 -8q5 -6 8 0q2 10 9.5 17.5t17.5 7.5h2q10 0 16.5 -8.5t6.5 -18.5q5 -3 8 3q58 29 98 74q14 16 26.5 34.5t24 39.5t19.5 38t19.5 42t18.5 39q5 15 20 21q15 8 26 -4t8 -23
q-2 -4 -11 -30.5t-12 -34.5t-11.5 -29.5t-14 -33t-14.5 -28t-19 -30.5q-40 -61 -123 -111q-7 -5 -35.5 -21t-42.5 -27q1 -23 1 -50q0 -25 -0.5 -56.5l-1 -63t-0.5 -56.5v-51q0 -5 1 -14t1 -13q0 -12 -5 -20q-4 -7 -11.5 -11t-15.5 -4q-9 0 -17 4.5t-11 12.5q-1 23 -1 50
q0 25 0.5 74.5t0.5 74.5q0 70 -3 121q1 7 -8 19q-53 72 -96 189q-39 106 -52 183q-1 3 -1 5q0 7 5 12t12 5h1z" />
    <glyph glyph-name="Z" unicode="Z" horiz-adv-x="728" 
d="M467 691h1q21 0 35 -15q12 -14 12 -34q0 -14 -6 -27q-7 -65 -28 -124q-39 -112 -154 -235q-98 -106 -155 -180q15 4 56.5 11t58.5 11q32 7 96 7h6h6q77 0 149 -10q77 -11 122 -43q9 -6 11 -19q2 -7 -1 -14.5t-10 -10.5q-14 -7 -32 -7q-17 0 -28 3q-136 28 -251 28
q-82 0 -154 -14q-7 -2 -19 -5t-22.5 -5.5t-19.5 -2.5q-19 0 -34 7q-28 13 -35 30q-4 7 -4 16q0 19 14 38q27 38 82 83q41 33 77 75q15 17 39.5 41.5t45.5 47t36 44.5q41 56 70 141q14 41 14 71q0 16 -4 30q-13 0 -36.5 -0.5t-38.5 -0.5h-7t-7.5 -0.5t-7.5 -0.5h-7h-6
q-5 1 -10 1h-10h-10q-10 0 -28.5 -0.5t-28.5 -0.5q-17 0 -30 1h-12.5h-13t-17.5 -0.5t-22 -0.5h-16.5h-16.5q-18 0 -27 7.5t-9 19.5q0 7 4 14.5t11.5 13t16.5 7.5q15 3 35 3q5 0 12 -1q30 -1 65.5 -2t58.5 -2t55 -2t65 -1q21 0 41 2q22 5 23 5z" />
    <glyph glyph-name="bracketleft" unicode="[" horiz-adv-x="364" 
d="M153 650q22 8 51.5 12t57.5 4q97 0 97 -48q0 -30 -33 -30q-12 0 -47 5.5t-55 5.5q-37 0 -61 -15q-48 -30 -57 -124q-10 -56 -10 -128q0 -27 6 -156q0 -15 1.5 -28.5t4.5 -29t8 -28.5t13 -25.5t18 -21t24.5 -13.5t32.5 -5h5q16 1 29 1q8 0 17.5 -0.5t13.5 -0.5q9 0 18 1h4
q9 0 18 -3.5t15.5 -9.5t11 -13t4.5 -14q0 -25 -44 -28q-4 -1 -8 -1h-8t-7.5 -0.5t-7.5 -0.5q-8 0 -16 1t-13.5 1.5t-17 3t-16.5 3.5t-22 5.5t-25 6.5q-24 7 -42 18t-29.5 26.5t-19 30t-11.5 36t-5.5 35.5t-2.5 38q-2 28 -3.5 62t-1.5 71q0 60 4.5 112.5t16 106t35 90
t57.5 47.5z" />
    <glyph glyph-name="backslash" unicode="\" horiz-adv-x="409" 
d="M69 704q14 0 24 -22q5 -11 13.5 -37t15.5 -39q68 -214 167 -395q6 -14 24.5 -52t29 -65t13.5 -55q3 -19 3 -27q0 -22 -12 -32q-5 -5 -12 -5q-20 0 -35 30q-12 20 -20 64.5t-20 64.5q-15 32 -38 77.5t-40.5 79t-37 77.5t-31.5 83q-8 35 -37 109.5t-37 115.5q1 1 3.5 5
t3.5 5.5t3.5 5t4 4.5t4.5 3.5t5.5 3.5t5.5 1z" />
    <glyph glyph-name="bracketright" unicode="]" horiz-adv-x="399" 
d="M246 650q34 -11 57.5 -47.5t35 -90t16 -106t4.5 -112.5q0 -37 -1.5 -71t-3.5 -62q-1 -24 -2.5 -38t-5.5 -35.5t-11.5 -36t-19 -30t-29.5 -26.5t-42 -18q-8 -2 -25 -6.5t-22 -5.5t-16.5 -3.5t-17 -3t-13.5 -1.5t-16 -1q-13 0 -31 2q-22 2 -33 9.5t-11 18.5q0 14 15.5 27
t33.5 13h2h2q9 -1 18 -1q4 0 14 0.5t17 0.5q13 0 29 -1h5q98 0 102 151q6 129 6 156q0 72 -10 128q-9 94 -57 124q-13 8 -28 11.5t-33 3.5q-20 0 -55 -5.5t-47 -5.5q-33 0 -33 30q0 26 26.5 37t70.5 11q60 0 109 -16z" />
    <glyph glyph-name="asciicircum" unicode="^" horiz-adv-x="359" 
d="M48 438q-3 4 -3 9q0 13 12.5 43t28 59t35.5 66.5t29 56.5q13 25 27 25q7 0 12.5 -5.5t8 -12t6.5 -18t7 -17.5q15 -36 55 -102t49 -84q1 -2 1 -4q0 -5 -3.5 -9.5t-8 -7t-8.5 -2.5q-6 0 -11 3t-11.5 11t-8.5 10.5t-9 14.5q-4 7 -14 23.5t-21.5 34t-23.5 37.5t-19 33
q-17 -16 -35 -42t-28 -43.5t-29 -53.5q-2 -2 -3 -4.5t-3.5 -6t-4.5 -6.5t-4.5 -5.5t-5 -4t-4.5 -1.5q-3 0 -6.5 0.5t-6.5 2.5z" />
    <glyph glyph-name="underscore" unicode="_" horiz-adv-x="548" 
d="M462 -58h-4q-30 0 -88 9.5t-88 9.5h-5.5h-5.5q-22 2 -44 2q-85 0 -154 -26h-2q-7 0 -12.5 2.5t-9.5 7.5t-4 11q0 16 25 35q10 7 21.5 10t24.5 3h6q109 5 141 5q11 0 21.5 -0.5t21.5 -1l22 -1t22 -1.5q12 -1 34.5 -4.5t31.5 -4.5q3 0 14.5 -0.5t16.5 -1t14 -2t15.5 -4.5
t12.5 -7q11 -8 14 -21q-8 -18 -41 -20z" />
    <glyph glyph-name="grave" unicode="`" horiz-adv-x="151" 
d="M31 729q13 8 26 -4q19 -19 33 -55q5 -16 24 -63q2 -7 8 -20.5t8 -20.5q0 -2 0.5 -3.5t0.5 -3.5v-3q0 -17 -13 -22q-3 -1 -6 -1q-10 0 -18.5 6.5t-14.5 15.5q-36 72 -55 133q-4 8 -4 17q0 16 11 24z" />
    <glyph glyph-name="a" unicode="a" horiz-adv-x="447" 
d="M189 459h0.5h1.5q16 0 32 -5q12 -4 22.5 -12.5t23.5 -22t18 -17.5q9 8 16 14q23 18 35 18h1q13 -1 16 -22q2 -11 2 -23q0 -8 -6 -66q-1 -16 -4 -116q0 -15 -1 -37.5t-1 -33.5q0 -27 4 -56q5 -24 13 -29h6q3 0 7.5 0.5t9.5 1t8 0.5t5.5 -0.5t4.5 -1.5q13 -4 8 -21
q-1 -18 -15 -26.5t-32 -8.5q-20 0 -37 11q-20 12 -25 54q-3 30 -3 56v17.5v17.5v6q0 17 2 49t2 42v10v8q0 12 -2 19q-1 0 -4 -5q-6 -12 -10.5 -26t-10 -32.5t-8.5 -26.5q-6 -20 -19.5 -57.5t-14.5 -43.5q-15 -44 -41 -74l-6 -6t-6 -7t-6 -5.5t-8 -3.5q-6 -1 -11.5 -2
t-11.5 -1q-8 0 -15.5 1.5t-14.5 4.5q-35 18 -50 62q-2 8 -4.5 16.5t-3.5 16t-2.5 17.5t-2 16.5t-0.5 17.5t-0.5 17t-0.5 18v17q9 87 20 126q19 73 69 116q18 18 50 18zM197 408q-10 0 -19 -5q-25 -16 -48 -62q-35 -78 -36 -167q1 -54 4 -67q12 -51 42 -73q10 1 21 18
q8 13 15 29.5t11.5 29.5t11 31.5t11.5 30.5q26 76 55 152q-12 32 -25 52q-20 31 -43 31z" />
    <glyph glyph-name="b" unicode="b" horiz-adv-x="420" 
d="M99 696q11 -9 11 -29q0 -8 -1.5 -21.5t-1.5 -18.5q-1 -5 -5.5 -50.5t-6 -64t-3.5 -53.5t-2 -64q0 -51 6 -92q9 6 28 24.5t31 25.5q62 38 112 38q85 0 101 -111q0 -6 0.5 -16.5t1 -17t1 -15.5t0.5 -17q0 -17 -1.5 -32.5t-6 -32t-11.5 -31.5q-18 -49 -59 -79.5t-96 -33.5
q-2 0 -3 0.5t-3 0.5q-13 0 -37 -3l-34 -3q-19 0 -33 6q-18 11 -25 36t-7 62q0 13 1 37.5t1 33.5q-1 20 -2.5 48.5t-3 54.5t-1.5 48v19q3 176 11 308q-1 5 -0.5 9.5t2 9t3 8.5t4 7.5t5.5 6t6.5 4t7.5 1.5q5 0 10 -3zM318 290q-9 25 -25.5 36.5t-37.5 11.5q-33 0 -71 -24.5
t-62 -54.5q-7 -15 -10 -32t-3 -35q0 -24 5 -53q9 -45 25 -76q10 -11 33 -11q39 0 87 25.5t55 50.5q2 7 3.5 14.5t2.5 16t1.5 15t1 16t0.5 15.5v4.5t0.5 5t0.5 5v4.5v4.5v5v5.5q0 30 -6 51z" />
    <glyph glyph-name="c" unicode="c" horiz-adv-x="429" 
d="M142 8q-15 7 -28.5 18.5t-23.5 26.5t-15 30q-23 57 -23 92q-2 20 -2 39q0 85 40 175q31 53 66 64q7 2 13 3.5t12.5 3t12.5 2.5t12 1.5t12 0.5q53 0 88 -46q6 -8 6 -19q0 -3 -0.5 -5.5t-1.5 -5t-2.5 -4t-3.5 -2.5t-5 -1q-2 0 -5 0.5t-6 2.5q-39 25 -77 25q-16 0 -30 -4.5
t-27 -15t-23 -25.5q-4 -8 -8 -16.5t-7.5 -19t-6.5 -21.5t-5 -23l-4 -24t-2.5 -25t-0.5 -25q0 -61 21 -103.5t68 -48.5h4q36 0 75 22q13 9 30.5 33.5t33 42.5t30.5 18q6 0 12 -3q9 -4 9 -12q0 -5 -3.5 -12t-8 -14t-5.5 -10q-2 -3 -13.5 -22t-15.5 -24.5t-14 -18.5
t-19.5 -20.5t-19.5 -12.5q-52 -24 -100 -25q-24 0 -39 8z" />
    <glyph glyph-name="d" unicode="d" horiz-adv-x="418" 
d="M306 670q4 12 15 12q9 0 16 -7.5t7 -18.5q0 -2 -1 -5q-24 -140 -24 -323q0 -84 10 -293q0 -8 2 -13.5t4.5 -8.5t7 -5t7.5 -2.5t7.5 -1.5t6.5 -2q4 -8 4 -17q0 -10 -5 -18t-13.5 -13t-19.5 -5q-4 0 -8 1q-31 17 -39 81q-2 10 -5 17t-6.5 9.5t-7.5 2.5q-6 0 -12 -5
q-1 0 -10.5 -11t-22 -21.5t-23.5 -14.5q-21 -16 -47 -16q-22 0 -41.5 13t-28.5 36q-29 56 -29 137q0 95 30 161q5 10 11.5 17.5t15 13t16 9.5t19 7t19.5 4.5t22.5 4t22.5 4.5q46 8 61 58q11 116 39 213zM262 302.5q0 26.5 -5 35.5q-6 11 -35 11q-35 0 -70.5 -19t-50.5 -57
q-4 -10 -6.5 -31.5t-2.5 -47.5q0 -51 11 -93t34 -53q6 -1 12 -1q40 0 81 41q10 9 17 18.5t10.5 22.5t5 26.5t1.5 34.5q0 12 -1 49t-1 63.5z" />
    <glyph glyph-name="e" unicode="e" horiz-adv-x="383" 
d="M226 466q6 -1 19 -3.5t21 -4.5t19.5 -6t19 -9t14.5 -13t11 -19q3 -16 3 -33q0 -61 -32 -109q-56 -74 -125 -88q-4 -2 -9 -3t-11 -1h-4t-4 0.5t-4 0.5h-4t-4.5 0.5t-4 0.5h-3.5t-4 0.5t-4 0.5h-3h-4t-4 -1q-9 -2 -12.5 -10.5t-3.5 -21.5q0 -3 0.5 -10.5t0.5 -10.5
q2 -8 8 -31t13 -37.5t20 -23.5q5 -2 10 -3.5t10 -2t10 -0.5q13 0 27 3.5t32 8.5q40 14 70 14q9 0 17 -1q6 -1 9.5 -4t3.5 -8q0 -9 -7 -17.5t-14 -10.5q-8 -3 -25.5 -10t-26.5 -10q-5 -2 -18.5 -5t-19.5 -4.5t-17 -3t-21 -1.5q-24 0 -55 7q-6 3 -12 7t-10 8t-9 11.5t-7.5 11
t-6.5 13.5l-5 12.5t-5.5 14.5t-5.5 13q-9 55 -9 132q0 24 1 61v7q0 34 24 81q15 30 47 62q13 12 27 22.5t32 17.5t34 7q5 0 11 -1zM229 425q-4 1 -5 1q-16 -1 -29 -7t-25 -20t-18 -22.5t-18.5 -29.5t-15.5 -25q-3 -5 -5.5 -11t-4 -12.5t-2.5 -13.5t-1 -14q0 -10 2 -19
q5 -11 12.5 -18t16 -10t18.5 -3q16 0 36 8q44 23 73 55t29 77q0 7 -1 13q-13 47 -62 51z" />
    <glyph glyph-name="f" unicode="f" horiz-adv-x="474" 
d="M327 665q49 0 73 -31q35 -54 37 -92q1 -22 -14 -25q-6 -1 -14 10q-7 9 -16 30.5t-16 30.5q-20 22 -51 23q-1 1 -2 1q-19 0 -35 -12t-25 -30q-21 -44 -35 -119q0 -6 -1 -12q-1 -12 -1 -18q13 -13 38 -14h5.5h5.5q7 0 20.5 0.5t20.5 0.5q13 0 23 -2q8 -1 14 -6.5t7 -13.5
q2 -9 -13 -17q-5 -3 -10.5 -4.5t-10.5 -2t-11 -0.5q-8 0 -22 1.5t-22 1.5h-3q-32 0 -44 -19q0 -2 -1.5 -11t-1.5 -14q2 -23 3 -38q1 -8 2.5 -25t1.5 -25q1 -19 2 -27t2 -15.5t2 -18.5q5 -42 5 -82q0 -38 -4.5 -75t-12.5 -72q-19 -72 -46 -112q-16 -24 -35 -24q-18 -2 -21 10
v16t1 19q1 12 16 15q13 2 18 18q15 39 27 87q11 43 11 97q0 39 -7 105v20t-2 40.5t-7 49.5q-2 11 -4 52q-1 10 -1 13q-13 14 -35 20q-9 3 -21 3q-9 0 -27 -2.5t-23 -3.5q-6 -1 -11 2t-5 8q-5 15 14 23q10 4 24.5 7t22 3.5t27.5 1.5t24 1q4 1 11 4t7 7q3 29 5 46h1
q4 27 11 53q15 60 47 104q27 38 79 39h3z" />
    <glyph glyph-name="g" unicode="g" horiz-adv-x="415" 
d="M248 469q13 0 23 -3q20 -6 37 -34q1 2 2.5 6t2.5 6.5t2.5 6t3.5 6t4.5 5t5.5 3.5l6 2q6 0 11.5 -4t8.5 -10q11 -19 11 -48q0 -8 -1 -18q-1 -16 -13 -55q-13 -46 -13 -80q0 -12 1 -23v-34.5v-20.5v-17.5t1 -23.5q3 -50 3 -91q0 -39 -3 -74q0 -8 -1.5 -39t-4.5 -48
q-10 -61 -43 -88q-23 -19 -75 -23h-12q-21 0 -39 4t-33 13q-48 35 -60 86q-4 15 -4 31q0 44 27 90q1 1 5.5 9t7.5 12t8 7q19 24 30 34q8 7 16.5 14t16 12t18.5 11t18 9.5t20 9t19 8t20 8t19 7.5q-4 45 -4 89q-2 0 -14 -9q-5 -4 -10 -9.5t-9 -10t-9 -9.5l-9.5 -9.5t-9.5 -9
t-9 -9.5q-53 -47 -88 -61q-12 -5 -24 -5q-15 0 -25 9q-28 27 -32 81l-1 17q0 82 49 156q28 48 74 82q42 30 75 32zM240 421q-17 -1 -38 -18q-33 -28 -74 -100q-15 -24 -22 -50q-9 -34 -9 -59q0 -15 3 -29q7 -21 17 -22q13 1 39 18q8 6 16 12.5t14.5 12.5t14.5 13.5
t14.5 13.5t15 14t13.5 13l8.5 8.5t9 9.5l7.5 9t8 10t6 10t5 12q8 47 8 60q0 16 -13 37q-13 23 -43 25zM298 88l-1 11q-3 -1 -18 -7t-20 -8.5t-17.5 -8t-19 -9t-16.5 -9.5t-18 -12t-15 -12q-31 -29 -40 -54q-20 -47 -20 -79q0 -6 0.5 -11t1.5 -11q3 -15 13 -28.5t23.5 -22
t29.5 -11.5q14 -2 27 -2q10 0 19 1.5t18.5 4.5t17.5 8q21 22 31 72q8 45 8 98q0 22 -1 44t-3 46z" />
    <glyph glyph-name="h" unicode="h" horiz-adv-x="424" 
d="M125 705h6q9 -1 16 -7.5t7 -14.5q0 -7 -5 -11.5t-11 -7t-12 -2.5h-1q-9 -14 -10 -38v-36v-8v-7q0 -18 -0.5 -32t-0.5 -28q-1 -17 -2 -36.5t-2 -30.5t-1 -17q1 -8 1 -17t0.5 -17t1.5 -18q1 0 1 -2q1 -7 5 -4q7 4 23 11.5t25.5 12t23.5 9.5t26 8q2 0 7 1.5t7 2t7 1.5
l7.5 1.5t6.5 1t7.5 1t6.5 0.5q13 0 23 -4q27 -11 39 -53q9 -36 9 -85q0 -20 -1 -51q-2 -30 -8.5 -83.5t-7.5 -73.5q0 -3 -1.5 -12.5t-1.5 -13.5t0.5 -7.5t2.5 -7.5q4 -7 18 1q7 5 16 5q13 0 19 -10q4 -7 0.5 -13.5t-10.5 -9.5q-24 -32 -70 -34q-7 -1 -14 9q-2 3 -3 5.5
t-1.5 5.5l-1 6l-1 6t-0.5 6q0 4 0.5 8.5t1 10t0.5 9.5q1 16 8 117q1 8 3 35.5t2.5 40.5t1.5 34.5t1 39.5v16q-1 38 -20 51q-4 2 -8 3t-9 1q-4 0 -9 -1l-7.5 -1.5t-8.5 -2.5q-14 -4 -22.5 -6t-21.5 -7t-21.5 -9.5t-18.5 -11.5t-18 -15q-6 -5 -10 -27q-6 -43 -9 -165
q1 -10 2 -21t2 -24t2 -21q2 -12 2 -24q0 -10 -2 -19q-3 -22 -18 -24h-2q-21 0 -28 9q-7 12 -12 50q-2 29 -2 62q0 38 5 126q0 9 3.5 56t3.5 73v12v41.5t1 36.5t1.5 32.5t1.5 37.5l2 44q0 5 1 16t1.5 17t1 15.5t2 16.5t3.5 15.5t5 16t6 14.5q4 8 15.5 14t21.5 6z" />
    <glyph glyph-name="i" unicode="i" horiz-adv-x="255" 
d="M120 534q3 0 6 -1t6 -2.5t5 -3.5t4 -5t3.5 -5.5t2 -6t0.5 -6.5q0 -13 -8.5 -22t-21.5 -9h-2q-11 1 -19 9.5t-8 20.5q0 13 8.5 22t21.5 9h2zM118 399q16 -1 24 -16q6 -7 10 -16.5t6 -18.5t3.5 -20t2 -20t0.5 -21v-16v-17q-1 -16 -2.5 -36t-3.5 -36t-4 -36t-2 -36
q0 -13 1.5 -25t3.5 -24q3 -12 12 -12q6 0 18 6t15 6l4 1q7 0 14.5 -8.5t7.5 -17.5q0 -5 -2 -8.5t-7 -6.5q-3 -3 -14.5 -10t-15.5 -8.5t-12.5 -6t-16 -7t-16.5 -4.5q-6 1 -10.5 4.5t-7.5 7t-6 10.5t-4.5 11.5t-3 13t-2 11.5t-1.5 11.5t-1 9.5q-1 13 -1 26q0 37 8 112.5
t8 113.5q0 4 -0.5 8t-1.5 6.5t-2.5 4.5t-3.5 3t-4 1q-4 0 -7.5 -3t-7.5 -8q-1 -4 -2.5 -13.5t-3 -15.5t-5.5 -11.5t-11 -5.5q-4 0 -9 2q-15 6 -15 25t13 43t25 35q3 3 6 5.5t6.5 4t7 2t7.5 0.5h1.5h1.5z" />
    <glyph glyph-name="j" unicode="j" horiz-adv-x="439" 
d="M217 539q13 0 23 -9.5t10 -23.5q0 -16 -8.5 -28t-25.5 -13h-2q-20 0 -29.5 12.5t-9.5 28.5q0 13 13.5 23t28.5 10zM236 398q71 -12 112.5 -97.5t41.5 -190.5q0 -88 -20 -138q-8 -20 -22.5 -42.5t-34 -45.5t-45 -40t-51.5 -22h-6q-41 0 -80 16t-63 47q-18 36 -18 62
q0 17 10 24q3 1 6 1q11 0 19 -20.5t15 -25.5q15 -20 41 -31.5t55 -11.5q58 0 91 53q43 70 43 160q0 26 -3 52q-7 48 -14 76.5t-25 57.5q-13 22 -34 36t-42 14q-33 0 -55 -32q-15 -18 -17 -47q-1 -7 -5.5 -12t-10.5 -5q-8 0 -14 9q-4 13 -4 29q0 47 33.5 85.5t96.5 38.5z" />
    <glyph glyph-name="k" unicode="k" horiz-adv-x="431" 
d="M238 -13q-39 29 -75 87.5t-50 101.5q-17 -20 -17 -69q0 -12 1 -34.5t1 -31.5q0 -40 -18 -43q-17 2 -22.5 15t-6.5 60v9q0 19 1 44.5t2 47.5t1 34v4v2q-1 10 -1 20v20v20v20.5v20v20.5v21.5v24.5v21v47v46q0 100 -3 164q-1 2 -1 4v4q0 10 3 19t9 14.5t12 5.5q5 0 9.5 -3.5
t8.5 -9.5q3 -18 5 -38.5t2.5 -39.5t0.5 -40q0 -39 -3.5 -116.5t-3.5 -114.5q0 -51 5 -90q22 10 59.5 34.5t70 39.5t65.5 15q51 0 67 -16q13 -12 13 -26q0 -36 -19 -39q-3 0 -5 1t-3 3l-2 3q-16 25 -48 25q-26 0 -60 -14.5t-58.5 -34t-27.5 -34.5q16 -49 53.5 -103t60.5 -75
q4 -6 9 -8t11 -2q14 0 20 2t17 8q6 4 13 4q10 0 17 -5t7 -12q0 -11 -4 -16t-9.5 -9t-12.5 -8t-15 -7t-16.5 -5t-17.5 -2q-5 0 -10 1q-19 2 -35 13z" />
    <glyph glyph-name="l" unicode="l" horiz-adv-x="298" 
d="M101 -7q-7 4 -13 10t-10.5 13t-8 15t-6 17.5t-4.5 18t-3 19t-2 18.5t-2 19t-2 18q1 31 2.5 79.5t2.5 84t3 78.5t5 84.5t8 79.5l1 15q0 15 -5 43.5t-5 41.5q0 18 6 33q3 2 6 3.5l6 3t5.5 2t4.5 0.5q14 0 19 -17.5t5 -46.5v-15t-0.5 -14t-0.5 -13v-12v-3.5v-2.5
q-1 -77 -9 -218.5t-10 -188.5q1 -5 2 -23t2 -28t4 -25.5t8 -24.5t13.5 -16.5t20.5 -8.5h6q5 0 11 0.5t12 2t11.5 3.5t11 4.5t10.5 4.5t9.5 3.5t9 2t7.5 0.5q4 0 7.5 -1.5t4.5 -5.5q4 -8 4 -15q0 -23 -30 -35t-67 -12q-9 0 -16.5 1t-14.5 2l-9 3z" />
    <glyph glyph-name="m" unicode="m" horiz-adv-x="655" 
d="M62 12q-9 30 -9 77v8v8v8t0.5 8t0.5 8v8v8q0 15 -1 27q-3 48 -3 100q0 99 11 192q6 33 21 33q10 0 19 -15t10 -33q6 2 14.5 6.5t16 9t16 9t17.5 7t17 2.5q5 0 9 -1q26 -5 45.5 -16t31 -25.5t18.5 -34t9.5 -39.5t2.5 -44q0 -26 -4 -73.5t-5 -59.5q9 12 30.5 44.5t40 57.5
t43 53t51.5 44.5t54 17.5q41 -5 46 -83q1 -12 1 -25q0 -37 -14.5 -109t-14.5 -106q0 -27 6 -50q1 -3 2.5 -5t3.5 -3t4.5 -2t5 -1.5t5.5 -0.5q4 0 13.5 1t13.5 1q15 0 15 -11q0 -5 -2 -11q-6 -20 -24.5 -30.5t-39.5 -10.5h-6t-5.5 0.5t-5.5 1.5q-28 9 -28 68v6q0 43 9 120.5
t11 105.5q2 16 2 35q0 55 -24 55q-5 0 -12 -3q-42 -41 -79 -87t-64.5 -99t-30.5 -95q-4 -72 -25 -73q-7 0 -14 7q-4 6 -7.5 14.5t-5 14.5t-3 17.5t-2 16t-1 18t-0.5 15.5q-1 13 -1 27q0 31 5 92.5t5 91.5q0 52 -10 91q-5 12 -12.5 19.5t-17.5 11.5t-20 4q-29 0 -48 -23
q-47 -48 -47 -125v-7.5t1 -7.5v-9.5v-9t0.5 -9t0.5 -9.5q0 -15 -0.5 -31.5t-1.5 -35.5t-1 -28v-43.5t-1.5 -56.5t-5.5 -44q-5 -8 -11 -9q-6 0 -12.5 8t-8.5 16z" />
    <glyph glyph-name="n" unicode="n" horiz-adv-x="446" 
d="M70 19q-6 21 -10.5 46.5t-6 59.5t-2.5 52.5t-1 60.5v48v19q0 192 38 192h2q7 -1 12 -5t7.5 -11t3.5 -15.5t1 -20.5v-19.5v-20.5v-17t1 -15q3 1 13 7l15 9t15.5 9t18 9.5t18.5 8t20 7.5t19.5 6t20.5 4t20 1q19 0 36 -5.5t33.5 -20t29.5 -36.5q8 -14 11.5 -30t3.5 -33
q0 -12 -1.5 -27t-3.5 -25t-6 -27.5t-5 -24.5q-11 -56 -11 -117q0 -17 1 -35q0 -5 8.5 -19.5t8.5 -21.5q0 -4 -2 -7t-6 -5q-9 -5 -17 -5q-10 0 -18.5 8t-13 22t-7 30t-2.5 32v7.5t0.5 7t0.5 6.5q1 21 10.5 88.5t9.5 99.5q0 25 -4.5 42.5t-15.5 26.5q-24 19 -54 19
q-34 0 -68 -22.5t-57.5 -58t-29.5 -73.5q-1 -6 -1.5 -12l-1 -12t-1 -12.5t-0.5 -13v-13.5q0 -94 23 -155q1 -3 1 -5q0 -17 -18 -17q-11 0 -22.5 8t-15.5 21z" />
    <glyph glyph-name="o" unicode="o" horiz-adv-x="386" 
d="M111 -18q-56 28 -62 164v24q0 120 36 213q46 81 100 81q59 0 110 -87q41 -84 41 -189q0 -43 -7 -85q-4 -22 -11 -39.5t-18.5 -33.5t-26.5 -26q-51 -33 -107 -33q-31 0 -55 11zM105 47q3 -9 13.5 -16.5t25.5 -11.5t31 -4q37 0 66.5 20t37.5 61q6 56 6 97q0 55 -10 100
q-10 43 -23.5 70.5t-39.5 43.5q-9 4 -18 4q-31 0 -54 -41t-33.5 -100t-10.5 -123q0 -27 2 -52.5t7 -47.5z" />
    <glyph glyph-name="p" unicode="p" horiz-adv-x="442" 
d="M88 448h1q21 0 25 -26q3 -23 4 -44.5t1.5 -55.5t0.5 -43q21 73 64 111q54 41 99 41q12 0 23 -3q24 -6 43.5 -21.5t26.5 -38.5q16 -42 16 -91q0 -31 -6 -61q-16 -73 -68.5 -120.5t-134.5 -63.5h-2q-57 0 -57 -45v-51q0 -65 -5 -140q-2 -9 -3.5 -13.5t-5 -13t-7.5 -12.5
t-10 -4q-3 0 -6.5 1.5t-7.5 4.5q-8 11 -8 58q0 19 2 76t2 93q0 20 -1 39q-2 7 -13 27t-11 32q0 4 1 8.5t4 9.5q18 20 28 36v23v22q0 37 -1 73q-1 25 -8.5 84t-7.5 89q0 5 3.5 9.5t8.5 7t10 2.5zM271 386h-1q-28 0 -51.5 -22.5t-39 -56.5t-27 -75.5t-16 -77.5t-4.5 -64
q0 -23 21 -23q5 0 11 1t14.5 3t10.5 3q56 15 94 44t62 81q8 28 8 62q0 15 -1.5 31t-4.5 34q-7 47 -61 58q-8 2 -15 2z" />
    <glyph glyph-name="q" unicode="q" horiz-adv-x="426" 
d="M358 431q1 1 3 1q15 0 15 -42q0 -9 -0.5 -23t-0.5 -18v-7v-9q0 -11 -8 -275q0 -29 1 -55t1.5 -41t1 -31t0.5 -28q0 -44 -9 -140q-7 -3 -13 -3q-14 0 -21 15.5t-7 33.5q0 14 0.5 36.5t0.5 30.5q0 27 -1 49.5t-3.5 59.5t-3.5 74q-10 -6 -22 -11t-25.5 -9t-28 -5.5
t-29.5 -1.5q-33 0 -65.5 10t-58.5 30q-35 40 -35 116q0 56 20 108t63.5 89t101.5 37q25 0 52 -6q6 -2 18 -7.5t18 -5.5q4 0 9 2t8.5 8t7.5 11.5t10 6.5zM321 303q0 35 -24 58t-58 23q-22 0 -42 -11q-29 -7 -52.5 -36t-36 -68t-12.5 -78q0 -68 36 -100q5 -4 10 -6t10.5 -4
t11.5 -3t12 -1.5t13 -0.5q12 0 25 1.5t29 4.5q20 3 35 14t23.5 26t13.5 36t6 39.5t1 41.5q0 13 -0.5 34.5t-0.5 29.5z" />
    <glyph glyph-name="r" unicode="r" horiz-adv-x="350" 
d="M68 -23q-3 14 -6 28.5t-5 29t-3.5 29.5t-2 31t-1 31t-0.5 31q0 36 2.5 102.5t2.5 95.5q2 11 2 28v5.5v5v5v4.5v4.5t-0.5 5t-0.5 5v5v4.5q0 44 24 54q3 2 6 2q11 0 15 -21.5t9.5 -43t18.5 -21.5h2h2q9 6 19.5 10t20.5 7t20.5 4t21.5 1q29 0 57 -9t49 -26q8 -2 8 -13
q0 -7 -4.5 -12t-12.5 -5q-71 15 -110 15q-90 0 -99 -68q-1 -5 -1.5 -10t-0.5 -10t-0.5 -10.5t-0.5 -10.5t-0.5 -10t-0.5 -11q0 -9 0.5 -19.5t0.5 -21.5q-4 -15 -4 -43q0 -20 3 -65.5t3 -65.5q0 -46 -13 -52q-4 -2 -12 0t-9 5z" />
    <glyph glyph-name="s" unicode="s" horiz-adv-x="411" 
d="M337 424q-13 -30 -38 -30q-7 0 -24 2.5t-29 2.5q-65 -10 -65 -46q0 -37 62 -94q16 -15 58.5 -47.5t60.5 -51.5q16 -21 16 -47q0 -34 -25 -70q-24 -30 -66.5 -46.5t-90.5 -16.5q-84 0 -132 45q-26 23 -26 57q0 18 11 18q10 0 25 -16q43 -49 116 -49q8 0 15 1q30 4 51 10
t41 21.5t30 40.5q4 13 -14 31.5t-55.5 45.5t-39.5 29q-111 90 -111 150q0 16 9 30q16 25 60 40.5t88 15.5q60 0 73 -26z" />
    <glyph glyph-name="t" unicode="t" horiz-adv-x="458" 
d="M217 681q9 1 16 -6q2 -3 3.5 -6t2.5 -6t1.5 -6t1 -6.5t0.5 -6.5q0 -10 -3 -25q-2 -35 -4.5 -55t-3.5 -25.5t-2 -24t-2 -55.5q13 -12 38 -14h11q7 0 20.5 1t20.5 1q13 0 23 -3q8 0 14 -6t7 -14q2 -8 -13 -17q-7 -3 -15 -4.5t-17 -1.5q-6 0 -14 0.5l-16 1t-14 0.5h-3
q-32 0 -44 -19v-7.5v-10.5v-13.5v-15.5q0 -179 3 -208q7 -55 27 -78q20 -22 46 -22h1q15 1 24.5 4.5t21 11t21.5 11.5q12 6 22 6q5 0 9.5 -1t7.5 -5q1 -11 -11 -24q-6 -5 -10.5 -9t-7.5 -6t-8.5 -5t-7.5 -3.5t-11 -3.5l-12 -4q-45 -14 -60 -16h-4q-35 0 -55 19
q-16 17 -24 40q-4 8 -7.5 18t-6 21.5t-4.5 24t-3.5 27t-2.5 28.5t-1.5 30t-1 30.5t-0.5 30.5q0 31 1.5 77.5t1.5 55.5q-13 15 -35 21q-5 1 -10 1.5t-11 0.5q-9 0 -27 -2.5t-23 -2.5q-4 -1 -7.5 0t-6 3.5t-2.5 5.5q-5 15 14 23q7 3 15.5 5.5t15.5 3.5t17 2t16.5 1.5t17 0.5
t16.5 1h2h3.5t2.5 1.5t0 3.5q2 17 3.5 30t2 17.5t1 8.5t1 6.5t0.5 6.5q0 2 -0.5 14t-0.5 25v6v7q1 2 1 4.5v4.5q0 5 -0.5 15.5t-0.5 15.5q0 15 3 26q4 15 13.5 26t22.5 12z" />
    <glyph glyph-name="u" unicode="u" horiz-adv-x="501" 
d="M398 4q-3 7 -4.5 22t-6.5 24.5t-17 11.5q-3 1 -6 1q-25 0 -44 -13q-55 -36 -105 -40q-13 -1 -23 -1q-27 0 -45.5 9.5t-36.5 33.5q-21 25 -39.5 79.5t-19.5 110.5q-1 18 -1 56v20v23.5v21.5q0 11 1.5 22.5t2.5 19.5t4.5 19t5 14.5t5.5 14.5t4 12q12 25 31 25
q8 0 15.5 -3.5t13 -8.5t9 -13t3.5 -16q0 -3 -0.5 -6t-1.5 -6t-3 -6q-36 -34 -36 -120v-5q0 -50 5 -87.5t10.5 -54.5t15.5 -37q29 -63 72 -63h2h2h2q50 0 103 37t58 76q5 36 6.5 70.5t1.5 73.5v17v16.5v16.5v16q0 54 3 92q1 6 4 9.5t6 5t6 1.5q12 0 21 -12t7 -26
q4 -28 5.5 -56t2 -72t0.5 -56v-9q0 -16 0.5 -51t1.5 -74.5t1 -66.5v-13.5t0.5 -14t0.5 -11.5q0 -36 -17 -36h-2t-4.5 -0.5t-5.5 0t-5.5 1t-5 2t-3.5 4.5z" />
    <glyph glyph-name="v" unicode="v" horiz-adv-x="506" 
d="M439 489q6 0 9 -10q2 -4 3.5 -9.5t2.5 -11t1.5 -10.5t0.5 -11q0 -9 -1 -18t-3 -19q-12 -49 -38 -109q-14 -30 -28 -65t-29.5 -77.5t-24.5 -66.5q-2 -4 -7 -16.5t-8 -18.5t-8 -15.5t-11 -16.5q-4 -4 -7 -7.5t-7.5 -7t-9 -5.5t-9.5 -3.5t-10 -1.5h-6q-8 6 -22 21
q-45 48 -80 147q-13 48 -34 99q-5 12 -17 40.5t-18.5 44.5t-14 40.5t-11.5 45.5q-2 8 -2 16q0 6 1.5 12t3.5 11t6.5 8t9.5 0q20 -17 38 -49q10 -20 20 -45t15 -41t14 -49t13 -43q33 -113 69 -164q12 -2 24 6q31 22 44 58q35 102 66 198q4 12 12 38t14.5 46t13.5 37
q12 19 25 22z" />
    <glyph glyph-name="w" unicode="w" horiz-adv-x="757" 
d="M50 363q-1 30 19.5 71t37.5 41t20 -47q-3 -88 -3 -111q0 -166 54 -254q6 -3 12 -4.5t13 -1.5q9 0 18.5 3t19 10.5t17 14t17.5 19t14.5 18.5t14.5 20.5t12 17.5q14 24 21 54.5t8.5 52.5t3 61t2.5 55q3 5 5.5 8.5t5 5.5t4.5 3.5t4 1.5q11 0 18.5 -28t10 -58.5t2.5 -57.5
v-12q1 -30 6.5 -58t16 -56t30.5 -44.5t47 -16.5q72 24 111.5 89t39.5 141q0 78 -39 136q-2 3 -3 5.5t-1.5 5t-0.5 5.5q0 10 9.5 15.5t22.5 5.5q7 0 13 -1.5t11.5 -4.5t7.5 -7q36 -53 36 -136q0 -89 -40.5 -171t-104.5 -109q-46 -23 -81 -23q-70 0 -102 101q-11 17 -22 17
t-25 -17.5t-25.5 -39t-27 -42.5t-28.5 -26q-24 -13 -45 -13q-28 0 -50.5 22t-37 54t-26.5 75.5t-18.5 80.5t-13.5 75.5t-11 53.5z" />
    <glyph glyph-name="x" unicode="x" horiz-adv-x="547" 
d="M50 -3q1 35 22 71.5t50 67t58 59.5t49.5 58t20.5 53q0 6 -1.5 12t-4.5 12q-21 31 -45 53t-42.5 32.5t-34 18.5t-24 15.5t-7.5 18.5q12 36 45 36q20 0 42 -13.5t35 -32.5q19 -15 37 -37.5t36 -52.5t22 -35q37 53 87 102.5t79 48.5q10 -3 16.5 -9.5t6.5 -13.5q0 -4 -3 -7
q-27 -36 -47 -58t-47 -47t-40 -39q-7 -7 -11.5 -15.5t-6.5 -17t-2 -18.5q0 -34 31 -103.5t33 -92.5q9 -13 9 -29q0 -24 -15 -28q-2 -1 -3 -1q-5 0 -11 6t-10 19q-8 15 -35 85.5t-45 95.5q-27 -2 -56.5 -25t-53.5 -54.5t-46.5 -63t-42.5 -53.5t-33 -22q-3 0 -6 1t-6 3z" />
    <glyph glyph-name="y" unicode="y" horiz-adv-x="429" 
d="M318 499q29 0 45.5 -47.5t16.5 -115.5q0 -56 -12 -105.5t-35 -74.5q3 -23 4.5 -42t2 -35t0.5 -19q2 -17 2.5 -32t0.5 -31q0 -140 -68 -180q-7 -3 -14.5 -5t-15 -3t-15.5 -1q-32 0 -63.5 14t-50 33.5t-18.5 37.5q0 6 2.5 10.5t6.5 8.5q2 2 4.5 2.5t4.5 0.5
q12 0 55.5 -27.5t65.5 -27.5q25 0 39 31.5t14 107.5v20t-1 21q0 22 -5 77q-49 -38 -94 -38q-42 0 -74.5 33.5t-49 85t-16.5 110.5q0 107 52 173q6 4 14 4t16 -4t13.5 -10.5t9 -14t3.5 -13.5q0 -11 -13 -11h-4t-4.5 0.5t-5.5 1.5q-14 -13 -22.5 -47.5t-8.5 -75.5
q0 -50 13.5 -93t41.5 -66q18 -16 47 -16q23 0 43.5 10t30.5 28q0 6 -4.5 70t-4.5 106q0 67 11 108t40 41zM338 360q0 7 -1.5 20.5t-4 27t-6 24t-7.5 10.5h-1q-3 -2 -5 -9t-3.5 -18.5t-2 -25.5t-0.5 -30q0 -14 0.5 -29t1 -29t1.5 -27t2 -24t2 -19.5t2 -13t2 -4.5q5 7 10 41
t7.5 64.5t2.5 41.5z" />
    <glyph glyph-name="z" unicode="z" horiz-adv-x="576" 
d="M328 499h3.5h3.5h1q33 0 56 -21q9 -9 13 -23t4 -31q0 -45 -22 -101h3q58 0 92 -6q15 -3 15 -11q0 -4 -4.5 -8.5t-13 -8t-22.5 -5.5t-32 -2h-5h-4h-4q-14 0 -41 -1q-19 -44 -21 -53q-8 -27 -1 -28q22 -4 42.5 -12t36.5 -18t28.5 -20t23 -22t16.5 -19.5t11.5 -16l5.5 -8.5
q13 -17 13 -41q0 -17 -10 -17q-6 0 -15 7q-8 6 -21 21.5t-26.5 31.5t-31.5 32t-41.5 25.5t-49.5 9.5h-7q-79 -114 -176 -136q-17 -4 -33 -4q-29 0 -47 12.5t-18 33.5q0 31 47 68t144 67q4 1 14 3t17.5 5t14.5 10t13 17t14 25.5t11 21.5q0 1 0.5 2l0.5 1q-65 -3 -91 -3
q-17 0 -28 1q-4 0 -7 1t-5.5 2t-4 2.5t-2.5 3t-1.5 3.5t-0.5 4q0 4 2.5 8.5t7 7.5t9.5 4q66 7 138 9q3 10 6 18.5t5.5 16.5t4 15.5t2 14t0.5 12.5q0 23 -11.5 35t-33.5 12t-54 -12.5t-72 -37.5q-8 -6 -17 -6q-5 0 -9 2t-6 5.5t-2 8.5q0 4 2 8.5t6 8.5q71 75 164 76zM259 145
h-5q-17 0 -50 -15.5t-58.5 -34.5t-22.5 -27q6 -1 12 -1q34 0 75.5 27t48.5 51z" />
    <glyph glyph-name="braceleft" unicode="{" horiz-adv-x="400" 
d="M148 25v5.5v5.5q0 30 7 88t7 86v8q0 9 -1 20t-1 21q0 16 -17.5 20.5t-39 3t-39.5 4.5t-19 24q0 12 5.5 18.5t14.5 8.5t19 3.5t20 4.5t15 10q30 20 31 70q1 12 1 27q0 18 -3 55.5t-3 55.5q0 51 17 87q37 62 95 69q6 0 21.5 -0.5t27 -1.5t23.5 -4t19 -10.5t8 -19.5
q-1 -32 -18 -32h-3q-6 2 -22 15t-27 13q-29 0 -60.5 -22.5t-28.5 -47.5v-20q0 -23 2 -69t2 -69q0 -39 -5 -71q-4 -6 -6 -10l-5 -10t-4.5 -11.5t-1.5 -9.5q0 -8 4.5 -14t14.5 -10q11 -17 15 -37t4 -43q0 -15 -2 -44.5t-2 -44.5v-2.5v-3.5q-1 -8 -3.5 -26t-4.5 -33.5t-2 -27.5
q0 -28 11 -38q10 -10 34 -10q7 0 14.5 1t13.5 1.5t13 1t11 0.5q6 0 9.5 -1t4.5 -4q3 -5 3 -10q0 -18 -30.5 -26t-87.5 -10h-2q-22 0 -35 22t-14 44z" />
    <glyph glyph-name="bar" unicode="|" horiz-adv-x="139" 
d="M73 730q27 0 29 -16q3 -26 3 -57q0 -21 -3 -77q-2 -30 -2 -56.5t2 -50.5q2 -114 2 -194v-87v-15v-13.5v-15v-14v-14.5v-14q0 -89 -2 -151v-7.5v-7.5t-0.5 -7.5t-1 -8t-1 -7.5t-2 -7.5l-3 -7t-3.5 -6.5t-6 -4.5t-9 -1.5q-8 0 -14 4q-3 2 -5 4t-4 4.5t-3 4t-1.5 5t-1 4.5
t-1.5 6t-1 6q-1 6 -1.5 12.5t-1 12.5t-0.5 14t0.5 23t0.5 21q0 19 0.5 55t0.5 52q0 99 6 305t7 284q0 5 1.5 10t5 9t9.5 4z" />
    <glyph glyph-name="braceright" unicode="}" horiz-adv-x="400" 
d="M253 654v-10q0 -30 -7 -88t-7 -87q0 -2 -0.5 -4t-0.5 -4q0 -8 1.5 -19t1.5 -22q0 -15 17.5 -20t39 -3.5t39.5 -4.5t19 -24q0 -14 -9 -21t-20.5 -8t-25 -4.5t-19.5 -11.5q-30 -20 -31 -70q-1 -12 -1 -27t1.5 -35l3 -40t1.5 -36q0 -24 -4 -45.5t-13 -40.5q-37 -62 -95 -70
q-5 0 -15 0.5t-18.5 1t-18 1t-17.5 3t-15 6t-11 10t-4 15.5q0 4 0.5 8t1.5 7.5t2 6t2.5 4.5t3.5 3l4 2t3.5 1t3.5 -1q4 -1 26 -18q13 -9 23 -9q29 0 60.5 22t28.5 47v20q0 23 -2 69t-2 69q0 13 0.5 24t1.5 23t3 24q4 6 6 10l5 10t4.5 11.5t1.5 10.5q0 16 -19 23
q-19 32 -19 80q0 15 2 45t2 44v6q1 7 3 20t3 23t2.5 22t1.5 22q0 28 -11 38q-10 10 -34 10q-5 0 -10 -0.5t-9 -1t-9 -1t-9 -0.5t-8 -0.5t-7 -0.5q-4 0 -7 0.5t-5 1.5t-2 3q-3 6 -3 11q0 17 30.5 25t87.5 10h2q15 0 26.5 -11.5t16.5 -26t6 -28.5z" />
    <glyph glyph-name="asciitilde" unicode="~" horiz-adv-x="530" 
d="M455 386q12 0 19 -10q7 -11 11 -35v-16q0 -60 -37 -111q-11 -15 -25.5 -26.5t-32 -18.5t-34.5 -8h-1q-7 0 -15.5 3t-15.5 7q-20 13 -45.5 48.5t-34.5 44.5q-1 1 -9 10t-11 12t-10.5 7.5t-13.5 5.5q-13 3 -26 -9q-12 -11 -23.5 -26t-18 -26.5t-17.5 -32.5t-16 -30
q-8 -13 -27 -13q-5 0 -10 1t-9 4.5t-6 8.5t-2 10q0 2 1 5q35 89 75 131q31 32 58 34q4 1 9 1q45 0 82 -39q10 -9 19.5 -23t19 -29t18.5 -25q11 -12 21.5 -18t20.5 -6q11 0 21.5 8t17.5 19.5t13 26t9.5 26t4.5 20.5q1 11 1 14q0 4 -0.5 14.5t-0.5 15.5q0 9 5.5 16.5t14.5 8.5
z" />
    </font>
</defs>
</svg>
