<?xml version="1.0" standalone="no"?>
<!DOCTYPE svg PUBLIC "-//W3C//DTD SVG 1.1//EN" "http://www.w3.org/Graphics/SVG/1.1/DTD/svg11.dtd" >
<svg xmlns="http://www.w3.org/2000/svg" xmlns:xlink="http://www.w3.org/1999/xlink" version="1.1">
<metadata>
Created by FontForge 20170731 at Sat Aug 13 21:53:02 2011
 By Aleksey,,,
Copyright (c) 2011, wmk69 (wmk69@o2.pl)
with Reserved Font Names 'NovaRound' and 'Nova Round'.

This Font Software is licensed under the SIL Open Font License, Version 1.1.
This license is available with a FAQ at:
http://scripts.sil.org/OFL
</metadata>
<defs>
<font id="NovaRound" horiz-adv-x="1410" >
  <font-face 
    font-family="Nova Round"
    font-weight="400"
    font-stretch="normal"
    units-per-em="2048"
    panose-1="2 12 5 4 2 4 4 6 2 4"
    ascent="1638"
    descent="-410"
    x-height="1100"
    cap-height="1550"
    bbox="-15 -450 2879 1966"
    underline-thickness="122"
    underline-position="-447"
    unicode-range="U+0020-25CA"
  />
<missing-glyph horiz-adv-x="894" 
d="M150 0v1510h594v-1510h-594zM268 1392v-1274h358v1274h-358z" />
    <glyph glyph-name=".notdef" horiz-adv-x="894" 
d="M150 0v1510h594v-1510h-594zM268 1392v-1274h358v1274h-358z" />
    <glyph glyph-name=".null" horiz-adv-x="0" 
 />
    <glyph glyph-name="nonmarkingreturn" horiz-adv-x="682" 
 />
    <glyph glyph-name="space" unicode=" " horiz-adv-x="800" 
 />
    <glyph glyph-name="exclam" unicode="!" horiz-adv-x="600" 
d="M180 102.5q0 50.5 35 86.5t85 36t85 -36t35 -86.5t-35 -86.5t-85 -36t-85 36t-35 86.5zM390 1550h10v-1040l-190 -90h-10v1040z" />
    <glyph glyph-name="quotedbl" unicode="&#x22;" horiz-adv-x="747" 
d="M587 1550h10v-484l-156 -74h-10v484zM306 1550h10v-484l-156 -74h-10v484z" />
    <glyph glyph-name="numbersign" unicode="#" horiz-adv-x="1368" 
d="M458 222h-10v298h-298v10l81 172h217v108h-298v10l81 172h217v217l172 81h10v-298h108v217l172 81h10v-298h298v-10l-81 -172h-217v-108h298v-10l-81 -172h-217v-217l-172 -81h-10v298h-108v-217zM630 702h108v108h-108v-108z" />
    <glyph glyph-name="dollar" unicode="$" horiz-adv-x="1329" 
d="M160 460l190 90h10v-82q0 -122 72 -205q70 -81 175 -98v589q-146 17 -257 117q-100 90 -100 261q0 202 124 302q98 79 233 93v173l106 50h10v-223q135 -14 233 -93q124 -100 124 -277l-190 -90h-10v80q0 113 -65 170q-41 36 -92 48v-436q200 -12 312 -112
q134 -120 134 -345q0 -205 -134 -347q-119 -126 -312 -143v-172l-106 -50h-10v222q-193 17 -312 143q-135 143 -135 335zM607 936v430q-58 -13 -98 -55q-59 -62 -59 -164q0 -99 45 -149q43 -48 112 -62zM723 748v-583q104 17 175 98t71 207q0 118 -58 187q-65 77 -188 91z
" />
    <glyph glyph-name="percent" unicode="%" horiz-adv-x="2144" 
d="M1164 380q0 165 124 287q116 113 291 113q173 0 291 -113q124 -120 124 -287q0 -165 -124 -287q-116 -113 -291 -113q-173 0 -291 113q-124 120 -124 287zM1794 380q0 115 -62.5 168.5t-152.5 53.5t-152.5 -53.5t-62.5 -168.5t62.5 -168.5t152.5 -53.5t152.5 53.5
t62.5 168.5zM150 1130q0 165 124 287q116 113 291 113q173 0 291 -113q124 -120 124 -287q0 -165 -124 -287q-116 -113 -291 -113q-173 0 -291 113q-124 120 -124 287zM780 1130q0 115 -62.5 168.5t-152.5 53.5t-152.5 -53.5t-62.5 -168.5t62.5 -168.5t152.5 -53.5
t152.5 53.5t62.5 168.5zM788 -40l-141 68l709 1522h10l141 -68l-709 -1522h-10z" />
    <glyph glyph-name="ampersand" unicode="&#x26;" horiz-adv-x="1720" 
d="M160 468q0 201 148 333q46 41 81 58q-139 117 -139 278q0 196 124 297q118 96 291 96q177 0 291 -96q124 -104 124 -297l-190 -90h-10v98q0 113 -65 172q-62 55 -150 55q-98 0 -156 -61q-59 -61 -59 -174q0 -91 45 -139q62 -66 158 -75t177 -9l302 -361l270 281h10
l172 -82l-336 -341l312 -369l-174 -82h-10l-270 324l-340 -324q-364 0 -489 162q-117 152 -117 346zM994 428l-285 340q-134 -2 -249 -83q-100 -70 -100 -231q0 -122 72 -211q74 -92 202 -92q134 0 360 277z" />
    <glyph glyph-name="quotesingle" unicode="'" horiz-adv-x="466" 
d="M306 1550h10v-484l-156 -74h-10v484z" />
    <glyph glyph-name="parenleft" unicode="(" horiz-adv-x="755" 
d="M705 -240q-228 0 -370 145q-135 138 -135 355v990q0 217 135 355q142 145 370 145v-180q-146 -1 -233 -103q-72 -85 -72 -217v-990q0 -132 72 -217q87 -102 233 -103v-180z" />
    <glyph glyph-name="parenright" unicode=")" horiz-adv-x="755" 
d="M50 -240v180q146 1 233 103q72 85 72 217v990q0 132 -72 217q-87 102 -233 103v180q228 0 370 -145q135 -138 135 -355v-990q0 -217 -135 -355q-142 -145 -370 -145z" />
    <glyph glyph-name="asterisk" unicode="*" horiz-adv-x="1183" 
d="M682 1550v-319l189 129l157 -109l5 -8l-280 -150l280 -150l-5 -8l-157 -109l-189 129v-238l-172 -81h-10v319l-189 -129l-156 109l-5 8l279 150l-279 150l5 8l156 109l189 -129v238l172 81h10z" />
    <glyph glyph-name="plus" unicode="+" horiz-adv-x="1214" 
d="M698 1212v-366h366v-10l-81 -172h-285v-285l-172 -81h-10v366h-366v10l81 172h285v285l172 81h10z" />
    <glyph glyph-name="comma" unicode="," horiz-adv-x="609" 
d="M340 278h10q109 -107 109 -244q0 -191 -245 -320l-43 50q113 115 113 216q0 121 -134 208z" />
    <glyph glyph-name="hyphen" unicode="-" horiz-adv-x="1214" 
d="M150 664v10l81 172h833v-10l-81 -172h-833z" />
    <glyph glyph-name="period" unicode="." horiz-adv-x="600" 
d="M180 102.5q0 50.5 35 86.5t85 36t85 -36t35 -86.5t-35 -86.5t-85 -36t-85 36t-35 86.5z" />
    <glyph glyph-name="slash" unicode="/" horiz-adv-x="974" 
d="M151 -140l-141 68l802 1722h10l142 -68l-803 -1722h-10z" />
    <glyph glyph-name="zero" unicode="0" 
d="M400 480q0 -134 72 -217q89 -103 233 -103t233 103q72 83 72 217v550q0 134 -72 217q-89 103 -233 103t-233 -103q-72 -83 -72 -217v-550zM200 480v550q0 217 135 355q142 145 370 145t370 -145q135 -137 135 -355v-550q0 -217 -135 -355q-142 -145 -370 -145t-370 145
q-135 138 -135 355z" />
    <glyph glyph-name="one" unicode="1" horiz-adv-x="714" 
d="M264 -40v1312l-244 -134v205l434 207h10v-1500l-190 -90h-10z" />
    <glyph glyph-name="two" unicode="2" horiz-adv-x="1333" 
d="M150 0v10l81 172l479 464q254 234 254 397q0 124 -66 204q-85 103 -233 103q-140 0 -233 -103q-72 -80 -72 -200q0 -67 39 -133l-168 -81h-10q-61 108 -61 237q0 172 135 315q137 145 370 145t370 -145q134 -142 134 -348q-1 -225 -270 -473l-427 -382h701v-10l-81 -172
h-942z" />
    <glyph glyph-name="three" unicode="3" horiz-adv-x="1330" 
d="M161 480l190 90h10v-90q0 -132 72 -217q87 -103 233 -103q143 0 233 103q71 81 71 207q0 118 -59 187q-82 94 -247 94q-137 0 -222 -44l331 621h-524v10l81 172h753l-343 -600q176 -1 294 -105q136 -120 136 -333q0 -204 -134 -347q-137 -145 -370 -145t-370 145
q-135 143 -135 355z" />
    <glyph glyph-name="four" unicode="4" horiz-adv-x="1188" 
d="M738 540v646l-435 -646h435zM738 -40v398h-733v10l81 172l652 920l190 90h10v-1010h150v-10l-81 -172h-69v-308l-190 -90h-10z" />
    <glyph glyph-name="five" unicode="5" horiz-adv-x="1330" 
d="M161 480l190 90h10v-90q0 -132 72 -217q87 -103 233 -103q143 0 233 103q71 81 71 207q0 110 -66 187q-82 94 -240 94q-137 0 -222 -44l-209 101l167 702h693v-10l-81 -172h-460l-122 -446q111 54 234 54q227 0 364 -119q142 -123 142 -345q0 -204 -134 -347
q-137 -145 -370 -145t-370 145q-135 143 -135 355z" />
    <glyph glyph-name="six" unicode="6" 
d="M1184 1118l-184 -88h-10q0 133 -72 217q-90 103 -212 103q-145 0 -234 -103q-72 -83 -72 -217v-186q130 118 305 118q233 0 370 -145q135 -143 135 -345q0 -204 -135 -347q-137 -145 -370 -145t-370 145q-135 143 -135 345v560q0 212 135 355q137 145 370 145
q221 0 350 -134.5t129 -277.5zM705 782q-143 0 -233 -103q-72 -83 -72 -209q0 -123 72 -207q88 -103 233 -103q141 0 233 103q72 81 72 207q0 125 -72 209q-88 103 -233 103z" />
    <glyph glyph-name="seven" unicode="7" horiz-adv-x="1047" 
d="M458 -40h-10l-180 85l458 1283h-676v10l81 172h866v-10z" />
    <glyph glyph-name="eight" unicode="8" horiz-adv-x="1328" 
d="M160 472q0 196 152 338q32 30 76 53q-139 112 -139 269q0 200 124 302q118 96 291 96t291 -96q124 -101 124 -302q0 -157 -139 -269q44 -23 76 -53q152 -142 152 -338q0 -204 -134 -347q-137 -145 -370 -145q-234 0 -370 145q-134 143 -134 347zM664 160q143 0 233 103
q71 81 71 207q0 119 -58 187q-80 94 -246 94t-246 -94q-58 -68 -58 -187q0 -126 71 -207q90 -103 233 -103zM664 1372q-97 0 -156 -61t-59 -164q0 -99 45 -149q60 -67 170 -67t170 67q45 50 45 149q0 103 -59 164t-156 61z" />
    <glyph glyph-name="nine" unicode="9" 
d="M206 392l184 88h10q0 -133 72 -217q90 -103 232 -103q145 0 234 103q72 83 72 217v186q-126 -118 -305 -118q-233 0 -370 145q-135 143 -135 345q0 204 135 347q137 145 370 145t370 -145q135 -143 135 -345v-560q0 -212 -135 -355q-137 -145 -370 -145
q-241 0 -370 134.5t-129 277.5zM705 728q143 0 233 103q72 83 72 209q0 123 -72 207q-88 103 -233 103q-141 0 -233 -103q-72 -81 -72 -207q0 -125 72 -209q88 -103 233 -103z" />
    <glyph glyph-name="colon" unicode=":" horiz-adv-x="600" 
d="M180 753.5q0 50.5 35 86.5t85 36t85 -36t35 -86.5t-35 -86.5t-85 -36t-85 36t-35 86.5zM180 102.5q0 50.5 35 86.5t85 36t85 -36t35 -86.5t-35 -86.5t-85 -36t-85 36t-35 86.5z" />
    <glyph glyph-name="semicolon" unicode=";" horiz-adv-x="600" 
d="M205 -286l-43 50q113 115 113 216q0 121 -134 208l190 90h10q109 -107 109 -244q0 -191 -245 -320zM180 753.5q0 50.5 35 86.5t85 36t85 -36t35 -86.5t-35 -86.5t-85 -36t-85 36t-35 86.5z" />
    <glyph glyph-name="less" unicode="&#x3c;" horiz-adv-x="1338" 
d="M150 664v10l82 173l824 351l82 -173v-10l-684 -277l684 -277v-10l-82 -173z" />
    <glyph glyph-name="equal" unicode="=" horiz-adv-x="1214" 
d="M150 846v10l81 172h833v-10l-81 -172h-833zM150 482v10l81 172h833v-10l-81 -172h-833z" />
    <glyph glyph-name="greater" unicode="&#x3e;" horiz-adv-x="1338" 
d="M1188 812v-10l-82 -173l-824 -351l-82 173v10l684 277l-684 277v10l82 173z" />
    <glyph glyph-name="question" unicode="?" horiz-adv-x="1300" 
d="M525 102.5q0 50.5 35 86.5t85 36t85 -36t35 -86.5t-35 -86.5t-85 -36t-85 36t-35 86.5zM211 833q-61 108 -61 237q0 171 135 315q137 145 370 145q236 0 370 -145q125 -135 125 -335q0 -237 -329 -459q-87 -59 -90 -137l-193 -93h-10q1 250 175 361q249 158 249 329
q0 119 -64 196q-85 103 -233 103q-140 0 -233 -103q-72 -80 -72 -200q0 -67 39 -133l-168 -81h-10z" />
    <glyph glyph-name="at" unicode="@" horiz-adv-x="1370" 
d="M990 514q-173 -1 -237 -55.5t-64 -141.5q0 -86 65 -144q62 -55 236 -55v396zM1000 -40h-96q-197 13 -293 90q-122 98 -122 250q0 175 124 273q105 83 291 96h83q-11 101 -69 168q-89 103 -233 103t-233 -103q-72 -83 -72 -217v-550q0 -134 72 -217q89 -103 233 -103v-180
q-228 0 -370 145q-135 138 -135 355v550q0 217 135 355q142 145 370 145t370 -145q135 -137 135 -355v-570z" />
    <glyph glyph-name="A" unicode="A" 
d="M200 -40v1070q0 216 135 355q142 145 370 145q224 0 370 -145q135 -134 135 -355v-980l-190 -90h-10v704h-610v-614l-190 -90h-10zM400 846h610v184q0 134 -72 217q-89 103 -233 103t-233 -103q-72 -83 -72 -217v-184z" />
    <glyph glyph-name="B" unicode="B" horiz-adv-x="1370" 
d="M400 180h285q151 0 240 95q65 69 65 182q0 117 -69 197q-75 92 -236 92h-285v-566zM400 926h285q100 0 161 65q54 58 54 151q0 76 -65 137q-58 51 -150 51h-285v-404zM200 0v1460l106 50h379q169 0 281 -92q133 -108 133 -277q0 -172 -152 -286q49 -21 97 -63
q146 -133 146 -330q0 -198 -128 -325q-137 -137 -377 -137h-485z" />
    <glyph glyph-name="C" unicode="C" 
d="M1210 550v-70q0 -217 -135 -355q-142 -145 -370 -145t-370 145q-135 138 -135 355v550q0 217 135 355q142 145 370 145q236 0 370.5 -145t134.5 -335l-190 -90h-10v70q0 134 -72 217q-89 103 -233 103t-233 -103q-72 -83 -72 -217v-550q0 -134 72 -217q89 -103 233 -103
t233 103q72 83 72 197l190 90h10z" />
    <glyph glyph-name="D" unicode="D" horiz-adv-x="1390" 
d="M200 0v1460l106 50h379q228 0 370 -145q135 -137 135 -355v-510q0 -217 -135 -355q-142 -145 -370 -145h-485zM400 180h285q144 0 233 103q72 83 72 217v510q0 134 -72 217q-89 103 -233 103h-285v-1150z" />
    <glyph glyph-name="E" unicode="E" horiz-adv-x="1157" 
d="M200 0v1460l106 50h634v-10l-81 -172h-459v-482h540v-10l-81 -172h-459v-482h707v-10l-81 -172h-826z" />
    <glyph glyph-name="F" unicode="F" horiz-adv-x="1120" 
d="M200 -40v1500l106 50h634v-10l-81 -172h-459v-482h540v-10l-81 -172h-459v-614l-190 -90h-10z" />
    <glyph glyph-name="G" unicode="G" 
d="M1210 846v-366q0 -217 -135 -355q-142 -145 -370 -145t-370 145q-135 138 -135 355v550q0 217 135 355q142 145 370 145q236 0 370.5 -145t134.5 -335l-190 -90h-10v70q0 134 -72 217q-89 103 -233 103t-233 -103q-72 -83 -72 -217v-550q0 -134 72 -217q89 -103 233 -103
t233 103q72 83 72 197v204h-348v10l81 172h467z" />
    <glyph glyph-name="H" unicode="H" horiz-adv-x="1390" 
d="M200 -40v1500l190 90h10v-704h590v614l190 90h10v-1500l-190 -90h-10v704h-590v-614l-190 -90h-10z" />
    <glyph glyph-name="I" unicode="I" horiz-adv-x="600" 
d="M200 -40v1500l190 90h10v-1500l-190 -90h-10z" />
    <glyph glyph-name="J" unicode="J" horiz-adv-x="1290" 
d="M80 460l190 90h10v-70q0 -134 72 -217q89 -103 233 -103t233 103q72 83 72 217v848h-573v10l81 172h692v-1030q0 -216 -135 -355q-142 -145 -370 -145q-225 0 -370 145q-135 134 -135 335z" />
    <glyph glyph-name="K" unicode="K" horiz-adv-x="1360" 
d="M200 -40v1500l190 90h10v-753l543 753h10l176 -83l-446 -594q230 -5 362 -134q135 -132 135 -355v-334l-190 -90h-10v424q0 134 -72 217q-89 103 -218 103q-131 0 -218 -103q-72 -85 -72 -217v-334l-190 -90h-10z" />
    <glyph glyph-name="L" unicode="L" horiz-adv-x="1090" 
d="M200 0v1460l190 90h10v-1368h685v-10l-81 -172h-804z" />
    <glyph glyph-name="M" unicode="M" horiz-adv-x="2220" 
d="M200 -40v1070q0 216 135 355q142 145 370 145q206 0 351 -145q36 -36 54 -70q23 35 56 67q151 148 349 148q224 0 370 -145q135 -134 135 -355v-980l-190 -90h-10v1070q0 134 -72 217q-89 103 -233 103t-233 -103q-72 -83 -72 -217v-980l-190 -90h-10v1070q0 134 -72 217
q-89 103 -233 103t-233 -103q-72 -83 -72 -217v-980l-190 -90h-10z" />
    <glyph glyph-name="N" unicode="N" 
d="M200 -40v1070q0 216 135 355q142 145 370 145q225 0 370 -145q135 -134 135 -355v-980l-190 -90h-10v1070q0 134 -72 217q-89 103 -233 103t-233 -103q-72 -83 -72 -217v-980l-190 -90h-10z" />
    <glyph glyph-name="O" unicode="O" 
d="M400 480q0 -134 72 -217q89 -103 233 -103t233 103q72 83 72 217v550q0 134 -72 217q-89 103 -233 103t-233 -103q-72 -83 -72 -217v-550zM200 480v550q0 217 135 355q142 145 370 145t370 -145q135 -137 135 -355v-550q0 -217 -135 -355q-142 -145 -370 -145t-370 145
q-135 138 -135 355z" />
    <glyph glyph-name="P" unicode="P" horiz-adv-x="1340" 
d="M400 690h285q131 0 233 103q72 73 72 217q0 134 -72 217q-89 103 -233 103h-285v-640zM200 -40v1500l106 50h379q228 0 370 -145q135 -138 135 -355q0 -218 -135 -355q-143 -145 -370 -145h-285v-460l-190 -90h-10z" />
    <glyph glyph-name="Q" unicode="Q" 
d="M200 480v550q0 217 135 355q142 145 370 145t370 -145q135 -137 135 -355v-550q0 -202 -117 -336l70 -101l-176 -83h-10l-45 65q-100 -45 -227 -45q-228 0 -370 145q-135 138 -135 355zM400 480q0 -134 72 -217q89 -103 233 -103q64 0 118 21l-192 274l176 83h10
l156 -223q37 69 37 165v550q0 134 -72 217q-89 103 -233 103t-233 -103q-72 -83 -72 -217v-550z" />
    <glyph glyph-name="R" unicode="R" horiz-adv-x="1364" 
d="M200 -40v1500l106 50h379q228 0 370 -145q135 -138 135 -355q0 -218 -135 -355q-80 -81 -187 -117l346 -495l-176 -83h-10l-385 550h-243v-460l-190 -90h-10zM400 690h285q131 0 233 103q72 73 72 217q0 134 -72 217q-89 103 -233 103h-285v-640z" />
    <glyph glyph-name="S" unicode="S" horiz-adv-x="1330" 
d="M1169 472q0 -204 -134 -347q-137 -145 -370 -145t-370 145q-135 143 -135 335l190 90h10v-82q0 -122 72 -205q89 -103 233 -103q143 0 233 103q71 81 71 207q0 119 -58 187q-80 94 -246 94q-182 0 -315 120q-100 90 -100 261q0 201 124 302q118 96 291 96t291 -96
q124 -101 124 -277l-190 -90h-10v80q0 114 -65 170q-63 55 -150 55q-97 0 -156 -61t-59 -164q0 -99 45 -149q60 -67 170 -67q242 0 370 -114q134 -119 134 -345z" />
    <glyph glyph-name="T" unicode="T" horiz-adv-x="1066" 
d="M433 -40v1368h-428v10l81 172h975v-10l-81 -172h-347v-1278l-190 -90h-10z" />
    <glyph glyph-name="U" unicode="U" 
d="M1210 1550v-1070q0 -216 -135 -355q-142 -145 -370 -145q-225 0 -370 145q-135 134 -135 355v980l190 90h10v-1070q0 -134 72 -217q89 -103 233 -103t233 103q72 83 72 217v980l190 90h10z" />
    <glyph glyph-name="V" unicode="V" horiz-adv-x="1181" 
d="M515 -40l-510 1508l173 82h10l414 -1256l391 1256h10l173 -82l-478 -1426l-173 -82h-10z" />
    <glyph glyph-name="W" unicode="W" horiz-adv-x="2220" 
d="M2020 1550v-1070q0 -216 -135 -355q-142 -145 -370 -145q-206 0 -351 145q-36 36 -54 70q-23 -35 -56 -67q-151 -148 -349 -148q-224 0 -370 145q-135 134 -135 355v980l190 90h10v-1070q0 -134 72 -217q89 -103 233 -103t233 103q72 83 72 217v980l190 90h10v-1070
q0 -134 72 -217q89 -103 233 -103t233 103q72 83 72 217v980l190 90h10z" />
    <glyph glyph-name="X" unicode="X" horiz-adv-x="1278" 
d="M274 -40l-174 82l422 713l-422 712l175 83h10l354 -618l354 618h10l175 -83l-422 -712l422 -713l-174 -82h-10l-355 618l-355 -618h-10z" />
    <glyph glyph-name="Y" unicode="Y" horiz-adv-x="1310" 
d="M555 -40v524q-157 26 -270 137q-135 133 -135 355v484l190 90h10v-574q0 -134 72 -217q89 -103 233 -103q152 0 233 103q72 92 72 217v484l190 90h10v-574q0 -216 -135 -355q-109 -112 -270 -137v-434l-190 -90h-10z" />
    <glyph glyph-name="Z" unicode="Z" horiz-adv-x="1267" 
d="M150 0v10l647 1318h-637v10l81 172h866v-10l-650 -1318h660v-10l-81 -172h-886z" />
    <glyph glyph-name="bracketleft" unicode="[" horiz-adv-x="864" 
d="M200 -240v1900l190 90h424v-10l-61 -130h-353v-1710h414v-10l-61 -130h-553z" />
    <glyph glyph-name="backslash" unicode="\" horiz-adv-x="974" 
d="M812 -140l-802 1722l141 68h10l803 -1722l-142 -68h-10z" />
    <glyph glyph-name="bracketright" unicode="]" horiz-adv-x="864" 
d="M50 -240v10l61 130h353v1710h-414v10l61 130h553v-1900l-190 -90h-424z" />
    <glyph glyph-name="asciicircum" unicode="^" horiz-adv-x="1321" 
d="M150 1088l378 380l173 82h10l460 -462l-173 -82h-10l-329 322l-326 -322h-10z" />
    <glyph glyph-name="underscore" unicode="_" horiz-adv-x="1214" 
d="M150 -410v10l81 172h833v-10l-81 -172h-833z" />
    <glyph glyph-name="grave" unicode="`" horiz-adv-x="648" 
d="M326 1550h10l162 -345l-117 -55h-10l-221 316z" />
    <glyph glyph-name="a" unicode="a" horiz-adv-x="1060" 
d="M910 50l-190 -90h-10v105q-80 -85 -215 -85q-187 0 -291 113t-104 267q0 160 113 272q109 108 282 108q123 0 215 -85q0 177 -62 233q-60 54 -153 54h-243v10l80 168h163q175 0 291 -113q124 -121 124 -287v-670zM296 360q0 -89 54 -147q52 -56 146 -56q98 0 152 57
q60 64 60 144q0 90 -62 146t-149 56q-91 0 -146 -59t-55 -141z" />
    <glyph glyph-name="b" unicode="b" horiz-adv-x="1180" 
d="M200 380v1080l190 90h10v-515q76 85 215 85q173 0 291 -113q124 -120 124 -287v-340q0 -165 -124 -287q-116 -113 -291 -113q-173 0 -291 113q-124 120 -124 287zM400 380q0 -115 62.5 -168.5t152.5 -53.5t152.5 53.5t62.5 168.5v340q0 115 -62.5 168.5t-152.5 53.5
t-152.5 -53.5t-62.5 -168.5v-340z" />
    <glyph glyph-name="c" unicode="c" horiz-adv-x="1130" 
d="M980 443v-63q0 -165 -124 -287q-116 -113 -291 -113q-173 0 -291 113q-124 120 -124 287v340q0 166 124 287q116 113 291 113q171 0 291 -113q124 -117 124 -258v-2l-190 -90h-10v63q0 115 -62.5 168.5t-152.5 53.5t-152.5 -53.5t-62.5 -168.5v-340q0 -115 62.5 -168.5
t152.5 -53.5t152.5 54t62.5 141l190 90h10z" />
    <glyph glyph-name="d" unicode="d" horiz-adv-x="1180" 
d="M350 380q0 -115 62.5 -168.5t152.5 -53.5t152.5 53.5t62.5 168.5v340q0 115 -62.5 168.5t-152.5 53.5t-152.5 -53.5t-62.5 -168.5v-340zM150 380v340q0 165 124 287q116 113 291 113q132 0 215 -85v425l190 90h10v-1170q0 -165 -124 -287q-116 -113 -291 -113
q-173 0 -291 113q-124 120 -124 287z" />
    <glyph glyph-name="e" unicode="e" horiz-adv-x="1130" 
d="M980 443v-63q0 -165 -124 -287q-116 -113 -291 -113q-173 0 -291 113q-124 120 -124 287v340q0 165 124 287q116 113 291 113q170 0 291 -113q124 -116 124 -258v-2l-610 -478q15 -34 42 -57q63 -54 153 -54t152.5 54t62.5 141l190 90h10zM350 471l418 339q-16 49 -50 78
q-63 54 -153 54t-152.5 -53.5t-62.5 -168.5v-249z" />
    <glyph glyph-name="f" unicode="f" horiz-adv-x="850" 
d="M200 -40v858h-150v10l81 172h69v130q0 165 124 287q116 113 291 113h135v-10l-80 -168h-55q-90 0 -153 -54q-62 -54 -62 -168v-130h331v-10l-81 -172h-250v-768l-190 -90h-10z" />
    <glyph glyph-name="g" unicode="g" horiz-adv-x="1160" 
d="M350 380q0 -115 62.5 -168.5t152.5 -53.5t152.5 53.5t62.5 168.5v340q0 115 -62.5 168.5t-152.5 53.5t-152.5 -53.5t-62.5 -168.5v-340zM150 380v340q0 165 124 287q116 113 291 113t291 -113q124 -121 124 -287v-750q0 -165 -124 -287q-116 -113 -291 -113h-308v10
l80 168h228q90 0 152.5 53.5t62.5 168.5v95q-76 -85 -215 -85q-173 0 -291 113q-124 120 -124 287z" />
    <glyph glyph-name="h" unicode="h" horiz-adv-x="1180" 
d="M200 -40v1500l190 90h10v-515q75 85 215 85q173 0 291 -113q124 -120 124 -287v-670l-190 -90h-10v760q0 115 -62.5 168.5t-152.5 53.5t-152.5 -53.5t-62.5 -168.5v-670l-190 -90h-10z" />
    <glyph glyph-name="i" unicode="i" horiz-adv-x="600" 
d="M180 1407.5q0 50.5 35 86.5t85 36t85 -36t35 -86.5t-35 -86.5t-85 -36t-85 36t-35 86.5zM200 -40v1090l190 90h10v-1090l-190 -90h-10z" />
    <glyph glyph-name="j" unicode="j" horiz-adv-x="600" 
d="M180 1407.5q0 50.5 35 86.5t85 36t85 -36t35 -86.5t-35 -86.5t-85 -36t-85 36t-35 86.5zM-15 -450v10l85 182q38 15 68 40q62 54 62 168v1100l190 90h10v-1190q0 -165 -124 -287q-116 -113 -291 -113z" />
    <glyph glyph-name="k" unicode="k" horiz-adv-x="1180" 
d="M200 -40v1500l190 90h10v-833l418 423h10l176 -83l-332 -305q142 -19 234 -93q124 -102 124 -287v-322l-190 -90h-10v412q0 115 -62.5 168.5t-152.5 53.5t-153 -54q-62 -54 -62 -168v-322l-190 -90h-10z" />
    <glyph glyph-name="l" unicode="l" horiz-adv-x="600" 
d="M200 -40v1500l190 90h10v-1500l-190 -90h-10z" />
    <glyph glyph-name="m" unicode="m" horiz-adv-x="1760" 
d="M150 -40v760q0 165 124 287q116 113 291 113q159 0 275 -116q22 -22 40 -52q18 29 40 51q125 117 275 117q173 0 291 -113q124 -120 124 -287v-670l-190 -90h-10v760q0 115 -62.5 168.5t-152.5 53.5t-152.5 -53.5t-62.5 -168.5v-670l-190 -90h-10v760q0 115 -62.5 168.5
t-152.5 53.5t-152.5 -53.5t-62.5 -168.5v-670l-190 -90h-10z" />
    <glyph glyph-name="n" unicode="n" horiz-adv-x="1130" 
d="M150 -40v760q0 165 124 287q116 113 291 113q173 0 291 -113q124 -120 124 -287v-670l-190 -90h-10v760q0 115 -62.5 168.5t-152.5 53.5t-152.5 -53.5t-62.5 -168.5v-670l-190 -90h-10z" />
    <glyph glyph-name="o" unicode="o" horiz-adv-x="1130" 
d="M150 380v340q0 165 124 287q116 113 291 113q173 0 291 -113q124 -120 124 -287v-340q0 -165 -124 -287q-116 -113 -291 -113q-173 0 -291 113q-124 120 -124 287zM350 380q0 -115 62.5 -168.5t152.5 -53.5t152.5 53.5t62.5 168.5v340q0 115 -62.5 168.5t-152.5 53.5
t-152.5 -53.5t-62.5 -168.5v-340z" />
    <glyph glyph-name="p" unicode="p" horiz-adv-x="1180" 
d="M830 720q0 115 -62.5 168.5t-152.5 53.5t-152.5 -53.5t-62.5 -168.5v-340q0 -115 62.5 -168.5t152.5 -53.5t152.5 53.5t62.5 168.5v340zM1030 720v-340q0 -165 -124 -287q-116 -113 -291 -113q-132 0 -215 85v-425l-190 -90h-10v1170q0 165 124 287q116 113 291 113
q173 0 291 -113q124 -120 124 -287z" />
    <glyph glyph-name="q" unicode="q" horiz-adv-x="1180" 
d="M980 720v-1080l-190 -90h-10v515q-76 -85 -215 -85q-173 0 -291 113q-124 120 -124 287v340q0 165 124 287q116 113 291 113q173 0 291 -113q124 -120 124 -287zM780 720q0 115 -62.5 168.5t-152.5 53.5t-152.5 -53.5t-62.5 -168.5v-340q0 -115 62.5 -168.5t152.5 -53.5
t152.5 53.5t62.5 168.5v340z" />
    <glyph glyph-name="r" unicode="r" horiz-adv-x="720" 
d="M150 -40v760q0 165 124 287q116 113 291 113h135v-10l-80 -168h-55q-90 0 -152.5 -53.5t-62.5 -168.5v-670l-190 -90h-10z" />
    <glyph glyph-name="s" unicode="s" horiz-adv-x="1070" 
d="M120 353l190 90h10v-80q0 -112 65 -170q62 -55 150 -55q102 0 159 65q60 68 60 148q0 86 -64 136q-55 43 -156 43q-178 0 -281 78q-91 68 -91 211q0 139 127 230q99 71 246 71q141 0 245 -88q80 -69 99 -160l-190 -90h-10v29q0 52 -30 89q-48 62 -137 62
q-71 0 -115.5 -44.5t-44.5 -98.5q0 -64 54 -102q30 -21 128 -21q203 0 305 -93q111 -101 111 -263q0 -130 -115 -248q-109 -112 -300 -112q-173 0 -291 96q-124 101 -124 277z" />
    <glyph glyph-name="t" unicode="t" horiz-adv-x="764" 
d="M282 -40v958h-257v10l81 172h176v360l190 90h10v-450h257v-10l-81 -172h-176v-868l-190 -90h-10z" />
    <glyph glyph-name="u" unicode="u" horiz-adv-x="1130" 
d="M980 1140v-760q0 -165 -124 -287q-116 -113 -291 -113q-173 0 -291 113q-124 120 -124 287v670l190 90h10v-760q0 -115 62.5 -168.5t152.5 -53.5t152.5 53.5t62.5 168.5v670l190 90h10z" />
    <glyph glyph-name="v" unicode="v" horiz-adv-x="1026" 
d="M436 -40l-386 1098l173 82h10l283 -834l277 834h10l173 -82l-357 -1016l-173 -82h-10z" />
    <glyph glyph-name="w" unicode="w" horiz-adv-x="1760" 
d="M1610 1140v-760q0 -165 -124 -287q-116 -113 -291 -113q-159 0 -275 116q-22 22 -40 52q-18 -29 -40 -51q-125 -117 -275 -117q-173 0 -291 113q-124 120 -124 287v670l190 90h10v-760q0 -115 62.5 -168.5t152.5 -53.5t152.5 53.5t62.5 168.5v670l190 90h10v-760
q0 -115 62.5 -168.5t152.5 -53.5t152.5 53.5t62.5 168.5v670l190 90h10z" />
    <glyph glyph-name="x" unicode="x" horiz-adv-x="1015" 
d="M264 -40h-10l-174 82l310 508l-310 507l175 83h10l243 -427l242 427h10l175 -83l-310 -507l310 -508l-174 -82h-10l-243 428z" />
    <glyph glyph-name="y" unicode="y" horiz-adv-x="1180" 
d="M150 380v670l190 90h10v-760q0 -115 62.5 -168.5t152.5 -53.5t152.5 53.5t62.5 168.5v670l190 90h10v-1170q0 -165 -124 -287q-116 -113 -291 -113h-308v10l80 168h228q90 0 153 54q62 54 62 168v95q-74 -85 -215 -85q-171 0 -291 113q-124 118 -124 287z" />
    <glyph glyph-name="z" unicode="z" horiz-adv-x="1053" 
d="M100 0v10l523 908h-513v10l81 172h752v-10l-522 -908h532v-10l-81 -172h-772z" />
    <glyph glyph-name="braceleft" unicode="{" horiz-adv-x="825" 
d="M775 -240q-228 0 -370 145q-135 138 -135 355v404h-220v10l81 172h139v404q0 217 135 355q142 145 370 145v-180q-146 -1 -233 -103q-72 -85 -72 -217v-990q0 -132 72 -217q87 -102 233 -103v-180z" />
    <glyph glyph-name="bar" unicode="|" horiz-adv-x="666" 
d="M250 -240v1916l156 74h10v-1916l-156 -74h-10z" />
    <glyph glyph-name="braceright" unicode="}" horiz-adv-x="825" 
d="M50 -240v180q146 1 233 103q72 85 72 217v990q0 132 -72 217q-87 102 -233 103v180q228 0 370 -145q135 -138 135 -355v-404h220v-10l-81 -172h-139v-404q0 -217 -135 -355q-142 -145 -370 -145z" />
    <glyph glyph-name="asciitilde" unicode="~" horiz-adv-x="1138" 
d="M150 583q0 361 237 361q134 0 223 -101q73 -83 128 -83q72 0 72 103l168 81h10q0 -361 -237 -361q-134 0 -223 101q-73 83 -128 83q-72 0 -72 -103l-168 -81h-10z" />
    <glyph glyph-name="uni00A0" unicode="&#xa0;" horiz-adv-x="800" 
 />
    <glyph glyph-name="exclamdown" unicode="&#xa1;" horiz-adv-x="600" 
d="M420 1407.5q0 -50.5 -35 -86.5t-85 -36t-85 36t-35 86.5t35 86.5t85 36t85 -36t35 -86.5zM210 -40h-10v1040l190 90h10v-1040z" />
    <glyph glyph-name="cent" unicode="&#xa2;" horiz-adv-x="1130" 
d="M980 443v-63q0 -166 -124 -287q-96 -94 -233 -110v-173l-106 -50h-10v223q-135 16 -233 110q-124 119 -124 287v340q0 166 124 287q96 94 233 110v173l106 50h10v-223q134 -17 233 -110q124 -116 124 -258v-2l-190 -90h-10v63q0 115 -62 168q-42 36 -95 48v-772
q53 12 95 48q62 54 62 141l190 90h10zM507 164v772q-53 -12 -95 -48q-62 -53 -62 -168v-340q0 -115 62 -168q42 -36 95 -48z" />
    <glyph glyph-name="sterling" unicode="&#xa3;" horiz-adv-x="1335" 
d="M150 0v10l81 172h69v416h-150v10l81 172h69v357q0 197 124 297q118 96 291 96q165 0 291 -96q124 -96 124 -297l-190 -90h-10v90q0 125 -65.5 180t-149.5 55q-95 0 -155 -61t-60 -174v-357h415v-10l-81 -172h-334v-416h685v-10l-81 -172h-954z" />
    <glyph glyph-name="currency" unicode="&#xa4;" horiz-adv-x="1395" 
d="M1202 746q0 -170 -87 -296l130 -130l-7 -7l-179 -64l-74 73q-118 -76 -288 -76q-176 0 -297 83l-64 -64l-179 64l-7 7l123 123q-81 123 -81 289q0 170 87 296l-129 130l7 7l178 64l74 -73q118 76 288 76t288 -76l74 73l179 -64l7 -7l-130 -130q87 -126 87 -298zM697 426
q137 0 233 103q72 79 72 219q0 126 -72 217q-84 103 -234 103q-139 0 -232 -103q-72 -80 -72 -217q0 -138 72 -219q92 -103 233 -103z" />
    <glyph glyph-name="yen" unicode="&#xa5;" horiz-adv-x="1278" 
d="M516 -40v470h-335v10l81 172h222l-67 148h-236v10l81 172h74l-236 525l175 83h10l268 -608h228l282 608h10l105 -50l-267 -558h184v-10l-81 -172h-190l-71 -148h342v-10l-81 -172h-298v-380l-190 -90h-10zM696 760h-63l31 -70z" />
    <glyph glyph-name="brokenbar" unicode="&#xa6;" horiz-adv-x="666" 
d="M250 -240v827l156 74h10v-827l-156 -74h-10zM406 1750h10v-827l-156 -74h-10v827z" />
    <glyph glyph-name="section" unicode="&#xa7;" horiz-adv-x="1130" 
d="M221 228l190 90h10v-29q0 -52 30 -89q48 -62 137 -62q71 0 115.5 44.5t44.5 98.5q0 64 -54 102q-30 21 -128 21q-203 0 -305 93q-111 101 -111 263q0 103 73 199l159 -93q-36 -55 -36 -117q0 -86 64 -136q55 -43 156 -43q178 0 281 -78q91 -68 91 -211q0 -139 -127 -230
q-99 -71 -246 -71q-141 0 -245 88q-80 69 -99 160zM909 1282l-190 -90h-10v29q0 52 -30 89q-48 62 -137 62q-71 0 -115.5 -44.5t-44.5 -98.5q0 -64 54 -102q30 -21 128 -21q203 0 305 -93q111 -101 111 -263q0 -103 -73 -199l-159 93q36 55 36 117q0 86 -64 136
q-55 43 -156 43q-178 0 -281 78q-91 68 -91 211q0 139 127 230q99 71 246 71q141 0 245 -88q80 -69 99 -160z" />
    <glyph glyph-name="dieresis" unicode="&#xa8;" horiz-adv-x="840" 
d="M450 1407.5q0 50.5 35 86.5t85 36t85 -36t35 -86.5t-35 -86.5t-85 -36t-85 36t-35 86.5zM150 1407.5q0 50.5 35 86.5t85 36t85 -36t35 -86.5t-35 -86.5t-85 -36t-85 36t-35 86.5z" />
    <glyph glyph-name="copyright" unicode="&#xa9;" horiz-adv-x="1401" 
d="M982 678v-66q0 -131 -74 -210q-76 -82 -210 -82q-123 0 -197 78q-73 77 -73 210v283q0 133 73 210q76 79 197 79q124 0 210 -83q74 -74 74 -210l-114 -55h-36v70q0 60 -29 93q-38 43 -97 43q-57 0 -99 -43q-29 -30 -29 -93v-294q0 -62 29 -93q40 -43 99 -43t97 43
q29 34 29 93v15l115 55h35zM701 1331q110 0 210 -43q96 -41 179 -127q80 -83 121 -186q40 -101 40 -221q0 -116 -40 -219q-38 -98 -121 -185q-79 -83 -179 -127q-98 -43 -210 -43q-111 0 -211 43q-96 41 -179 127q-81 84 -121 185t-40 219q0 119 40 221t121 186
q81 85 179 127.5t211 42.5zM701 1251q-98 0 -181 -36t-154 -110q-70 -73 -106 -161t-36 -185v-5q0 -99 36 -188q34 -83 106 -160q70 -74 153 -110q85 -37 182 -37t182 37q83 36 154 110q69 72 104 159t35 189q0 103 -35 191q-34 86 -104 160q-69 73 -154 110q-85 36 -182 36
z" />
    <glyph glyph-name="ordfeminine" unicode="&#xaa;" horiz-adv-x="955" 
d="M307 1477q67 53 164 53q101 0 165 -53q69 -57 69 -164v-361l-111 -53h-29v21q-33 -21 -81 -21q-101 0 -164 53q-68 57 -68 165q0 102 72 164q64 54 147 54q55 0 93 -37q0 66 -24 88q-26 24 -62 24q-44 0 -77 -37zM150 664v10l81 172h574v-10l-81 -172h-574zM476 1018
q35 0 64 24q25 21 25 75q0 53 -26 76q-25 22 -61 22q-39 0 -63 -23q-25 -24 -25 -75q0 -55 26 -76q27 -23 60 -23z" />
    <glyph glyph-name="guillemotleft" unicode="&#xab;" horiz-adv-x="1208" 
d="M824 304l-289 488l289 492h10l174 -82l-242 -407l242 -409l-174 -82h-10zM439 304l-289 488l289 492h10l174 -82l-242 -407l242 -409l-174 -82h-10z" />
    <glyph glyph-name="logicalnot" unicode="&#xac;" horiz-adv-x="1214" 
d="M642 402l142 262h-634v10l81 172h833v-10l-207 -434h-215z" />
    <glyph glyph-name="uni00AD" unicode="&#xad;" horiz-adv-x="1214" 
d="M150 664v10l81 172h833v-10l-81 -172h-833z" />
    <glyph glyph-name="registered" unicode="&#xae;" horiz-adv-x="1401" 
d="M701 1251q-98 0 -181 -36t-154 -110q-70 -73 -106 -161t-36 -185v-5q0 -99 36 -188q34 -83 106 -160q70 -74 153 -110q85 -37 182 -37t182 37q83 36 154 110q69 72 104 159t35 189q0 103 -35 191q-34 86 -104 160q-69 73 -154 110q-85 36 -182 36zM701 1331
q110 0 210 -43q96 -41 179 -127q80 -83 121 -186q40 -101 40 -221q0 -116 -40 -219q-38 -98 -121 -185q-79 -83 -179 -127q-98 -43 -210 -43q-111 0 -211 43q-96 41 -179 127q-81 84 -121 185t-40 219q0 120 40 221t121 186q82 85 179 127.5t211 42.5zM595 742h107
q60 1 99 43q29 31 29 92q0 63 -29 93q-42 43 -99 43h-107v-271zM445 360v743l114 52h151q121 0 197 -79q73 -77 73 -210q0 -122 -73 -198q-26 -27 -57 -44l164 -210l-119 -54h-24l-185 230h-91v-178l-114 -52h-36z" />
    <glyph glyph-name="macron" unicode="&#xaf;" horiz-adv-x="1214" 
d="M150 1328v10l81 172h833v-10l-81 -172h-833z" />
    <glyph glyph-name="degree" unicode="&#xb0;" horiz-adv-x="1130" 
d="M150 1130q0 165 124 287q116 113 291 113q173 0 291 -113q124 -120 124 -287q0 -165 -124 -287q-116 -113 -291 -113q-173 0 -291 113q-124 120 -124 287zM780 1130q0 115 -62.5 168.5t-152.5 53.5t-152.5 -53.5t-62.5 -168.5t62.5 -168.5t152.5 -53.5t152.5 53.5
t62.5 168.5z" />
    <glyph glyph-name="plusminus" unicode="&#xb1;" horiz-adv-x="1214" 
d="M150 243v10l81 172h833v-10l-81 -172h-833zM698 1383v-366h366v-10l-81 -172h-285v-285l-172 -81h-10v366h-366v10l81 172h285v285l172 81h10z" />
    <glyph glyph-name="uni00B2" unicode="&#xb2;" horiz-adv-x="862" 
d="M150 730v36l45 96l243 226q120 112 120 182q0 49 -27 78q-40 42 -97 42q-59 0 -98 -44q-30 -33 -30 -78q0 -40 29 -82l-113 -54h-25q-41 58 -41 136q0 113 70 186q73 76 206 76q131 0 205 -78t74 -184q0 -133 -151 -256l-174 -142h326v-36l-50 -104h-512z" />
    <glyph glyph-name="uni00B3" unicode="&#xb3;" horiz-adv-x="855" 
d="M150 990l118 65h32v-70q0 -56 30 -92q36 -43 98 -43q59 0 97 43q30 34 30 96q0 51 -23 78q-33 38 -108 39h-126l147 263h-251v36l50 105h439l-193 -298q86 -5 136 -46q79 -65 79 -174q0 -126 -75 -203.5t-203 -77.5t-203 76q-74 76 -74 203z" />
    <glyph glyph-name="acute" unicode="&#xb4;" horiz-adv-x="648" 
d="M312 1550h10l176 -84l-221 -316h-10l-117 55z" />
    <glyph glyph-name="uni00B5" unicode="&#xb5;" horiz-adv-x="1180" 
d="M200 1050l190 90h10v-760q0 -115 62.5 -168.5t152.5 -53.5t152.5 53.5t62.5 168.5v670l190 90h10v-760q0 -165 -124 -287q-116 -113 -291 -113q-139 0 -215 85v-425l-190 -90h-10v1500z" />
    <glyph glyph-name="paragraph" unicode="&#xb6;" horiz-adv-x="1180" 
d="M780 -40v644q-100 -50 -215 -50q-173 0 -291 96q-124 102 -124 297v190q0 194 124 297q116 96 291 96q169 0 291 -96q124 -98 124 -297v-1087l-66 -31v1118h-64v-1149l-60 -28h-10z" />
    <glyph glyph-name="periodcentered" unicode="&#xb7;" horiz-adv-x="600" 
d="M180 753.5q0 50.5 35 86.5t85 36t85 -36t35 -86.5t-35 -86.5t-85 -36t-85 36t-35 86.5z" />
    <glyph glyph-name="cedilla" unicode="&#xb8;" horiz-adv-x="609" 
d="M214 278q245 -129 245 -320q0 -137 -109 -244h-10l-190 90q134 87 134 208q0 101 -113 216z" />
    <glyph glyph-name="uni00B9" unicode="&#xb9;" horiz-adv-x="672" 
d="M386 1550h36v-786l-114 -54h-36v672l-122 -57v112z" />
    <glyph glyph-name="ordmasculine" unicode="&#xba;" horiz-adv-x="955" 
d="M250 1116v197q0 110 67 163.5t161 53.5q93 0 158 -53q69 -55 69 -164v-197q0 -106 -69 -164q-63 -53 -158 -53q-94 0 -161 53.5t-67 163.5zM390 1116q0 -48 24 -73q23 -24 65 -24q36 0 60 22q26 23 26 75v197q0 52 -26 75q-24 22 -60 22q-42 0 -65 -24q-24 -25 -24 -73
v-197zM150 664v10l81 172h574v-10l-81 -172h-574z" />
    <glyph glyph-name="guillemotright" unicode="&#xbb;" horiz-adv-x="1208" 
d="M384 304h-10l-174 82l242 409l-242 407l174 82h10l289 -492zM769 304h-10l-174 82l242 409l-242 407l174 82h10l289 -492z" />
    <glyph glyph-name="onequarter" unicode="&#xbc;" horiz-adv-x="1469" 
d="M879 336h165v204zM1044 -40v235h-366v36l44 93l331 426l105 50h36v-464h75v-36l-50 -105h-25v-181l-114 -54h-36zM386 1550h36v-786l-114 -54h-36v672l-122 -57v112zM352 -40l-141 68l709 1522h10l141 -68l-709 -1522h-10z" />
    <glyph glyph-name="onehalf" unicode="&#xbd;" horiz-adv-x="1536" 
d="M774 0v36l45 96l243 226q120 112 120 182q0 49 -27 78q-40 42 -97 42q-59 0 -98 -44q-30 -33 -30 -78q0 -40 29 -82l-113 -54h-25q-41 58 -41 136q0 113 70 186q73 76 206 76q131 0 205 -78t74 -184q0 -133 -151 -256l-174 -142h326v-36l-50 -104h-512zM386 1550h36v-786
l-114 -54h-36v672l-122 -57v112zM352 -40l-141 68l709 1522h10l141 -68l-709 -1522h-10z" />
    <glyph glyph-name="threequarters" unicode="&#xbe;" horiz-adv-x="1665" 
d="M150 990l118 65h32v-70q0 -56 30 -92q36 -43 98 -43q59 0 97 43q30 34 30 96q0 51 -23 78q-33 38 -108 39h-126l147 263h-251v36l50 105h439l-193 -298q86 -5 136 -46q79 -65 79 -174q0 -126 -75 -203.5t-203 -77.5t-203 76q-74 76 -74 203zM1075 336h165v204zM1240 -40
v235h-366v36l44 93l331 426l105 50h36v-464h75v-36l-50 -105h-25v-181l-114 -54h-36zM548 -40l-141 68l709 1522h10l141 -68l-709 -1522h-10z" />
    <glyph glyph-name="questiondown" unicode="&#xbf;" horiz-adv-x="1300" 
d="M775 1407.5q0 -50.5 -35 -86.5t-85 -36t-85 36t-35 86.5t35 86.5t85 36t85 -36t35 -86.5zM1089 677q61 -108 61 -237q0 -171 -135 -315q-137 -145 -370 -145q-236 0 -370 145q-125 135 -125 335q0 237 329 459q87 59 90 137l193 93h10q-1 -250 -175 -361
q-249 -158 -249 -329q0 -119 64 -196q85 -103 233 -103q140 0 233 103q72 80 72 200q0 67 -39 133l168 81h10z" />
    <glyph glyph-name="Agrave" unicode="&#xc0;" 
d="M596 1966h10l162 -345l-117 -55h-10l-221 316zM200 -40v1070q0 216 135 355q142 145 370 145q224 0 370 -145q135 -134 135 -355v-980l-190 -90h-10v704h-610v-614l-190 -90h-10zM400 846h610v184q0 134 -72 217q-89 103 -233 103t-233 -103q-72 -83 -72 -217v-184z" />
    <glyph glyph-name="Aacute" unicode="&#xc1;" 
d="M817 1966h10l176 -84l-221 -316h-10l-117 55zM200 -40v1070q0 216 135 355q142 145 370 145q224 0 370 -145q135 -134 135 -355v-980l-190 -90h-10v704h-610v-614l-190 -90h-10zM400 846h610v184q0 134 -72 217q-89 103 -233 103t-233 -103q-72 -83 -72 -217v-184z" />
    <glyph glyph-name="Acircumflex" unicode="&#xc2;" 
d="M434 1621l153 261l176 84h10l213 -345l-116 -55h-10l-150 208l-148 -208h-10zM200 -40v1070q0 216 135 355q142 145 370 145q224 0 370 -145q135 -134 135 -355v-980l-190 -90h-10v704h-610v-614l-190 -90h-10zM400 846h610v184q0 134 -72 217q-89 103 -233 103
t-233 -103q-72 -83 -72 -217v-184z" />
    <glyph glyph-name="Atilde" unicode="&#xc3;" 
d="M471 1638q0 286 141 286q64 0 137 -70q51 -49 75 -49q34 0 34 72l110 47h6q0 -286 -141 -286q-64 0 -137 70q-51 49 -75 49q-34 0 -34 -72l-110 -47h-6zM200 -40v1070q0 216 135 355q142 145 370 145q224 0 370 -145q135 -134 135 -355v-980l-190 -90h-10v704h-610v-614
l-190 -90h-10zM400 846h610v184q0 134 -72 217q-89 103 -233 103t-233 -103q-72 -83 -72 -217v-184z" />
    <glyph glyph-name="Adieresis" unicode="&#xc4;" 
d="M742 1802.5q0 50.5 35 86.5t85 36t85 -36t35 -86.5t-35 -86.5t-85 -36t-85 36t-35 86.5zM442 1802.5q0 50.5 35 86.5t85 36t85 -36t35 -86.5t-35 -86.5t-85 -36t-85 36t-35 86.5zM200 -40v1070q0 216 135 355q142 145 370 145q224 0 370 -145q135 -134 135 -355v-980
l-190 -90h-10v704h-610v-614l-190 -90h-10zM400 846h610v184q0 134 -72 217q-89 103 -233 103t-233 -103q-72 -83 -72 -217v-184z" />
    <glyph glyph-name="Aring" unicode="&#xc5;" 
d="M705 1588q-80 0 -135 49q-62 55 -62 140q0 83 62 140q53 49 135 49q80 0 135 -49q62 -55 62 -140t-62 -140q-55 -49 -135 -49zM705 1862q-34 0 -54 -21t-20 -64q0 -46 21 -65q22 -20 52 -20q31 0 53 22q20 19 20 63q0 45 -22 66q-20 19 -50 19zM200 -40v1070
q0 216 135 355q142 145 370 145q224 0 370 -145q135 -134 135 -355v-980l-190 -90h-10v704h-610v-614l-190 -90h-10zM400 846h610v184q0 134 -72 217q-89 103 -233 103t-233 -103q-72 -83 -72 -217v-184z" />
    <glyph glyph-name="AE" unicode="&#xc6;" horiz-adv-x="1967" 
d="M200 -40v1070q0 216 135 355q142 145 370 145q210 0 305 -120v50l106 50h634v-10l-81 -172h-459v-482h540v-10l-81 -172h-459v-482h707v-10l-81 -172h-826v664h-610v-614l-190 -90h-10zM400 846h610v184q0 134 -72 217q-89 103 -233 103t-233 -103q-72 -83 -72 -217v-184
z" />
    <glyph glyph-name="Ccedilla" unicode="&#xc7;" 
d="M1210 550v-70q0 -217 -135 -355q-119 -122 -299 -141q73 -86 73 -190q0 -137 -109 -244h-10l-190 90q134 87 134 208q0 65 -47 137q-175 21 -292 140q-135 137 -135 355v550q0 217 135 355q142 145 370 145q236 0 370.5 -145t134.5 -335l-190 -90h-10v70q0 134 -72 217
q-89 103 -233 103t-233 -103q-72 -83 -72 -217v-550q0 -134 72 -217q89 -103 233 -103t233 103q72 83 72 197l190 90h10z" />
    <glyph glyph-name="Egrave" unicode="&#xc8;" horiz-adv-x="1157" 
d="M506 1966h10l162 -345l-117 -55h-10l-221 316zM200 0v1460l106 50h634v-10l-81 -172h-459v-482h540v-10l-81 -172h-459v-482h707v-10l-81 -172h-826z" />
    <glyph glyph-name="Eacute" unicode="&#xc9;" horiz-adv-x="1157" 
d="M684 1966h10l176 -84l-221 -316h-10l-117 55zM200 0v1460l106 50h634v-10l-81 -172h-459v-482h540v-10l-81 -172h-459v-482h707v-10l-81 -172h-826z" />
    <glyph glyph-name="Ecircumflex" unicode="&#xca;" horiz-adv-x="1157" 
d="M313 1621l153 261l176 84h10l213 -345l-116 -55h-10l-150 208l-148 -208h-10zM200 0v1460l106 50h634v-10l-81 -172h-459v-482h540v-10l-81 -172h-459v-482h707v-10l-81 -172h-826z" />
    <glyph glyph-name="Edieresis" unicode="&#xcb;" horiz-adv-x="1157" 
d="M617 1802.5q0 50.5 35 86.5t85 36t85 -36t35 -86.5t-35 -86.5t-85 -36t-85 36t-35 86.5zM317 1802.5q0 50.5 35 86.5t85 36t85 -36t35 -86.5t-35 -86.5t-85 -36t-85 36t-35 86.5zM200 0v1460l106 50h634v-10l-81 -172h-459v-482h540v-10l-81 -172h-459v-482h707v-10
l-81 -172h-826z" />
    <glyph glyph-name="Igrave" unicode="&#xcc;" horiz-adv-x="600" 
d="M242 1966h10l162 -345l-117 -55h-10l-221 316zM200 -40v1500l190 90h10v-1500l-190 -90h-10z" />
    <glyph glyph-name="Iacute" unicode="&#xcd;" horiz-adv-x="600" 
d="M348 1966h10l176 -84l-221 -316h-10l-117 55zM200 -40v1500l190 90h10v-1500l-190 -90h-10z" />
    <glyph glyph-name="Icircumflex" unicode="&#xce;" horiz-adv-x="600" 
d="M200 -40v1500l190 90h10v-1500l-190 -90h-10zM24 1621l152 261l176 84h10l214 -345l-117 -55h-10l-150 208l-148 -208h-10z" />
    <glyph glyph-name="Idieresis" unicode="&#xcf;" horiz-adv-x="600" 
d="M200 -40v1500l190 90h10v-1500l-190 -90h-10zM330 1802.5q0 50.5 35 86.5t85 36t85 -36t35 -86.5t-35 -86.5t-85 -36t-85 36t-35 86.5zM30 1802.5q0 50.5 35 86.5t85 36t85 -36t35 -86.5t-35 -86.5t-85 -36t-85 36t-35 86.5z" />
    <glyph glyph-name="Eth" unicode="&#xd0;" horiz-adv-x="1390" 
d="M400 180h285q144 0 233 103q72 83 72 217v510q0 134 -72 217q-89 103 -233 103h-285v-484h415v-10l-81 -172h-334v-484zM200 0v664h-150v10l81 172h69v614l106 50h379q228 0 370 -145q135 -137 135 -355v-510q0 -217 -135 -355q-142 -145 -370 -145h-485z" />
    <glyph glyph-name="Ntilde" unicode="&#xd1;" 
d="M471 1638q0 286 141 286q64 0 137 -70q51 -49 75 -49q34 0 34 72l110 47h6q0 -286 -141 -286q-64 0 -137 70q-51 49 -75 49q-34 0 -34 -72l-110 -47h-6zM200 -40v1070q0 216 135 355q142 145 370 145q225 0 370 -145q135 -134 135 -355v-980l-190 -90h-10v1070
q0 134 -72 217q-89 103 -233 103t-233 -103q-72 -83 -72 -217v-980l-190 -90h-10z" />
    <glyph glyph-name="Ograve" unicode="&#xd2;" 
d="M596 1966h10l162 -345l-117 -55h-10l-221 316zM400 480q0 -134 72 -217q89 -103 233 -103t233 103q72 83 72 217v550q0 134 -72 217q-89 103 -233 103t-233 -103q-72 -83 -72 -217v-550zM200 480v550q0 217 135 355q142 145 370 145t370 -145q135 -137 135 -355v-550
q0 -217 -135 -355q-142 -145 -370 -145t-370 145q-135 138 -135 355z" />
    <glyph glyph-name="Oacute" unicode="&#xd3;" 
d="M817 1966h10l176 -84l-221 -316h-10l-117 55zM400 480q0 -134 72 -217q89 -103 233 -103t233 103q72 83 72 217v550q0 134 -72 217q-89 103 -233 103t-233 -103q-72 -83 -72 -217v-550zM200 480v550q0 217 135 355q142 145 370 145t370 -145q135 -137 135 -355v-550
q0 -217 -135 -355q-142 -145 -370 -145t-370 145q-135 138 -135 355z" />
    <glyph glyph-name="Ocircumflex" unicode="&#xd4;" 
d="M434 1621l153 261l176 84h10l213 -345l-116 -55h-10l-150 208l-148 -208h-10zM400 480q0 -134 72 -217q89 -103 233 -103t233 103q72 83 72 217v550q0 134 -72 217q-89 103 -233 103t-233 -103q-72 -83 -72 -217v-550zM200 480v550q0 217 135 355q142 145 370 145
t370 -145q135 -137 135 -355v-550q0 -217 -135 -355q-142 -145 -370 -145t-370 145q-135 138 -135 355z" />
    <glyph glyph-name="Otilde" unicode="&#xd5;" 
d="M471 1638q0 286 141 286q64 0 137 -70q51 -49 75 -49q34 0 34 72l110 47h6q0 -286 -141 -286q-64 0 -137 70q-51 49 -75 49q-34 0 -34 -72l-110 -47h-6zM400 480q0 -134 72 -217q89 -103 233 -103t233 103q72 83 72 217v550q0 134 -72 217q-89 103 -233 103t-233 -103
q-72 -83 -72 -217v-550zM200 480v550q0 217 135 355q142 145 370 145t370 -145q135 -137 135 -355v-550q0 -217 -135 -355q-142 -145 -370 -145t-370 145q-135 138 -135 355z" />
    <glyph glyph-name="Odieresis" unicode="&#xd6;" 
d="M742 1802.5q0 50.5 35 86.5t85 36t85 -36t35 -86.5t-35 -86.5t-85 -36t-85 36t-35 86.5zM442 1802.5q0 50.5 35 86.5t85 36t85 -36t35 -86.5t-35 -86.5t-85 -36t-85 36t-35 86.5zM400 480q0 -134 72 -217q89 -103 233 -103t233 103q72 83 72 217v550q0 134 -72 217
q-89 103 -233 103t-233 -103q-72 -83 -72 -217v-550zM200 480v550q0 217 135 355q142 145 370 145t370 -145q135 -137 135 -355v-550q0 -217 -135 -355q-142 -145 -370 -145t-370 145q-135 138 -135 355z" />
    <glyph glyph-name="multiply" unicode="&#xd7;" horiz-adv-x="1075" 
d="M150 1014l7 7l179 64l201 -201l202 201l179 -64l7 -7l-259 -259l259 -259l-7 -7l-179 -64l-202 201l-201 -201l-179 64l-7 7l259 259z" />
    <glyph glyph-name="Oslash" unicode="&#xd8;" 
d="M404 -40h-10l-104 50l51 109q-141 138 -141 361v550q0 217 135 355q142 145 370 145q150 0 263 -63l38 83h10l104 -51l-50 -109q140 -142 140 -360v-550q0 -217 -135 -355q-142 -145 -370 -145q-150 0 -263 63zM887 1294q-76 56 -182 56q-144 0 -233 -103
q-72 -83 -72 -217v-550q0 -92 34 -160zM976 1190l-453 -974q76 -56 182 -56q144 0 233 103q72 83 72 217v550q0 92 -34 160z" />
    <glyph glyph-name="Ugrave" unicode="&#xd9;" 
d="M596 1966h10l162 -345l-117 -55h-10l-221 316zM1210 1550v-1070q0 -216 -135 -355q-142 -145 -370 -145q-225 0 -370 145q-135 134 -135 355v980l190 90h10v-1070q0 -134 72 -217q89 -103 233 -103t233 103q72 83 72 217v980l190 90h10z" />
    <glyph glyph-name="Uacute" unicode="&#xda;" 
d="M817 1966h10l176 -84l-221 -316h-10l-117 55zM1210 1550v-1070q0 -216 -135 -355q-142 -145 -370 -145q-225 0 -370 145q-135 134 -135 355v980l190 90h10v-1070q0 -134 72 -217q89 -103 233 -103t233 103q72 83 72 217v980l190 90h10z" />
    <glyph glyph-name="Ucircumflex" unicode="&#xdb;" 
d="M434 1621l153 261l176 84h10l213 -345l-116 -55h-10l-150 208l-148 -208h-10zM1210 1550v-1070q0 -216 -135 -355q-142 -145 -370 -145q-225 0 -370 145q-135 134 -135 355v980l190 90h10v-1070q0 -134 72 -217q89 -103 233 -103t233 103q72 83 72 217v980l190 90h10z
" />
    <glyph glyph-name="Udieresis" unicode="&#xdc;" 
d="M742 1802.5q0 50.5 35 86.5t85 36t85 -36t35 -86.5t-35 -86.5t-85 -36t-85 36t-35 86.5zM442 1802.5q0 50.5 35 86.5t85 36t85 -36t35 -86.5t-35 -86.5t-85 -36t-85 36t-35 86.5zM1210 1550v-1070q0 -216 -135 -355q-142 -145 -370 -145q-225 0 -370 145
q-135 134 -135 355v980l190 90h10v-1070q0 -134 72 -217q89 -103 233 -103t233 103q72 83 72 217v980l190 90h10z" />
    <glyph glyph-name="Yacute" unicode="&#xdd;" horiz-adv-x="1310" 
d="M817 1966h10l176 -84l-221 -316h-10l-117 55zM555 -40v524q-157 26 -270 137q-135 133 -135 355v484l190 90h10v-574q0 -134 72 -217q89 -103 233 -103q152 0 233 103q72 92 72 217v484l190 90h10v-574q0 -216 -135 -355q-109 -112 -270 -137v-434l-190 -90h-10z" />
    <glyph glyph-name="Thorn" unicode="&#xde;" horiz-adv-x="1340" 
d="M200 -40v1500l190 90h10v-280h285q228 0 370 -145q135 -138 135 -355q0 -218 -135 -355q-143 -145 -370 -145h-285v-220l-190 -90h-10zM400 450h285q131 0 233 103q72 73 72 217q0 134 -72 217q-89 103 -233 103h-285v-640z" />
    <glyph glyph-name="germandbls" unicode="&#xdf;" horiz-adv-x="1269" 
d="M200 -40v1172q0 201 124 302q118 96 291 96t291 -96q124 -101 124 -287q0 -155 -139 -284q50 -20 93 -59q135 -122 135 -332q0 -204 -134 -347q-137 -145 -370 -145h-80v10l80 170q143 0 233 103q71 81 71 207q0 119 -58 187q-80 94 -246 94h-81v10l81 170q110 0 170 67
q45 50 45 149q0 103 -59 164t-156 61t-156 -61t-59 -164v-1097l-190 -90h-10z" />
    <glyph glyph-name="agrave" unicode="&#xe0;" horiz-adv-x="1060" 
d="M910 50l-190 -90h-10v105q-80 -85 -215 -85q-187 0 -291 113t-104 267q0 160 113 272q109 108 282 108q123 0 215 -85q0 177 -62 233q-60 54 -153 54h-243v10l80 168h163q175 0 291 -113q124 -121 124 -287v-670zM296 360q0 -89 54 -147q52 -56 146 -56q98 0 152 57
q60 64 60 144q0 90 -62 146t-149 56q-91 0 -146 -59t-55 -141zM431 1566h10l162 -345l-117 -55h-10l-221 316z" />
    <glyph glyph-name="aacute" unicode="&#xe1;" horiz-adv-x="1060" 
d="M910 50l-190 -90h-10v105q-80 -85 -215 -85q-187 0 -291 113t-104 267q0 160 113 272q109 108 282 108q123 0 215 -85q0 177 -62 233q-60 54 -153 54h-243v10l80 168h163q175 0 291 -113q124 -121 124 -287v-670zM296 360q0 -89 54 -147q52 -56 146 -56q98 0 152 57
q60 64 60 144q0 90 -62 146t-149 56q-91 0 -146 -59t-55 -141zM663 1566h10l176 -84l-221 -316h-10l-117 55z" />
    <glyph glyph-name="acircumflex" unicode="&#xe2;" horiz-adv-x="1060" 
d="M910 50l-190 -90h-10v105q-80 -85 -215 -85q-187 0 -291 113t-104 267q0 160 113 272q109 108 282 108q123 0 215 -85q0 177 -62 233q-60 54 -153 54h-243v10l80 168h163q175 0 291 -113q124 -121 124 -287v-670zM296 360q0 -89 54 -147q52 -56 146 -56q98 0 152 57
q60 64 60 144q0 90 -62 146t-149 56q-91 0 -146 -59t-55 -141zM274 1221l153 261l176 84h10l213 -345l-116 -55h-10l-150 208l-148 -208h-10z" />
    <glyph glyph-name="atilde" unicode="&#xe3;" horiz-adv-x="1060" 
d="M910 50l-190 -90h-10v105q-80 -85 -215 -85q-187 0 -291 113t-104 267q0 160 113 272q109 108 282 108q123 0 215 -85q0 177 -62 233q-60 54 -153 54h-243v10l80 168h163q175 0 291 -113q124 -121 124 -287v-670zM296 360q0 -89 54 -147q52 -56 146 -56q98 0 152 57
q60 64 60 144q0 90 -62 146t-149 56q-91 0 -146 -59t-55 -141zM322 1232q0 286 141 286q64 0 137 -70q51 -49 75 -49q34 0 34 72l110 47h6q0 -286 -141 -286q-64 0 -137 70q-51 49 -75 49q-34 0 -34 -72l-110 -47h-6z" />
    <glyph glyph-name="adieresis" unicode="&#xe4;" horiz-adv-x="1060" 
d="M910 50l-190 -90h-10v105q-80 -85 -215 -85q-187 0 -291 113t-104 267q0 160 113 272q109 108 282 108q123 0 215 -85q0 177 -62 233q-60 54 -153 54h-243v10l80 168h163q175 0 291 -113q124 -121 124 -287v-670zM296 360q0 -89 54 -147q52 -56 146 -56q98 0 152 57
q60 64 60 144q0 90 -62 146t-149 56q-91 0 -146 -59t-55 -141zM577 1407.5q0 50.5 35 86.5t85 36t85 -36t35 -86.5t-35 -86.5t-85 -36t-85 36t-35 86.5zM277 1407.5q0 50.5 35 86.5t85 36t85 -36t35 -86.5t-35 -86.5t-85 -36t-85 36t-35 86.5z" />
    <glyph glyph-name="aring" unicode="&#xe5;" horiz-adv-x="1060" 
d="M910 50l-190 -90h-10v105q-80 -85 -215 -85q-187 0 -291 113t-104 267q0 160 113 272q109 108 282 108q123 0 215 -85q0 177 -62 233q-60 54 -153 54h-243v10l80 168h163q175 0 291 -113q124 -121 124 -287v-670zM296 360q0 -89 54 -147q52 -56 146 -56q98 0 152 57
q60 64 60 144q0 90 -62 146t-149 56q-91 0 -146 -59t-55 -141zM550 1188q-80 0 -135 49q-62 55 -62 140q0 83 62 140q53 49 135 49q80 0 135 -49q62 -55 62 -140t-62 -140q-55 -49 -135 -49zM550 1462q-34 0 -54 -21t-20 -64q0 -46 21 -65q22 -20 52 -20q31 0 53 22
q20 19 20 63q0 45 -22 66q-20 19 -50 19z" />
    <glyph glyph-name="ae" unicode="&#xe6;" horiz-adv-x="1690" 
d="M1540 443v-63q0 -165 -124 -287q-116 -113 -291 -113q-137 0 -221 76l-184 -96h-10v105q-81 -85 -215 -85q-187 0 -291 113t-104 267q0 160 113 272q109 108 282 108q132 0 215 -85q0 177 -62 233q-60 54 -153 54h-243v10l80 168h163q159 0 275 -116q22 -22 40 -52
q18 29 40 51q125 117 275 117q170 0 291 -113q124 -116 124 -258v-2l-610 -478q15 -34 42 -57q63 -54 153 -54t152.5 54t62.5 141l190 90h10zM296 360q0 -89 54 -147q52 -56 146 -56q98 0 152 57q60 64 60 144q0 90 -62 146t-149 56q-91 0 -146 -59t-55 -141zM910 471
l418 339q-16 49 -50 78q-63 54 -153 54t-152.5 -53.5t-62.5 -168.5v-249z" />
    <glyph glyph-name="ccedilla" unicode="&#xe7;" horiz-adv-x="1130" 
d="M980 443v-63q0 -166 -124 -287q-92 -90 -222 -108q74 -86 74 -191q0 -137 -109 -244h-10l-190 90q134 87 134 208q0 66 -49 139q-121 20 -210 106q-124 120 -124 287v340q0 166 124 287q116 113 291 113q171 0 291 -113q124 -117 124 -258v-2l-190 -90h-10v63
q0 115 -62.5 168.5t-152.5 53.5t-152.5 -53.5t-62.5 -168.5v-340q0 -115 62.5 -168.5t152.5 -53.5t152.5 54t62.5 141l190 90h10z" />
    <glyph glyph-name="egrave" unicode="&#xe8;" horiz-adv-x="1130" 
d="M451 1566h10l162 -345l-117 -55h-10l-221 316zM980 443v-63q0 -165 -124 -287q-116 -113 -291 -113q-173 0 -291 113q-124 120 -124 287v340q0 165 124 287q116 113 291 113q170 0 291 -113q124 -116 124 -258v-2l-610 -478q15 -34 42 -57q63 -54 153 -54t152.5 54
t62.5 141l190 90h10zM350 471l418 339q-16 49 -50 78q-63 54 -153 54t-152.5 -53.5t-62.5 -168.5v-249z" />
    <glyph glyph-name="eacute" unicode="&#xe9;" horiz-adv-x="1130" 
d="M683 1566h10l176 -84l-221 -316h-10l-117 55zM980 443v-63q0 -165 -124 -287q-116 -113 -291 -113q-173 0 -291 113q-124 120 -124 287v340q0 165 124 287q116 113 291 113q170 0 291 -113q124 -116 124 -258v-2l-610 -478q15 -34 42 -57q63 -54 153 -54t152.5 54
t62.5 141l190 90h10zM350 471l418 339q-16 49 -50 78q-63 54 -153 54t-152.5 -53.5t-62.5 -168.5v-249z" />
    <glyph glyph-name="ecircumflex" unicode="&#xea;" horiz-adv-x="1130" 
d="M294 1221l153 261l176 84h10l213 -345l-116 -55h-10l-150 208l-148 -208h-10zM980 443v-63q0 -165 -124 -287q-116 -113 -291 -113q-173 0 -291 113q-124 120 -124 287v340q0 165 124 287q116 113 291 113q170 0 291 -113q124 -116 124 -258v-2l-610 -478q15 -34 42 -57
q63 -54 153 -54t152.5 54t62.5 141l190 90h10zM350 471l418 339q-16 49 -50 78q-63 54 -153 54t-152.5 -53.5t-62.5 -168.5v-249z" />
    <glyph glyph-name="edieresis" unicode="&#xeb;" horiz-adv-x="1130" 
d="M597 1407.5q0 50.5 35 86.5t85 36t85 -36t35 -86.5t-35 -86.5t-85 -36t-85 36t-35 86.5zM297 1407.5q0 50.5 35 86.5t85 36t85 -36t35 -86.5t-35 -86.5t-85 -36t-85 36t-35 86.5zM980 443v-63q0 -165 -124 -287q-116 -113 -291 -113q-173 0 -291 113q-124 120 -124 287
v340q0 165 124 287q116 113 291 113q170 0 291 -113q124 -116 124 -258v-2l-610 -478q15 -34 42 -57q63 -54 153 -54t152.5 54t62.5 141l190 90h10zM350 471l418 339q-16 49 -50 78q-63 54 -153 54t-152.5 -53.5t-62.5 -168.5v-249z" />
    <glyph glyph-name="igrave" unicode="&#xec;" horiz-adv-x="600" 
d="M200 -40v1090l190 90h10v-1090l-190 -90h-10zM242 1566h10l162 -345l-117 -55h-10l-221 316z" />
    <glyph glyph-name="iacute" unicode="&#xed;" horiz-adv-x="600" 
d="M348 1566h10l176 -84l-221 -316h-10l-117 55zM200 -40v1090l190 90h10v-1090l-190 -90h-10z" />
    <glyph glyph-name="icircumflex" unicode="&#xee;" horiz-adv-x="600" 
d="M24 1221l153 261l176 84h10l213 -345l-116 -55h-10l-150 208l-148 -208h-10zM200 -40v1090l190 90h10v-1090l-190 -90h-10z" />
    <glyph glyph-name="idieresis" unicode="&#xef;" horiz-adv-x="600" 
d="M200 -40v1090l190 90h10v-1090l-190 -90h-10zM330 1407.5q0 50.5 35 86.5t85 36t85 -36t35 -86.5t-35 -86.5t-85 -36t-85 36t-35 86.5zM30 1407.5q0 50.5 35 86.5t85 36t85 -36t35 -86.5t-35 -86.5t-85 -36t-85 36t-35 86.5z" />
    <glyph glyph-name="eth" unicode="&#xf0;" horiz-adv-x="1180" 
d="M350 380q0 -114 62 -168q63 -54 153 -54q85 0 153 54q62 50 62 168v138q0 114 -62 168q-63 54 -153 54q-85 0 -153 -54q-62 -50 -62 -168v-138zM150 380v138q0 165 124 287q116 113 291 113q123 0 215 -54v186q0 41 -7 78l-125 -94h-10l-157 68l227 170q-100 82 -233 98
v180q234 0 390 -161l89 67h10l157 -68l-178 -133q37 -92 37 -205v-670q0 -165 -124 -287q-116 -113 -291 -113q-173 0 -291 113q-124 120 -124 287z" />
    <glyph glyph-name="ntilde" unicode="&#xf1;" horiz-adv-x="1130" 
d="M342 1232q0 286 141 286q64 0 137 -70q51 -49 75 -49q34 0 34 72l110 47h6q0 -286 -141 -286q-64 0 -137 70q-51 49 -75 49q-34 0 -34 -72l-110 -47h-6zM150 -40v760q0 165 124 287q116 113 291 113q173 0 291 -113q124 -120 124 -287v-670l-190 -90h-10v760
q0 115 -62.5 168.5t-152.5 53.5t-152.5 -53.5t-62.5 -168.5v-670l-190 -90h-10z" />
    <glyph glyph-name="ograve" unicode="&#xf2;" horiz-adv-x="1130" 
d="M451 1566h10l162 -345l-117 -55h-10l-221 316zM150 380v340q0 165 124 287q116 113 291 113q173 0 291 -113q124 -120 124 -287v-340q0 -165 -124 -287q-116 -113 -291 -113q-173 0 -291 113q-124 120 -124 287zM350 380q0 -115 62.5 -168.5t152.5 -53.5t152.5 53.5
t62.5 168.5v340q0 115 -62.5 168.5t-152.5 53.5t-152.5 -53.5t-62.5 -168.5v-340z" />
    <glyph glyph-name="oacute" unicode="&#xf3;" horiz-adv-x="1130" 
d="M683 1566h10l176 -84l-221 -316h-10l-117 55zM150 380v340q0 165 124 287q116 113 291 113q173 0 291 -113q124 -120 124 -287v-340q0 -165 -124 -287q-116 -113 -291 -113q-173 0 -291 113q-124 120 -124 287zM350 380q0 -115 62.5 -168.5t152.5 -53.5t152.5 53.5
t62.5 168.5v340q0 115 -62.5 168.5t-152.5 53.5t-152.5 -53.5t-62.5 -168.5v-340z" />
    <glyph glyph-name="ocircumflex" unicode="&#xf4;" horiz-adv-x="1130" 
d="M294 1221l153 261l176 84h10l213 -345l-116 -55h-10l-150 208l-148 -208h-10zM150 380v340q0 165 124 287q116 113 291 113q173 0 291 -113q124 -120 124 -287v-340q0 -165 -124 -287q-116 -113 -291 -113q-173 0 -291 113q-124 120 -124 287zM350 380
q0 -115 62.5 -168.5t152.5 -53.5t152.5 53.5t62.5 168.5v340q0 115 -62.5 168.5t-152.5 53.5t-152.5 -53.5t-62.5 -168.5v-340z" />
    <glyph glyph-name="otilde" unicode="&#xf5;" horiz-adv-x="1130" 
d="M342 1232q0 286 141 286q64 0 137 -70q51 -49 75 -49q34 0 34 72l110 47h6q0 -286 -141 -286q-64 0 -137 70q-51 49 -75 49q-34 0 -34 -72l-110 -47h-6zM150 380v340q0 165 124 287q116 113 291 113q173 0 291 -113q124 -120 124 -287v-340q0 -165 -124 -287
q-116 -113 -291 -113q-173 0 -291 113q-124 120 -124 287zM350 380q0 -115 62.5 -168.5t152.5 -53.5t152.5 53.5t62.5 168.5v340q0 115 -62.5 168.5t-152.5 53.5t-152.5 -53.5t-62.5 -168.5v-340z" />
    <glyph glyph-name="odieresis" unicode="&#xf6;" horiz-adv-x="1130" 
d="M597 1407.5q0 50.5 35 86.5t85 36t85 -36t35 -86.5t-35 -86.5t-85 -36t-85 36t-35 86.5zM297 1407.5q0 50.5 35 86.5t85 36t85 -36t35 -86.5t-35 -86.5t-85 -36t-85 36t-35 86.5zM150 380v340q0 165 124 287q116 113 291 113q173 0 291 -113q124 -120 124 -287v-340
q0 -165 -124 -287q-116 -113 -291 -113q-173 0 -291 113q-124 120 -124 287zM350 380q0 -115 62.5 -168.5t152.5 -53.5t152.5 53.5t62.5 168.5v340q0 115 -62.5 168.5t-152.5 53.5t-152.5 -53.5t-62.5 -168.5v-340z" />
    <glyph glyph-name="divide" unicode="&#xf7;" horiz-adv-x="1214" 
d="M488 1087.5q0 50.5 35 86.5t85 36t85 -36t35 -86.5t-35 -86.5t-85 -36t-85 36t-35 86.5zM488 427.5q0 50.5 35 86.5t85 36t85 -36t35 -86.5t-35 -86.5t-85 -36t-85 36t-35 86.5zM150 664v10l81 172h833v-10l-81 -172h-833z" />
    <glyph glyph-name="oslash" unicode="&#xf8;" horiz-adv-x="1130" 
d="M359 -40h-10l-104 50l36 77q-131 120 -131 293v340q0 165 124 287q116 113 291 113q98 0 179 -36l26 56h10l105 -51l-35 -76q130 -126 130 -293v-340q0 -165 -124 -287q-116 -113 -291 -113q-99 0 -180 37zM668 921q-46 21 -103 21q-90 0 -152.5 -53.5t-62.5 -168.5v-340
q0 -62 18 -105zM762 825l-301 -645q47 -22 104 -22q90 0 152.5 53.5t62.5 168.5v340q0 61 -18 105z" />
    <glyph glyph-name="ugrave" unicode="&#xf9;" horiz-adv-x="1130" 
d="M451 1566h10l162 -345l-117 -55h-10l-221 316zM980 1140v-760q0 -165 -124 -287q-116 -113 -291 -113q-173 0 -291 113q-124 120 -124 287v670l190 90h10v-760q0 -115 62.5 -168.5t152.5 -53.5t152.5 53.5t62.5 168.5v670l190 90h10z" />
    <glyph glyph-name="uacute" unicode="&#xfa;" horiz-adv-x="1130" 
d="M683 1566h10l176 -84l-221 -316h-10l-117 55zM980 1140v-760q0 -165 -124 -287q-116 -113 -291 -113q-173 0 -291 113q-124 120 -124 287v670l190 90h10v-760q0 -115 62.5 -168.5t152.5 -53.5t152.5 53.5t62.5 168.5v670l190 90h10z" />
    <glyph glyph-name="ucircumflex" unicode="&#xfb;" horiz-adv-x="1130" 
d="M294 1221l153 261l176 84h10l213 -345l-116 -55h-10l-150 208l-148 -208h-10zM980 1140v-760q0 -165 -124 -287q-116 -113 -291 -113q-173 0 -291 113q-124 120 -124 287v670l190 90h10v-760q0 -115 62.5 -168.5t152.5 -53.5t152.5 53.5t62.5 168.5v670l190 90h10z" />
    <glyph glyph-name="udieresis" unicode="&#xfc;" horiz-adv-x="1130" 
d="M597 1407.5q0 50.5 35 86.5t85 36t85 -36t35 -86.5t-35 -86.5t-85 -36t-85 36t-35 86.5zM297 1407.5q0 50.5 35 86.5t85 36t85 -36t35 -86.5t-35 -86.5t-85 -36t-85 36t-35 86.5zM980 1140v-760q0 -165 -124 -287q-116 -113 -291 -113q-173 0 -291 113q-124 120 -124 287
v670l190 90h10v-760q0 -115 62.5 -168.5t152.5 -53.5t152.5 53.5t62.5 168.5v670l190 90h10z" />
    <glyph glyph-name="yacute" unicode="&#xfd;" horiz-adv-x="1180" 
d="M150 380v670l190 90h10v-760q0 -115 62.5 -168.5t152.5 -53.5t152.5 53.5t62.5 168.5v670l190 90h10v-1170q0 -165 -124 -287q-116 -113 -291 -113h-308v10l80 168h228q90 0 153 54q62 54 62 168v95q-74 -85 -215 -85q-171 0 -291 113q-124 118 -124 287zM683 1566h10
l176 -84l-221 -316h-10l-117 55z" />
    <glyph glyph-name="thorn" unicode="&#xfe;" horiz-adv-x="1180" 
d="M200 1460l190 90h10v-515q84 85 215 85q173 0 291 -113q124 -120 124 -287v-340q0 -165 -124 -287q-116 -113 -291 -113q-121 0 -215 85v-425l-190 -90h-10v1910zM830 720q0 115 -62.5 168.5t-152.5 53.5t-152.5 -53.5t-62.5 -168.5v-340q0 -115 62.5 -168.5t152.5 -53.5
t152.5 53.5t62.5 168.5v340z" />
    <glyph glyph-name="ydieresis" unicode="&#xff;" horiz-adv-x="1180" 
d="M150 380v670l190 90h10v-760q0 -115 62.5 -168.5t152.5 -53.5t152.5 53.5t62.5 168.5v670l190 90h10v-1170q0 -165 -124 -287q-116 -113 -291 -113h-308v10l80 168h228q90 0 153 54q62 54 62 168v95q-74 -85 -215 -85q-171 0 -291 113q-124 118 -124 287zM597 1407.5
q0 50.5 35 86.5t85 36t85 -36t35 -86.5t-35 -86.5t-85 -36t-85 36t-35 86.5zM297 1407.5q0 50.5 35 86.5t85 36t85 -36t35 -86.5t-35 -86.5t-85 -36t-85 36t-35 86.5z" />
    <glyph glyph-name="Amacron" unicode="&#x100;" 
d="M467 1638v10l81 172h458v-10l-81 -172h-458zM200 -40v1070q0 216 135 355q142 145 370 145q224 0 370 -145q135 -134 135 -355v-980l-190 -90h-10v704h-610v-614l-190 -90h-10zM400 846h610v184q0 134 -72 217q-89 103 -233 103t-233 -103q-72 -83 -72 -217v-184z" />
    <glyph glyph-name="amacron" unicode="&#x101;" horiz-adv-x="1060" 
d="M910 50l-190 -90h-10v105q-80 -85 -215 -85q-187 0 -291 113t-104 267q0 160 113 272q109 108 282 108q123 0 215 -85q0 177 -62 233q-60 54 -153 54h-243v10l80 168h163q175 0 291 -113q124 -121 124 -287v-670zM296 360q0 -89 54 -147q52 -56 146 -56q98 0 152 57
q60 64 60 144q0 90 -62 146t-149 56q-91 0 -146 -59t-55 -141zM300 1232v10l81 172h458v-10l-81 -172h-458z" />
    <glyph glyph-name="Abreve" unicode="&#x102;" 
d="M468 1788v10l74 149q72 -134 172 -134t172 134l76 -149v-10q-102 -150 -250 -150q-154 0 -244 150zM200 -40v1070q0 216 135 355q142 145 370 145q224 0 370 -145q135 -134 135 -355v-980l-190 -90h-10v704h-610v-614l-190 -90h-10zM400 846h610v184q0 134 -72 217
q-89 103 -233 103t-233 -103q-72 -83 -72 -217v-184z" />
    <glyph glyph-name="abreve" unicode="&#x103;" horiz-adv-x="1060" 
d="M910 50l-190 -90h-10v105q-80 -85 -215 -85q-187 0 -291 113t-104 267q0 160 113 272q109 108 282 108q123 0 215 -85q0 177 -62 233q-60 54 -153 54h-243v10l80 168h163q175 0 291 -113q124 -121 124 -287v-670zM296 360q0 -89 54 -147q52 -56 146 -56q98 0 152 57
q60 64 60 144q0 90 -62 146t-149 56q-91 0 -146 -59t-55 -141zM300 1382v10l74 149q72 -134 172 -134t172 134l76 -149v-10q-102 -150 -250 -150q-154 0 -244 150z" />
    <glyph glyph-name="Aogonek" unicode="&#x104;" 
d="M400 846h610v184q0 134 -72 217q-89 103 -233 103t-233 -103q-72 -83 -72 -217v-184zM200 -40v1070q0 216 135 355q142 145 370 145q224 0 370 -145q135 -134 135 -355v-980l-179 -85q-35 -60 -35 -117q0 -121 134 -208l-190 -90h-10q-109 107 -109 244q0 168 189 288
v582h-610v-614l-190 -90h-10z" />
    <glyph glyph-name="aogonek" unicode="&#x105;" horiz-adv-x="1060" 
d="M296 360q0 -89 54 -147q52 -56 146 -56q98 0 152 57q60 64 60 144q0 90 -62 146t-149 56q-91 0 -146 -59t-55 -141zM910 50l-29 -14q-87 -99 -87 -188q0 -121 134 -208l-190 -90h-10q-109 107 -109 244q0 116 91 210v61q-80 -85 -215 -85q-187 0 -291 113t-104 267
q0 160 113 272q109 108 282 108q123 0 215 -85q0 177 -62 233q-60 54 -153 54h-243v10l80 168h163q175 0 291 -113q124 -121 124 -287v-670z" />
    <glyph glyph-name="Cacute" unicode="&#x106;" 
d="M817 1966h10l176 -84l-221 -316h-10l-117 55zM1210 550v-70q0 -217 -135 -355q-142 -145 -370 -145t-370 145q-135 138 -135 355v550q0 217 135 355q142 145 370 145q236 0 370.5 -145t134.5 -335l-190 -90h-10v70q0 134 -72 217q-89 103 -233 103t-233 -103
q-72 -83 -72 -217v-550q0 -134 72 -217q89 -103 233 -103t233 103q72 83 72 197l190 90h10z" />
    <glyph glyph-name="cacute" unicode="&#x107;" horiz-adv-x="1130" 
d="M683 1566h10l176 -84l-221 -316h-10l-117 55zM980 443v-63q0 -165 -124 -287q-116 -113 -291 -113q-173 0 -291 113q-124 120 -124 287v340q0 166 124 287q116 113 291 113q171 0 291 -113q124 -117 124 -258v-2l-190 -90h-10v63q0 115 -62.5 168.5t-152.5 53.5
t-152.5 -53.5t-62.5 -168.5v-340q0 -115 62.5 -168.5t152.5 -53.5t152.5 54t62.5 141l190 90h10z" />
    <glyph glyph-name="Ccircumflex" unicode="&#x108;" 
d="M434 1621l153 261l176 84h10l213 -345l-116 -55h-10l-150 208l-148 -208h-10zM1210 550v-70q0 -217 -135 -355q-142 -145 -370 -145t-370 145q-135 138 -135 355v550q0 217 135 355q142 145 370 145q236 0 370.5 -145t134.5 -335l-190 -90h-10v70q0 134 -72 217
q-89 103 -233 103t-233 -103q-72 -83 -72 -217v-550q0 -134 72 -217q89 -103 233 -103t233 103q72 83 72 197l190 90h10z" />
    <glyph glyph-name="ccircumflex" unicode="&#x109;" horiz-adv-x="1130" 
d="M294 1221l153 261l176 84h10l213 -345l-116 -55h-10l-150 208l-148 -208h-10zM980 443v-63q0 -165 -124 -287q-116 -113 -291 -113q-173 0 -291 113q-124 120 -124 287v340q0 166 124 287q116 113 291 113q171 0 291 -113q124 -117 124 -258v-2l-190 -90h-10v63
q0 115 -62.5 168.5t-152.5 53.5t-152.5 -53.5t-62.5 -168.5v-340q0 -115 62.5 -168.5t152.5 -53.5t152.5 54t62.5 141l190 90h10z" />
    <glyph glyph-name="Cdotaccent" unicode="&#x10a;" 
d="M585 1802.5q0 50.5 35 86.5t85 36t85 -36t35 -86.5t-35 -86.5t-85 -36t-85 36t-35 86.5zM1210 550v-70q0 -217 -135 -355q-142 -145 -370 -145t-370 145q-135 138 -135 355v550q0 217 135 355q142 145 370 145q236 0 370.5 -145t134.5 -335l-190 -90h-10v70
q0 134 -72 217q-89 103 -233 103t-233 -103q-72 -83 -72 -217v-550q0 -134 72 -217q89 -103 233 -103t233 103q72 83 72 197l190 90h10z" />
    <glyph glyph-name="cdotaccent" unicode="&#x10b;" horiz-adv-x="1130" 
d="M445 1407.5q0 50.5 35 86.5t85 36t85 -36t35 -86.5t-35 -86.5t-85 -36t-85 36t-35 86.5zM980 443v-63q0 -165 -124 -287q-116 -113 -291 -113q-173 0 -291 113q-124 120 -124 287v340q0 166 124 287q116 113 291 113q171 0 291 -113q124 -117 124 -258v-2l-190 -90h-10
v63q0 115 -62.5 168.5t-152.5 53.5t-152.5 -53.5t-62.5 -168.5v-340q0 -115 62.5 -168.5t152.5 -53.5t152.5 54t62.5 141l190 90h10z" />
    <glyph glyph-name="Ccaron" unicode="&#x10c;" 
d="M647 1566l-213 345l116 55h10l150 -208l148 208h10l118 -55l-153 -261l-176 -84h-10zM1210 550v-70q0 -217 -135 -355q-142 -145 -370 -145t-370 145q-135 138 -135 355v550q0 217 135 355q142 145 370 145q236 0 370.5 -145t134.5 -335l-190 -90h-10v70q0 134 -72 217
q-89 103 -233 103t-233 -103q-72 -83 -72 -217v-550q0 -134 72 -217q89 -103 233 -103t233 103q72 83 72 197l190 90h10z" />
    <glyph glyph-name="ccaron" unicode="&#x10d;" horiz-adv-x="1130" 
d="M480 1166l-213 345l116 55h10l150 -208l148 208h10l118 -55l-153 -261l-176 -84h-10zM980 443v-63q0 -165 -124 -287q-116 -113 -291 -113q-173 0 -291 113q-124 120 -124 287v340q0 166 124 287q116 113 291 113q171 0 291 -113q124 -117 124 -258v-2l-190 -90h-10v63
q0 115 -62.5 168.5t-152.5 53.5t-152.5 -53.5t-62.5 -168.5v-340q0 -115 62.5 -168.5t152.5 -53.5t152.5 54t62.5 141l190 90h10z" />
    <glyph glyph-name="Dcaron" unicode="&#x10e;" horiz-adv-x="1390" 
d="M578 1566l-213 345l116 55h10l150 -208l148 208h10l118 -55l-153 -261l-176 -84h-10zM200 0v1460l106 50h379q228 0 370 -145q135 -137 135 -355v-510q0 -217 -135 -355q-142 -145 -370 -145h-485zM400 180h285q144 0 233 103q72 83 72 217v510q0 134 -72 217
q-89 103 -233 103h-285v-1150z" />
    <glyph glyph-name="dcaron" unicode="&#x10f;" horiz-adv-x="1210" 
d="M350 380q0 -115 62.5 -168.5t152.5 -53.5t152.5 53.5t62.5 168.5v340q0 115 -62.5 168.5t-152.5 53.5t-152.5 -53.5t-62.5 -168.5v-340zM150 380v340q0 165 124 287q116 113 291 113q132 0 215 -85v425l190 90h10v-1170q0 -165 -124 -287q-116 -113 -291 -113
q-173 0 -291 113q-124 120 -124 287zM1174 1566h10l176 -84l-221 -316h-10l-117 55z" />
    <glyph glyph-name="Dcroat" unicode="&#x110;" horiz-adv-x="1390" 
d="M400 180h285q144 0 233 103q72 83 72 217v510q0 134 -72 217q-89 103 -233 103h-285v-484h415v-10l-81 -172h-334v-484zM200 0v664h-150v10l81 172h69v614l106 50h379q228 0 370 -145q135 -137 135 -355v-510q0 -217 -135 -355q-142 -145 -370 -145h-485z" />
    <glyph glyph-name="dcroat" unicode="&#x111;" horiz-adv-x="1180" 
d="M150 380v340q0 165 124 287q116 113 291 113q131 0 215 -85v183h-262v10l81 172h181v60l190 90h10v-150h150v-10l-81 -172h-69v-838q0 -165 -124 -287q-116 -113 -291 -113q-173 0 -291 113q-124 120 -124 287zM350 380q0 -115 62.5 -168.5t152.5 -53.5t152.5 53.5
t62.5 168.5v340q0 115 -62.5 168.5t-152.5 53.5t-152.5 -53.5t-62.5 -168.5v-340z" />
    <glyph glyph-name="Emacron" unicode="&#x112;" horiz-adv-x="1157" 
d="M346 1638v10l81 172h458v-10l-81 -172h-458zM200 0v1460l106 50h634v-10l-81 -172h-459v-482h540v-10l-81 -172h-459v-482h707v-10l-81 -172h-826z" />
    <glyph glyph-name="emacron" unicode="&#x113;" horiz-adv-x="1130" 
d="M320 1232v10l81 172h458v-10l-81 -172h-458zM980 443v-63q0 -165 -124 -287q-116 -113 -291 -113q-173 0 -291 113q-124 120 -124 287v340q0 165 124 287q116 113 291 113q170 0 291 -113q124 -116 124 -258v-2l-610 -478q15 -34 42 -57q63 -54 153 -54t152.5 54
t62.5 141l190 90h10zM350 471l418 339q-16 49 -50 78q-63 54 -153 54t-152.5 -53.5t-62.5 -168.5v-249z" />
    <glyph glyph-name="Ebreve" unicode="&#x114;" horiz-adv-x="1157" 
d="M338 1788v10l74 149q72 -134 172 -134t172 134l76 -149v-10q-102 -150 -250 -150q-154 0 -244 150zM200 0v1460l106 50h634v-10l-81 -172h-459v-482h540v-10l-81 -172h-459v-482h707v-10l-81 -172h-826z" />
    <glyph glyph-name="ebreve" unicode="&#x115;" horiz-adv-x="1130" 
d="M320 1382v10l74 149q72 -134 172 -134t172 134l76 -149v-10q-102 -150 -250 -150q-154 0 -244 150zM980 443v-63q0 -165 -124 -287q-116 -113 -291 -113q-173 0 -291 113q-124 120 -124 287v340q0 165 124 287q116 113 291 113q170 0 291 -113q124 -116 124 -258v-2
l-610 -478q15 -34 42 -57q63 -54 153 -54t152.5 54t62.5 141l190 90h10zM350 471l418 339q-16 49 -50 78q-63 54 -153 54t-152.5 -53.5t-62.5 -168.5v-249z" />
    <glyph glyph-name="Edotaccent" unicode="&#x116;" horiz-adv-x="1157" 
d="M466 1802.5q0 50.5 35 86.5t85 36t85 -36t35 -86.5t-35 -86.5t-85 -36t-85 36t-35 86.5zM200 0v1460l106 50h634v-10l-81 -172h-459v-482h540v-10l-81 -172h-459v-482h707v-10l-81 -172h-826z" />
    <glyph glyph-name="edotaccent" unicode="&#x117;" horiz-adv-x="1130" 
d="M445 1407.5q0 50.5 35 86.5t85 36t85 -36t35 -86.5t-35 -86.5t-85 -36t-85 36t-35 86.5zM980 443v-63q0 -165 -124 -287q-116 -113 -291 -113q-173 0 -291 113q-124 120 -124 287v340q0 165 124 287q116 113 291 113q170 0 291 -113q124 -116 124 -258v-2l-610 -478
q15 -34 42 -57q63 -54 153 -54t152.5 54t62.5 141l190 90h10zM350 471l418 339q-16 49 -50 78q-63 54 -153 54t-152.5 -53.5t-62.5 -168.5v-249z" />
    <glyph glyph-name="Eogonek" unicode="&#x118;" horiz-adv-x="1157" 
d="M200 0v1460l106 50h634v-10l-81 -172h-459v-482h540v-10l-81 -172h-459v-482h707v-10l-81 -172h-31q-58 -80 -58 -152q0 -121 134 -208l-190 -90h-10q-109 107 -109 244q0 114 87 206h-649z" />
    <glyph glyph-name="eogonek" unicode="&#x119;" horiz-adv-x="1130" 
d="M350 471l418 339q-16 49 -50 78q-63 54 -153 54t-152.5 -53.5t-62.5 -168.5v-249zM980 443v-63q0 -170 -124 -287q-18 -17 -37 -32q-110 -113 -110 -213q0 -121 134 -208l-190 -90h-10q-109 107 -109 244q0 103 71 188q-20 -2 -40 -2q-173 0 -291 113q-124 120 -124 287
v340q0 165 124 287q116 113 291 113q170 0 291 -113q124 -116 124 -258v-2l-610 -478q15 -34 42 -57q63 -54 153 -54t152.5 54t62.5 141l190 90h10z" />
    <glyph glyph-name="Ecaron" unicode="&#x11a;" horiz-adv-x="1157" 
d="M533 1566l-213 345l116 55h10l150 -208l148 208h10l118 -55l-153 -261l-176 -84h-10zM200 0v1460l106 50h634v-10l-81 -172h-459v-482h540v-10l-81 -172h-459v-482h707v-10l-81 -172h-826z" />
    <glyph glyph-name="ecaron" unicode="&#x11b;" horiz-adv-x="1130" 
d="M480 1166l-213 345l116 55h10l150 -208l148 208h10l118 -55l-153 -261l-176 -84h-10zM980 443v-63q0 -165 -124 -287q-116 -113 -291 -113q-173 0 -291 113q-124 120 -124 287v340q0 165 124 287q116 113 291 113q170 0 291 -113q124 -116 124 -258v-2l-610 -478
q15 -34 42 -57q63 -54 153 -54t152.5 54t62.5 141l190 90h10zM350 471l418 339q-16 49 -50 78q-63 54 -153 54t-152.5 -53.5t-62.5 -168.5v-249z" />
    <glyph glyph-name="Gcircumflex" unicode="&#x11c;" 
d="M434 1621l153 261l176 84h10l213 -345l-116 -55h-10l-150 208l-148 -208h-10zM1210 846v-366q0 -217 -135 -355q-142 -145 -370 -145t-370 145q-135 138 -135 355v550q0 217 135 355q142 145 370 145q236 0 370.5 -145t134.5 -335l-190 -90h-10v70q0 134 -72 217
q-89 103 -233 103t-233 -103q-72 -83 -72 -217v-550q0 -134 72 -217q89 -103 233 -103t233 103q72 83 72 197v204h-348v10l81 172h467z" />
    <glyph glyph-name="gcircumflex" unicode="&#x11d;" horiz-adv-x="1160" 
d="M350 380q0 -115 62.5 -168.5t152.5 -53.5t152.5 53.5t62.5 168.5v340q0 115 -62.5 168.5t-152.5 53.5t-152.5 -53.5t-62.5 -168.5v-340zM150 380v340q0 165 124 287q116 113 291 113t291 -113q124 -121 124 -287v-750q0 -165 -124 -287q-116 -113 -291 -113h-308v10
l80 168h228q90 0 152.5 53.5t62.5 168.5v95q-76 -85 -215 -85q-173 0 -291 113q-124 120 -124 287zM294 1221l153 261l176 84h10l213 -345l-116 -55h-10l-150 208l-148 -208h-10z" />
    <glyph glyph-name="Gbreve" unicode="&#x11e;" 
d="M468 1788v10l74 149q72 -134 172 -134t172 134l76 -149v-10q-102 -150 -250 -150q-154 0 -244 150zM1210 846v-366q0 -217 -135 -355q-142 -145 -370 -145t-370 145q-135 138 -135 355v550q0 217 135 355q142 145 370 145q236 0 370.5 -145t134.5 -335l-190 -90h-10v70
q0 134 -72 217q-89 103 -233 103t-233 -103q-72 -83 -72 -217v-550q0 -134 72 -217q89 -103 233 -103t233 103q72 83 72 197v204h-348v10l81 172h467z" />
    <glyph glyph-name="gbreve" unicode="&#x11f;" horiz-adv-x="1160" 
d="M350 380q0 -115 62.5 -168.5t152.5 -53.5t152.5 53.5t62.5 168.5v340q0 115 -62.5 168.5t-152.5 53.5t-152.5 -53.5t-62.5 -168.5v-340zM150 380v340q0 165 124 287q116 113 291 113t291 -113q124 -121 124 -287v-750q0 -165 -124 -287q-116 -113 -291 -113h-308v10
l80 168h228q90 0 152.5 53.5t62.5 168.5v95q-76 -85 -215 -85q-173 0 -291 113q-124 120 -124 287zM320 1382v10l74 149q72 -134 172 -134t172 134l76 -149v-10q-102 -150 -250 -150q-154 0 -244 150z" />
    <glyph glyph-name="Gdotaccent" unicode="&#x120;" 
d="M585 1802.5q0 50.5 35 86.5t85 36t85 -36t35 -86.5t-35 -86.5t-85 -36t-85 36t-35 86.5zM1210 846v-366q0 -217 -135 -355q-142 -145 -370 -145t-370 145q-135 138 -135 355v550q0 217 135 355q142 145 370 145q236 0 370.5 -145t134.5 -335l-190 -90h-10v70
q0 134 -72 217q-89 103 -233 103t-233 -103q-72 -83 -72 -217v-550q0 -134 72 -217q89 -103 233 -103t233 103q72 83 72 197v204h-348v10l81 172h467z" />
    <glyph glyph-name="gdotaccent" unicode="&#x121;" horiz-adv-x="1160" 
d="M350 380q0 -115 62.5 -168.5t152.5 -53.5t152.5 53.5t62.5 168.5v340q0 115 -62.5 168.5t-152.5 53.5t-152.5 -53.5t-62.5 -168.5v-340zM150 380v340q0 165 124 287q116 113 291 113t291 -113q124 -121 124 -287v-750q0 -165 -124 -287q-116 -113 -291 -113h-308v10
l80 168h228q90 0 152.5 53.5t62.5 168.5v95q-76 -85 -215 -85q-173 0 -291 113q-124 120 -124 287zM445 1407.5q0 50.5 35 86.5t85 36t85 -36t35 -86.5t-35 -86.5t-85 -36t-85 36t-35 86.5z" />
    <glyph glyph-name="Gcommaaccent" unicode="&#x122;" 
d="M596 -450h-10l-176 84l221 316h10l117 -55zM1210 846v-366q0 -217 -135 -355q-142 -145 -370 -145t-370 145q-135 138 -135 355v550q0 217 135 355q142 145 370 145q236 0 370.5 -145t134.5 -335l-190 -90h-10v70q0 134 -72 217q-89 103 -233 103t-233 -103
q-72 -83 -72 -217v-550q0 -134 72 -217q89 -103 233 -103t233 103q72 83 72 197v204h-348v10l81 172h467z" />
    <glyph glyph-name="gcommaaccent" unicode="&#x123;" horiz-adv-x="1160" 
d="M350 380q0 -115 62.5 -168.5t152.5 -53.5t152.5 53.5t62.5 168.5v340q0 115 -62.5 168.5t-152.5 53.5t-152.5 -53.5t-62.5 -168.5v-340zM150 380v340q0 165 124 287q116 113 291 113t291 -113q124 -121 124 -287v-750q0 -165 -124 -287q-116 -113 -291 -113h-308v10
l80 168h228q90 0 152.5 53.5t62.5 168.5v95q-76 -85 -215 -85q-173 0 -291 113q-124 120 -124 287zM683 1566h10l176 -84l-221 -316h-10l-117 55z" />
    <glyph glyph-name="Hcircumflex" unicode="&#x124;" horiz-adv-x="1390" 
d="M434 1621l153 261l176 84h10l213 -345l-116 -55h-10l-150 208l-148 -208h-10zM200 -40v1500l190 90h10v-704h590v614l190 90h10v-1500l-190 -90h-10v704h-590v-614l-190 -90h-10z" />
    <glyph glyph-name="hcircumflex" unicode="&#x125;" horiz-adv-x="1180" 
d="M200 -40v1500l190 90h10v-515q75 85 215 85q173 0 291 -113q124 -120 124 -287v-670l-190 -90h-10v760q0 115 -62.5 168.5t-152.5 53.5t-152.5 -53.5t-62.5 -168.5v-670l-190 -90h-10zM361 1621l153 261l176 84h10l213 -345l-116 -55h-10l-150 208l-148 -208h-10z" />
    <glyph glyph-name="Hbar" unicode="&#x126;" horiz-adv-x="1390" 
d="M200 -40v1258h-150v10l81 172h69v60l190 90h10v-150h590v60l190 90h10v-150h150v-10l-81 -172h-69v-1168l-190 -90h-10v704h-590v-614l-190 -90h-10zM990 1218h-590v-372h590v372z" />
    <glyph glyph-name="hbar" unicode="&#x127;" horiz-adv-x="1180" 
d="M200 -40v1258h-150v10l81 172h69v60l190 90h10v-150h262v-10l-81 -172h-181v-183q76 85 215 85q173 0 291 -113q124 -120 124 -287v-670l-190 -90h-10v760q0 115 -62.5 168.5t-152.5 53.5t-152.5 -53.5t-62.5 -168.5v-670l-190 -90h-10z" />
    <glyph glyph-name="Itilde" unicode="&#x128;" horiz-adv-x="600" 
d="M200 -40v1500l190 90h10v-1500l-190 -90h-10zM48 1638q0 286 141 286q64 0 137 -70q51 -49 75 -49q34 0 34 72l110 47h6q0 -286 -141 -286q-64 0 -137 70q-51 49 -75 49q-34 0 -34 -72l-110 -47h-6z" />
    <glyph glyph-name="itilde" unicode="&#x129;" horiz-adv-x="600" 
d="M200 -40v1090l190 90h10v-1090l-190 -90h-10zM48 1232q0 286 141 286q64 0 137 -70q51 -49 75 -49q34 0 34 72l110 47h6q0 -286 -141 -286q-64 0 -137 70q-51 49 -75 49q-34 0 -34 -72l-110 -47h-6z" />
    <glyph glyph-name="Imacron" unicode="&#x12a;" horiz-adv-x="600" 
d="M200 -40v1500l190 90h10v-1500l-190 -90h-10zM30 1638v10l81 172h458v-10l-81 -172h-458z" />
    <glyph glyph-name="imacron" unicode="&#x12b;" horiz-adv-x="600" 
d="M200 -40v1090l190 90h10v-1090l-190 -90h-10zM30 1232v10l81 172h458v-10l-81 -172h-458z" />
    <glyph glyph-name="Ibreve" unicode="&#x12c;" horiz-adv-x="600" 
d="M200 -40v1500l190 90h10v-1500l-190 -90h-10zM53 1788v10l74 149q72 -134 172 -134t172 134l76 -149v-10q-102 -150 -250 -150q-154 0 -244 150z" />
    <glyph glyph-name="ibreve" unicode="&#x12d;" horiz-adv-x="600" 
d="M200 -40v1090l190 90h10v-1090l-190 -90h-10zM53 1382v10l74 149q72 -134 172 -134t172 134l76 -149v-10q-102 -150 -250 -150q-154 0 -244 150z" />
    <glyph glyph-name="Iogonek" unicode="&#x12e;" horiz-adv-x="600" 
d="M200 10v1450l190 90h10v-1500l-39 -18q-83 -97 -83 -184q0 -121 134 -208l-190 -90h-10q-109 107 -109 244q0 120 97 216z" />
    <glyph glyph-name="iogonek" unicode="&#x12f;" horiz-adv-x="600" 
d="M180 1407.5q0 50.5 35 86.5t85 36t85 -36t35 -86.5t-35 -86.5t-85 -36t-85 36t-35 86.5zM200 10v1040l190 90h10v-1090l-39 -18q-83 -97 -83 -184q0 -121 134 -208l-190 -90h-10q-109 107 -109 244q0 120 97 216z" />
    <glyph glyph-name="Idotaccent" unicode="&#x130;" horiz-adv-x="600" 
d="M200 -40v1500l190 90h10v-1500l-190 -90h-10zM180 1802.5q0 50.5 35 86.5t85 36t85 -36t35 -86.5t-35 -86.5t-85 -36t-85 36t-35 86.5z" />
    <glyph glyph-name="dotlessi" unicode="&#x131;" horiz-adv-x="600" 
d="M200 -40v1090l190 90h10v-1090l-190 -90h-10z" />
    <glyph glyph-name="IJ" unicode="&#x132;" horiz-adv-x="1773" 
d="M563 460l190 90h10v-70q0 -134 72 -217q89 -103 233 -103t233 103q72 83 72 217v848h-573v10l81 172h692v-1030q0 -216 -135 -355q-142 -145 -370 -145q-225 0 -370 145q-135 134 -135 335zM200 -40v1500l190 90h10v-1500l-190 -90h-10z" />
    <glyph glyph-name="ij" unicode="&#x133;" horiz-adv-x="1100" 
d="M680 1407.5q0 50.5 35 86.5t85 36t85 -36t35 -86.5t-35 -86.5t-85 -36t-85 36t-35 86.5zM485 -450v10l85 182q38 15 68 40q62 54 62 168v1100l190 90h10v-1190q0 -165 -124 -287q-116 -113 -291 -113zM180 1407.5q0 50.5 35 86.5t85 36t85 -36t35 -86.5t-35 -86.5
t-85 -36t-85 36t-35 86.5zM200 -40v1090l190 90h10v-1090l-190 -90h-10z" />
    <glyph glyph-name="Jcircumflex" unicode="&#x134;" horiz-adv-x="1290" 
d="M468 1621l153 261l176 84h10l213 -345l-116 -55h-10l-150 208l-148 -208h-10zM80 460l190 90h10v-70q0 -134 72 -217q89 -103 233 -103t233 103q72 83 72 217v848h-573v10l81 172h692v-1030q0 -216 -135 -355q-142 -145 -370 -145q-225 0 -370 145q-135 134 -135 335z
" />
    <glyph glyph-name="jcircumflex" unicode="&#x135;" horiz-adv-x="600" 
d="M24 1221l153 261l176 84h10l213 -345l-116 -55h-10l-150 208l-148 -208h-10zM-15 -450v10l85 182q38 15 68 40q62 54 62 168v1100l190 90h10v-1190q0 -165 -124 -287q-116 -113 -291 -113z" />
    <glyph glyph-name="Kcommaaccent" unicode="&#x136;" horiz-adv-x="1360" 
d="M200 -40v1500l190 90h10v-753l543 753h10l176 -83l-446 -594q230 -5 362 -134q135 -132 135 -355v-334l-190 -90h-10v424q0 134 -72 217q-89 103 -218 103q-131 0 -218 -103q-72 -85 -72 -217v-334l-190 -90h-10zM596 -450h-10l-176 84l221 316h10l117 -55z" />
    <glyph glyph-name="kcommaaccent" unicode="&#x137;" horiz-adv-x="1180" 
d="M200 -40v1500l190 90h10v-833l418 423h10l176 -83l-332 -305q142 -19 234 -93q124 -102 124 -287v-322l-190 -90h-10v412q0 115 -62.5 168.5t-152.5 53.5t-153 -54q-62 -54 -62 -168v-322l-190 -90h-10zM513 -450h-10l-176 84l221 316h10l117 -55z" />
    <glyph glyph-name="kgreenlandic" unicode="&#x138;" horiz-adv-x="1180" 
d="M200 -40v1090l190 90h10v-423l418 423h10l176 -83l-332 -305q144 -19 234 -93q124 -102 124 -287v-322l-190 -90h-10v412q0 115 -62.5 168.5t-152.5 53.5t-153 -54q-62 -54 -62 -168v-322l-190 -90h-10z" />
    <glyph glyph-name="Lacute" unicode="&#x139;" horiz-adv-x="1090" 
d="M348 1966h10l176 -84l-221 -316h-10l-117 55zM200 0v1460l190 90h10v-1368h685v-10l-81 -172h-804z" />
    <glyph glyph-name="lacute" unicode="&#x13a;" horiz-adv-x="600" 
d="M348 1966h10l176 -84l-221 -316h-10l-117 55zM200 -40v1500l190 90h10v-1500l-190 -90h-10z" />
    <glyph glyph-name="Lcommaaccent" unicode="&#x13b;" horiz-adv-x="1090" 
d="M548 -450h-10l-176 84l221 316h10l117 -55zM200 0v1460l190 90h10v-1368h685v-10l-81 -172h-804z" />
    <glyph glyph-name="lcommaaccent" unicode="&#x13c;" horiz-adv-x="600" 
d="M252 -450h-10l-176 84l221 316h10l117 -55zM200 -40v1500l190 90h10v-1500l-190 -90h-10z" />
    <glyph glyph-name="Lcaron" unicode="&#x13d;" horiz-adv-x="1090" 
d="M594 1566h10l176 -84l-221 -316h-10l-117 55zM200 0v1460l190 90h10v-1368h685v-10l-81 -172h-804z" />
    <glyph glyph-name="lcaron" unicode="&#x13e;" horiz-adv-x="630" 
d="M594 1566h10l176 -84l-221 -316h-10l-117 55zM200 -40v1500l190 90h10v-1500l-190 -90h-10z" />
    <glyph glyph-name="Ldot" unicode="&#x13f;" horiz-adv-x="1090" 
d="M505 997.5q0 50.5 35 86.5t85 36t85 -36t35 -86.5t-35 -86.5t-85 -36t-85 36t-35 86.5zM200 0v1460l190 90h10v-1368h685v-10l-81 -172h-804z" />
    <glyph glyph-name="ldot" unicode="&#x140;" horiz-adv-x="665" 
d="M505 997.5q0 50.5 35 86.5t85 36t85 -36t35 -86.5t-35 -86.5t-85 -36t-85 36t-35 86.5zM200 -40v1500l190 90h10v-1500l-190 -90h-10z" />
    <glyph glyph-name="Lslash" unicode="&#x141;" horiz-adv-x="1090" 
d="M200 0v1460l190 90h10v-833l317 423h10l158 -80l-485 -602v-276h685v-10l-81 -172h-804z" />
    <glyph glyph-name="lslash" unicode="&#x142;" horiz-adv-x="724" 
d="M262 -40v581l-74 -122h-10l-158 81l242 300v660l190 90h10v-532l74 122h10l158 -80l-242 -301v-709l-190 -90h-10z" />
    <glyph glyph-name="Nacute" unicode="&#x143;" 
d="M817 1966h10l176 -84l-221 -316h-10l-117 55zM200 -40v1070q0 216 135 355q142 145 370 145q225 0 370 -145q135 -134 135 -355v-980l-190 -90h-10v1070q0 134 -72 217q-89 103 -233 103t-233 -103q-72 -83 -72 -217v-980l-190 -90h-10z" />
    <glyph glyph-name="nacute" unicode="&#x144;" horiz-adv-x="1130" 
d="M683 1566h10l176 -84l-221 -316h-10l-117 55zM150 -40v760q0 165 124 287q116 113 291 113q173 0 291 -113q124 -120 124 -287v-670l-190 -90h-10v760q0 115 -62.5 168.5t-152.5 53.5t-152.5 -53.5t-62.5 -168.5v-670l-190 -90h-10z" />
    <glyph glyph-name="Ncommaaccent" unicode="&#x145;" 
d="M596 -450h-10l-176 84l221 316h10l117 -55zM200 -40v1070q0 216 135 355q142 145 370 145q225 0 370 -145q135 -134 135 -355v-980l-190 -90h-10v1070q0 134 -72 217q-89 103 -233 103t-233 -103q-72 -83 -72 -217v-980l-190 -90h-10z" />
    <glyph glyph-name="ncommaaccent" unicode="&#x146;" horiz-adv-x="1130" 
d="M471 -450h-10l-176 84l221 316h10l117 -55zM150 -40v760q0 165 124 287q116 113 291 113q173 0 291 -113q124 -120 124 -287v-670l-190 -90h-10v760q0 115 -62.5 168.5t-152.5 53.5t-152.5 -53.5t-62.5 -168.5v-670l-190 -90h-10z" />
    <glyph glyph-name="Ncaron" unicode="&#x147;" 
d="M647 1566l-213 345l116 55h10l150 -208l148 208h10l118 -55l-153 -261l-176 -84h-10zM200 -40v1070q0 216 135 355q142 145 370 145q225 0 370 -145q135 -134 135 -355v-980l-190 -90h-10v1070q0 134 -72 217q-89 103 -233 103t-233 -103q-72 -83 -72 -217v-980l-190 -90
h-10z" />
    <glyph glyph-name="ncaron" unicode="&#x148;" horiz-adv-x="1130" 
d="M480 1166l-213 345l116 55h10l150 -208l148 208h10l118 -55l-153 -261l-176 -84h-10zM150 -40v760q0 165 124 287q116 113 291 113q173 0 291 -113q124 -120 124 -287v-670l-190 -90h-10v760q0 115 -62.5 168.5t-152.5 53.5t-152.5 -53.5t-62.5 -168.5v-670l-190 -90h-10
z" />
    <glyph glyph-name="napostrophe" unicode="&#x149;" horiz-adv-x="1130" 
d="M210 1454h10l176 -84l-221 -316h-10l-117 55zM150 -40v760q0 165 124 287q116 113 291 113q173 0 291 -113q124 -120 124 -287v-670l-190 -90h-10v760q0 115 -62.5 168.5t-152.5 53.5t-152.5 -53.5t-62.5 -168.5v-670l-190 -90h-10z" />
    <glyph glyph-name="Eng" unicode="&#x14a;" 
d="M200 -40v1070q0 216 135 355q142 145 370 145q224 0 370 -145q135 -134 135 -355v-1080q0 -165 -124 -287q-116 -113 -291 -113v10l85 182q38 15 68 40q62 54 62 168v1080q0 134 -72 217q-89 103 -233 103t-233 -103q-72 -83 -72 -217v-980l-190 -90h-10z" />
    <glyph glyph-name="eng" unicode="&#x14b;" horiz-adv-x="1130" 
d="M150 -40v760q0 165 124 287q116 113 291 113q173 0 291 -113q124 -120 124 -287v-770q0 -165 -124 -287q-116 -113 -291 -113v10l85 182q38 15 68 40q62 54 62 168v770q0 115 -62.5 168.5t-152.5 53.5t-152.5 -53.5t-62.5 -168.5v-670l-190 -90h-10z" />
    <glyph glyph-name="Omacron" unicode="&#x14c;" 
d="M467 1638v10l81 172h458v-10l-81 -172h-458zM400 480q0 -134 72 -217q89 -103 233 -103t233 103q72 83 72 217v550q0 134 -72 217q-89 103 -233 103t-233 -103q-72 -83 -72 -217v-550zM200 480v550q0 217 135 355q142 145 370 145t370 -145q135 -137 135 -355v-550
q0 -217 -135 -355q-142 -145 -370 -145t-370 145q-135 138 -135 355z" />
    <glyph glyph-name="omacron" unicode="&#x14d;" horiz-adv-x="1130" 
d="M320 1232v10l81 172h458v-10l-81 -172h-458zM150 380v340q0 165 124 287q116 113 291 113q173 0 291 -113q124 -120 124 -287v-340q0 -165 -124 -287q-116 -113 -291 -113q-173 0 -291 113q-124 120 -124 287zM350 380q0 -115 62.5 -168.5t152.5 -53.5t152.5 53.5
t62.5 168.5v340q0 115 -62.5 168.5t-152.5 53.5t-152.5 -53.5t-62.5 -168.5v-340z" />
    <glyph glyph-name="Obreve" unicode="&#x14e;" 
d="M468 1788v10l74 149q72 -134 172 -134t172 134l76 -149v-10q-102 -150 -250 -150q-154 0 -244 150zM400 480q0 -134 72 -217q89 -103 233 -103t233 103q72 83 72 217v550q0 134 -72 217q-89 103 -233 103t-233 -103q-72 -83 -72 -217v-550zM200 480v550q0 217 135 355
q142 145 370 145t370 -145q135 -137 135 -355v-550q0 -217 -135 -355q-142 -145 -370 -145t-370 145q-135 138 -135 355z" />
    <glyph glyph-name="obreve" unicode="&#x14f;" horiz-adv-x="1130" 
d="M320 1382v10l74 149q72 -134 172 -134t172 134l76 -149v-10q-102 -150 -250 -150q-154 0 -244 150zM150 380v340q0 165 124 287q116 113 291 113q173 0 291 -113q124 -120 124 -287v-340q0 -165 -124 -287q-116 -113 -291 -113q-173 0 -291 113q-124 120 -124 287z
M350 380q0 -115 62.5 -168.5t152.5 -53.5t152.5 53.5t62.5 168.5v340q0 115 -62.5 168.5t-152.5 53.5t-152.5 -53.5t-62.5 -168.5v-340z" />
    <glyph glyph-name="Ohungarumlaut" unicode="&#x150;" 
d="M933 1966h10l176 -84l-221 -316h-10l-117 55zM656 1966h10l176 -84l-221 -316h-10l-117 55zM400 480q0 -134 72 -217q89 -103 233 -103t233 103q72 83 72 217v550q0 134 -72 217q-89 103 -233 103t-233 -103q-72 -83 -72 -217v-550zM200 480v550q0 217 135 355
q142 145 370 145t370 -145q135 -137 135 -355v-550q0 -217 -135 -355q-142 -145 -370 -145t-370 145q-135 138 -135 355z" />
    <glyph glyph-name="ohungarumlaut" unicode="&#x151;" horiz-adv-x="1130" 
d="M770 1566h10l176 -84l-221 -316h-10l-117 55zM493 1566h10l176 -84l-221 -316h-10l-117 55zM150 380v340q0 165 124 287q116 113 291 113q173 0 291 -113q124 -120 124 -287v-340q0 -165 -124 -287q-116 -113 -291 -113q-173 0 -291 113q-124 120 -124 287zM350 380
q0 -115 62.5 -168.5t152.5 -53.5t152.5 53.5t62.5 168.5v340q0 115 -62.5 168.5t-152.5 53.5t-152.5 -53.5t-62.5 -168.5v-340z" />
    <glyph glyph-name="OE" unicode="&#x152;" horiz-adv-x="1967" 
d="M200 480v550q0 217 135 355q142 145 370 145q187 0 305 -119v49l106 50h634v-10l-81 -172h-459v-482h540v-10l-81 -172h-459v-482h707v-10l-81 -172h-826v99q-121 -119 -305 -119q-228 0 -370 145q-135 138 -135 355zM400 480q0 -134 72 -217q89 -103 233 -103t233 103
q72 83 72 217v550q0 134 -72 217q-89 103 -233 103t-233 -103q-72 -83 -72 -217v-550z" />
    <glyph glyph-name="oe" unicode="&#x153;" horiz-adv-x="1760" 
d="M150 380v340q0 165 124 287q116 113 291 113q159 0 275 -116q22 -22 40 -52q18 29 40 51q125 117 275 117q170 0 291 -113q124 -116 124 -258v-2l-610 -478q15 -34 42 -57q63 -54 153 -54t152.5 54t62.5 141l190 90h10v-63q0 -166 -124 -287q-116 -113 -291 -113
q-159 0 -275 116q-22 22 -40 52q-18 -29 -40 -51q-125 -117 -275 -117q-173 0 -291 113q-124 120 -124 287zM350 380q0 -115 62.5 -168.5t152.5 -53.5t152.5 53.5t62.5 168.5v340q0 115 -62.5 168.5t-152.5 53.5t-152.5 -53.5t-62.5 -168.5v-340zM980 471l418 339
q-16 49 -50 78q-63 54 -153 54t-152.5 -53.5t-62.5 -168.5v-249z" />
    <glyph glyph-name="Racute" unicode="&#x154;" horiz-adv-x="1364" 
d="M200 -40v1500l106 50h379q228 0 370 -145q135 -138 135 -355q0 -218 -135 -355q-80 -81 -187 -117l346 -495l-176 -83h-10l-385 550h-243v-460l-190 -90h-10zM400 690h285q131 0 233 103q72 73 72 217q0 134 -72 217q-89 103 -233 103h-285v-640zM700 1966h10l176 -84
l-221 -316h-10l-117 55z" />
    <glyph glyph-name="racute" unicode="&#x155;" horiz-adv-x="720" 
d="M473 1566h10l176 -84l-221 -316h-10l-117 55zM150 -40v760q0 165 124 287q116 113 291 113h135v-10l-80 -168h-55q-90 0 -152.5 -53.5t-62.5 -168.5v-670l-190 -90h-10z" />
    <glyph glyph-name="Rcommaaccent" unicode="&#x156;" horiz-adv-x="1364" 
d="M596 -450h-10l-176 84l221 316h10l117 -55zM200 -40v1500l106 50h379q228 0 370 -145q135 -138 135 -355q0 -218 -135 -355q-80 -81 -187 -117l346 -495l-176 -83h-10l-385 550h-243v-460l-190 -90h-10zM400 690h285q131 0 233 103q72 73 72 217q0 134 -72 217
q-89 103 -233 103h-285v-640z" />
    <glyph glyph-name="rcommaaccent" unicode="&#x157;" horiz-adv-x="720" 
d="M210 -450h-10l-176 84l221 316h10l117 -55zM150 -40v760q0 165 124 287q116 113 291 113h135v-10l-80 -168h-55q-90 0 -152.5 -53.5t-62.5 -168.5v-670l-190 -90h-10z" />
    <glyph glyph-name="Rcaron" unicode="&#x158;" horiz-adv-x="1364" 
d="M587 1566l-213 345l116 55h10l150 -208l148 208h10l118 -55l-153 -261l-176 -84h-10zM200 -40v1500l106 50h379q228 0 370 -145q135 -138 135 -355q0 -218 -135 -355q-80 -81 -187 -117l346 -495l-176 -83h-10l-385 550h-243v-460l-190 -90h-10zM400 690h285
q131 0 233 103q72 73 72 217q0 134 -72 217q-89 103 -233 103h-285v-640z" />
    <glyph glyph-name="rcaron" unicode="&#x159;" horiz-adv-x="720" 
d="M327 1166l-213 345l116 55h10l150 -208l148 208h10l118 -55l-153 -261l-176 -84h-10zM150 -40v760q0 165 124 287q116 113 291 113h135v-10l-80 -168h-55q-90 0 -152.5 -53.5t-62.5 -168.5v-670l-190 -90h-10z" />
    <glyph glyph-name="Sacute" unicode="&#x15a;" horiz-adv-x="1330" 
d="M781 1966h10l176 -84l-221 -316h-10l-117 55zM1169 472q0 -204 -134 -347q-137 -145 -370 -145t-370 145q-135 143 -135 335l190 90h10v-82q0 -122 72 -205q89 -103 233 -103q143 0 233 103q71 81 71 207q0 119 -58 187q-80 94 -246 94q-182 0 -315 120q-100 90 -100 261
q0 201 124 302q118 96 291 96t291 -96q124 -101 124 -277l-190 -90h-10v80q0 114 -65 170q-63 55 -150 55q-97 0 -156 -61t-59 -164q0 -99 45 -149q60 -67 170 -67q242 0 370 -114q134 -119 134 -345z" />
    <glyph glyph-name="sacute" unicode="&#x15b;" horiz-adv-x="1070" 
d="M651 1566h10l176 -84l-221 -316h-10l-117 55zM120 353l190 90h10v-80q0 -112 65 -170q62 -55 150 -55q102 0 159 65q60 68 60 148q0 86 -64 136q-55 43 -156 43q-178 0 -281 78q-91 68 -91 211q0 139 127 230q99 71 246 71q141 0 245 -88q80 -69 99 -160l-190 -90h-10v29
q0 52 -30 89q-48 62 -137 62q-71 0 -115.5 -44.5t-44.5 -98.5q0 -64 54 -102q30 -21 128 -21q203 0 305 -93q111 -101 111 -263q0 -130 -115 -248q-109 -112 -300 -112q-173 0 -291 96q-124 101 -124 277z" />
    <glyph glyph-name="Scircumflex" unicode="&#x15c;" horiz-adv-x="1330" 
d="M390 1621l153 261l176 84h10l213 -345l-116 -55h-10l-150 208l-148 -208h-10zM1169 472q0 -204 -134 -347q-137 -145 -370 -145t-370 145q-135 143 -135 335l190 90h10v-82q0 -122 72 -205q89 -103 233 -103q143 0 233 103q71 81 71 207q0 119 -58 187q-80 94 -246 94
q-182 0 -315 120q-100 90 -100 261q0 201 124 302q118 96 291 96t291 -96q124 -101 124 -277l-190 -90h-10v80q0 114 -65 170q-63 55 -150 55q-97 0 -156 -61t-59 -164q0 -99 45 -149q60 -67 170 -67q242 0 370 -114q134 -119 134 -345z" />
    <glyph glyph-name="scircumflex" unicode="&#x15d;" horiz-adv-x="1070" 
d="M264 1221l153 261l176 84h10l213 -345l-116 -55h-10l-150 208l-148 -208h-10zM120 353l190 90h10v-80q0 -112 65 -170q62 -55 150 -55q102 0 159 65q60 68 60 148q0 86 -64 136q-55 43 -156 43q-178 0 -281 78q-91 68 -91 211q0 139 127 230q99 71 246 71q141 0 245 -88
q80 -69 99 -160l-190 -90h-10v29q0 52 -30 89q-48 62 -137 62q-71 0 -115.5 -44.5t-44.5 -98.5q0 -64 54 -102q30 -21 128 -21q203 0 305 -93q111 -101 111 -263q0 -130 -115 -248q-109 -112 -300 -112q-173 0 -291 96q-124 101 -124 277z" />
    <glyph glyph-name="Scedilla" unicode="&#x15e;" horiz-adv-x="1330" 
d="M160 460l190 90h10v-82q0 -122 72 -205q89 -103 233 -103q143 0 233 103q71 81 71 207q0 119 -58 187q-80 94 -246 94q-182 0 -315 120q-100 90 -100 261q0 201 124 302q118 96 291 96t291 -96q124 -101 124 -277l-190 -90h-10v80q0 114 -65 170q-63 55 -150 55
q-97 0 -156 -61t-59 -164q0 -99 45 -149q60 -67 170 -67q242 0 370 -114q134 -119 134 -345q0 -205 -134 -347q-116 -123 -301 -142q72 -85 72 -189q0 -137 -109 -244h-10l-190 90q134 87 134 208q0 65 -47 137q-177 21 -289 140q-135 143 -135 335z" />
    <glyph glyph-name="scedilla" unicode="&#x15f;" horiz-adv-x="1070" 
d="M120 353l190 90h10v-80q0 -112 65 -170q62 -55 150 -55q102 0 159 65q60 68 60 148q0 86 -64 136q-55 43 -156 43q-177 0 -281 78q-91 68 -91 211q0 139 127 230q99 71 246 71q141 0 245 -88q80 -69 99 -160l-190 -90h-10v29q0 52 -30 89q-48 62 -137 62
q-71 0 -115.5 -44.5t-44.5 -98.5q0 -64 54 -102q30 -21 128 -21q203 0 305 -93q111 -101 111 -263q0 -130 -115 -248q-88 -90 -229 -108q73 -86 73 -190q0 -137 -109 -244h-10l-190 90q134 87 134 208q0 66 -48 137q-122 18 -212 91q-124 101 -124 277z" />
    <glyph glyph-name="Scaron" unicode="&#x160;" horiz-adv-x="1330" 
d="M568 1566l-213 345l116 55h10l150 -208l148 208h10l118 -55l-153 -261l-176 -84h-10zM1169 472q0 -204 -134 -347q-137 -145 -370 -145t-370 145q-135 143 -135 335l190 90h10v-82q0 -122 72 -205q89 -103 233 -103q143 0 233 103q71 81 71 207q0 119 -58 187
q-80 94 -246 94q-182 0 -315 120q-100 90 -100 261q0 201 124 302q118 96 291 96t291 -96q124 -101 124 -277l-190 -90h-10v80q0 114 -65 170q-63 55 -150 55q-97 0 -156 -61t-59 -164q0 -99 45 -149q60 -67 170 -67q242 0 370 -114q134 -119 134 -345z" />
    <glyph glyph-name="scaron" unicode="&#x161;" horiz-adv-x="1070" 
d="M431 1166l-213 345l116 55h10l150 -208l148 208h10l118 -55l-153 -261l-176 -84h-10zM120 353l190 90h10v-80q0 -112 65 -170q62 -55 150 -55q102 0 159 65q60 68 60 148q0 86 -64 136q-55 43 -156 43q-178 0 -281 78q-91 68 -91 211q0 139 127 230q99 71 246 71
q141 0 245 -88q80 -69 99 -160l-190 -90h-10v29q0 52 -30 89q-48 62 -137 62q-71 0 -115.5 -44.5t-44.5 -98.5q0 -64 54 -102q30 -21 128 -21q203 0 305 -93q111 -101 111 -263q0 -130 -115 -248q-109 -112 -300 -112q-173 0 -291 96q-124 101 -124 277z" />
    <glyph glyph-name="Tcommaaccent" unicode="&#x162;" horiz-adv-x="1066" 
d="M433 -40v1368h-428v10l81 172h975v-10l-81 -172h-347v-1276q146 -111 146 -258q0 -137 -109 -244h-10l-190 90q134 87 134 208q0 75 -63 158l-98 -46h-10z" />
    <glyph glyph-name="tcommaaccent" unicode="&#x163;" horiz-adv-x="764" 
d="M282 -40v958h-257v10l81 172h176v360l190 90h10v-450h257v-10l-81 -172h-176v-866q146 -111 146 -258q0 -137 -109 -244h-10l-190 90q134 87 134 208q0 75 -63 158l-98 -46h-10z" />
    <glyph glyph-name="Tcaron" unicode="&#x164;" horiz-adv-x="1066" 
d="M448 1566l-213 345l116 55h10l150 -208l148 208h10l118 -55l-153 -261l-176 -84h-10zM433 -40v1368h-428v10l81 172h975v-10l-81 -172h-347v-1278l-190 -90h-10z" />
    <glyph glyph-name="tcaron" unicode="&#x165;" horiz-adv-x="764" 
d="M683 1566h10l176 -84l-221 -316h-10l-117 55zM282 -40v958h-257v10l81 172h176v360l190 90h10v-450h257v-10l-81 -172h-176v-868l-190 -90h-10z" />
    <glyph glyph-name="Tbar" unicode="&#x166;" horiz-adv-x="1066" 
d="M433 -40v704h-206v10l81 172h125v482h-428v10l81 172h975v-10l-81 -172h-347v-482h206v-10l-81 -172h-125v-614l-190 -90h-10z" />
    <glyph glyph-name="tbar" unicode="&#x167;" horiz-adv-x="764" 
d="M282 -40v605h-206v10l81 172h125v171h-257v10l81 172h176v360l190 90h10v-450h257v-10l-81 -172h-176v-171h206v-10l-81 -172h-125v-515l-190 -90h-10z" />
    <glyph glyph-name="Utilde" unicode="&#x168;" 
d="M471 1638q0 286 141 286q64 0 137 -70q51 -49 75 -49q34 0 34 72l110 47h6q0 -286 -141 -286q-64 0 -137 70q-51 49 -75 49q-34 0 -34 -72l-110 -47h-6zM1210 1550v-1070q0 -216 -135 -355q-142 -145 -370 -145q-225 0 -370 145q-135 134 -135 355v980l190 90h10v-1070
q0 -134 72 -217q89 -103 233 -103t233 103q72 83 72 217v980l190 90h10z" />
    <glyph glyph-name="utilde" unicode="&#x169;" horiz-adv-x="1130" 
d="M342 1232q0 286 141 286q64 0 137 -70q51 -49 75 -49q34 0 34 72l110 47h6q0 -286 -141 -286q-64 0 -137 70q-51 49 -75 49q-34 0 -34 -72l-110 -47h-6zM980 1140v-760q0 -165 -124 -287q-116 -113 -291 -113q-173 0 -291 113q-124 120 -124 287v670l190 90h10v-760
q0 -115 62.5 -168.5t152.5 -53.5t152.5 53.5t62.5 168.5v670l190 90h10z" />
    <glyph glyph-name="Umacron" unicode="&#x16a;" 
d="M467 1638v10l81 172h458v-10l-81 -172h-458zM1210 1550v-1070q0 -216 -135 -355q-142 -145 -370 -145q-225 0 -370 145q-135 134 -135 355v980l190 90h10v-1070q0 -134 72 -217q89 -103 233 -103t233 103q72 83 72 217v980l190 90h10z" />
    <glyph glyph-name="umacron" unicode="&#x16b;" horiz-adv-x="1130" 
d="M320 1232v10l81 172h458v-10l-81 -172h-458zM980 1140v-760q0 -165 -124 -287q-116 -113 -291 -113q-173 0 -291 113q-124 120 -124 287v670l190 90h10v-760q0 -115 62.5 -168.5t152.5 -53.5t152.5 53.5t62.5 168.5v670l190 90h10z" />
    <glyph glyph-name="Ubreve" unicode="&#x16c;" 
d="M468 1788v10l74 149q72 -134 172 -134t172 134l76 -149v-10q-102 -150 -250 -150q-154 0 -244 150zM1210 1550v-1070q0 -216 -135 -355q-142 -145 -370 -145q-225 0 -370 145q-135 134 -135 355v980l190 90h10v-1070q0 -134 72 -217q89 -103 233 -103t233 103
q72 83 72 217v980l190 90h10z" />
    <glyph glyph-name="ubreve" unicode="&#x16d;" horiz-adv-x="1130" 
d="M320 1382v10l74 149q72 -134 172 -134t172 134l76 -149v-10q-102 -150 -250 -150q-154 0 -244 150zM980 1140v-760q0 -165 -124 -287q-116 -113 -291 -113q-173 0 -291 113q-124 120 -124 287v670l190 90h10v-760q0 -115 62.5 -168.5t152.5 -53.5t152.5 53.5t62.5 168.5
v670l190 90h10z" />
    <glyph glyph-name="Uring" unicode="&#x16e;" 
d="M705 1588q-80 0 -135 49q-62 55 -62 140q0 83 62 140q53 49 135 49q80 0 135 -49q62 -55 62 -140t-62 -140q-55 -49 -135 -49zM705 1862q-34 0 -54 -21t-20 -64q0 -46 21 -65q22 -20 52 -20q31 0 53 22q20 19 20 63q0 45 -22 66q-20 19 -50 19zM1210 1550v-1070
q0 -216 -135 -355q-142 -145 -370 -145q-225 0 -370 145q-135 134 -135 355v980l190 90h10v-1070q0 -134 72 -217q89 -103 233 -103t233 103q72 83 72 217v980l190 90h10z" />
    <glyph glyph-name="uring" unicode="&#x16f;" horiz-adv-x="1130" 
d="M566 1188q-80 0 -135 49q-62 55 -62 140q0 83 62 140q53 49 135 49q80 0 135 -49q62 -55 62 -140t-62 -140q-55 -49 -135 -49zM566 1462q-34 0 -54 -21t-20 -64q0 -46 21 -65q22 -20 52 -20q31 0 53 22q20 19 20 63q0 45 -22 66q-20 19 -50 19zM980 1140v-760
q0 -165 -124 -287q-116 -113 -291 -113q-173 0 -291 113q-124 120 -124 287v670l190 90h10v-760q0 -115 62.5 -168.5t152.5 -53.5t152.5 53.5t62.5 168.5v670l190 90h10z" />
    <glyph glyph-name="Uhungarumlaut" unicode="&#x170;" 
d="M933 1966h10l176 -84l-221 -316h-10l-117 55zM656 1966h10l176 -84l-221 -316h-10l-117 55zM1210 1550v-1070q0 -216 -135 -355q-142 -145 -370 -145q-225 0 -370 145q-135 134 -135 355v980l190 90h10v-1070q0 -134 72 -217q89 -103 233 -103t233 103q72 83 72 217v980
l190 90h10z" />
    <glyph glyph-name="uhungarumlaut" unicode="&#x171;" horiz-adv-x="1130" 
d="M770 1566h10l176 -84l-221 -316h-10l-117 55zM493 1566h10l176 -84l-221 -316h-10l-117 55zM980 1140v-760q0 -165 -124 -287q-116 -113 -291 -113q-173 0 -291 113q-124 120 -124 287v670l190 90h10v-760q0 -115 62.5 -168.5t152.5 -53.5t152.5 53.5t62.5 168.5v670
l190 90h10z" />
    <glyph glyph-name="Uogonek" unicode="&#x172;" 
d="M1210 1550v-1070q0 -220 -135 -355q-36 -36 -76 -63q-111 -114 -111 -214q0 -121 134 -208l-190 -90h-10q-109 107 -109 244q0 105 74 191q-40 -5 -82 -5q-224 0 -370 145q-135 134 -135 355v980l190 90h10v-1070q0 -134 72 -217q89 -103 233 -103t233 103q72 83 72 217
v980l190 90h10z" />
    <glyph glyph-name="uogonek" unicode="&#x173;" horiz-adv-x="1130" 
d="M980 1140v-760q0 -163 -124 -287q-19 -19 -41 -35q-107 -112 -107 -210q0 -121 134 -208l-190 -90h-10q-109 107 -109 244q0 103 71 187q-19 -1 -39 -1q-173 0 -291 113q-124 120 -124 287v670l190 90h10v-760q0 -115 62.5 -168.5t152.5 -53.5t152.5 53.5t62.5 168.5v670
l190 90h10z" />
    <glyph glyph-name="Wcircumflex" unicode="&#x174;" horiz-adv-x="2220" 
d="M2020 1550v-1070q0 -216 -135 -355q-142 -145 -370 -145q-206 0 -351 145q-36 36 -54 70q-23 -35 -56 -67q-151 -148 -349 -148q-224 0 -370 145q-135 134 -135 355v980l190 90h10v-1070q0 -134 72 -217q89 -103 233 -103t233 103q72 83 72 217v980l190 90h10v-1070
q0 -134 72 -217q89 -103 233 -103t233 103q72 83 72 217v980l190 90h10zM823 1621l153 261l176 84h10l213 -345l-116 -55h-10l-150 208l-148 -208h-10z" />
    <glyph glyph-name="wcircumflex" unicode="&#x175;" horiz-adv-x="1760" 
d="M1610 1140v-760q0 -165 -124 -287q-116 -113 -291 -113q-159 0 -275 116q-22 22 -40 52q-18 -29 -40 -51q-125 -117 -275 -117q-173 0 -291 113q-124 120 -124 287v670l190 90h10v-760q0 -115 62.5 -168.5t152.5 -53.5t152.5 53.5t62.5 168.5v670l190 90h10v-760
q0 -115 62.5 -168.5t152.5 -53.5t152.5 53.5t62.5 168.5v670l190 90h10zM598 1221l153 261l176 84h10l213 -345l-116 -55h-10l-150 208l-148 -208h-10z" />
    <glyph glyph-name="Ycircumflex" unicode="&#x176;" horiz-adv-x="1310" 
d="M390 1621l153 261l176 84h10l213 -345l-116 -55h-10l-150 208l-148 -208h-10zM555 -40v524q-157 26 -270 137q-135 133 -135 355v484l190 90h10v-574q0 -134 72 -217q89 -103 233 -103q152 0 233 103q72 92 72 217v484l190 90h10v-574q0 -216 -135 -355
q-109 -112 -270 -137v-434l-190 -90h-10z" />
    <glyph glyph-name="ycircumflex" unicode="&#x177;" horiz-adv-x="1180" 
d="M150 380v670l190 90h10v-760q0 -115 62.5 -168.5t152.5 -53.5t152.5 53.5t62.5 168.5v670l190 90h10v-1170q0 -165 -124 -287q-116 -113 -291 -113h-308v10l80 168h228q90 0 153 54q62 54 62 168v95q-74 -85 -215 -85q-171 0 -291 113q-124 118 -124 287zM294 1221
l153 261l176 84h10l213 -345l-116 -55h-10l-150 208l-148 -208h-10z" />
    <glyph glyph-name="Ydieresis" unicode="&#x178;" horiz-adv-x="1310" 
d="M688 1802.5q0 50.5 35 86.5t85 36t85 -36t35 -86.5t-35 -86.5t-85 -36t-85 36t-35 86.5zM388 1802.5q0 50.5 35 86.5t85 36t85 -36t35 -86.5t-35 -86.5t-85 -36t-85 36t-35 86.5zM555 -40v524q-157 26 -270 137q-135 133 -135 355v484l190 90h10v-574q0 -134 72 -217
q89 -103 233 -103q152 0 233 103q72 92 72 217v484l190 90h10v-574q0 -216 -135 -355q-109 -112 -270 -137v-434l-190 -90h-10z" />
    <glyph glyph-name="Zacute" unicode="&#x179;" horiz-adv-x="1267" 
d="M699 1966h10l176 -84l-221 -316h-10l-117 55zM150 0v10l647 1318h-637v10l81 172h866v-10l-650 -1318h660v-10l-81 -172h-886z" />
    <glyph glyph-name="zacute" unicode="&#x17a;" horiz-adv-x="1053" 
d="M602 1566h10l176 -84l-221 -316h-10l-117 55zM100 0v10l523 908h-513v10l81 172h752v-10l-522 -908h532v-10l-81 -172h-772z" />
    <glyph glyph-name="Zdotaccent" unicode="&#x17b;" horiz-adv-x="1267" 
d="M527 1802.5q0 50.5 35 86.5t85 36t85 -36t35 -86.5t-35 -86.5t-85 -36t-85 36t-35 86.5zM150 0v10l647 1318h-637v10l81 172h866v-10l-650 -1318h660v-10l-81 -172h-886z" />
    <glyph glyph-name="zdotaccent" unicode="&#x17c;" horiz-adv-x="1053" 
d="M418 1407.5q0 50.5 35 86.5t85 36t85 -36t35 -86.5t-35 -86.5t-85 -36t-85 36t-35 86.5zM100 0v10l523 908h-513v10l81 172h752v-10l-522 -908h532v-10l-81 -172h-772z" />
    <glyph glyph-name="Zcaron" unicode="&#x17d;" horiz-adv-x="1267" 
d="M569 1566l-213 345l116 55h10l150 -208l148 208h10l118 -55l-153 -261l-176 -84h-10zM150 0v10l647 1318h-637v10l81 172h866v-10l-650 -1318h660v-10l-81 -172h-886z" />
    <glyph glyph-name="zcaron" unicode="&#x17e;" horiz-adv-x="1053" 
d="M480 1166l-213 345l116 55h10l150 -208l148 208h10l118 -55l-153 -261l-176 -84h-10zM100 0v10l523 908h-513v10l81 172h752v-10l-522 -908h532v-10l-81 -172h-772z" />
    <glyph glyph-name="longs" unicode="&#x17f;" horiz-adv-x="850" 
d="M450 50l-190 -90h-10v858h-200v10l81 172h119v130q0 165 124 287q116 113 291 113h135v-10l-80 -168h-55q-92 0 -153 -54q-62 -56 -62 -168v-1080z" />
    <glyph glyph-name="uni0191" unicode="&#x191;" horiz-adv-x="1120" 
d="M-15 -450v10l85 182q38 15 68 40q62 54 62 168v1510l106 50h634v-10l-81 -172h-459v-482h540v-10l-81 -172h-459v-714q0 -165 -124 -287q-116 -113 -291 -113z" />
    <glyph glyph-name="florin" unicode="&#x192;" horiz-adv-x="850" 
d="M-15 -450v10l85 182q38 15 68 40q62 54 62 168v868h-150v10l81 172h69v130q0 165 124 287q116 113 291 113h135v-10l-80 -168h-55q-90 0 -153 -54q-62 -54 -62 -168v-130h331v-10l-81 -172h-250v-868q0 -165 -124 -287q-116 -113 -291 -113z" />
    <glyph glyph-name="uni01E4" unicode="&#x1e4;" 
d="M1210 846v-314h150v-10l-81 -172h-83q-29 -131 -121 -225q-142 -145 -370 -145t-370 145q-135 138 -135 355v550q0 217 135 355q142 145 370 145q236 0 370.5 -145t134.5 -335l-190 -90h-10v70q0 134 -72 217q-89 103 -233 103t-233 -103q-72 -83 -72 -217v-550
q0 -134 72 -217q89 -103 233 -103q143 0 233 103q35 40 53 87h-243v10l81 172h181v132h-348v10l81 172h467z" />
    <glyph glyph-name="uni01E5" unicode="&#x1e5;" horiz-adv-x="1160" 
d="M150 380v340q0 165 124 287q116 113 291 113t291 -113q124 -121 124 -287v-72h130v-10l-81 -172h-49v-496q0 -165 -124 -287q-116 -113 -291 -113h-308v10l80 168h228q90 0 152.5 53.5t62.5 168.5v95q-77 -85 -215 -85q-175 0 -291 113q-124 120 -124 287zM350 380
q0 -115 62.5 -168.5t152.5 -53.5t152.5 53.5t62.5 168.5v86h-282v10l81 172h201v72q0 115 -62.5 168.5t-152.5 53.5t-152.5 -53.5t-62.5 -168.5v-340z" />
    <glyph glyph-name="AEacute" unicode="&#x1fc;" horiz-adv-x="1967" 
d="M200 -40v1070q0 216 135 355q142 145 370 145q210 0 305 -120v50l106 50h634v-10l-81 -172h-459v-482h540v-10l-81 -172h-459v-482h707v-10l-81 -172h-826v664h-610v-614l-190 -90h-10zM400 846h610v184q0 134 -72 217q-89 103 -233 103t-233 -103q-72 -83 -72 -217v-184
zM1075 1966h10l176 -84l-221 -316h-10l-117 55z" />
    <glyph glyph-name="aeacute" unicode="&#x1fd;" horiz-adv-x="1690" 
d="M1540 443v-63q0 -165 -124 -287q-116 -113 -291 -113q-137 0 -221 76l-184 -96h-10v105q-81 -85 -215 -85q-187 0 -291 113t-104 267q0 160 113 272q109 108 282 108q132 0 215 -85q0 177 -62 233q-60 54 -153 54h-243v10l80 168h163q159 0 275 -116q22 -22 40 -52
q18 29 40 51q125 117 275 117q170 0 291 -113q124 -116 124 -258v-2l-610 -478q15 -34 42 -57q63 -54 153 -54t152.5 54t62.5 141l190 90h10zM296 360q0 -89 54 -147q52 -56 146 -56q98 0 152 57q60 64 60 144q0 90 -62 146t-149 56q-91 0 -146 -59t-55 -141zM910 471
l418 339q-16 49 -50 78q-63 54 -153 54t-152.5 -53.5t-62.5 -168.5v-249zM910 1566h10l176 -84l-221 -316h-10l-117 55z" />
    <glyph glyph-name="Oslashacute" unicode="&#x1fe;" 
d="M817 1966h10l176 -84l-221 -316h-10l-117 55zM404 -40h-10l-104 50l51 109q-141 138 -141 361v550q0 217 135 355q142 145 370 145q150 0 263 -63l38 83h10l104 -51l-50 -109q140 -142 140 -360v-550q0 -217 -135 -355q-142 -145 -370 -145q-150 0 -263 63zM887 1294
q-76 56 -182 56q-144 0 -233 -103q-72 -83 -72 -217v-550q0 -92 34 -160zM976 1190l-453 -974q76 -56 182 -56q144 0 233 103q72 83 72 217v550q0 92 -34 160z" />
    <glyph glyph-name="oslashacute" unicode="&#x1ff;" horiz-adv-x="1130" 
d="M683 1566h10l176 -84l-221 -316h-10l-117 55zM359 -40h-10l-104 50l36 77q-131 120 -131 293v340q0 165 124 287q116 113 291 113q98 0 179 -36l26 56h10l105 -51l-35 -76q130 -126 130 -293v-340q0 -165 -124 -287q-116 -113 -291 -113q-99 0 -180 37zM668 921
q-46 21 -103 21q-90 0 -152.5 -53.5t-62.5 -168.5v-340q0 -62 18 -105zM762 825l-301 -645q47 -22 104 -22q90 0 152.5 53.5t62.5 168.5v340q0 61 -18 105z" />
    <glyph glyph-name="Scommaaccent" unicode="&#x218;" horiz-adv-x="1330" 
d="M561 -450h-10l-176 84l221 316h10l117 -55zM1169 472q0 -204 -134 -347q-137 -145 -370 -145t-370 145q-135 143 -135 335l190 90h10v-82q0 -122 72 -205q89 -103 233 -103q143 0 233 103q71 81 71 207q0 119 -58 187q-80 94 -246 94q-182 0 -315 120q-100 90 -100 261
q0 201 124 302q118 96 291 96t291 -96q124 -101 124 -277l-190 -90h-10v80q0 114 -65 170q-63 55 -150 55q-97 0 -156 -61t-59 -164q0 -99 45 -149q60 -67 170 -67q242 0 370 -114q134 -119 134 -345z" />
    <glyph glyph-name="scommaaccent" unicode="&#x219;" horiz-adv-x="1070" 
d="M424 -450h-10l-176 84l221 316h10l117 -55zM120 353l190 90h10v-80q0 -112 65 -170q62 -55 150 -55q102 0 159 65q60 68 60 148q0 86 -64 136q-55 43 -156 43q-178 0 -281 78q-91 68 -91 211q0 139 127 230q99 71 246 71q141 0 245 -88q80 -69 99 -160l-190 -90h-10v29
q0 52 -30 89q-48 62 -137 62q-71 0 -115.5 -44.5t-44.5 -98.5q0 -64 54 -102q30 -21 128 -21q203 0 305 -93q111 -101 111 -263q0 -130 -115 -248q-109 -112 -300 -112q-173 0 -291 96q-124 101 -124 277z" />
    <glyph glyph-name="uni021A" unicode="&#x21a;" horiz-adv-x="1066" 
d="M477 -450h-10l-176 84l221 316h10l117 -55zM433 -40v1368h-428v10l81 172h975v-10l-81 -172h-347v-1278l-190 -90h-10z" />
    <glyph glyph-name="uni021B" unicode="&#x21b;" horiz-adv-x="764" 
d="M354 -450h-10l-176 84l221 316h10l117 -55zM282 -40v958h-257v10l81 172h176v360l190 90h10v-450h257v-10l-81 -172h-176v-868l-190 -90h-10z" />
    <glyph glyph-name="uni0237" unicode="&#x237;" horiz-adv-x="600" 
d="M-15 -450v10l85 182q38 15 68 40q62 54 62 168v1100l190 90h10v-1190q0 -165 -124 -287q-116 -113 -291 -113z" />
    <glyph glyph-name="Delta" unicode="&#x394;" horiz-adv-x="1191" 
d="M5 0l488 1468l173 82h10l510 -1550h-1181zM275 182h641l-318 1033z" />
    <glyph glyph-name="Pi" unicode="&#x3a0;" horiz-adv-x="1390" 
d="M210 -40h-10v1500l106 50h884v-1460l-190 -90h-10v1368h-590v-1278z" />
    <glyph glyph-name="Sigma" unicode="&#x3a3;" horiz-adv-x="1203" 
d="M100 0l505 774l-504 686l106 50h755v-10l-81 -172h-465l421 -554l-407 -592h623v-10l-81 -172h-872z" />
    <glyph glyph-name="Omega" unicode="&#x3a9;" 
d="M150 0v10l81 172h215v66q-62 27 -111 72q-135 128 -135 355v355q0 218 135 355q142 145 370 145q223 0 370 -145q135 -134 135 -355v-355q0 -223 -135 -355q-43 -42 -111 -73v-65h296v-10l-81 -172h-377v368q79 24 136 90q72 83 72 217v355q0 134 -72 217
q-89 103 -233 103t-233 -103q-72 -83 -72 -217v-355q0 -137 72 -217q62 -69 136 -91v-367h-458z" />
    <glyph glyph-name="mu" unicode="&#x3bc;" horiz-adv-x="1180" 
d="M200 1050l190 90h10v-760q0 -115 62.5 -168.5t152.5 -53.5t152.5 53.5t62.5 168.5v670l190 90h10v-760q0 -165 -124 -287q-116 -113 -291 -113q-139 0 -215 85v-425l-190 -90h-10v1500z" />
    <glyph glyph-name="pi" unicode="&#x3c0;" horiz-adv-x="1173" 
d="M210 -40h-10v1090l106 50h667v-1050l-190 -90h-10v958h-373v-868z" />
    <glyph glyph-name="uni1E02" unicode="&#x1e02;" horiz-adv-x="1370" 
d="M400 180h285q151 0 240 95q65 69 65 182q0 117 -69 197q-75 92 -236 92h-285v-566zM400 926h285q100 0 161 65q54 58 54 151q0 76 -65 137q-58 51 -150 51h-285v-404zM200 0v1460l106 50h379q169 0 281 -92q133 -108 133 -277q0 -172 -152 -286q49 -21 97 -63
q146 -133 146 -330q0 -198 -128 -325q-137 -137 -377 -137h-485zM474 1802.5q0 50.5 35 86.5t85 36t85 -36t35 -86.5t-35 -86.5t-85 -36t-85 36t-35 86.5z" />
    <glyph glyph-name="uni1E03" unicode="&#x1e03;" horiz-adv-x="1180" 
d="M200 380v1080l190 90h10v-515q76 85 215 85q173 0 291 -113q124 -120 124 -287v-340q0 -165 -124 -287q-116 -113 -291 -113q-173 0 -291 113q-124 120 -124 287zM400 380q0 -115 62.5 -168.5t152.5 -53.5t152.5 53.5t62.5 168.5v340q0 115 -62.5 168.5t-152.5 53.5
t-152.5 -53.5t-62.5 -168.5v-340zM559 1407.5q0 50.5 35 86.5t85 36t85 -36t35 -86.5t-35 -86.5t-85 -36t-85 36t-35 86.5z" />
    <glyph glyph-name="uni1E0A" unicode="&#x1e0a;" horiz-adv-x="1390" 
d="M495 1802.5q0 50.5 35 86.5t85 36t85 -36t35 -86.5t-35 -86.5t-85 -36t-85 36t-35 86.5zM200 0v1460l106 50h379q228 0 370 -145q135 -137 135 -355v-510q0 -217 -135 -355q-142 -145 -370 -145h-485zM400 180h285q144 0 233 103q72 83 72 217v510q0 134 -72 217
q-89 103 -233 103h-285v-1150z" />
    <glyph glyph-name="uni1E0B" unicode="&#x1e0b;" horiz-adv-x="1180" 
d="M350 380q0 -115 62.5 -168.5t152.5 -53.5t152.5 53.5t62.5 168.5v340q0 115 -62.5 168.5t-152.5 53.5t-152.5 -53.5t-62.5 -168.5v-340zM150 380v340q0 165 124 287q116 113 291 113q132 0 215 -85v425l190 90h10v-1170q0 -165 -124 -287q-116 -113 -291 -113
q-173 0 -291 113q-124 120 -124 287zM346 1407.5q0 50.5 35 86.5t85 36t85 -36t35 -86.5t-35 -86.5t-85 -36t-85 36t-35 86.5z" />
    <glyph glyph-name="uni1E1E" unicode="&#x1e1e;" horiz-adv-x="1120" 
d="M470 1802.5q0 50.5 35 86.5t85 36t85 -36t35 -86.5t-35 -86.5t-85 -36t-85 36t-35 86.5zM200 -40v1500l106 50h634v-10l-81 -172h-459v-482h540v-10l-81 -172h-459v-614l-190 -90h-10z" />
    <glyph glyph-name="uni1E1F" unicode="&#x1e1f;" horiz-adv-x="850" 
d="M340 1802.5q0 50.5 35 86.5t85 36t85 -36t35 -86.5t-35 -86.5t-85 -36t-85 36t-35 86.5zM200 -40v858h-150v10l81 172h69v130q0 165 124 287q116 113 291 113h135v-10l-80 -168h-55q-90 0 -153 -54q-62 -54 -62 -168v-130h331v-10l-81 -172h-250v-768l-190 -90h-10z" />
    <glyph glyph-name="uni1E40" unicode="&#x1e40;" horiz-adv-x="2220" 
d="M200 -40v1070q0 216 135 355q142 145 370 145q206 0 351 -145q36 -36 54 -70q23 35 56 67q151 148 349 148q224 0 370 -145q135 -134 135 -355v-980l-190 -90h-10v1070q0 134 -72 217q-89 103 -233 103t-233 -103q-72 -83 -72 -217v-980l-190 -90h-10v1070q0 134 -72 217
q-89 103 -233 103t-233 -103q-72 -83 -72 -217v-980l-190 -90h-10zM986 1802.5q0 50.5 35 86.5t85 36t85 -36t35 -86.5t-35 -86.5t-85 -36t-85 36t-35 86.5z" />
    <glyph glyph-name="uni1E41" unicode="&#x1e41;" horiz-adv-x="1760" 
d="M150 -40v760q0 165 124 287q116 113 291 113q159 0 275 -116q22 -22 40 -52q18 29 40 51q125 117 275 117q173 0 291 -113q124 -120 124 -287v-670l-190 -90h-10v760q0 115 -62.5 168.5t-152.5 53.5t-152.5 -53.5t-62.5 -168.5v-670l-190 -90h-10v760q0 115 -62.5 168.5
t-152.5 53.5t-152.5 -53.5t-62.5 -168.5v-670l-190 -90h-10zM770 1407.5q0 50.5 35 86.5t85 36t85 -36t35 -86.5t-35 -86.5t-85 -36t-85 36t-35 86.5z" />
    <glyph glyph-name="uni1E56" unicode="&#x1e56;" horiz-adv-x="1340" 
d="M495 1802.5q0 50.5 35 86.5t85 36t85 -36t35 -86.5t-35 -86.5t-85 -36t-85 36t-35 86.5zM400 690h285q131 0 233 103q72 73 72 217q0 134 -72 217q-89 103 -233 103h-285v-640zM200 -40v1500l106 50h379q228 0 370 -145q135 -138 135 -355q0 -218 -135 -355
q-143 -145 -370 -145h-285v-460l-190 -90h-10z" />
    <glyph glyph-name="uni1E57" unicode="&#x1e57;" horiz-adv-x="1180" 
d="M830 720q0 115 -62.5 168.5t-152.5 53.5t-152.5 -53.5t-62.5 -168.5v-340q0 -115 62.5 -168.5t152.5 -53.5t152.5 53.5t62.5 168.5v340zM1030 720v-340q0 -165 -124 -287q-116 -113 -291 -113q-132 0 -215 85v-425l-190 -90h-10v1170q0 165 124 287q116 113 291 113
q173 0 291 -113q124 -120 124 -287zM500 1407.5q0 50.5 35 86.5t85 36t85 -36t35 -86.5t-35 -86.5t-85 -36t-85 36t-35 86.5z" />
    <glyph glyph-name="uni1E60" unicode="&#x1e60;" horiz-adv-x="1330" 
d="M546 1802.5q0 50.5 35 86.5t85 36t85 -36t35 -86.5t-35 -86.5t-85 -36t-85 36t-35 86.5zM1169 472q0 -204 -134 -347q-137 -145 -370 -145t-370 145q-135 143 -135 335l190 90h10v-82q0 -122 72 -205q89 -103 233 -103q143 0 233 103q71 81 71 207q0 119 -58 187
q-80 94 -246 94q-182 0 -315 120q-100 90 -100 261q0 201 124 302q118 96 291 96t291 -96q124 -101 124 -277l-190 -90h-10v80q0 114 -65 170q-63 55 -150 55q-97 0 -156 -61t-59 -164q0 -99 45 -149q60 -67 170 -67q242 0 370 -114q134 -119 134 -345z" />
    <glyph glyph-name="uni1E61" unicode="&#x1e61;" horiz-adv-x="1070" 
d="M414 1407.5q0 50.5 35 86.5t85 36t85 -36t35 -86.5t-35 -86.5t-85 -36t-85 36t-35 86.5zM120 353l190 90h10v-80q0 -112 65 -170q62 -55 150 -55q102 0 159 65q60 68 60 148q0 86 -64 136q-55 43 -156 43q-178 0 -281 78q-91 68 -91 211q0 139 127 230q99 71 246 71
q141 0 245 -88q80 -69 99 -160l-190 -90h-10v29q0 52 -30 89q-48 62 -137 62q-71 0 -115.5 -44.5t-44.5 -98.5q0 -64 54 -102q30 -21 128 -21q203 0 305 -93q111 -101 111 -263q0 -130 -115 -248q-109 -112 -300 -112q-173 0 -291 96q-124 101 -124 277z" />
    <glyph glyph-name="uni1E6A" unicode="&#x1e6a;" horiz-adv-x="1066" 
d="M406 1802.5q0 50.5 35 86.5t85 36t85 -36t35 -86.5t-35 -86.5t-85 -36t-85 36t-35 86.5zM433 -40v1368h-428v10l81 172h975v-10l-81 -172h-347v-1278l-190 -90h-10z" />
    <glyph glyph-name="uni1E6B" unicode="&#x1e6b;" horiz-adv-x="764" 
d="M282 -40v958h-257v10l81 172h176v360l190 90h10v-450h257v-10l-81 -172h-176v-868l-190 -90h-10zM262 1802.5q0 50.5 35 86.5t85 36t85 -36t35 -86.5t-35 -86.5t-85 -36t-85 36t-35 86.5z" />
    <glyph glyph-name="Wgrave" unicode="&#x1e80;" horiz-adv-x="2220" 
d="M2020 1550v-1070q0 -216 -135 -355q-142 -145 -370 -145q-206 0 -351 145q-36 36 -54 70q-23 -35 -56 -67q-151 -148 -349 -148q-224 0 -370 145q-135 134 -135 355v980l190 90h10v-1070q0 -134 72 -217q89 -103 233 -103t233 103q72 83 72 217v980l190 90h10v-1070
q0 -134 72 -217q89 -103 233 -103t233 103q72 83 72 217v980l190 90h10zM1051 1966h10l162 -345l-117 -55h-10l-221 316z" />
    <glyph glyph-name="wgrave" unicode="&#x1e81;" horiz-adv-x="1760" 
d="M1610 1140v-760q0 -165 -124 -287q-116 -113 -291 -113q-159 0 -275 116q-22 22 -40 52q-18 -29 -40 -51q-125 -117 -275 -117q-173 0 -291 113q-124 120 -124 287v670l190 90h10v-760q0 -115 62.5 -168.5t152.5 -53.5t152.5 53.5t62.5 168.5v670l190 90h10v-760
q0 -115 62.5 -168.5t152.5 -53.5t152.5 53.5t62.5 168.5v670l190 90h10zM829 1566h10l162 -345l-117 -55h-10l-221 316z" />
    <glyph glyph-name="Wacute" unicode="&#x1e82;" horiz-adv-x="2220" 
d="M2020 1550v-1070q0 -216 -135 -355q-142 -145 -370 -145q-206 0 -351 145q-36 36 -54 70q-23 -35 -56 -67q-151 -148 -349 -148q-224 0 -370 145q-135 134 -135 355v980l190 90h10v-1070q0 -134 72 -217q89 -103 233 -103t233 103q72 83 72 217v980l190 90h10v-1070
q0 -134 72 -217q89 -103 233 -103t233 103q72 83 72 217v980l190 90h10zM1153 1966h10l176 -84l-221 -316h-10l-117 55z" />
    <glyph glyph-name="wacute" unicode="&#x1e83;" horiz-adv-x="1760" 
d="M1610 1140v-760q0 -165 -124 -287q-116 -113 -291 -113q-159 0 -275 116q-22 22 -40 52q-18 -29 -40 -51q-125 -117 -275 -117q-173 0 -291 113q-124 120 -124 287v670l190 90h10v-760q0 -115 62.5 -168.5t152.5 -53.5t152.5 53.5t62.5 168.5v670l190 90h10v-760
q0 -115 62.5 -168.5t152.5 -53.5t152.5 53.5t62.5 168.5v670l190 90h10zM917 1566h10l176 -84l-221 -316h-10l-117 55z" />
    <glyph glyph-name="Wdieresis" unicode="&#x1e84;" horiz-adv-x="2220" 
d="M2020 1550v-1070q0 -216 -135 -355q-142 -145 -370 -145q-206 0 -351 145q-36 36 -54 70q-23 -35 -56 -67q-151 -148 -349 -148q-224 0 -370 145q-135 134 -135 355v980l190 90h10v-1070q0 -134 72 -217q89 -103 233 -103t233 103q72 83 72 217v980l190 90h10v-1070
q0 -134 72 -217q89 -103 233 -103t233 103q72 83 72 217v980l190 90h10zM1128 1802.5q0 50.5 35 86.5t85 36t85 -36t35 -86.5t-35 -86.5t-85 -36t-85 36t-35 86.5zM828 1802.5q0 50.5 35 86.5t85 36t85 -36t35 -86.5t-35 -86.5t-85 -36t-85 36t-35 86.5z" />
    <glyph glyph-name="wdieresis" unicode="&#x1e85;" horiz-adv-x="1760" 
d="M1610 1140v-760q0 -165 -124 -287q-116 -113 -291 -113q-159 0 -275 116q-22 22 -40 52q-18 -29 -40 -51q-125 -117 -275 -117q-173 0 -291 113q-124 120 -124 287v670l190 90h10v-760q0 -115 62.5 -168.5t152.5 -53.5t152.5 53.5t62.5 168.5v670l190 90h10v-760
q0 -115 62.5 -168.5t152.5 -53.5t152.5 53.5t62.5 168.5v670l190 90h10zM902 1407.5q0 50.5 35 86.5t85 36t85 -36t35 -86.5t-35 -86.5t-85 -36t-85 36t-35 86.5zM602 1407.5q0 50.5 35 86.5t85 36t85 -36t35 -86.5t-35 -86.5t-85 -36t-85 36t-35 86.5z" />
    <glyph glyph-name="Ygrave" unicode="&#x1ef2;" horiz-adv-x="1310" 
d="M596 1966h10l162 -345l-117 -55h-10l-221 316zM555 -40v524q-157 26 -270 137q-135 133 -135 355v484l190 90h10v-574q0 -134 72 -217q89 -103 233 -103q152 0 233 103q72 92 72 217v484l190 90h10v-574q0 -216 -135 -355q-109 -112 -270 -137v-434l-190 -90h-10z" />
    <glyph glyph-name="ygrave" unicode="&#x1ef3;" horiz-adv-x="1180" 
d="M150 380v670l190 90h10v-760q0 -115 62.5 -168.5t152.5 -53.5t152.5 53.5t62.5 168.5v670l190 90h10v-1170q0 -165 -124 -287q-116 -113 -291 -113h-308v10l80 168h228q90 0 153 54q62 54 62 168v95q-74 -85 -215 -85q-171 0 -291 113q-124 118 -124 287zM473 1566h10
l162 -345l-117 -55h-10l-221 316z" />
    <glyph glyph-name="uni2010" unicode="&#x2010;" horiz-adv-x="1214" 
d="M225 664v10l81 172h683v-10l-81 -172h-683z" />
    <glyph glyph-name="uni2011" unicode="&#x2011;" horiz-adv-x="1214" 
d="M225 664v10l81 172h683v-10l-81 -172h-683z" />
    <glyph glyph-name="figuredash" unicode="&#x2012;" horiz-adv-x="1214" 
d="M150 664v10l81 172h833v-10l-81 -172h-833z" />
    <glyph glyph-name="endash" unicode="&#x2013;" horiz-adv-x="1214" 
d="M150 664v10l81 172h833v-10l-81 -172h-833z" />
    <glyph glyph-name="emdash" unicode="&#x2014;" horiz-adv-x="1214" 
d="M25 664v10l81 172h1083v-10l-81 -172h-1083z" />
    <glyph glyph-name="afii00208" unicode="&#x2015;" horiz-adv-x="1214" 
d="M25 664v10l81 172h1083v-10l-81 -172h-1083z" />
    <glyph glyph-name="underscoredbl" unicode="&#x2017;" horiz-adv-x="1214" 
d="M150 -182v10l81 172h833v-10l-81 -172h-833zM150 -410v10l81 172h833v-10l-81 -172h-833z" />
    <glyph glyph-name="quoteleft" unicode="&#x2018;" horiz-adv-x="609" 
d="M395 1550l43 -50q-113 -115 -113 -216q0 -121 134 -208l-190 -90h-10q-109 107 -109 244q0 191 245 320z" />
    <glyph glyph-name="quoteright" unicode="&#x2019;" horiz-adv-x="609" 
d="M340 1550h10q109 -107 109 -244q0 -191 -245 -320l-43 50q113 115 113 216q0 121 -134 208z" />
    <glyph glyph-name="quotesinglbase" unicode="&#x201a;" horiz-adv-x="609" 
d="M340 278h10q109 -107 109 -244q0 -191 -245 -320l-43 50q113 115 113 216q0 121 -134 208z" />
    <glyph glyph-name="quotereversed" unicode="&#x201b;" horiz-adv-x="609" 
d="M259 1550h10l190 -90q-134 -87 -134 -208q0 -101 113 -216l-43 -50q-245 129 -245 320q0 137 109 244z" />
    <glyph glyph-name="quotedblleft" unicode="&#x201c;" horiz-adv-x="924" 
d="M395 1550l43 -50q-113 -115 -113 -216q0 -121 134 -208l-190 -90h-10q-109 107 -109 244q0 191 245 320zM710 1550l43 -50q-113 -115 -113 -216q0 -121 134 -208l-190 -90h-10q-109 107 -109 244q0 191 245 320z" />
    <glyph glyph-name="quotedblright" unicode="&#x201d;" horiz-adv-x="924" 
d="M655 1550h10q109 -107 109 -244q0 -191 -245 -320l-43 50q113 115 113 216q0 121 -134 208zM340 1550h10q109 -107 109 -244q0 -191 -245 -320l-43 50q113 115 113 216q0 121 -134 208z" />
    <glyph glyph-name="quotedblbase" unicode="&#x201e;" horiz-adv-x="924" 
d="M655 278h10q109 -107 109 -244q0 -191 -245 -320l-43 50q113 115 113 216q0 121 -134 208zM340 278h10q109 -107 109 -244q0 -191 -245 -320l-43 50q113 115 113 216q0 121 -134 208z" />
    <glyph glyph-name="uni201F" unicode="&#x201f;" horiz-adv-x="924" 
d="M259 1550h10l190 -90q-134 -87 -134 -208q0 -101 113 -216l-43 -50q-245 129 -245 320q0 137 109 244zM574 1550h10l190 -90q-134 -87 -134 -208q0 -101 113 -216l-43 -50q-245 129 -245 320q0 137 109 244z" />
    <glyph glyph-name="dagger" unicode="&#x2020;" horiz-adv-x="1214" 
d="M517 -40h-10v1036h-357v10l81 172h276v282l190 90h10v-372h357v-10l-81 -172h-276v-946z" />
    <glyph glyph-name="daggerdbl" unicode="&#x2021;" horiz-adv-x="1214" 
d="M517 -40h-10v372h-357v10l81 172h276v482h-357v10l81 172h276v282l190 90h10v-372h357v-10l-81 -172h-276v-482h357v-10l-81 -172h-276v-282z" />
    <glyph glyph-name="bullet" unicode="&#x2022;" horiz-adv-x="1130" 
d="M150 754q0 165 124 287q116 113 291 113q173 0 291 -113q124 -120 124 -287q0 -165 -124 -287q-116 -113 -291 -113q-173 0 -291 113q-124 120 -124 287z" />
    <glyph glyph-name="uni2023" unicode="&#x2023;" horiz-adv-x="928" 
d="M200 362v779l628 -375z" />
    <glyph glyph-name="onedotenleader" unicode="&#x2024;" horiz-adv-x="600" 
d="M180 102.5q0 50.5 35 86.5t85 36t85 -36t35 -86.5t-35 -86.5t-85 -36t-85 36t-35 86.5z" />
    <glyph glyph-name="twodotenleader" unicode="&#x2025;" horiz-adv-x="936" 
d="M516 102.5q0 50.5 35 86.5t85 36t85 -36t35 -86.5t-35 -86.5t-85 -36t-85 36t-35 86.5zM180 102.5q0 50.5 35 86.5t85 36t85 -36t35 -86.5t-35 -86.5t-85 -36t-85 36t-35 86.5z" />
    <glyph glyph-name="ellipsis" unicode="&#x2026;" horiz-adv-x="1272" 
d="M852 102.5q0 50.5 35 86.5t85 36t85 -36t35 -86.5t-35 -86.5t-85 -36t-85 36t-35 86.5zM516 102.5q0 50.5 35 86.5t85 36t85 -36t35 -86.5t-35 -86.5t-85 -36t-85 36t-35 86.5zM180 102.5q0 50.5 35 86.5t85 36t85 -36t35 -86.5t-35 -86.5t-85 -36t-85 36t-35 86.5z" />
    <glyph glyph-name="uni2027" unicode="&#x2027;" horiz-adv-x="600" 
d="M180 753.5q0 50.5 35 86.5t85 36t85 -36t35 -86.5t-35 -86.5t-85 -36t-85 36t-35 86.5z" />
    <glyph glyph-name="perthousand" unicode="&#x2030;" horiz-adv-x="3029" 
d="M2049 380q0 165 124 287q116 113 291 113q173 0 291 -113q124 -120 124 -287q0 -165 -124 -287q-116 -113 -291 -113q-173 0 -291 113q-124 120 -124 287zM2679 380q0 115 -62.5 168.5t-152.5 53.5t-152.5 -53.5t-62.5 -168.5t62.5 -168.5t152.5 -53.5t152.5 53.5
t62.5 168.5zM1164 380q0 165 124 287q116 113 291 113q173 0 291 -113q124 -120 124 -287q0 -165 -124 -287q-116 -113 -291 -113q-173 0 -291 113q-124 120 -124 287zM1794 380q0 115 -62.5 168.5t-152.5 53.5t-152.5 -53.5t-62.5 -168.5t62.5 -168.5t152.5 -53.5
t152.5 53.5t62.5 168.5zM150 1130q0 165 124 287q116 113 291 113q173 0 291 -113q124 -120 124 -287q0 -165 -124 -287q-116 -113 -291 -113q-173 0 -291 113q-124 120 -124 287zM780 1130q0 115 -62.5 168.5t-152.5 53.5t-152.5 -53.5t-62.5 -168.5t62.5 -168.5
t152.5 -53.5t152.5 53.5t62.5 168.5zM788 -40l-141 68l709 1522h10l141 -68l-709 -1522h-10z" />
    <glyph glyph-name="minute" unicode="&#x2032;" horiz-adv-x="680" 
d="M344 1550h10l176 -84l-253 -407h-10l-117 55z" />
    <glyph glyph-name="second" unicode="&#x2033;" horiz-adv-x="998" 
d="M662 1550h10l176 -84l-253 -407h-10l-117 55zM344 1550h10l176 -84l-253 -407h-10l-117 55z" />
    <glyph glyph-name="uni2034" unicode="&#x2034;" horiz-adv-x="1316" 
d="M980 1550h10l176 -84l-253 -407h-10l-117 55zM662 1550h10l176 -84l-253 -407h-10l-117 55zM344 1550h10l176 -84l-253 -407h-10l-117 55z" />
    <glyph glyph-name="uni2035" unicode="&#x2035;" horiz-adv-x="680" 
d="M326 1550h10l194 -436l-117 -55h-10l-253 407z" />
    <glyph glyph-name="uni2036" unicode="&#x2036;" horiz-adv-x="998" 
d="M326 1550h10l194 -436l-117 -55h-10l-253 407zM644 1550h10l194 -436l-117 -55h-10l-253 407z" />
    <glyph glyph-name="uni2037" unicode="&#x2037;" horiz-adv-x="1316" 
d="M336 1550l194 -436l-117 -55h-10l-253 407l176 84h10zM644 1550h10l194 -436l-117 -55h-10l-253 407zM962 1550h10l194 -436l-117 -55h-10l-253 407z" />
    <glyph glyph-name="guilsinglleft" unicode="&#x2039;" horiz-adv-x="823" 
d="M439 304l-289 488l289 492h10l174 -82l-242 -407l242 -409l-174 -82h-10z" />
    <glyph glyph-name="guilsinglright" unicode="&#x203a;" horiz-adv-x="823" 
d="M384 304h-10l-174 82l242 409l-242 407l174 82h10l289 -492z" />
    <glyph glyph-name="uni2043" unicode="&#x2043;" horiz-adv-x="1183" 
d="M682 1220v-299l189 109l157 -109l5 -8l-260 -150l260 -150l-5 -8l-157 -109l-189 109v-218l-172 -81h-10v299l-189 -109l-156 109l-5 8l259 150l-259 150l5 8l156 109l189 -109v218l172 81h10z" />
    <glyph glyph-name="fraction" unicode="&#x2044;" horiz-adv-x="974" 
d="M151 -140l-141 68l802 1722h10l142 -68l-803 -1722h-10z" />
    <glyph glyph-name="Euro" unicode="&#x20ac;" horiz-adv-x="1582" 
d="M1382 550v-70q0 -217 -135 -355q-142 -145 -370 -145t-370 145q-135 138 -135 355v27h-222v10l81 172h141v139h-222v10l81 172h141v20q0 217 135 355q142 145 370 145q236 0 370.5 -145t134.5 -335l-190 -90h-10v70q0 134 -72 217q-89 103 -233 103t-233 -103
q-72 -83 -72 -217v-20h492v-10l-81 -172h-411v-139h492v-10l-81 -172h-411v-27q0 -134 72 -217q89 -103 233 -103t233 103q72 83 72 197l190 90h10z" />
    <glyph glyph-name="afii61248" unicode="&#x2105;" horiz-adv-x="1642" 
d="M1222 -20q-123 0 -197 78q-73 77 -73 210v283q0 133 73 210q76 79 197 79t197 -79q73 -77 73 -210v-283q0 -133 -73 -210q-74 -78 -197 -78zM1221 132q52 0 92 43q29 31 29 93v294q0 59 -29 93q-37 43 -91 43q-52 0 -91 -43q-29 -32 -29 -93v-294q0 -62 29 -93
q40 -43 90 -43zM704 1028v-66q0 -131 -74 -210q-76 -82 -210 -82q-123 0 -197 78q-73 77 -73 210v283q0 133 73 210q76 79 197 79q124 0 210 -83q74 -74 74 -210l-114 -55h-36v70q0 60 -29 93q-38 43 -97 43q-57 0 -99 -43q-29 -30 -29 -93v-294q0 -62 29 -93q40 -43 99 -43
t97 43q29 34 29 93v15l115 55h35zM538 -40l-141 68l709 1522h10l141 -68l-709 -1522h-10z" />
    <glyph glyph-name="afii61289" unicode="&#x2113;" horiz-adv-x="1108" 
d="M540 672q60 124 116 310q73 242 73 407q-52 -84 -115 -291q-74 -241 -74 -426zM150 0q100 146 190 296q-8 70 -8 148q0 148 29 289q120 600 215 710q76 88 194 88q51 0 90 -33q48 -39 48 -160q0 -92 -30 -246q-70 -350 -356 -820q33 -156 89 -156q19 0 42 24q31 32 63 88
h176q-77 -128 -141.5 -188t-148.5 -60q-128 0 -199 101l-52 -81h-201z" />
    <glyph glyph-name="trademark" unicode="&#x2122;" horiz-adv-x="1840" 
d="M364 685v684h-214v36l50 105h528v-36l-50 -105h-164v-630l-114 -54h-36zM710 686v545q0 133 73 210q76 79 197 79q120 0 195 -77q76 76 195 76q121 0 197 -79q73 -77 73 -210v-492l-115 -54h-35v557q0 59 -29 93q-37 43 -91 43q-52 0 -91 -43q-29 -32 -29 -93v-502v-2
l-116 -53l-34 1v557q0 59 -29 93q-37 43 -91 43q-52 0 -91 -43q-29 -32 -29 -93v-504l-116 -53z" />
    <glyph glyph-name="uni2126" unicode="&#x2126;" 
d="M150 0v10l81 172h215v66q-62 27 -111 72q-135 128 -135 355v355q0 218 135 355q142 145 370 145q223 0 370 -145q135 -134 135 -355v-355q0 -223 -135 -355q-43 -42 -111 -73v-65h296v-10l-81 -172h-377v368q79 24 136 90q72 83 72 217v355q0 134 -72 217
q-89 103 -233 103t-233 -103q-72 -83 -72 -217v-355q0 -137 72 -217q62 -69 136 -91v-367h-458z" />
    <glyph glyph-name="estimated" unicode="&#x212e;" horiz-adv-x="1358" 
d="M381 550v-371q120 -121 298 -121q254 0 395 246l72 -43q-120 -173 -232 -224.5t-235 -51.5q-237 0 -383 160t-146 405q0 247 147 406t382 159q214 0 366 -142t163 -423h-827zM977 624v297q-128 121 -300 121q-175 0 -296 -122v-296h596z" />
    <glyph glyph-name="partialdiff" unicode="&#x2202;" horiz-adv-x="1267" 
d="M458 0q-137 0 -222.5 91t-85.5 256q0 209 153 387q200 233 478 233q35 0 105 -2q0 148 -17 236q-22 112 -64 168q-44 58 -94 58q-67 0 -118 -80q-38 -60 -74 -190l-135 60q69 154 168 225q95 68 192 68q132 0 227 -139q96 -140 96 -420q0 -281 -87 -513
q-86 -224 -233 -331t-289 -107zM488 92q74 0 148 97q61 79 130 204q90 162 122 474q-40 16 -114 16q-107 0 -217 -128q-72 -83 -121 -174q-74 -137 -74 -248q0 -100 19 -158q28 -83 107 -83z" />
    <glyph glyph-name="uni2206" unicode="&#x2206;" horiz-adv-x="1191" 
d="M5 0l488 1468l173 82h10l510 -1550h-1181zM275 182h641l-318 1033z" />
    <glyph glyph-name="product" unicode="&#x220f;" horiz-adv-x="1390" 
d="M210 -450h-10v1910l106 50h884v-1870l-190 -90h-10v1778h-590v-1688z" />
    <glyph glyph-name="summation" unicode="&#x2211;" horiz-adv-x="1203" 
d="M100 -410l478 1000l-477 870l106 50h755v-10l-81 -172h-497l420 -740l-416 -816h665v-10l-81 -172h-872z" />
    <glyph glyph-name="minus" unicode="&#x2212;" horiz-adv-x="1214" 
d="M150 664v10l81 172h833v-10l-81 -172h-833z" />
    <glyph glyph-name="uni2215" unicode="&#x2215;" horiz-adv-x="974" 
d="M151 -140l-141 68l802 1722h10l142 -68l-803 -1722h-10z" />
    <glyph glyph-name="asteriskmath" unicode="&#x2217;" horiz-adv-x="1183" 
d="M682 1220v-299l189 109l157 -109l5 -8l-260 -150l260 -150l-5 -8l-157 -109l-189 109v-218l-172 -81h-10v299l-189 -109l-156 109l-5 8l259 150l-259 150l5 8l156 109l189 -109v218l172 81h10z" />
    <glyph glyph-name="uni2218" unicode="&#x2218;" horiz-adv-x="1130" 
d="M150 754q0 165 124 287q116 113 291 113q173 0 291 -113q124 -120 124 -287q0 -165 -124 -287q-116 -113 -291 -113q-173 0 -291 113q-124 120 -124 287zM780 754q0 115 -62.5 168.5t-152.5 53.5t-152.5 -53.5t-62.5 -168.5t62.5 -168.5t152.5 -53.5t152.5 53.5
t62.5 168.5z" />
    <glyph glyph-name="uni2219" unicode="&#x2219;" horiz-adv-x="600" 
d="M180 753.5q0 50.5 35 86.5t85 36t85 -36t35 -86.5t-35 -86.5t-85 -36t-85 36t-35 86.5z" />
    <glyph glyph-name="radical" unicode="&#x221a;" horiz-adv-x="1452" 
d="M525 -40h-10l-206 609h-209v10l81 172h277l147 -480l452 1239h345v-10l-81 -172h-143l-480 -1286z" />
    <glyph glyph-name="uni221B" unicode="&#x221b;" horiz-adv-x="1452" 
d="M525 -40h-10l-206 609h-209v10l81 172h277l147 -480l452 1239h345v-10l-81 -172h-143l-480 -1286zM275 1042l107 58h28v-62q0 -51 27 -83q33 -39 89 -39q53 0 87 39q27 31 27 86q0 45 -21 70q-29 34 -97 35h-113l128 237h-222v33l45 94h395l-167 -258q69 -7 118 -50
q68 -61 68 -164q0 -112 -67 -180t-182 -68t-183 69q-67 68 -67 183z" />
    <glyph glyph-name="infinity" unicode="&#x221e;" horiz-adv-x="1761" 
d="M780 754q0 115 -62.5 168.5t-152.5 53.5t-152.5 -53.5t-62.5 -168.5t62.5 -168.5t152.5 -53.5t152.5 53.5t62.5 168.5zM150 754q0 165 124 287q116 113 291 113q178 0 291 -113q13 -13 25 -26q11 13 24 26q113 113 291 113q173 0 291 -113q124 -120 124 -287
q0 -166 -124 -287q-116 -113 -291 -113q-178 0 -291 113q-12 12 -25 26q-11 -13 -24 -26q-113 -113 -291 -113q-173 0 -291 113q-124 120 -124 287zM1411 754q0 115 -62.5 168.5t-152.5 53.5t-152.5 -53.5t-62.5 -168.5t62.5 -168.5t152.5 -53.5t152.5 53.5t62.5 168.5z" />
    <glyph glyph-name="approxequal" unicode="&#x2248;" horiz-adv-x="1138" 
d="M150 397q0 361 237 361q134 0 223 -101q73 -83 128 -83q72 0 72 103l168 81h10q0 -361 -237 -361q-134 0 -223 101q-73 83 -128 83q-72 0 -72 -103l-168 -81h-10zM150 748q0 361 237 361q134 0 223 -101q73 -83 128 -83q72 0 72 103l168 81h10q0 -361 -237 -361
q-134 0 -223 101q-73 83 -128 83q-72 0 -72 -103l-168 -81h-10z" />
    <glyph glyph-name="notequal" unicode="&#x2260;" horiz-adv-x="1214" 
d="M430 200l-141 68l100 214h-239v10l81 172h242l85 182h-408v10l81 172h412l131 282h10l141 -68l-100 -214h239v-10l-81 -172h-242l-85 -182h408v-10l-81 -172h-412l-131 -282h-10z" />
    <glyph glyph-name="equivalence" unicode="&#x2261;" horiz-adv-x="1214" 
d="M150 300v10l81 172h833v-10l-81 -172h-833zM150 1028v10l81 172h833v-10l-81 -172h-833zM150 664v10l81 172h833v-10l-81 -172h-833z" />
    <glyph glyph-name="lessequal" unicode="&#x2264;" horiz-adv-x="1338" 
d="M150 801v10l82 173l824 351l82 -173v-10l-674 -277l674 -277v-10l-82 -173zM150 191v10l81 172h907v-10l-81 -172h-907z" />
    <glyph glyph-name="greaterequal" unicode="&#x2265;" horiz-adv-x="1338" 
d="M1188 966v-10l-82 -173l-824 -351l-82 173v10l674 277l-674 277v10l82 173zM200 191v10l81 172h907v-10l-81 -172h-907z" />
    <glyph glyph-name="lozenge" unicode="&#x25ca;" horiz-adv-x="1174" 
d="M601 287l249 438l-271 475l-251 -446zM587 0l-467 738l467 772l467 -769z" />
    </font>
</defs>
</svg>
