<?xml version="1.0" standalone="no"?>
<!DOCTYPE svg PUBLIC "-//W3C//DTD SVG 1.1//EN" "http://www.w3.org/Graphics/SVG/1.1/DTD/svg11.dtd" >
<svg xmlns="http://www.w3.org/2000/svg" xmlns:xlink="http://www.w3.org/1999/xlink" version="1.1">
<metadata>
Created by FontForge 20170731 at Mon Aug 15 18:15:13 2011
 By Aleksey,,,
Copyright (c) 2011, wmk69 (wmk69@o2.pl)
with Reserved Font Names 'NovaSlim' and 'Nova Slim'.

This Font Software is licensed under the SIL Open Font License, Version 1.1.
This license is available with a FAQ at:
http://scripts.sil.org/OFL
</metadata>
<defs>
<font id="NovaSlim" horiz-adv-x="1410" >
  <font-face 
    font-family="Nova Slim"
    font-weight="400"
    font-stretch="normal"
    units-per-em="2048"
    panose-1="2 12 5 4 2 4 4 6 2 4"
    ascent="1638"
    descent="-410"
    x-height="1100"
    cap-height="1550"
    bbox="-15 -450 2879 1966"
    underline-thickness="122"
    underline-position="-447"
    unicode-range="U+0020-25CA"
  />
<missing-glyph horiz-adv-x="894" 
d="M150 0v1510h594v-1510h-594zM268 1392v-1274h358v1274h-358z" />
    <glyph glyph-name=".notdef" horiz-adv-x="894" 
d="M150 0v1510h594v-1510h-594zM268 1392v-1274h358v1274h-358z" />
    <glyph glyph-name=".null" horiz-adv-x="0" 
 />
    <glyph glyph-name="nonmarkingreturn" horiz-adv-x="682" 
 />
    <glyph glyph-name="space" unicode=" " horiz-adv-x="800" 
 />
    <glyph glyph-name="exclam" unicode="!" horiz-adv-x="600" 
d="M180 102.5q0 50.5 35 86.5t85 36t85 -36t35 -86.5t-35 -86.5t-85 -36t-85 36t-35 86.5zM390 1550h10v-1040l-190 -90h-10v1040z" />
    <glyph glyph-name="quotedbl" unicode="&#x22;" horiz-adv-x="747" 
d="M587 1550h10v-484l-156 -74h-10v484zM306 1550h10v-484l-156 -74h-10v484z" />
    <glyph glyph-name="numbersign" unicode="#" horiz-adv-x="1368" 
d="M458 222h-10v298h-298v10l81 172h217v108h-298v10l81 172h217v217l172 81h10v-298h108v217l172 81h10v-298h298v-10l-81 -172h-217v-108h298v-10l-81 -172h-217v-217l-172 -81h-10v298h-108v-217zM630 702h108v108h-108v-108z" />
    <glyph glyph-name="dollar" unicode="$" horiz-adv-x="1329" 
d="M607 -240v222q-193 17 -312 143q-135 143 -135 335l190 90h10v-152q0 -122 72 -205q70 -81 175 -98v659q-146 17 -257 117q-100 90 -100 261q0 202 124 302q98 79 233 93v173l106 50h10v-223q135 -14 233 -93q124 -100 124 -277l-190 -90h-10v128q0 113 -65 170
q-41 36 -92 48v-484q200 -12 312 -112q134 -120 134 -345q0 -205 -134 -347q-119 -126 -312 -143v-172l-106 -50h-10zM607 936v478q-58 -13 -98 -55q-59 -62 -59 -212q0 -99 45 -149q43 -48 112 -62zM723 748v-653q104 17 175 98t71 277q0 118 -58 187q-65 77 -188 91z" />
    <glyph glyph-name="percent" unicode="%" horiz-adv-x="2144" 
d="M1794 380q0 183 -62.5 236.5t-152.5 53.5t-152.5 -53.5t-62.5 -236.5t62.5 -236.5t152.5 -53.5t152.5 53.5t62.5 236.5zM1164 380q0 165 124 287q116 113 291 113q173 0 291 -113q124 -120 124 -287q0 -165 -124 -287q-116 -113 -291 -113q-173 0 -291 113
q-124 120 -124 287zM150 1130q0 165 124 287q116 113 291 113q173 0 291 -113q124 -120 124 -287q0 -165 -124 -287q-116 -113 -291 -113q-173 0 -291 113q-124 120 -124 287zM780 1130q0 183 -62.5 236.5t-152.5 53.5t-152.5 -53.5t-62.5 -236.5t62.5 -236.5t152.5 -53.5
t152.5 53.5t62.5 236.5zM788 -40l-141 68l709 1522h10l141 -68l-709 -1522h-10z" />
    <glyph glyph-name="ampersand" unicode="&#x26;" horiz-adv-x="1684" 
d="M360 454q0 -124 72 -211q79 -95 228 -95q105 0 334 280l-314 378q-121 -2 -218 -82q-102 -84 -102 -270zM669 -40q-244 0 -392 162q-117 129 -117 346q0 197 148 333q60 55 119 75q-177 86 -177 261q0 196 124 297q118 96 291 96q177 0 291 -96q124 -104 124 -297
l-190 -90h-10v146q0 116 -65 172q-62 55 -150 55q-98 0 -156 -61q-59 -61 -59 -222q0 -91 45 -139q62 -66 158 -74.5t181 -8.5l302 -361l304 308h10l105 -50l-347 -343l356 -426l-174 -82h-10l-314 381z" />
    <glyph glyph-name="quotesingle" unicode="'" horiz-adv-x="466" 
d="M306 1550h10v-484l-156 -74h-10v484z" />
    <glyph glyph-name="parenleft" unicode="(" horiz-adv-x="755" 
d="M705 -240q-228 0 -370 145q-135 138 -135 355v990q0 217 135 355q142 145 370 145v-110q-146 -1 -233 -103q-72 -85 -72 -217v-1130q0 -132 72 -217q87 -102 233 -103v-110z" />
    <glyph glyph-name="parenright" unicode=")" horiz-adv-x="755" 
d="M50 -240v110q146 1 233 103q72 85 72 217v1130q0 132 -72 217q-87 102 -233 103v110q228 0 370 -145q135 -138 135 -355v-990q0 -217 -135 -355q-142 -145 -370 -145z" />
    <glyph glyph-name="asterisk" unicode="*" horiz-adv-x="1183" 
d="M682 1550v-319l189 129l157 -109l5 -8l-280 -150l280 -150l-5 -8l-157 -109l-189 129v-238l-172 -81h-10v319l-189 -129l-156 109l-5 8l279 150l-279 150l5 8l156 109l189 -129v238l172 81h10z" />
    <glyph glyph-name="plus" unicode="+" horiz-adv-x="1214" 
d="M698 1212v-366h366v-10l-81 -172h-285v-285l-172 -81h-10v366h-366v10l81 172h285v285l172 81h10z" />
    <glyph glyph-name="comma" unicode="," horiz-adv-x="609" 
d="M340 278h10q109 -107 109 -244q0 -191 -245 -320l-43 50q113 115 113 216q0 121 -134 208z" />
    <glyph glyph-name="hyphen" unicode="-" horiz-adv-x="1214" 
d="M150 664v10l81 172h833v-10l-81 -172h-833z" />
    <glyph glyph-name="period" unicode="." horiz-adv-x="600" 
d="M180 102.5q0 50.5 35 86.5t85 36t85 -36t35 -86.5t-35 -86.5t-85 -36t-85 36t-35 86.5z" />
    <glyph glyph-name="slash" unicode="/" horiz-adv-x="974" 
d="M151 -140l-141 68l802 1722h10l142 -68l-803 -1722h-10z" />
    <glyph glyph-name="zero" unicode="0" 
d="M400 410q0 -134 72 -217q89 -103 233 -103t233 103q72 83 72 217v690q0 134 -72 217q-89 103 -233 103t-233 -103q-72 -83 -72 -217v-690zM200 480v550q0 217 135 355q142 145 370 145t370 -145q135 -137 135 -355v-550q0 -217 -135 -355q-142 -145 -370 -145t-370 145
q-135 138 -135 355z" />
    <glyph glyph-name="one" unicode="1" horiz-adv-x="714" 
d="M264 -40v1374l-244 -134v143l434 207h10v-1500l-190 -90h-10z" />
    <glyph glyph-name="two" unicode="2" horiz-adv-x="1333" 
d="M150 0v10l47 100l537 514q231 234 231 436q0 176 -67 257q-85 103 -233 103q-143 0 -233 -103q-69 -80 -69 -234q0 -108 36 -169l-168 -81h-10q-61 108 -61 237q0 172 135 315q137 145 370 145t370 -145q134 -142 134 -348q-1 -225 -270 -473l-533 -454h807v-10l-47 -100
h-976z" />
    <glyph glyph-name="three" unicode="3" horiz-adv-x="1329" 
d="M160 480l190 90h10v-160q0 -131 72 -217q87 -103 233 -103q143 0 233 103q71 81 71 277q0 174 -58 242q-82 94 -247 94q-150 0 -201 -65l351 659h-565v10l47 100h786l-343 -600q176 -1 294 -105q136 -120 136 -333q0 -204 -134 -347q-137 -145 -370 -145t-370 145
q-135 143 -135 355z" />
    <glyph glyph-name="four" unicode="4" horiz-adv-x="1188" 
d="M738 -40v562h-733v10l47 100l686 828l190 90h10v-918h140v-10l-47 -100h-93v-472l-190 -90h-10zM738 632v675l-548 -675h548z" />
    <glyph glyph-name="five" unicode="5" horiz-adv-x="1329" 
d="M160 480l190 90h10v-160q0 -131 72 -217q87 -103 233 -103q143 0 233 103q71 81 71 277q0 175 -73 253q-95 103 -233 103q-147 0 -233 -103l-198 85l167 702h693v-10l-47 -100h-486l-130 -518q111 54 234 54q227 0 364 -119q142 -123 142 -345q0 -204 -134 -347
q-137 -145 -370 -145t-370 145q-135 143 -135 355z" />
    <glyph glyph-name="six" unicode="6" 
d="M1184 1118l-184 -88h-10q0 202 -73 287q-90 103 -212 103q-145 0 -234 -103q-71 -81 -71 -217v-256q130 118 305 118q233 0 370 -145q135 -143 135 -345q0 -204 -135 -347q-137 -145 -370 -145t-370 145q-135 143 -135 345v560q0 212 135 355q137 145 370 145
q221 0 350 -134.5t129 -277.5zM705 852q-145 0 -233 -103q-72 -81 -72 -279q0 -192 72 -277q88 -103 233 -103q141 0 233 103q72 81 72 277q0 195 -72 279q-88 103 -233 103z" />
    <glyph glyph-name="seven" unicode="7" horiz-adv-x="1034" 
d="M220 -40l527 1440h-697v10l47 100h887v-10l-529 -1434l-225 -106h-10z" />
    <glyph glyph-name="eight" unicode="8" horiz-adv-x="1328" 
d="M160 472q0 196 152 338q32 30 76 53q-139 112 -139 269q0 200 124 302q118 96 291 96t291 -96q124 -101 124 -302q0 -157 -139 -269q44 -23 76 -53q152 -142 152 -338q0 -204 -134 -347q-137 -145 -370 -145q-234 0 -370 145q-134 143 -134 347zM664 90q143 0 233 103
q71 81 71 277q0 152 -58 220q-80 94 -246 94t-246 -94q-58 -68 -58 -220q0 -196 71 -277q90 -103 233 -103zM664 1420q-97 0 -156 -61t-59 -212q0 -136 45 -186q60 -67 170 -67t170 67q45 50 45 186q0 151 -59 212t-156 61z" />
    <glyph glyph-name="nine" unicode="9" 
d="M206 392l184 88h10q0 -203 73 -287q90 -103 232 -103q155 0 234 103q71 93 71 217v256q-126 -118 -305 -118q-233 0 -370 145q-135 143 -135 345q0 204 135 347q137 145 370 145t370 -145q135 -143 135 -345v-560q0 -212 -135 -355q-137 -145 -370 -145
q-241 0 -370 134.5t-129 277.5zM705 658q143 0 233 103q72 83 72 279q0 194 -72 277q-88 103 -233 103q-142 0 -233 -103q-72 -83 -72 -277q0 -195 72 -279q88 -103 233 -103z" />
    <glyph glyph-name="colon" unicode=":" horiz-adv-x="600" 
d="M180 753.5q0 50.5 35 86.5t85 36t85 -36t35 -86.5t-35 -86.5t-85 -36t-85 36t-35 86.5zM180 102.5q0 50.5 35 86.5t85 36t85 -36t35 -86.5t-35 -86.5t-85 -36t-85 36t-35 86.5z" />
    <glyph glyph-name="semicolon" unicode=";" horiz-adv-x="600" 
d="M205 -286l-43 50q113 115 113 216q0 121 -134 208l190 90h10q109 -107 109 -244q0 -191 -245 -320zM180 753.5q0 50.5 35 86.5t85 36t85 -36t35 -86.5t-35 -86.5t-85 -36t-85 36t-35 86.5z" />
    <glyph glyph-name="less" unicode="&#x3c;" horiz-adv-x="1338" 
d="M150 664v10l82 173l857 368l49 -103v-10l-769 -315l769 -326v-10l-82 -173z" />
    <glyph glyph-name="equal" unicode="=" horiz-adv-x="1214" 
d="M150 846v10l81 172h833v-10l-81 -172h-833zM150 482v10l81 172h833v-10l-81 -172h-833z" />
    <glyph glyph-name="greater" unicode="&#x3e;" horiz-adv-x="1338" 
d="M1188 829v-10l-82 -173l-857 -368l-49 103v10l769 315l-769 326v10l82 173z" />
    <glyph glyph-name="question" unicode="?" horiz-adv-x="1300" 
d="M525 102.5q0 50.5 35 86.5t85 36t85 -36t35 -86.5t-35 -86.5t-85 -36t-85 36t-35 86.5zM211 833q-61 108 -61 237q0 171 135 315q137 145 370 145q236 0 370 -145q125 -135 125 -335q0 -276 -329 -459q-133 -74 -136 -164l-115 -55h-10q1 194 144 285q248 158 248 394
q0 197 -70 274q-86 95 -227 95q-140 0 -233 -103q-72 -80 -72 -270q0 -67 39 -133l-168 -81h-10z" />
    <glyph glyph-name="at" unicode="@" horiz-adv-x="1370" 
d="M990 559q-173 -1 -237 -55.5t-64 -186.5q0 -134 65 -192q62 -55 236 -55v489zM1000 -40h-96q-197 13 -293 90q-122 98 -122 250q0 175 124 273q105 83 291 96h86q0 159 -72 238q-95 103 -233 103q-144 0 -233 -103q-72 -82 -72 -217v-690q0 -135 72 -217
q89 -103 233 -103v-110q-228 0 -370 145q-135 138 -135 355v550q0 217 135 355q142 145 370 145t370 -145q135 -137 135 -355v-570z" />
    <glyph glyph-name="A" unicode="A" 
d="M200 -40v1070q0 216 135 355q142 145 370 145q224 0 370 -145q135 -134 135 -355v-980l-190 -90h-10v740h-610v-650l-190 -90h-10zM400 810h610v290q0 134 -72 217q-90 103 -233 103q-144 0 -233 -103q-72 -84 -72 -217v-290z" />
    <glyph glyph-name="B" unicode="B" horiz-adv-x="1370" 
d="M400 110h285q151 0 240 95q65 69 65 252q0 148 -69 230q-77 92 -236 92h-285v-669zM400 889h285q100 0 161 65q54 58 54 188q0 150 -65 207q-58 51 -150 51h-285v-511zM200 0v1460l106 50h379q169 0 281 -92q133 -108 133 -277q0 -172 -152 -286q49 -21 97 -63
q146 -133 146 -330q0 -198 -128 -325q-137 -137 -377 -137h-485z" />
    <glyph glyph-name="C" unicode="C" 
d="M1210 550v-70q0 -217 -135 -355q-142 -145 -370 -145t-370 145q-135 138 -135 355v550q0 217 135 355q142 145 370 145q236 0 370.5 -145t134.5 -335l-190 -90h-10v140q0 134 -72 217q-89 103 -233 103t-233 -103q-72 -83 -72 -217v-690q0 -134 72 -217q89 -103 233 -103
t233 103q72 83 72 267l190 90h10z" />
    <glyph glyph-name="D" unicode="D" horiz-adv-x="1390" 
d="M200 0v1460l106 50h379q228 0 370 -145q135 -137 135 -355v-510q0 -217 -135 -355q-142 -145 -370 -145h-485zM400 110h285q137 0 233 103q72 77 72 217v650q0 133 -72 217q-89 103 -233 103h-285v-1290z" />
    <glyph glyph-name="E" unicode="E" horiz-adv-x="1157" 
d="M200 0v1460l106 50h634v-10l-47 -100h-493v-590h540v-10l-47 -100h-493v-590h707v-10l-47 -100h-860z" />
    <glyph glyph-name="F" unicode="F" horiz-adv-x="1120" 
d="M200 -40v1500l106 50h634v-10l-47 -100h-493v-590h540v-10l-47 -100h-493v-650l-190 -90h-10z" />
    <glyph glyph-name="G" unicode="G" 
d="M1210 810v-330q0 -217 -135 -355q-142 -145 -370 -145t-370 145q-135 138 -135 355v550q0 217 135 355q142 145 370 145q236 0 370.5 -145t134.5 -335l-190 -90h-10v140q0 132 -72 217q-87 103 -233 103q-144 0 -233 -103q-72 -82 -72 -217v-690q0 -133 72 -217
q89 -103 233 -103t233 103q72 83 72 197v310h-331v10l47 100h484z" />
    <glyph glyph-name="H" unicode="H" horiz-adv-x="1390" 
d="M200 -40v1500l190 90h10v-740h590v650l190 90h10v-1500l-190 -90h-10v740h-590v-650l-190 -90h-10z" />
    <glyph glyph-name="I" unicode="I" horiz-adv-x="600" 
d="M200 -40v1500l190 90h10v-1500l-190 -90h-10z" />
    <glyph glyph-name="J" unicode="J" horiz-adv-x="1290" 
d="M80 460l190 90h10v-140q0 -132 72 -217q89 -103 233 -103t233 103q72 83 72 217v990h-573v10l47 100h726v-1030q0 -216 -135 -355q-142 -145 -370 -145q-225 0 -370 145q-135 134 -135 335z" />
    <glyph glyph-name="K" unicode="K" horiz-adv-x="1360" 
d="M200 -40v1500l190 90h10v-753l645 753h10l116 -60l-537 -617q273 0 411 -134q135 -131 135 -355v-334l-190 -90h-10v483q0 134 -72 217q-89 103 -218 103q-131 0 -218 -103q-72 -85 -72 -217v-393l-190 -90h-10z" />
    <glyph glyph-name="L" unicode="L" horiz-adv-x="1090" 
d="M200 0v1460l190 90h10v-1440h685v-10l-47 -100h-838z" />
    <glyph glyph-name="M" unicode="M" horiz-adv-x="2220" 
d="M200 -40v1070q0 216 135 355q142 145 370 145q206 0 351 -145q36 -36 54 -70q23 35 56 67q151 148 349 148q224 0 370 -145q135 -134 135 -355v-980l-190 -90h-10v1140q0 134 -72 217q-89 103 -233 103t-233 -103q-72 -83 -72 -217v-1050l-190 -90h-10v1140
q0 134 -72 217q-89 103 -233 103t-233 -103q-72 -83 -72 -217v-1050l-190 -90h-10z" />
    <glyph glyph-name="N" unicode="N" 
d="M200 -40v1070q0 216 135 355q142 145 370 145q225 0 370 -145q135 -134 135 -355v-980l-190 -90h-10v1140q0 134 -72 217q-89 103 -233 103t-233 -103q-72 -83 -72 -217v-1050l-190 -90h-10z" />
    <glyph glyph-name="O" unicode="O" 
d="M400 410q0 -134 72 -217q89 -103 233 -103t233 103q72 83 72 217v690q0 134 -72 217q-89 103 -233 103t-233 -103q-72 -83 -72 -217v-690zM200 480v550q0 217 135 355q142 145 370 145t370 -145q135 -137 135 -355v-550q0 -217 -135 -355q-142 -145 -370 -145t-370 145
q-135 138 -135 355z" />
    <glyph glyph-name="P" unicode="P" horiz-adv-x="1340" 
d="M400 620h285q131 0 233 103q72 73 72 287q0 204 -72 287q-89 103 -233 103h-285v-780zM200 -40v1500l106 50h379q228 0 370 -145q135 -138 135 -355q0 -218 -135 -355q-143 -145 -370 -145h-285v-460l-190 -90h-10z" />
    <glyph glyph-name="Q" unicode="Q" 
d="M1163 43l-176 -83h-10l-45 65q-100 -45 -227 -45q-228 0 -370 145q-135 138 -135 355v550q0 217 135 355q142 145 370 145t370 -145q135 -137 135 -355v-550q0 -202 -118 -336zM400 410q0 -134 72 -217q89 -103 233 -103q87 0 155 38l-229 327l176 83h10l175 -250
q18 55 18 122v690q0 134 -72 217q-89 103 -233 103t-233 -103q-72 -83 -72 -217v-690z" />
    <glyph glyph-name="R" unicode="R" horiz-adv-x="1364" 
d="M200 -40v1500l106 50h379q228 0 370 -145q135 -138 135 -355q0 -218 -135 -355q-80 -81 -187 -117l346 -495l-176 -83h-10l-385 550h-243v-460l-190 -90h-10zM400 620h285q131 0 233 103q72 73 72 287q0 204 -72 287q-89 103 -233 103h-285v-780z" />
    <glyph glyph-name="S" unicode="S" horiz-adv-x="1329" 
d="M160 460l190 90h10v-152q0 -122 72 -205q89 -103 233 -103q143 0 233 103q71 81 71 277q0 154 -58 222q-80 94 -246 94q-194 0 -315 108q-100 90 -100 254q0 185 124 286q118 96 291 96t291 -96q124 -101 124 -277l-190 -90h-10v128q0 114 -65 170q-63 55 -150 55
q-97 0 -156 -61t-59 -212q0 -134 45 -184q60 -67 170 -67q252 0 375 -113q129 -119 129 -311q0 -204 -134 -347q-137 -145 -370 -145t-370 145q-135 143 -135 335z" />
    <glyph glyph-name="T" unicode="T" horiz-adv-x="1066" 
d="M433 -40v1440h-428v10l47 100h1009v-10l-47 -100h-381v-1350l-190 -90h-10z" />
    <glyph glyph-name="U" unicode="U" 
d="M200 1460l190 90h10v-1140q0 -134 72 -217q89 -103 233 -103t233 103q72 83 72 217v1050l190 90h10v-1070q0 -216 -135 -355q-142 -145 -370 -145q-225 0 -370 145q-135 134 -135 355v980z" />
    <glyph glyph-name="V" unicode="V" horiz-adv-x="1191" 
d="M515 -40l-510 1508l173 82h10l442 -1316l439 1316h10l107 -51l-488 -1457l-173 -82h-10z" />
    <glyph glyph-name="W" unicode="W" horiz-adv-x="2220" 
d="M200 1460l190 90h10v-1140q0 -134 72 -217q89 -103 233 -103t233 103q72 83 72 217v1050l190 90h10v-1140q0 -134 72 -217q89 -103 233 -103t233 103q72 83 72 217v1050l190 90h10v-1070q0 -216 -135 -355q-142 -145 -370 -145q-206 0 -351 145q-36 36 -54 70
q-23 -35 -56 -67q-151 -148 -349 -148q-224 0 -370 145q-135 134 -135 355v980z" />
    <glyph glyph-name="X" unicode="X" horiz-adv-x="1278" 
d="M215 -40h-10l-105 50l444 709l-444 748l175 83h10l378 -639l400 639h10l105 -50l-443 -709l443 -749l-174 -82h-10l-379 639z" />
    <glyph glyph-name="Y" unicode="Y" horiz-adv-x="1310" 
d="M555 -40v524q-157 26 -270 137q-135 133 -135 355v484l190 90h10v-636q0 -134 72 -217q89 -103 233 -103q152 0 233 103q72 92 72 217v546l190 90h10v-574q0 -216 -135 -355q-109 -112 -270 -137v-434l-190 -90h-10z" />
    <glyph glyph-name="Z" unicode="Z" horiz-adv-x="1267" 
d="M150 0v10l681 1390h-671v10l47 100h900v-10l-684 -1390h694v-10l-47 -100h-920z" />
    <glyph glyph-name="bracketleft" unicode="[" horiz-adv-x="864" 
d="M200 -240v1900l190 90h424v-10l-47 -100h-367v-1770h414v-10l-47 -100h-567z" />
    <glyph glyph-name="backslash" unicode="\" horiz-adv-x="974" 
d="M812 -140l-802 1722l141 68h10l803 -1722l-142 -68h-10z" />
    <glyph glyph-name="bracketright" unicode="]" horiz-adv-x="864" 
d="M664 1750v-1900l-190 -90h-424v10l47 100h367v1770h-414v10l47 100h567z" />
    <glyph glyph-name="asciicircum" unicode="^" horiz-adv-x="1382" 
d="M772 1550l460 -462l-173 -82h-10l-376 372l-410 -373h-10l-103 49l439 414l173 82h10z" />
    <glyph glyph-name="underscore" unicode="_" horiz-adv-x="1214" 
d="M150 -410v10l81 172h833v-10l-81 -172h-833z" />
    <glyph glyph-name="grave" unicode="`" horiz-adv-x="648" 
d="M326 1550h10l162 -345l-117 -55h-10l-221 316z" />
    <glyph glyph-name="a" unicode="a" horiz-adv-x="1060" 
d="M910 50l-190 -90h-10v105q-80 -85 -215 -85q-187 0 -291 113t-104 267q0 160 113 272q109 108 282 108q123 0 215 -85q0 177 -62 266t-153 89h-243v10l47 100h196q175 0 291 -113q124 -121 124 -287v-670zM296 360q0 -156 54 -214q52 -56 146 -56q100 0 152 57
q57 62 57 218q0 146 -61 208q-60 57 -149 57q-93 0 -146 -59t-53 -211z" />
    <glyph glyph-name="b" unicode="b" horiz-adv-x="1180" 
d="M400 312q0 -115 62.5 -168.5t152.5 -53.5t152.5 53.5t62.5 168.5v476q0 115 -62.5 168.5t-152.5 53.5t-152.5 -53.5t-62.5 -168.5v-476zM200 380v1080l190 90h10v-515q76 85 215 85q173 0 291 -113q124 -120 124 -287v-340q0 -165 -124 -287q-116 -113 -291 -113
q-173 0 -291 113q-124 120 -124 287z" />
    <glyph glyph-name="c" unicode="c" horiz-adv-x="1130" 
d="M980 443v-63q0 -165 -124 -287q-116 -113 -291 -113q-173 0 -291 113q-124 120 -124 287v340q0 166 124 287q116 113 291 113q171 0 291 -113q124 -117 124 -258v-2l-190 -90h-10v131q0 114 -62 168q-63 54 -153 54t-153 -54q-62 -52 -62 -168v-476q0 -115 62.5 -168.5
t152.5 -53.5t152.5 54t62.5 209l190 90h10z" />
    <glyph glyph-name="d" unicode="d" horiz-adv-x="1180" 
d="M350 312q0 -115 62.5 -168.5t152.5 -53.5t152.5 53.5t62.5 168.5v476q0 115 -62.5 168.5t-152.5 53.5t-152.5 -53.5t-62.5 -168.5v-476zM150 380v340q0 165 124 287q116 113 291 113q132 0 215 -85v425l190 90h10v-1170q0 -165 -124 -287q-116 -113 -291 -113
q-173 0 -291 113q-124 120 -124 287z" />
    <glyph glyph-name="e" unicode="e" horiz-adv-x="1130" 
d="M980 443v-63q0 -165 -124 -287q-116 -113 -291 -113q-173 0 -291 113q-124 120 -124 287v340q0 166 124 287q116 113 291 113q171 0 291 -113q124 -117 124 -258l-624 -504q14 -65 56 -101q63 -54 153 -54t152.5 54t62.5 209l190 90h10zM350 399l430 349v40
q0 114 -62 168q-63 54 -153 54q-89 0 -153 -54q-62 -52 -62 -168v-389z" />
    <glyph glyph-name="f" unicode="f" horiz-adv-x="850" 
d="M200 -40v890h-150v10l47 100h103v170q0 165 124 287q116 113 291 113h135v-10l-48 -100h-87q-89 0 -153 -54q-62 -52 -62 -168v-238h350v-10l-47 -100h-303v-800l-190 -90h-10z" />
    <glyph glyph-name="g" unicode="g" horiz-adv-x="1160" 
d="M350 312q0 -115 62.5 -168.5t152.5 -53.5t152.5 53.5t62.5 168.5v476q0 115 -62.5 168.5t-152.5 53.5t-152.5 -53.5t-62.5 -168.5v-476zM150 380v340q0 165 124 287q116 113 291 113t291 -113q124 -121 124 -287v-750q0 -165 -124 -287q-116 -113 -291 -113h-308v10
l48 100h260q90 0 153 54q62 52 62 168v163q-76 -85 -215 -85q-173 0 -291 113q-124 120 -124 287z" />
    <glyph glyph-name="h" unicode="h" horiz-adv-x="1180" 
d="M200 -40v1500l190 90h10v-515q75 85 215 85q173 0 291 -113q124 -120 124 -287v-670l-190 -90h-10v828q0 115 -62.5 168.5t-152.5 53.5t-152.5 -53.5t-62.5 -168.5v-738l-190 -90h-10z" />
    <glyph glyph-name="i" unicode="i" horiz-adv-x="600" 
d="M180 1407.5q0 50.5 35 86.5t85 36t85 -36t35 -86.5t-35 -86.5t-85 -36t-85 36t-35 86.5zM200 -40v1090l190 90h10v-1090l-190 -90h-10z" />
    <glyph glyph-name="j" unicode="j" horiz-adv-x="600" 
d="M32 -340q66 17 106 54q62 57 62 168v1168l190 90h10v-1190q0 -165 -124 -287q-116 -113 -291 -113v10zM180 1407.5q0 50.5 35 86.5t85 36t85 -36t35 -86.5t-35 -86.5t-85 -36t-85 36t-35 86.5z" />
    <glyph glyph-name="k" unicode="k" horiz-adv-x="1180" 
d="M200 -40v1500l190 90h10v-833l474 423h10l107 -73l-343 -295q141 0 258 -113q124 -120 124 -287v-322l-190 -90h-10v480q0 115 -62.5 168.5t-152.5 53.5q-92 0 -153 -54q-62 -55 -62 -168v-390l-190 -90h-10z" />
    <glyph glyph-name="l" unicode="l" horiz-adv-x="600" 
d="M200 -40v1500l190 90h10v-1500l-190 -90h-10z" />
    <glyph glyph-name="m" unicode="m" horiz-adv-x="1760" 
d="M150 -40v760q0 165 124 287q116 113 291 113q159 0 275 -116q22 -22 40 -52q18 29 40 51q125 117 275 117q173 0 291 -113q124 -120 124 -287v-670l-190 -90h-10v828q0 115 -62.5 168.5t-152.5 53.5t-152.5 -53.5t-62.5 -168.5v-738l-190 -90h-10v828q0 115 -62.5 168.5
t-152.5 53.5t-152.5 -53.5t-62.5 -168.5v-738l-190 -90h-10z" />
    <glyph glyph-name="n" unicode="n" horiz-adv-x="1130" 
d="M150 -40v760q0 165 124 287q116 113 291 113q173 0 291 -113q124 -120 124 -287v-670l-190 -90h-10v828q0 115 -62.5 168.5t-152.5 53.5t-152.5 -53.5t-62.5 -168.5v-738l-190 -90h-10z" />
    <glyph glyph-name="o" unicode="o" horiz-adv-x="1130" 
d="M150 380v340q0 165 124 287q116 113 291 113q173 0 291 -113q124 -120 124 -287v-340q0 -165 -124 -287q-116 -113 -291 -113q-173 0 -291 113q-124 120 -124 287zM350 312q0 -115 62.5 -168.5t152.5 -53.5t152.5 53.5t62.5 168.5v476q0 115 -62.5 168.5t-152.5 53.5
t-152.5 -53.5t-62.5 -168.5v-476z" />
    <glyph glyph-name="p" unicode="p" horiz-adv-x="1180" 
d="M400 312q0 -115 62.5 -168.5t152.5 -53.5t152.5 53.5t62.5 168.5v476q0 115 -62.5 168.5t-152.5 53.5t-152.5 -53.5t-62.5 -168.5v-476zM1030 720v-340q0 -165 -124 -287q-116 -113 -291 -113q-132 0 -215 85v-425l-190 -90h-10v1170q0 165 124 287q116 113 291 113
q173 0 291 -113q124 -120 124 -287z" />
    <glyph glyph-name="q" unicode="q" horiz-adv-x="1180" 
d="M350 312q0 -115 62.5 -168.5t152.5 -53.5t152.5 53.5t62.5 168.5v476q0 115 -62.5 168.5t-152.5 53.5t-152.5 -53.5t-62.5 -168.5v-476zM980 720v-1080l-190 -90h-10v515q-76 -85 -215 -85q-173 0 -291 113q-124 120 -124 287v340q0 165 124 287q116 113 291 113
q173 0 291 -113q124 -120 124 -287z" />
    <glyph glyph-name="r" unicode="r" horiz-adv-x="720" 
d="M150 -40v760q0 165 124 287q116 113 291 113h135v-10l-48 -100h-87q-90 0 -152.5 -53.5t-62.5 -168.5v-738l-190 -90h-10z" />
    <glyph glyph-name="s" unicode="s" horiz-adv-x="1070" 
d="M120 353l190 90h10v-128q0 -112 65 -170q62 -55 150 -55q102 0 159 65q60 67 60 193q0 115 -64 165q-55 43 -156 43q-193 0 -288 77q-84 68 -84 186q0 139 127 230q99 71 246 71q141 0 245 -88q80 -69 99 -160l-190 -90h-10v77q0 50 -30 89q-48 62 -137 62
q-71 0 -116 -44q-44 -45 -44 -141q0 -101 54 -138q30 -21 128 -21q212 0 318 -89q98 -82 98 -237q0 -130 -115 -248q-109 -112 -300 -112q-173 0 -291 96q-124 101 -124 277z" />
    <glyph glyph-name="t" unicode="t" horiz-adv-x="764" 
d="M282 -40v1030h-257v10l47 100h210v360l190 90h10v-450h257v-10l-47 -100h-210v-940l-190 -90h-10z" />
    <glyph glyph-name="u" unicode="u" horiz-adv-x="1130" 
d="M150 1050l190 90h10v-828q0 -115 62.5 -168.5t152.5 -53.5t152.5 53.5t62.5 168.5v738l190 90h10v-760q0 -165 -124 -287q-116 -113 -291 -113q-173 0 -291 113q-124 120 -124 287v670z" />
    <glyph glyph-name="v" unicode="v" horiz-adv-x="1037" 
d="M436 -40l-386 1098l173 82h10l321 -921l320 921h10l103 -49l-368 -1049l-173 -82h-10z" />
    <glyph glyph-name="w" unicode="w" horiz-adv-x="1760" 
d="M150 1050l190 90h10v-828q0 -115 62.5 -168.5t152.5 -53.5t152.5 53.5t62.5 168.5v738l190 90h10v-828q0 -115 62.5 -168.5t152.5 -53.5t152.5 53.5t62.5 168.5v738l190 90h10v-760q0 -165 -124 -287q-116 -113 -291 -113q-159 0 -275 116q-22 22 -40 52q-18 -29 -40 -51
q-125 -117 -275 -117q-173 0 -291 113q-124 120 -124 287v670z" />
    <glyph glyph-name="x" unicode="x" horiz-adv-x="995" 
d="M185 -40l-105 50l322 505l-322 542l175 83h10l258 -435l277 435h10l105 -50l-322 -505l322 -543l-174 -82h-10l-258 436l-278 -436h-10z" />
    <glyph glyph-name="y" unicode="y" horiz-adv-x="1180" 
d="M150 380v670l190 90h10v-828q0 -115 62.5 -168.5t152.5 -53.5t152.5 53.5t62.5 168.5v738l190 90h10v-1170q0 -165 -124 -287q-116 -113 -291 -113h-308v10l48 100h260q90 0 153 54q62 53 62 168v163q-74 -85 -215 -85q-171 0 -291 113q-124 118 -124 287z" />
    <glyph glyph-name="z" unicode="z" horiz-adv-x="1053" 
d="M100 0v10l557 980h-547v10l47 100h786v-10l-556 -980h566v-10l-47 -100h-806z" />
    <glyph glyph-name="braceleft" unicode="{" horiz-adv-x="825" 
d="M775 -240q-228 0 -370 145q-135 138 -135 355v404h-220v10l81 172h139v404q0 217 135 355q142 145 370 145v-110q-146 -1 -233 -103q-72 -85 -72 -217v-1130q0 -132 72 -217q87 -102 233 -103v-110z" />
    <glyph glyph-name="bar" unicode="|" horiz-adv-x="666" 
d="M250 -240v1916l156 74h10v-1916l-156 -74h-10z" />
    <glyph glyph-name="braceright" unicode="}" horiz-adv-x="825" 
d="M50 -240v110q146 1 233 103q72 85 72 217v1130q0 132 -72 217q-87 102 -233 103v110q228 0 370 -145q135 -138 135 -355v-404h220v-10l-81 -172h-139v-404q0 -217 -135 -355q-142 -145 -370 -145z" />
    <glyph glyph-name="asciitilde" unicode="~" horiz-adv-x="1138" 
d="M150 583q0 361 237 361q134 0 221 -101q100 -116 158 -116q118 0 118 173l92 44h12q0 -361 -237 -361q-140 0 -223 101q-95 116 -158 116q-118 0 -118 -173l-92 -44h-10z" />
    <glyph glyph-name="uni00A0" unicode="&#xa0;" horiz-adv-x="800" 
 />
    <glyph glyph-name="exclamdown" unicode="&#xa1;" horiz-adv-x="600" 
d="M420 1407.5q0 -50.5 -35 -86.5t-85 -36t-85 36t-35 86.5t35 86.5t85 36t85 -36t35 -86.5zM210 -40h-10v1040l190 90h10v-1040z" />
    <glyph glyph-name="cent" unicode="&#xa2;" horiz-adv-x="1130" 
d="M507 -240v223q-135 16 -233 110q-124 119 -124 287v340q0 166 124 287q96 94 233 110v173l106 50h10v-223q134 -17 233 -110q124 -116 124 -258v-2l-190 -90h-10v131q0 115 -62 168q-42 36 -95 48v-908q53 12 95 48q62 54 62 209l190 90h10v-63q0 -166 -124 -287
q-96 -94 -233 -110v-173l-106 -50h-10zM507 96v908q-53 -12 -95 -48q-62 -53 -62 -168v-476q0 -115 62 -168q42 -36 95 -48z" />
    <glyph glyph-name="sterling" unicode="&#xa3;" horiz-adv-x="1335" 
d="M100 0v10l47 100h153v590h-200v10l47 100h153v327q0 197 124 297q119 96 291 96q165 0 291 -96q124 -96 124 -297l-190 -90h-10v138q0 125 -65.5 180t-149.5 55q-95 0 -155 -61t-60 -174v-375h394v-10l-47 -100h-347v-590h707v-10l-47 -100h-1060z" />
    <glyph glyph-name="currency" unicode="&#xa4;" horiz-adv-x="1395" 
d="M1202 746q0 -170 -87 -296l130 -130l-7 -7l-179 -64l-74 73q-118 -76 -288 -76q-176 0 -297 83l-64 -64l-179 64l-7 7l123 123q-81 123 -81 289q0 170 87 296l-129 130l7 7l178 64l74 -73q118 76 288 76t288 -76l74 73l179 -64l7 -7l-130 -130q87 -126 87 -298zM697 356
q139 0 233 103q72 79 72 289q0 199 -71 287q-84 103 -234 103q-138 0 -232 -103q-73 -80 -73 -287q0 -208 72 -289q92 -103 233 -103z" />
    <glyph glyph-name="yen" unicode="&#xa5;" horiz-adv-x="1278" 
d="M516 -40v501h-295v10l47 100h230l-51 114h-226v10l47 100h130l-298 672l175 83h10l333 -755h95l350 755h10l105 -50l-336 -705h210v-10l-47 -100h-215l-54 -114h316v-10l-47 -100h-289v-411l-190 -90h-10z" />
    <glyph glyph-name="brokenbar" unicode="&#xa6;" horiz-adv-x="666" 
d="M250 -240v827l156 74h10v-827l-156 -74h-10zM406 1750h10v-827l-156 -74h-10v827z" />
    <glyph glyph-name="section" unicode="&#xa7;" horiz-adv-x="1130" 
d="M221 228l190 90h10v-77q0 -50 30 -89q48 -62 137 -62q71 0 116 44q44 45 44 141q0 101 -54 138q-30 21 -128 21q-212 0 -318 89q-98 82 -98 237q0 104 74 201l142 -84q-20 -53 -20 -125q0 -115 64 -165q55 -43 156 -43q193 0 288 -77q84 -68 84 -186q0 -139 -127 -230
q-99 -71 -246 -71q-141 0 -245 88q-80 69 -99 160zM909 1282l-190 -90h-10v77q0 50 -30 89q-48 62 -137 62q-71 0 -116 -44q-44 -45 -44 -141q0 -101 54 -138q30 -21 128 -21q212 0 318 -89q98 -82 98 -237q0 -104 -74 -201l-142 84q20 53 20 125q0 115 -64 165
q-55 43 -156 43q-193 0 -288 77q-84 68 -84 186q0 139 127 230q99 71 246 71q141 0 245 -88q80 -69 99 -160z" />
    <glyph glyph-name="dieresis" unicode="&#xa8;" horiz-adv-x="840" 
d="M450 1407.5q0 50.5 35 86.5t85 36t85 -36t35 -86.5t-35 -86.5t-85 -36t-85 36t-35 86.5zM150 1407.5q0 50.5 35 86.5t85 36t85 -36t35 -86.5t-35 -86.5t-85 -36t-85 36t-35 86.5z" />
    <glyph glyph-name="copyright" unicode="&#xa9;" horiz-adv-x="1401" 
d="M982 678v-66q0 -131 -74 -210q-76 -82 -210 -82q-123 0 -197 78q-73 77 -73 210v283q0 133 73 210q76 79 197 79q127 0 210 -83q74 -74 74 -210l-114 -55h-36v125q0 60 -29 93q-38 43 -97 43q-57 0 -99 -43q-29 -30 -29 -93v-412q0 -62 29 -93q40 -43 99 -43t97 43
q29 34 29 93v78l115 55h35zM701 1331q110 0 210 -43q96 -41 179 -127q80 -83 121 -186q40 -101 40 -221q0 -116 -40 -219q-38 -98 -121 -185q-79 -83 -179 -127q-98 -43 -210 -43q-111 0 -211 43q-96 41 -179 127q-81 84 -121 185t-40 219q0 119 40 221t121 186
q81 85 179 127.5t211 42.5zM701 1251q-98 0 -181 -36t-154 -110q-70 -73 -106 -161t-36 -185v-5q0 -99 36 -188q34 -83 106 -160q70 -74 153 -110q85 -37 182 -37t182 37q83 36 154 110q69 72 104 159t35 189q0 103 -35 191q-34 86 -104 160q-69 73 -154 110q-85 36 -182 36
z" />
    <glyph glyph-name="ordfeminine" unicode="&#xaa;" horiz-adv-x="955" 
d="M307 1477q67 53 164 53q101 0 165 -53q69 -57 69 -164v-361l-111 -53h-29v21q-33 -21 -81 -21q-101 0 -164 53q-68 57 -68 165q0 102 72 164q64 54 147 54q55 0 93 -37q0 103 -24 125q-26 24 -62 24q-44 0 -77 -37zM150 664v10l81 172h574v-10l-81 -172h-574zM476 984
q35 0 64 24q25 21 25 106.5t-26 108.5q-25 22 -61 22q-39 0 -63 -23q-25 -24 -25 -109t26 -106q27 -23 60 -23z" />
    <glyph glyph-name="guillemotleft" unicode="&#xab;" horiz-adv-x="1189" 
d="M874 1284h10l105 -50l-262 -411l258 -437l-174 -82h-10l-266 449zM489 1284h10l105 -50l-262 -411l258 -437l-174 -82h-10l-266 449z" />
    <glyph glyph-name="logicalnot" unicode="&#xac;" horiz-adv-x="1214" 
d="M698 402l142 262h-690v10l81 172h833v-10l-207 -434h-159z" />
    <glyph glyph-name="uni00AD" unicode="&#xad;" horiz-adv-x="1214" 
d="M150 664v10l81 172h833v-10l-81 -172h-833z" />
    <glyph glyph-name="registered" unicode="&#xae;" horiz-adv-x="1401" 
d="M701 1251q-98 0 -181 -36t-154 -110q-70 -73 -106 -161t-36 -185v-5q0 -99 36 -188q34 -83 106 -160q70 -74 153 -110q85 -37 182 -37t182 37q83 36 154 110q69 72 104 159t35 189q0 103 -35 191q-34 86 -104 160q-69 73 -154 110q-85 36 -182 36zM701 1331
q110 0 210 -43q96 -41 179 -127q80 -83 121 -186q40 -101 40 -221q0 -116 -40 -219q-38 -98 -121 -185q-79 -83 -179 -127q-98 -43 -210 -43q-111 0 -211 43q-96 41 -179 127q-81 84 -121 185t-40 219q0 120 40 221t121 186q82 85 179 127.5t211 42.5zM595 679h107
q60 1 99 43q29 31 29 155q0 118 -29 148q-42 43 -99 43h-107v-389zM445 360v743l114 52h151q121 0 197 -79q73 -77 73 -210q0 -122 -73 -198q-26 -27 -57 -44l164 -210l-119 -54h-24l-185 230h-91v-178l-114 -52h-36z" />
    <glyph glyph-name="macron" unicode="&#xaf;" horiz-adv-x="1214" 
d="M150 1328v10l81 172h833v-10l-81 -172h-833z" />
    <glyph glyph-name="degree" unicode="&#xb0;" horiz-adv-x="1130" 
d="M780 1130q0 183 -62.5 236.5t-152.5 53.5t-152.5 -53.5t-62.5 -236.5t62.5 -236.5t152.5 -53.5t152.5 53.5t62.5 236.5zM150 1130q0 165 124 287q116 113 291 113q173 0 291 -113q124 -120 124 -287q0 -165 -124 -287q-116 -113 -291 -113q-173 0 -291 113
q-124 120 -124 287z" />
    <glyph glyph-name="plusminus" unicode="&#xb1;" horiz-adv-x="1214" 
d="M150 243v10l81 172h833v-10l-81 -172h-833zM698 1383v-366h366v-10l-81 -172h-285v-285l-172 -81h-10v366h-366v10l81 172h285v285l172 81h10z" />
    <glyph glyph-name="uni00B2" unicode="&#xb2;" horiz-adv-x="862" 
d="M150 730v36l26 56l268 233q114 99 114 220q0 94 -27 123q-40 42 -97 42q-59 0 -98 -44q-30 -33 -30 -108q0 -60 29 -102l-113 -54h-25q-41 58 -41 136q0 113 70 186q73 76 206 76q131 0 205 -78t74 -184q0 -141 -151 -256l-239 -182h391v-36l-31 -64h-531z" />
    <glyph glyph-name="uni00B3" unicode="&#xb3;" horiz-adv-x="855" 
d="M150 990l118 65h32v-120q0 -56 30 -92q36 -43 98 -43q59 0 97 43q30 34 30 132.5t-23 125.5q-33 38 -108 39h-126l186 280h-290v36l22 54h467l-193 -298q86 -5 136 -46q79 -65 79 -174q0 -126 -75 -203.5t-203 -77.5t-203 76q-74 76 -74 203z" />
    <glyph glyph-name="acute" unicode="&#xb4;" horiz-adv-x="648" 
d="M312 1550h10l176 -84l-221 -316h-10l-117 55z" />
    <glyph glyph-name="uni00B5" unicode="&#xb5;" horiz-adv-x="1180" 
d="M200 1050l190 90h10v-828q0 -115 62.5 -168.5t152.5 -53.5t152.5 53.5t62.5 168.5v738l190 90h10v-760q0 -165 -124 -287q-116 -113 -291 -113q-139 0 -215 85v-425l-190 -90h-10v1500z" />
    <glyph glyph-name="paragraph" unicode="&#xb6;" horiz-adv-x="1180" 
d="M780 -40v644q-100 -50 -215 -50q-173 0 -291 96q-124 102 -124 297v190q0 194 124 297q116 96 291 96q169 0 291 -96q124 -98 124 -297v-1087l-66 -31v1118h-64v-1149l-60 -28h-10z" />
    <glyph glyph-name="periodcentered" unicode="&#xb7;" horiz-adv-x="600" 
d="M180 753.5q0 50.5 35 86.5t85 36t85 -36t35 -86.5t-35 -86.5t-85 -36t-85 36t-35 86.5z" />
    <glyph glyph-name="cedilla" unicode="&#xb8;" horiz-adv-x="609" 
d="M214 278q245 -129 245 -320q0 -137 -109 -244h-10l-190 90q134 87 134 208q0 101 -113 216z" />
    <glyph glyph-name="uni00B9" unicode="&#xb9;" horiz-adv-x="672" 
d="M386 1550h36v-786l-114 -54h-36v672l-122 -57v112z" />
    <glyph glyph-name="ordmasculine" unicode="&#xba;" horiz-adv-x="955" 
d="M250 1116v197q0 110 67 163.5t161 53.5q93 0 158 -53q69 -55 69 -164v-197q0 -106 -69 -164q-63 -53 -158 -53q-94 0 -161 53.5t-67 163.5zM390 1077q0 -48 24 -73q23 -24 65 -24q36 0 60 22q26 22 26 75v279q0 52 -26 75q-24 22 -60 22q-42 0 -65 -24q-24 -25 -24 -73
v-279zM150 664v10l81 172h574v-10l-81 -172h-574z" />
    <glyph glyph-name="guillemotright" unicode="&#xbb;" horiz-adv-x="1189" 
d="M378 1284h10l266 -449l-339 -531h-10l-105 50l263 411l-259 437zM763 1284h10l266 -449l-339 -531h-10l-105 50l263 411l-259 437z" />
    <glyph glyph-name="onequarter" unicode="&#xbc;" horiz-adv-x="1469" 
d="M856 336h188v244zM1044 -40v272h-366v36l30 62l345 420l105 50h36v-464h75v-36l-33 -68h-42v-218l-114 -54h-36zM386 1550h36v-786l-114 -54h-36v672l-122 -57v112zM352 -40l-141 68l709 1522h10l141 -68l-709 -1522h-10z" />
    <glyph glyph-name="onehalf" unicode="&#xbd;" horiz-adv-x="1536" 
d="M774 0v36l26 56l268 233q114 99 114 220q0 94 -27 123q-40 42 -97 42q-59 0 -98 -44q-30 -33 -30 -108q0 -60 29 -102l-113 -54h-25q-41 58 -41 136q0 113 70 186q73 76 206 76q131 0 205 -78t74 -184q0 -141 -151 -256l-239 -182h391v-36l-31 -64h-531zM386 1550h36
v-786l-114 -54h-36v672l-122 -57v112zM352 -40l-141 68l709 1522h10l141 -68l-709 -1522h-10z" />
    <glyph glyph-name="threequarters" unicode="&#xbe;" horiz-adv-x="1665" 
d="M150 990l118 65h32v-120q0 -56 30 -92q36 -43 98 -43q59 0 97 43q30 34 30 132.5t-23 125.5q-33 38 -108 39h-126l186 280h-290v36l22 54h467l-193 -298q86 -5 136 -46q79 -65 79 -174q0 -126 -75 -203.5t-203 -77.5t-203 76q-74 76 -74 203zM1052 336h188v244zM1240 -40
v272h-366v36l30 62l345 420l105 50h36v-464h75v-36l-33 -68h-42v-218l-114 -54h-36zM548 -40l-141 68l709 1522h10l141 -68l-709 -1522h-10z" />
    <glyph glyph-name="questiondown" unicode="&#xbf;" horiz-adv-x="1300" 
d="M775 1407.5q0 -50.5 -35 -86.5t-85 -36t-85 36t-35 86.5t35 86.5t85 36t85 -36t35 -86.5zM1089 677q61 -108 61 -237q0 -171 -135 -315q-137 -145 -370 -145q-236 0 -370 145q-125 135 -125 335q0 276 329 459q133 74 136 164l115 55h10q-1 -194 -144 -285
q-248 -158 -248 -394q0 -197 70 -274q86 -95 227 -95q140 0 233 103q72 80 72 270q0 67 -39 133l168 81h10z" />
    <glyph glyph-name="Agrave" unicode="&#xc0;" 
d="M200 -40v1070q0 216 135 355q142 145 370 145q224 0 370 -145q135 -134 135 -355v-980l-190 -90h-10v740h-610v-650l-190 -90h-10zM400 810h610v290q0 134 -72 217q-90 103 -233 103q-144 0 -233 -103q-72 -84 -72 -217v-290zM596 1966h10l162 -345l-117 -55h-10
l-221 316z" />
    <glyph glyph-name="Aacute" unicode="&#xc1;" 
d="M200 -40v1070q0 216 135 355q142 145 370 145q224 0 370 -145q135 -134 135 -355v-980l-190 -90h-10v740h-610v-650l-190 -90h-10zM400 810h610v290q0 134 -72 217q-90 103 -233 103q-144 0 -233 -103q-72 -84 -72 -217v-290zM817 1966h10l176 -84l-221 -316h-10l-117 55
z" />
    <glyph glyph-name="Acircumflex" unicode="&#xc2;" 
d="M200 -40v1070q0 216 135 355q142 145 370 145q224 0 370 -145q135 -134 135 -355v-980l-190 -90h-10v740h-610v-650l-190 -90h-10zM400 810h610v290q0 134 -72 217q-90 103 -233 103q-144 0 -233 -103q-72 -84 -72 -217v-290zM434 1621l153 261l176 84h10l213 -345
l-116 -55h-10l-150 208l-148 -208h-10z" />
    <glyph glyph-name="Atilde" unicode="&#xc3;" 
d="M200 -40v1070q0 216 135 355q142 145 370 145q224 0 370 -145q135 -134 135 -355v-980l-190 -90h-10v740h-610v-650l-190 -90h-10zM400 810h610v290q0 134 -72 217q-90 103 -233 103q-144 0 -233 -103q-72 -84 -72 -217v-290zM471 1638q0 286 141 286q64 0 137 -70
q51 -49 75 -49q34 0 34 72l110 47h6q0 -286 -141 -286q-64 0 -137 70q-51 49 -75 49q-34 0 -34 -72l-110 -47h-6z" />
    <glyph glyph-name="Adieresis" unicode="&#xc4;" 
d="M200 -40v1070q0 216 135 355q142 145 370 145q224 0 370 -145q135 -134 135 -355v-980l-190 -90h-10v740h-610v-650l-190 -90h-10zM400 810h610v290q0 134 -72 217q-90 103 -233 103q-144 0 -233 -103q-72 -84 -72 -217v-290zM742 1802.5q0 50.5 35 86.5t85 36t85 -36
t35 -86.5t-35 -86.5t-85 -36t-85 36t-35 86.5zM442 1802.5q0 50.5 35 86.5t85 36t85 -36t35 -86.5t-35 -86.5t-85 -36t-85 36t-35 86.5z" />
    <glyph glyph-name="Aring" unicode="&#xc5;" 
d="M200 -40v1070q0 216 135 355q142 145 370 145q224 0 370 -145q135 -134 135 -355v-980l-190 -90h-10v740h-610v-650l-190 -90h-10zM400 810h610v290q0 134 -72 217q-90 103 -233 103q-144 0 -233 -103q-72 -84 -72 -217v-290zM705 1588q-80 0 -135 49q-62 55 -62 140
q0 83 62 140q53 49 135 49q80 0 135 -49q62 -55 62 -140t-62 -140q-55 -49 -135 -49zM705 1862q-34 0 -54 -21t-20 -64q0 -46 21 -65q22 -20 52 -20q31 0 53 22q20 19 20 63q0 45 -22 66q-20 19 -50 19z" />
    <glyph glyph-name="AE" unicode="&#xc6;" horiz-adv-x="1967" 
d="M200 -40v1070q0 216 135 355q142 145 370 145q177 0 305 -90v20l106 50h634v-10l-47 -100h-493v-590h540v-10l-47 -100h-493v-590h707v-10l-47 -100h-860v700h-610v-650l-190 -90h-10zM400 810h610v290q0 134 -72 217q-90 103 -233 103q-144 0 -233 -103
q-72 -84 -72 -217v-290z" />
    <glyph glyph-name="Ccedilla" unicode="&#xc7;" 
d="M1210 550v-70q0 -217 -135 -355q-119 -122 -299 -141q73 -86 73 -190q0 -137 -109 -244h-10l-190 90q134 87 134 208q0 65 -47 137q-175 21 -292 140q-135 137 -135 355v550q0 217 135 355q142 145 370 145q236 0 370.5 -145t134.5 -335l-190 -90h-10v140q0 134 -72 217
q-89 103 -233 103t-233 -103q-72 -83 -72 -217v-690q0 -134 72 -217q89 -103 233 -103t233 103q72 83 72 267l190 90h10z" />
    <glyph glyph-name="Egrave" unicode="&#xc8;" horiz-adv-x="1157" 
d="M200 0v1460l106 50h634v-10l-47 -100h-493v-590h540v-10l-47 -100h-493v-590h707v-10l-47 -100h-860zM506 1966h10l162 -345l-117 -55h-10l-221 316z" />
    <glyph glyph-name="Eacute" unicode="&#xc9;" horiz-adv-x="1157" 
d="M200 0v1460l106 50h634v-10l-47 -100h-493v-590h540v-10l-47 -100h-493v-590h707v-10l-47 -100h-860zM684 1966h10l176 -84l-221 -316h-10l-117 55z" />
    <glyph glyph-name="Ecircumflex" unicode="&#xca;" horiz-adv-x="1157" 
d="M200 0v1460l106 50h634v-10l-47 -100h-493v-590h540v-10l-47 -100h-493v-590h707v-10l-47 -100h-860zM313 1621l153 261l176 84h10l213 -345l-116 -55h-10l-150 208l-148 -208h-10z" />
    <glyph glyph-name="Edieresis" unicode="&#xcb;" horiz-adv-x="1157" 
d="M200 0v1460l106 50h634v-10l-47 -100h-493v-590h540v-10l-47 -100h-493v-590h707v-10l-47 -100h-860zM617 1802.5q0 50.5 35 86.5t85 36t85 -36t35 -86.5t-35 -86.5t-85 -36t-85 36t-35 86.5zM317 1802.5q0 50.5 35 86.5t85 36t85 -36t35 -86.5t-35 -86.5t-85 -36t-85 36
t-35 86.5z" />
    <glyph glyph-name="Igrave" unicode="&#xcc;" horiz-adv-x="600" 
d="M242 1966h10l162 -345l-117 -55h-10l-221 316zM200 -40v1500l190 90h10v-1500l-190 -90h-10z" />
    <glyph glyph-name="Iacute" unicode="&#xcd;" horiz-adv-x="600" 
d="M348 1966h10l176 -84l-221 -316h-10l-117 55zM200 -40v1500l190 90h10v-1500l-190 -90h-10z" />
    <glyph glyph-name="Icircumflex" unicode="&#xce;" horiz-adv-x="600" 
d="M200 -40v1500l190 90h10v-1500l-190 -90h-10zM24 1621l152 261l176 84h10l214 -345l-117 -55h-10l-150 208l-148 -208h-10z" />
    <glyph glyph-name="Idieresis" unicode="&#xcf;" horiz-adv-x="600" 
d="M200 -40v1500l190 90h10v-1500l-190 -90h-10zM330 1802.5q0 50.5 35 86.5t85 36t85 -36t35 -86.5t-35 -86.5t-85 -36t-85 36t-35 86.5zM30 1802.5q0 50.5 35 86.5t85 36t85 -36t35 -86.5t-35 -86.5t-85 -36t-85 36t-35 86.5z" />
    <glyph glyph-name="Eth" unicode="&#xd0;" horiz-adv-x="1390" 
d="M400 110h285q137 0 233 103q72 77 72 217v650q0 133 -72 217q-89 103 -233 103h-285v-590h360v-10l-47 -100h-313v-590zM200 0v700h-150v10l47 100h103v650l106 50h379q228 0 370 -145q135 -137 135 -355v-510q0 -217 -135 -355q-142 -145 -370 -145h-485z" />
    <glyph glyph-name="Ntilde" unicode="&#xd1;" 
d="M200 -40v1070q0 216 135 355q142 145 370 145q225 0 370 -145q135 -134 135 -355v-980l-190 -90h-10v1140q0 134 -72 217q-89 103 -233 103t-233 -103q-72 -83 -72 -217v-1050l-190 -90h-10zM471 1638q0 286 141 286q64 0 137 -70q51 -49 75 -49q34 0 34 72l110 47h6
q0 -286 -141 -286q-64 0 -137 70q-51 49 -75 49q-34 0 -34 -72l-110 -47h-6z" />
    <glyph glyph-name="Ograve" unicode="&#xd2;" 
d="M400 410q0 -134 72 -217q89 -103 233 -103t233 103q72 83 72 217v690q0 134 -72 217q-89 103 -233 103t-233 -103q-72 -83 -72 -217v-690zM200 480v550q0 217 135 355q142 145 370 145t370 -145q135 -137 135 -355v-550q0 -217 -135 -355q-142 -145 -370 -145t-370 145
q-135 138 -135 355zM596 1966h10l162 -345l-117 -55h-10l-221 316z" />
    <glyph glyph-name="Oacute" unicode="&#xd3;" 
d="M400 410q0 -134 72 -217q89 -103 233 -103t233 103q72 83 72 217v690q0 134 -72 217q-89 103 -233 103t-233 -103q-72 -83 -72 -217v-690zM200 480v550q0 217 135 355q142 145 370 145t370 -145q135 -137 135 -355v-550q0 -217 -135 -355q-142 -145 -370 -145t-370 145
q-135 138 -135 355zM817 1966h10l176 -84l-221 -316h-10l-117 55z" />
    <glyph glyph-name="Ocircumflex" unicode="&#xd4;" 
d="M400 410q0 -134 72 -217q89 -103 233 -103t233 103q72 83 72 217v690q0 134 -72 217q-89 103 -233 103t-233 -103q-72 -83 -72 -217v-690zM200 480v550q0 217 135 355q142 145 370 145t370 -145q135 -137 135 -355v-550q0 -217 -135 -355q-142 -145 -370 -145t-370 145
q-135 138 -135 355zM434 1621l153 261l176 84h10l213 -345l-116 -55h-10l-150 208l-148 -208h-10z" />
    <glyph glyph-name="Otilde" unicode="&#xd5;" 
d="M400 410q0 -134 72 -217q89 -103 233 -103t233 103q72 83 72 217v690q0 134 -72 217q-89 103 -233 103t-233 -103q-72 -83 -72 -217v-690zM200 480v550q0 217 135 355q142 145 370 145t370 -145q135 -137 135 -355v-550q0 -217 -135 -355q-142 -145 -370 -145t-370 145
q-135 138 -135 355zM471 1638q0 286 141 286q64 0 137 -70q51 -49 75 -49q34 0 34 72l110 47h6q0 -286 -141 -286q-64 0 -137 70q-51 49 -75 49q-34 0 -34 -72l-110 -47h-6z" />
    <glyph glyph-name="Odieresis" unicode="&#xd6;" 
d="M400 410q0 -134 72 -217q89 -103 233 -103t233 103q72 83 72 217v690q0 134 -72 217q-89 103 -233 103t-233 -103q-72 -83 -72 -217v-690zM200 480v550q0 217 135 355q142 145 370 145t370 -145q135 -137 135 -355v-550q0 -217 -135 -355q-142 -145 -370 -145t-370 145
q-135 138 -135 355zM742 1802.5q0 50.5 35 86.5t85 36t85 -36t35 -86.5t-35 -86.5t-85 -36t-85 36t-35 86.5zM442 1802.5q0 50.5 35 86.5t85 36t85 -36t35 -86.5t-35 -86.5t-85 -36t-85 36t-35 86.5z" />
    <glyph glyph-name="multiply" unicode="&#xd7;" horiz-adv-x="1075" 
d="M150 1014l7 7l179 64l201 -201l202 201l179 -64l7 -7l-259 -259l259 -259l-7 -7l-179 -64l-202 201l-201 -201l-179 64l-7 7l259 259z" />
    <glyph glyph-name="Oslash" unicode="&#xd8;" 
d="M394 -40l-104 50l51 109q-141 144 -141 361v550q0 217 135 355q142 145 370 145q150 0 263 -63l38 83h10l104 -51l-50 -109q140 -137 140 -360v-550q0 -217 -135 -355q-142 -145 -370 -145q-150 0 -263 63l-38 -83h-10zM911 1345q-83 75 -206 75q-144 0 -233 -103
q-72 -83 -72 -217v-690q0 -68 19 -123zM991 1223l-492 -1058q83 -75 206 -75q144 0 233 103q72 83 72 217v690q0 68 -19 123z" />
    <glyph glyph-name="Ugrave" unicode="&#xd9;" 
d="M200 1460l190 90h10v-1140q0 -134 72 -217q89 -103 233 -103t233 103q72 83 72 217v1050l190 90h10v-1070q0 -216 -135 -355q-142 -145 -370 -145q-225 0 -370 145q-135 134 -135 355v980zM596 1966h10l162 -345l-117 -55h-10l-221 316z" />
    <glyph glyph-name="Uacute" unicode="&#xda;" 
d="M200 1460l190 90h10v-1140q0 -134 72 -217q89 -103 233 -103t233 103q72 83 72 217v1050l190 90h10v-1070q0 -216 -135 -355q-142 -145 -370 -145q-225 0 -370 145q-135 134 -135 355v980zM817 1966h10l176 -84l-221 -316h-10l-117 55z" />
    <glyph glyph-name="Ucircumflex" unicode="&#xdb;" 
d="M200 1460l190 90h10v-1140q0 -134 72 -217q89 -103 233 -103t233 103q72 83 72 217v1050l190 90h10v-1070q0 -216 -135 -355q-142 -145 -370 -145q-225 0 -370 145q-135 134 -135 355v980zM434 1621l153 261l176 84h10l213 -345l-116 -55h-10l-150 208l-148 -208h-10z
" />
    <glyph glyph-name="Udieresis" unicode="&#xdc;" 
d="M200 1460l190 90h10v-1140q0 -134 72 -217q89 -103 233 -103t233 103q72 83 72 217v1050l190 90h10v-1070q0 -216 -135 -355q-142 -145 -370 -145q-225 0 -370 145q-135 134 -135 355v980zM742 1802.5q0 50.5 35 86.5t85 36t85 -36t35 -86.5t-35 -86.5t-85 -36t-85 36
t-35 86.5zM442 1802.5q0 50.5 35 86.5t85 36t85 -36t35 -86.5t-35 -86.5t-85 -36t-85 36t-35 86.5z" />
    <glyph glyph-name="Yacute" unicode="&#xdd;" horiz-adv-x="1310" 
d="M555 -40v524q-157 26 -270 137q-135 133 -135 355v484l190 90h10v-636q0 -134 72 -217q89 -103 233 -103q152 0 233 103q72 92 72 217v546l190 90h10v-574q0 -216 -135 -355q-109 -112 -270 -137v-434l-190 -90h-10zM817 1966h10l176 -84l-221 -316h-10l-117 55z" />
    <glyph glyph-name="Thorn" unicode="&#xde;" horiz-adv-x="1340" 
d="M400 380h285q131 0 233 103q72 73 72 287q0 204 -72 287q-89 103 -233 103h-285v-780zM200 -40v1500l190 90h10v-280h285q228 0 370 -145q135 -138 135 -355q0 -218 -135 -355q-143 -145 -370 -145h-285v-220l-190 -90h-10z" />
    <glyph glyph-name="germandbls" unicode="&#xdf;" horiz-adv-x="1269" 
d="M200 -40v1172q0 201 124 302q118 96 291 96t291 -96q124 -101 124 -287q0 -155 -139 -284q50 -20 93 -59q135 -122 135 -332q0 -204 -134 -347q-137 -145 -370 -145h-47v10l47 100q145 0 233 103q69 81 70 259q0 173 -57 238q-80 94 -246 94h-47v10l47 100q110 0 170 67
q45 50 45 186q0 151 -59 212t-156 61t-156 -61t-59 -164v-1145l-190 -90h-10z" />
    <glyph glyph-name="agrave" unicode="&#xe0;" horiz-adv-x="1060" 
d="M910 50l-190 -90h-10v105q-80 -85 -215 -85q-187 0 -291 113t-104 267q0 160 113 272q109 108 282 108q123 0 215 -85q0 177 -62 266t-153 89h-243v10l47 100h196q175 0 291 -113q124 -121 124 -287v-670zM296 360q0 -156 54 -214q52 -56 146 -56q100 0 152 57
q57 62 57 218q0 146 -61 208q-60 57 -149 57q-93 0 -146 -59t-53 -211zM431 1566h10l162 -345l-117 -55h-10l-221 316z" />
    <glyph glyph-name="aacute" unicode="&#xe1;" horiz-adv-x="1060" 
d="M910 50l-190 -90h-10v105q-80 -85 -215 -85q-187 0 -291 113t-104 267q0 160 113 272q109 108 282 108q123 0 215 -85q0 177 -62 266t-153 89h-243v10l47 100h196q175 0 291 -113q124 -121 124 -287v-670zM296 360q0 -156 54 -214q52 -56 146 -56q100 0 152 57
q57 62 57 218q0 146 -61 208q-60 57 -149 57q-93 0 -146 -59t-53 -211zM663 1566h10l176 -84l-221 -316h-10l-117 55z" />
    <glyph glyph-name="acircumflex" unicode="&#xe2;" horiz-adv-x="1060" 
d="M910 50l-190 -90h-10v105q-80 -85 -215 -85q-187 0 -291 113t-104 267q0 160 113 272q109 108 282 108q123 0 215 -85q0 177 -62 266t-153 89h-243v10l47 100h196q175 0 291 -113q124 -121 124 -287v-670zM296 360q0 -156 54 -214q52 -56 146 -56q100 0 152 57
q57 62 57 218q0 146 -61 208q-60 57 -149 57q-93 0 -146 -59t-53 -211zM274 1221l153 261l176 84h10l213 -345l-116 -55h-10l-150 208l-148 -208h-10z" />
    <glyph glyph-name="atilde" unicode="&#xe3;" horiz-adv-x="1060" 
d="M910 50l-190 -90h-10v105q-80 -85 -215 -85q-187 0 -291 113t-104 267q0 160 113 272q109 108 282 108q123 0 215 -85q0 177 -62 266t-153 89h-243v10l47 100h196q175 0 291 -113q124 -121 124 -287v-670zM296 360q0 -156 54 -214q52 -56 146 -56q100 0 152 57
q57 62 57 218q0 146 -61 208q-60 57 -149 57q-93 0 -146 -59t-53 -211zM322 1232q0 286 141 286q64 0 137 -70q51 -49 75 -49q34 0 34 72l110 47h6q0 -286 -141 -286q-64 0 -137 70q-51 49 -75 49q-34 0 -34 -72l-110 -47h-6z" />
    <glyph glyph-name="adieresis" unicode="&#xe4;" horiz-adv-x="1060" 
d="M910 50l-190 -90h-10v105q-80 -85 -215 -85q-187 0 -291 113t-104 267q0 160 113 272q109 108 282 108q123 0 215 -85q0 177 -62 266t-153 89h-243v10l47 100h196q175 0 291 -113q124 -121 124 -287v-670zM296 360q0 -156 54 -214q52 -56 146 -56q100 0 152 57
q57 62 57 218q0 146 -61 208q-60 57 -149 57q-93 0 -146 -59t-53 -211zM577 1407.5q0 50.5 35 86.5t85 36t85 -36t35 -86.5t-35 -86.5t-85 -36t-85 36t-35 86.5zM277 1407.5q0 50.5 35 86.5t85 36t85 -36t35 -86.5t-35 -86.5t-85 -36t-85 36t-35 86.5z" />
    <glyph glyph-name="aring" unicode="&#xe5;" horiz-adv-x="1060" 
d="M910 50l-190 -90h-10v105q-80 -85 -215 -85q-187 0 -291 113t-104 267q0 160 113 272q109 108 282 108q123 0 215 -85q0 177 -62 266t-153 89h-243v10l47 100h196q175 0 291 -113q124 -121 124 -287v-670zM296 360q0 -156 54 -214q52 -56 146 -56q100 0 152 57
q57 62 57 218q0 146 -61 208q-60 57 -149 57q-93 0 -146 -59t-53 -211zM550 1188q-80 0 -135 49q-62 55 -62 140q0 83 62 140q53 49 135 49q80 0 135 -49q62 -55 62 -140t-62 -140q-55 -49 -135 -49zM550 1462q-34 0 -54 -21t-20 -64q0 -46 21 -65q22 -20 52 -20q31 0 53 22
q20 19 20 63q0 45 -22 66q-20 19 -50 19z" />
    <glyph glyph-name="ae" unicode="&#xe6;" horiz-adv-x="1690" 
d="M296 360q0 -156 54 -214q52 -56 146 -56q100 0 152 57q57 62 57 218q0 148 -61 208q-58 57 -149 57q-93 0 -146 -59t-53 -211zM710 -40v105q-80 -85 -215 -85q-187 0 -291 113t-104 267q0 160 113 272q109 108 282 108q123 0 215 -85q0 177 -62 266t-153 89h-243v10
l47 100h196q169 0 291 -113q13 -12 24 -25q11 13 24 25q122 113 291 113q171 0 291 -113q124 -117 124 -258l-624 -504q14 -65 56 -101q63 -54 153 -54t152.5 54t62.5 209l190 90h10v-63q0 -166 -124 -287q-116 -113 -291 -113q-130 0 -229 64l-176 -84h-10zM910 788v-389
l430 349v40q0 114 -62 168q-63 54 -153 54q-89 0 -153 -54q-62 -52 -62 -168z" />
    <glyph glyph-name="ccedilla" unicode="&#xe7;" horiz-adv-x="1130" 
d="M980 443v-63q0 -166 -124 -287q-92 -90 -222 -108q74 -86 74 -191q0 -137 -109 -244h-10l-190 90q134 87 134 208q0 66 -49 139q-121 20 -210 106q-124 120 -124 287v340q0 166 124 287q116 113 291 113q171 0 291 -113q124 -117 124 -258v-2l-190 -90h-10v131
q0 114 -62 168q-63 54 -153 54t-153 -54q-62 -52 -62 -168v-476q0 -115 62.5 -168.5t152.5 -53.5t152.5 54t62.5 209l190 90h10z" />
    <glyph glyph-name="egrave" unicode="&#xe8;" horiz-adv-x="1130" 
d="M980 443v-63q0 -165 -124 -287q-116 -113 -291 -113q-173 0 -291 113q-124 120 -124 287v340q0 166 124 287q116 113 291 113q171 0 291 -113q124 -117 124 -258l-624 -504q14 -65 56 -101q63 -54 153 -54t152.5 54t62.5 209l190 90h10zM350 399l430 349v40
q0 114 -62 168q-63 54 -153 54q-89 0 -153 -54q-62 -52 -62 -168v-389zM451 1566h10l162 -345l-117 -55h-10l-221 316z" />
    <glyph glyph-name="eacute" unicode="&#xe9;" horiz-adv-x="1130" 
d="M980 443v-63q0 -165 -124 -287q-116 -113 -291 -113q-173 0 -291 113q-124 120 -124 287v340q0 166 124 287q116 113 291 113q171 0 291 -113q124 -117 124 -258l-624 -504q14 -65 56 -101q63 -54 153 -54t152.5 54t62.5 209l190 90h10zM350 399l430 349v40
q0 114 -62 168q-63 54 -153 54q-89 0 -153 -54q-62 -52 -62 -168v-389zM683 1566h10l176 -84l-221 -316h-10l-117 55z" />
    <glyph glyph-name="ecircumflex" unicode="&#xea;" horiz-adv-x="1130" 
d="M980 443v-63q0 -165 -124 -287q-116 -113 -291 -113q-173 0 -291 113q-124 120 -124 287v340q0 166 124 287q116 113 291 113q171 0 291 -113q124 -117 124 -258l-624 -504q14 -65 56 -101q63 -54 153 -54t152.5 54t62.5 209l190 90h10zM350 399l430 349v40
q0 114 -62 168q-63 54 -153 54q-89 0 -153 -54q-62 -52 -62 -168v-389zM294 1221l153 261l176 84h10l213 -345l-116 -55h-10l-150 208l-148 -208h-10z" />
    <glyph glyph-name="edieresis" unicode="&#xeb;" horiz-adv-x="1130" 
d="M980 443v-63q0 -165 -124 -287q-116 -113 -291 -113q-173 0 -291 113q-124 120 -124 287v340q0 166 124 287q116 113 291 113q171 0 291 -113q124 -117 124 -258l-624 -504q14 -65 56 -101q63 -54 153 -54t152.5 54t62.5 209l190 90h10zM350 399l430 349v40
q0 114 -62 168q-63 54 -153 54q-89 0 -153 -54q-62 -52 -62 -168v-389zM597 1407.5q0 50.5 35 86.5t85 36t85 -36t35 -86.5t-35 -86.5t-85 -36t-85 36t-35 86.5zM297 1407.5q0 50.5 35 86.5t85 36t85 -36t35 -86.5t-35 -86.5t-85 -36t-85 36t-35 86.5z" />
    <glyph glyph-name="igrave" unicode="&#xec;" horiz-adv-x="600" 
d="M200 -40v1090l190 90h10v-1090l-190 -90h-10zM242 1566h10l162 -345l-117 -55h-10l-221 316z" />
    <glyph glyph-name="iacute" unicode="&#xed;" horiz-adv-x="600" 
d="M348 1566h10l176 -84l-221 -316h-10l-117 55zM200 -40v1090l190 90h10v-1090l-190 -90h-10z" />
    <glyph glyph-name="icircumflex" unicode="&#xee;" horiz-adv-x="600" 
d="M24 1221l153 261l176 84h10l213 -345l-116 -55h-10l-150 208l-148 -208h-10zM200 -40v1090l190 90h10v-1090l-190 -90h-10z" />
    <glyph glyph-name="idieresis" unicode="&#xef;" horiz-adv-x="600" 
d="M200 -40v1090l190 90h10v-1090l-190 -90h-10zM330 1407.5q0 50.5 35 86.5t85 36t85 -36t35 -86.5t-35 -86.5t-85 -36t-85 36t-35 86.5zM30 1407.5q0 50.5 35 86.5t85 36t85 -36t35 -86.5t-35 -86.5t-85 -36t-85 36t-35 86.5z" />
    <glyph glyph-name="eth" unicode="&#xf0;" horiz-adv-x="1180" 
d="M350 312q0 -114 62 -168q63 -54 153 -54q87 0 153 54q62 51 62 168v274q0 114 -62 168q-63 54 -153 54q-87 0 -153 -54q-62 -51 -62 -168v-274zM150 380v138q0 165 124 287q116 113 291 113q123 0 215 -54v256q0 54 -12 100l-157 -138h-10l-107 73l211 186
q-89 99 -230 99v110q202 0 336 -114l128 114h10l107 -73l-156 -139q80 -120 80 -288v-670q0 -165 -124 -287q-116 -113 -291 -113q-173 0 -291 113q-124 120 -124 287z" />
    <glyph glyph-name="ntilde" unicode="&#xf1;" horiz-adv-x="1130" 
d="M150 -40v760q0 165 124 287q116 113 291 113q173 0 291 -113q124 -120 124 -287v-670l-190 -90h-10v828q0 115 -62.5 168.5t-152.5 53.5t-152.5 -53.5t-62.5 -168.5v-738l-190 -90h-10zM342 1232q0 286 141 286q64 0 137 -70q51 -49 75 -49q34 0 34 72l110 47h6
q0 -286 -141 -286q-64 0 -137 70q-51 49 -75 49q-34 0 -34 -72l-110 -47h-6z" />
    <glyph glyph-name="ograve" unicode="&#xf2;" horiz-adv-x="1130" 
d="M150 380v340q0 165 124 287q116 113 291 113q173 0 291 -113q124 -120 124 -287v-340q0 -165 -124 -287q-116 -113 -291 -113q-173 0 -291 113q-124 120 -124 287zM350 312q0 -115 62.5 -168.5t152.5 -53.5t152.5 53.5t62.5 168.5v476q0 115 -62.5 168.5t-152.5 53.5
t-152.5 -53.5t-62.5 -168.5v-476zM451 1566h10l162 -345l-117 -55h-10l-221 316z" />
    <glyph glyph-name="oacute" unicode="&#xf3;" horiz-adv-x="1130" 
d="M150 380v340q0 165 124 287q116 113 291 113q173 0 291 -113q124 -120 124 -287v-340q0 -165 -124 -287q-116 -113 -291 -113q-173 0 -291 113q-124 120 -124 287zM350 312q0 -115 62.5 -168.5t152.5 -53.5t152.5 53.5t62.5 168.5v476q0 115 -62.5 168.5t-152.5 53.5
t-152.5 -53.5t-62.5 -168.5v-476zM683 1566h10l176 -84l-221 -316h-10l-117 55z" />
    <glyph glyph-name="ocircumflex" unicode="&#xf4;" horiz-adv-x="1130" 
d="M150 380v340q0 165 124 287q116 113 291 113q173 0 291 -113q124 -120 124 -287v-340q0 -165 -124 -287q-116 -113 -291 -113q-173 0 -291 113q-124 120 -124 287zM350 312q0 -115 62.5 -168.5t152.5 -53.5t152.5 53.5t62.5 168.5v476q0 115 -62.5 168.5t-152.5 53.5
t-152.5 -53.5t-62.5 -168.5v-476zM294 1221l153 261l176 84h10l213 -345l-116 -55h-10l-150 208l-148 -208h-10z" />
    <glyph glyph-name="otilde" unicode="&#xf5;" horiz-adv-x="1130" 
d="M150 380v340q0 165 124 287q116 113 291 113q173 0 291 -113q124 -120 124 -287v-340q0 -165 -124 -287q-116 -113 -291 -113q-173 0 -291 113q-124 120 -124 287zM350 312q0 -115 62.5 -168.5t152.5 -53.5t152.5 53.5t62.5 168.5v476q0 115 -62.5 168.5t-152.5 53.5
t-152.5 -53.5t-62.5 -168.5v-476zM342 1232q0 286 141 286q64 0 137 -70q51 -49 75 -49q34 0 34 72l110 47h6q0 -286 -141 -286q-64 0 -137 70q-51 49 -75 49q-34 0 -34 -72l-110 -47h-6z" />
    <glyph glyph-name="odieresis" unicode="&#xf6;" horiz-adv-x="1130" 
d="M150 380v340q0 165 124 287q116 113 291 113q173 0 291 -113q124 -120 124 -287v-340q0 -165 -124 -287q-116 -113 -291 -113q-173 0 -291 113q-124 120 -124 287zM350 312q0 -115 62.5 -168.5t152.5 -53.5t152.5 53.5t62.5 168.5v476q0 115 -62.5 168.5t-152.5 53.5
t-152.5 -53.5t-62.5 -168.5v-476zM597 1407.5q0 50.5 35 86.5t85 36t85 -36t35 -86.5t-35 -86.5t-85 -36t-85 36t-35 86.5zM297 1407.5q0 50.5 35 86.5t85 36t85 -36t35 -86.5t-35 -86.5t-85 -36t-85 36t-35 86.5z" />
    <glyph glyph-name="divide" unicode="&#xf7;" horiz-adv-x="1214" 
d="M488 1087.5q0 50.5 35 86.5t85 36t85 -36t35 -86.5t-35 -86.5t-85 -36t-85 36t-35 86.5zM488 427.5q0 50.5 35 86.5t85 36t85 -36t35 -86.5t-35 -86.5t-85 -36t-85 36t-35 86.5zM150 664v10l81 172h833v-10l-81 -172h-833z" />
    <glyph glyph-name="oslash" unicode="&#xf8;" horiz-adv-x="1130" 
d="M349 -40l-104 50l36 77q-131 126 -131 293v340q0 165 124 287q116 113 291 113q98 0 179 -36l26 56h10l105 -51l-35 -76q130 -120 130 -293v-340q0 -165 -124 -287q-116 -113 -291 -113q-99 0 -180 37l-26 -57h-10zM693 975q-55 35 -128 35q-90 0 -152.5 -53.5
t-62.5 -168.5v-476q0 -35 6 -64zM774 852l-338 -726q55 -36 129 -36q90 0 152.5 53.5t62.5 168.5v476q0 35 -6 64z" />
    <glyph glyph-name="ugrave" unicode="&#xf9;" horiz-adv-x="1130" 
d="M150 1050l190 90h10v-828q0 -115 62.5 -168.5t152.5 -53.5t152.5 53.5t62.5 168.5v738l190 90h10v-760q0 -165 -124 -287q-116 -113 -291 -113q-173 0 -291 113q-124 120 -124 287v670zM451 1566h10l162 -345l-117 -55h-10l-221 316z" />
    <glyph glyph-name="uacute" unicode="&#xfa;" horiz-adv-x="1130" 
d="M150 1050l190 90h10v-828q0 -115 62.5 -168.5t152.5 -53.5t152.5 53.5t62.5 168.5v738l190 90h10v-760q0 -165 -124 -287q-116 -113 -291 -113q-173 0 -291 113q-124 120 -124 287v670zM683 1566h10l176 -84l-221 -316h-10l-117 55z" />
    <glyph glyph-name="ucircumflex" unicode="&#xfb;" horiz-adv-x="1130" 
d="M150 1050l190 90h10v-828q0 -115 62.5 -168.5t152.5 -53.5t152.5 53.5t62.5 168.5v738l190 90h10v-760q0 -165 -124 -287q-116 -113 -291 -113q-173 0 -291 113q-124 120 -124 287v670zM294 1221l153 261l176 84h10l213 -345l-116 -55h-10l-150 208l-148 -208h-10z" />
    <glyph glyph-name="udieresis" unicode="&#xfc;" horiz-adv-x="1130" 
d="M150 1050l190 90h10v-828q0 -115 62.5 -168.5t152.5 -53.5t152.5 53.5t62.5 168.5v738l190 90h10v-760q0 -165 -124 -287q-116 -113 -291 -113q-173 0 -291 113q-124 120 -124 287v670zM597 1407.5q0 50.5 35 86.5t85 36t85 -36t35 -86.5t-35 -86.5t-85 -36t-85 36
t-35 86.5zM297 1407.5q0 50.5 35 86.5t85 36t85 -36t35 -86.5t-35 -86.5t-85 -36t-85 36t-35 86.5z" />
    <glyph glyph-name="yacute" unicode="&#xfd;" horiz-adv-x="1180" 
d="M150 380v670l190 90h10v-828q0 -115 62.5 -168.5t152.5 -53.5t152.5 53.5t62.5 168.5v738l190 90h10v-1170q0 -165 -124 -287q-116 -113 -291 -113h-308v10l48 100h260q90 0 153 54q62 53 62 168v163q-74 -85 -215 -85q-171 0 -291 113q-124 118 -124 287zM683 1566h10
l176 -84l-221 -316h-10l-117 55z" />
    <glyph glyph-name="thorn" unicode="&#xfe;" horiz-adv-x="1180" 
d="M400 312q0 -115 62.5 -168.5t152.5 -53.5t152.5 53.5t62.5 168.5v476q0 115 -62.5 168.5t-152.5 53.5t-152.5 -53.5t-62.5 -168.5v-476zM200 1460l190 90h10v-515q84 85 215 85q173 0 291 -113q124 -120 124 -287v-340q0 -165 -124 -287q-116 -113 -291 -113
q-121 0 -215 85v-425l-190 -90h-10v1910z" />
    <glyph glyph-name="ydieresis" unicode="&#xff;" horiz-adv-x="1180" 
d="M150 380v670l190 90h10v-828q0 -115 62.5 -168.5t152.5 -53.5t152.5 53.5t62.5 168.5v738l190 90h10v-1170q0 -165 -124 -287q-116 -113 -291 -113h-308v10l48 100h260q90 0 153 54q62 53 62 168v163q-74 -85 -215 -85q-171 0 -291 113q-124 118 -124 287zM597 1407.5
q0 50.5 35 86.5t85 36t85 -36t35 -86.5t-35 -86.5t-85 -36t-85 36t-35 86.5zM297 1407.5q0 50.5 35 86.5t85 36t85 -36t35 -86.5t-35 -86.5t-85 -36t-85 36t-35 86.5z" />
    <glyph glyph-name="Amacron" unicode="&#x100;" 
d="M200 -40v1070q0 216 135 355q142 145 370 145q224 0 370 -145q135 -134 135 -355v-980l-190 -90h-10v740h-610v-650l-190 -90h-10zM400 810h610v290q0 134 -72 217q-90 103 -233 103q-144 0 -233 -103q-72 -84 -72 -217v-290zM467 1638v10l81 172h458v-10l-81 -172h-458z
" />
    <glyph glyph-name="amacron" unicode="&#x101;" horiz-adv-x="1060" 
d="M910 50l-190 -90h-10v105q-80 -85 -215 -85q-187 0 -291 113t-104 267q0 160 113 272q109 108 282 108q123 0 215 -85q0 177 -62 266t-153 89h-243v10l47 100h196q175 0 291 -113q124 -121 124 -287v-670zM296 360q0 -156 54 -214q52 -56 146 -56q100 0 152 57
q57 62 57 218q0 146 -61 208q-60 57 -149 57q-93 0 -146 -59t-53 -211zM300 1232v10l81 172h458v-10l-81 -172h-458z" />
    <glyph glyph-name="Abreve" unicode="&#x102;" 
d="M200 -40v1070q0 216 135 355q142 145 370 145q224 0 370 -145q135 -134 135 -355v-980l-190 -90h-10v740h-610v-650l-190 -90h-10zM400 810h610v290q0 134 -72 217q-90 103 -233 103q-144 0 -233 -103q-72 -84 -72 -217v-290zM468 1788v10l74 149q72 -134 172 -134
t172 134l76 -149v-10q-102 -150 -250 -150q-154 0 -244 150z" />
    <glyph glyph-name="abreve" unicode="&#x103;" horiz-adv-x="1060" 
d="M910 50l-190 -90h-10v105q-80 -85 -215 -85q-187 0 -291 113t-104 267q0 160 113 272q109 108 282 108q123 0 215 -85q0 177 -62 266t-153 89h-243v10l47 100h196q175 0 291 -113q124 -121 124 -287v-670zM296 360q0 -156 54 -214q52 -56 146 -56q100 0 152 57
q57 62 57 218q0 146 -61 208q-60 57 -149 57q-93 0 -146 -59t-53 -211zM300 1382v10l74 149q72 -134 172 -134t172 134l76 -149v-10q-102 -150 -250 -150q-154 0 -244 150z" />
    <glyph glyph-name="Aogonek" unicode="&#x104;" 
d="M400 810h610v290q0 134 -72 217q-90 103 -233 103q-144 0 -233 -103q-72 -84 -72 -217v-290zM200 -40v1070q0 216 135 355q142 145 370 145q224 0 370 -145q135 -134 135 -355v-980l-179 -85q-35 -60 -35 -117q0 -121 134 -208l-190 -90h-10q-109 107 -109 244
q0 168 189 288v618h-610v-650l-190 -90h-10z" />
    <glyph glyph-name="aogonek" unicode="&#x105;" horiz-adv-x="1060" 
d="M881 36q-87 -99 -87 -188q0 -121 134 -208l-190 -90h-10q-109 107 -109 244q0 116 91 210v61q-80 -85 -215 -85q-187 0 -291 113t-104 267q0 160 113 272q109 108 282 108q123 0 215 -85q0 177 -62 266t-153 89h-243v10l47 100h196q175 0 291 -113q124 -121 124 -287
v-670zM296 360q0 -156 54 -214q52 -56 146 -56q100 0 152 57q57 62 57 218q0 146 -61 208q-60 57 -149 57q-93 0 -146 -59t-53 -211z" />
    <glyph glyph-name="Cacute" unicode="&#x106;" 
d="M1210 550v-70q0 -217 -135 -355q-142 -145 -370 -145t-370 145q-135 138 -135 355v550q0 217 135 355q142 145 370 145q236 0 370.5 -145t134.5 -335l-190 -90h-10v140q0 134 -72 217q-89 103 -233 103t-233 -103q-72 -83 -72 -217v-690q0 -134 72 -217q89 -103 233 -103
t233 103q72 83 72 267l190 90h10zM817 1966h10l176 -84l-221 -316h-10l-117 55z" />
    <glyph glyph-name="cacute" unicode="&#x107;" horiz-adv-x="1130" 
d="M980 443v-63q0 -165 -124 -287q-116 -113 -291 -113q-173 0 -291 113q-124 120 -124 287v340q0 166 124 287q116 113 291 113q171 0 291 -113q124 -117 124 -258v-2l-190 -90h-10v131q0 114 -62 168q-63 54 -153 54t-153 -54q-62 -52 -62 -168v-476q0 -115 62.5 -168.5
t152.5 -53.5t152.5 54t62.5 209l190 90h10zM683 1566h10l176 -84l-221 -316h-10l-117 55z" />
    <glyph glyph-name="Ccircumflex" unicode="&#x108;" 
d="M1210 550v-70q0 -217 -135 -355q-142 -145 -370 -145t-370 145q-135 138 -135 355v550q0 217 135 355q142 145 370 145q236 0 370.5 -145t134.5 -335l-190 -90h-10v140q0 134 -72 217q-89 103 -233 103t-233 -103q-72 -83 -72 -217v-690q0 -134 72 -217q89 -103 233 -103
t233 103q72 83 72 267l190 90h10zM434 1621l153 261l176 84h10l213 -345l-116 -55h-10l-150 208l-148 -208h-10z" />
    <glyph glyph-name="ccircumflex" unicode="&#x109;" horiz-adv-x="1130" 
d="M980 443v-63q0 -165 -124 -287q-116 -113 -291 -113q-173 0 -291 113q-124 120 -124 287v340q0 166 124 287q116 113 291 113q171 0 291 -113q124 -117 124 -258v-2l-190 -90h-10v131q0 114 -62 168q-63 54 -153 54t-153 -54q-62 -52 -62 -168v-476q0 -115 62.5 -168.5
t152.5 -53.5t152.5 54t62.5 209l190 90h10zM294 1221l153 261l176 84h10l213 -345l-116 -55h-10l-150 208l-148 -208h-10z" />
    <glyph glyph-name="Cdotaccent" unicode="&#x10a;" 
d="M1210 550v-70q0 -217 -135 -355q-142 -145 -370 -145t-370 145q-135 138 -135 355v550q0 217 135 355q142 145 370 145q236 0 370.5 -145t134.5 -335l-190 -90h-10v140q0 134 -72 217q-89 103 -233 103t-233 -103q-72 -83 -72 -217v-690q0 -134 72 -217q89 -103 233 -103
t233 103q72 83 72 267l190 90h10zM585 1802.5q0 50.5 35 86.5t85 36t85 -36t35 -86.5t-35 -86.5t-85 -36t-85 36t-35 86.5z" />
    <glyph glyph-name="cdotaccent" unicode="&#x10b;" horiz-adv-x="1130" 
d="M980 443v-63q0 -165 -124 -287q-116 -113 -291 -113q-173 0 -291 113q-124 120 -124 287v340q0 166 124 287q116 113 291 113q171 0 291 -113q124 -117 124 -258v-2l-190 -90h-10v131q0 114 -62 168q-63 54 -153 54t-153 -54q-62 -52 -62 -168v-476q0 -115 62.5 -168.5
t152.5 -53.5t152.5 54t62.5 209l190 90h10zM445 1407.5q0 50.5 35 86.5t85 36t85 -36t35 -86.5t-35 -86.5t-85 -36t-85 36t-35 86.5z" />
    <glyph glyph-name="Ccaron" unicode="&#x10c;" 
d="M1210 550v-70q0 -217 -135 -355q-142 -145 -370 -145t-370 145q-135 138 -135 355v550q0 217 135 355q142 145 370 145q236 0 370.5 -145t134.5 -335l-190 -90h-10v140q0 134 -72 217q-89 103 -233 103t-233 -103q-72 -83 -72 -217v-690q0 -134 72 -217q89 -103 233 -103
t233 103q72 83 72 267l190 90h10zM647 1566l-213 345l116 55h10l150 -208l148 208h10l118 -55l-153 -261l-176 -84h-10z" />
    <glyph glyph-name="ccaron" unicode="&#x10d;" horiz-adv-x="1130" 
d="M980 443v-63q0 -165 -124 -287q-116 -113 -291 -113q-173 0 -291 113q-124 120 -124 287v340q0 166 124 287q116 113 291 113q171 0 291 -113q124 -117 124 -258v-2l-190 -90h-10v131q0 114 -62 168q-63 54 -153 54t-153 -54q-62 -52 -62 -168v-476q0 -115 62.5 -168.5
t152.5 -53.5t152.5 54t62.5 209l190 90h10zM480 1166l-213 345l116 55h10l150 -208l148 208h10l118 -55l-153 -261l-176 -84h-10z" />
    <glyph glyph-name="Dcaron" unicode="&#x10e;" horiz-adv-x="1390" 
d="M200 0v1460l106 50h379q228 0 370 -145q135 -137 135 -355v-510q0 -217 -135 -355q-142 -145 -370 -145h-485zM400 110h285q137 0 233 103q72 77 72 217v650q0 133 -72 217q-89 103 -233 103h-285v-1290zM578 1566l-213 345l116 55h10l150 -208l148 208h10l118 -55
l-153 -261l-176 -84h-10z" />
    <glyph glyph-name="dcaron" unicode="&#x10f;" horiz-adv-x="1210" 
d="M350 312q0 -115 62.5 -168.5t152.5 -53.5t152.5 53.5t62.5 168.5v476q0 115 -62.5 168.5t-152.5 53.5t-152.5 -53.5t-62.5 -168.5v-476zM150 380v340q0 165 124 287q116 113 291 113q132 0 215 -85v425l190 90h10v-1170q0 -165 -124 -287q-116 -113 -291 -113
q-173 0 -291 113q-124 120 -124 287zM1174 1566h10l176 -84l-221 -316h-10l-117 55z" />
    <glyph glyph-name="Dcroat" unicode="&#x110;" horiz-adv-x="1390" 
d="M400 110h285q137 0 233 103q72 77 72 217v650q0 133 -72 217q-89 103 -233 103h-285v-590h360v-10l-47 -100h-313v-590zM200 0v700h-150v10l47 100h103v650l106 50h379q228 0 370 -145q135 -137 135 -355v-510q0 -217 -135 -355q-142 -145 -370 -145h-485z" />
    <glyph glyph-name="dcroat" unicode="&#x111;" horiz-adv-x="1180" 
d="M150 380v340q0 165 124 287q116 113 291 113q132 0 215 -85v221h-250v10l47 100h203v94l190 90h10v-184h150v-10l-47 -100h-103v-876q0 -165 -124 -287q-116 -113 -291 -113q-173 0 -291 113q-124 120 -124 287zM350 312q0 -115 62.5 -168.5t152.5 -53.5t152.5 53.5
t62.5 168.5v476q0 115 -62.5 168.5t-152.5 53.5t-152.5 -53.5t-62.5 -168.5v-476z" />
    <glyph glyph-name="Emacron" unicode="&#x112;" horiz-adv-x="1157" 
d="M200 0v1460l106 50h634v-10l-47 -100h-493v-590h540v-10l-47 -100h-493v-590h707v-10l-47 -100h-860zM346 1638v10l81 172h458v-10l-81 -172h-458z" />
    <glyph glyph-name="emacron" unicode="&#x113;" horiz-adv-x="1130" 
d="M980 443v-63q0 -165 -124 -287q-116 -113 -291 -113q-173 0 -291 113q-124 120 -124 287v340q0 166 124 287q116 113 291 113q171 0 291 -113q124 -117 124 -258l-624 -504q14 -65 56 -101q63 -54 153 -54t152.5 54t62.5 209l190 90h10zM350 399l430 349v40
q0 114 -62 168q-63 54 -153 54q-89 0 -153 -54q-62 -52 -62 -168v-389zM320 1232v10l81 172h458v-10l-81 -172h-458z" />
    <glyph glyph-name="Ebreve" unicode="&#x114;" horiz-adv-x="1157" 
d="M200 0v1460l106 50h634v-10l-47 -100h-493v-590h540v-10l-47 -100h-493v-590h707v-10l-47 -100h-860zM338 1788v10l74 149q72 -134 172 -134t172 134l76 -149v-10q-102 -150 -250 -150q-154 0 -244 150z" />
    <glyph glyph-name="ebreve" unicode="&#x115;" horiz-adv-x="1130" 
d="M980 443v-63q0 -165 -124 -287q-116 -113 -291 -113q-173 0 -291 113q-124 120 -124 287v340q0 166 124 287q116 113 291 113q171 0 291 -113q124 -117 124 -258l-624 -504q14 -65 56 -101q63 -54 153 -54t152.5 54t62.5 209l190 90h10zM350 399l430 349v40
q0 114 -62 168q-63 54 -153 54q-89 0 -153 -54q-62 -52 -62 -168v-389zM320 1382v10l74 149q72 -134 172 -134t172 134l76 -149v-10q-102 -150 -250 -150q-154 0 -244 150z" />
    <glyph glyph-name="Edotaccent" unicode="&#x116;" horiz-adv-x="1157" 
d="M200 0v1460l106 50h634v-10l-47 -100h-493v-590h540v-10l-47 -100h-493v-590h707v-10l-47 -100h-860zM466 1802.5q0 50.5 35 86.5t85 36t85 -36t35 -86.5t-35 -86.5t-85 -36t-85 36t-35 86.5z" />
    <glyph glyph-name="edotaccent" unicode="&#x117;" horiz-adv-x="1130" 
d="M980 443v-63q0 -165 -124 -287q-116 -113 -291 -113q-173 0 -291 113q-124 120 -124 287v340q0 166 124 287q116 113 291 113q171 0 291 -113q124 -117 124 -258l-624 -504q14 -65 56 -101q63 -54 153 -54t152.5 54t62.5 209l190 90h10zM350 399l430 349v40
q0 114 -62 168q-63 54 -153 54q-89 0 -153 -54q-62 -52 -62 -168v-389zM445 1407.5q0 50.5 35 86.5t85 36t85 -36t35 -86.5t-35 -86.5t-85 -36t-85 36t-35 86.5z" />
    <glyph glyph-name="Eogonek" unicode="&#x118;" horiz-adv-x="1157" 
d="M200 0v1460l106 50h634v-10l-47 -100h-493v-590h540v-10l-47 -100h-493v-590h707v-10l-47 -100h-65q-58 -80 -58 -152q0 -121 134 -208l-190 -90h-10q-109 107 -109 244q0 114 87 206h-649z" />
    <glyph glyph-name="eogonek" unicode="&#x119;" horiz-adv-x="1130" 
d="M350 399l430 349v40q0 114 -62 168q-63 54 -153 54q-89 0 -153 -54q-62 -52 -62 -168v-389zM980 443v-63q0 -170 -124 -287q-18 -17 -37 -32q-110 -113 -110 -213q0 -121 134 -208l-190 -90h-10q-109 107 -109 244q0 103 71 188q-20 -2 -40 -2q-173 0 -291 113
q-124 120 -124 287v340q0 166 124 287q116 113 291 113q171 0 291 -113q124 -117 124 -258l-624 -504q14 -65 56 -101q63 -54 153 -54t152.5 54t62.5 209l190 90h10z" />
    <glyph glyph-name="Ecaron" unicode="&#x11a;" horiz-adv-x="1157" 
d="M200 0v1460l106 50h634v-10l-47 -100h-493v-590h540v-10l-47 -100h-493v-590h707v-10l-47 -100h-860zM533 1566l-213 345l116 55h10l150 -208l148 208h10l118 -55l-153 -261l-176 -84h-10z" />
    <glyph glyph-name="ecaron" unicode="&#x11b;" horiz-adv-x="1130" 
d="M980 443v-63q0 -165 -124 -287q-116 -113 -291 -113q-173 0 -291 113q-124 120 -124 287v340q0 166 124 287q116 113 291 113q171 0 291 -113q124 -117 124 -258l-624 -504q14 -65 56 -101q63 -54 153 -54t152.5 54t62.5 209l190 90h10zM350 399l430 349v40
q0 114 -62 168q-63 54 -153 54q-89 0 -153 -54q-62 -52 -62 -168v-389zM480 1166l-213 345l116 55h10l150 -208l148 208h10l118 -55l-153 -261l-176 -84h-10z" />
    <glyph glyph-name="Gcircumflex" unicode="&#x11c;" 
d="M1210 810v-330q0 -217 -135 -355q-142 -145 -370 -145t-370 145q-135 138 -135 355v550q0 217 135 355q142 145 370 145q236 0 370.5 -145t134.5 -335l-190 -90h-10v140q0 132 -72 217q-87 103 -233 103q-144 0 -233 -103q-72 -82 -72 -217v-690q0 -133 72 -217
q89 -103 233 -103t233 103q72 83 72 197v310h-331v10l47 100h484zM434 1621l153 261l176 84h10l213 -345l-116 -55h-10l-150 208l-148 -208h-10z" />
    <glyph glyph-name="gcircumflex" unicode="&#x11d;" horiz-adv-x="1160" 
d="M350 312q0 -115 62.5 -168.5t152.5 -53.5t152.5 53.5t62.5 168.5v476q0 115 -62.5 168.5t-152.5 53.5t-152.5 -53.5t-62.5 -168.5v-476zM150 380v340q0 165 124 287q116 113 291 113t291 -113q124 -121 124 -287v-750q0 -165 -124 -287q-116 -113 -291 -113h-308v10
l48 100h260q90 0 153 54q62 52 62 168v163q-76 -85 -215 -85q-173 0 -291 113q-124 120 -124 287zM294 1221l153 261l176 84h10l213 -345l-116 -55h-10l-150 208l-148 -208h-10z" />
    <glyph glyph-name="Gbreve" unicode="&#x11e;" 
d="M1210 810v-330q0 -217 -135 -355q-142 -145 -370 -145t-370 145q-135 138 -135 355v550q0 217 135 355q142 145 370 145q236 0 370.5 -145t134.5 -335l-190 -90h-10v140q0 132 -72 217q-87 103 -233 103q-144 0 -233 -103q-72 -82 -72 -217v-690q0 -133 72 -217
q89 -103 233 -103t233 103q72 83 72 197v310h-331v10l47 100h484zM468 1788v10l74 149q72 -134 172 -134t172 134l76 -149v-10q-102 -150 -250 -150q-154 0 -244 150z" />
    <glyph glyph-name="gbreve" unicode="&#x11f;" horiz-adv-x="1160" 
d="M350 312q0 -115 62.5 -168.5t152.5 -53.5t152.5 53.5t62.5 168.5v476q0 115 -62.5 168.5t-152.5 53.5t-152.5 -53.5t-62.5 -168.5v-476zM150 380v340q0 165 124 287q116 113 291 113t291 -113q124 -121 124 -287v-750q0 -165 -124 -287q-116 -113 -291 -113h-308v10
l48 100h260q90 0 153 54q62 52 62 168v163q-76 -85 -215 -85q-173 0 -291 113q-124 120 -124 287zM320 1382v10l74 149q72 -134 172 -134t172 134l76 -149v-10q-102 -150 -250 -150q-154 0 -244 150z" />
    <glyph glyph-name="Gdotaccent" unicode="&#x120;" 
d="M1210 810v-330q0 -217 -135 -355q-142 -145 -370 -145t-370 145q-135 138 -135 355v550q0 217 135 355q142 145 370 145q236 0 370.5 -145t134.5 -335l-190 -90h-10v140q0 132 -72 217q-87 103 -233 103q-144 0 -233 -103q-72 -82 -72 -217v-690q0 -133 72 -217
q89 -103 233 -103t233 103q72 83 72 197v310h-331v10l47 100h484zM585 1802.5q0 50.5 35 86.5t85 36t85 -36t35 -86.5t-35 -86.5t-85 -36t-85 36t-35 86.5z" />
    <glyph glyph-name="gdotaccent" unicode="&#x121;" horiz-adv-x="1160" 
d="M350 312q0 -115 62.5 -168.5t152.5 -53.5t152.5 53.5t62.5 168.5v476q0 115 -62.5 168.5t-152.5 53.5t-152.5 -53.5t-62.5 -168.5v-476zM150 380v340q0 165 124 287q116 113 291 113t291 -113q124 -121 124 -287v-750q0 -165 -124 -287q-116 -113 -291 -113h-308v10
l48 100h260q90 0 153 54q62 52 62 168v163q-76 -85 -215 -85q-173 0 -291 113q-124 120 -124 287zM445 1407.5q0 50.5 35 86.5t85 36t85 -36t35 -86.5t-35 -86.5t-85 -36t-85 36t-35 86.5z" />
    <glyph glyph-name="Gcommaaccent" unicode="&#x122;" 
d="M1210 810v-330q0 -217 -135 -355q-142 -145 -370 -145t-370 145q-135 138 -135 355v550q0 217 135 355q142 145 370 145q236 0 370.5 -145t134.5 -335l-190 -90h-10v140q0 132 -72 217q-87 103 -233 103q-144 0 -233 -103q-72 -82 -72 -217v-690q0 -133 72 -217
q89 -103 233 -103t233 103q72 83 72 197v310h-331v10l47 100h484zM596 -450h-10l-176 84l221 316h10l117 -55z" />
    <glyph glyph-name="gcommaaccent" unicode="&#x123;" horiz-adv-x="1160" 
d="M350 312q0 -115 62.5 -168.5t152.5 -53.5t152.5 53.5t62.5 168.5v476q0 115 -62.5 168.5t-152.5 53.5t-152.5 -53.5t-62.5 -168.5v-476zM150 380v340q0 165 124 287q116 113 291 113t291 -113q124 -121 124 -287v-750q0 -165 -124 -287q-116 -113 -291 -113h-308v10
l48 100h260q90 0 153 54q62 52 62 168v163q-76 -85 -215 -85q-173 0 -291 113q-124 120 -124 287zM683 1566h10l176 -84l-221 -316h-10l-117 55z" />
    <glyph glyph-name="Hcircumflex" unicode="&#x124;" horiz-adv-x="1390" 
d="M200 -40v1500l190 90h10v-740h590v650l190 90h10v-1500l-190 -90h-10v740h-590v-650l-190 -90h-10zM434 1621l153 261l176 84h10l213 -345l-116 -55h-10l-150 208l-148 -208h-10z" />
    <glyph glyph-name="hcircumflex" unicode="&#x125;" horiz-adv-x="1180" 
d="M200 -40v1500l190 90h10v-515q75 85 215 85q173 0 291 -113q124 -120 124 -287v-670l-190 -90h-10v828q0 115 -62.5 168.5t-152.5 53.5t-152.5 -53.5t-62.5 -168.5v-738l-190 -90h-10zM361 1621l153 261l176 84h10l213 -345l-116 -55h-10l-150 208l-148 -208h-10z" />
    <glyph glyph-name="Hbar" unicode="&#x126;" horiz-adv-x="1390" 
d="M200 -40v1296h-150v10l47 100h103v94l190 90h10v-184h590v94l190 90h10v-184h150v-10l-47 -100h-103v-1206l-190 -90h-10v740h-590v-650l-190 -90h-10zM400 810h590v446h-590v-446z" />
    <glyph glyph-name="hbar" unicode="&#x127;" horiz-adv-x="1180" 
d="M200 -40v1296h-150v10l47 100h103v94l190 90h10v-184h250v-10l-47 -100h-203v-221q75 85 215 85q173 0 291 -113q124 -120 124 -287v-670l-190 -90h-10v828q0 115 -62.5 168.5t-152.5 53.5t-152.5 -53.5t-62.5 -168.5v-738l-190 -90h-10z" />
    <glyph glyph-name="Itilde" unicode="&#x128;" horiz-adv-x="600" 
d="M200 -40v1500l190 90h10v-1500l-190 -90h-10zM48 1638q0 286 141 286q64 0 137 -70q51 -49 75 -49q34 0 34 72l110 47h6q0 -286 -141 -286q-64 0 -137 70q-51 49 -75 49q-34 0 -34 -72l-110 -47h-6z" />
    <glyph glyph-name="itilde" unicode="&#x129;" horiz-adv-x="600" 
d="M200 -40v1090l190 90h10v-1090l-190 -90h-10zM48 1232q0 286 141 286q64 0 137 -70q51 -49 75 -49q34 0 34 72l110 47h6q0 -286 -141 -286q-64 0 -137 70q-51 49 -75 49q-34 0 -34 -72l-110 -47h-6z" />
    <glyph glyph-name="Imacron" unicode="&#x12a;" horiz-adv-x="600" 
d="M200 -40v1500l190 90h10v-1500l-190 -90h-10zM30 1638v10l81 172h458v-10l-81 -172h-458z" />
    <glyph glyph-name="imacron" unicode="&#x12b;" horiz-adv-x="600" 
d="M200 -40v1090l190 90h10v-1090l-190 -90h-10zM30 1232v10l81 172h458v-10l-81 -172h-458z" />
    <glyph glyph-name="Ibreve" unicode="&#x12c;" horiz-adv-x="600" 
d="M200 -40v1500l190 90h10v-1500l-190 -90h-10zM53 1788v10l74 149q72 -134 172 -134t172 134l76 -149v-10q-102 -150 -250 -150q-154 0 -244 150z" />
    <glyph glyph-name="ibreve" unicode="&#x12d;" horiz-adv-x="600" 
d="M200 -40v1090l190 90h10v-1090l-190 -90h-10zM53 1382v10l74 149q72 -134 172 -134t172 134l76 -149v-10q-102 -150 -250 -150q-154 0 -244 150z" />
    <glyph glyph-name="Iogonek" unicode="&#x12e;" horiz-adv-x="600" 
d="M200 10v1450l190 90h10v-1500l-39 -18q-83 -97 -83 -184q0 -121 134 -208l-190 -90h-10q-109 107 -109 244q0 120 97 216z" />
    <glyph glyph-name="iogonek" unicode="&#x12f;" horiz-adv-x="600" 
d="M180 1407.5q0 50.5 35 86.5t85 36t85 -36t35 -86.5t-35 -86.5t-85 -36t-85 36t-35 86.5zM200 10v1040l190 90h10v-1090l-39 -18q-83 -97 -83 -184q0 -121 134 -208l-190 -90h-10q-109 107 -109 244q0 120 97 216z" />
    <glyph glyph-name="Idotaccent" unicode="&#x130;" horiz-adv-x="600" 
d="M200 -40v1500l190 90h10v-1500l-190 -90h-10zM180 1802.5q0 50.5 35 86.5t85 36t85 -36t35 -86.5t-35 -86.5t-85 -36t-85 36t-35 86.5z" />
    <glyph glyph-name="dotlessi" unicode="&#x131;" horiz-adv-x="600" 
d="M200 -40v1090l190 90h10v-1090l-190 -90h-10z" />
    <glyph glyph-name="IJ" unicode="&#x132;" horiz-adv-x="1773" 
d="M563 460l190 90h10v-140q0 -132 72 -217q89 -103 233 -103t233 103q72 83 72 217v990h-573v10l47 100h726v-1030q0 -216 -135 -355q-142 -145 -370 -145q-225 0 -370 145q-135 134 -135 335zM200 -40v1500l190 90h10v-1500l-190 -90h-10z" />
    <glyph glyph-name="ij" unicode="&#x133;" horiz-adv-x="1100" 
d="M532 -340q66 17 106 54q62 57 62 168v1168l190 90h10v-1190q0 -165 -124 -287q-116 -113 -291 -113v10zM680 1407.5q0 50.5 35 86.5t85 36t85 -36t35 -86.5t-35 -86.5t-85 -36t-85 36t-35 86.5zM180 1407.5q0 50.5 35 86.5t85 36t85 -36t35 -86.5t-35 -86.5t-85 -36
t-85 36t-35 86.5zM200 -40v1090l190 90h10v-1090l-190 -90h-10z" />
    <glyph glyph-name="Jcircumflex" unicode="&#x134;" horiz-adv-x="1290" 
d="M80 460l190 90h10v-140q0 -132 72 -217q89 -103 233 -103t233 103q72 83 72 217v990h-573v10l47 100h726v-1030q0 -216 -135 -355q-142 -145 -370 -145q-225 0 -370 145q-135 134 -135 335zM468 1621l153 261l176 84h10l213 -345l-116 -55h-10l-150 208l-148 -208h-10z
" />
    <glyph glyph-name="jcircumflex" unicode="&#x135;" horiz-adv-x="600" 
d="M32 -340q66 17 106 54q62 57 62 168v1168l190 90h10v-1190q0 -165 -124 -287q-116 -113 -291 -113v10zM24 1221l153 261l176 84h10l213 -345l-116 -55h-10l-150 208l-148 -208h-10z" />
    <glyph glyph-name="Kcommaaccent" unicode="&#x136;" horiz-adv-x="1360" 
d="M200 -40v1500l190 90h10v-753l645 753h10l116 -60l-537 -617q273 0 411 -134q135 -131 135 -355v-334l-190 -90h-10v483q0 134 -72 217q-89 103 -218 103q-131 0 -218 -103q-72 -85 -72 -217v-393l-190 -90h-10zM596 -450h-10l-176 84l221 316h10l117 -55z" />
    <glyph glyph-name="kcommaaccent" unicode="&#x137;" horiz-adv-x="1180" 
d="M200 -40v1500l190 90h10v-833l474 423h10l107 -73l-343 -295q141 0 258 -113q124 -120 124 -287v-322l-190 -90h-10v480q0 115 -62.5 168.5t-152.5 53.5q-92 0 -153 -54q-62 -55 -62 -168v-390l-190 -90h-10zM513 -450h-10l-176 84l221 316h10l117 -55z" />
    <glyph glyph-name="kgreenlandic" unicode="&#x138;" horiz-adv-x="1180" 
d="M200 -40v1090l190 90h10v-423l474 423h10l107 -73l-343 -295q141 0 258 -113q124 -120 124 -287v-322l-190 -90h-10v480q0 115 -62.5 168.5t-152.5 53.5q-92 0 -153 -54q-62 -55 -62 -168v-390l-190 -90h-10z" />
    <glyph glyph-name="Lacute" unicode="&#x139;" horiz-adv-x="1090" 
d="M200 0v1460l190 90h10v-1440h685v-10l-47 -100h-838zM348 1966h10l176 -84l-221 -316h-10l-117 55z" />
    <glyph glyph-name="lacute" unicode="&#x13a;" horiz-adv-x="600" 
d="M348 1966h10l176 -84l-221 -316h-10l-117 55zM200 -40v1500l190 90h10v-1500l-190 -90h-10z" />
    <glyph glyph-name="Lcommaaccent" unicode="&#x13b;" horiz-adv-x="1090" 
d="M200 0v1460l190 90h10v-1440h685v-10l-47 -100h-838zM548 -450h-10l-176 84l221 316h10l117 -55z" />
    <glyph glyph-name="lcommaaccent" unicode="&#x13c;" horiz-adv-x="600" 
d="M252 -450h-10l-176 84l221 316h10l117 -55zM200 -40v1500l190 90h10v-1500l-190 -90h-10z" />
    <glyph glyph-name="Lcaron" unicode="&#x13d;" horiz-adv-x="1090" 
d="M200 0v1460l190 90h10v-1440h685v-10l-47 -100h-838zM594 1566h10l176 -84l-221 -316h-10l-117 55z" />
    <glyph glyph-name="lcaron" unicode="&#x13e;" horiz-adv-x="630" 
d="M594 1566h10l176 -84l-221 -316h-10l-117 55zM200 -40v1500l190 90h10v-1500l-190 -90h-10z" />
    <glyph glyph-name="Ldot" unicode="&#x13f;" horiz-adv-x="1090" 
d="M200 0v1460l190 90h10v-1440h685v-10l-47 -100h-838zM505 997.5q0 50.5 35 86.5t85 36t85 -36t35 -86.5t-35 -86.5t-85 -36t-85 36t-35 86.5z" />
    <glyph glyph-name="ldot" unicode="&#x140;" horiz-adv-x="665" 
d="M505 997.5q0 50.5 35 86.5t85 36t85 -36t35 -86.5t-35 -86.5t-85 -36t-85 36t-35 86.5zM200 -40v1500l190 90h10v-1500l-190 -90h-10z" />
    <glyph glyph-name="Lslash" unicode="&#x141;" horiz-adv-x="1090" 
d="M200 0v484l-73 91l73 62v823l190 90h10v-742l390 332h10l73 -91l-473 -397v-542h685v-10l-47 -100h-838z" />
    <glyph glyph-name="lslash" unicode="&#x142;" horiz-adv-x="756" 
d="M278 -40v680l-190 -162h-10l-73 97l273 233v652l190 90h10v-572l190 162h10l73 -97l-273 -233v-760l-190 -90h-10z" />
    <glyph glyph-name="Nacute" unicode="&#x143;" 
d="M200 -40v1070q0 216 135 355q142 145 370 145q225 0 370 -145q135 -134 135 -355v-980l-190 -90h-10v1140q0 134 -72 217q-89 103 -233 103t-233 -103q-72 -83 -72 -217v-1050l-190 -90h-10zM817 1966h10l176 -84l-221 -316h-10l-117 55z" />
    <glyph glyph-name="nacute" unicode="&#x144;" horiz-adv-x="1130" 
d="M150 -40v760q0 165 124 287q116 113 291 113q173 0 291 -113q124 -120 124 -287v-670l-190 -90h-10v828q0 115 -62.5 168.5t-152.5 53.5t-152.5 -53.5t-62.5 -168.5v-738l-190 -90h-10zM683 1566h10l176 -84l-221 -316h-10l-117 55z" />
    <glyph glyph-name="Ncommaaccent" unicode="&#x145;" 
d="M200 -40v1070q0 216 135 355q142 145 370 145q225 0 370 -145q135 -134 135 -355v-980l-190 -90h-10v1140q0 134 -72 217q-89 103 -233 103t-233 -103q-72 -83 -72 -217v-1050l-190 -90h-10zM596 -450h-10l-176 84l221 316h10l117 -55z" />
    <glyph glyph-name="ncommaaccent" unicode="&#x146;" horiz-adv-x="1130" 
d="M150 -40v760q0 165 124 287q116 113 291 113q173 0 291 -113q124 -120 124 -287v-670l-190 -90h-10v828q0 115 -62.5 168.5t-152.5 53.5t-152.5 -53.5t-62.5 -168.5v-738l-190 -90h-10zM471 -450h-10l-176 84l221 316h10l117 -55z" />
    <glyph glyph-name="Ncaron" unicode="&#x147;" 
d="M200 -40v1070q0 216 135 355q142 145 370 145q225 0 370 -145q135 -134 135 -355v-980l-190 -90h-10v1140q0 134 -72 217q-89 103 -233 103t-233 -103q-72 -83 -72 -217v-1050l-190 -90h-10zM647 1566l-213 345l116 55h10l150 -208l148 208h10l118 -55l-153 -261
l-176 -84h-10z" />
    <glyph glyph-name="ncaron" unicode="&#x148;" horiz-adv-x="1130" 
d="M150 -40v760q0 165 124 287q116 113 291 113q173 0 291 -113q124 -120 124 -287v-670l-190 -90h-10v828q0 115 -62.5 168.5t-152.5 53.5t-152.5 -53.5t-62.5 -168.5v-738l-190 -90h-10zM480 1166l-213 345l116 55h10l150 -208l148 208h10l118 -55l-153 -261l-176 -84h-10
z" />
    <glyph glyph-name="napostrophe" unicode="&#x149;" horiz-adv-x="1130" 
d="M150 -40v760q0 165 124 287q116 113 291 113q173 0 291 -113q124 -120 124 -287v-670l-190 -90h-10v828q0 115 -62.5 168.5t-152.5 53.5t-152.5 -53.5t-62.5 -168.5v-738l-190 -90h-10zM210 1454h10l176 -84l-221 -316h-10l-117 55z" />
    <glyph glyph-name="Eng" unicode="&#x14a;" 
d="M200 -40v1070q0 216 135 355q142 145 370 145q224 0 370 -145q135 -134 135 -355v-1080q0 -165 -124 -287q-116 -113 -291 -113v10l47 100q66 17 106 54q62 57 62 168v1218q0 134 -72 217q-89 103 -233 103t-233 -103q-72 -83 -72 -217v-1050l-190 -90h-10z" />
    <glyph glyph-name="eng" unicode="&#x14b;" horiz-adv-x="1130" 
d="M150 -40v760q0 165 124 287q116 113 291 113q173 0 291 -113q124 -120 124 -287v-770q0 -166 -124 -287q-116 -113 -291 -113v10l47 100q66 17 106 54q62 57 62 168v906q0 115 -62.5 168.5t-152.5 53.5t-152.5 -53.5t-62.5 -168.5v-738l-190 -90h-10z" />
    <glyph glyph-name="Omacron" unicode="&#x14c;" 
d="M400 410q0 -134 72 -217q89 -103 233 -103t233 103q72 83 72 217v690q0 134 -72 217q-89 103 -233 103t-233 -103q-72 -83 -72 -217v-690zM200 480v550q0 217 135 355q142 145 370 145t370 -145q135 -137 135 -355v-550q0 -217 -135 -355q-142 -145 -370 -145t-370 145
q-135 138 -135 355zM467 1638v10l81 172h458v-10l-81 -172h-458z" />
    <glyph glyph-name="omacron" unicode="&#x14d;" horiz-adv-x="1130" 
d="M150 380v340q0 165 124 287q116 113 291 113q173 0 291 -113q124 -120 124 -287v-340q0 -165 -124 -287q-116 -113 -291 -113q-173 0 -291 113q-124 120 -124 287zM350 312q0 -115 62.5 -168.5t152.5 -53.5t152.5 53.5t62.5 168.5v476q0 115 -62.5 168.5t-152.5 53.5
t-152.5 -53.5t-62.5 -168.5v-476zM320 1232v10l81 172h458v-10l-81 -172h-458z" />
    <glyph glyph-name="Obreve" unicode="&#x14e;" 
d="M400 410q0 -134 72 -217q89 -103 233 -103t233 103q72 83 72 217v690q0 134 -72 217q-89 103 -233 103t-233 -103q-72 -83 -72 -217v-690zM200 480v550q0 217 135 355q142 145 370 145t370 -145q135 -137 135 -355v-550q0 -217 -135 -355q-142 -145 -370 -145t-370 145
q-135 138 -135 355zM468 1788v10l74 149q72 -134 172 -134t172 134l76 -149v-10q-102 -150 -250 -150q-154 0 -244 150z" />
    <glyph glyph-name="obreve" unicode="&#x14f;" horiz-adv-x="1130" 
d="M150 380v340q0 165 124 287q116 113 291 113q173 0 291 -113q124 -120 124 -287v-340q0 -165 -124 -287q-116 -113 -291 -113q-173 0 -291 113q-124 120 -124 287zM350 312q0 -115 62.5 -168.5t152.5 -53.5t152.5 53.5t62.5 168.5v476q0 115 -62.5 168.5t-152.5 53.5
t-152.5 -53.5t-62.5 -168.5v-476zM320 1382v10l74 149q72 -134 172 -134t172 134l76 -149v-10q-102 -150 -250 -150q-154 0 -244 150z" />
    <glyph glyph-name="Ohungarumlaut" unicode="&#x150;" 
d="M400 410q0 -134 72 -217q89 -103 233 -103t233 103q72 83 72 217v690q0 134 -72 217q-89 103 -233 103t-233 -103q-72 -83 -72 -217v-690zM200 480v550q0 217 135 355q142 145 370 145t370 -145q135 -137 135 -355v-550q0 -217 -135 -355q-142 -145 -370 -145t-370 145
q-135 138 -135 355zM933 1966h10l176 -84l-221 -316h-10l-117 55zM656 1966h10l176 -84l-221 -316h-10l-117 55z" />
    <glyph glyph-name="ohungarumlaut" unicode="&#x151;" horiz-adv-x="1130" 
d="M150 380v340q0 165 124 287q116 113 291 113q173 0 291 -113q124 -120 124 -287v-340q0 -165 -124 -287q-116 -113 -291 -113q-173 0 -291 113q-124 120 -124 287zM350 312q0 -115 62.5 -168.5t152.5 -53.5t152.5 53.5t62.5 168.5v476q0 115 -62.5 168.5t-152.5 53.5
t-152.5 -53.5t-62.5 -168.5v-476zM770 1566h10l176 -84l-221 -316h-10l-117 55zM493 1566h10l176 -84l-221 -316h-10l-117 55z" />
    <glyph glyph-name="OE" unicode="&#x152;" horiz-adv-x="1967" 
d="M400 410q0 -134 72 -217q89 -103 233 -103t233 103q72 83 72 217v690q0 134 -72 217q-89 103 -233 103t-233 -103q-72 -83 -72 -217v-690zM200 480v550q0 217 135 355q142 145 370 145q179 0 305 -89v19l106 50h634v-10l-47 -100h-493v-590h540v-10l-47 -100h-493v-590
h707v-10l-47 -100h-860v69q-126 -89 -305 -89q-228 0 -370 145q-135 138 -135 355z" />
    <glyph glyph-name="oe" unicode="&#x153;" horiz-adv-x="1760" 
d="M980 399l430 349v40q0 114 -62 168q-63 54 -153 54q-89 0 -153 -54q-62 -52 -62 -168v-389zM350 312q0 -115 62.5 -168.5t152.5 -53.5t152.5 53.5t62.5 168.5v476q0 115 -62.5 168.5t-152.5 53.5t-152.5 -53.5t-62.5 -168.5v-476zM150 380v340q0 165 124 287
q116 113 291 113q169 0 291 -113q13 -12 24 -25q11 13 24 25q122 113 291 113q171 0 291 -113q124 -117 124 -258l-624 -504q14 -65 56 -101q63 -54 153 -54t152.5 54t62.5 209l190 90h10v-63q0 -166 -124 -287q-116 -113 -291 -113q-168 0 -291 113q-12 11 -24 25
q-11 -13 -24 -25q-122 -113 -291 -113q-173 0 -291 113q-124 120 -124 287z" />
    <glyph glyph-name="Racute" unicode="&#x154;" horiz-adv-x="1364" 
d="M200 -40v1500l106 50h379q228 0 370 -145q135 -138 135 -355q0 -218 -135 -355q-80 -81 -187 -117l346 -495l-176 -83h-10l-385 550h-243v-460l-190 -90h-10zM400 620h285q131 0 233 103q72 73 72 287q0 204 -72 287q-89 103 -233 103h-285v-780zM700 1966h10l176 -84
l-221 -316h-10l-117 55z" />
    <glyph glyph-name="racute" unicode="&#x155;" horiz-adv-x="720" 
d="M150 -40v760q0 165 124 287q116 113 291 113h135v-10l-48 -100h-87q-90 0 -152.5 -53.5t-62.5 -168.5v-738l-190 -90h-10zM473 1566h10l176 -84l-221 -316h-10l-117 55z" />
    <glyph glyph-name="Rcommaaccent" unicode="&#x156;" horiz-adv-x="1364" 
d="M200 -40v1500l106 50h379q228 0 370 -145q135 -138 135 -355q0 -218 -135 -355q-80 -81 -187 -117l346 -495l-176 -83h-10l-385 550h-243v-460l-190 -90h-10zM400 620h285q131 0 233 103q72 73 72 287q0 204 -72 287q-89 103 -233 103h-285v-780zM596 -450h-10l-176 84
l221 316h10l117 -55z" />
    <glyph glyph-name="rcommaaccent" unicode="&#x157;" horiz-adv-x="720" 
d="M150 -40v760q0 165 124 287q116 113 291 113h135v-10l-48 -100h-87q-90 0 -152.5 -53.5t-62.5 -168.5v-738l-190 -90h-10zM210 -450h-10l-176 84l221 316h10l117 -55z" />
    <glyph glyph-name="Rcaron" unicode="&#x158;" horiz-adv-x="1364" 
d="M200 -40v1500l106 50h379q228 0 370 -145q135 -138 135 -355q0 -218 -135 -355q-80 -81 -187 -117l346 -495l-176 -83h-10l-385 550h-243v-460l-190 -90h-10zM400 620h285q131 0 233 103q72 73 72 287q0 204 -72 287q-89 103 -233 103h-285v-780zM587 1566l-213 345
l116 55h10l150 -208l148 208h10l118 -55l-153 -261l-176 -84h-10z" />
    <glyph glyph-name="rcaron" unicode="&#x159;" horiz-adv-x="720" 
d="M150 -40v760q0 165 124 287q116 113 291 113h135v-10l-48 -100h-87q-90 0 -152.5 -53.5t-62.5 -168.5v-738l-190 -90h-10zM327 1166l-213 345l116 55h10l150 -208l148 208h10l118 -55l-153 -261l-176 -84h-10z" />
    <glyph glyph-name="Sacute" unicode="&#x15a;" horiz-adv-x="1329" 
d="M160 460l190 90h10v-152q0 -122 72 -205q89 -103 233 -103q143 0 233 103q71 81 71 277q0 154 -58 222q-80 94 -246 94q-194 0 -315 108q-100 90 -100 254q0 185 124 286q118 96 291 96t291 -96q124 -101 124 -277l-190 -90h-10v128q0 114 -65 170q-63 55 -150 55
q-97 0 -156 -61t-59 -212q0 -134 45 -184q60 -67 170 -67q252 0 375 -113q129 -119 129 -311q0 -204 -134 -347q-137 -145 -370 -145t-370 145q-135 143 -135 335zM781 1966h10l176 -84l-221 -316h-10l-117 55z" />
    <glyph glyph-name="sacute" unicode="&#x15b;" horiz-adv-x="1070" 
d="M120 353l190 90h10v-128q0 -112 65 -170q62 -55 150 -55q102 0 159 65q60 67 60 193q0 115 -64 165q-55 43 -156 43q-193 0 -288 77q-84 68 -84 186q0 139 127 230q99 71 246 71q141 0 245 -88q80 -69 99 -160l-190 -90h-10v77q0 50 -30 89q-48 62 -137 62
q-71 0 -116 -44q-44 -45 -44 -141q0 -101 54 -138q30 -21 128 -21q212 0 318 -89q98 -82 98 -237q0 -130 -115 -248q-109 -112 -300 -112q-173 0 -291 96q-124 101 -124 277zM651 1566h10l176 -84l-221 -316h-10l-117 55z" />
    <glyph glyph-name="Scircumflex" unicode="&#x15c;" horiz-adv-x="1329" 
d="M160 460l190 90h10v-152q0 -122 72 -205q89 -103 233 -103q143 0 233 103q71 81 71 277q0 154 -58 222q-80 94 -246 94q-194 0 -315 108q-100 90 -100 254q0 185 124 286q118 96 291 96t291 -96q124 -101 124 -277l-190 -90h-10v128q0 114 -65 170q-63 55 -150 55
q-97 0 -156 -61t-59 -212q0 -134 45 -184q60 -67 170 -67q252 0 375 -113q129 -119 129 -311q0 -204 -134 -347q-137 -145 -370 -145t-370 145q-135 143 -135 335zM390 1621l153 261l176 84h10l213 -345l-116 -55h-10l-150 208l-148 -208h-10z" />
    <glyph glyph-name="scircumflex" unicode="&#x15d;" horiz-adv-x="1070" 
d="M120 353l190 90h10v-128q0 -112 65 -170q62 -55 150 -55q102 0 159 65q60 67 60 193q0 115 -64 165q-55 43 -156 43q-193 0 -288 77q-84 68 -84 186q0 139 127 230q99 71 246 71q141 0 245 -88q80 -69 99 -160l-190 -90h-10v77q0 50 -30 89q-48 62 -137 62
q-71 0 -116 -44q-44 -45 -44 -141q0 -101 54 -138q30 -21 128 -21q212 0 318 -89q98 -82 98 -237q0 -130 -115 -248q-109 -112 -300 -112q-173 0 -291 96q-124 101 -124 277zM264 1221l153 261l176 84h10l213 -345l-116 -55h-10l-150 208l-148 -208h-10z" />
    <glyph glyph-name="Scedilla" unicode="&#x15e;" horiz-adv-x="1329" 
d="M160 460l190 90h10v-152q0 -122 72 -205q89 -103 233 -103q143 0 233 103q71 81 71 277q0 154 -58 222q-80 94 -246 94q-194 0 -315 108q-100 90 -100 254q0 185 124 286q118 96 291 96t291 -96q124 -101 124 -277l-190 -90h-10v128q0 114 -65 170q-63 55 -150 55
q-97 0 -156 -61t-59 -212q0 -134 45 -184q60 -67 170 -67q252 0 375 -113q129 -119 129 -311q0 -205 -134 -347q-116 -123 -302 -142q73 -84 73 -189q0 -137 -109 -244h-10l-190 90q134 87 134 208q0 65 -47 137q-177 21 -289 140q-135 143 -135 335z" />
    <glyph glyph-name="scedilla" unicode="&#x15f;" horiz-adv-x="1070" 
d="M120 353l190 90h10v-128q0 -112 65 -170q62 -55 150 -55q102 0 159 65q60 67 60 193q0 115 -64 165q-55 43 -156 43q-193 0 -288 77q-84 68 -84 186q0 139 127 230q99 71 246 71q141 0 245 -88q80 -69 99 -160l-190 -90h-10v77q0 50 -30 89q-48 62 -137 62
q-71 0 -116 -44q-44 -45 -44 -141q0 -101 54 -138q30 -21 128 -21q212 0 318 -89q98 -82 98 -237q0 -130 -115 -248q-88 -90 -228 -108q72 -85 72 -190q0 -137 -109 -244h-10l-190 90q134 87 134 208q0 67 -48 137q-122 18 -212 91q-124 101 -124 277z" />
    <glyph glyph-name="Scaron" unicode="&#x160;" horiz-adv-x="1329" 
d="M160 460l190 90h10v-152q0 -122 72 -205q89 -103 233 -103q143 0 233 103q71 81 71 277q0 154 -58 222q-80 94 -246 94q-194 0 -315 108q-100 90 -100 254q0 185 124 286q118 96 291 96t291 -96q124 -101 124 -277l-190 -90h-10v128q0 114 -65 170q-63 55 -150 55
q-97 0 -156 -61t-59 -212q0 -134 45 -184q60 -67 170 -67q252 0 375 -113q129 -119 129 -311q0 -204 -134 -347q-137 -145 -370 -145t-370 145q-135 143 -135 335zM568 1566l-213 345l116 55h10l150 -208l148 208h10l118 -55l-153 -261l-176 -84h-10z" />
    <glyph glyph-name="scaron" unicode="&#x161;" horiz-adv-x="1070" 
d="M120 353l190 90h10v-128q0 -112 65 -170q62 -55 150 -55q102 0 159 65q60 67 60 193q0 115 -64 165q-55 43 -156 43q-193 0 -288 77q-84 68 -84 186q0 139 127 230q99 71 246 71q141 0 245 -88q80 -69 99 -160l-190 -90h-10v77q0 50 -30 89q-48 62 -137 62
q-71 0 -116 -44q-44 -45 -44 -141q0 -101 54 -138q30 -21 128 -21q212 0 318 -89q98 -82 98 -237q0 -130 -115 -248q-109 -112 -300 -112q-173 0 -291 96q-124 101 -124 277zM431 1166l-213 345l116 55h10l150 -208l148 208h10l118 -55l-153 -261l-176 -84h-10z" />
    <glyph glyph-name="Tcommaaccent" unicode="&#x162;" horiz-adv-x="1066" 
d="M433 -40v1440h-428v10l47 100h1009v-10l-47 -100h-381v-1350q146 -111 146 -256q0 -137 -109 -244h-10l-190 90q134 87 134 208q0 75 -63 158l-98 -46h-10z" />
    <glyph glyph-name="tcommaaccent" unicode="&#x163;" horiz-adv-x="764" 
d="M282 -40v1030h-257v10l47 100h210v360l190 90h10v-450h257v-10l-47 -100h-210v-940q146 -111 146 -256q0 -137 -109 -244h-10l-190 90q134 87 134 208q0 74 -64 158l-97 -46h-10z" />
    <glyph glyph-name="Tcaron" unicode="&#x164;" horiz-adv-x="1066" 
d="M433 -40v1440h-428v10l47 100h1009v-10l-47 -100h-381v-1350l-190 -90h-10zM448 1566l-213 345l116 55h10l150 -208l148 208h10l118 -55l-153 -261l-176 -84h-10z" />
    <glyph glyph-name="tcaron" unicode="&#x165;" horiz-adv-x="764" 
d="M282 -40v1030h-257v10l47 100h210v360l190 90h10v-450h257v-10l-47 -100h-210v-940l-190 -90h-10zM683 1566h10l176 -84l-221 -316h-10l-117 55z" />
    <glyph glyph-name="Tbar" unicode="&#x166;" horiz-adv-x="1066" 
d="M433 -40v740h-200v10l47 100h153v590h-428v10l47 100h1009v-10l-47 -100h-381v-590h200v-10l-47 -100h-153v-650l-190 -90h-10z" />
    <glyph glyph-name="tbar" unicode="&#x167;" horiz-adv-x="764" 
d="M282 -40v740h-200v10l47 100h153v180h-257v10l47 100h210v360l190 90h10v-450h257v-10l-47 -100h-210v-180h200v-10l-47 -100h-153v-650l-190 -90h-10z" />
    <glyph glyph-name="Utilde" unicode="&#x168;" 
d="M200 1460l190 90h10v-1140q0 -134 72 -217q89 -103 233 -103t233 103q72 83 72 217v1050l190 90h10v-1070q0 -216 -135 -355q-142 -145 -370 -145q-225 0 -370 145q-135 134 -135 355v980zM471 1638q0 286 141 286q64 0 137 -70q51 -49 75 -49q34 0 34 72l110 47h6
q0 -286 -141 -286q-64 0 -137 70q-51 49 -75 49q-34 0 -34 -72l-110 -47h-6z" />
    <glyph glyph-name="utilde" unicode="&#x169;" horiz-adv-x="1130" 
d="M150 1050l190 90h10v-828q0 -115 62.5 -168.5t152.5 -53.5t152.5 53.5t62.5 168.5v738l190 90h10v-760q0 -165 -124 -287q-116 -113 -291 -113q-173 0 -291 113q-124 120 -124 287v670zM342 1232q0 286 141 286q64 0 137 -70q51 -49 75 -49q34 0 34 72l110 47h6
q0 -286 -141 -286q-64 0 -137 70q-51 49 -75 49q-34 0 -34 -72l-110 -47h-6z" />
    <glyph glyph-name="Umacron" unicode="&#x16a;" 
d="M200 1460l190 90h10v-1140q0 -134 72 -217q89 -103 233 -103t233 103q72 83 72 217v1050l190 90h10v-1070q0 -216 -135 -355q-142 -145 -370 -145q-225 0 -370 145q-135 134 -135 355v980zM467 1638v10l81 172h458v-10l-81 -172h-458z" />
    <glyph glyph-name="umacron" unicode="&#x16b;" horiz-adv-x="1130" 
d="M150 1050l190 90h10v-828q0 -115 62.5 -168.5t152.5 -53.5t152.5 53.5t62.5 168.5v738l190 90h10v-760q0 -165 -124 -287q-116 -113 -291 -113q-173 0 -291 113q-124 120 -124 287v670zM320 1232v10l81 172h458v-10l-81 -172h-458z" />
    <glyph glyph-name="Ubreve" unicode="&#x16c;" 
d="M200 1460l190 90h10v-1140q0 -134 72 -217q89 -103 233 -103t233 103q72 83 72 217v1050l190 90h10v-1070q0 -216 -135 -355q-142 -145 -370 -145q-225 0 -370 145q-135 134 -135 355v980zM468 1788v10l74 149q72 -134 172 -134t172 134l76 -149v-10q-102 -150 -250 -150
q-154 0 -244 150z" />
    <glyph glyph-name="ubreve" unicode="&#x16d;" horiz-adv-x="1130" 
d="M150 1050l190 90h10v-828q0 -115 62.5 -168.5t152.5 -53.5t152.5 53.5t62.5 168.5v738l190 90h10v-760q0 -165 -124 -287q-116 -113 -291 -113q-173 0 -291 113q-124 120 -124 287v670zM320 1382v10l74 149q72 -134 172 -134t172 134l76 -149v-10q-102 -150 -250 -150
q-154 0 -244 150z" />
    <glyph glyph-name="Uring" unicode="&#x16e;" 
d="M200 1460l190 90h10v-1140q0 -134 72 -217q89 -103 233 -103t233 103q72 83 72 217v1050l190 90h10v-1070q0 -216 -135 -355q-142 -145 -370 -145q-225 0 -370 145q-135 134 -135 355v980zM705 1588q-80 0 -135 49q-62 55 -62 140q0 83 62 140q53 49 135 49q80 0 135 -49
q62 -55 62 -140t-62 -140q-55 -49 -135 -49zM705 1862q-34 0 -54 -21t-20 -64q0 -46 21 -65q22 -20 52 -20q31 0 53 22q20 19 20 63q0 45 -22 66q-20 19 -50 19z" />
    <glyph glyph-name="uring" unicode="&#x16f;" horiz-adv-x="1130" 
d="M150 1050l190 90h10v-828q0 -115 62.5 -168.5t152.5 -53.5t152.5 53.5t62.5 168.5v738l190 90h10v-760q0 -165 -124 -287q-116 -113 -291 -113q-173 0 -291 113q-124 120 -124 287v670zM566 1188q-80 0 -135 49q-62 55 -62 140q0 83 62 140q53 49 135 49q80 0 135 -49
q62 -55 62 -140t-62 -140q-55 -49 -135 -49zM566 1462q-34 0 -54 -21t-20 -64q0 -46 21 -65q22 -20 52 -20q31 0 53 22q20 19 20 63q0 45 -22 66q-20 19 -50 19z" />
    <glyph glyph-name="Uhungarumlaut" unicode="&#x170;" 
d="M200 1460l190 90h10v-1140q0 -134 72 -217q89 -103 233 -103t233 103q72 83 72 217v1050l190 90h10v-1070q0 -216 -135 -355q-142 -145 -370 -145q-225 0 -370 145q-135 134 -135 355v980zM933 1966h10l176 -84l-221 -316h-10l-117 55zM656 1966h10l176 -84l-221 -316
h-10l-117 55z" />
    <glyph glyph-name="uhungarumlaut" unicode="&#x171;" horiz-adv-x="1130" 
d="M150 1050l190 90h10v-828q0 -115 62.5 -168.5t152.5 -53.5t152.5 53.5t62.5 168.5v738l190 90h10v-760q0 -165 -124 -287q-116 -113 -291 -113q-173 0 -291 113q-124 120 -124 287v670zM770 1566h10l176 -84l-221 -316h-10l-117 55zM493 1566h10l176 -84l-221 -316h-10
l-117 55z" />
    <glyph glyph-name="Uogonek" unicode="&#x172;" 
d="M200 1460l190 90h10v-1140q0 -134 72 -217q89 -103 233 -103t233 103q72 83 72 217v1050l190 90h10v-1070q0 -220 -135 -355q-36 -36 -77 -64q-110 -113 -110 -213q0 -121 134 -208l-190 -90h-10q-109 107 -109 244q0 105 74 191q-39 -5 -82 -5q-224 0 -370 145
q-135 134 -135 355v980z" />
    <glyph glyph-name="uogonek" unicode="&#x173;" horiz-adv-x="1130" 
d="M150 1050l190 90h10v-828q0 -115 62.5 -168.5t152.5 -53.5t152.5 53.5t62.5 168.5v738l190 90h10v-760q0 -169 -124 -287q-20 -19 -41 -35q-107 -112 -107 -210q0 -121 134 -208l-190 -90h-10q-109 107 -109 244q0 104 70 187q-19 -1 -38 -1q-173 0 -291 113
q-124 120 -124 287v670z" />
    <glyph glyph-name="Wcircumflex" unicode="&#x174;" horiz-adv-x="2220" 
d="M200 1460l190 90h10v-1140q0 -134 72 -217q89 -103 233 -103t233 103q72 83 72 217v1050l190 90h10v-1140q0 -134 72 -217q89 -103 233 -103t233 103q72 83 72 217v1050l190 90h10v-1070q0 -216 -135 -355q-142 -145 -370 -145q-206 0 -351 145q-36 36 -54 70
q-23 -35 -56 -67q-151 -148 -349 -148q-224 0 -370 145q-135 134 -135 355v980zM823 1621l153 261l176 84h10l213 -345l-116 -55h-10l-150 208l-148 -208h-10z" />
    <glyph glyph-name="wcircumflex" unicode="&#x175;" horiz-adv-x="1760" 
d="M150 1050l190 90h10v-828q0 -115 62.5 -168.5t152.5 -53.5t152.5 53.5t62.5 168.5v738l190 90h10v-828q0 -115 62.5 -168.5t152.5 -53.5t152.5 53.5t62.5 168.5v738l190 90h10v-760q0 -165 -124 -287q-116 -113 -291 -113q-159 0 -275 116q-22 22 -40 52q-18 -29 -40 -51
q-125 -117 -275 -117q-173 0 -291 113q-124 120 -124 287v670zM598 1221l153 261l176 84h10l213 -345l-116 -55h-10l-150 208l-148 -208h-10z" />
    <glyph glyph-name="Ycircumflex" unicode="&#x176;" horiz-adv-x="1310" 
d="M555 -40v524q-157 26 -270 137q-135 133 -135 355v484l190 90h10v-636q0 -134 72 -217q89 -103 233 -103q152 0 233 103q72 92 72 217v546l190 90h10v-574q0 -216 -135 -355q-109 -112 -270 -137v-434l-190 -90h-10zM390 1621l153 261l176 84h10l213 -345l-116 -55h-10
l-150 208l-148 -208h-10z" />
    <glyph glyph-name="ycircumflex" unicode="&#x177;" horiz-adv-x="1180" 
d="M150 380v670l190 90h10v-828q0 -115 62.5 -168.5t152.5 -53.5t152.5 53.5t62.5 168.5v738l190 90h10v-1170q0 -165 -124 -287q-116 -113 -291 -113h-308v10l48 100h260q90 0 153 54q62 53 62 168v163q-74 -85 -215 -85q-171 0 -291 113q-124 118 -124 287zM294 1221
l153 261l176 84h10l213 -345l-116 -55h-10l-150 208l-148 -208h-10z" />
    <glyph glyph-name="Ydieresis" unicode="&#x178;" horiz-adv-x="1310" 
d="M555 -40v524q-157 26 -270 137q-135 133 -135 355v484l190 90h10v-636q0 -134 72 -217q89 -103 233 -103q152 0 233 103q72 92 72 217v546l190 90h10v-574q0 -216 -135 -355q-109 -112 -270 -137v-434l-190 -90h-10zM688 1802.5q0 50.5 35 86.5t85 36t85 -36t35 -86.5
t-35 -86.5t-85 -36t-85 36t-35 86.5zM388 1802.5q0 50.5 35 86.5t85 36t85 -36t35 -86.5t-35 -86.5t-85 -36t-85 36t-35 86.5z" />
    <glyph glyph-name="Zacute" unicode="&#x179;" horiz-adv-x="1267" 
d="M150 0v10l681 1390h-671v10l47 100h900v-10l-684 -1390h694v-10l-47 -100h-920zM699 1966h10l176 -84l-221 -316h-10l-117 55z" />
    <glyph glyph-name="zacute" unicode="&#x17a;" horiz-adv-x="1053" 
d="M100 0v10l557 980h-547v10l47 100h786v-10l-556 -980h566v-10l-47 -100h-806zM602 1566h10l176 -84l-221 -316h-10l-117 55z" />
    <glyph glyph-name="Zdotaccent" unicode="&#x17b;" horiz-adv-x="1267" 
d="M150 0v10l681 1390h-671v10l47 100h900v-10l-684 -1390h694v-10l-47 -100h-920zM527 1802.5q0 50.5 35 86.5t85 36t85 -36t35 -86.5t-35 -86.5t-85 -36t-85 36t-35 86.5z" />
    <glyph glyph-name="zdotaccent" unicode="&#x17c;" horiz-adv-x="1053" 
d="M100 0v10l557 980h-547v10l47 100h786v-10l-556 -980h566v-10l-47 -100h-806zM418 1407.5q0 50.5 35 86.5t85 36t85 -36t35 -86.5t-35 -86.5t-85 -36t-85 36t-35 86.5z" />
    <glyph glyph-name="Zcaron" unicode="&#x17d;" horiz-adv-x="1267" 
d="M150 0v10l681 1390h-671v10l47 100h900v-10l-684 -1390h694v-10l-47 -100h-920zM569 1566l-213 345l116 55h10l150 -208l148 208h10l118 -55l-153 -261l-176 -84h-10z" />
    <glyph glyph-name="zcaron" unicode="&#x17e;" horiz-adv-x="1053" 
d="M100 0v10l557 980h-547v10l47 100h786v-10l-556 -980h566v-10l-47 -100h-806zM480 1166l-213 345l116 55h10l150 -208l148 208h10l118 -55l-153 -261l-176 -84h-10z" />
    <glyph glyph-name="longs" unicode="&#x17f;" horiz-adv-x="850" 
d="M450 50l-190 -90h-10v890h-200v10l47 100h153v170q0 165 124 287q116 113 291 113h135v-10l-48 -100h-87q-89 0 -153 -54q-62 -51 -62 -168v-1148z" />
    <glyph glyph-name="uni0191" unicode="&#x191;" horiz-adv-x="1120" 
d="M32 -340q66 17 106 54q62 57 62 168v1578l106 50h634v-10l-47 -100h-493v-590h540v-10l-47 -100h-493v-750q0 -166 -124 -287q-116 -113 -291 -113v10z" />
    <glyph glyph-name="florin" unicode="&#x192;" horiz-adv-x="850" 
d="M32 -340q66 17 106 54q62 57 62 168v968h-150v10l47 100h103v170q0 165 124 287q116 113 291 113h135v-10l-48 -100h-87q-89 0 -153 -54q-62 -52 -62 -168v-238h350v-10l-47 -100h-303v-900q0 -165 -124 -287q-116 -113 -291 -113v10z" />
    <glyph glyph-name="uni01E4" unicode="&#x1e4;" 
d="M1210 810v-273h150v-10l-47 -100h-105q-15 -181 -133 -302q-141 -145 -370 -145q-228 0 -370 145q-135 138 -135 355v550q0 217 135 355q142 145 370 145q236 0 370.5 -145t134.5 -335l-190 -90h-10v140q0 132 -72 217q-87 103 -233 103q-143 0 -233 -103
q-72 -83 -72 -217v-690q0 -133 72 -217q89 -103 233 -103t233 103q72 83 72 197v37h-250v10l47 100h203v163h-331v10l47 100h484z" />
    <glyph glyph-name="uni01E5" unicode="&#x1e5;" horiz-adv-x="1160" 
d="M350 312q0 -115 62.5 -168.5t152.5 -53.5t152.5 53.5t62.5 168.5v176h-270v10l47 100h223v190q0 115 -62.5 168.5t-152.5 53.5t-152.5 -53.5t-62.5 -168.5v-476zM150 380v340q0 165 124 287q116 113 291 113t291 -113q124 -121 124 -287v-122h130v-10l-47 -100h-83v-518
q0 -165 -124 -287q-116 -113 -291 -113h-308v10l48 100h260q90 0 153 54q62 52 62 168v163q-76 -85 -215 -85q-173 0 -291 113q-124 120 -124 287z" />
    <glyph glyph-name="AEacute" unicode="&#x1fc;" horiz-adv-x="1967" 
d="M200 -40v1070q0 216 135 355q142 145 370 145q177 0 305 -90v20l106 50h634v-10l-47 -100h-493v-590h540v-10l-47 -100h-493v-590h707v-10l-47 -100h-860v700h-610v-650l-190 -90h-10zM400 810h610v290q0 134 -72 217q-90 103 -233 103q-144 0 -233 -103
q-72 -84 -72 -217v-290zM1075 1966h10l176 -84l-221 -316h-10l-117 55z" />
    <glyph glyph-name="aeacute" unicode="&#x1fd;" horiz-adv-x="1690" 
d="M296 360q0 -156 54 -214q52 -56 146 -56q100 0 152 57q57 62 57 218q0 148 -61 208q-58 57 -149 57q-93 0 -146 -59t-53 -211zM710 -40v105q-80 -85 -215 -85q-187 0 -291 113t-104 267q0 160 113 272q109 108 282 108q123 0 215 -85q0 177 -62 266t-153 89h-243v10
l47 100h196q169 0 291 -113q13 -12 24 -25q11 13 24 25q122 113 291 113q171 0 291 -113q124 -117 124 -258l-624 -504q14 -65 56 -101q63 -54 153 -54t152.5 54t62.5 209l190 90h10v-63q0 -166 -124 -287q-116 -113 -291 -113q-130 0 -229 64l-176 -84h-10zM910 788v-389
l430 349v40q0 114 -62 168q-63 54 -153 54q-89 0 -153 -54q-62 -52 -62 -168zM910 1566h10l176 -84l-221 -316h-10l-117 55z" />
    <glyph glyph-name="Oslashacute" unicode="&#x1fe;" 
d="M394 -40l-104 50l51 109q-141 144 -141 361v550q0 217 135 355q142 145 370 145q150 0 263 -63l38 83h10l104 -51l-50 -109q140 -137 140 -360v-550q0 -217 -135 -355q-142 -145 -370 -145q-150 0 -263 63l-38 -83h-10zM911 1345q-83 75 -206 75q-144 0 -233 -103
q-72 -83 -72 -217v-690q0 -68 19 -123zM991 1223l-492 -1058q83 -75 206 -75q144 0 233 103q72 83 72 217v690q0 68 -19 123zM817 1966h10l176 -84l-221 -316h-10l-117 55z" />
    <glyph glyph-name="oslashacute" unicode="&#x1ff;" horiz-adv-x="1130" 
d="M349 -40l-104 50l36 77q-131 126 -131 293v340q0 165 124 287q116 113 291 113q98 0 179 -36l26 56h10l105 -51l-35 -76q130 -120 130 -293v-340q0 -165 -124 -287q-116 -113 -291 -113q-99 0 -180 37l-26 -57h-10zM693 975q-55 35 -128 35q-90 0 -152.5 -53.5
t-62.5 -168.5v-476q0 -35 6 -64zM774 852l-338 -726q55 -36 129 -36q90 0 152.5 53.5t62.5 168.5v476q0 35 -6 64zM683 1566h10l176 -84l-221 -316h-10l-117 55z" />
    <glyph glyph-name="Scommaaccent" unicode="&#x218;" horiz-adv-x="1329" 
d="M160 460l190 90h10v-152q0 -122 72 -205q89 -103 233 -103q143 0 233 103q71 81 71 277q0 154 -58 222q-80 94 -246 94q-194 0 -315 108q-100 90 -100 254q0 185 124 286q118 96 291 96t291 -96q124 -101 124 -277l-190 -90h-10v128q0 114 -65 170q-63 55 -150 55
q-97 0 -156 -61t-59 -212q0 -134 45 -184q60 -67 170 -67q252 0 375 -113q129 -119 129 -311q0 -204 -134 -347q-137 -145 -370 -145t-370 145q-135 143 -135 335zM561 -450h-10l-176 84l221 316h10l117 -55z" />
    <glyph glyph-name="scommaaccent" unicode="&#x219;" horiz-adv-x="1070" 
d="M120 353l190 90h10v-128q0 -112 65 -170q62 -55 150 -55q102 0 159 65q60 67 60 193q0 115 -64 165q-55 43 -156 43q-193 0 -288 77q-84 68 -84 186q0 139 127 230q99 71 246 71q141 0 245 -88q80 -69 99 -160l-190 -90h-10v77q0 50 -30 89q-48 62 -137 62
q-71 0 -116 -44q-44 -45 -44 -141q0 -101 54 -138q30 -21 128 -21q212 0 318 -89q98 -82 98 -237q0 -130 -115 -248q-109 -112 -300 -112q-173 0 -291 96q-124 101 -124 277zM424 -450h-10l-176 84l221 316h10l117 -55z" />
    <glyph glyph-name="uni021A" unicode="&#x21a;" horiz-adv-x="1066" 
d="M433 -40v1440h-428v10l47 100h1009v-10l-47 -100h-381v-1350l-190 -90h-10zM477 -450h-10l-176 84l221 316h10l117 -55z" />
    <glyph glyph-name="uni021B" unicode="&#x21b;" horiz-adv-x="764" 
d="M282 -40v1030h-257v10l47 100h210v360l190 90h10v-450h257v-10l-47 -100h-210v-940l-190 -90h-10zM354 -450h-10l-176 84l221 316h10l117 -55z" />
    <glyph glyph-name="uni0237" unicode="&#x237;" horiz-adv-x="600" 
d="M32 -340q66 17 106 54q62 57 62 168v1168l190 90h10v-1190q0 -165 -124 -287q-116 -113 -291 -113v10z" />
    <glyph glyph-name="Delta" unicode="&#x394;" horiz-adv-x="1191" 
d="M5 0l488 1468l173 82h10l510 -1550h-1181zM172 110h771l-385 1186z" />
    <glyph glyph-name="Pi" unicode="&#x3a0;" horiz-adv-x="1390" 
d="M210 -40h-10v1500l106 50h884v-1460l-190 -90h-10v1440h-590v-1350z" />
    <glyph glyph-name="Sigma" unicode="&#x3a3;" horiz-adv-x="1203" 
d="M100 0l484 776l-483 684l106 50h755v-10l-47 -100h-535l425 -626l-424 -664h672v-10l-47 -100h-906z" />
    <glyph glyph-name="Omega" unicode="&#x3a9;" 
d="M150 0v10l47 100h249v138q-62 27 -111 72q-135 128 -135 355v355q0 218 135 355q142 145 370 145q223 0 370 -145q135 -134 135 -355v-355q0 -223 -135 -355q-43 -42 -111 -73v-137h296v-10l-47 -100h-411v298q79 24 136 90q72 83 72 217v495q0 134 -72 217
q-89 103 -233 103t-233 -103q-72 -83 -72 -217v-495q0 -137 72 -217q62 -69 136 -91v-297h-458z" />
    <glyph glyph-name="mu" unicode="&#x3bc;" horiz-adv-x="1180" 
d="M200 1050l190 90h10v-828q0 -115 62.5 -168.5t152.5 -53.5t152.5 53.5t62.5 168.5v738l190 90h10v-760q0 -165 -124 -287q-116 -113 -291 -113q-139 0 -215 85v-425l-190 -90h-10v1500z" />
    <glyph glyph-name="pi" unicode="&#x3c0;" horiz-adv-x="1173" 
d="M210 -40h-10v1090l106 50h667v-1050l-190 -90h-10v1030h-373v-940z" />
    <glyph glyph-name="uni1E02" unicode="&#x1e02;" horiz-adv-x="1370" 
d="M400 110h285q151 0 240 95q65 69 65 252q0 148 -69 230q-77 92 -236 92h-285v-669zM400 889h285q100 0 161 65q54 58 54 188q0 150 -65 207q-58 51 -150 51h-285v-511zM200 0v1460l106 50h379q169 0 281 -92q133 -108 133 -277q0 -172 -152 -286q49 -21 97 -63
q146 -133 146 -330q0 -198 -128 -325q-137 -137 -377 -137h-485zM474 1802.5q0 50.5 35 86.5t85 36t85 -36t35 -86.5t-35 -86.5t-85 -36t-85 36t-35 86.5z" />
    <glyph glyph-name="uni1E03" unicode="&#x1e03;" horiz-adv-x="1180" 
d="M400 312q0 -115 62.5 -168.5t152.5 -53.5t152.5 53.5t62.5 168.5v476q0 115 -62.5 168.5t-152.5 53.5t-152.5 -53.5t-62.5 -168.5v-476zM200 380v1080l190 90h10v-515q76 85 215 85q173 0 291 -113q124 -120 124 -287v-340q0 -165 -124 -287q-116 -113 -291 -113
q-173 0 -291 113q-124 120 -124 287zM559 1407.5q0 50.5 35 86.5t85 36t85 -36t35 -86.5t-35 -86.5t-85 -36t-85 36t-35 86.5z" />
    <glyph glyph-name="uni1E0A" unicode="&#x1e0a;" horiz-adv-x="1390" 
d="M200 0v1460l106 50h379q228 0 370 -145q135 -137 135 -355v-510q0 -217 -135 -355q-142 -145 -370 -145h-485zM400 110h285q137 0 233 103q72 77 72 217v650q0 133 -72 217q-89 103 -233 103h-285v-1290zM495 1802.5q0 50.5 35 86.5t85 36t85 -36t35 -86.5t-35 -86.5
t-85 -36t-85 36t-35 86.5z" />
    <glyph glyph-name="uni1E0B" unicode="&#x1e0b;" horiz-adv-x="1180" 
d="M350 312q0 -115 62.5 -168.5t152.5 -53.5t152.5 53.5t62.5 168.5v476q0 115 -62.5 168.5t-152.5 53.5t-152.5 -53.5t-62.5 -168.5v-476zM150 380v340q0 165 124 287q116 113 291 113q132 0 215 -85v425l190 90h10v-1170q0 -165 -124 -287q-116 -113 -291 -113
q-173 0 -291 113q-124 120 -124 287zM346 1407.5q0 50.5 35 86.5t85 36t85 -36t35 -86.5t-35 -86.5t-85 -36t-85 36t-35 86.5z" />
    <glyph glyph-name="uni1E1E" unicode="&#x1e1e;" horiz-adv-x="1120" 
d="M200 -40v1500l106 50h634v-10l-47 -100h-493v-590h540v-10l-47 -100h-493v-650l-190 -90h-10zM470 1802.5q0 50.5 35 86.5t85 36t85 -36t35 -86.5t-35 -86.5t-85 -36t-85 36t-35 86.5z" />
    <glyph glyph-name="uni1E1F" unicode="&#x1e1f;" horiz-adv-x="850" 
d="M200 -40v890h-150v10l47 100h103v170q0 165 124 287q116 113 291 113h135v-10l-48 -100h-87q-89 0 -153 -54q-62 -52 -62 -168v-238h350v-10l-47 -100h-303v-800l-190 -90h-10zM340 1802.5q0 50.5 35 86.5t85 36t85 -36t35 -86.5t-35 -86.5t-85 -36t-85 36t-35 86.5z" />
    <glyph glyph-name="uni1E40" unicode="&#x1e40;" horiz-adv-x="2220" 
d="M200 -40v1070q0 216 135 355q142 145 370 145q206 0 351 -145q36 -36 54 -70q23 35 56 67q151 148 349 148q224 0 370 -145q135 -134 135 -355v-980l-190 -90h-10v1140q0 134 -72 217q-89 103 -233 103t-233 -103q-72 -83 -72 -217v-1050l-190 -90h-10v1140
q0 134 -72 217q-89 103 -233 103t-233 -103q-72 -83 -72 -217v-1050l-190 -90h-10zM986 1802.5q0 50.5 35 86.5t85 36t85 -36t35 -86.5t-35 -86.5t-85 -36t-85 36t-35 86.5z" />
    <glyph glyph-name="uni1E41" unicode="&#x1e41;" horiz-adv-x="1760" 
d="M150 -40v760q0 165 124 287q116 113 291 113q159 0 275 -116q22 -22 40 -52q18 29 40 51q125 117 275 117q173 0 291 -113q124 -120 124 -287v-670l-190 -90h-10v828q0 115 -62.5 168.5t-152.5 53.5t-152.5 -53.5t-62.5 -168.5v-738l-190 -90h-10v828q0 115 -62.5 168.5
t-152.5 53.5t-152.5 -53.5t-62.5 -168.5v-738l-190 -90h-10zM770 1407.5q0 50.5 35 86.5t85 36t85 -36t35 -86.5t-35 -86.5t-85 -36t-85 36t-35 86.5z" />
    <glyph glyph-name="uni1E56" unicode="&#x1e56;" horiz-adv-x="1340" 
d="M400 620h285q131 0 233 103q72 73 72 287q0 204 -72 287q-89 103 -233 103h-285v-780zM200 -40v1500l106 50h379q228 0 370 -145q135 -138 135 -355q0 -218 -135 -355q-143 -145 -370 -145h-285v-460l-190 -90h-10zM495 1802.5q0 50.5 35 86.5t85 36t85 -36t35 -86.5
t-35 -86.5t-85 -36t-85 36t-35 86.5z" />
    <glyph glyph-name="uni1E57" unicode="&#x1e57;" horiz-adv-x="1180" 
d="M400 312q0 -115 62.5 -168.5t152.5 -53.5t152.5 53.5t62.5 168.5v476q0 115 -62.5 168.5t-152.5 53.5t-152.5 -53.5t-62.5 -168.5v-476zM1030 720v-340q0 -165 -124 -287q-116 -113 -291 -113q-132 0 -215 85v-425l-190 -90h-10v1170q0 165 124 287q116 113 291 113
q173 0 291 -113q124 -120 124 -287zM500 1407.5q0 50.5 35 86.5t85 36t85 -36t35 -86.5t-35 -86.5t-85 -36t-85 36t-35 86.5z" />
    <glyph glyph-name="uni1E60" unicode="&#x1e60;" horiz-adv-x="1329" 
d="M160 460l190 90h10v-152q0 -122 72 -205q89 -103 233 -103q143 0 233 103q71 81 71 277q0 154 -58 222q-80 94 -246 94q-194 0 -315 108q-100 90 -100 254q0 185 124 286q118 96 291 96t291 -96q124 -101 124 -277l-190 -90h-10v128q0 114 -65 170q-63 55 -150 55
q-97 0 -156 -61t-59 -212q0 -134 45 -184q60 -67 170 -67q252 0 375 -113q129 -119 129 -311q0 -204 -134 -347q-137 -145 -370 -145t-370 145q-135 143 -135 335zM546 1802.5q0 50.5 35 86.5t85 36t85 -36t35 -86.5t-35 -86.5t-85 -36t-85 36t-35 86.5z" />
    <glyph glyph-name="uni1E61" unicode="&#x1e61;" horiz-adv-x="1070" 
d="M120 353l190 90h10v-128q0 -112 65 -170q62 -55 150 -55q102 0 159 65q60 67 60 193q0 115 -64 165q-55 43 -156 43q-193 0 -288 77q-84 68 -84 186q0 139 127 230q99 71 246 71q141 0 245 -88q80 -69 99 -160l-190 -90h-10v77q0 50 -30 89q-48 62 -137 62
q-71 0 -116 -44q-44 -45 -44 -141q0 -101 54 -138q30 -21 128 -21q212 0 318 -89q98 -82 98 -237q0 -130 -115 -248q-109 -112 -300 -112q-173 0 -291 96q-124 101 -124 277zM414 1407.5q0 50.5 35 86.5t85 36t85 -36t35 -86.5t-35 -86.5t-85 -36t-85 36t-35 86.5z" />
    <glyph glyph-name="uni1E6A" unicode="&#x1e6a;" horiz-adv-x="1066" 
d="M433 -40v1440h-428v10l47 100h1009v-10l-47 -100h-381v-1350l-190 -90h-10zM406 1802.5q0 50.5 35 86.5t85 36t85 -36t35 -86.5t-35 -86.5t-85 -36t-85 36t-35 86.5z" />
    <glyph glyph-name="uni1E6B" unicode="&#x1e6b;" horiz-adv-x="764" 
d="M282 -40v1030h-257v10l47 100h210v360l190 90h10v-450h257v-10l-47 -100h-210v-940l-190 -90h-10zM262 1802.5q0 50.5 35 86.5t85 36t85 -36t35 -86.5t-35 -86.5t-85 -36t-85 36t-35 86.5z" />
    <glyph glyph-name="Wgrave" unicode="&#x1e80;" horiz-adv-x="2220" 
d="M200 1460l190 90h10v-1140q0 -134 72 -217q89 -103 233 -103t233 103q72 83 72 217v1050l190 90h10v-1140q0 -134 72 -217q89 -103 233 -103t233 103q72 83 72 217v1050l190 90h10v-1070q0 -216 -135 -355q-142 -145 -370 -145q-206 0 -351 145q-36 36 -54 70
q-23 -35 -56 -67q-151 -148 -349 -148q-224 0 -370 145q-135 134 -135 355v980zM1051 1966h10l162 -345l-117 -55h-10l-221 316z" />
    <glyph glyph-name="wgrave" unicode="&#x1e81;" horiz-adv-x="1760" 
d="M150 1050l190 90h10v-828q0 -115 62.5 -168.5t152.5 -53.5t152.5 53.5t62.5 168.5v738l190 90h10v-828q0 -115 62.5 -168.5t152.5 -53.5t152.5 53.5t62.5 168.5v738l190 90h10v-760q0 -165 -124 -287q-116 -113 -291 -113q-159 0 -275 116q-22 22 -40 52q-18 -29 -40 -51
q-125 -117 -275 -117q-173 0 -291 113q-124 120 -124 287v670zM829 1566h10l162 -345l-117 -55h-10l-221 316z" />
    <glyph glyph-name="Wacute" unicode="&#x1e82;" horiz-adv-x="2220" 
d="M200 1460l190 90h10v-1140q0 -134 72 -217q89 -103 233 -103t233 103q72 83 72 217v1050l190 90h10v-1140q0 -134 72 -217q89 -103 233 -103t233 103q72 83 72 217v1050l190 90h10v-1070q0 -216 -135 -355q-142 -145 -370 -145q-206 0 -351 145q-36 36 -54 70
q-23 -35 -56 -67q-151 -148 -349 -148q-224 0 -370 145q-135 134 -135 355v980zM1153 1966h10l176 -84l-221 -316h-10l-117 55z" />
    <glyph glyph-name="wacute" unicode="&#x1e83;" horiz-adv-x="1760" 
d="M150 1050l190 90h10v-828q0 -115 62.5 -168.5t152.5 -53.5t152.5 53.5t62.5 168.5v738l190 90h10v-828q0 -115 62.5 -168.5t152.5 -53.5t152.5 53.5t62.5 168.5v738l190 90h10v-760q0 -165 -124 -287q-116 -113 -291 -113q-159 0 -275 116q-22 22 -40 52q-18 -29 -40 -51
q-125 -117 -275 -117q-173 0 -291 113q-124 120 -124 287v670zM917 1566h10l176 -84l-221 -316h-10l-117 55z" />
    <glyph glyph-name="Wdieresis" unicode="&#x1e84;" horiz-adv-x="2220" 
d="M200 1460l190 90h10v-1140q0 -134 72 -217q89 -103 233 -103t233 103q72 83 72 217v1050l190 90h10v-1140q0 -134 72 -217q89 -103 233 -103t233 103q72 83 72 217v1050l190 90h10v-1070q0 -216 -135 -355q-142 -145 -370 -145q-206 0 -351 145q-36 36 -54 70
q-23 -35 -56 -67q-151 -148 -349 -148q-224 0 -370 145q-135 134 -135 355v980zM1128 1802.5q0 50.5 35 86.5t85 36t85 -36t35 -86.5t-35 -86.5t-85 -36t-85 36t-35 86.5zM828 1802.5q0 50.5 35 86.5t85 36t85 -36t35 -86.5t-35 -86.5t-85 -36t-85 36t-35 86.5z" />
    <glyph glyph-name="wdieresis" unicode="&#x1e85;" horiz-adv-x="1760" 
d="M150 1050l190 90h10v-828q0 -115 62.5 -168.5t152.5 -53.5t152.5 53.5t62.5 168.5v738l190 90h10v-828q0 -115 62.5 -168.5t152.5 -53.5t152.5 53.5t62.5 168.5v738l190 90h10v-760q0 -165 -124 -287q-116 -113 -291 -113q-159 0 -275 116q-22 22 -40 52q-18 -29 -40 -51
q-125 -117 -275 -117q-173 0 -291 113q-124 120 -124 287v670zM902 1407.5q0 50.5 35 86.5t85 36t85 -36t35 -86.5t-35 -86.5t-85 -36t-85 36t-35 86.5zM602 1407.5q0 50.5 35 86.5t85 36t85 -36t35 -86.5t-35 -86.5t-85 -36t-85 36t-35 86.5z" />
    <glyph glyph-name="Ygrave" unicode="&#x1ef2;" horiz-adv-x="1310" 
d="M555 -40v524q-157 26 -270 137q-135 133 -135 355v484l190 90h10v-636q0 -134 72 -217q89 -103 233 -103q152 0 233 103q72 92 72 217v546l190 90h10v-574q0 -216 -135 -355q-109 -112 -270 -137v-434l-190 -90h-10zM596 1966h10l162 -345l-117 -55h-10l-221 316z" />
    <glyph glyph-name="ygrave" unicode="&#x1ef3;" horiz-adv-x="1180" 
d="M150 380v670l190 90h10v-828q0 -115 62.5 -168.5t152.5 -53.5t152.5 53.5t62.5 168.5v738l190 90h10v-1170q0 -165 -124 -287q-116 -113 -291 -113h-308v10l48 100h260q90 0 153 54q62 53 62 168v163q-74 -85 -215 -85q-171 0 -291 113q-124 118 -124 287zM473 1566h10
l162 -345l-117 -55h-10l-221 316z" />
    <glyph glyph-name="uni2010" unicode="&#x2010;" horiz-adv-x="1214" 
d="M225 664v10l81 172h683v-10l-81 -172h-683z" />
    <glyph glyph-name="uni2011" unicode="&#x2011;" horiz-adv-x="1214" 
d="M225 664v10l81 172h683v-10l-81 -172h-683z" />
    <glyph glyph-name="figuredash" unicode="&#x2012;" horiz-adv-x="1214" 
d="M150 664v10l81 172h833v-10l-81 -172h-833z" />
    <glyph glyph-name="endash" unicode="&#x2013;" horiz-adv-x="1214" 
d="M150 664v10l81 172h833v-10l-81 -172h-833z" />
    <glyph glyph-name="emdash" unicode="&#x2014;" horiz-adv-x="1214" 
d="M25 664v10l81 172h1083v-10l-81 -172h-1083z" />
    <glyph glyph-name="afii00208" unicode="&#x2015;" horiz-adv-x="1214" 
d="M25 664v10l81 172h1083v-10l-81 -172h-1083z" />
    <glyph glyph-name="underscoredbl" unicode="&#x2017;" horiz-adv-x="1214" 
d="M150 -182v10l81 172h833v-10l-81 -172h-833zM150 -410v10l81 172h833v-10l-81 -172h-833z" />
    <glyph glyph-name="quoteleft" unicode="&#x2018;" horiz-adv-x="609" 
d="M395 1550l43 -50q-113 -115 -113 -216q0 -121 134 -208l-190 -90h-10q-109 107 -109 244q0 191 245 320z" />
    <glyph glyph-name="quoteright" unicode="&#x2019;" horiz-adv-x="609" 
d="M340 1550h10q109 -107 109 -244q0 -191 -245 -320l-43 50q113 115 113 216q0 121 -134 208z" />
    <glyph glyph-name="quotesinglbase" unicode="&#x201a;" horiz-adv-x="609" 
d="M340 278h10q109 -107 109 -244q0 -191 -245 -320l-43 50q113 115 113 216q0 121 -134 208z" />
    <glyph glyph-name="quotereversed" unicode="&#x201b;" horiz-adv-x="609" 
d="M259 1550h10l190 -90q-134 -87 -134 -208q0 -101 113 -216l-43 -50q-245 129 -245 320q0 137 109 244z" />
    <glyph glyph-name="quotedblleft" unicode="&#x201c;" horiz-adv-x="924" 
d="M395 1550l43 -50q-113 -115 -113 -216q0 -121 134 -208l-190 -90h-10q-109 107 -109 244q0 191 245 320zM710 1550l43 -50q-113 -115 -113 -216q0 -121 134 -208l-190 -90h-10q-109 107 -109 244q0 191 245 320z" />
    <glyph glyph-name="quotedblright" unicode="&#x201d;" horiz-adv-x="924" 
d="M655 1550h10q109 -107 109 -244q0 -191 -245 -320l-43 50q113 115 113 216q0 121 -134 208zM340 1550h10q109 -107 109 -244q0 -191 -245 -320l-43 50q113 115 113 216q0 121 -134 208z" />
    <glyph glyph-name="quotedblbase" unicode="&#x201e;" horiz-adv-x="924" 
d="M655 278h10q109 -107 109 -244q0 -191 -245 -320l-43 50q113 115 113 216q0 121 -134 208zM340 278h10q109 -107 109 -244q0 -191 -245 -320l-43 50q113 115 113 216q0 121 -134 208z" />
    <glyph glyph-name="uni201F" unicode="&#x201f;" horiz-adv-x="924" 
d="M259 1550h10l190 -90q-134 -87 -134 -208q0 -101 113 -216l-43 -50q-245 129 -245 320q0 137 109 244zM574 1550h10l190 -90q-134 -87 -134 -208q0 -101 113 -216l-43 -50q-245 129 -245 320q0 137 109 244z" />
    <glyph glyph-name="dagger" unicode="&#x2020;" horiz-adv-x="1214" 
d="M517 -40h-10v1036h-357v10l81 172h276v282l190 90h10v-372h357v-10l-81 -172h-276v-946z" />
    <glyph glyph-name="daggerdbl" unicode="&#x2021;" horiz-adv-x="1214" 
d="M517 -40h-10v372h-357v10l81 172h276v482h-357v10l81 172h276v282l190 90h10v-372h357v-10l-81 -172h-276v-482h357v-10l-81 -172h-276v-282z" />
    <glyph glyph-name="bullet" unicode="&#x2022;" horiz-adv-x="1130" 
d="M150 754q0 165 124 287q116 113 291 113q173 0 291 -113q124 -120 124 -287q0 -165 -124 -287q-116 -113 -291 -113q-173 0 -291 113q-124 120 -124 287z" />
    <glyph glyph-name="uni2023" unicode="&#x2023;" horiz-adv-x="928" 
d="M200 362v779l628 -375z" />
    <glyph glyph-name="onedotenleader" unicode="&#x2024;" horiz-adv-x="600" 
d="M180 102.5q0 50.5 35 86.5t85 36t85 -36t35 -86.5t-35 -86.5t-85 -36t-85 36t-35 86.5z" />
    <glyph glyph-name="twodotenleader" unicode="&#x2025;" horiz-adv-x="936" 
d="M516 102.5q0 50.5 35 86.5t85 36t85 -36t35 -86.5t-35 -86.5t-85 -36t-85 36t-35 86.5zM180 102.5q0 50.5 35 86.5t85 36t85 -36t35 -86.5t-35 -86.5t-85 -36t-85 36t-35 86.5z" />
    <glyph glyph-name="ellipsis" unicode="&#x2026;" horiz-adv-x="1272" 
d="M852 102.5q0 50.5 35 86.5t85 36t85 -36t35 -86.5t-35 -86.5t-85 -36t-85 36t-35 86.5zM516 102.5q0 50.5 35 86.5t85 36t85 -36t35 -86.5t-35 -86.5t-85 -36t-85 36t-35 86.5zM180 102.5q0 50.5 35 86.5t85 36t85 -36t35 -86.5t-35 -86.5t-85 -36t-85 36t-35 86.5z" />
    <glyph glyph-name="uni2027" unicode="&#x2027;" horiz-adv-x="600" 
d="M180 753.5q0 50.5 35 86.5t85 36t85 -36t35 -86.5t-35 -86.5t-85 -36t-85 36t-35 86.5z" />
    <glyph glyph-name="perthousand" unicode="&#x2030;" horiz-adv-x="3029" 
d="M2679 380q0 183 -62.5 236.5t-152.5 53.5t-152.5 -53.5t-62.5 -236.5t62.5 -236.5t152.5 -53.5t152.5 53.5t62.5 236.5zM1794 380q0 183 -62.5 236.5t-152.5 53.5t-152.5 -53.5t-62.5 -236.5t62.5 -236.5t152.5 -53.5t152.5 53.5t62.5 236.5zM780 1130q0 183 -62.5 236.5
t-152.5 53.5t-152.5 -53.5t-62.5 -236.5t62.5 -236.5t152.5 -53.5t152.5 53.5t62.5 236.5zM2049 380q0 165 124 287q116 113 291 113q173 0 291 -113q124 -120 124 -287q0 -165 -124 -287q-116 -113 -291 -113q-173 0 -291 113q-124 120 -124 287zM1164 380q0 165 124 287
q116 113 291 113q173 0 291 -113q124 -120 124 -287q0 -165 -124 -287q-116 -113 -291 -113q-173 0 -291 113q-124 120 -124 287zM150 1130q0 165 124 287q116 113 291 113q173 0 291 -113q124 -120 124 -287q0 -165 -124 -287q-116 -113 -291 -113q-173 0 -291 113
q-124 120 -124 287zM788 -40l-141 68l709 1522h10l141 -68l-709 -1522h-10z" />
    <glyph glyph-name="minute" unicode="&#x2032;" horiz-adv-x="680" 
d="M344 1550h10l176 -84l-253 -407h-10l-117 55z" />
    <glyph glyph-name="second" unicode="&#x2033;" horiz-adv-x="998" 
d="M662 1550h10l176 -84l-253 -407h-10l-117 55zM344 1550h10l176 -84l-253 -407h-10l-117 55z" />
    <glyph glyph-name="uni2034" unicode="&#x2034;" horiz-adv-x="1316" 
d="M980 1550h10l176 -84l-253 -407h-10l-117 55zM662 1550h10l176 -84l-253 -407h-10l-117 55zM344 1550h10l176 -84l-253 -407h-10l-117 55z" />
    <glyph glyph-name="uni2035" unicode="&#x2035;" horiz-adv-x="680" 
d="M326 1550h10l194 -436l-117 -55h-10l-253 407z" />
    <glyph glyph-name="uni2036" unicode="&#x2036;" horiz-adv-x="998" 
d="M326 1550h10l194 -436l-117 -55h-10l-253 407zM644 1550h10l194 -436l-117 -55h-10l-253 407z" />
    <glyph glyph-name="uni2037" unicode="&#x2037;" horiz-adv-x="1316" 
d="M336 1550l194 -436l-117 -55h-10l-253 407l176 84h10zM644 1550h10l194 -436l-117 -55h-10l-253 407zM962 1550h10l194 -436l-117 -55h-10l-253 407z" />
    <glyph glyph-name="guilsinglleft" unicode="&#x2039;" horiz-adv-x="804" 
d="M489 1284h10l105 -50l-262 -411l258 -437l-174 -82h-10l-266 449z" />
    <glyph glyph-name="guilsinglright" unicode="&#x203a;" horiz-adv-x="804" 
d="M378 1284h10l266 -449l-339 -531h-10l-105 50l263 411l-259 437z" />
    <glyph glyph-name="uni2043" unicode="&#x2043;" horiz-adv-x="1183" 
d="M682 1220v-299l189 109l157 -109l5 -8l-260 -150l260 -150l-5 -8l-157 -109l-189 109v-218l-172 -81h-10v299l-189 -109l-156 109l-5 8l259 150l-259 150l5 8l156 109l189 -109v218l172 81h10z" />
    <glyph glyph-name="fraction" unicode="&#x2044;" horiz-adv-x="974" 
d="M151 -140l-141 68l802 1722h10l142 -68l-803 -1722h-10z" />
    <glyph glyph-name="Euro" unicode="&#x20ac;" horiz-adv-x="1482" 
d="M1282 550v-70q0 -217 -135 -355q-142 -145 -370 -145t-370 145q-135 138 -135 355v108h-172v10l47 100h125v114h-172v10l47 100h125v108q0 217 135 355q142 145 370 145q236 0 370.5 -145t134.5 -335l-190 -90h-10v140q0 134 -72 217q-89 103 -233 103t-233 -103
q-72 -83 -72 -217v-178h368v-10l-47 -100h-321v-114h368v-10l-47 -100h-321v-178q0 -134 72 -217q89 -103 233 -103t233 103q72 83 72 267l190 90h10z" />
    <glyph glyph-name="afii61248" unicode="&#x2105;" horiz-adv-x="1642" 
d="M1222 -20q-123 0 -197 78q-73 77 -73 210v283q0 133 73 210q76 79 197 79t197 -79q73 -77 73 -210v-283q0 -133 -73 -210q-74 -78 -197 -78zM1221 69q52 0 92 43q29 31 29 93v412q0 59 -29 93q-37 43 -91 43q-52 0 -91 -43q-29 -32 -29 -93v-412q0 -62 29 -93
q40 -43 90 -43zM704 1028v-66q0 -131 -74 -210q-76 -82 -210 -82q-123 0 -197 78q-73 77 -73 210v283q0 133 73 210q76 79 197 79q127 0 210 -83q74 -74 74 -210l-114 -55h-36v125q0 60 -29 93q-38 43 -97 43q-57 0 -99 -43q-29 -30 -29 -93v-412q0 -62 29 -93
q40 -43 99 -43t97 43q29 34 29 93v78l115 55h35zM538 -40l-141 68l709 1522h10l141 -68l-709 -1522h-10z" />
    <glyph glyph-name="afii61289" unicode="&#x2113;" horiz-adv-x="1108" 
d="M540 672q60 124 116 310q73 242 73 407q-52 -84 -115 -291q-74 -241 -74 -426zM150 0q100 146 190 296q-8 70 -8 148q0 148 29 289q120 600 215 710q76 88 194 88q51 0 90 -33q48 -39 48 -160q0 -92 -30 -246q-70 -350 -356 -820q33 -156 89 -156q19 0 42 24q31 32 63 88
h176q-77 -128 -141.5 -188t-148.5 -60q-128 0 -199 101l-52 -81h-201z" />
    <glyph glyph-name="trademark" unicode="&#x2122;" horiz-adv-x="1840" 
d="M364 685v723h-214v36l30 66h548v-36l-30 -66h-184v-669l-114 -54h-36zM710 686v545q0 133 73 210q76 79 197 79q120 0 195 -77q76 76 195 76q121 0 197 -79q73 -77 73 -210v-492l-115 -54h-35v609q0 59 -29 93q-37 43 -91 43q-52 0 -91 -43q-29 -32 -29 -93v-554v-2
l-116 -53l-34 1v609q0 59 -29 93q-37 43 -91 43q-52 0 -91 -43q-29 -32 -29 -93v-556l-116 -53z" />
    <glyph glyph-name="uni2126" unicode="&#x2126;" 
d="M150 0v10l47 100h249v138q-62 27 -111 72q-135 128 -135 355v355q0 218 135 355q142 145 370 145q223 0 370 -145q135 -134 135 -355v-355q0 -223 -135 -355q-43 -42 -111 -73v-137h296v-10l-47 -100h-411v298q79 24 136 90q72 83 72 217v495q0 134 -72 217
q-89 103 -233 103t-233 -103q-72 -83 -72 -217v-495q0 -137 72 -217q62 -69 136 -91v-297h-458z" />
    <glyph glyph-name="estimated" unicode="&#x212e;" horiz-adv-x="1358" 
d="M381 550v-371q120 -121 298 -121q254 0 395 246l72 -43q-120 -173 -232 -224.5t-235 -51.5q-237 0 -383 160t-146 405q0 247 147 406t382 159q214 0 366 -142t163 -423h-827zM977 624v297q-128 121 -300 121q-175 0 -296 -122v-296h596z" />
    <glyph glyph-name="partialdiff" unicode="&#x2202;" horiz-adv-x="1267" 
d="M458 0q-137 0 -222.5 91t-85.5 256q0 209 153 387q200 233 478 233q35 0 105 -2q0 148 -17 236q-22 112 -64 168q-44 58 -94 58q-67 0 -118 -80q-38 -60 -74 -190l-135 60q69 154 168 225q95 68 192 68q132 0 227 -139q96 -140 96 -420q0 -281 -87 -513
q-86 -224 -233 -331t-289 -107zM488 92q74 0 148 97q61 79 130 204q90 162 122 474q-40 16 -114 16q-107 0 -217 -128q-72 -83 -121 -174q-74 -137 -74 -248q0 -100 19 -158q28 -83 107 -83z" />
    <glyph glyph-name="uni2206" unicode="&#x2206;" horiz-adv-x="1191" 
d="M5 0l488 1468l173 82h10l510 -1550h-1181zM172 110h771l-385 1186z" />
    <glyph glyph-name="product" unicode="&#x220f;" horiz-adv-x="1390" 
d="M210 -450h-10v1910l106 50h884v-1870l-190 -90h-10v1850h-590v-1760z" />
    <glyph glyph-name="summation" unicode="&#x2211;" horiz-adv-x="1203" 
d="M100 -410l482 1000l-481 870l106 50h755v-10l-47 -100h-565l454 -812l-450 -888h699v-10l-47 -100h-906z" />
    <glyph glyph-name="minus" unicode="&#x2212;" horiz-adv-x="1214" 
d="M150 664v10l81 172h833v-10l-81 -172h-833z" />
    <glyph glyph-name="uni2215" unicode="&#x2215;" horiz-adv-x="974" 
d="M151 -140l-141 68l802 1722h10l142 -68l-803 -1722h-10z" />
    <glyph glyph-name="asteriskmath" unicode="&#x2217;" horiz-adv-x="1183" 
d="M682 1220v-299l189 109l157 -109l5 -8l-260 -150l260 -150l-5 -8l-157 -109l-189 109v-218l-172 -81h-10v299l-189 -109l-156 109l-5 8l259 150l-259 150l5 8l156 109l189 -109v218l172 81h10z" />
    <glyph glyph-name="uni2218" unicode="&#x2218;" horiz-adv-x="1130" 
d="M780 754q0 183 -62.5 236.5t-152.5 53.5t-152.5 -53.5t-62.5 -236.5t62.5 -236.5t152.5 -53.5t152.5 53.5t62.5 236.5zM150 754q0 165 124 287q116 113 291 113q173 0 291 -113q124 -120 124 -287q0 -165 -124 -287q-116 -113 -291 -113q-173 0 -291 113
q-124 120 -124 287z" />
    <glyph glyph-name="uni2219" unicode="&#x2219;" horiz-adv-x="600" 
d="M180 753.5q0 50.5 35 86.5t85 36t85 -36t35 -86.5t-35 -86.5t-85 -36t-85 36t-35 86.5z" />
    <glyph glyph-name="radical" unicode="&#x221a;" horiz-adv-x="1452" 
d="M525 -40h-10l-221 681h-194v10l47 100h311l172 -517l427 1276h345v-10l-47 -100h-198l-459 -1358z" />
    <glyph glyph-name="uni221B" unicode="&#x221b;" horiz-adv-x="1452" 
d="M525 -40h-10l-221 681h-194v10l47 100h311l172 -517l427 1276h345v-10l-47 -100h-198l-459 -1358zM275 1042l107 58h28v-117q0 -51 27 -83q33 -39 89 -39q53 0 87 39q27 31 27 141q0 82 -21 107q-29 34 -97 35h-113l153 243h-247v33l30 51h410l-167 -258q69 -7 118 -50
q68 -61 68 -164q0 -112 -67 -180t-182 -68t-183 69q-67 68 -67 183z" />
    <glyph glyph-name="infinity" unicode="&#x221e;" horiz-adv-x="1761" 
d="M1411 754q0 183 -62.5 236.5t-152.5 53.5t-152.5 -53.5t-62.5 -236.5t62.5 -236.5t152.5 -53.5t152.5 53.5t62.5 236.5zM780 754q0 183 -62.5 236.5t-152.5 53.5t-152.5 -53.5t-62.5 -236.5t62.5 -236.5t152.5 -53.5t152.5 53.5t62.5 236.5zM150 754q0 165 124 287
q116 113 291 113q178 0 291 -113q13 -13 25 -26q11 13 24 26q113 113 291 113q173 0 291 -113q124 -120 124 -287q0 -166 -124 -287q-116 -113 -291 -113q-178 0 -291 113q-12 12 -25 26q-11 -13 -24 -26q-113 -113 -291 -113q-173 0 -291 113q-124 120 -124 287z" />
    <glyph glyph-name="approxequal" unicode="&#x2248;" horiz-adv-x="1138" 
d="M150 397q0 361 237 361q134 0 221 -101q100 -116 158 -116q118 0 118 173l92 44h12q0 -361 -237 -361q-140 0 -223 101q-95 116 -158 116q-118 0 -118 -173l-92 -44h-10zM150 748q0 361 237 361q134 0 221 -101q100 -116 158 -116q118 0 118 173l92 44h12
q0 -361 -237 -361q-140 0 -223 101q-95 116 -158 116q-118 0 -118 -173l-92 -44h-10z" />
    <glyph glyph-name="notequal" unicode="&#x2260;" horiz-adv-x="1214" 
d="M430 200l-141 68l100 214h-239v10l81 172h242l85 182h-408v10l81 172h412l131 282h10l141 -68l-100 -214h239v-10l-81 -172h-242l-85 -182h408v-10l-81 -172h-412l-131 -282h-10z" />
    <glyph glyph-name="equivalence" unicode="&#x2261;" horiz-adv-x="1214" 
d="M150 300v10l81 172h833v-10l-81 -172h-833zM150 1028v10l81 172h833v-10l-81 -172h-833zM150 664v10l81 172h833v-10l-81 -172h-833z" />
    <glyph glyph-name="lessequal" unicode="&#x2264;" horiz-adv-x="1338" 
d="M150 801v10l82 173l857 368l49 -103v-10l-769 -315l769 -326v-10l-82 -173zM150 191v10l81 172h907v-10l-81 -172h-907z" />
    <glyph glyph-name="greaterequal" unicode="&#x2265;" horiz-adv-x="1338" 
d="M1188 966v-10l-82 -173l-857 -368l-49 103v10l769 315l-769 326v10l82 173zM200 191v10l81 172h907v-10l-81 -172h-907z" />
    <glyph glyph-name="lozenge" unicode="&#x25ca;" horiz-adv-x="1174" 
d="M633 264l249 408l-337 554l-251 -416zM587 0l-467 738l467 772l467 -769z" />
    </font>
</defs>
</svg>
