<?xml version="1.0" standalone="no"?>
<!DOCTYPE svg PUBLIC "-//W3C//DTD SVG 1.1//EN" "http://www.w3.org/Graphics/SVG/1.1/DTD/svg11.dtd" >
<svg xmlns="http://www.w3.org/2000/svg" xmlns:xlink="http://www.w3.org/1999/xlink" version="1.1">
<metadata>
Created by FontForge 20170731 at Mon Aug 15 01:45:49 2011
 By Aleksey,,,
Copyright (c) 2011, wmk69 (wmk69@o2.pl)
with Reserved Font Names 'NovaCut' and 'Nova Cut'.

This Font Software is licensed under the SIL Open Font License, Version 1.1.
This license is available with a FAQ at:
http://scripts.sil.org/OFL
</metadata>
<defs>
<font id="NovaCut" horiz-adv-x="1410" >
  <font-face 
    font-family="Nova Cut"
    font-weight="400"
    font-stretch="normal"
    units-per-em="2048"
    panose-1="2 12 5 4 2 4 4 6 2 4"
    ascent="1638"
    descent="-410"
    x-height="1100"
    cap-height="1550"
    bbox="-15 -450 2697 1966"
    underline-thickness="122"
    underline-position="-447"
    unicode-range="U+0020-25CA"
  />
<missing-glyph horiz-adv-x="894" 
d="M150 0v1510h594v-1510h-594zM268 1392v-1274h358v1274h-358z" />
    <glyph glyph-name=".notdef" horiz-adv-x="894" 
d="M150 0v1510h594v-1510h-594zM268 1392v-1274h358v1274h-358z" />
    <glyph glyph-name=".null" horiz-adv-x="0" 
 />
    <glyph glyph-name="nonmarkingreturn" horiz-adv-x="682" 
 />
    <glyph glyph-name="space" unicode=" " horiz-adv-x="800" 
 />
    <glyph glyph-name="exclam" unicode="!" horiz-adv-x="600" 
d="M200 -40v228l190 90h10v-228l-190 -90h-10zM390 1550h10v-1040l-190 -90h-10v1040z" />
    <glyph glyph-name="quotedbl" unicode="&#x22;" horiz-adv-x="747" 
d="M587 1550h10v-484l-156 -74h-10v484zM306 1550h10v-484l-156 -74h-10v484z" />
    <glyph glyph-name="numbersign" unicode="#" horiz-adv-x="1368" 
d="M458 222h-10v298h-298v10l81 172h217v108h-298v10l81 172h217v217l172 81h10v-298h108v217l172 81h10v-298h298v-10l-81 -172h-217v-108h298v-10l-81 -172h-217v-217l-172 -81h-10v298h-108v-217zM630 702h108v108h-108v-108z" />
    <glyph glyph-name="dollar" unicode="$" horiz-adv-x="1330" 
d="M607 -240v202q-193 17 -312 143q-135 143 -135 355l190 90h10v-90q0 -131 72 -217q69 -82 175 -99v610q-148 16 -257 117q-100 93 -100 263v96l357 275v195l106 50h10v-206q147 -20 233 -90q124 -101 124 -297l-190 -90h-10v90q0 123 -65 180q-41 36 -92 48v-456
q197 -12 312 -112q135 -117 135 -355v-112l-447 -345v-195l-106 -50h-10zM607 936v450q-58 -13 -98 -55q-59 -62 -59 -174q0 -109 45 -159q43 -48 112 -62zM723 748v-603q104 17 175 98q72 82 72 217q0 130 -59 197q-67 76 -188 91z" />
    <glyph glyph-name="percent" unicode="%" horiz-adv-x="1983" 
d="M565 1550q174 -4 289 -116q120 -116 122 -370l-415 -320q-175 4 -289 116q-120 116 -122 370zM1418 -40q-175 4 -289 116q-120 116 -122 370l415 320q174 -4 289 -116q120 -116 122 -370zM1420 118q98 0 156 61q59 62 59 184q0 131 -65 190q-60 54 -150 55
q-98 0 -156 -61q-59 -62 -59 -184q0 -131 65 -190q60 -54 150 -55zM706 -40l-141 68l709 1522h10l141 -68l-709 -1522h-10zM563 902q98 0 156 61q59 62 59 184q0 131 -65 190q-60 54 -150 55q-98 0 -156 -61q-59 -62 -59 -184q0 -131 65 -190q60 -54 150 -55z" />
    <glyph glyph-name="ampersand" unicode="&#x26;" horiz-adv-x="1720" 
d="M994 428l-285 340q-157 -2 -277 -119q-72 -70 -72 -195q0 -124 72 -211q79 -95 228 -95q105 0 334 280zM830 914l302 -361l304 308h10l105 -50l-347 -343l356 -426l-174 -82h-10l-314 381l-397 -381q-236 0 -373 161q-130 153 -132 407l331 255q-79 30 -141 88
q-100 94 -100 263v96l415 320q189 -13 291 -96q124 -101 124 -297l-190 -90h-10v98q0 113 -65 172q-62 55 -150 55q-98 0 -156 -61q-59 -61 -59 -174q0 -111 45 -159q62 -66 158 -75t177 -9z" />
    <glyph glyph-name="quotesingle" unicode="'" horiz-adv-x="466" 
d="M306 1550h10v-484l-156 -74h-10v484z" />
    <glyph glyph-name="parenleft" unicode="(" horiz-adv-x="755" 
d="M705 -240q-228 0 -370 145q-135 138 -135 355v1100l505 390v-180q-150 -1 -233 -103q-72 -88 -72 -217v-990q0 -132 72 -217q87 -102 233 -103v-180z" />
    <glyph glyph-name="parenright" unicode=")" horiz-adv-x="755" 
d="M50 -240v180q150 1 233 103q72 88 72 217v990q0 132 -72 217q-87 102 -233 103v180q228 0 370 -145q135 -138 135 -355v-1100z" />
    <glyph glyph-name="asterisk" unicode="*" horiz-adv-x="1183" 
d="M682 1550v-299l189 109l157 -109l5 -8l-260 -150l260 -150l-5 -8l-157 -109l-189 109v-218l-172 -81h-10v299l-189 -109l-156 109l-5 8l259 150l-259 150l5 8l156 109l189 -109v218l172 81h10z" />
    <glyph glyph-name="plus" unicode="+" horiz-adv-x="1214" 
d="M698 1212v-366h366v-10l-81 -172h-285v-285l-172 -81h-10v366h-366v10l81 172h285v285l172 81h10z" />
    <glyph glyph-name="comma" unicode="," horiz-adv-x="596" 
d="M340 278h10q83 -102 96 -291l-232 -273l-43 50q87 115 87 242q0 112 -108 182z" />
    <glyph glyph-name="hyphen" unicode="-" horiz-adv-x="1214" 
d="M150 664v10l81 172h833v-10l-81 -172h-833z" />
    <glyph glyph-name="period" unicode="." horiz-adv-x="600" 
d="M200 -40v228l190 90h10v-228l-190 -90h-10z" />
    <glyph glyph-name="slash" unicode="/" horiz-adv-x="974" 
d="M151 -140l-141 68l802 1722h10l142 -68l-803 -1722h-10z" />
    <glyph glyph-name="zero" unicode="0" 
d="M705 140q143 0 233 103q72 83 72 217v590q0 134 -72 217q-89 103 -233 103q-145 0 -233 -103q-72 -83 -72 -217v-590q0 -132 72 -217q87 -103 233 -103zM705 -40q-228 0 -370 145q-135 138 -135 355v700l505 390q228 0 370 -145q135 -138 135 -355v-700z" />
    <glyph glyph-name="one" unicode="1" horiz-adv-x="714" 
d="M264 -40v1382l-244 -114v115l434 207h10v-1500l-190 -90h-10z" />
    <glyph glyph-name="two" unicode="2" horiz-adv-x="1333" 
d="M150 0v10l58 120l530 520q236 226 236 401q0 126 -74 216q-85 103 -233 103q-140 0 -233 -103q-72 -80 -72 -200q0 -67 39 -133l-168 -81h-10q-61 108 -61 307l505 390q233 0 370 -145q135 -144 135 -334q0 -267 -275 -492l-522 -449h798v-10l-57 -120h-966z" />
    <glyph glyph-name="three" unicode="3" horiz-adv-x="1330" 
d="M665 -40q-233 0 -370 145q-135 143 -135 355l190 90h10v-90q0 -132 72 -217q87 -103 233 -103q143 0 233 103q72 81 72 217q0 128 -59 197q-82 94 -247 94q-137 0 -222 -44l368 673h-561v10l57 120h778v-10l-324 -574q154 0 275 -109q135 -122 135 -355v-112z" />
    <glyph glyph-name="four" unicode="4" horiz-adv-x="1188" 
d="M738 -40v562h-733v10l57 120l676 808l190 90h10v-898h150v-10l-57 -120h-93v-472l-190 -90h-10zM738 652v655l-504 -655h504z" />
    <glyph glyph-name="five" unicode="5" horiz-adv-x="1330" 
d="M665 -40q-233 0 -370 145q-135 143 -135 355l190 90h10v-90q0 -132 72 -217q87 -103 233 -103q143 0 233 103q72 83 72 217q0 129 -59 197q-82 94 -247 94q-137 0 -222 -44l-192 131l93 622l106 50h634v-10l-57 -120h-512l-78 -537q168 0 228 88q245 -1 371 -114
q135 -121 135 -355v-112z" />
    <glyph glyph-name="six" unicode="6" 
d="M705 -40q-233 0 -370 145q-135 143 -135 355v700l505 390q241 0 370 -134.5t129 -277.5l-184 -88h-10q0 133 -72 217q-90 103 -233 103t-233 -103q-72 -83 -72 -217v-324l305 236q233 0 370 -145q135 -143 135 -355v-112zM705 140q141 0 233 103q72 81 72 217
q0 135 -72 219q-88 103 -233 103q-143 0 -233 -103q-72 -83 -72 -219q0 -133 72 -217q88 -103 233 -103z" />
    <glyph glyph-name="seven" unicode="7" horiz-adv-x="1204" 
d="M290 -40l205 562h-358v10l57 120h348l265 728h-687v10l57 120h877v-10l-313 -848h343v-10l-57 -120h-334l-168 -456l-225 -106h-10z" />
    <glyph glyph-name="eight" unicode="8" horiz-adv-x="1330" 
d="M665 140q143 0 233 103q72 83 72 217q0 130 -59 197q-85 94 -247 94q-129 0 -232 -102q-72 -70 -72 -195q0 -127 72 -211q87 -103 233 -103zM665 -40q-236 0 -373 161q-130 153 -132 406l331 256q-79 30 -141 88q-100 94 -100 263v95l415 321q189 -13 291 -96
q124 -101 124 -348l-250 -192q126 -27 205 -97q135 -120 135 -355v-112zM664 931q101 0 159 61q57 61 57 173q0 114 -65 172q-62 55 -150 55q-98 0 -156 -61q-59 -61 -59 -174q0 -111 45 -159q62 -67 169 -67z" />
    <glyph glyph-name="nine" unicode="9" 
d="M705 -40q-241 0 -370 134.5t-129 277.5l184 88h10q0 -133 72 -217q90 -103 233 -103t233 103q72 83 72 217v324l-305 -236q-233 0 -370 145q-135 143 -135 355v112l505 390q233 0 370 -145q135 -143 135 -355v-700zM705 728q143 0 233 103q72 83 72 219q0 133 -72 217
q-88 103 -233 103q-141 0 -233 -103q-72 -81 -72 -217q0 -135 72 -219q88 -103 233 -103z" />
    <glyph glyph-name="colon" unicode=":" horiz-adv-x="600" 
d="M200 594v228l190 90h10v-228l-190 -90h-10zM200 -40v228l190 90h10v-228l-190 -90h-10z" />
    <glyph glyph-name="semicolon" unicode=";" horiz-adv-x="596" 
d="M340 278h10q83 -102 96 -291l-232 -273l-43 50q87 115 87 242q0 112 -108 182zM200 594v228l190 90h10v-228l-190 -90h-10z" />
    <glyph glyph-name="less" unicode="&#x3c;" horiz-adv-x="1338" 
d="M150 664v10l82 173l857 368l49 -103v-10l-769 -315l769 -326v-10l-82 -173z" />
    <glyph glyph-name="equal" unicode="=" horiz-adv-x="1214" 
d="M150 846v10l81 172h833v-10l-81 -172h-833zM150 482v10l81 172h833v-10l-81 -172h-833z" />
    <glyph glyph-name="greater" unicode="&#x3e;" horiz-adv-x="1338" 
d="M1188 829v-10l-82 -173l-857 -368l-49 103v10l769 315l-769 326v10l82 173z" />
    <glyph glyph-name="question" unicode="?" horiz-adv-x="1310" 
d="M655 1550q233 0 370 -145q135 -143 135 -355q0 -236 -329 -459q-87 -59 -90 -137l-158 -75h-10q1 191 163 301q226 153 226 371q0 129 -74 216q-89 103 -233 103q-146 0 -233 -103q-72 -84 -72 -200q0 -65 39 -133l-168 -81h-10q-61 108 -61 307zM555 -40v228l190 90h10
v-228l-190 -90h-10z" />
    <glyph glyph-name="at" unicode="@" horiz-adv-x="1220" 
d="M870 -40q-186 13 -291 96q-124 98 -124 297v76l415 320q0 122 -65 178q-64 55 -150 55q-108 0 -208 -95q-97 -91 -97 -247v-590q0 -131 72 -217q86 -103 233 -103q144 0 233 103l54 -60l-287 -223q-228 0 -370 145q-135 138 -135 355v700l505 390q189 -13 291 -96
q124 -101 124 -297v-697l-190 -90h-10zM870 118v473q-106 -1 -156 -61q-59 -71 -59 -174q0 -125 65 -183q62 -55 150 -55z" />
    <glyph glyph-name="A" unicode="A" 
d="M50 522v10l57 120h93v508l505 390q228 0 370 -145q135 -138 135 -355v-998l-190 -92h-10v1090q0 134 -72 217q-89 103 -233 103q-147 0 -233 -103q-72 -86 -72 -217v-398h470v-10l-57 -120h-413v-472l-190 -90h-10v562h-150z" />
    <glyph glyph-name="B" unicode="B" horiz-adv-x="1302" 
d="M200 -40v1500l190 90h10v-1450q246 44 404 163q192 145 192 312q0 147 -184 247q-99 54 -185 78q218 123 218 281q0 101 -147 173q-134 67 -289 87l229 109h10q150 -37 239 -112q117 -98 117 -231q0 -117 -134 -222q90 -25 168 -88q144 -116 144 -279q0 -242 -249 -411
q-302 -203 -723 -247h-10z" />
    <glyph glyph-name="C" unicode="C" 
d="M705 -40q-228 0 -370 145q-135 138 -135 355v700l505 390q228 0 370 -145q135 -138 135 -355l-190 -90h-10v90q0 134 -72 217q-89 103 -233 103q-145 0 -233 -103q-72 -83 -72 -217v-590q0 -132 72 -217q87 -103 233 -103q143 0 233 103q72 83 72 217l190 90h10v-200z
" />
    <glyph glyph-name="D" unicode="D" horiz-adv-x="1338" 
d="M200 -40v1500l190 90h10v-1450q238 89 397 226q229 196 229 490q0 256 -187 429q-134 124 -428 196l229 109h10q234 -62 373 -209q195 -204 195 -492q0 -386 -348 -629q-282 -198 -660 -260h-10z" />
    <glyph glyph-name="E" unicode="E" horiz-adv-x="1133" 
d="M50 0v10l57 120h93v392h-150v10l57 120h93v808l106 50h634v-10l-57 -120h-483v-728h470v-10l-57 -120h-413v-392h683v-10l-57 -120h-976z" />
    <glyph glyph-name="F" unicode="F" horiz-adv-x="1060" 
d="M200 -40v562h-150v10l57 120h93v808l106 50h634v-10l-57 -120h-483v-728h470v-10l-57 -120h-413v-472l-190 -90h-10z" />
    <glyph glyph-name="G" unicode="G" 
d="M705 -40q-228 0 -370 145q-135 138 -135 355v700l505 390q228 0 370 -145q135 -138 135 -355l-190 -90h-10v90q0 134 -72 217q-89 103 -233 103q-145 0 -233 -103q-72 -83 -72 -217v-590q0 -132 72 -217q87 -103 233 -103q143 0 233 103q72 83 72 217v62h-363v10l57 120
h506v-302z" />
    <glyph glyph-name="H" unicode="H" horiz-adv-x="1390" 
d="M990 -40v1500l190 90h10v-1500l-190 -90h-10zM200 -40v562h-150v10l57 120h93v808l190 90h10v-898h470v-10l-57 -120h-413v-472l-190 -90h-10z" />
    <glyph glyph-name="I" unicode="I" horiz-adv-x="600" 
d="M200 -40v1500l190 90h10v-1500l-190 -90h-10z" />
    <glyph glyph-name="J" unicode="J" horiz-adv-x="1290" 
d="M585 -40q-228 0 -370 145q-135 138 -135 355l190 90h10v-90q0 -134 72 -217q89 -103 233 -103q145 0 233 103q72 83 72 217v868h-473v10l81 172h592v-1160z" />
    <glyph glyph-name="K" unicode="K" horiz-adv-x="1364" 
d="M200 -40v1500l190 90h10v-1195q139 47 263 126l-153 219l176 84h10l126 -181q138 174 138 655v202l190 90h10v-288q0 -496 -272 -753l326 -466l-176 -83h-10l-299 427q-153 -86 -329 -132v-205l-190 -90h-10z" />
    <glyph glyph-name="L" unicode="L" horiz-adv-x="1088" 
d="M50 0v10l57 120h93v1330l190 90h10v-1420h683v-10l-57 -120h-976z" />
    <glyph glyph-name="M" unicode="M" horiz-adv-x="2220" 
d="M200 -40v1200l505 390q230 0 370 -145q55 -57 88 -127l352 272q228 0 370 -145q135 -138 135 -355v-998l-190 -92h-10v1090q0 134 -72 217q-89 103 -233 103q-147 0 -233 -103q-72 -86 -72 -217v-998v-2l-190 -90h-10v1090q0 134 -72 217q-89 103 -233 103
q-147 0 -233 -103q-72 -86 -72 -217v-1000l-190 -90h-10z" />
    <glyph glyph-name="N" unicode="N" 
d="M200 -40v1200l505 390q228 0 370 -145q135 -138 135 -355v-998l-190 -92h-10v1090q0 134 -72 217q-89 103 -233 103q-147 0 -233 -103q-72 -86 -72 -217v-1000l-190 -90h-10z" />
    <glyph glyph-name="O" unicode="O" 
d="M705 140q143 0 233 103q72 83 72 217v590q0 134 -72 217q-89 103 -233 103q-145 0 -233 -103q-72 -83 -72 -217v-590q0 -132 72 -217q87 -103 233 -103zM705 -40q-228 0 -370 145q-135 138 -135 355v700l505 390q228 0 370 -145q135 -138 135 -355v-700z" />
    <glyph glyph-name="P" unicode="P" horiz-adv-x="1279" 
d="M200 -40v1500l190 90h10v-1195q193 59 372 201q201 159 201 395q0 184 -154 316q-140 120 -408 174l229 109h10q197 -39 338 -179q171 -169 171 -419q0 -283 -322 -498q-198 -132 -437 -199v-205l-190 -90h-10z" />
    <glyph glyph-name="Q" unicode="Q" 
d="M705 -40q-228 0 -370 145q-135 138 -135 355v700l505 390q228 0 370 -145q135 -138 135 -355v-700l-168 -130l124 -177l-176 -83h-10l-96 138zM980 309q30 65 30 151v590q0 134 -72 217q-89 103 -233 103t-233 -103q-72 -84 -72 -217v-590q0 -132 72 -217
q87 -103 233 -103q72 0 131 26l-173 247l176 84h10z" />
    <glyph glyph-name="R" unicode="R" horiz-adv-x="1334" 
d="M200 -40v1500l190 90h10v-1195q133 42 263 126l-153 219l176 84h10l126 -181q151 147 151 348q0 176 -154 316q-132 118 -408 174l229 109h10q197 -39 338 -179q171 -170 171 -419q0 -254 -262 -455l317 -454l-176 -83h-10l-300 428q-153 -84 -328 -133v-205l-190 -90
h-10z" />
    <glyph glyph-name="S" unicode="S" horiz-adv-x="1330" 
d="M665 -40q-233 0 -370 145q-135 143 -135 355l190 90h10v-90q0 -132 72 -217q87 -103 233 -103q143 0 233 103q72 83 72 217q0 129 -59 197q-82 94 -247 94q-185 0 -314 120q-100 93 -100 263v96l415 320q189 -13 291 -96q124 -101 124 -297l-190 -90h-10v90
q0 123 -65 180q-63 55 -150 55q-97 0 -156 -61t-59 -174q0 -109 45 -159q60 -67 169 -67q239 0 371 -114q135 -117 135 -355v-112z" />
    <glyph glyph-name="T" unicode="T" horiz-adv-x="1066" 
d="M433 -40v1420h-428v10l57 120h999v-10l-57 -120h-371v-1330l-190 -90h-10z" />
    <glyph glyph-name="U" unicode="U" 
d="M705 -40q-228 0 -370 145q-135 138 -135 355v998l190 92h10v-1090q0 -134 72 -217q89 -103 233 -103q147 0 233 103q72 86 72 217v1000l190 90h10v-1200z" />
    <glyph glyph-name="V" unicode="V" horiz-adv-x="1191" 
d="M515 -40l-510 1508l173 82h10l442 -1316l439 1316h10l107 -51l-488 -1457l-173 -82h-10z" />
    <glyph glyph-name="W" unicode="W" horiz-adv-x="2220" 
d="M705 -40q-228 0 -370 145q-135 138 -135 355v998l190 92h10v-1090q0 -134 72 -217q89 -103 233 -103q147 0 233 103q72 86 72 217v998v2l190 90h10v-1090q0 -134 72 -217q89 -103 233 -103q147 0 233 103q72 86 72 217v1000l190 90h10v-1200l-505 -390q-230 0 -370 145
q-55 57 -88 127z" />
    <glyph glyph-name="X" unicode="X" horiz-adv-x="1278" 
d="M215 -40h-10l-105 50l444 709l-444 748l175 83h10l378 -639l400 639h10l105 -50l-443 -709l443 -749l-174 -82h-10l-379 639z" />
    <glyph glyph-name="Y" unicode="Y" horiz-adv-x="1278" 
d="M516 -40v562h-287v10l57 120h180l-366 815l175 83h10l379 -860l399 860h10l105 -50l-406 -848h277v-10l-57 -120h-276v-472l-190 -90h-10z" />
    <glyph glyph-name="Z" unicode="Z" horiz-adv-x="1267" 
d="M150 0v10l251 512h-251v10l57 120h258l357 728h-659v10l57 120h877v-10l-419 -848h419v-10l-57 -120h-426l-194 -392h697v-10l-57 -120h-910z" />
    <glyph glyph-name="bracketleft" unicode="[" horiz-adv-x="864" 
d="M200 -240v1900l190 90h424v-10l-61 -130h-353v-1710h414v-10l-61 -130h-553z" />
    <glyph glyph-name="backslash" unicode="\" horiz-adv-x="974" 
d="M812 -140l-802 1722l141 68h10l803 -1722l-142 -68h-10z" />
    <glyph glyph-name="bracketright" unicode="]" horiz-adv-x="864" 
d="M50 -240v10l61 130h353v1710h-414v10l61 130h553v-1900l-190 -90h-424z" />
    <glyph glyph-name="asciicircum" unicode="^" horiz-adv-x="1382" 
d="M772 1550l460 -462l-173 -82h-10l-376 372l-410 -373h-10l-103 49l439 414l173 82h10z" />
    <glyph glyph-name="underscore" unicode="_" horiz-adv-x="1214" 
d="M150 -410v10l81 172h833v-10l-81 -172h-833z" />
    <glyph glyph-name="grave" unicode="`" horiz-adv-x="648" 
d="M326 1550h10l162 -345l-117 -55h-10l-221 316z" />
    <glyph glyph-name="a" unicode="a" horiz-adv-x="1080" 
d="M515 118q105 0 156 61q59 71 59 177q0 122 -65 180q-62 55 -150 55q-105 0 -156 -61q-59 -71 -59 -174q0 -125 65 -183q63 -55 150 -55zM515 -40q-186 13 -291 96q-124 98 -124 297v75l415 321q126 -9 215 -50v48q0 121 -65 180q-62 55 -150 55q-98 0 -156 -61l-55 56
l211 163q189 -13 291 -96q124 -101 124 -297v-697l-190 -90h-10v167z" />
    <glyph glyph-name="b" unicode="b" horiz-adv-x="1180" 
d="M615 118q95 0 155 61t60 174v394q0 121 -65 180q-61 55 -150 55q-97 0 -156 -61t-59 -174v-394q0 -125 63 -180t152 -55zM615 -40q-191 13 -291 96q-124 103 -124 297v1107l190 90h10v-577l215 167q189 -13 291 -96q124 -101 124 -297v-466z" />
    <glyph glyph-name="c" unicode="c" horiz-adv-x="1130" 
d="M565 -40q-189 13 -291 96q-124 102 -124 297v466l415 321q189 -13 291 -96q124 -101 124 -297l-190 -90h-10v90q0 121 -65 180q-62 55 -150 55q-98 -1 -156 -61q-59 -61 -59 -174v-394q0 -121 65 -180q62 -55 150 -55q98 1 156 61q59 61 59 174l190 90h10v-162z" />
    <glyph glyph-name="d" unicode="d" horiz-adv-x="1180" 
d="M565 118q96 0 155.5 61t59.5 174v394q0 117 -65 180q-57 55 -150 55q-95 0 -155 -61t-60 -174v-394q0 -125 65 -180t150 -55zM565 -40q-189 13 -291 96q-124 102 -124 297v466l415 321q127 -9 215 -49v369l190 90h10v-1269z" />
    <glyph glyph-name="e" unicode="e" horiz-adv-x="1130" 
d="M565 -40q-189 13 -291 96q-124 102 -124 297v466l415 321q189 -13 291 -96q124 -101 124 -297l-615 -497q18 -50 50 -77q65 -55 148 -55q87 0 158 61q59 51 59 174l190 90h10v-162zM350 397l430 349q0 126 -65.5 181t-149.5 55q-97 0 -156 -61t-59 -174v-350z" />
    <glyph glyph-name="f" unicode="f" horiz-adv-x="911" 
d="M200 -40v796h-150v10l57 120h93v343l415 321q192 -14 291 -96l-141 -117q-68 55 -150 55q-96 0 -156 -61q-59 -60 -59 -174v-271h360v-10l-57 -120h-303v-706l-190 -90h-10z" />
    <glyph glyph-name="g" unicode="g" horiz-adv-x="1130" 
d="M562.5 118q81.5 0 158.5 61q59 49 59 174v394q0 125 -65.5 180t-149.5 55q-97 0 -156 -61t-59 -174v-394q0 -126 65 -180q66 -55 147.5 -55zM565 -40q-189 13 -291 96q-124 102 -124 297v466l415 321q189 -13 291 -96q124 -100 124 -297v-876l-415 -321q-209 14 -289 94
l139 119q59 -55 149 -55q93 0 157 61q59 56 59 174v183z" />
    <glyph glyph-name="h" unicode="h" horiz-adv-x="1180" 
d="M200 -40v1500l190 90h10v-577l215 167q189 -13 291 -96q124 -101 124 -297v-697l-190 -90h-10v787q0 116 -65 180q-56 55 -150 55q-97 0 -156 -61.5t-59 -173.5v-697l-190 -90h-10z" />
    <glyph glyph-name="i" unicode="i" horiz-adv-x="600" 
d="M200 -40v1090l190 90h10v-1090l-190 -90h-10zM400 1550v-228l-190 -90h-10v228l190 90h10z" />
    <glyph glyph-name="j" unicode="j" horiz-adv-x="600" 
d="M63 -383q-78 89 -78 91q96 1 156 61q59 60 59 174v1107l190 90h10v-1262zM400 1550v-228l-190 -90h-10v228l190 90h10z" />
    <glyph glyph-name="k" unicode="k" horiz-adv-x="1180" 
d="M200 -40v1500l190 90h10v-862l529 452h10l90 -81l-253 -215q74 -24 130 -68q124 -100 124 -297v-429l-190 -90h-10v519q0 120 -65 180q-60 55 -150 55q-96 0 -155.5 -61t-59.5 -174v-429l-190 -90h-10z" />
    <glyph glyph-name="l" unicode="l" horiz-adv-x="600" 
d="M200 -40v1500l190 90h10v-1500l-190 -90h-10z" />
    <glyph glyph-name="m" unicode="m" horiz-adv-x="1760" 
d="M150 -40v859l415 321q191 -13 291 -96q52 -43 83 -102l256 198q189 -13 291 -96q124 -101 124 -297v-697l-190 -90h-10v787q0 125 -65 180t-150 55q-94 0 -156 -61q-59 -58 -59 -174v-697l-190 -90h-10v787q0 125 -65 180t-150 55q-94 0 -156 -61q-59 -58 -59 -174v-697
l-190 -90h-10z" />
    <glyph glyph-name="n" unicode="n" horiz-adv-x="1130" 
d="M150 -40v859l415 321q189 -13 291 -96q124 -101 124 -297v-697l-190 -90h-10v787q0 125 -65 180t-150 55q-94 0 -156 -61q-59 -58 -59 -174v-697l-190 -90h-10z" />
    <glyph glyph-name="o" unicode="o" horiz-adv-x="1130" 
d="M565 -40q-189 13 -291 96q-124 102 -124 297v466l415 321q189 -13 291 -96q124 -101 124 -297v-466zM565 118q95 0 155 61t60 174v394q0 125 -65.5 180t-149.5 55q-95 0 -155 -61t-60 -174v-394q0 -125 65 -180t150 -55z" />
    <glyph glyph-name="p" unicode="p" horiz-adv-x="1180" 
d="M615 118q84 0 156 61q59 52 59 174v394q0 125 -65.5 180t-149.5 55q-96 0 -155.5 -61t-59.5 -174v-394q0 -125 65.5 -180t149.5 -55zM615 -40q-127 9 -215 49v-369l-190 -90h-10v1269l415 321q189 -13 291 -96q124 -102 124 -297v-466z" />
    <glyph glyph-name="q" unicode="q" horiz-adv-x="1180" 
d="M565 118q96 0 155.5 61t59.5 174v394q0 125 -65 180t-150 55q-97 0 -156 -61t-59 -174v-394q0 -119 65 -180q59 -55 150 -55zM565 -40q-189 13 -291 96q-124 99 -124 297v466l415 321q191 -13 291 -96q124 -103 124 -297v-1107l-190 -90h-10v577z" />
    <glyph glyph-name="r" unicode="r" horiz-adv-x="1030" 
d="M150 -40v859l415 321q189 -13 291 -96q124 -101 124 -297l-190 -90h-10v90q0 125 -65.5 180t-150.5 55q-87 0 -155 -61q-59 -53 -59 -174v-697l-190 -90h-10z" />
    <glyph glyph-name="s" unicode="s" horiz-adv-x="1070" 
d="M535 -40q-189 13 -291 96q-124 101 -124 297l190 90h10v-90q0 -121 65 -180q62 -55 150 -55q96 0 155.5 61t59.5 173q0 113 -67 155q-58 36 -149 36q-234 0 -326 108q-46 55 -46 200l373 289q146 -3 245 -88q80 -69 99 -180l-190 -90h-10v29q0 72 -30 109q-50 62 -137 62
q-86 0 -129 -54q-31 -39 -31 -96q0 -64 54 -102q30 -21 128 -21q215 0 309 -83q107 -94 107 -345z" />
    <glyph glyph-name="t" unicode="t" horiz-adv-x="750" 
d="M275 -40v1010h-270v10l57 120h213v360l190 90h10v-450h270v-10l-57 -120h-213v-920l-190 -90h-10z" />
    <glyph glyph-name="u" unicode="u" horiz-adv-x="1130" 
d="M565 -40q-189 13 -291 96q-124 101 -124 297v697l190 90h10v-787q0 -125 65 -180t150 -55q94 0 156 61q59 58 59 174v697l190 90h10v-859z" />
    <glyph glyph-name="v" unicode="v" horiz-adv-x="947" 
d="M391 -40l-386 1098l173 82h10l321 -921l320 921h10l103 -49l-368 -1049l-173 -82h-10z" />
    <glyph glyph-name="w" unicode="w" horiz-adv-x="1760" 
d="M565 -40q-189 13 -291 96q-124 101 -124 297v697l190 90h10v-787q0 -125 65 -180t150 -55q94 0 156 61q59 58 59 174v697l190 90h10v-787q0 -125 65 -180t150 -55q94 0 156 61q59 58 59 174v697l190 90h10v-859l-415 -321q-191 13 -291 96q-52 43 -83 102z" />
    <glyph glyph-name="x" unicode="x" horiz-adv-x="995" 
d="M185 -40l-105 50l322 505l-322 542l175 83h10l258 -435l277 435h10l105 -50l-322 -505l322 -543l-174 -82h-10l-258 436l-278 -436h-10z" />
    <glyph glyph-name="y" unicode="y" horiz-adv-x="1180" 
d="M565 -40q-189 13 -291 96q-124 101 -124 297v697l190 90h10v-787q0 -125 65 -180t149 -55q86 0 157 61q59 51 59 174v697l190 90h10v-1269l-415 -321q-209 14 -289 94l139 119q60 -55 148 -55q90 0 158 61q59 53 59 174v184z" />
    <glyph glyph-name="z" unicode="z" horiz-adv-x="1079" 
d="M120 0v10l213 380h-213v10l57 120h230l252 450h-519v10l57 120h743v-10l-319 -570h319v-10l-57 -120h-335l-146 -260h557v-10l-57 -120h-782z" />
    <glyph glyph-name="braceleft" unicode="{" horiz-adv-x="825" 
d="M775 -240q-228 0 -370 145q-135 138 -135 355v404h-220v10l81 172h139v514l505 390v-180q-150 -1 -233 -103q-72 -88 -72 -217v-990q0 -132 72 -217q87 -102 233 -103v-180z" />
    <glyph glyph-name="bar" unicode="|" horiz-adv-x="666" 
d="M250 -240v1916l156 74h10v-1916l-156 -74h-10z" />
    <glyph glyph-name="braceright" unicode="}" horiz-adv-x="825" 
d="M50 -240v180q150 1 233 103q72 88 72 217v990q0 132 -72 217q-87 102 -233 103v180q228 0 370 -145q135 -138 135 -355v-404h220v-10l-81 -172h-139v-514z" />
    <glyph glyph-name="asciitilde" unicode="~" horiz-adv-x="1268" 
d="M204 583h-10q-44 60 -44 179l237 182q241 0 333 -126q119 -164 169 -164q55 0 55 81q0 63 -48 111l168 81h10q44 -60 44 -178l-237 -183q-241 0 -333 126q-119 164 -169 164q-55 0 -55 -81q0 -63 48 -111z" />
    <glyph glyph-name="uni00A0" unicode="&#xa0;" horiz-adv-x="800" 
 />
    <glyph glyph-name="exclamdown" unicode="&#xa1;" horiz-adv-x="600" 
d="M400 1550v-228l-190 -90h-10v228l190 90h10zM200 -40v1040l190 90h10v-1040l-190 -90h-10z" />
    <glyph glyph-name="cent" unicode="&#xa2;" horiz-adv-x="1130" 
d="M507 -240v206q-147 20 -233 90q-124 101 -124 297v466l357 276v195l106 50h10v-206q147 -20 233 -90q124 -101 124 -297l-190 -90h-10v90q0 121 -65 180q-40 36 -92 48v-850q58 13 98 54q59 60 59 174l190 90h10v-162l-357 -276v-195l-106 -50h-10zM507 125v850
q-58 -13 -98 -54q-59 -61 -59 -174v-394q0 -121 65 -180q40 -36 92 -48z" />
    <glyph glyph-name="sterling" unicode="&#xa3;" horiz-adv-x="1283" 
d="M100 0v10l57 120h93v392h-150v10l57 120h93v578l415 320q189 -13 291 -96q124 -101 124 -297l-190 -90h-10v90q0 125 -65.5 180t-149.5 55q-95 0 -155 -61t-60 -174v-505h470v-10l-57 -120h-413v-392h683v-10l-57 -120h-976z" />
    <glyph glyph-name="currency" unicode="&#xa4;" horiz-adv-x="1395" 
d="M697 426q137 0 233 103q72 79 72 219q0 126 -72 217q-84 103 -234 103q-139 0 -232 -103q-72 -80 -72 -217q0 -138 72 -219q92 -103 233 -103zM697 1248q170 0 288 -76l74 73l179 -64l7 -7l-130 -130q87 -126 87 -296v-112l-145 -112l188 -188l-7 -7l-179 -64l-148 146
l-214 -165q-176 0 -297 83l-64 -64l-179 64l-7 7l123 123q-81 116 -81 287v112l152 118l-194 198l7 7l179 64l156 -155z" />
    <glyph glyph-name="yen" unicode="&#xa5;" horiz-adv-x="1278" 
d="M516 -40v562h-287v10l57 120h180l-46 102h-191v10l57 120h76l-262 583l175 83h10l294 -666h175l309 666h10l105 -50l-295 -616h166v-10l-57 -120h-171l-49 -102h277v-10l-57 -120h-276v-472l-190 -90h-10zM694 754h-58l28 -64z" />
    <glyph glyph-name="brokenbar" unicode="&#xa6;" horiz-adv-x="666" 
d="M250 -240v827l156 74h10v-827l-156 -74h-10zM406 1750h10v-827l-156 -74h-10v827z" />
    <glyph glyph-name="section" unicode="&#xa7;" horiz-adv-x="1130" 
d="M565 -40q-146 3 -245 88q-80 69 -99 180l190 90h10v-29q0 -72 30 -109q50 -62 122 -62q100 0 144 54q31 38 31 96q0 64 -54 102q-30 21 -128 21q-215 0 -309 83q-107 94 -107 323l178 138l81 -14q-59 -61 -59 -173q1 -114 67 -155q58 -36 149 -36q240 0 326 -108
q44 -55 46 -201zM565 1550q146 -3 245 -88q80 -69 99 -180l-190 -90h-10v29q0 72 -30 109q-50 62 -122 62q-100 0 -144 -54q-31 -38 -31 -96q0 -64 54 -102q30 -21 128 -21q215 0 309 -83q107 -94 107 -325l-178 -138l-81 16q59 61 59 173q-1 114 -67 155q-58 36 -149 36
q-240 0 -326 108q-44 55 -46 201z" />
    <glyph glyph-name="dieresis" unicode="&#xa8;" horiz-adv-x="773" 
d="M613 1550h10v-228l-190 -90h-10v228zM340 1550h10v-228l-190 -90h-10v228z" />
    <glyph glyph-name="copyright" unicode="&#xa9;" horiz-adv-x="1401" 
d="M696 1178q136 0 212 -81q74 -79 74 -210l-114 -55h-36v70q0 60 -29 93q-38 43 -97 43q-57 0 -99 -43q-29 -30 -29 -93v-294q0 -62 29 -93q40 -43 99 -43t97 43q29 34 29 93v15l115 55h35v-139l-268 -207q-135 0 -212 81q-74 79 -74 195v362zM701 1331q110 0 210 -43
q96 -41 179 -127q80 -83 121 -186q40 -101 40 -221q0 -116 -40 -219q-38 -98 -121 -185q-79 -83 -179 -127q-98 -43 -210 -43q-111 0 -211 43q-96 41 -179 127q-81 84 -121 185t-40 219q0 119 40 221t121 186q81 85 179 127.5t211 42.5zM701 1251q-98 0 -181 -36t-154 -110
q-70 -73 -106 -161t-36 -185v-5q0 -99 36 -188q34 -83 106 -160q70 -74 153 -110q85 -37 182 -37t182 37q83 36 154 110q69 72 104 159t35 189q0 103 -35 191q-34 86 -104 160q-69 73 -154 110q-85 36 -182 36z" />
    <glyph glyph-name="ordfeminine" unicode="&#xaa;" horiz-adv-x="955" 
d="M150 664v10l81 172h574v-10l-81 -172h-574zM476 1038q35 0 64 24q25 21 25 75q0 53 -26 76q-25 22 -61 22q-39 0 -63 -23q-25 -24 -25 -75q0 -55 26 -76q27 -23 60 -23zM471 1550q109 -7 165 -53q69 -57 69 -164v-361l-111 -53h-29v63l-81 -63q-105 6 -164 53
q-68 54 -70 212l221 171q51 -1 93 -17q0 49 -25 70q-26 22 -61 22q-44 0 -77 -37l-61 55z" />
    <glyph glyph-name="guillemotleft" unicode="&#xab;" horiz-adv-x="1189" 
d="M874 1284h10l105 -50l-262 -411l258 -437l-174 -82h-10l-266 449zM489 1284h10l105 -50l-262 -411l258 -437l-174 -82h-10l-266 449z" />
    <glyph glyph-name="logicalnot" unicode="&#xac;" horiz-adv-x="1214" 
d="M742 402l122 262h-714v10l81 172h833v-10l-207 -434h-115z" />
    <glyph glyph-name="uni00AD" unicode="&#xad;" horiz-adv-x="1214" 
d="M150 664v10l81 172h833v-10l-81 -172h-833z" />
    <glyph glyph-name="registered" unicode="&#xae;" horiz-adv-x="1401" 
d="M445 360v743l114 52h36v-40l89 40h13q106 -19 185 -87q93 -80 93 -200q0 -126 -123 -244l162 -210l-119 -54h-24l-145 182q-62 -18 -131 -29v-101l-114 -52h-36zM784 722q48 70 48 140q0 87 -82 136q-58 35 -155 48v-303l112 54h24zM595 729v-136q36 14 71 35zM701 1331
q110 0 210 -43q96 -41 179 -127q80 -83 121 -186q40 -101 40 -221q0 -116 -40 -219q-38 -98 -121 -185q-79 -83 -179 -127q-98 -43 -210 -43q-111 0 -211 43q-96 41 -179 127q-81 84 -121 185t-40 219q0 119 40 221t121 186q81 85 179 127.5t211 42.5zM701 1251
q-98 0 -181 -36t-154 -110q-70 -73 -106 -161t-36 -185v-5q0 -99 36 -188q34 -83 106 -160q70 -74 153 -110q85 -37 182 -37t182 37q83 36 154 110q69 72 104 159t35 189q0 103 -35 191q-34 86 -104 160q-69 73 -154 110q-85 36 -182 36z" />
    <glyph glyph-name="macron" unicode="&#xaf;" horiz-adv-x="1214" 
d="M150 1328v10l81 172h833v-10l-81 -172h-833z" />
    <glyph glyph-name="degree" unicode="&#xb0;" horiz-adv-x="1126" 
d="M565 1550q174 -4 289 -116q120 -116 122 -370l-415 -320q-175 4 -289 116q-120 116 -122 370zM563 902q98 0 156 61q59 62 59 184q0 131 -65 190q-60 54 -150 55q-98 0 -156 -61q-59 -62 -59 -184q0 -131 65 -190q60 -54 150 -55z" />
    <glyph glyph-name="plusminus" unicode="&#xb1;" horiz-adv-x="1214" 
d="M150 243v10l81 172h833v-10l-81 -172h-833zM698 1383v-366h366v-10l-81 -172h-285v-285l-172 -81h-10v366h-366v10l81 172h285v285l172 81h10z" />
    <glyph glyph-name="uni00B2" unicode="&#xb2;" horiz-adv-x="862" 
d="M424 1550q140 0 213 -77q74 -78 74 -184q0 -137 -146 -245l-262 -194h409v-36l-31 -64h-531v36l33 64l269 241q110 99 110 192q0 54 -31 86q-40 41 -97 41q-60 0 -98 -43q-30 -34 -30 -79q0 -39 29 -82l-113 -54h-25q-41 58 -41 191z" />
    <glyph glyph-name="uni00B3" unicode="&#xb3;" horiz-adv-x="855" 
d="M244 1510h439l-179 -284q68 -10 125 -58q76 -65 76 -190v-61l-268 -207q-138 0 -213 77q-74 76 -74 203l118 65h32v-70q0 -56 30 -92q36 -43 98 -43q59 0 97 43q30 34 30 96q0 51 -23 78q-33 38 -108 39h-126l178 306h-274v36z" />
    <glyph glyph-name="acute" unicode="&#xb4;" horiz-adv-x="648" 
d="M312 1550h10l176 -84l-221 -316h-10l-117 55z" />
    <glyph glyph-name="uni00B5" unicode="&#xb5;" horiz-adv-x="1130" 
d="M150 -450v1500l190 90h10v-787q0 -121 65 -180q62 -55 149 -55q89 0 157 61q59 53 59 174v697l190 90h10v-860l-415 -320q-127 9 -215 49v-369l-190 -90h-10z" />
    <glyph glyph-name="paragraph" unicode="&#xb6;" horiz-adv-x="1180" 
d="M780 -40v780l-215 -166q-189 13 -291 96q-124 101 -124 297v262l415 321q191 -13 291 -96q124 -103 124 -297v-1107l-66 -31v1138h-64v-1169l-60 -28h-10z" />
    <glyph glyph-name="periodcentered" unicode="&#xb7;" horiz-adv-x="600" 
d="M200 594v228l190 90h10v-228l-190 -90h-10z" />
    <glyph glyph-name="cedilla" unicode="&#xb8;" horiz-adv-x="596" 
d="M350 -450h-10l-190 90q108 70 108 182q-1 115 -87 242l43 50l232 -273q-13 -189 -96 -291z" />
    <glyph glyph-name="uni00B9" unicode="&#xb9;" horiz-adv-x="672" 
d="M386 1550h36v-786l-114 -54h-36v672l-122 -57v112z" />
    <glyph glyph-name="ordmasculine" unicode="&#xba;" horiz-adv-x="955" 
d="M150 664v10l81 172h574v-10l-81 -172h-574zM471 1550q102 -2 165 -53q69 -56 69 -164v-243l-221 -171q-111 8 -165 53q-69 57 -69 164v243zM476 1038q39 0 65 25q24 23 24 73v197q0 52 -26 75q-24 22 -60 22q-42 0 -65 -24q-24 -25 -24 -73v-197q0 -52 26 -75
q24 -23 60 -23z" />
    <glyph glyph-name="guillemotright" unicode="&#xbb;" horiz-adv-x="1189" 
d="M378 1284h10l266 -449l-339 -531h-10l-105 50l263 411l-259 437zM763 1284h10l266 -449l-339 -531h-10l-105 50l263 411l-259 437z" />
    <glyph glyph-name="onequarter" unicode="&#xbc;" horiz-adv-x="1469" 
d="M856 336h188v244zM1044 -40v272h-366v36l30 62l345 420l105 50h36v-464h75v-36l-33 -68h-42v-218l-114 -54h-36zM386 1550h36v-786l-114 -54h-36v672l-122 -57v112zM352 -40l-141 68l709 1522h10l141 -68l-709 -1522h-10z" />
    <glyph glyph-name="onehalf" unicode="&#xbd;" horiz-adv-x="1536" 
d="M774 0v36l33 64l269 241q110 99 110 192q0 54 -31 86q-40 41 -97 41q-60 0 -98 -43q-30 -34 -30 -79q0 -39 29 -82l-113 -54h-25q-41 58 -41 191l268 207q140 0 213 -77q74 -78 74 -184q0 -137 -146 -245l-262 -194h409v-36l-31 -64h-531zM386 1550h36v-786l-114 -54h-36
v672l-122 -57v112zM352 -40l-141 68l709 1522h10l141 -68l-709 -1522h-10z" />
    <glyph glyph-name="threequarters" unicode="&#xbe;" horiz-adv-x="1665" 
d="M1052 336h188v244zM1240 -40v272h-366v36l30 62l345 420l105 50h36v-464h75v-36l-33 -68h-42v-218l-114 -54h-36zM244 1510h439l-179 -284q68 -10 125 -58q76 -65 76 -190v-61l-268 -207q-138 0 -213 77q-74 76 -74 203l118 65h32v-70q0 -56 30 -92q36 -43 98 -43
q59 0 97 43q30 34 30 96q0 51 -23 78q-33 38 -108 39h-126l178 306h-262v36zM548 -40l-141 68l709 1522h10l141 -68l-709 -1522h-10z" />
    <glyph glyph-name="questiondown" unicode="&#xbf;" horiz-adv-x="1310" 
d="M655 -40q-233 0 -370 145q-135 143 -135 355q0 236 329 459q87 59 90 137l158 75h10q-1 -191 -163 -301q-226 -153 -226 -371q0 -129 74 -216q89 -103 233 -103q146 0 233 103q72 84 72 200q0 65 -39 133l168 81h10q61 -108 61 -307zM755 1550v-228l-190 -90h-10v228
l190 90h10z" />
    <glyph glyph-name="Agrave" unicode="&#xc0;" 
d="M50 522v10l57 120h93v508l505 390q228 0 370 -145q135 -138 135 -355v-998l-190 -92h-10v1090q0 134 -72 217q-89 103 -233 103q-147 0 -233 -103q-72 -86 -72 -217v-398h470v-10l-57 -120h-413v-472l-190 -90h-10v562h-150zM596 1966h10l162 -345l-117 -55h-10l-221 316
z" />
    <glyph glyph-name="Aacute" unicode="&#xc1;" 
d="M50 522v10l57 120h93v508l505 390q228 0 370 -145q135 -138 135 -355v-998l-190 -92h-10v1090q0 134 -72 217q-89 103 -233 103q-147 0 -233 -103q-72 -86 -72 -217v-398h470v-10l-57 -120h-413v-472l-190 -90h-10v562h-150zM796 1966h10l176 -84l-221 -316h-10l-117 55z
" />
    <glyph glyph-name="Acircumflex" unicode="&#xc2;" 
d="M50 522v10l57 120h93v508l505 390q228 0 370 -145q135 -138 135 -355v-998l-190 -92h-10v1090q0 134 -72 217q-89 103 -233 103q-147 0 -233 -103q-72 -86 -72 -217v-398h470v-10l-57 -120h-413v-472l-190 -90h-10v562h-150zM806 1966l225 -318l-173 -82h-10l-141 228
l-141 -228h-10l-103 49l170 269l173 82h10z" />
    <glyph glyph-name="Atilde" unicode="&#xc3;" 
d="M50 522v10l57 120h93v508l505 390q228 0 370 -145q135 -138 135 -355v-998l-190 -92h-10v1090q0 134 -72 217q-89 103 -233 103q-147 0 -233 -103q-72 -86 -72 -217v-398h470v-10l-57 -120h-413v-472l-190 -90h-10v562h-150zM510 1639l-85 49l212 208q64 0 95 -39
q47 -59 99 -59q61 0 103 98h10l85 -49l-212 -208q-64 0 -95 39q-47 59 -99 59q-61 0 -103 -98h-10z" />
    <glyph glyph-name="Adieresis" unicode="&#xc4;" 
d="M50 522v10l57 120h93v508l505 390q228 0 370 -145q135 -138 135 -355v-998l-190 -92h-10v1090q0 134 -72 217q-89 103 -233 103q-147 0 -233 -103q-72 -86 -72 -217v-398h470v-10l-57 -120h-413v-472l-190 -90h-10v562h-150zM934 1966h10v-228l-190 -90h-10v228z
M661 1966h10v-228l-190 -90h-10v228z" />
    <glyph glyph-name="Aring" unicode="&#xc5;" 
d="M50 522v10l57 120h93v508l505 390q228 0 370 -145q135 -138 135 -355v-998l-190 -92h-10v1090q0 134 -72 217q-89 103 -233 103q-147 0 -233 -103q-72 -86 -72 -217v-398h470v-10l-57 -120h-413v-472l-190 -90h-10v562h-150zM705 1966q86 -2 139 -46q58 -48 58 -143v-24
l-186 -164q-94 7 -139 46q-58 50 -58 142v25zM712 1862q-34 0 -54 -21t-20 -64q0 -46 21 -65q22 -20 55 -20q28 0 50 22q20 19 20 63q0 45 -22 66q-20 19 -50 19z" />
    <glyph glyph-name="AE" unicode="&#xc6;" horiz-adv-x="1943" 
d="M200 -40v562h-150v10l57 120h93v508l505 390q179 0 306 -90l105 50h634v-10l-57 -120h-483v-728h470v-10l-57 -120h-413v-392h683v-10l-57 -120h-826v522h-610v-472l-190 -90h-10zM400 652h610v398q0 134 -72 217q-89 103 -233 103q-147 0 -233 -103q-72 -86 -72 -217
v-398z" />
    <glyph glyph-name="Ccedilla" unicode="&#xc7;" 
d="M1210 550v-200l-434 -335l147 -174q-13 -189 -96 -291h-10l-190 90q108 76 108 182q0 72 -30 138q-228 0 -370 145q-135 138 -135 355v700l505 390q228 0 370 -145q135 -138 135 -355l-190 -90h-10v90q0 134 -72 217q-89 103 -233 103t-233 -103q-72 -84 -72 -217v-590
q0 -132 72 -217q87 -103 233 -103q143 0 233 103q72 83 72 217l190 90h10z" />
    <glyph glyph-name="Egrave" unicode="&#xc8;" horiz-adv-x="1133" 
d="M50 0v10l57 120h93v392h-150v10l57 120h93v808l106 50h634v-10l-57 -120h-483v-728h470v-10l-57 -120h-413v-392h683v-10l-57 -120h-976zM526 1966h10l162 -345l-117 -55h-10l-221 316z" />
    <glyph glyph-name="Eacute" unicode="&#xc9;" horiz-adv-x="1133" 
d="M50 0v10l57 120h93v392h-150v10l57 120h93v808l106 50h634v-10l-57 -120h-483v-728h470v-10l-57 -120h-413v-392h683v-10l-57 -120h-976zM669 1966h10l176 -84l-221 -316h-10l-117 55z" />
    <glyph glyph-name="Ecircumflex" unicode="&#xca;" horiz-adv-x="1133" 
d="M50 0v10l57 120h93v392h-150v10l57 120h93v808l106 50h634v-10l-57 -120h-483v-728h470v-10l-57 -120h-413v-392h683v-10l-57 -120h-976zM648 1966l225 -318l-173 -82h-10l-141 228l-141 -228h-10l-103 49l170 269l173 82h10z" />
    <glyph glyph-name="Edieresis" unicode="&#xcb;" horiz-adv-x="1133" 
d="M50 0v10l57 120h93v392h-150v10l57 120h93v808l106 50h634v-10l-57 -120h-483v-728h470v-10l-57 -120h-413v-392h683v-10l-57 -120h-976zM828 1966h10v-228l-190 -90h-10v228zM555 1966h10v-228l-190 -90h-10v228z" />
    <glyph glyph-name="Igrave" unicode="&#xcc;" horiz-adv-x="600" 
d="M241 1966h10l162 -345l-117 -55h-10l-221 316zM200 -40v1500l190 90h10v-1500l-190 -90h-10z" />
    <glyph glyph-name="Iacute" unicode="&#xcd;" horiz-adv-x="600" 
d="M347 1966h10l176 -84l-221 -316h-10l-117 55zM200 -40v1500l190 90h10v-1500l-190 -90h-10z" />
    <glyph glyph-name="Icircumflex" unicode="&#xce;" horiz-adv-x="600" 
d="M364 1966l225 -318l-173 -82h-10l-141 228l-141 -228h-10l-103 49l170 269l173 82h10zM200 -40v1500l190 90h10v-1500l-190 -90h-10z" />
    <glyph glyph-name="Idieresis" unicode="&#xcf;" horiz-adv-x="600" 
d="M527 1966h10v-228l-190 -90h-10v228zM254 1966h10v-228l-190 -90h-10v228zM200 -40v1500l190 90h10v-1500l-190 -90h-10z" />
    <glyph glyph-name="Eth" unicode="&#xd0;" horiz-adv-x="1338" 
d="M200 -40v562h-150v10l57 120h93v808l190 90h10v-898h470v-10l-57 -120h-413v-422q237 89 397 226q229 197 229 490q0 256 -187 429q-134 124 -428 196l229 109h10q233 -62 373 -209q195 -205 195 -492q0 -385 -348 -629q-283 -198 -660 -260h-10z" />
    <glyph glyph-name="Ntilde" unicode="&#xd1;" 
d="M200 -40v1200l505 390q228 0 370 -145q135 -138 135 -355v-998l-190 -92h-10v1090q0 134 -72 217q-89 103 -233 103q-147 0 -233 -103q-72 -86 -72 -217v-1000l-190 -90h-10zM510 1639l-85 49l212 208q64 0 95 -39q47 -59 99 -59q61 0 103 98h10l85 -49l-212 -208
q-64 0 -95 39q-47 59 -99 59q-61 0 -103 -98h-10z" />
    <glyph glyph-name="Ograve" unicode="&#xd2;" 
d="M705 140q143 0 233 103q72 83 72 217v590q0 134 -72 217q-89 103 -233 103q-145 0 -233 -103q-72 -83 -72 -217v-590q0 -132 72 -217q87 -103 233 -103zM705 -40q-228 0 -370 145q-135 138 -135 355v700l505 390q228 0 370 -145q135 -138 135 -355v-700zM596 1966h10
l162 -345l-117 -55h-10l-221 316z" />
    <glyph glyph-name="Oacute" unicode="&#xd3;" 
d="M705 140q143 0 233 103q72 83 72 217v590q0 134 -72 217q-89 103 -233 103q-145 0 -233 -103q-72 -83 -72 -217v-590q0 -132 72 -217q87 -103 233 -103zM705 -40q-228 0 -370 145q-135 138 -135 355v700l505 390q228 0 370 -145q135 -138 135 -355v-700zM796 1966h10
l176 -84l-221 -316h-10l-117 55z" />
    <glyph glyph-name="Ocircumflex" unicode="&#xd4;" 
d="M705 140q143 0 233 103q72 83 72 217v590q0 134 -72 217q-89 103 -233 103q-145 0 -233 -103q-72 -83 -72 -217v-590q0 -132 72 -217q87 -103 233 -103zM705 -40q-228 0 -370 145q-135 138 -135 355v700l505 390q228 0 370 -145q135 -138 135 -355v-700zM806 1966
l225 -318l-173 -82h-10l-141 228l-141 -228h-10l-103 49l170 269l173 82h10z" />
    <glyph glyph-name="Otilde" unicode="&#xd5;" 
d="M705 140q143 0 233 103q72 83 72 217v590q0 134 -72 217q-89 103 -233 103q-145 0 -233 -103q-72 -83 -72 -217v-590q0 -132 72 -217q87 -103 233 -103zM705 -40q-228 0 -370 145q-135 138 -135 355v700l505 390q228 0 370 -145q135 -138 135 -355v-700zM510 1639l-85 49
l212 208q64 0 95 -39q47 -59 99 -59q61 0 103 98h10l85 -49l-212 -208q-64 0 -95 39q-47 59 -99 59q-61 0 -103 -98h-10z" />
    <glyph glyph-name="Odieresis" unicode="&#xd6;" 
d="M705 140q143 0 233 103q72 83 72 217v590q0 134 -72 217q-89 103 -233 103q-145 0 -233 -103q-72 -83 -72 -217v-590q0 -132 72 -217q87 -103 233 -103zM705 -40q-228 0 -370 145q-135 138 -135 355v700l505 390q228 0 370 -145q135 -138 135 -355v-700zM934 1966h10
v-228l-190 -90h-10v228zM661 1966h10v-228l-190 -90h-10v228z" />
    <glyph glyph-name="multiply" unicode="&#xd7;" horiz-adv-x="1075" 
d="M150 1014l7 7l179 64l201 -201l202 201l179 -64l7 -7l-259 -259l259 -259l-7 -7l-179 -64l-202 201l-201 -201l-179 64l-7 7l259 259z" />
    <glyph glyph-name="Oslash" unicode="&#xd8;" 
d="M404 -40h-10l-104 50l44 96q-134 137 -134 354v700l505 390q155 0 270 -67l31 67h10l104 -51l-44 -95q134 -138 134 -354v-700l-505 -390q-155 0 -270 67zM705 140q143 0 233 103q72 82 72 217v590q0 85 -29 150l-465 -999q77 -61 189 -61zM430 310l464 999
q-78 61 -189 61q-144 0 -233 -103q-72 -84 -72 -217v-590q0 -85 30 -150z" />
    <glyph glyph-name="Ugrave" unicode="&#xd9;" 
d="M705 -40q-228 0 -370 145q-135 138 -135 355v998l190 92h10v-1090q0 -134 72 -217q89 -103 233 -103q147 0 233 103q72 86 72 217v1000l190 90h10v-1200zM596 1966h10l162 -345l-117 -55h-10l-221 316z" />
    <glyph glyph-name="Uacute" unicode="&#xda;" 
d="M705 -40q-228 0 -370 145q-135 138 -135 355v998l190 92h10v-1090q0 -134 72 -217q89 -103 233 -103q147 0 233 103q72 86 72 217v1000l190 90h10v-1200zM796 1966h10l176 -84l-221 -316h-10l-117 55z" />
    <glyph glyph-name="Ucircumflex" unicode="&#xdb;" 
d="M705 -40q-228 0 -370 145q-135 138 -135 355v998l190 92h10v-1090q0 -134 72 -217q89 -103 233 -103q147 0 233 103q72 86 72 217v1000l190 90h10v-1200zM806 1966l225 -318l-173 -82h-10l-141 228l-141 -228h-10l-103 49l170 269l173 82h10z" />
    <glyph glyph-name="Udieresis" unicode="&#xdc;" 
d="M705 -40q-228 0 -370 145q-135 138 -135 355v998l190 92h10v-1090q0 -134 72 -217q89 -103 233 -103q147 0 233 103q72 86 72 217v1000l190 90h10v-1200zM934 1966h10v-228l-190 -90h-10v228zM661 1966h10v-228l-190 -90h-10v228z" />
    <glyph glyph-name="Yacute" unicode="&#xdd;" horiz-adv-x="1278" 
d="M516 -40v562h-287v10l57 120h180l-366 815l175 83h10l379 -860l399 860h10l105 -50l-406 -848h277v-10l-57 -120h-276v-472l-190 -90h-10zM796 1966h10l176 -84l-221 -316h-10l-117 55z" />
    <glyph glyph-name="Thorn" unicode="&#xde;" horiz-adv-x="1370" 
d="M705 448q150 0 233 103q72 89 72 217v90q0 132 -72 217q-89 103 -233 103q-147 0 -233 -103q-72 -87 -72 -217v-90q0 -132 72 -217q87 -103 233 -103zM200 -40v1500l190 90h10v-428l305 236q232 0 370 -145q135 -142 135 -355v-200l-505 -390q-182 0 -305 88v-306
l-190 -90h-10z" />
    <glyph glyph-name="germandbls" unicode="&#xdf;" horiz-adv-x="1280" 
d="M200 -40v1270l415 320q189 -13 291 -96q124 -101 124 -347l-250 -193q129 -28 205 -97q135 -123 135 -355v-112l-505 -390h-81v10l81 172q145 0 233 101q72 83 72 217q0 135 -59 197q-88 92 -328 92v10l81 172q101 0 159 61q57 61 57 173q0 114 -65 172q-62 55 -150 55
q-98 0 -156 -61q-59 -61 -59 -174v-1107l-190 -90h-10z" />
    <glyph glyph-name="agrave" unicode="&#xe0;" horiz-adv-x="1080" 
d="M515 118q105 0 156 61q59 71 59 177q0 122 -65 180q-62 55 -150 55q-105 0 -156 -61q-59 -71 -59 -174q0 -125 65 -183q63 -55 150 -55zM515 -40q-186 13 -291 96q-124 98 -124 297v75l415 321q126 -9 215 -50v48q0 121 -65 180q-62 55 -150 55q-98 0 -156 -61l-55 56
l211 163q189 -13 291 -96q124 -101 124 -297v-697l-190 -90h-10v167zM453 1556h10l162 -345l-117 -55h-10l-221 316z" />
    <glyph glyph-name="aacute" unicode="&#xe1;" horiz-adv-x="1080" 
d="M515 118q105 0 156 61q59 71 59 177q0 122 -65 180q-62 55 -150 55q-105 0 -156 -61q-59 -71 -59 -174q0 -125 65 -183q63 -55 150 -55zM515 -40q-186 13 -291 96q-124 98 -124 297v75l415 321q126 -9 215 -50v48q0 121 -65 180q-62 55 -150 55q-98 0 -156 -61l-55 56
l211 163q189 -13 291 -96q124 -101 124 -297v-697l-190 -90h-10v167zM663 1556h10l176 -84l-221 -316h-10l-117 55z" />
    <glyph glyph-name="acircumflex" unicode="&#xe2;" horiz-adv-x="1080" 
d="M515 118q105 0 156 61q59 71 59 177q0 122 -65 180q-62 55 -150 55q-105 0 -156 -61q-59 -71 -59 -174q0 -125 65 -183q63 -55 150 -55zM515 -40q-186 13 -291 96q-124 98 -124 297v75l415 321q126 -9 215 -50v48q0 121 -65 180q-62 55 -150 55q-98 0 -156 -61l-55 56
l211 163q189 -13 291 -96q124 -101 124 -297v-697l-190 -90h-10v167zM648 1556l225 -318l-173 -82h-10l-141 228l-141 -228h-10l-103 49l170 269l173 82h10z" />
    <glyph glyph-name="atilde" unicode="&#xe3;" horiz-adv-x="1080" 
d="M515 118q105 0 156 61q59 71 59 177q0 122 -65 180q-62 55 -150 55q-105 0 -156 -61q-59 -71 -59 -174q0 -125 65 -183q63 -55 150 -55zM515 -40q-186 13 -291 96q-124 98 -124 297v75l415 321q126 -9 215 -50v48q0 121 -65 180q-62 55 -150 55q-98 0 -156 -61l-55 56
l211 163q189 -13 291 -96q124 -101 124 -297v-697l-190 -90h-10v167zM383 1228l-85 49l212 208q64 0 95 -39q47 -59 99 -59q61 0 103 98h10l85 -49l-212 -208q-64 0 -95 39q-47 59 -99 59q-61 0 -103 -98h-10z" />
    <glyph glyph-name="adieresis" unicode="&#xe4;" horiz-adv-x="1080" 
d="M515 118q105 0 156 61q59 71 59 177q0 122 -65 180q-62 55 -150 55q-105 0 -156 -61q-59 -71 -59 -174q0 -125 65 -183q63 -55 150 -55zM515 -40q-186 13 -291 96q-124 98 -124 297v75l415 321q126 -9 215 -50v48q0 121 -65 180q-62 55 -150 55q-98 0 -156 -61l-55 56
l211 163q189 -13 291 -96q124 -101 124 -297v-697l-190 -90h-10v167zM793 1550h10v-228l-190 -90h-10v228zM520 1550h10v-228l-190 -90h-10v228z" />
    <glyph glyph-name="aring" unicode="&#xe5;" horiz-adv-x="1080" 
d="M515 118q105 0 156 61q59 71 59 177q0 122 -65 180q-62 55 -150 55q-105 0 -156 -61q-59 -71 -59 -174q0 -125 65 -183q63 -55 150 -55zM515 -40q-186 13 -291 96q-124 98 -124 297v75l415 321q126 -9 215 -50v48q0 121 -65 180q-62 55 -150 55q-98 0 -156 -61l-55 56
l211 163q189 -13 291 -96q124 -101 124 -297v-697l-190 -90h-10v167zM515 1556q86 -2 139 -46q58 -48 58 -143v-24l-186 -164q-94 7 -139 46q-58 50 -58 142v25zM522 1452q-34 0 -54 -21t-20 -64q0 -46 21 -65q22 -20 55 -20q28 0 50 22q20 19 20 63q0 45 -22 66
q-20 19 -50 19z" />
    <glyph glyph-name="ae" unicode="&#xe6;" horiz-adv-x="1711" 
d="M515 -40q-186 13 -291 96q-124 98 -124 297v75l415 321q126 -9 215 -50v48q0 121 -65 180q-62 55 -150 55q-98 0 -156 -61l-55 56l211 163q189 -13 291 -96q53 -43 83 -103l257 199q189 -13 291 -96q124 -101 124 -297l-615 -497q18 -50 50 -77q65 -55 148 -55
q87 0 158 61q59 51 59 174l190 90h10v-162l-415 -321q-159 11 -256 71l-150 -71h-10v167zM515 118q105 0 156 61q59 71 59 177q0 122 -65 180q-62 55 -150 55q-105 0 -156 -61q-59 -71 -59 -174q0 -126 65 -183q63 -55 150 -55zM931 397l430 349q0 126 -65.5 181t-149.5 55
q-97 0 -156 -61t-59 -174v-350z" />
    <glyph glyph-name="ccedilla" unicode="&#xe7;" horiz-adv-x="1130" 
d="M980 443v-162l-344 -266l147 -174q-13 -189 -96 -291h-10l-190 90q108 70 108 182q0 67 -30 138q-189 13 -291 96q-124 102 -124 297v466l415 321q189 -13 291 -96q124 -101 124 -297l-190 -90h-10v90q0 125 -65 180t-150 55q-97 0 -156 -61t-59 -174v-394
q0 -125 65 -180t150 -55q91 0 153 61t62 174l190 90h10z" />
    <glyph glyph-name="egrave" unicode="&#xe8;" horiz-adv-x="1130" 
d="M565 -40q-189 13 -291 96q-124 102 -124 297v466l415 321q189 -13 291 -96q124 -101 124 -297l-615 -497q18 -50 50 -77q65 -55 148 -55q87 0 158 61q59 51 59 174l190 90h10v-162zM350 397l430 349q0 126 -65.5 181t-149.5 55q-97 0 -156 -61t-59 -174v-350zM453 1556
h10l162 -345l-117 -55h-10l-221 316z" />
    <glyph glyph-name="eacute" unicode="&#xe9;" horiz-adv-x="1130" 
d="M565 -40q-189 13 -291 96q-124 102 -124 297v466l415 321q189 -13 291 -96q124 -101 124 -297l-615 -497q18 -50 50 -77q65 -55 148 -55q87 0 158 61q59 51 59 174l190 90h10v-162zM350 397l430 349q0 126 -65.5 181t-149.5 55q-97 0 -156 -61t-59 -174v-350zM663 1556
h10l176 -84l-221 -316h-10l-117 55z" />
    <glyph glyph-name="ecircumflex" unicode="&#xea;" horiz-adv-x="1130" 
d="M565 -40q-189 13 -291 96q-124 102 -124 297v466l415 321q189 -13 291 -96q124 -101 124 -297l-615 -497q18 -50 50 -77q65 -55 148 -55q87 0 158 61q59 51 59 174l190 90h10v-162zM350 397l430 349q0 126 -65.5 181t-149.5 55q-97 0 -156 -61t-59 -174v-350zM648 1556
l225 -318l-173 -82h-10l-141 228l-141 -228h-10l-103 49l170 269l173 82h10z" />
    <glyph glyph-name="edieresis" unicode="&#xeb;" horiz-adv-x="1130" 
d="M565 -40q-189 13 -291 96q-124 102 -124 297v466l415 321q189 -13 291 -96q124 -101 124 -297l-615 -497q18 -50 50 -77q65 -55 148 -55q87 0 158 61q59 51 59 174l190 90h10v-162zM350 397l430 349q0 126 -65.5 181t-149.5 55q-97 0 -156 -61t-59 -174v-350zM793 1550
h10v-228l-190 -90h-10v228zM520 1550h10v-228l-190 -90h-10v228z" />
    <glyph glyph-name="igrave" unicode="&#xec;" horiz-adv-x="600" 
d="M241 1556h10l162 -345l-117 -55h-10l-221 316zM200 -40v1090l190 90h10v-1090l-190 -90h-10z" />
    <glyph glyph-name="iacute" unicode="&#xed;" horiz-adv-x="600" 
d="M347 1556h10l176 -84l-221 -316h-10l-117 55zM200 -40v1090l190 90h10v-1090l-190 -90h-10z" />
    <glyph glyph-name="icircumflex" unicode="&#xee;" horiz-adv-x="600" 
d="M364 1556l225 -318l-173 -82h-10l-141 228l-141 -228h-10l-103 49l170 269l173 82h10zM200 -40v1090l190 90h10v-1090l-190 -90h-10z" />
    <glyph glyph-name="idieresis" unicode="&#xef;" horiz-adv-x="600" 
d="M526 1550h10v-228l-190 -90h-10v228zM253 1550h10v-228l-190 -90h-10v228zM200 -40v1090l190 90h10v-1090l-190 -90h-10z" />
    <glyph glyph-name="eth" unicode="&#xf0;" horiz-adv-x="1180" 
d="M565 118q95 0 155 61t60 174v227q0 126 -66 180q-67 55 -149 55q-95 0 -155 -61t-60 -174v-227q0 -126 65 -180q66 -55 150 -55zM565 -40q-191 13 -291 96q-124 104 -124 297v299l415 321q127 -9 215 -49v233q0 40 -7 74l-188 -156h-10l-72 93l208 173q-58 51 -146 51
l-69 148v10h69q185 -13 286 -92l150 124h10l72 -93l-151 -125q48 -85 48 -207v-876z" />
    <glyph glyph-name="ntilde" unicode="&#xf1;" horiz-adv-x="1130" 
d="M150 -40v859l415 321q189 -13 291 -96q124 -101 124 -297v-697l-190 -90h-10v787q0 125 -65 180t-150 55q-94 0 -156 -61q-59 -58 -59 -174v-697l-190 -90h-10zM383 1228l-85 49l212 208q64 0 95 -39q47 -59 99 -59q61 0 103 98h10l85 -49l-212 -208q-64 0 -95 39
q-47 59 -99 59q-61 0 -103 -98h-10z" />
    <glyph glyph-name="ograve" unicode="&#xf2;" horiz-adv-x="1130" 
d="M565 -40q-189 13 -291 96q-124 102 -124 297v466l415 321q189 -13 291 -96q124 -101 124 -297v-466zM565 118q95 0 155 61t60 174v394q0 125 -65.5 180t-149.5 55q-95 0 -155 -61t-60 -174v-394q0 -125 65 -180t150 -55zM453 1556h10l162 -345l-117 -55h-10l-221 316z
" />
    <glyph glyph-name="oacute" unicode="&#xf3;" horiz-adv-x="1130" 
d="M565 -40q-189 13 -291 96q-124 102 -124 297v466l415 321q189 -13 291 -96q124 -101 124 -297v-466zM565 118q95 0 155 61t60 174v394q0 125 -65.5 180t-149.5 55q-95 0 -155 -61t-60 -174v-394q0 -125 65 -180t150 -55zM663 1556h10l176 -84l-221 -316h-10l-117 55z" />
    <glyph glyph-name="ocircumflex" unicode="&#xf4;" horiz-adv-x="1130" 
d="M565 -40q-189 13 -291 96q-124 102 -124 297v466l415 321q189 -13 291 -96q124 -101 124 -297v-466zM565 118q95 0 155 61t60 174v394q0 125 -65.5 180t-149.5 55q-95 0 -155 -61t-60 -174v-394q0 -125 65 -180t150 -55zM648 1556l225 -318l-173 -82h-10l-141 228
l-141 -228h-10l-103 49l170 269l173 82h10z" />
    <glyph glyph-name="otilde" unicode="&#xf5;" horiz-adv-x="1130" 
d="M565 -40q-189 13 -291 96q-124 102 -124 297v466l415 321q189 -13 291 -96q124 -101 124 -297v-466zM565 118q95 0 155 61t60 174v394q0 125 -65.5 180t-149.5 55q-95 0 -155 -61t-60 -174v-394q0 -125 65 -180t150 -55zM383 1228l-85 49l212 208q64 0 95 -39
q47 -59 99 -59q61 0 103 98h10l85 -49l-212 -208q-64 0 -95 39q-47 59 -99 59q-61 0 -103 -98h-10z" />
    <glyph glyph-name="odieresis" unicode="&#xf6;" horiz-adv-x="1130" 
d="M565 -40q-189 13 -291 96q-124 102 -124 297v466l415 321q189 -13 291 -96q124 -101 124 -297v-466zM565 118q95 0 155 61t60 174v394q0 125 -65.5 180t-149.5 55q-95 0 -155 -61t-60 -174v-394q0 -125 65 -180t150 -55zM793 1550h10v-228l-190 -90h-10v228zM520 1550h10
v-228l-190 -90h-10v228z" />
    <glyph glyph-name="divide" unicode="&#xf7;" horiz-adv-x="1214" 
d="M150 664v10l81 172h833v-10l-81 -172h-833zM507 914v228l190 90h10v-228l-190 -90h-10zM507 280v228l190 90h10v-228l-190 -90h-10z" />
    <glyph glyph-name="oslash" unicode="&#xf8;" horiz-adv-x="1130" 
d="M359 -40h-10l-104 50l24 51q-119 101 -119 292v466l415 321q108 -7 187 -38l18 38h10l105 -51l-23 -50q118 -101 118 -292v-466l-415 -321q-108 7 -188 38zM565 118q95 0 155 61t60 174v394q0 52 -11 92l-322 -689q53 -32 118 -32zM361 261l321 689q-53 32 -117 32
q-95 0 -155 -61t-60 -174v-394q0 -52 11 -92z" />
    <glyph glyph-name="ugrave" unicode="&#xf9;" horiz-adv-x="1130" 
d="M565 -40q-189 13 -291 96q-124 101 -124 297v697l190 90h10v-787q0 -125 65 -180t150 -55q94 0 156 61q59 58 59 174v697l190 90h10v-859zM453 1556h10l162 -345l-117 -55h-10l-221 316z" />
    <glyph glyph-name="uacute" unicode="&#xfa;" horiz-adv-x="1130" 
d="M565 -40q-189 13 -291 96q-124 101 -124 297v697l190 90h10v-787q0 -125 65 -180t150 -55q94 0 156 61q59 58 59 174v697l190 90h10v-859zM663 1556h10l176 -84l-221 -316h-10l-117 55z" />
    <glyph glyph-name="ucircumflex" unicode="&#xfb;" horiz-adv-x="1130" 
d="M565 -40q-189 13 -291 96q-124 101 -124 297v697l190 90h10v-787q0 -125 65 -180t150 -55q94 0 156 61q59 58 59 174v697l190 90h10v-859zM648 1556l225 -318l-173 -82h-10l-141 228l-141 -228h-10l-103 49l170 269l173 82h10z" />
    <glyph glyph-name="udieresis" unicode="&#xfc;" horiz-adv-x="1130" 
d="M565 -40q-189 13 -291 96q-124 101 -124 297v697l190 90h10v-787q0 -125 65 -180t150 -55q94 0 156 61q59 58 59 174v697l190 90h10v-859zM793 1550h10v-228l-190 -90h-10v228zM520 1550h10v-228l-190 -90h-10v228z" />
    <glyph glyph-name="yacute" unicode="&#xfd;" horiz-adv-x="1180" 
d="M565 -40q-189 13 -291 96q-124 101 -124 297v697l190 90h10v-787q0 -125 65 -180t149 -55q86 0 157 61q59 51 59 174v697l190 90h10v-1269l-415 -321q-209 14 -289 94l139 119q60 -55 148 -55q90 0 158 61q59 53 59 174v184zM663 1556h10l176 -84l-221 -316h-10l-117 55z
" />
    <glyph glyph-name="thorn" unicode="&#xfe;" horiz-adv-x="1180" 
d="M615 118q87 0 156 61q59 52 59 174v394q0 125 -65.5 180t-149.5 55q-96 0 -155.5 -61t-59.5 -174v-394q0 -125 65.5 -180t149.5 -55zM200 -450v1910l190 90h10v-577l215 167q191 -13 291 -96q124 -104 124 -297v-466l-415 -321q-127 9 -215 49v-369l-190 -90h-10z" />
    <glyph glyph-name="ydieresis" unicode="&#xff;" horiz-adv-x="1180" 
d="M565 -40q-189 13 -291 96q-124 101 -124 297v697l190 90h10v-787q0 -125 65 -180t149 -55q86 0 157 61q59 51 59 174v697l190 90h10v-1269l-415 -321q-209 14 -289 94l139 119q60 -55 148 -55q90 0 158 61q59 53 59 174v184zM793 1550h10v-228l-190 -90h-10v228z
M520 1550h10v-228l-190 -90h-10v228z" />
    <glyph glyph-name="Amacron" unicode="&#x100;" 
d="M50 522v10l57 120h93v508l505 390q228 0 370 -145q135 -138 135 -355v-998l-190 -92h-10v1090q0 134 -72 217q-89 103 -233 103q-147 0 -233 -103q-72 -86 -72 -217v-398h470v-10l-57 -120h-413v-472l-190 -90h-10v562h-150zM467 1638v10l81 172h458v-10l-81 -172h-458z
" />
    <glyph glyph-name="amacron" unicode="&#x101;" horiz-adv-x="1080" 
d="M515 118q105 0 156 61q59 71 59 177q0 122 -65 180q-62 55 -150 55q-105 0 -156 -61q-59 -71 -59 -174q0 -125 65 -183q63 -55 150 -55zM515 -40q-186 13 -291 96q-124 98 -124 297v75l415 321q126 -9 215 -50v48q0 121 -65 180q-62 55 -150 55q-98 0 -156 -61l-55 56
l211 163q189 -13 291 -96q124 -101 124 -297v-697l-190 -90h-10v167zM314 1228v10l81 172h458v-10l-81 -172h-458z" />
    <glyph glyph-name="Abreve" unicode="&#x102;" 
d="M50 522v10l57 120h93v508l505 390q228 0 370 -145q135 -138 135 -355v-998l-190 -92h-10v1090q0 134 -72 217q-89 103 -233 103q-147 0 -233 -103q-72 -86 -72 -217v-398h470v-10l-57 -120h-413v-472l-190 -90h-10v562h-150zM402 1785l131 117h10q84 -106 186 -106
q103 0 210 101h10l49 -44l-251 -215q-189 0 -345 147z" />
    <glyph glyph-name="abreve" unicode="&#x103;" horiz-adv-x="1080" 
d="M515 118q105 0 156 61q59 71 59 177q0 122 -65 180q-62 55 -150 55q-105 0 -156 -61q-59 -71 -59 -174q0 -125 65 -183q63 -55 150 -55zM515 -40q-186 13 -291 96q-124 98 -124 297v75l415 321q126 -9 215 -50v48q0 121 -65 180q-62 55 -150 55q-98 0 -156 -61l-55 56
l211 163q189 -13 291 -96q124 -101 124 -297v-697l-190 -90h-10v167zM255 1375l131 117h10q84 -106 186 -106q103 0 210 101h10l49 -44l-251 -215q-189 0 -345 147z" />
    <glyph glyph-name="Aogonek" unicode="&#x104;" 
d="M200 -40v562h-150v10l57 120h93v508l505 390q228 0 370 -145q135 -138 135 -355v-998l-51 -25q-62 -105 -62 -205q0 -110 108 -182l-190 -90h-10q-83 102 -96 291l101 119v1090q0 134 -72 217q-89 103 -233 103q-147 0 -233 -103q-72 -86 -72 -217v-398h470v-10l-57 -120
h-413v-472l-190 -90h-10z" />
    <glyph glyph-name="aogonek" unicode="&#x105;" horiz-adv-x="1080" 
d="M515 -40q-186 13 -291 96q-124 98 -124 297v75l415 321q126 -9 215 -50v48q0 121 -65 180q-62 55 -150 55q-98 0 -156 -61l-55 56l211 163q189 -13 291 -96q124 -101 124 -297v-697l-51 -24q-62 -105 -62 -204q0 -112 108 -182l-190 -90h-10q-83 102 -96 291l101 119v167
zM515 118q105 0 156 61q59 71 59 177q0 122 -65 180q-62 55 -150 55q-105 0 -156 -61q-59 -71 -59 -174q0 -126 65 -183q63 -55 150 -55z" />
    <glyph glyph-name="Cacute" unicode="&#x106;" 
d="M705 -40q-228 0 -370 145q-135 138 -135 355v700l505 390q228 0 370 -145q135 -138 135 -355l-190 -90h-10v90q0 134 -72 217q-89 103 -233 103q-145 0 -233 -103q-72 -83 -72 -217v-590q0 -132 72 -217q87 -103 233 -103q143 0 233 103q72 83 72 217l190 90h10v-200z
M796 1966h10l176 -84l-221 -316h-10l-117 55z" />
    <glyph glyph-name="cacute" unicode="&#x107;" horiz-adv-x="1130" 
d="M565 -40q-189 13 -291 96q-124 102 -124 297v466l415 321q189 -13 291 -96q124 -101 124 -297l-190 -90h-10v90q0 121 -65 180q-62 55 -150 55q-98 -1 -156 -61q-59 -61 -59 -174v-394q0 -121 65 -180q62 -55 150 -55q98 1 156 61q59 61 59 174l190 90h10v-162zM663 1556
h10l176 -84l-221 -316h-10l-117 55z" />
    <glyph glyph-name="Ccircumflex" unicode="&#x108;" 
d="M705 -40q-228 0 -370 145q-135 138 -135 355v700l505 390q228 0 370 -145q135 -138 135 -355l-190 -90h-10v90q0 134 -72 217q-89 103 -233 103q-145 0 -233 -103q-72 -83 -72 -217v-590q0 -132 72 -217q87 -103 233 -103q143 0 233 103q72 83 72 217l190 90h10v-200z
M806 1966l225 -318l-173 -82h-10l-141 228l-141 -228h-10l-103 49l170 269l173 82h10z" />
    <glyph glyph-name="ccircumflex" unicode="&#x109;" horiz-adv-x="1130" 
d="M565 -40q-189 13 -291 96q-124 102 -124 297v466l415 321q189 -13 291 -96q124 -101 124 -297l-190 -90h-10v90q0 121 -65 180q-62 55 -150 55q-98 -1 -156 -61q-59 -61 -59 -174v-394q0 -121 65 -180q62 -55 150 -55q98 1 156 61q59 61 59 174l190 90h10v-162zM648 1556
l225 -318l-173 -82h-10l-141 228l-141 -228h-10l-103 49l170 269l173 82h10z" />
    <glyph glyph-name="Cdotaccent" unicode="&#x10a;" 
d="M705 -40q-228 0 -370 145q-135 138 -135 355v700l505 390q228 0 370 -145q135 -138 135 -355l-190 -90h-10v90q0 134 -72 217q-89 103 -233 103q-145 0 -233 -103q-72 -83 -72 -217v-590q0 -132 72 -217q87 -103 233 -103q143 0 233 103q72 83 72 217l190 90h10v-200z
M800 1966v-228l-190 -90h-10v228l190 90h10z" />
    <glyph glyph-name="cdotaccent" unicode="&#x10b;" horiz-adv-x="1130" 
d="M565 -40q-189 13 -291 96q-124 102 -124 297v466l415 321q189 -13 291 -96q124 -101 124 -297l-190 -90h-10v90q0 121 -65 180q-62 55 -150 55q-98 -1 -156 -61q-59 -61 -59 -174v-394q0 -121 65 -180q62 -55 150 -55q98 1 156 61q59 61 59 174l190 90h10v-162zM656 1550
v-228l-190 -90h-10v228l190 90h10z" />
    <glyph glyph-name="Ccaron" unicode="&#x10c;" 
d="M705 -40q-228 0 -370 145q-135 138 -135 355v700l505 390q228 0 370 -145q135 -138 135 -355l-190 -90h-10v90q0 134 -72 217q-89 103 -233 103q-145 0 -233 -103q-72 -83 -72 -217v-590q0 -132 72 -217q87 -103 233 -103q143 0 233 103q72 83 72 217l190 90h10v-200z
M577 1966h10l141 -228l141 228h10l103 -49l-170 -269l-173 -82h-10l-225 318z" />
    <glyph glyph-name="ccaron" unicode="&#x10d;" horiz-adv-x="1130" 
d="M565 -40q-189 13 -291 96q-124 102 -124 297v466l415 321q189 -13 291 -96q124 -101 124 -297l-190 -90h-10v90q0 121 -65 180q-62 55 -150 55q-98 -1 -156 -61q-59 -61 -59 -174v-394q0 -121 65 -180q62 -55 150 -55q98 1 156 61q59 61 59 174l190 90h10v-162zM468 1556
h10l141 -228l141 228h10l103 -49l-170 -269l-173 -82h-10l-225 318z" />
    <glyph glyph-name="Dcaron" unicode="&#x10e;" horiz-adv-x="1338" 
d="M526 1966h10l141 -228l141 228h10l103 -49l-170 -269l-173 -82h-10l-225 318zM200 -40v1500l190 90h10v-1450q238 89 397 226q229 196 229 490q0 256 -187 429q-134 124 -428 196l229 109h10q234 -62 373 -209q195 -204 195 -492q0 -386 -348 -629q-282 -198 -660 -260
h-10z" />
    <glyph glyph-name="dcaron" unicode="&#x10f;" horiz-adv-x="1218" 
d="M565 118q96 0 155.5 61t59.5 174v394q0 117 -65 180q-57 55 -150 55q-95 0 -155 -61t-60 -174v-394q0 -125 65 -180t150 -55zM565 -40q-189 13 -291 96q-124 102 -124 297v466l415 321q127 -9 215 -49v369l190 90h10v-1269zM1182 1556h10l176 -84l-221 -316h-10l-117 55z
" />
    <glyph glyph-name="Dcroat" unicode="&#x110;" horiz-adv-x="1338" 
d="M200 -40v562h-150v10l57 120h93v808l190 90h10v-898h470v-10l-57 -120h-413v-422q237 89 397 226q229 197 229 490q0 256 -187 429q-134 124 -428 196l229 109h10q233 -62 373 -209q195 -205 195 -492q0 -385 -348 -629q-283 -198 -660 -260h-10z" />
    <glyph glyph-name="dcroat" unicode="&#x111;" horiz-adv-x="1180" 
d="M565 -40q-189 13 -291 96q-124 102 -124 297v466l415 321q127 -9 215 -49v149h-267v10l57 120h210v90l190 90h10v-180h150v-10l-57 -120h-93v-959zM565 118q96 0 155.5 61t59.5 174v394q0 117 -65 180q-57 55 -150 55q-95 0 -155 -61t-60 -174v-394q0 -125 65 -180
t150 -55z" />
    <glyph glyph-name="Emacron" unicode="&#x112;" horiz-adv-x="1133" 
d="M50 0v10l57 120h93v392h-150v10l57 120h93v808l106 50h634v-10l-57 -120h-483v-728h470v-10l-57 -120h-413v-392h683v-10l-57 -120h-976zM331 1638v10l81 172h458v-10l-81 -172h-458z" />
    <glyph glyph-name="emacron" unicode="&#x113;" horiz-adv-x="1130" 
d="M565 -40q-189 13 -291 96q-124 102 -124 297v466l415 321q189 -13 291 -96q124 -101 124 -297l-615 -497q18 -50 50 -77q65 -55 148 -55q87 0 158 61q59 51 59 174l190 90h10v-162zM350 397l430 349q0 126 -65.5 181t-149.5 55q-97 0 -156 -61t-59 -174v-350zM314 1228
v10l81 172h458v-10l-81 -172h-458z" />
    <glyph glyph-name="Ebreve" unicode="&#x114;" horiz-adv-x="1133" 
d="M50 0v10l57 120h93v392h-150v10l57 120h93v808l106 50h634v-10l-57 -120h-483v-728h470v-10l-57 -120h-413v-392h683v-10l-57 -120h-976zM269 1785l131 117h10q84 -106 186 -106q103 0 210 101h10l49 -44l-251 -215q-189 0 -345 147z" />
    <glyph glyph-name="ebreve" unicode="&#x115;" horiz-adv-x="1130" 
d="M565 -40q-189 13 -291 96q-124 102 -124 297v466l415 321q189 -13 291 -96q124 -101 124 -297l-615 -497q18 -50 50 -77q65 -55 148 -55q87 0 158 61q59 51 59 174l190 90h10v-162zM350 397l430 349q0 126 -65.5 181t-149.5 55q-97 0 -156 -61t-59 -174v-350zM255 1375
l131 117h10q84 -106 186 -106q103 0 210 101h10l49 -44l-251 -215q-189 0 -345 147z" />
    <glyph glyph-name="Edotaccent" unicode="&#x116;" horiz-adv-x="1133" 
d="M50 0v10l57 120h93v392h-150v10l57 120h93v808l106 50h634v-10l-57 -120h-483v-728h470v-10l-57 -120h-413v-392h683v-10l-57 -120h-976zM686 1966v-228l-190 -90h-10v228l190 90h10z" />
    <glyph glyph-name="edotaccent" unicode="&#x117;" horiz-adv-x="1130" 
d="M565 -40q-189 13 -291 96q-124 102 -124 297v466l415 321q189 -13 291 -96q124 -101 124 -297l-615 -497q18 -50 50 -77q65 -55 148 -55q87 0 158 61q59 51 59 174l190 90h10v-162zM350 397l430 349q0 126 -65.5 181t-149.5 55q-97 0 -156 -61t-59 -174v-350zM656 1550
v-228l-190 -90h-10v228l190 90h10z" />
    <glyph glyph-name="Eogonek" unicode="&#x118;" horiz-adv-x="1133" 
d="M50 0v10l57 120h93v392h-150v10l57 120h93v808l106 50h634v-10l-57 -120h-483v-728h470v-10l-57 -120h-413v-392h683v-10l-57 -120h-68q-59 -92 -59 -178q0 -112 108 -182l-190 -90h-10q-83 102 -96 291l135 159h-796z" />
    <glyph glyph-name="eogonek" unicode="&#x119;" horiz-adv-x="1130" 
d="M350 397l430 349q0 126 -65.5 181t-149.5 55q-97 0 -156 -61t-59 -174v-350zM980 443v-162l-308 -239q-73 -115 -73 -220q0 -111 108 -182l-190 -90h-10q-83 102 -96 291l105 124q-154 19 -242 91q-124 101 -124 297v466l415 321q189 -13 291 -96q124 -101 124 -297
l-615 -497q18 -50 50 -77q65 -55 148 -55q87 0 158 61q59 51 59 174l190 90h10z" />
    <glyph glyph-name="Ecaron" unicode="&#x11a;" horiz-adv-x="1133" 
d="M50 0v10l57 120h93v392h-150v10l57 120h93v808l106 50h634v-10l-57 -120h-483v-728h470v-10l-57 -120h-413v-392h683v-10l-57 -120h-976zM458 1966h10l141 -228l141 228h10l103 -49l-170 -269l-173 -82h-10l-225 318z" />
    <glyph glyph-name="ecaron" unicode="&#x11b;" horiz-adv-x="1130" 
d="M565 -40q-189 13 -291 96q-124 102 -124 297v466l415 321q189 -13 291 -96q124 -101 124 -297l-615 -497q18 -50 50 -77q65 -55 148 -55q87 0 158 61q59 51 59 174l190 90h10v-162zM350 397l430 349q0 126 -65.5 181t-149.5 55q-97 0 -156 -61t-59 -174v-350zM468 1556
h10l141 -228l141 228h10l103 -49l-170 -269l-173 -82h-10l-225 318z" />
    <glyph glyph-name="Gcircumflex" unicode="&#x11c;" 
d="M705 -40q-228 0 -370 145q-135 138 -135 355v700l505 390q228 0 370 -145q135 -138 135 -355l-190 -90h-10v90q0 134 -72 217q-89 103 -233 103q-145 0 -233 -103q-72 -83 -72 -217v-590q0 -132 72 -217q87 -103 233 -103q143 0 233 103q72 83 72 217v62h-363v10l57 120
h506v-302zM806 1966l225 -318l-173 -82h-10l-141 228l-141 -228h-10l-103 49l170 269l173 82h10z" />
    <glyph glyph-name="gcircumflex" unicode="&#x11d;" horiz-adv-x="1130" 
d="M562.5 118q81.5 0 158.5 61q59 49 59 174v394q0 125 -65.5 180t-149.5 55q-97 0 -156 -61t-59 -174v-394q0 -126 65 -180q66 -55 147.5 -55zM565 -40q-189 13 -291 96q-124 102 -124 297v466l415 321q189 -13 291 -96q124 -100 124 -297v-876l-415 -321q-209 14 -289 94
l139 119q59 -55 149 -55q93 0 157 61q59 56 59 174v183zM648 1556l225 -318l-173 -82h-10l-141 228l-141 -228h-10l-103 49l170 269l173 82h10z" />
    <glyph glyph-name="Gbreve" unicode="&#x11e;" 
d="M705 -40q-228 0 -370 145q-135 138 -135 355v700l505 390q228 0 370 -145q135 -138 135 -355l-190 -90h-10v90q0 134 -72 217q-89 103 -233 103q-145 0 -233 -103q-72 -83 -72 -217v-590q0 -132 72 -217q87 -103 233 -103q143 0 233 103q72 83 72 217v62h-363v10l57 120
h506v-302zM402 1785l131 117h10q84 -106 186 -106q103 0 210 101h10l49 -44l-251 -215q-189 0 -345 147z" />
    <glyph glyph-name="gbreve" unicode="&#x11f;" horiz-adv-x="1130" 
d="M562.5 118q81.5 0 158.5 61q59 49 59 174v394q0 125 -65.5 180t-149.5 55q-97 0 -156 -61t-59 -174v-394q0 -126 65 -180q66 -55 147.5 -55zM565 -40q-189 13 -291 96q-124 102 -124 297v466l415 321q189 -13 291 -96q124 -100 124 -297v-876l-415 -321q-209 14 -289 94
l139 119q59 -55 149 -55q93 0 157 61q59 56 59 174v183zM255 1375l131 117h10q84 -106 186 -106q103 0 210 101h10l49 -44l-251 -215q-189 0 -345 147z" />
    <glyph glyph-name="Gdotaccent" unicode="&#x120;" 
d="M705 -40q-228 0 -370 145q-135 138 -135 355v700l505 390q228 0 370 -145q135 -138 135 -355l-190 -90h-10v90q0 134 -72 217q-89 103 -233 103q-145 0 -233 -103q-72 -83 -72 -217v-590q0 -132 72 -217q87 -103 233 -103q143 0 233 103q72 83 72 217v62h-363v10l57 120
h506v-302zM800 1966v-228l-190 -90h-10v228l190 90h10z" />
    <glyph glyph-name="gdotaccent" unicode="&#x121;" horiz-adv-x="1130" 
d="M562.5 118q81.5 0 158.5 61q59 49 59 174v394q0 125 -65.5 180t-149.5 55q-97 0 -156 -61t-59 -174v-394q0 -126 65 -180q66 -55 147.5 -55zM565 -40q-189 13 -291 96q-124 102 -124 297v466l415 321q189 -13 291 -96q124 -100 124 -297v-876l-415 -321q-209 14 -289 94
l139 119q59 -55 149 -55q93 0 157 61q59 56 59 174v183zM656 1550v-228l-190 -90h-10v228l190 90h10z" />
    <glyph glyph-name="Gcommaaccent" unicode="&#x122;" 
d="M705 -40q-228 0 -370 145q-135 138 -135 355v700l505 390q228 0 370 -145q135 -138 135 -355l-190 -90h-10v90q0 134 -72 217q-89 103 -233 103q-145 0 -233 -103q-72 -83 -72 -217v-590q0 -132 72 -217q87 -103 233 -103q143 0 233 103q72 83 72 217v62h-363v10l57 120
h506v-302zM595 -450h-10l-176 84l221 316h10l117 -55z" />
    <glyph glyph-name="gcommaaccent" unicode="&#x123;" horiz-adv-x="1130" 
d="M562.5 118q81.5 0 158.5 61q59 49 59 174v394q0 125 -65.5 180t-149.5 55q-97 0 -156 -61t-59 -174v-394q0 -126 65 -180q66 -55 147.5 -55zM565 -40q-189 13 -291 96q-124 102 -124 297v466l415 321q189 -13 291 -96q124 -100 124 -297v-876l-415 -321q-209 14 -289 94
l139 119q59 -55 149 -55q93 0 157 61q59 56 59 174v183zM663 1556h10l176 -84l-221 -316h-10l-117 55z" />
    <glyph glyph-name="Hcircumflex" unicode="&#x124;" horiz-adv-x="1390" 
d="M990 -40v1500l190 90h10v-1500l-190 -90h-10zM200 -40v562h-150v10l57 120h93v808l190 90h10v-898h470v-10l-57 -120h-413v-472l-190 -90h-10zM806 1966l225 -318l-173 -82h-10l-141 228l-141 -228h-10l-103 49l170 269l173 82h10z" />
    <glyph glyph-name="hcircumflex" unicode="&#x125;" horiz-adv-x="1180" 
d="M200 -40v1500l190 90h10v-577l215 167q189 -13 291 -96q124 -101 124 -297v-697l-190 -90h-10v787q0 116 -65 180q-56 55 -150 55q-97 0 -156 -61.5t-59 -173.5v-697l-190 -90h-10zM717 1966l225 -318l-173 -82h-10l-141 228l-141 -228h-10l-103 49l170 269l173 82h10z
" />
    <glyph glyph-name="Hbar" unicode="&#x126;" horiz-adv-x="1390" 
d="M200 -40v562h-150v10l57 120h93v588h-150v10l57 120h93v90l190 90h10v-180h590v90l190 90h10v-180h150v-10l-57 -120h-93v-1190l-190 -90h-10v1280h-590v-588h470v-10l-57 -120h-413v-472l-190 -90h-10z" />
    <glyph glyph-name="hbar" unicode="&#x127;" horiz-adv-x="1180" 
d="M200 -40v1280h-150v10l57 120h93v90l190 90h10v-180h267v-10l-57 -120h-210v-267l215 167q189 -13 291 -96q124 -101 124 -297v-697l-190 -90h-10v787q0 116 -65 180q-56 55 -150 55q-97 0 -156 -61.5t-59 -173.5v-697l-190 -90h-10z" />
    <glyph glyph-name="Itilde" unicode="&#x128;" horiz-adv-x="600" 
d="M83 1638l-78 49l205 208q64 0 95 -39q47 -59 99 -59q61 0 103 98h10l78 -49l-205 -208q-64 0 -95 39q-47 59 -99 59q-61 0 -103 -98h-10zM200 -40v1500l190 90h10v-1500l-190 -90h-10z" />
    <glyph glyph-name="itilde" unicode="&#x129;" horiz-adv-x="600" 
d="M200 -40v1090l190 90h10v-1090l-190 -90h-10zM83 1228l-78 49l205 208q64 0 95 -39q47 -59 99 -59q61 0 103 98h10l78 -49l-205 -208q-64 0 -95 39q-47 59 -99 59q-61 0 -103 -98h-10z" />
    <glyph glyph-name="Imacron" unicode="&#x12a;" horiz-adv-x="600" 
d="M200 -40v1500l190 90h10v-1500l-190 -90h-10zM30 1638v10l81 172h458v-10l-81 -172h-458z" />
    <glyph glyph-name="imacron" unicode="&#x12b;" horiz-adv-x="600" 
d="M200 -40v1090l190 90h10v-1090l-190 -90h-10zM30 1228v10l81 172h458v-10l-81 -172h-458z" />
    <glyph glyph-name="Ibreve" unicode="&#x12c;" horiz-adv-x="600" 
d="M2 1785l131 117h10q84 -106 186 -106q103 0 210 101h10l49 -44l-251 -215q-189 0 -345 147zM200 -40v1500l190 90h10v-1500l-190 -90h-10z" />
    <glyph glyph-name="ibreve" unicode="&#x12d;" horiz-adv-x="600" 
d="M2 1375l131 117h10q84 -106 186 -106q103 0 210 101h10l49 -44l-251 -215q-189 0 -345 147zM200 -40v1090l190 90h10v-1090l-190 -90h-10z" />
    <glyph glyph-name="Iogonek" unicode="&#x12e;" horiz-adv-x="600" 
d="M200 -40v1500l190 90h10v-1500l-50 -24q-63 -106 -63 -204q0 -112 108 -182l-190 -90h-10q-83 102 -96 291z" />
    <glyph glyph-name="iogonek" unicode="&#x12f;" horiz-adv-x="600" 
d="M400 1550v-228l-190 -90h-10v228l190 90h10zM200 -40v1090l190 90h10v-1090l-50 -24q-63 -106 -63 -204q0 -112 108 -182l-190 -90h-10q-83 102 -96 291z" />
    <glyph glyph-name="Idotaccent" unicode="&#x130;" horiz-adv-x="600" 
d="M200 -40v1500l190 90h10v-1500l-190 -90h-10zM400 1966v-228l-190 -90h-10v228l190 90h10z" />
    <glyph glyph-name="dotlessi" unicode="&#x131;" horiz-adv-x="600" 
d="M200 -40v1090l190 90h10v-1090l-190 -90h-10z" />
    <glyph glyph-name="IJ" unicode="&#x132;" horiz-adv-x="1693" 
d="M988 -40q-228 0 -370 145q-135 138 -135 355l190 90h10v-90q0 -134 72 -217q89 -103 233 -103q145 0 233 103q72 83 72 217v868h-473v10l81 172h592v-1160zM200 -40v1500l190 90h10v-1500l-190 -90h-10z" />
    <glyph glyph-name="ij" unicode="&#x133;" horiz-adv-x="1088" 
d="M551 -383q-78 89 -78 91q96 1 156 61q59 60 59 174v1107l190 90h10v-1262zM888 1550v-228l-190 -90h-10v228l190 90h10zM200 -40v1090l190 90h10v-1090l-190 -90h-10zM400 1550v-228l-190 -90h-10v228l190 90h10z" />
    <glyph glyph-name="Jcircumflex" unicode="&#x134;" horiz-adv-x="1290" 
d="M585 -40q-228 0 -370 145q-135 138 -135 355l190 90h10v-90q0 -134 72 -217q89 -103 233 -103q145 0 233 103q72 83 72 217v868h-473v10l81 172h592v-1160zM844 1966l225 -318l-173 -82h-10l-141 228l-141 -228h-10l-103 49l170 269l173 82h10z" />
    <glyph glyph-name="jcircumflex" unicode="&#x135;" horiz-adv-x="600" 
d="M63 -383q-78 89 -78 91q96 1 156 61q59 60 59 174v1107l190 90h10v-1262zM364 1556l225 -318l-173 -82h-10l-141 228l-141 -228h-10l-103 49l170 269l173 82h10z" />
    <glyph glyph-name="Kcommaaccent" unicode="&#x136;" horiz-adv-x="1364" 
d="M595 -450h-10l-176 84l221 316h10l117 -55zM200 -40v1500l190 90h10v-1195q139 47 263 126l-153 219l176 84h10l126 -181q138 174 138 655v202l190 90h10v-288q0 -496 -272 -753l326 -466l-176 -83h-10l-299 427q-153 -86 -329 -132v-205l-190 -90h-10z" />
    <glyph glyph-name="kcommaaccent" unicode="&#x137;" horiz-adv-x="1180" 
d="M200 -40v1500l190 90h10v-862l529 452h10l90 -81l-253 -215q74 -24 130 -68q124 -100 124 -297v-429l-190 -90h-10v519q0 120 -65 180q-60 55 -150 55q-96 0 -155.5 -61t-59.5 -174v-429l-190 -90h-10zM538 -450h-10l-176 84l221 316h10l117 -55z" />
    <glyph glyph-name="kgreenlandic" unicode="&#x138;" horiz-adv-x="1180" 
d="M200 -40v1090l190 90h10v-452l529 452h10l90 -81l-253 -215q79 -27 130 -68q124 -100 124 -297v-429l-190 -90h-10v519q0 120 -65 180q-60 55 -150 55q-96 0 -155.5 -61t-59.5 -174v-429l-190 -90h-10z" />
    <glyph glyph-name="Lacute" unicode="&#x139;" horiz-adv-x="1088" 
d="M50 0v10l57 120h93v1330l190 90h10v-1420h683v-10l-57 -120h-976zM347 1966h10l176 -84l-221 -316h-10l-117 55z" />
    <glyph glyph-name="lacute" unicode="&#x13a;" horiz-adv-x="600" 
d="M347 1966h10l176 -84l-221 -316h-10l-117 55zM200 -40v1500l190 90h10v-1500l-190 -90h-10z" />
    <glyph glyph-name="Lcommaaccent" unicode="&#x13b;" horiz-adv-x="1088" 
d="M50 0v10l57 120h93v1330l190 90h10v-1420h683v-10l-57 -120h-976zM520 -450h-10l-176 84l221 316h10l117 -55z" />
    <glyph glyph-name="lcommaaccent" unicode="&#x13c;" horiz-adv-x="600" 
d="M251 -450h-10l-176 84l221 316h10l117 -55zM200 -40v1500l190 90h10v-1500l-190 -90h-10z" />
    <glyph glyph-name="Lcaron" unicode="&#x13d;" horiz-adv-x="1088" 
d="M50 0v10l57 120h93v1330l190 90h10v-1420h683v-10l-57 -120h-976zM663 1556h10l176 -84l-221 -316h-10l-117 55z" />
    <glyph glyph-name="lcaron" unicode="&#x13e;" horiz-adv-x="640" 
d="M604 1556h10l176 -84l-221 -316h-10l-117 55zM200 -40v1500l190 90h10v-1500l-190 -90h-10z" />
    <glyph glyph-name="Ldot" unicode="&#x13f;" horiz-adv-x="1088" 
d="M50 0v10l57 120h93v1330l190 90h10v-1420h683v-10l-57 -120h-976zM731 1140v-228l-190 -90h-10v228l190 90h10z" />
    <glyph glyph-name="ldot" unicode="&#x140;" horiz-adv-x="651" 
d="M731 1140v-228l-190 -90h-10v228l190 90h10zM200 -40v1500l190 90h10v-1500l-190 -90h-10z" />
    <glyph glyph-name="Lslash" unicode="&#x141;" horiz-adv-x="1088" 
d="M50 0v10l57 120h93v354l-73 91l73 62v823l190 90h10v-742l390 332h10l73 -91l-473 -397v-522h683v-10l-57 -120h-976z" />
    <glyph glyph-name="lslash" unicode="&#x142;" horiz-adv-x="756" 
d="M278 -40v680l-190 -162h-10l-73 97l273 233v652l190 90h10v-572l190 162h10l73 -97l-273 -233v-760l-190 -90h-10z" />
    <glyph glyph-name="Nacute" unicode="&#x143;" 
d="M200 -40v1200l505 390q228 0 370 -145q135 -138 135 -355v-998l-190 -92h-10v1090q0 134 -72 217q-89 103 -233 103q-147 0 -233 -103q-72 -86 -72 -217v-1000l-190 -90h-10zM796 1966h10l176 -84l-221 -316h-10l-117 55z" />
    <glyph glyph-name="nacute" unicode="&#x144;" horiz-adv-x="1130" 
d="M150 -40v859l415 321q189 -13 291 -96q124 -101 124 -297v-697l-190 -90h-10v787q0 125 -65 180t-150 55q-94 0 -156 -61q-59 -58 -59 -174v-697l-190 -90h-10zM663 1556h10l176 -84l-221 -316h-10l-117 55z" />
    <glyph glyph-name="Ncommaaccent" unicode="&#x145;" 
d="M200 -40v1200l505 390q228 0 370 -145q135 -138 135 -355v-998l-190 -92h-10v1090q0 134 -72 217q-89 103 -233 103q-147 0 -233 -103q-72 -86 -72 -217v-1000l-190 -90h-10zM595 -450h-10l-176 84l221 316h10l117 -55z" />
    <glyph glyph-name="ncommaaccent" unicode="&#x146;" horiz-adv-x="1130" 
d="M150 -40v859l415 321q189 -13 291 -96q124 -101 124 -297v-697l-190 -90h-10v787q0 125 -65 180t-150 55q-94 0 -156 -61q-59 -58 -59 -174v-697l-190 -90h-10zM518 -450h-10l-176 84l221 316h10l117 -55z" />
    <glyph glyph-name="Ncaron" unicode="&#x147;" 
d="M200 -40v1200l505 390q228 0 370 -145q135 -138 135 -355v-998l-190 -92h-10v1090q0 134 -72 217q-89 103 -233 103q-147 0 -233 -103q-72 -86 -72 -217v-1000l-190 -90h-10zM577 1966h10l141 -228l141 228h10l103 -49l-170 -269l-173 -82h-10l-225 318z" />
    <glyph glyph-name="ncaron" unicode="&#x148;" horiz-adv-x="1130" 
d="M150 -40v859l415 321q189 -13 291 -96q124 -101 124 -297v-697l-190 -90h-10v787q0 125 -65 180t-150 55q-94 0 -156 -61q-59 -58 -59 -174v-697l-190 -90h-10zM468 1556h10l141 -228l141 228h10l103 -49l-170 -269l-173 -82h-10l-225 318z" />
    <glyph glyph-name="napostrophe" unicode="&#x149;" horiz-adv-x="1130" 
d="M150 -40v859l415 321q189 -13 291 -96q124 -101 124 -297v-697l-190 -90h-10v787q0 125 -65 180t-150 55q-94 0 -156 -61q-59 -58 -59 -174v-697l-190 -90h-10zM212 1424h10l176 -84l-221 -316h-10l-117 55z" />
    <glyph glyph-name="Eng" unicode="&#x14a;" 
d="M200 -40v1200l505 390q228 0 370 -145q135 -138 135 -355v-1172l-337 -261q-78 89 -78 91q96 1 156 61q59 60 59 174v1107q0 134 -72 217q-89 103 -233 103q-147 0 -233 -103q-72 -86 -72 -217v-1000l-190 -90h-10z" />
    <glyph glyph-name="eng" unicode="&#x14b;" horiz-adv-x="1130" 
d="M150 -40v859l415 321q189 -13 291 -96q124 -101 124 -297v-869l-337 -261q-78 89 -78 91q96 1 156 61q59 60 59 174v804q0 125 -65 180t-150 55q-94 0 -156 -61q-59 -58 -59 -174v-697l-190 -90h-10z" />
    <glyph glyph-name="Omacron" unicode="&#x14c;" 
d="M705 140q143 0 233 103q72 83 72 217v590q0 134 -72 217q-89 103 -233 103q-145 0 -233 -103q-72 -83 -72 -217v-590q0 -132 72 -217q87 -103 233 -103zM705 -40q-228 0 -370 145q-135 138 -135 355v700l505 390q228 0 370 -145q135 -138 135 -355v-700zM467 1638v10
l81 172h458v-10l-81 -172h-458z" />
    <glyph glyph-name="omacron" unicode="&#x14d;" horiz-adv-x="1130" 
d="M565 -40q-189 13 -291 96q-124 102 -124 297v466l415 321q189 -13 291 -96q124 -101 124 -297v-466zM565 118q95 0 155 61t60 174v394q0 125 -65.5 180t-149.5 55q-95 0 -155 -61t-60 -174v-394q0 -125 65 -180t150 -55zM314 1228v10l81 172h458v-10l-81 -172h-458z" />
    <glyph glyph-name="Obreve" unicode="&#x14e;" 
d="M705 140q143 0 233 103q72 83 72 217v590q0 134 -72 217q-89 103 -233 103q-145 0 -233 -103q-72 -83 -72 -217v-590q0 -132 72 -217q87 -103 233 -103zM705 -40q-228 0 -370 145q-135 138 -135 355v700l505 390q228 0 370 -145q135 -138 135 -355v-700zM402 1785
l131 117h10q84 -106 186 -106q103 0 210 101h10l49 -44l-251 -215q-189 0 -345 147z" />
    <glyph glyph-name="obreve" unicode="&#x14f;" horiz-adv-x="1130" 
d="M565 -40q-189 13 -291 96q-124 102 -124 297v466l415 321q189 -13 291 -96q124 -101 124 -297v-466zM565 118q95 0 155 61t60 174v394q0 125 -65.5 180t-149.5 55q-95 0 -155 -61t-60 -174v-394q0 -125 65 -180t150 -55zM255 1375l131 117h10q84 -106 186 -106
q103 0 210 101h10l49 -44l-251 -215q-189 0 -345 147z" />
    <glyph glyph-name="Ohungarumlaut" unicode="&#x150;" 
d="M705 140q143 0 233 103q72 83 72 217v590q0 134 -72 217q-89 103 -233 103q-145 0 -233 -103q-72 -83 -72 -217v-590q0 -132 72 -217q87 -103 233 -103zM705 -40q-228 0 -370 145q-135 138 -135 355v700l505 390q228 0 370 -145q135 -138 135 -355v-700zM910 1966h10
l176 -84l-221 -316h-10l-117 55zM637 1966h10l176 -84l-221 -316h-10l-117 55z" />
    <glyph glyph-name="ohungarumlaut" unicode="&#x151;" horiz-adv-x="1130" 
d="M565 -40q-189 13 -291 96q-124 102 -124 297v466l415 321q189 -13 291 -96q124 -101 124 -297v-466zM565 118q95 0 155 61t60 174v394q0 125 -65.5 180t-149.5 55q-95 0 -155 -61t-60 -174v-394q0 -125 65 -180t150 -55zM786 1556h10l176 -84l-221 -316h-10l-117 55z
M513 1556h10l176 -84l-221 -316h-10l-117 55z" />
    <glyph glyph-name="OE" unicode="&#x152;" horiz-adv-x="1943" 
d="M705 -40q-228 0 -370 145q-135 138 -135 355v700l505 390q179 0 306 -90l105 50h634v-10l-57 -120h-483v-728h470v-10l-57 -120h-413v-392h683v-10l-57 -120h-826v196zM705 140q143 0 233 103q72 83 72 217v590q0 134 -72 217q-89 103 -233 103t-233 -103
q-72 -84 -72 -217v-590q0 -132 72 -217q87 -103 233 -103z" />
    <glyph glyph-name="oe" unicode="&#x153;" horiz-adv-x="1760" 
d="M565 118q95 0 155 61t60 174v394q0 125 -65.5 180t-149.5 55q-95 0 -155 -61t-60 -174v-394q0 -125 65 -180t150 -55zM565 -40q-189 13 -291 96q-124 102 -124 297v466l415 321q191 -13 291 -96q52 -43 83 -102l256 198q189 -13 291 -96q124 -101 124 -297l-615 -497
q18 -50 50 -77q65 -55 148 -55q87 0 158 61q59 51 59 174l190 90h10v-162l-415 -321q-191 13 -291 96q-52 43 -82 102zM980 397l430 349q0 126 -65.5 181t-149.5 55q-97 0 -156 -61t-59 -174v-350z" />
    <glyph glyph-name="Racute" unicode="&#x154;" horiz-adv-x="1334" 
d="M755 1966h10l176 -84l-221 -316h-10l-117 55zM200 -40v1500l190 90h10v-1195q133 42 263 126l-153 219l176 84h10l126 -181q151 147 151 348q0 176 -154 316q-132 118 -408 174l229 109h10q197 -39 338 -179q171 -170 171 -419q0 -254 -262 -455l317 -454l-176 -83h-10
l-300 428q-153 -84 -328 -133v-205l-190 -90h-10z" />
    <glyph glyph-name="racute" unicode="&#x155;" horiz-adv-x="1030" 
d="M150 -40v859l415 321q189 -13 291 -96q124 -101 124 -297l-190 -90h-10v90q0 125 -65.5 180t-150.5 55q-87 0 -155 -61q-59 -53 -59 -174v-697l-190 -90h-10zM663 1556h10l176 -84l-221 -316h-10l-117 55z" />
    <glyph glyph-name="Rcommaaccent" unicode="&#x156;" horiz-adv-x="1334" 
d="M595 -450h-10l-176 84l221 316h10l117 -55zM200 -40v1500l190 90h10v-1195q133 42 263 126l-153 219l176 84h10l126 -181q151 147 151 348q0 176 -154 316q-132 118 -408 174l229 109h10q197 -39 338 -179q171 -170 171 -419q0 -254 -262 -455l317 -454l-176 -83h-10
l-300 428q-153 -84 -328 -133v-205l-190 -90h-10z" />
    <glyph glyph-name="rcommaaccent" unicode="&#x157;" horiz-adv-x="1030" 
d="M150 -40v859l415 321q189 -13 291 -96q124 -101 124 -297l-190 -90h-10v90q0 125 -65.5 180t-150.5 55q-87 0 -155 -61q-59 -53 -59 -174v-697l-190 -90h-10zM251 -450h-10l-176 84l221 316h10l117 -55z" />
    <glyph glyph-name="Rcaron" unicode="&#x158;" horiz-adv-x="1334" 
d="M529 1966h10l141 -228l141 228h10l103 -49l-170 -269l-173 -82h-10l-225 318zM200 -40v1500l190 90h10v-1195q133 42 263 126l-153 219l176 84h10l126 -181q151 147 151 348q0 176 -154 316q-132 118 -408 174l229 109h10q197 -39 338 -179q171 -170 171 -419
q0 -254 -262 -455l317 -454l-176 -83h-10l-300 428q-153 -84 -328 -133v-205l-190 -90h-10z" />
    <glyph glyph-name="rcaron" unicode="&#x159;" horiz-adv-x="1030" 
d="M150 -40v859l415 321q189 -13 291 -96q124 -101 124 -297l-190 -90h-10v90q0 125 -65.5 180t-150.5 55q-87 0 -155 -61q-59 -53 -59 -174v-697l-190 -90h-10zM468 1556h10l141 -228l141 228h10l103 -49l-170 -269l-173 -82h-10l-225 318z" />
    <glyph glyph-name="Sacute" unicode="&#x15a;" horiz-adv-x="1330" 
d="M665 -40q-233 0 -370 145q-135 143 -135 355l190 90h10v-90q0 -132 72 -217q87 -103 233 -103q143 0 233 103q72 83 72 217q0 129 -59 197q-82 94 -247 94q-185 0 -314 120q-100 93 -100 263v96l415 320q189 -13 291 -96q124 -101 124 -297l-190 -90h-10v90
q0 123 -65 180q-63 55 -150 55q-97 0 -156 -61t-59 -174q0 -109 45 -159q60 -67 169 -67q239 0 371 -114q135 -117 135 -355v-112zM796 1966h10l176 -84l-221 -316h-10l-117 55z" />
    <glyph glyph-name="sacute" unicode="&#x15b;" horiz-adv-x="1070" 
d="M535 -40q-189 13 -291 96q-124 101 -124 297l190 90h10v-90q0 -121 65 -180q62 -55 150 -55q96 0 155.5 61t59.5 173q0 113 -67 155q-58 36 -149 36q-234 0 -326 108q-46 55 -46 200l373 289q146 -3 245 -88q80 -69 99 -180l-190 -90h-10v29q0 72 -30 109q-50 62 -137 62
q-86 0 -129 -54q-31 -39 -31 -96q0 -64 54 -102q30 -21 128 -21q215 0 309 -83q107 -94 107 -345zM663 1556h10l176 -84l-221 -316h-10l-117 55z" />
    <glyph glyph-name="Scircumflex" unicode="&#x15c;" horiz-adv-x="1330" 
d="M665 -40q-233 0 -370 145q-135 143 -135 355l190 90h10v-90q0 -132 72 -217q87 -103 233 -103q143 0 233 103q72 83 72 217q0 129 -59 197q-82 94 -247 94q-185 0 -314 120q-100 93 -100 263v96l415 320q189 -13 291 -96q124 -101 124 -297l-190 -90h-10v90
q0 123 -65 180q-63 55 -150 55q-97 0 -156 -61t-59 -174q0 -109 45 -159q60 -67 169 -67q239 0 371 -114q135 -117 135 -355v-112zM806 1966l225 -318l-173 -82h-10l-141 228l-141 -228h-10l-103 49l170 269l173 82h10z" />
    <glyph glyph-name="scircumflex" unicode="&#x15d;" horiz-adv-x="1070" 
d="M535 -40q-189 13 -291 96q-124 101 -124 297l190 90h10v-90q0 -121 65 -180q62 -55 150 -55q96 0 155.5 61t59.5 173q0 113 -67 155q-58 36 -149 36q-234 0 -326 108q-46 55 -46 200l373 289q146 -3 245 -88q80 -69 99 -180l-190 -90h-10v29q0 72 -30 109q-50 62 -137 62
q-86 0 -129 -54q-31 -39 -31 -96q0 -64 54 -102q30 -21 128 -21q215 0 309 -83q107 -94 107 -345zM648 1556l225 -318l-173 -82h-10l-141 228l-141 -228h-10l-103 49l170 269l173 82h10z" />
    <glyph glyph-name="Scedilla" unicode="&#x15e;" horiz-adv-x="1330" 
d="M160 460l190 90h10v-90q0 -132 72 -217q87 -103 233 -103q143 0 233 103q72 83 72 217q0 129 -59 197q-82 94 -247 94q-185 0 -314 120q-100 93 -100 263v96l415 320q189 -13 291 -96q124 -101 124 -297l-190 -90h-10v90q0 123 -65 180q-63 55 -150 55q-97 0 -156 -61
t-59 -174q0 -109 45 -159q60 -67 169 -67q239 0 371 -114q135 -117 135 -355v-112l-434 -335l147 -174q-13 -189 -96 -291h-10l-190 90q108 70 108 182q0 66 -30 138q-233 0 -370 145q-135 143 -135 355z" />
    <glyph glyph-name="scedilla" unicode="&#x15f;" horiz-adv-x="1070" 
d="M120 353l190 90h10v-90q0 -121 65 -180q61 -55 150 -55q96 0 155.5 61t59.5 173q0 113 -67 155q-58 36 -149 36q-234 0 -326 108q-46 55 -46 200l373 289q146 -3 245 -88q80 -69 99 -180l-190 -90h-10v29q0 72 -30 109q-50 62 -137 62q-86 0 -129 -54q-31 -39 -31 -96
q0 -64 54 -102q30 -21 128 -21q215 0 309 -83q107 -94 107 -345l-344 -266l147 -174q-13 -189 -96 -291h-10l-190 90q108 70 108 182q0 67 -30 138q-189 13 -291 96q-124 101 -124 297z" />
    <glyph glyph-name="Scaron" unicode="&#x160;" horiz-adv-x="1330" 
d="M665 -40q-233 0 -370 145q-135 143 -135 355l190 90h10v-90q0 -132 72 -217q87 -103 233 -103q143 0 233 103q72 83 72 217q0 129 -59 197q-82 94 -247 94q-185 0 -314 120q-100 93 -100 263v96l415 320q189 -13 291 -96q124 -101 124 -297l-190 -90h-10v90
q0 123 -65 180q-63 55 -150 55q-97 0 -156 -61t-59 -174q0 -109 45 -159q60 -67 169 -67q239 0 371 -114q135 -117 135 -355v-112zM577 1966h10l141 -228l141 228h10l103 -49l-170 -269l-173 -82h-10l-225 318z" />
    <glyph glyph-name="scaron" unicode="&#x161;" horiz-adv-x="1070" 
d="M535 -40q-189 13 -291 96q-124 101 -124 297l190 90h10v-90q0 -121 65 -180q62 -55 150 -55q96 0 155.5 61t59.5 173q0 113 -67 155q-58 36 -149 36q-234 0 -326 108q-46 55 -46 200l373 289q146 -3 245 -88q80 -69 99 -180l-190 -90h-10v29q0 72 -30 109q-50 62 -137 62
q-86 0 -129 -54q-31 -39 -31 -96q0 -64 54 -102q30 -21 128 -21q215 0 309 -83q107 -94 107 -345zM468 1556h10l141 -228l141 228h10l103 -49l-170 -269l-173 -82h-10l-225 318z" />
    <glyph glyph-name="Tcommaaccent" unicode="&#x162;" horiz-adv-x="1066" 
d="M433 -40v1420h-428v10l57 120h999v-10l-57 -120h-371v-1330l178 -209q-13 -189 -96 -291h-10l-190 90q108 70 108 182q0 94 -58 196l-122 -58h-10z" />
    <glyph glyph-name="tcommaaccent" unicode="&#x163;" horiz-adv-x="750" 
d="M275 -40v1010h-270v10l57 120h213v360l190 90h10v-450h270v-10l-57 -120h-213v-920l178 -209q-13 -189 -96 -291h-10l-190 90q108 70 108 182q0 94 -58 196l-122 -58h-10z" />
    <glyph glyph-name="Tcaron" unicode="&#x164;" horiz-adv-x="1066" 
d="M433 -40v1420h-428v10l57 120h999v-10l-57 -120h-371v-1330l-190 -90h-10zM401 1966h10l141 -228l141 228h10l103 -49l-170 -269l-173 -82h-10l-225 318z" />
    <glyph glyph-name="tcaron" unicode="&#x165;" horiz-adv-x="769" 
d="M275 -40v1010h-270v10l57 120h213v360l190 90h10v-450h270v-10l-57 -120h-213v-920l-190 -90h-10zM663 1556h10l176 -84l-221 -316h-10l-117 55z" />
    <glyph glyph-name="Tbar" unicode="&#x166;" horiz-adv-x="1066" 
d="M433 -40v562h-209v10l57 120h152v728h-428v10l57 120h999v-10l-57 -120h-371v-728h208v-10l-57 -120h-151v-472l-190 -90h-10z" />
    <glyph glyph-name="tbar" unicode="&#x167;" horiz-adv-x="750" 
d="M275 -40v562h-209v10l57 120h152v318h-270v10l57 120h213v360l190 90h10v-450h270v-10l-57 -120h-213v-318h208v-10l-57 -120h-151v-472l-190 -90h-10z" />
    <glyph glyph-name="Utilde" unicode="&#x168;" 
d="M705 -40q-228 0 -370 145q-135 138 -135 355v998l190 92h10v-1090q0 -134 72 -217q89 -103 233 -103q147 0 233 103q72 86 72 217v1000l190 90h10v-1200zM510 1639l-85 49l212 208q64 0 95 -39q47 -59 99 -59q61 0 103 98h10l85 -49l-212 -208q-64 0 -95 39
q-47 59 -99 59q-61 0 -103 -98h-10z" />
    <glyph glyph-name="utilde" unicode="&#x169;" horiz-adv-x="1130" 
d="M565 -40q-189 13 -291 96q-124 101 -124 297v697l190 90h10v-787q0 -125 65 -180t150 -55q94 0 156 61q59 58 59 174v697l190 90h10v-859zM383 1228l-85 49l212 208q64 0 95 -39q47 -59 99 -59q61 0 103 98h10l85 -49l-212 -208q-64 0 -95 39q-47 59 -99 59
q-61 0 -103 -98h-10z" />
    <glyph glyph-name="Umacron" unicode="&#x16a;" 
d="M705 -40q-228 0 -370 145q-135 138 -135 355v998l190 92h10v-1090q0 -134 72 -217q89 -103 233 -103q147 0 233 103q72 86 72 217v1000l190 90h10v-1200zM467 1638v10l81 172h458v-10l-81 -172h-458z" />
    <glyph glyph-name="umacron" unicode="&#x16b;" horiz-adv-x="1130" 
d="M565 -40q-189 13 -291 96q-124 101 -124 297v697l190 90h10v-787q0 -125 65 -180t150 -55q94 0 156 61q59 58 59 174v697l190 90h10v-859zM314 1228v10l81 172h458v-10l-81 -172h-458z" />
    <glyph glyph-name="Ubreve" unicode="&#x16c;" 
d="M705 -40q-228 0 -370 145q-135 138 -135 355v998l190 92h10v-1090q0 -134 72 -217q89 -103 233 -103q147 0 233 103q72 86 72 217v1000l190 90h10v-1200zM402 1785l131 117h10q84 -106 186 -106q103 0 210 101h10l49 -44l-251 -215q-189 0 -345 147z" />
    <glyph glyph-name="ubreve" unicode="&#x16d;" horiz-adv-x="1130" 
d="M565 -40q-189 13 -291 96q-124 101 -124 297v697l190 90h10v-787q0 -125 65 -180t150 -55q94 0 156 61q59 58 59 174v697l190 90h10v-859zM255 1375l131 117h10q84 -106 186 -106q103 0 210 101h10l49 -44l-251 -215q-189 0 -345 147z" />
    <glyph glyph-name="Uring" unicode="&#x16e;" 
d="M705 -40q-228 0 -370 145q-135 138 -135 355v998l190 92h10v-1090q0 -134 72 -217q89 -103 233 -103q147 0 233 103q72 86 72 217v1000l190 90h10v-1200zM705 1966q86 -2 139 -46q58 -48 58 -143v-24l-186 -164q-94 7 -139 46q-58 50 -58 142v25zM712 1862q-34 0 -54 -21
t-20 -64q0 -46 21 -65q22 -20 55 -20q28 0 50 22q20 19 20 63q0 45 -22 66q-20 19 -50 19z" />
    <glyph glyph-name="uring" unicode="&#x16f;" horiz-adv-x="1130" 
d="M565 -40q-189 13 -291 96q-124 101 -124 297v697l190 90h10v-787q0 -125 65 -180t150 -55q94 0 156 61q59 58 59 174v697l190 90h10v-859zM561 1556q86 -2 139 -46q58 -48 58 -143v-24l-186 -164q-94 7 -139 46q-58 50 -58 142v25zM568 1452q-34 0 -54 -21t-20 -64
q0 -46 21 -65q22 -20 55 -20q28 0 50 22q20 19 20 63q0 45 -22 66q-20 19 -50 19z" />
    <glyph glyph-name="Uhungarumlaut" unicode="&#x170;" 
d="M705 -40q-228 0 -370 145q-135 138 -135 355v998l190 92h10v-1090q0 -134 72 -217q89 -103 233 -103q147 0 233 103q72 86 72 217v1000l190 90h10v-1200zM910 1966h10l176 -84l-221 -316h-10l-117 55zM637 1966h10l176 -84l-221 -316h-10l-117 55z" />
    <glyph glyph-name="uhungarumlaut" unicode="&#x171;" horiz-adv-x="1130" 
d="M565 -40q-189 13 -291 96q-124 101 -124 297v697l190 90h10v-787q0 -125 65 -180t150 -55q94 0 156 61q59 58 59 174v697l190 90h10v-859zM786 1556h10l176 -84l-221 -316h-10l-117 55zM513 1556h10l176 -84l-221 -316h-10l-117 55z" />
    <glyph glyph-name="Uogonek" unicode="&#x172;" 
d="M811 42q-72 -114 -72 -220q0 -112 108 -182l-190 -90h-10q-83 102 -96 291l103 121q-193 15 -319 143q-135 137 -135 355v998l190 92h10v-1090q0 -134 72 -217q89 -103 233 -103q147 0 233 103q72 86 72 217v1000l190 90h10v-1200z" />
    <glyph glyph-name="uogonek" unicode="&#x173;" horiz-adv-x="1130" 
d="M671 42q-72 -114 -72 -220q0 -112 108 -182l-190 -90h-10q-83 102 -96 291l105 124q-154 19 -242 91q-124 101 -124 297v697l190 90h10v-787q0 -125 65 -180t150 -55q94 0 156 61q59 58 59 174v697l190 90h10v-859z" />
    <glyph glyph-name="Wcircumflex" unicode="&#x174;" horiz-adv-x="2220" 
d="M705 -40q-228 0 -370 145q-135 138 -135 355v998l190 92h10v-1090q0 -134 72 -217q89 -103 233 -103q147 0 233 103q72 86 72 217v998v2l190 90h10v-1090q0 -134 72 -217q89 -103 233 -103q147 0 233 103q72 86 72 217v1000l190 90h10v-1200l-505 -390q-230 0 -370 145
q-55 57 -88 127zM1200 1966l225 -318l-173 -82h-10l-141 228l-141 -228h-10l-103 49l170 269l173 82h10z" />
    <glyph glyph-name="wcircumflex" unicode="&#x175;" horiz-adv-x="1760" 
d="M565 -40q-189 13 -291 96q-124 101 -124 297v697l190 90h10v-787q0 -125 65 -180t150 -55q94 0 156 61q59 58 59 174v697l190 90h10v-787q0 -125 65 -180t150 -55q94 0 156 61q59 58 59 174v697l190 90h10v-859l-415 -321q-191 13 -291 96q-52 43 -83 102zM966 1556
l225 -318l-173 -82h-10l-141 228l-141 -228h-10l-103 49l170 269l173 82h10z" />
    <glyph glyph-name="Ycircumflex" unicode="&#x176;" horiz-adv-x="1278" 
d="M516 -40v562h-287v10l57 120h180l-366 815l175 83h10l379 -860l399 860h10l105 -50l-406 -848h277v-10l-57 -120h-276v-472l-190 -90h-10zM748 1966l225 -318l-173 -82h-10l-141 228l-141 -228h-10l-103 49l170 269l173 82h10z" />
    <glyph glyph-name="ycircumflex" unicode="&#x177;" horiz-adv-x="1180" 
d="M565 -40q-189 13 -291 96q-124 101 -124 297v697l190 90h10v-787q0 -125 65 -180t149 -55q86 0 157 61q59 51 59 174v697l190 90h10v-1269l-415 -321q-209 14 -289 94l139 119q60 -55 148 -55q90 0 158 61q59 53 59 174v184zM648 1556l225 -318l-173 -82h-10l-141 228
l-141 -228h-10l-103 49l170 269l173 82h10z" />
    <glyph glyph-name="Ydieresis" unicode="&#x178;" horiz-adv-x="1278" 
d="M516 -40v562h-287v10l57 120h180l-366 815l175 83h10l379 -860l399 860h10l105 -50l-406 -848h277v-10l-57 -120h-276v-472l-190 -90h-10zM900 1966h10v-228l-190 -90h-10v228zM627 1966h10v-228l-190 -90h-10v228z" />
    <glyph glyph-name="Zacute" unicode="&#x179;" horiz-adv-x="1267" 
d="M150 0v10l251 512h-251v10l57 120h258l357 728h-659v10l57 120h877v-10l-419 -848h419v-10l-57 -120h-426l-194 -392h697v-10l-57 -120h-910zM711 1966h10l176 -84l-221 -316h-10l-117 55z" />
    <glyph glyph-name="zacute" unicode="&#x17a;" horiz-adv-x="1079" 
d="M120 0v10l213 380h-213v10l57 120h230l252 450h-519v10l57 120h743v-10l-319 -570h319v-10l-57 -120h-335l-146 -260h557v-10l-57 -120h-782zM622 1556h10l176 -84l-221 -316h-10l-117 55z" />
    <glyph glyph-name="Zdotaccent" unicode="&#x17b;" horiz-adv-x="1267" 
d="M150 0v10l251 512h-251v10l57 120h258l357 728h-659v10l57 120h877v-10l-419 -848h419v-10l-57 -120h-426l-194 -392h697v-10l-57 -120h-910zM750 1966v-228l-190 -90h-10v228l190 90h10z" />
    <glyph glyph-name="zdotaccent" unicode="&#x17c;" horiz-adv-x="1079" 
d="M120 0v10l213 380h-213v10l57 120h230l252 450h-519v10l57 120h743v-10l-319 -570h319v-10l-57 -120h-335l-146 -260h557v-10l-57 -120h-782zM668 1550v-228l-190 -90h-10v228l190 90h10z" />
    <glyph glyph-name="Zcaron" unicode="&#x17d;" horiz-adv-x="1267" 
d="M150 0v10l251 512h-251v10l57 120h258l357 728h-659v10l57 120h877v-10l-419 -848h419v-10l-57 -120h-426l-194 -392h697v-10l-57 -120h-910zM524 1966h10l141 -228l141 228h10l103 -49l-170 -269l-173 -82h-10l-225 318z" />
    <glyph glyph-name="zcaron" unicode="&#x17e;" horiz-adv-x="1079" 
d="M120 0v10l213 380h-213v10l57 120h230l252 450h-519v10l57 120h743v-10l-319 -570h319v-10l-57 -120h-335l-146 -260h557v-10l-57 -120h-782zM429 1556h10l141 -228l141 228h10l103 -49l-170 -269l-173 -82h-10l-225 318z" />
    <glyph glyph-name="longs" unicode="&#x17f;" horiz-adv-x="811" 
d="M455 50l-190 -90h-10v796h-250v10l57 120h193v343l415 321q192 -14 291 -96l-141 -117q-68 55 -150 55q-96 0 -156 -61q-59 -60 -59 -174v-1107z" />
    <glyph glyph-name="uni0191" unicode="&#x191;" horiz-adv-x="1060" 
d="M63 -383q-78 89 -78 91q96 1 156 61q59 60 59 174v579h-150v10l57 120h93v808l106 50h634v-10l-57 -120h-483v-728h470v-10l-57 -120h-413v-644z" />
    <glyph glyph-name="florin" unicode="&#x192;" horiz-adv-x="911" 
d="M63 -383q-78 89 -78 91q96 1 156 61q59 60 59 174v813h-150v10l57 120h93v343l415 321q192 -14 291 -96l-141 -117q-68 55 -150 55q-96 0 -156 -61q-59 -60 -59 -174v-271h360v-10l-57 -120h-303v-878z" />
    <glyph glyph-name="uni01E4" unicode="&#x1e4;" 
d="M705 -40q-228 0 -370 145q-135 138 -135 355v700l505 390q228 0 370 -145q135 -138 135 -355l-190 -90h-10v90q0 134 -72 217q-89 103 -233 103t-233 -103q-72 -84 -72 -217v-590q0 -132 72 -217q87 -103 233 -103q147 0 233 103q10 12 19 25h-214v10l57 120h206
q4 30 4 62v62h-363v10l57 120h506v-254h150v-10l-57 -120h-199z" />
    <glyph glyph-name="uni01E5" unicode="&#x1e5;" horiz-adv-x="1180" 
d="M565 -40q-189 13 -291 96q-124 102 -124 297v466l415 321q188 -13 291 -96q124 -100 124 -297v-141h150v-10l-57 -120h-93v-605l-415 -321q-209 14 -289 94l139 119q59 -55 149 -55q93 0 157 61q59 56 59 174v183zM562.5 118q81.5 0 158.5 61q59 49 59 174v123h-258v10
l57 120h201v141q0 125 -65.5 180t-149.5 55q-97 0 -156 -61t-59 -174v-394q0 -126 65 -180q66 -55 147.5 -55z" />
    <glyph glyph-name="AEacute" unicode="&#x1fc;" horiz-adv-x="1943" 
d="M200 -40v562h-150v10l57 120h93v508l505 390q179 0 306 -90l105 50h634v-10l-57 -120h-483v-728h470v-10l-57 -120h-413v-392h683v-10l-57 -120h-826v522h-610v-472l-190 -90h-10zM400 652h610v398q0 134 -72 217q-89 103 -233 103q-147 0 -233 -103q-72 -86 -72 -217
v-398zM1107 1966h10l176 -84l-221 -316h-10l-117 55z" />
    <glyph glyph-name="aeacute" unicode="&#x1fd;" horiz-adv-x="1711" 
d="M515 -40q-186 13 -291 96q-124 98 -124 297v75l415 321q126 -9 215 -50v48q0 121 -65 180q-62 55 -150 55q-98 0 -156 -61l-55 56l211 163q189 -13 291 -96q53 -43 83 -103l257 199q189 -13 291 -96q124 -101 124 -297l-615 -497q18 -50 50 -77q65 -55 148 -55
q87 0 158 61q59 51 59 174l190 90h10v-162l-415 -321q-159 11 -256 71l-150 -71h-10v167zM515 118q105 0 156 61q59 71 59 177q0 122 -65 180q-62 55 -150 55q-105 0 -156 -61q-59 -71 -59 -174q0 -126 65 -183q63 -55 150 -55zM931 397l430 349q0 126 -65.5 181t-149.5 55
q-97 0 -156 -61t-59 -174v-350zM989 1556h10l176 -84l-221 -316h-10l-117 55z" />
    <glyph glyph-name="Oslashacute" unicode="&#x1fe;" 
d="M404 -40h-10l-104 50l44 96q-134 137 -134 354v700l505 390q155 0 270 -67l31 67h10l104 -51l-44 -95q134 -138 134 -354v-700l-505 -390q-155 0 -270 67zM705 140q143 0 233 103q72 82 72 217v590q0 85 -29 150l-465 -999q77 -61 189 -61zM430 310l464 999
q-78 61 -189 61q-144 0 -233 -103q-72 -84 -72 -217v-590q0 -85 30 -150zM796 1966h10l176 -84l-221 -316h-10l-117 55z" />
    <glyph glyph-name="oslashacute" unicode="&#x1ff;" horiz-adv-x="1130" 
d="M359 -40h-10l-104 50l24 51q-119 101 -119 292v466l415 321q108 -7 187 -38l18 38h10l105 -51l-23 -50q118 -101 118 -292v-466l-415 -321q-108 7 -188 38zM565 118q95 0 155 61t60 174v394q0 52 -11 92l-322 -689q53 -32 118 -32zM361 261l321 689q-53 32 -117 32
q-95 0 -155 -61t-60 -174v-394q0 -52 11 -92zM663 1556h10l176 -84l-221 -316h-10l-117 55z" />
    <glyph glyph-name="Scommaaccent" unicode="&#x218;" horiz-adv-x="1330" 
d="M665 -40q-233 0 -370 145q-135 143 -135 355l190 90h10v-90q0 -132 72 -217q87 -103 233 -103q143 0 233 103q72 83 72 217q0 129 -59 197q-82 94 -247 94q-185 0 -314 120q-100 93 -100 263v96l415 320q189 -13 291 -96q124 -101 124 -297l-190 -90h-10v90
q0 123 -65 180q-63 55 -150 55q-97 0 -156 -61t-59 -174q0 -109 45 -159q60 -67 169 -67q239 0 371 -114q135 -117 135 -355v-112zM595 -450h-10l-176 84l221 316h10l117 -55z" />
    <glyph glyph-name="scommaaccent" unicode="&#x219;" horiz-adv-x="1070" 
d="M535 -40q-189 13 -291 96q-124 101 -124 297l190 90h10v-90q0 -121 65 -180q62 -55 150 -55q96 0 155.5 61t59.5 173q0 113 -67 155q-58 36 -149 36q-234 0 -326 108q-46 55 -46 200l373 289q146 -3 245 -88q80 -69 99 -180l-190 -90h-10v29q0 72 -30 109q-50 62 -137 62
q-86 0 -129 -54q-31 -39 -31 -96q0 -64 54 -102q30 -21 128 -21q215 0 309 -83q107 -94 107 -345zM445 -450h-10l-176 84l221 316h10l117 -55z" />
    <glyph glyph-name="uni021A" unicode="&#x21a;" horiz-adv-x="1066" 
d="M433 -40v1420h-428v10l57 120h999v-10l-57 -120h-371v-1330l-190 -90h-10zM496 -450h-10l-176 84l221 316h10l117 -55z" />
    <glyph glyph-name="uni021B" unicode="&#x21b;" horiz-adv-x="750" 
d="M275 -40v1010h-270v10l57 120h213v360l190 90h10v-450h270v-10l-57 -120h-213v-920l-190 -90h-10zM315 -450h-10l-176 84l221 316h10l117 -55z" />
    <glyph glyph-name="uni0237" unicode="&#x237;" horiz-adv-x="600" 
d="M63 -383q-78 89 -78 91q96 1 156 61q59 60 59 174v1107l190 90h10v-1262z" />
    <glyph glyph-name="Delta" unicode="&#x394;" horiz-adv-x="1191" 
d="M5 0l488 1468l173 82h10l510 -1550h-1181zM182 130h751l-372 1146z" />
    <glyph glyph-name="Pi" unicode="&#x3a0;" horiz-adv-x="1390" 
d="M210 -40h-10v1500l106 50h884v-1460l-190 -90h-10v1420h-590v-1330z" />
    <glyph glyph-name="Sigma" unicode="&#x3a3;" horiz-adv-x="1203" 
d="M100 0l484 776l-483 684l106 50h755v-10l-57 -120h-525l425 -606l-414 -644h662v-10l-57 -120h-896z" />
    <glyph glyph-name="Omega" unicode="&#x3a9;" 
d="M150 0v10l57 120h325q-156 85 -233 190q-99 132 -99 293v547l505 390q228 0 370 -145q135 -138 135 -355v-547l-314 -373h364v-10l-57 -120h-401v182q112 80 162 192q46 103 46 239v437q0 134 -72 217q-89 103 -233 103t-233 -103q-72 -84 -72 -217v-437q0 -136 46 -239
q50 -112 162 -192v-182h-458z" />
    <glyph glyph-name="mu" unicode="&#x3bc;" horiz-adv-x="1130" 
d="M150 -450v1500l190 90h10v-787q0 -121 65 -180q62 -55 149 -55q89 0 157 61q59 53 59 174v697l190 90h10v-860l-415 -320q-127 9 -215 49v-369l-190 -90h-10z" />
    <glyph glyph-name="pi" unicode="&#x3c0;" horiz-adv-x="1173" 
d="M210 -40h-10v1090l106 50h667v-1050l-190 -90h-10v1010h-373v-920z" />
    <glyph glyph-name="uni1E02" unicode="&#x1e02;" horiz-adv-x="1302" 
d="M735 1966v-228l-190 -90h-10v228l190 90h10zM200 -40v1500l190 90h10v-1450q246 44 404 163q192 145 192 312q0 147 -184 247q-99 54 -185 78q218 123 218 281q0 101 -147 173q-134 67 -289 87l229 109h10q150 -37 239 -112q117 -98 117 -231q0 -117 -134 -222
q90 -25 168 -88q144 -116 144 -279q0 -242 -249 -411q-302 -203 -723 -247h-10z" />
    <glyph glyph-name="uni1E03" unicode="&#x1e03;" horiz-adv-x="1180" 
d="M615 118q95 0 155 61t60 174v394q0 121 -65 180q-61 55 -150 55q-97 0 -156 -61t-59 -174v-394q0 -125 63 -180t152 -55zM615 -40q-191 13 -291 96q-124 103 -124 297v1107l190 90h10v-577l215 167q189 -13 291 -96q124 -101 124 -297v-466zM818 1550v-228l-190 -90h-10
v228l190 90h10z" />
    <glyph glyph-name="uni1E0A" unicode="&#x1e0a;" horiz-adv-x="1338" 
d="M740 1966v-228l-190 -90h-10v228l190 90h10zM200 -40v1500l190 90h10v-1450q238 89 397 226q229 196 229 490q0 256 -187 429q-134 124 -428 196l229 109h10q234 -62 373 -209q195 -204 195 -492q0 -386 -348 -629q-282 -198 -660 -260h-10z" />
    <glyph glyph-name="uni1E0B" unicode="&#x1e0b;" horiz-adv-x="1180" 
d="M565 118q96 0 155.5 61t59.5 174v394q0 117 -65 180q-57 55 -150 55q-95 0 -155 -61t-60 -174v-394q0 -125 65 -180t150 -55zM565 -40q-189 13 -291 96q-124 102 -124 297v466l415 321q127 -9 215 -49v369l190 90h10v-1269zM575 1550v-228l-190 -90h-10v228l190 90h10z
" />
    <glyph glyph-name="uni1E1E" unicode="&#x1e1e;" horiz-adv-x="1060" 
d="M200 -40v562h-150v10l57 120h93v808l106 50h634v-10l-57 -120h-483v-728h470v-10l-57 -120h-413v-472l-190 -90h-10zM693 1966v-228l-190 -90h-10v228l190 90h10z" />
    <glyph glyph-name="uni1E1F" unicode="&#x1e1f;" horiz-adv-x="911" 
d="M200 -40v796h-150v10l57 120h93v343l415 321q192 -14 291 -96l-141 -117q-68 55 -150 55q-96 0 -156 -61q-59 -60 -59 -174v-271h360v-10l-57 -120h-303v-706l-190 -90h-10zM696 1966v-228l-190 -90h-10v228l190 90h10z" />
    <glyph glyph-name="uni1E40" unicode="&#x1e40;" horiz-adv-x="2220" 
d="M200 -40v1200l505 390q230 0 370 -145q55 -57 88 -127l352 272q228 0 370 -145q135 -138 135 -355v-998l-190 -92h-10v1090q0 134 -72 217q-89 103 -233 103q-147 0 -233 -103q-72 -86 -72 -217v-998v-2l-190 -90h-10v1090q0 134 -72 217q-89 103 -233 103
q-147 0 -233 -103q-72 -86 -72 -217v-1000l-190 -90h-10zM1246 1966v-228l-190 -90h-10v228l190 90h10z" />
    <glyph glyph-name="uni1E41" unicode="&#x1e41;" horiz-adv-x="1760" 
d="M150 -40v859l415 321q191 -13 291 -96q52 -43 83 -102l256 198q189 -13 291 -96q124 -101 124 -297v-697l-190 -90h-10v787q0 125 -65 180t-150 55q-94 0 -156 -61q-59 -58 -59 -174v-697l-190 -90h-10v787q0 125 -65 180t-150 55q-94 0 -156 -61q-59 -58 -59 -174v-697
l-190 -90h-10zM1024 1550v-228l-190 -90h-10v228l190 90h10z" />
    <glyph glyph-name="uni1E56" unicode="&#x1e56;" horiz-adv-x="1279" 
d="M744 1966v-228l-190 -90h-10v228l190 90h10zM200 -40v1500l190 90h10v-1195q193 59 372 201q201 159 201 395q0 184 -154 316q-140 120 -408 174l229 109h10q197 -39 338 -179q171 -169 171 -419q0 -283 -322 -498q-198 -132 -437 -199v-205l-190 -90h-10z" />
    <glyph glyph-name="uni1E57" unicode="&#x1e57;" horiz-adv-x="1180" 
d="M615 118q84 0 156 61q59 52 59 174v394q0 125 -65.5 180t-149.5 55q-96 0 -155.5 -61t-59.5 -174v-394q0 -125 65.5 -180t149.5 -55zM615 -40q-127 9 -215 49v-369l-190 -90h-10v1269l415 321q189 -13 291 -96q124 -102 124 -297v-466zM656 1550v-228l-190 -90h-10v228
l190 90h10z" />
    <glyph glyph-name="uni1E60" unicode="&#x1e60;" horiz-adv-x="1330" 
d="M665 -40q-233 0 -370 145q-135 143 -135 355l190 90h10v-90q0 -132 72 -217q87 -103 233 -103q143 0 233 103q72 83 72 217q0 129 -59 197q-82 94 -247 94q-185 0 -314 120q-100 93 -100 263v96l415 320q189 -13 291 -96q124 -101 124 -297l-190 -90h-10v90
q0 123 -65 180q-63 55 -150 55q-97 0 -156 -61t-59 -174q0 -109 45 -159q60 -67 169 -67q239 0 371 -114q135 -117 135 -355v-112zM800 1966v-228l-190 -90h-10v228l190 90h10z" />
    <glyph glyph-name="uni1E61" unicode="&#x1e61;" horiz-adv-x="1070" 
d="M535 -40q-189 13 -291 96q-124 101 -124 297l190 90h10v-90q0 -121 65 -180q62 -55 150 -55q96 0 155.5 61t59.5 173q0 113 -67 155q-58 36 -149 36q-234 0 -326 108q-46 55 -46 200l373 289q146 -3 245 -88q80 -69 99 -180l-190 -90h-10v29q0 72 -30 109q-50 62 -137 62
q-86 0 -129 -54q-31 -39 -31 -96q0 -64 54 -102q30 -21 128 -21q215 0 309 -83q107 -94 107 -345zM656 1550v-228l-190 -90h-10v228l190 90h10z" />
    <glyph glyph-name="uni1E6A" unicode="&#x1e6a;" horiz-adv-x="1066" 
d="M433 -40v1420h-428v10l57 120h999v-10l-57 -120h-371v-1330l-190 -90h-10zM640 1966v-228l-190 -90h-10v228l190 90h10z" />
    <glyph glyph-name="uni1E6B" unicode="&#x1e6b;" horiz-adv-x="750" 
d="M275 -40v1010h-270v10l57 120h213v360l190 90h10v-450h270v-10l-57 -120h-213v-920l-190 -90h-10zM475 1966v-228l-190 -90h-10v228l190 90h10z" />
    <glyph glyph-name="Wgrave" unicode="&#x1e80;" horiz-adv-x="2220" 
d="M705 -40q-228 0 -370 145q-135 138 -135 355v998l190 92h10v-1090q0 -134 72 -217q89 -103 233 -103q147 0 233 103q72 86 72 217v998v2l190 90h10v-1090q0 -134 72 -217q89 -103 233 -103q147 0 233 103q72 86 72 217v1000l190 90h10v-1200l-505 -390q-230 0 -370 145
q-55 57 -88 127zM1047 1966h10l162 -345l-117 -55h-10l-221 316z" />
    <glyph glyph-name="wgrave" unicode="&#x1e81;" horiz-adv-x="1760" 
d="M565 -40q-189 13 -291 96q-124 101 -124 297v697l190 90h10v-787q0 -125 65 -180t150 -55q94 0 156 61q59 58 59 174v697l190 90h10v-787q0 -125 65 -180t150 -55q94 0 156 61q59 58 59 174v697l190 90h10v-859l-415 -321q-191 13 -291 96q-52 43 -83 102zM821 1556h10
l162 -345l-117 -55h-10l-221 316z" />
    <glyph glyph-name="Wacute" unicode="&#x1e82;" horiz-adv-x="2220" 
d="M705 -40q-228 0 -370 145q-135 138 -135 355v998l190 92h10v-1090q0 -134 72 -217q89 -103 233 -103q147 0 233 103q72 86 72 217v998v2l190 90h10v-1090q0 -134 72 -217q89 -103 233 -103q147 0 233 103q72 86 72 217v1000l190 90h10v-1200l-505 -390q-230 0 -370 145
q-55 57 -88 127zM1159 1966h10l176 -84l-221 -316h-10l-117 55z" />
    <glyph glyph-name="wacute" unicode="&#x1e83;" horiz-adv-x="1760" 
d="M565 -40q-189 13 -291 96q-124 101 -124 297v697l190 90h10v-787q0 -125 65 -180t150 -55q94 0 156 61q59 58 59 174v697l190 90h10v-787q0 -125 65 -180t150 -55q94 0 156 61q59 58 59 174v697l190 90h10v-859l-415 -321q-191 13 -291 96q-52 43 -83 102zM925 1556h10
l176 -84l-221 -316h-10l-117 55z" />
    <glyph glyph-name="Wdieresis" unicode="&#x1e84;" horiz-adv-x="2220" 
d="M705 -40q-228 0 -370 145q-135 138 -135 355v998l190 92h10v-1090q0 -134 72 -217q89 -103 233 -103q147 0 233 103q72 86 72 217v998v2l190 90h10v-1090q0 -134 72 -217q89 -103 233 -103q147 0 233 103q72 86 72 217v1000l190 90h10v-1200l-505 -390q-230 0 -370 145
q-55 57 -88 127zM1326 1966h10v-228l-190 -90h-10v228zM1053 1966h10v-228l-190 -90h-10v228z" />
    <glyph glyph-name="wdieresis" unicode="&#x1e85;" horiz-adv-x="1760" 
d="M565 -40q-189 13 -291 96q-124 101 -124 297v697l190 90h10v-787q0 -125 65 -180t150 -55q94 0 156 61q59 58 59 174v697l190 90h10v-787q0 -125 65 -180t150 -55q94 0 156 61q59 58 59 174v697l190 90h10v-859l-415 -321q-191 13 -291 96q-52 43 -83 102zM1098 1550h10
v-228l-190 -90h-10v228zM825 1550h10v-228l-190 -90h-10v228z" />
    <glyph glyph-name="Ygrave" unicode="&#x1ef2;" horiz-adv-x="1278" 
d="M516 -40v562h-287v10l57 120h180l-366 815l175 83h10l379 -860l399 860h10l105 -50l-406 -848h277v-10l-57 -120h-276v-472l-190 -90h-10zM596 1966h10l162 -345l-117 -55h-10l-221 316z" />
    <glyph glyph-name="ygrave" unicode="&#x1ef3;" horiz-adv-x="1180" 
d="M565 -40q-189 13 -291 96q-124 101 -124 297v697l190 90h10v-787q0 -125 65 -180t149 -55q86 0 157 61q59 51 59 174v697l190 90h10v-1269l-415 -321q-209 14 -289 94l139 119q60 -55 148 -55q90 0 158 61q59 53 59 174v184zM453 1556h10l162 -345l-117 -55h-10l-221 316
z" />
    <glyph glyph-name="uni2010" unicode="&#x2010;" horiz-adv-x="1214" 
d="M225 664v10l81 172h683v-10l-81 -172h-683z" />
    <glyph glyph-name="uni2011" unicode="&#x2011;" horiz-adv-x="1214" 
d="M225 664v10l81 172h683v-10l-81 -172h-683z" />
    <glyph glyph-name="figuredash" unicode="&#x2012;" horiz-adv-x="1214" 
d="M150 664v10l81 172h833v-10l-81 -172h-833z" />
    <glyph glyph-name="endash" unicode="&#x2013;" horiz-adv-x="1214" 
d="M150 664v10l81 172h833v-10l-81 -172h-833z" />
    <glyph glyph-name="emdash" unicode="&#x2014;" horiz-adv-x="1214" 
d="M25 664v10l81 172h1083v-10l-81 -172h-1083z" />
    <glyph glyph-name="afii00208" unicode="&#x2015;" horiz-adv-x="1214" 
d="M25 664v10l81 172h1083v-10l-81 -172h-1083z" />
    <glyph glyph-name="underscoredbl" unicode="&#x2017;" horiz-adv-x="1214" 
d="M150 -182v10l81 172h833v-10l-81 -172h-833zM150 -410v10l81 172h833v-10l-81 -172h-833z" />
    <glyph glyph-name="quoteleft" unicode="&#x2018;" horiz-adv-x="596" 
d="M382 1550l43 -50q-87 -115 -87 -242q0 -112 108 -182l-190 -90h-10q-83 102 -96 291z" />
    <glyph glyph-name="quoteright" unicode="&#x2019;" horiz-adv-x="596" 
d="M340 1550h10q83 -102 96 -291l-232 -273l-43 50q87 115 87 242q0 112 -108 182z" />
    <glyph glyph-name="quotesinglbase" unicode="&#x201a;" horiz-adv-x="596" 
d="M340 278h10q83 -102 96 -291l-232 -273l-43 50q87 115 87 242q0 112 -108 182z" />
    <glyph glyph-name="quotereversed" unicode="&#x201b;" horiz-adv-x="596" 
d="M246 1550h10l190 -90q-108 -70 -108 -182q0 -127 87 -242l-43 -50l-232 273q13 189 96 291z" />
    <glyph glyph-name="quotedblleft" unicode="&#x201c;" horiz-adv-x="911" 
d="M382 1550l43 -50q-87 -115 -87 -242q0 -112 108 -182l-190 -90h-10q-83 102 -96 291zM697 1550l43 -50q-87 -115 -87 -242q0 -112 108 -182l-190 -90h-10q-83 102 -96 291z" />
    <glyph glyph-name="quotedblright" unicode="&#x201d;" horiz-adv-x="911" 
d="M655 1550h10q83 -102 96 -291l-232 -273l-43 50q87 115 87 242q0 112 -108 182zM340 1550h10q83 -102 96 -291l-232 -273l-43 50q87 115 87 242q0 112 -108 182z" />
    <glyph glyph-name="quotedblbase" unicode="&#x201e;" horiz-adv-x="911" 
d="M655 278h10q83 -102 96 -291l-232 -273l-43 50q87 115 87 242q0 112 -108 182zM340 278h10q83 -102 96 -291l-232 -273l-43 50q87 115 87 242q0 112 -108 182z" />
    <glyph glyph-name="uni201F" unicode="&#x201f;" horiz-adv-x="911" 
d="M246 1550h10l190 -90q-108 -70 -108 -182q0 -127 87 -242l-43 -50l-232 273q13 189 96 291zM561 1550h10l190 -90q-108 -70 -108 -182q0 -127 87 -242l-43 -50l-232 273q13 189 96 291z" />
    <glyph glyph-name="dagger" unicode="&#x2020;" horiz-adv-x="1214" 
d="M517 -40h-10v1036h-357v10l81 172h276v282l190 90h10v-372h357v-10l-81 -172h-276v-946z" />
    <glyph glyph-name="daggerdbl" unicode="&#x2021;" horiz-adv-x="1214" 
d="M517 -40h-10v372h-357v10l81 172h276v482h-357v10l81 172h276v282l190 90h10v-372h357v-10l-81 -172h-276v-482h357v-10l-81 -172h-276v-282z" />
    <glyph glyph-name="bullet" unicode="&#x2022;" horiz-adv-x="1126" 
d="M565 1154q174 -4 289 -116q120 -116 122 -370l-415 -320q-175 4 -289 116q-120 116 -122 370z" />
    <glyph glyph-name="uni2023" unicode="&#x2023;" horiz-adv-x="928" 
d="M200 362v779l628 -375z" />
    <glyph glyph-name="onedotenleader" unicode="&#x2024;" horiz-adv-x="600" 
d="M200 -40v228l190 90h10v-228l-190 -90h-10z" />
    <glyph glyph-name="twodotenleader" unicode="&#x2025;" horiz-adv-x="938" 
d="M538 -40v228l190 90h10v-228l-190 -90h-10zM200 -40v228l190 90h10v-228l-190 -90h-10z" />
    <glyph glyph-name="ellipsis" unicode="&#x2026;" horiz-adv-x="1276" 
d="M876 -40v228l190 90h10v-228l-190 -90h-10zM538 -40v228l190 90h10v-228l-190 -90h-10zM200 -40v228l190 90h10v-228l-190 -90h-10z" />
    <glyph glyph-name="uni2027" unicode="&#x2027;" horiz-adv-x="600" 
d="M200 594v228l190 90h10v-228l-190 -90h-10z" />
    <glyph glyph-name="perthousand" unicode="&#x2030;" horiz-adv-x="2847" 
d="M2282 -40q-175 4 -289 116q-120 116 -122 370l415 320q174 -4 289 -116q120 -116 122 -370zM2284 118q98 0 156 61q59 62 59 184q0 131 -65 190q-60 54 -150 55q-98 0 -156 -61q-59 -62 -59 -184q0 -131 65 -190q60 -54 150 -55zM565 1550q174 -4 289 -116
q120 -116 122 -370l-415 -320q-175 4 -289 116q-120 116 -122 370zM1418 -40q-175 4 -289 116q-120 116 -122 370l415 320q174 -4 289 -116q120 -116 122 -370zM1420 118q98 0 156 61q59 62 59 184q0 131 -65 190q-60 54 -150 55q-98 0 -156 -61q-59 -62 -59 -184
q0 -131 65 -190q60 -54 150 -55zM706 -40l-141 68l709 1522h10l141 -68l-709 -1522h-10zM563 902q98 0 156 61q59 62 59 184q0 131 -65 190q-60 54 -150 55q-98 0 -156 -61q-59 -62 -59 -184q0 -131 65 -190q60 -54 150 -55z" />
    <glyph glyph-name="minute" unicode="&#x2032;" horiz-adv-x="680" 
d="M344 1550h10l176 -84l-253 -407h-10l-117 55z" />
    <glyph glyph-name="second" unicode="&#x2033;" horiz-adv-x="998" 
d="M662 1550h10l176 -84l-253 -407h-10l-117 55zM344 1550h10l176 -84l-253 -407h-10l-117 55z" />
    <glyph glyph-name="uni2034" unicode="&#x2034;" horiz-adv-x="1316" 
d="M980 1550h10l176 -84l-253 -407h-10l-117 55zM662 1550h10l176 -84l-253 -407h-10l-117 55zM344 1550h10l176 -84l-253 -407h-10l-117 55z" />
    <glyph glyph-name="uni2035" unicode="&#x2035;" horiz-adv-x="680" 
d="M326 1550h10l194 -436l-117 -55h-10l-253 407z" />
    <glyph glyph-name="uni2036" unicode="&#x2036;" horiz-adv-x="998" 
d="M326 1550h10l194 -436l-117 -55h-10l-253 407zM644 1550h10l194 -436l-117 -55h-10l-253 407z" />
    <glyph glyph-name="uni2037" unicode="&#x2037;" horiz-adv-x="1316" 
d="M336 1550l194 -436l-117 -55h-10l-253 407l176 84h10zM644 1550h10l194 -436l-117 -55h-10l-253 407zM962 1550h10l194 -436l-117 -55h-10l-253 407z" />
    <glyph glyph-name="guilsinglleft" unicode="&#x2039;" horiz-adv-x="804" 
d="M489 1284h10l105 -50l-262 -411l258 -437l-174 -82h-10l-266 449z" />
    <glyph glyph-name="guilsinglright" unicode="&#x203a;" horiz-adv-x="804" 
d="M378 1284h10l266 -449l-339 -531h-10l-105 50l263 411l-259 437z" />
    <glyph glyph-name="uni2043" unicode="&#x2043;" horiz-adv-x="1183" 
d="M682 1220v-299l189 109l157 -109l5 -8l-260 -150l260 -150l-5 -8l-157 -109l-189 109v-218l-172 -81h-10v299l-189 -109l-156 109l-5 8l259 150l-259 150l5 8l156 109l189 -109v218l172 81h10z" />
    <glyph glyph-name="fraction" unicode="&#x2044;" horiz-adv-x="974" 
d="M151 -140l-141 68l802 1722h10l142 -68l-803 -1722h-10z" />
    <glyph glyph-name="Euro" unicode="&#x20ac;" 
d="M705 -40q-228 0 -370 145q-135 138 -135 355v62h-150v10l57 120h93v102h-150v10l57 120h93v276l505 390q228 0 370 -145q135 -138 135 -355l-190 -90h-10v90q0 134 -72 217q-89 103 -233 103t-233 -103q-72 -84 -72 -217v-166h470v-10l-57 -120h-413v-102h470v-10
l-57 -120h-413v-62q0 -132 72 -217q87 -103 233 -103q143 0 233 103q72 83 72 217l190 90h10v-200z" />
    <glyph glyph-name="afii61248" unicode="&#x2105;" horiz-adv-x="1638" 
d="M1220 -40q-135 0 -212 81q-74 79 -74 195v363l268 207q136 0 212 -81q74 -79 74 -195v-363zM1212 100q59 0 97 43q29 34 29 93v294q0 60 -29 93q-38 43 -97 43q-57 0 -99 -43q-29 -30 -29 -93v-294q0 -62 29 -93q40 -43 99 -43zM418 1550q136 0 212 -81q74 -79 74 -210
l-114 -55h-36v70q0 60 -29 93q-38 43 -97 43q-57 0 -99 -43q-29 -30 -29 -93v-294q0 -62 29 -93q40 -43 99 -43t97 43q29 34 29 93v15l115 55h35v-140l-268 -206q-135 0 -212 81q-74 79 -74 195v363zM536 -40l-141 68l709 1522h10l141 -68l-709 -1522h-10z" />
    <glyph glyph-name="afii61289" unicode="&#x2113;" horiz-adv-x="1108" 
d="M540 672q60 124 116 310q73 242 73 407q-52 -84 -115 -291q-74 -241 -74 -426zM150 0q100 146 190 296q-8 70 -8 148q0 148 29 289q120 600 215 710q76 88 194 88q51 0 90 -33q48 -39 48 -160q0 -92 -30 -246q-70 -350 -356 -820q33 -156 89 -156q19 0 42 24q31 32 63 88
h176q-77 -128 -141.5 -188t-148.5 -60q-128 0 -199 101l-52 -81h-201z" />
    <glyph glyph-name="trademark" unicode="&#x2122;" horiz-adv-x="1840" 
d="M680 685v637l269 208q132 0 212 -80q23 -23 34 -43l159 123q142 0 212 -80q74 -84 74 -195v-516l-114 -54h-36v570q0 53 -29 92q-33 43 -98 43q-66 0 -97 -43q-30 -42 -30 -92v-516l-115 -54h-35v570q0 62 -30 92q-44 43 -98 43q-53 0 -97 -43q-31 -30 -31 -92v-516
l-114 -54h-36zM364 685v684h-214v36l50 105h528v-36l-50 -105h-164v-630l-114 -54h-36z" />
    <glyph glyph-name="uni2126" unicode="&#x2126;" 
d="M150 0v10l57 120h325q-156 85 -233 190q-99 132 -99 293v547l505 390q228 0 370 -145q135 -138 135 -355v-547l-314 -373h364v-10l-57 -120h-401v182q112 80 162 192q46 103 46 239v437q0 134 -72 217q-89 103 -233 103t-233 -103q-72 -84 -72 -217v-437q0 -136 46 -239
q50 -112 162 -192v-182h-458z" />
    <glyph glyph-name="estimated" unicode="&#x212e;" horiz-adv-x="1358" 
d="M381 550v-371q120 -121 298 -121q254 0 395 246l72 -43q-120 -173 -232 -224.5t-235 -51.5q-237 0 -383 160t-146 405q0 247 147 406t382 159q214 0 366 -142t163 -423h-827zM977 624v297q-128 121 -300 121q-175 0 -296 -122v-296h596z" />
    <glyph glyph-name="partialdiff" unicode="&#x2202;" horiz-adv-x="1267" 
d="M458 0q-137 0 -222.5 91t-85.5 256q0 209 153 387q200 233 478 233q35 0 105 -2q0 148 -17 236q-22 112 -64 168q-44 58 -94 58q-67 0 -118 -80q-38 -60 -74 -190l-135 60q69 154 168 225q95 68 192 68q132 0 227 -139q96 -140 96 -420q0 -281 -87 -513
q-86 -224 -233 -331t-289 -107zM488 92q74 0 148 97q61 79 130 204q90 162 122 474q-40 16 -114 16q-107 0 -217 -128q-72 -83 -121 -174q-74 -137 -74 -248q0 -100 19 -158q28 -83 107 -83z" />
    <glyph glyph-name="uni2206" unicode="&#x2206;" horiz-adv-x="1191" 
d="M5 0l488 1468l173 82h10l510 -1550h-1181zM182 130h751l-372 1146z" />
    <glyph glyph-name="product" unicode="&#x220f;" horiz-adv-x="1390" 
d="M210 -450h-10v1910l106 50h884v-1870l-190 -90h-10v1830h-590v-1740z" />
    <glyph glyph-name="summation" unicode="&#x2211;" horiz-adv-x="1203" 
d="M100 -410l478 1000l-477 870l106 50h755v-10l-57 -120l-537 2l436 -794l-427 -868h676v-10l-57 -120h-896z" />
    <glyph glyph-name="minus" unicode="&#x2212;" horiz-adv-x="1214" 
d="M150 664v10l81 172h833v-10l-81 -172h-833z" />
    <glyph glyph-name="uni2215" unicode="&#x2215;" horiz-adv-x="974" 
d="M151 -140l-141 68l802 1722h10l142 -68l-803 -1722h-10z" />
    <glyph glyph-name="asteriskmath" unicode="&#x2217;" horiz-adv-x="1183" 
d="M682 1220v-299l189 109l157 -109l5 -8l-260 -150l260 -150l-5 -8l-157 -109l-189 109v-218l-172 -81h-10v299l-189 -109l-156 109l-5 8l259 150l-259 150l5 8l156 109l189 -109v218l172 81h10z" />
    <glyph glyph-name="uni2218" unicode="&#x2218;" horiz-adv-x="1126" 
d="M565 1154q174 -4 289 -116q120 -116 122 -370l-415 -320q-175 4 -289 116q-120 116 -122 370zM563 506q98 0 156 61q59 62 59 184q0 131 -65 190q-60 54 -150 55q-98 0 -156 -61q-59 -62 -59 -184q0 -131 65 -190q60 -54 150 -55z" />
    <glyph glyph-name="uni2219" unicode="&#x2219;" horiz-adv-x="600" 
d="M200 594v228l190 90h10v-228l-190 -90h-10z" />
    <glyph glyph-name="radical" unicode="&#x221a;" horiz-adv-x="1452" 
d="M525 -40h-10l-221 661h-194v10l57 120h301l172 -517l427 1276h345v-10l-57 -120h-194l-453 -1338z" />
    <glyph glyph-name="uni221B" unicode="&#x221b;" horiz-adv-x="1452" 
d="M360 1510h395l-161 -256q60 -9 112 -52q69 -57 69 -171v-55l-241 -186q-125 0 -192 69t-67 183l107 58h28v-62q0 -51 27 -83q33 -39 89 -39q53 0 87 39q27 31 27 86q0 45 -21 70q-30 35 -97 35h-114l161 276l-237 -1v32zM525 -40h-10l-221 661h-194v10l57 120h301
l172 -517l427 1276h345v-10l-57 -120h-194l-453 -1338z" />
    <glyph glyph-name="infinity" unicode="&#x221e;" horiz-adv-x="1752" 
d="M563 506q98 0 156 61q59 62 59 184q0 131 -65 190q-61 55 -150 55q-98 0 -156 -61q-59 -62 -59 -184q0 -131 65 -190q61 -55 150 -55zM565 1154q174 -4 289 -116q40 -39 67 -92l270 208q174 -4 289 -116q120 -116 122 -370l-415 -320q-174 4 -289 116q-40 39 -67 93
l-270 -209q-174 4 -289 116q-120 117 -122 370zM1189 506q98 0 156 61q59 62 59 184q0 131 -65 190q-61 55 -150 55q-98 0 -156 -61q-59 -62 -59 -184q0 -131 65 -190q61 -55 150 -55z" />
    <glyph glyph-name="approxequal" unicode="&#x2248;" horiz-adv-x="1268" 
d="M204 390h-10q-44 60 -44 179l237 182q241 0 333 -126q119 -164 169 -164q55 0 55 81q0 63 -48 111l168 81h10q44 -60 44 -178l-237 -183q-241 0 -333 126q-119 164 -169 164q-55 0 -55 -81q0 -63 48 -111zM204 775h-10q-44 60 -44 179l237 182q241 0 333 -126
q119 -164 169 -164q55 0 55 81q0 63 -48 111l168 81h10q44 -60 44 -178l-237 -183q-241 0 -333 126q-119 164 -169 164q-55 0 -55 -81q0 -63 48 -111z" />
    <glyph glyph-name="notequal" unicode="&#x2260;" horiz-adv-x="1214" 
d="M430 200l-141 68l100 214h-239v10l81 172h242l85 182h-408v10l81 172h412l131 282h10l141 -68l-100 -214h239v-10l-81 -172h-242l-85 -182h408v-10l-81 -172h-412l-131 -282h-10z" />
    <glyph glyph-name="equivalence" unicode="&#x2261;" horiz-adv-x="1214" 
d="M150 300v10l81 172h833v-10l-81 -172h-833zM150 1028v10l81 172h833v-10l-81 -172h-833zM150 664v10l81 172h833v-10l-81 -172h-833z" />
    <glyph glyph-name="lessequal" unicode="&#x2264;" horiz-adv-x="1338" 
d="M150 191v10l81 172h907v-10l-81 -172h-907zM1089 1352l49 -103v-10l-769 -315l769 -326v-10l-82 -173l-906 386v10l82 173z" />
    <glyph glyph-name="greaterequal" unicode="&#x2265;" horiz-adv-x="1338" 
d="M200 191v10l81 172h907v-10l-81 -172h-907zM282 1352l906 -386v-10l-82 -173l-857 -368l-49 103v10l769 315l-769 326v10z" />
    <glyph glyph-name="lozenge" unicode="&#x25ca;" horiz-adv-x="1174" 
d="M633 264l249 408l-337 554l-251 -416zM587 0l-467 738l467 772l467 -769z" />
    </font>
</defs>
</svg>
