<?xml version="1.0" standalone="no"?>
<!DOCTYPE svg PUBLIC "-//W3C//DTD SVG 1.1//EN" "http://www.w3.org/Graphics/SVG/1.1/DTD/svg11.dtd" >
<svg xmlns="http://www.w3.org/2000/svg" xmlns:xlink="http://www.w3.org/1999/xlink" version="1.1">
<metadata>
Created by FontForge 20170731 at Sun Aug 21 12:14:50 2011
 By Aleksey,,,
Copyright (c) 2011, wmk69 (wmk69@o2.pl)
with Reserved Font Names 'NovaOval' and 'Nova Oval'.

This Font Software is licensed under the SIL Open Font License, Version 1.1.
This license is available with a FAQ at:
http://scripts.sil.org/OFL
</metadata>
<defs>
<font id="NovaOval" horiz-adv-x="600" >
  <font-face 
    font-family="Nova Oval"
    font-weight="400"
    font-stretch="normal"
    units-per-em="2048"
    panose-1="2 12 5 4 2 4 4 6 2 4"
    ascent="1638"
    descent="-410"
    x-height="1100"
    cap-height="1550"
    bbox="-41 -450 2752 1966"
    underline-thickness="122"
    underline-position="-325"
    unicode-range="U+0020-25CA"
  />
<missing-glyph horiz-adv-x="894" 
d="M150 0v1510h594v-1510h-594zM268 1392v-1274h358v1274h-358z" />
    <glyph glyph-name=".notdef" horiz-adv-x="894" 
d="M150 0v1510h594v-1510h-594zM268 1392v-1274h358v1274h-358z" />
    <glyph glyph-name=".null" horiz-adv-x="0" 
 />
    <glyph glyph-name="nonmarkingreturn" horiz-adv-x="682" 
 />
    <glyph glyph-name="space" unicode=" " horiz-adv-x="800" 
 />
    <glyph glyph-name="exclam" unicode="!" 
d="M180 102.5q0 50.5 35 86.5t85 36t85 -36t35 -86.5t-35 -86.5t-85 -36t-85 36t-35 86.5zM390 1550h10v-1040l-190 -90h-10v1040z" />
    <glyph glyph-name="quotedbl" unicode="&#x22;" horiz-adv-x="747" 
d="M587 1550h10v-484l-156 -74h-10v484zM306 1550h10v-484l-156 -74h-10v484z" />
    <glyph glyph-name="numbersign" unicode="#" horiz-adv-x="1368" 
d="M458 222h-10v298h-298v10l81 172h217v108h-298v10l81 172h217v217l172 81h10v-298h108v217l172 81h10v-298h298v-10l-81 -172h-217v-108h298v-10l-81 -172h-217v-217l-172 -81h-10v298h-108v-217zM630 702h108v108h-108v-108z" />
    <glyph glyph-name="dollar" unicode="$" horiz-adv-x="1270" 
d="M150 288l162 78h10q96 -193 255 -214v618q-118 34 -208 98q-138 98 -138 264q0 179 129 296q89 81 217 98v174l106 50h10v-223q190 -22 301 -225l-158 -75h-10q-52 104 -133 127v-419q187 -38 306 -156q121 -120 121 -307q0 -190 -144 -340q-117 -124 -283 -147v-175
l-106 -50h-10v221q-271 19 -427 307zM577 967v383q-50 -14 -86 -51q-60 -62 -60 -152q0 -80 53 -126q36 -31 93 -54zM693 741v-580q82 25 152 104q73 82 73 213q0 100 -64 168q-58 62 -161 95z" />
    <glyph glyph-name="percent" unicode="%" horiz-adv-x="2052" 
d="M691 1130q0 129 -56 200q-42 53 -116 53q-70 0 -115 -53q-58 -68 -58 -200q0 -134 58 -200q46 -53 115 -53q72 0 116 53q56 67 56 200zM150 1133q0 171 118 297q94 100 251 100q156 0 251 -100q118 -126 118 -300t-118 -300q-94 -100 -251 -100t-251 100
q-118 126 -118 303zM1705 380q0 129 -56 200q-42 53 -116 53q-70 0 -115 -53q-58 -68 -58 -200q0 -133 58 -200q46 -53 115 -53q72 0 116 53q56 68 56 200zM1164 383q0 171 118 297q94 100 251 100q156 0 251 -100q118 -123 118 -300q0 -172 -118 -300q-94 -100 -251 -100
t-251 100q-118 126 -118 303zM742 -40l-141 68l709 1522h10l141 -68l-709 -1522h-10z" />
    <glyph glyph-name="ampersand" unicode="&#x26;" horiz-adv-x="1562" 
d="M796 -40q-368 0 -518 163q-128 140 -128 345q0 202 148 333q46 41 81 58q-139 117 -139 278q0 196 124 297q118 96 291 96q224 0 348 -228l-158 -75h-10q-68 133 -182 133q-101 0 -162.5 -62.5t-61.5 -160.5q0 -80 56 -139q62 -66 174.5 -72t193.5 -6q0 -22 32 -130
q35 -118 106 -174l217 361h10l149 -83l-217 -360q100 -44 181 -136t81 -348l-190 -90h-10q0 228 -18 310q-17 70 -126 130zM689 761q-172 0 -245 -71q-96 -94 -96 -224q0 -126 74 -220t282 -94l204 328q-138 60 -219 281z" />
    <glyph glyph-name="quotesingle" unicode="'" horiz-adv-x="466" 
d="M306 1550h10v-484l-156 -74h-10v484z" />
    <glyph glyph-name="parenleft" unicode="(" horiz-adv-x="783" 
d="M658 -240h-10q-217 74 -352 328q-96 181 -96 467v400q0 286 96 467q135 254 352 328h10l75 -149q-178 -84 -265 -257q-68 -133 -68 -389v-400q0 -256 68 -389q87 -173 265 -257z" />
    <glyph glyph-name="parenright" unicode=")" horiz-adv-x="783" 
d="M125 -240l-75 149q178 84 265 257q68 133 68 389v400q0 256 -68 389q-87 173 -265 257l75 149h10q217 -74 352 -328q96 -181 96 -467v-400q0 -286 -96 -467q-135 -254 -352 -328h-10z" />
    <glyph glyph-name="asterisk" unicode="*" horiz-adv-x="1183" 
d="M682 1550v-319l189 129l157 -109l5 -8l-280 -150l280 -150l-5 -8l-157 -109l-189 129v-238l-172 -81h-10v319l-189 -129l-156 109l-5 8l279 150l-279 150l5 8l156 109l189 -129v238l172 81h10z" />
    <glyph glyph-name="plus" unicode="+" horiz-adv-x="1214" 
d="M698 1212v-366h366v-10l-81 -172h-285v-285l-172 -81h-10v366h-366v10l81 172h285v285l172 81h10z" />
    <glyph glyph-name="comma" unicode="," horiz-adv-x="609" 
d="M340 278h10q109 -107 109 -244q0 -191 -245 -320l-43 50q113 115 113 216q0 121 -134 208z" />
    <glyph glyph-name="hyphen" unicode="-" horiz-adv-x="1214" 
d="M150 664v10l81 172h833v-10l-81 -172h-833z" />
    <glyph glyph-name="period" unicode="." 
d="M180 102.5q0 50.5 35 86.5t85 36t85 -36t35 -86.5t-35 -86.5t-85 -36t-85 36t-35 86.5z" />
    <glyph glyph-name="slash" unicode="/" horiz-adv-x="974" 
d="M151 -140l-141 68l802 1722h10l142 -68l-803 -1722h-10z" />
    <glyph glyph-name="zero" unicode="0" horiz-adv-x="1424" 
d="M350 755q0 -257 68 -389q111 -216 294 -216q185 0 294 216q68 135 68 389t-68 389q-108 216 -294 216q-185 0 -294 -216q-68 -135 -68 -389zM150 755q0 291 96 467q168 308 466 308q299 0 466 -308q96 -177 96 -467q0 -291 -96 -467q-167 -308 -466 -308q-298 0 -466 308
q-96 176 -96 467z" />
    <glyph glyph-name="one" unicode="1" horiz-adv-x="714" 
d="M264 -40v1394l-244 -216v205l244 207q200 0 200 -196v-1304l-190 -90h-10z" />
    <glyph glyph-name="two" unicode="2" horiz-adv-x="1311" 
d="M393 0q-243 0 -243 198q0 321 475 534q290 130 290 327q0 133 -62 205q-83 96 -227 96q-183 0 -294 -216h-10l-162 78q168 308 466 308q242 0 370 -145q122 -138 122 -337q0 -280 -383 -462q-406 -193 -406 -352q0 -64 64 -64h460q118 0 148 117h10l150 -71
q-60 -216 -308 -216h-460z" />
    <glyph glyph-name="three" unicode="3" horiz-adv-x="1250" 
d="M130 288l162 78h10q111 -216 294 -216q141 0 229 101q75 86 75 219q0 135 -65 203q-75 78 -241 78l-118 113l315 476h-527v10l75 160h465q179 0 179 -138q0 -76 -90 -202l-192 -261q148 -4 263 -104q136 -118 136 -333q0 -204 -134 -347q-137 -145 -370 -145
q-298 0 -466 308z" />
    <glyph glyph-name="four" unicode="4" horiz-adv-x="1187" 
d="M735 -40v398h-492q-193 0 -193 136q0 73 51 148l634 908q200 0 200 -196v-826h172v-10l-75 -160h-97v-308l-190 -90h-10zM735 528v734l-506 -734h506z" />
    <glyph glyph-name="five" unicode="5" horiz-adv-x="1270" 
d="M150 288l162 78h10q110 -216 294 -216q141 0 229 101q75 86 75 219q0 149 -88 224q-87 76 -217 76q-103 0 -189 -63l-209 101l115 486q52 216 308 216h396v-10l-75 -160h-306q-116 0 -148 -117l-93 -341q91 64 203 64q210 0 350 -120q153 -132 153 -354q0 -204 -134 -347
q-137 -145 -370 -145q-298 0 -466 308z" />
    <glyph glyph-name="six" unicode="6" horiz-adv-x="1367" 
d="M1178 1222l-162 -78h-10q-111 216 -294 216q-185 0 -294 -216q-68 -135 -68 -389q129 208 361 209q232 0 371 -147q135 -143 135 -345q0 -204 -135 -347q-137 -145 -370 -145q-299 0 -466 308q-96 177 -96 467q0 291 96 467q167 308 466 308q298 0 466 -308zM712 792
q-126 0 -223 -98q-82 -83 -82 -224q0 -125 79 -212q98 -108 226 -108q148 0 237 106q68 81 68 214q0 140 -67 215q-96 107 -238 107z" />
    <glyph glyph-name="seven" unicode="7" horiz-adv-x="979" 
d="M222 45l463 1295h-675v10l75 160h600q194 0 194 -180q0 -43 -67 -224l-400 -1146h-10z" />
    <glyph glyph-name="eight" unicode="8" horiz-adv-x="1308" 
d="M150 472q0 196 152 338q32 30 76 53q-139 112 -139 269q0 200 124 302q118 96 291 96t291 -96q124 -101 124 -302q0 -157 -139 -269q44 -23 76 -53q152 -142 152 -338q0 -204 -134 -347q-137 -145 -370 -145q-234 0 -370 145q-134 143 -134 347zM654 150q146 0 238 107
q66 77 66 213q0 120 -71 199q-87 97 -233 97q-142 0 -232 -96q-72 -77 -72 -200q1 -133 71 -213q94 -107 233 -107zM654 1372q-97 0 -156 -61t-59 -164q0 -104 45 -149q78 -76 170 -76q101 0 170 76q45 50 45 149q0 103 -59 164t-156 61z" />
    <glyph glyph-name="nine" unicode="9" horiz-adv-x="1367" 
d="M189 288l162 78h10q111 -216 294 -216q185 0 294 216q68 135 68 389q-129 -208 -361 -209q-232 0 -371 147q-135 143 -135 345q0 204 135 347q137 145 370 145q299 0 466 -308q96 -177 96 -467q0 -291 -96 -467q-167 -308 -466 -308q-298 0 -466 308zM655 718
q126 0 223 98q82 83 82 224q0 125 -79 212q-98 108 -226 108q-148 0 -237 -106q-68 -81 -68 -214q0 -140 67 -215q96 -107 238 -107z" />
    <glyph glyph-name="colon" unicode=":" 
d="M180 753.5q0 50.5 35 86.5t85 36t85 -36t35 -86.5t-35 -86.5t-85 -36t-85 36t-35 86.5zM180 102.5q0 50.5 35 86.5t85 36t85 -36t35 -86.5t-35 -86.5t-85 -36t-85 36t-35 86.5z" />
    <glyph glyph-name="semicolon" unicode=";" 
d="M205 -286l-43 50q113 115 113 216q0 121 -134 208l190 90h10q109 -107 109 -244q0 -191 -245 -320zM180 753.5q0 50.5 35 86.5t85 36t85 -36t35 -86.5t-35 -86.5t-85 -36t-85 36t-35 86.5z" />
    <glyph glyph-name="less" unicode="&#x3c;" horiz-adv-x="1338" 
d="M150 664v10l82 173l824 351l82 -173v-10l-684 -277l684 -277v-10l-82 -173z" />
    <glyph glyph-name="equal" unicode="=" horiz-adv-x="1214" 
d="M150 846v10l81 172h833v-10l-81 -172h-833zM150 482v10l81 172h833v-10l-81 -172h-833z" />
    <glyph glyph-name="greater" unicode="&#x3e;" horiz-adv-x="1338" 
d="M1188 812v-10l-82 -173l-824 -351l-82 173v10l684 277l-684 277v10l82 173z" />
    <glyph glyph-name="question" unicode="?" horiz-adv-x="1228" 
d="M120 1222q168 308 466 308q239 0 370 -145q122 -136 122 -337q0 -296 -345 -455q-74 -33 -74 -139l-193 -93h-10q0 270 175 361q249 129 249 327q0 138 -67 215q-84 96 -227 96q-183 0 -294 -216h-10zM453 102.5q0 50.5 35 86.5t85 36t85 -36t35 -86.5t-35 -86.5t-85 -36
t-85 36t-35 86.5z" />
    <glyph glyph-name="at" unicode="@" horiz-adv-x="1397" 
d="M1027 -40h-96q-197 13 -293 90q-122 98 -122 250q0 175 124 273q105 83 291 96h83q-8 81 -70 162q-90 119 -232 119q-184 0 -294 -216q-68 -135 -68 -389q0 -257 68 -389q111 -216 294 -216v-170q-298 0 -466 308q-96 176 -96 467t96 467q169 308 466 308q217 0 368 -167
q137 -153 137 -348v-555zM1017 514q-182 -1 -250 -56q-67 -54 -67 -142q0 -80 72 -143q62 -55 245 -55v396z" />
    <glyph glyph-name="A" unicode="A" horiz-adv-x="1454" 
d="M180 -40v795q0 291 96 467q168 308 466 308q299 0 466 -308q96 -177 96 -467q0 -286 -96 -467q-135 -254 -352 -328h-10l-75 149q178 84 265 257q56 111 66 304h-722v-620l-190 -90h-10zM382 840h720q-10 192 -66 304q-108 216 -294 216q-185 0 -294 -216
q-56 -112 -66 -304z" />
    <glyph glyph-name="B" unicode="B" horiz-adv-x="1397" 
d="M430 0q-250 0 -250 214v541q0 291 96 467q168 308 466 308q168 0 281 -92q133 -109 133 -297q0 -172 -152 -286q49 -21 97 -63q146 -133 146 -330q0 -198 -128 -325q-138 -137 -377 -137h-312zM742 756h-362v-1v-541q0 -44 50 -44h312q146 0 238 98q67 71 67 188
q0 123 -65 198q-88 102 -240 102zM389 926h353q100 0 161 65q54 59 54 155q0 95 -57.5 154.5t-157.5 59.5q-185 0 -294 -216q-43 -85 -59 -218z" />
    <glyph glyph-name="C" unicode="C" horiz-adv-x="1366" 
d="M1246 474q-19 -96 -68 -186q-168 -308 -466 -308t-466 308q-96 176 -96 467t96 467q168 308 466 308q299 0 466 -308l-162 -78h-10q-108 216 -294 216q-185 0 -294 -216q-68 -135 -68 -389q0 -257 68 -389q111 -216 294 -216q185 0 294 216l230 108h10z" />
    <glyph glyph-name="D" unicode="D" horiz-adv-x="1454" 
d="M430 0q-250 0 -250 214v541q0 291 96 467q168 308 466 308q299 0 466 -308q96 -176 96 -467q0 -251 -98 -441q-162 -314 -464 -314h-312zM742 170q187 0 292 222q70 148 70 363q0 253 -68 389q-108 216 -294 216q-185 0 -294 -216q-68 -134 -68 -389v-541q0 -44 50 -44
h312z" />
    <glyph glyph-name="E" unicode="E" horiz-adv-x="1182" 
d="M430 0q-250 0 -250 214v541q0 291 96 467q168 308 466 308h268v-10l-75 -160h-193q-186 0 -294 -216q-56 -112 -66 -304h568v-10l-75 -160h-495v-456q0 -44 50 -44h394q118 0 148 117h10l150 -71q-60 -216 -308 -216h-394z" />
    <glyph glyph-name="F" unicode="F" horiz-adv-x="1130" 
d="M180 -40v795q0 292 96 467q168 308 466 308h268v-10l-75 -160h-193q-186 0 -294 -216q-56 -112 -66 -304h568v-10l-75 -160h-495v-620l-190 -90h-10z" />
    <glyph glyph-name="G" unicode="G" horiz-adv-x="1424" 
d="M1274 840v-85q0 -291 -96 -467q-167 -308 -466 -308q-298 0 -466 308q-96 176 -96 467t96 467q168 308 466 308q299 0 466 -308l-162 -78h-10q-108 216 -294 216q-184 0 -294 -216q-68 -135 -68 -389q0 -257 68 -389q111 -216 294 -216q185 0 294 216q56 112 66 304h-377
v10l75 160h504z" />
    <glyph glyph-name="H" unicode="H" horiz-adv-x="1454" 
d="M200 -40v1500l190 90h10v-710h702q-10 193 -66 304q-87 173 -265 257l75 149h10q217 -74 352 -328q96 -181 96 -467t-96 -467q-135 -254 -352 -328h-10l-75 149q178 84 265 257q56 111 66 304h-702v-620l-190 -90h-10z" />
    <glyph glyph-name="I" unicode="I" 
d="M200 -40v1500l190 90h10v-1500l-190 -90h-10z" />
    <glyph glyph-name="J" unicode="J" horiz-adv-x="1308" 
d="M80 288l162 78h10q108 -216 294 -216q188 0 294 216q68 139 68 389v541q0 44 -50 44h-532v10l75 160h457q250 0 250 -214v-541q0 -291 -96 -467q-168 -308 -466 -308q-299 0 -466 308z" />
    <glyph glyph-name="K" unicode="K" horiz-adv-x="1352" 
d="M200 -40v1500l190 90h10v-753l543 753h10l176 -83l-439 -593q275 0 413 -181q99 -130 99 -294q0 -170 -115 -295q-101 -112 -231 -144h-10l-75 149q91 19 144 73q87 88 87 217q0 141 -76 215q-92 90 -236 90q-131 0 -218 -103q-72 -85 -72 -217v-334l-190 -90h-10z" />
    <glyph glyph-name="L" unicode="L" horiz-adv-x="1108" 
d="M450 0q-250 0 -250 214v1246l190 90h10v-1336q0 -44 50 -44h345q118 0 148 117h10l150 -71q-60 -216 -308 -216h-345z" />
    <glyph glyph-name="M" unicode="M" horiz-adv-x="2348" 
d="M1074 -40v795q0 254 -68 389q-110 216 -294 216q-186 0 -294 -216q-68 -135 -68 -389q0 -256 68 -389q89 -174 265 -257l-75 -149h-10q-217 74 -352 328q-96 181 -96 467q0 290 96 467q167 308 466 308q294 0 462 -301q168 301 462 301q299 0 466 -308q96 -177 96 -467
q0 -286 -96 -467q-135 -254 -352 -328h-10l-75 149q177 84 265 257q68 134 68 389q0 254 -68 389q-109 216 -294 216t-294 -216q-68 -135 -68 -389v-705l-190 -90h-10z" />
    <glyph glyph-name="N" unicode="N" horiz-adv-x="1454" 
d="M180 -40v795q0 291 96 467q168 308 466 308q299 0 466 -308q96 -176 96 -467q0 -286 -96 -467q-135 -254 -352 -328h-10l-75 149q178 84 265 257q68 133 68 389q0 254 -68 389q-108 216 -294 216t-294 -216q-68 -135 -68 -389v-705l-190 -90h-10z" />
    <glyph glyph-name="O" unicode="O" horiz-adv-x="1424" 
d="M350 755q0 -257 68 -389q111 -216 294 -216q185 0 294 216q68 135 68 389t-68 389q-108 216 -294 216q-185 0 -294 -216q-68 -135 -68 -389zM150 755q0 291 96 467q168 308 466 308q299 0 466 -308q96 -177 96 -467q0 -291 -96 -467q-167 -308 -466 -308q-298 0 -466 308
q-96 176 -96 467z" />
    <glyph glyph-name="P" unicode="P" horiz-adv-x="1374" 
d="M180 -40v795q0 291 96 467q168 308 466 308q249 0 393 -184q119 -152 119 -341q0 -172 -121 -321q-150 -184 -441 -184h-312v-450l-190 -90h-10zM380 670h312q188 0 269 92q93 106 93 243q0 162 -96 262q-90 93 -216 93q-184 0 -294 -216q-68 -134 -68 -389v-85z" />
    <glyph glyph-name="Q" unicode="Q" horiz-adv-x="1424" 
d="M987 -40h-10l-48 69q-98 -49 -217 -49q-298 0 -466 308q-96 176 -96 467t96 467q168 308 466 308q299 0 466 -308q96 -177 96 -467q0 -291 -96 -467q-42 -77 -92 -135l77 -110zM350 755q0 -254 68 -389q111 -216 294 -216q62 0 115 24l-196 281l176 83h10l158 -226
q16 25 31 54q68 131 68 389q0 254 -68 389q-108 216 -294 216q-187 0 -294 -216q-68 -135 -68 -389z" />
    <glyph glyph-name="R" unicode="R" horiz-adv-x="1438" 
d="M380 670h312q188 0 269 92q93 106 93 243q0 162 -96 262q-90 93 -216 93q-184 0 -294 -216q-68 -134 -68 -389v-85zM180 -40v795q0 291 96 467q168 308 466 308q249 0 393 -184q119 -152 119 -341q0 -172 -121 -321q-78 -96 -194 -142l349 -499l-176 -83h-10l-377 540
h-345v-450l-190 -90h-10z" />
    <glyph glyph-name="S" unicode="S" horiz-adv-x="1210" 
d="M120 288l162 78h10q108 -216 294 -216q128 0 229 115q73 84 73 213q0 100 -64 168q-74 79 -220 110q-152 31 -265 112q-138 100 -138 264q0 180 129 296q112 102 286 102q224 0 348 -228l-158 -75h-10q-67 133 -180 133q-96 -1 -155 -61q-60 -61 -60 -152q0 -80 53 -126
q67 -58 207 -86q187 -36 308 -156q121 -121 121 -307q0 -190 -144 -340q-143 -152 -360 -152q-299 0 -466 308z" />
    <glyph glyph-name="T" unicode="T" horiz-adv-x="1066" 
d="M433 -40l1 1380h-121q-119 0 -148 -117h-10l-150 71q59 216 308 216h748v-10l-75 -160h-352l-1 -1290l-190 -90h-10z" />
    <glyph glyph-name="U" unicode="U" horiz-adv-x="1474" 
d="M1274 1550v-795q0 -291 -96 -467q-168 -308 -466 -308q-299 0 -466 308q-96 176 -96 467q0 286 96 467q135 254 352 328h10l75 -149q-178 -84 -265 -257q-68 -133 -68 -389q0 -254 68 -389q108 -216 294 -216q185 0 294 216q68 135 68 389v705l190 90h10z" />
    <glyph glyph-name="V" unicode="V" horiz-adv-x="1474" 
d="M200 1460l190 90h10v-795q0 -277 68 -389q131 -216 294 -216q184 0 294 216q68 135 68 389q0 256 -68 389q-89 174 -265 257l75 149h10q217 -74 352 -328q96 -181 96 -467q0 -291 -96 -467q-167 -308 -466 -308q-298 0 -466 308q-96 176 -96 467v705z" />
    <glyph glyph-name="W" unicode="W" horiz-adv-x="2348" 
d="M1274 1550v-795q0 -254 68 -389q109 -216 294 -216t294 216q68 135 68 389q0 256 -68 389q-89 174 -265 257l75 149h10q217 -74 352 -328q96 -181 96 -467q0 -290 -96 -467q-167 -308 -466 -308q-294 0 -462 301q-168 -301 -462 -301q-299 0 -466 308q-96 177 -96 467
q0 286 96 467q135 254 352 328h10l75 -149q-177 -84 -265 -257q-68 -134 -68 -389q0 -254 68 -389q108 -216 294 -216q185 0 294 216q68 135 68 389v705l190 90h10z" />
    <glyph glyph-name="X" unicode="X" horiz-adv-x="1278" 
d="M274 -40l-174 82l407 688q-176 111 -270 266q-137 229 -137 464l190 90h10q0 -289 121 -474q74 -113 179 -190l393 664h10l175 -83l-411 -693q179 -118 272 -263q139 -220 139 -461l-190 -90h-10q0 281 -115 472q-57 98 -189 186l-390 -658h-10z" />
    <glyph glyph-name="Y" unicode="Y" horiz-adv-x="1372" 
d="M972 -40v570q-126 -146 -315 -146q-258 0 -418 204q-119 152 -119 366q0 230 121 388q101 132 227 208h10l75 -149q-87 -59 -140 -137q-93 -137 -93 -310q0 -178 98.5 -289t238.5 -111q135 0 226 104q89 102 89 236v566l190 90h10v-1500l-190 -90h-10z" />
    <glyph glyph-name="Z" unicode="Z" horiz-adv-x="1208" 
d="M313 0q-193 0 -193 134q0 113 96 257l606 949h-635v10l75 160h560q198 0 198 -136q0 -102 -101 -255l-606 -949h467q118 0 148 117h10l150 -71q-60 -216 -308 -216h-467z" />
    <glyph glyph-name="bracketleft" unicode="[" horiz-adv-x="864" 
d="M739 -240h-289q-250 0 -250 214v1562q0 214 250 214h364v-10l-75 -160h-289q-50 0 -50 -44v-1562q0 -44 50 -44h364v-10z" />
    <glyph glyph-name="backslash" unicode="\" horiz-adv-x="974" 
d="M812 -140l-802 1722l141 68h10l803 -1722l-142 -68h-10z" />
    <glyph glyph-name="bracketright" unicode="]" horiz-adv-x="864" 
d="M50 -240v10l75 160h289q50 0 50 44v1562q0 44 -50 44h-364v10l75 160h289q250 0 250 -214v-1562q0 -214 -250 -214h-364z" />
    <glyph glyph-name="asciicircum" unicode="^" horiz-adv-x="1321" 
d="M150 1088l378 380l173 82h10l460 -462l-173 -82h-10l-329 322l-326 -322h-10z" />
    <glyph glyph-name="underscore" unicode="_" horiz-adv-x="1214" 
d="M150 -410v10l81 172h833v-10l-81 -172h-833z" />
    <glyph glyph-name="grave" unicode="`" horiz-adv-x="648" 
d="M326 1550h10l162 -345l-117 -55h-10l-221 316z" />
    <glyph glyph-name="a" unicode="a" horiz-adv-x="1060" 
d="M710 -40v140q-86 -119 -215 -120q-187 0 -291 113t-104 267q0 160 113 272q109 108 282 108q123 0 211 -110q-18 151 -37 188q-67 132 -180 132h-233v10l76 160h157q224 0 349 -231q72 -132 72 -339v-500l-190 -90h-10zM294 362q0 -90 54.5 -151t147.5 -61q92 0 154 63
q58 59 58 145q0 90 -62 151t-149 61q-93 0 -149 -62q-54 -61 -54 -146z" />
    <glyph glyph-name="b" unicode="b" horiz-adv-x="1173" 
d="M380 550q0 -188 41 -268q68 -132 180 -132q113 0 180 132q42 83 42 268t-42 268q-66 131 -180 131q-115 0 -181 -133q-40 -81 -40 -266zM380 1016q99 104 221 104q224 0 349 -231q73 -133 73 -339q0 -208 -72 -339q-127 -231 -350 -231q-220 0 -349 231q-72 129 -72 339
v910l190 90h10v-534z" />
    <glyph glyph-name="c" unicode="c" horiz-adv-x="1098" 
d="M978 377q-18 -95 -57 -166q-127 -231 -350 -231q-220 0 -349 231q-72 129 -72 339q0 206 72 339q125 231 349 231t348 -228l-158 -74h-10q-66 132 -180 132t-180 -132q-41 -83 -41 -268q0 -186 41 -268q68 -132 180 -132q114 0 180 132l217 95h10z" />
    <glyph glyph-name="d" unicode="d" horiz-adv-x="1173" 
d="M150 550q0 208 72 339q125 231 349 231q130 0 222 -105v445l190 90h10v-1000q0 -208 -72 -339q-127 -231 -350 -231q-220 0 -349 231q-72 129 -72 339zM350 550q0 -188 41 -268q68 -132 180 -132q113 0 180 132q42 83 42 268t-42 268q-66 131 -180 131t-180 -133
q-41 -83 -41 -266z" />
    <glyph glyph-name="e" unicode="e" horiz-adv-x="1128" 
d="M978 377q-18 -95 -57 -166q-127 -231 -350 -231q-220 0 -349 231q-72 129 -72 339q0 207 72 339q125 231 349 231q223 0 349 -230q31 -57 50 -133l-580 -472q67 -135 183 -135q113 0 178 132l217 95h10zM352 473l399 345q-65 132 -180 132q-113 0 -180 -132
q-41 -82 -41 -268q0 -41 2 -77z" />
    <glyph glyph-name="f" unicode="f" horiz-adv-x="836" 
d="M180 -40v1000q0 208 72 339q126 231 349 231h135v-10l-76 -160h-59q-113 0 -180 -132q-36 -71 -41 -228h356v-10l-75 -160h-281v-780l-190 -90h-10z" />
    <glyph glyph-name="g" unicode="g" horiz-adv-x="1163" 
d="M350 550q0 -186 41 -268q66 -132 180 -132t180 132q42 83 42 268t-42 268q-65 132 -180 132t-181 -133q-40 -81 -40 -267zM150 550q0 208 72 339q125 231 349 231t349 -231q73 -133 73 -339v-410q0 -205 -71 -339q-124 -231 -350 -231h-241v10l76 160h165q126 0 180 132
q37 91 37 208q-98 -100 -218 -100q-220 0 -349 231q-72 129 -72 339z" />
    <glyph glyph-name="h" unicode="h" horiz-adv-x="1193" 
d="M200 -40v1500l190 90h10v-534q92 104 221 104q224 0 349 -231q73 -133 73 -339q0 -192 -72 -339q-87 -183 -259 -251h-10l-75 149q121 43 174 173q42 104 42 268q0 185 -42 268q-67 132 -180.5 132t-179.5 -132q-41 -83 -41 -268v-500l-190 -90h-10z" />
    <glyph glyph-name="i" unicode="i" 
d="M180 1407.5q0 50.5 35 86.5t85 36t85 -36t35 -86.5t-35 -86.5t-85 -36t-85 36t-35 86.5zM200 -40v1090l190 90h10v-1090l-190 -90h-10z" />
    <glyph glyph-name="j" unicode="j" 
d="M-21 -430l82 180q58 33 98 112q41 83 41 268v920l190 90h10v-1010q0 -208 -72 -339q-125 -231 -349 -231v10zM180 1407.5q0 50.5 35 86.5t85 36t85 -36t35 -86.5t-35 -86.5t-85 -36t-85 36t-35 86.5z" />
    <glyph glyph-name="k" unicode="k" horiz-adv-x="1180" 
d="M200 -40v1500l190 90h10v-833l384 423h10l176 -83l-298 -305q144 -19 234 -93q124 -102 124 -287q0 -143 -72 -240q-97 -132 -259 -172h-10l-75 149q133 40 174 94q42 56 42 169q0 115 -62.5 168.5t-152.5 53.5t-153 -54q-62 -54 -62 -168v-322l-190 -90h-10z" />
    <glyph glyph-name="l" unicode="l" 
d="M200 -40v1500l190 90h10v-1500l-190 -90h-10z" />
    <glyph glyph-name="m" unicode="m" horiz-adv-x="1786" 
d="M793 -40v590q0 183 -41 268q-64 132 -180 132q-113 0 -180 -132q-42 -85 -42 -268q0 -164 42 -268q53 -130 174 -173l-75 -149h-10q-172 68 -259 251q-72 151 -72 339q0 206 72 339q126 231 350 231q199 0 321 -184q122 184 321 184q224 0 350 -231q72 -133 72 -339
q0 -192 -72 -339q-87 -183 -259 -251h-10l-75 149q121 43 174 173q42 104 42 268q0 183 -42 268q-66 132 -180 132t-180 -132q-41 -83 -41 -268v-500l-190 -90h-10z" />
    <glyph glyph-name="n" unicode="n" horiz-adv-x="1143" 
d="M150 -40v590q0 208 72 339q125 231 349 231t349 -231q73 -133 73 -339q0 -192 -72 -339q-87 -183 -259 -251h-10l-75 149q121 43 174 173q42 104 42 268q0 185 -42 268q-66 132 -180 132t-180 -132q-41 -83 -41 -268v-500l-190 -90h-10z" />
    <glyph glyph-name="o" unicode="o" horiz-adv-x="1143" 
d="M350 550q0 -186 41 -268q66 -132 180 -132t180 132q42 83 42 268t-42 268q-65 132 -180 132t-181 -133q-40 -81 -40 -267zM150 550q0 208 72 339q125 231 349 231t349 -231q73 -133 73 -339q0 -209 -72 -339q-127 -231 -350 -231q-220 0 -349 231q-72 129 -72 339z" />
    <glyph glyph-name="p" unicode="p" horiz-adv-x="1163" 
d="M371 550q0 -186 41 -268q66 -132 180 -132t180 132q42 83 42 268t-42 268q-65 132 -180 132t-181 -133q-40 -81 -40 -267zM170 -450v1000q0 208 72 339q127 231 350 231q220 0 349 -231q72 -129 72 -339q0 -208 -71 -339q-126 -231 -350 -231q-130 0 -222 105v-445
l-190 -90h-10z" />
    <glyph glyph-name="q" unicode="q" horiz-adv-x="1163" 
d="M350 550q0 -186 41 -268q66 -132 180 -132t180 132q42 83 42 268t-42 268q-65 132 -180 132t-181 -133q-40 -81 -40 -267zM150 550q0 208 72 339q127 231 350 231q220 0 349 -231q72 -129 72 -339v-910l-190 -90h-10v534q-100 -104 -221 -104q-226 0 -350 231
q-72 134 -72 339z" />
    <glyph glyph-name="r" unicode="r" horiz-adv-x="726" 
d="M150 -40v590q0 208 72 339q125 231 349 231h135v-10l-76 -160h-59q-114 0 -180 -132q-41 -83 -41 -268v-500l-190 -90h-10z" />
    <glyph glyph-name="s" unicode="s" horiz-adv-x="1003" 
d="M120 208l158 74h10q66 -132 180 -132q110 0 170 72q49 59 49 129q0 73 -52 116q-54 44 -156 60q-130 21 -207 76q-108 77 -108 222q0 139 127 230q92 65 207 65q197 0 286 -190l-158 -74h-10q-45 94 -118 94q-59 0 -97 -30q-46 -36 -46 -99q0 -61 50 -88q51 -28 156 -49
q130 -26 211 -89q111 -86 111 -255q0 -131 -115 -248q-109 -112 -300 -112q-224 0 -348 228z" />
    <glyph glyph-name="t" unicode="t" horiz-adv-x="754" 
d="M277 -40v970h-257v10l75 160h182v360l190 90h10v-450h257v-10l-75 -160h-182v-880l-190 -90h-10z" />
    <glyph glyph-name="u" unicode="u" horiz-adv-x="1173" 
d="M993 1140v-590q0 -208 -71 -339q-126 -231 -350 -231t-350 231q-72 133 -72 339q0 192 72 339q87 183 259 251h10l75 -149q-121 -43 -174 -173q-42 -104 -42 -268q0 -185 42 -268q66 -132 180 -132t180 132q41 83 41 268v500l190 90h10z" />
    <glyph glyph-name="v" unicode="v" horiz-adv-x="1173" 
d="M180 1050l190 90h10v-590q0 -186 41 -268q66 -132 180 -132q113 0 180 132q42 83 42 268q0 164 -42 268q-53 130 -174 173l75 149h10q172 -68 259 -251q72 -151 72 -339q0 -206 -73 -339q-125 -231 -349 -231t-349 231q-72 131 -72 339v500z" />
    <glyph glyph-name="w" unicode="w" horiz-adv-x="1786" 
d="M993 1140v-590q0 -183 41 -268q64 -132 180 -132q114 0 180 132q42 85 42 268q0 164 -42 268q-53 130 -174 173l75 149h10q172 -68 259 -251q72 -151 72 -339q0 -206 -72 -339q-126 -231 -350 -231q-199 0 -321 184q-122 -184 -321 -184q-225 0 -350 231q-72 133 -72 339
q0 188 72 339q87 183 259 251h10l75 -149q-121 -43 -174 -173q-42 -104 -42 -268q0 -183 42 -268q66 -132 180 -132t180 132q41 83 41 268v500l190 90h10z" />
    <glyph glyph-name="x" unicode="x" horiz-adv-x="1055" 
d="M284 -40h-10l-174 82l292 479q-137 76 -214 198q-73 114 -73 331l190 90h10q0 -285 42 -350q58 -90 128 -133l295 483h10l175 -83l-295 -482q150 -79 222.5 -194t72.5 -331l-190 -90h-10q0 253 -42 350q-36 83 -135 131z" />
    <glyph glyph-name="y" unicode="y" horiz-adv-x="1193" 
d="M993 1140v-1000q0 -205 -71 -339q-124 -231 -350 -231h-241v10l76 160h165q126 0 180 132q37 91 37 208q-98 -100 -218 -100q-224 0 -349 231q-72 133 -72 339q0 188 72 339q87 183 259 251h10l75 -149q-121 -43 -174 -173q-42 -104 -42 -268q0 -185 42 -268
q66 -132 180 -132t180 132q41 83 41 268v500l190 90h10z" />
    <glyph glyph-name="z" unicode="z" horiz-adv-x="1053" 
d="M293 0q-193 0 -193 134q0 99 126 246l461 550h-520v10l75 160h445q193 0 193 -134q0 -91 -126 -242l-461 -554h352q118 0 148 117h10l150 -71q-60 -216 -308 -216h-352z" />
    <glyph glyph-name="braceleft" unicode="{" horiz-adv-x="901" 
d="M775 -240q-228 0 -370 145q-135 138 -135 355v404h-220v10l81 172h139v404q0 217 135 355q142 145 370 145h76v-10l-76 -160q-145 0 -231 -100q-74 -85 -74 -230v-990q0 -148 72 -230q86 -100 233 -100h76v-10z" />
    <glyph glyph-name="bar" unicode="|" horiz-adv-x="666" 
d="M250 -240v1916l156 74h10v-1916l-156 -74h-10z" />
    <glyph glyph-name="braceright" unicode="}" horiz-adv-x="901" 
d="M50 -240v10l76 160q145 0 231 100q74 85 74 230v990q0 148 -72 230q-86 100 -233 100h-76v10l76 160q228 0 370 -145q135 -138 135 -355v-404h220v-10l-81 -172h-139v-404q0 -217 -135 -355q-142 -145 -370 -145h-76z" />
    <glyph glyph-name="asciitilde" unicode="~" horiz-adv-x="1138" 
d="M150 583q0 361 237 361q134 0 223 -101q73 -83 128 -83q72 0 72 103l168 81h10q0 -361 -237 -361q-134 0 -223 101q-73 83 -128 83q-72 0 -72 -103l-168 -81h-10z" />
    <glyph glyph-name="uni00A0" unicode="&#xa0;" horiz-adv-x="800" 
 />
    <glyph glyph-name="exclamdown" unicode="&#xa1;" 
d="M420 1407.5q0 -50.5 -35 -86.5t-85 -36t-85 36t-35 86.5t35 86.5t85 36t85 -36t35 -86.5zM210 -40h-10v1040l190 90h10v-1040z" />
    <glyph glyph-name="cent" unicode="&#xa2;" horiz-adv-x="1098" 
d="M507 -240v225q-175 30 -285 226q-72 128 -72 339q0 206 72 339q107 197 285 226v175l106 50h10v-223q187 -24 296 -225l-158 -74h-10q-50 100 -128 124v-784q78 24 128 124l217 95h10q-18 -95 -57 -166q-112 -203 -298 -228v-173l-106 -50h-10zM507 162v776
q-70 -28 -116 -120q-41 -82 -41 -268t41 -268q47 -92 116 -120z" />
    <glyph glyph-name="sterling" unicode="&#xa3;" horiz-adv-x="1279" 
d="M150 0v10l75 160h75v428h-150v10l75 160h75v256q0 260 136 392q117 114 279 114q224 0 348 -228l-158 -74h-10q-66 132 -180 132q-112 -1 -160 -73q-55 -84 -55 -263v-256h409v-10l-75 -160h-334v-428h629v-10l-75 -160h-904z" />
    <glyph glyph-name="currency" unicode="&#xa4;" horiz-adv-x="1395" 
d="M1202 746q0 -170 -87 -296l130 -130l-7 -7l-179 -64l-74 73q-118 -76 -288 -76q-176 0 -297 83l-64 -64l-179 64l-7 7l123 123q-81 123 -81 289q0 170 87 296l-129 130l7 7l178 64l74 -73q118 76 288 76t288 -76l74 73l179 -64l7 -7l-130 -130q87 -126 87 -298zM697 426
q137 0 233 103q72 79 72 219q0 126 -72 217q-84 103 -234 103q-139 0 -232 -103q-72 -80 -72 -217q0 -138 72 -219q92 -103 233 -103z" />
    <glyph glyph-name="yen" unicode="&#xa5;" horiz-adv-x="1278" 
d="M516 -40v470h-335v10l81 172h222l-67 148h-236v10l81 172h74l-236 525l175 83h10l268 -608h228l282 608h10l105 -50l-267 -558h184v-10l-81 -172h-190l-71 -148h342v-10l-81 -172h-298v-380l-190 -90h-10zM696 760h-63l31 -70z" />
    <glyph glyph-name="brokenbar" unicode="&#xa6;" horiz-adv-x="666" 
d="M250 -240v827l156 74h10v-827l-156 -74h-10zM406 1750h10v-827l-156 -74h-10v827z" />
    <glyph glyph-name="section" unicode="&#xa7;" horiz-adv-x="1130" 
d="M249 170l158 74h10q45 -94 118 -94q59 0 97 30q46 36 46 99q0 61 -50 88q-51 28 -156 49q-130 26 -211 89q-111 86 -111 255q0 131 115 248l130 -130q-49 -59 -49 -129q0 -73 52 -116q54 -44 156 -60q130 -21 207 -76q108 -77 108 -222q0 -139 -127 -230
q-92 -65 -207 -65q-197 0 -286 190zM881 1340l-158 -74h-10q-45 94 -118 94q-59 0 -97 -30q-46 -36 -46 -99q0 -61 50 -88q51 -28 156 -49q130 -26 211 -89q111 -86 111 -255q0 -131 -115 -248l-130 130q49 59 49 129q0 73 -52 116q-54 44 -156 60q-130 21 -207 76
q-108 77 -108 222q0 139 127 230q92 65 207 65q197 0 286 -190z" />
    <glyph glyph-name="dieresis" unicode="&#xa8;" horiz-adv-x="840" 
d="M450 1407.5q0 50.5 35 86.5t85 36t85 -36t35 -86.5t-35 -86.5t-85 -36t-85 36t-35 86.5zM150 1407.5q0 50.5 35 86.5t85 36t85 -36t35 -86.5t-35 -86.5t-85 -36t-85 36t-35 86.5z" />
    <glyph glyph-name="copyright" unicode="&#xa9;" horiz-adv-x="1401" 
d="M999 632q-11 -69 -39 -126q-81 -164 -255 -164q-164 0 -255 168q-51 95 -51 245q0 152 51 245q90 166 255 166q175 0 267 -189l-109 -53h-26q-47 108 -128 108t-129 -94q-31 -62 -31 -183q0 -122 31 -183q48 -94 127 -94q74 0 123 94l128 60h41zM701 1331q110 0 210 -43
q96 -41 179 -127q80 -83 121 -186q40 -101 40 -221q0 -116 -40 -219q-38 -98 -121 -185q-79 -83 -179 -127q-98 -43 -210 -43q-111 0 -211 43q-96 41 -179 127q-81 84 -121 185t-40 219q0 119 40 221t121 186q81 85 179 127.5t211 42.5zM701 1251q-98 0 -181 -36t-154 -110
q-70 -73 -106 -161t-36 -185v-5q0 -99 36 -188q34 -83 106 -160q70 -74 153 -110q85 -37 182 -37t182 37q83 36 154 110q69 72 104 159t35 189q0 103 -35 191q-34 86 -104 160q-69 73 -154 110q-85 36 -182 36z" />
    <glyph glyph-name="ordfeminine" unicode="&#xaa;" horiz-adv-x="955" 
d="M562 910v40q-39 -30 -88 -30q-103 0 -160 62q-58 64 -58 148q0 88 63 150q60 60 155 60q42 0 78 -23q-5 25 -9 33q-26 55 -72 55h-137v30l46 95h91q123 0 192 -126q39 -71 39 -179v-263l-111 -52h-29zM394 1131q0 -37 21 -61q22 -25 60 -25q36 0 62 26q23 22 23 58
q0 35 -25 61q-25 25 -60 25q-38 0 -59.5 -24.5t-21.5 -59.5zM150 664v10l81 172h574v-10l-81 -172h-574z" />
    <glyph glyph-name="guillemotleft" unicode="&#xab;" horiz-adv-x="1208" 
d="M824 304l-289 488l289 492h10l174 -82l-242 -407l242 -409l-174 -82h-10zM439 304l-289 488l289 492h10l174 -82l-242 -407l242 -409l-174 -82h-10z" />
    <glyph glyph-name="logicalnot" unicode="&#xac;" horiz-adv-x="1214" 
d="M642 402l142 262h-634v10l81 172h833v-10l-207 -434h-215z" />
    <glyph glyph-name="uni00AD" unicode="&#xad;" horiz-adv-x="1214" 
d="M150 664v10l81 172h833v-10l-81 -172h-833z" />
    <glyph glyph-name="registered" unicode="&#xae;" horiz-adv-x="1401" 
d="M701 1331q110 0 210 -43q96 -41 179 -127q80 -83 121 -186q40 -101 40 -221q0 -116 -40 -219q-38 -98 -121 -185q-79 -83 -179 -127q-98 -43 -210 -43q-111 0 -211 43q-96 41 -179 127q-81 84 -121 185t-40 219q0 120 40 221t121 186q80 84 179 127q97 43 211 43z
M701 1251q-98 0 -181 -36t-154 -110q-70 -73 -106 -161t-36 -185v-5q0 -100 36 -188q33 -81 106 -160q23 -25 48 -45v387q0 152 51 246q91 167 255 167q136 0 216 -102q65 -83 65 -185q0 -97 -66 -177q-33 -40 -79 -65l168 -240l13 14q69 72 104 159t35 189q0 103 -35 191
q-34 86 -104 160q-69 73 -154 110q-85 36 -182 36zM564 748v-17h131q82 0 116 38q40 45 40 105q0 71 -41 113q-38 39 -90 39q-73 0 -122 -96q-34 -67 -34 -182zM457 329q30 -19 62 -33q85 -37 182 -37q96 0 182 37q58 25 110 69l-82 -39h-24l-189 270h-134v-216z" />
    <glyph glyph-name="macron" unicode="&#xaf;" horiz-adv-x="1214" 
d="M150 1328v10l81 172h833v-10l-81 -172h-833z" />
    <glyph glyph-name="degree" unicode="&#xb0;" horiz-adv-x="1038" 
d="M691 1130q0 129 -56 200q-42 53 -116 53q-70 0 -115 -53q-58 -68 -58 -200q0 -134 58 -200q46 -53 115 -53q72 0 116 53q56 67 56 200zM150 1133q0 171 118 297q94 100 251 100q156 0 251 -100q118 -126 118 -300t-118 -300q-94 -100 -251 -100t-251 100
q-118 126 -118 303z" />
    <glyph glyph-name="plusminus" unicode="&#xb1;" horiz-adv-x="1214" 
d="M150 243v10l81 172h833v-10l-81 -172h-833zM698 1383v-366h366v-10l-81 -172h-285v-285l-172 -81h-10v366h-366v10l81 172h285v285l172 81h10z" />
    <glyph glyph-name="uni00B2" unicode="&#xb2;" horiz-adv-x="860" 
d="M297 730q-73 0 -110 32t-37 92q0 181 252 290q130 56 130 126q0 54 -25 86q-33 39 -94 39q-76 0 -125 -94h-26l-110 52q99 177 261 177q133 0 204 -81q67 -76 67 -185q0 -142 -206 -239q-106 -50 -146 -87q-42 -39 -42 -64q0 -9 7 -9h230q40 0 54 59h30l99 -47
q-37 -147 -183 -147h-230z" />
    <glyph glyph-name="uni00B3" unicode="&#xb3;" horiz-adv-x="845" 
d="M150 900l110 53h26q46 -108 132 -108q58 0 95 42q32 37 32 93q0 40 -27 69q-29 31 -112 31l-81 78l143 217h-242v36l47 99h248q114 0 114 -94q0 -47 -49 -116l-71 -96q55 -12 102 -53q78 -68 78 -170q0 -117 -74 -191q-78 -78 -207 -78q-170 0 -264 188z" />
    <glyph glyph-name="acute" unicode="&#xb4;" horiz-adv-x="648" 
d="M312 1550h10l176 -84l-221 -316h-10l-117 55z" />
    <glyph glyph-name="uni00B5" unicode="&#xb5;" horiz-adv-x="1203" 
d="M180 -450v1000q0 188 72 339q87 183 259 251h10l75 -149q-121 -43 -174 -173q-42 -104 -42 -268q0 -185 42 -268q66 -132 180 -132t180 132q41 83 41 268v500l190 90h10v-590q0 -209 -71 -339q-126 -231 -350 -231q-127 0 -222 74v-414l-190 -90h-10z" />
    <glyph glyph-name="paragraph" unicode="&#xb6;" horiz-adv-x="1180" 
d="M780 -40v644q-100 -50 -215 -50q-158 0 -273 115q-142 141 -142 376q0 233 143 375q112 110 272 110q166 0 274 -106q141 -143 141 -378v-996l-66 -31v1118h-64v-1149l-60 -28h-10z" />
    <glyph glyph-name="periodcentered" unicode="&#xb7;" 
d="M180 753.5q0 50.5 35 86.5t85 36t85 -36t35 -86.5t-35 -86.5t-85 -36t-85 36t-35 86.5z" />
    <glyph glyph-name="cedilla" unicode="&#xb8;" horiz-adv-x="609" 
d="M214 278q245 -129 245 -320q0 -137 -109 -244h-10l-190 90q134 87 134 208q0 101 -113 216z" />
    <glyph glyph-name="uni00B9" unicode="&#xb9;" horiz-adv-x="672" 
d="M272 710v666l-122 -108v170l138 112q68 0 101 -32t33 -86v-668l-114 -54h-36z" />
    <glyph glyph-name="ordmasculine" unicode="&#xba;" horiz-adv-x="955" 
d="M388 1225q0 -88 18 -125q28 -55 72 -55t72 55q19 38 19 125q0 86 -19 125q-27 55 -72 55q-46 0 -72 -54q-18 -37 -18 -126zM247 1225q0 108 39 179q69 126 192 126q124 0 192 -126q39 -72 39 -179q0 -108 -39 -179q-69 -126 -192 -126q-121 0 -191 124q-40 69 -40 181z
M150 664v10l81 172h574v-10l-81 -172h-574z" />
    <glyph glyph-name="guillemotright" unicode="&#xbb;" horiz-adv-x="1208" 
d="M384 304h-10l-174 82l242 409l-242 407l174 82h10l289 -492zM769 304h-10l-174 82l242 409l-242 407l174 82h10l289 -492z" />
    <glyph glyph-name="onequarter" unicode="&#xbc;" horiz-adv-x="1470" 
d="M272 710v666l-122 -108v170l138 112q68 0 101 -32t33 -86v-668l-114 -54h-36zM1044 -40v199h-221q-121 0 -121 93q0 46 29 88l324 460q71 0 105 -32.5t34 -85.5v-388h86v-36l-47 -99h-39v-145l-114 -54h-36zM1044 294v262l-180 -262h180zM352 -40l-141 68l709 1522h10
l141 -68l-709 -1522h-10z" />
    <glyph glyph-name="onehalf" unicode="&#xbd;" horiz-adv-x="1553" 
d="M940 0q-73 0 -110 32t-37 92q0 181 252 290q130 56 130 126q0 54 -25 86q-33 39 -94 39q-76 0 -125 -94h-26l-110 52q99 177 261 177q133 0 204 -81q67 -76 67 -185q0 -142 -206 -239q-106 -50 -146 -87q-42 -39 -42 -64q0 -9 7 -9h230q40 0 54 59h30l99 -47
q-37 -147 -183 -147h-230zM272 710v666l-122 -108v170l138 112q68 0 101 -32t33 -86v-668l-114 -54h-36zM352 -40l-141 68l709 1522h10l141 -68l-709 -1522h-10z" />
    <glyph glyph-name="threequarters" unicode="&#xbe;" horiz-adv-x="1666" 
d="M1240 -40v199h-221q-121 0 -121 93q0 46 29 88l324 460q71 0 105 -32.5t34 -85.5v-388h86v-36l-47 -99h-39v-145l-114 -54h-36zM1240 294v262l-180 -262h180zM150 900l110 53h26q46 -108 132 -108q58 0 95 42q32 37 32 93q0 40 -27 69q-29 31 -112 31l-81 78l143 217
h-242v36l47 99h248q114 0 114 -94q0 -47 -49 -116l-71 -96q55 -12 102 -53q78 -68 78 -170q0 -117 -74 -191q-78 -78 -207 -78q-170 0 -264 188zM548 -40l-141 68l709 1522h10l141 -68l-709 -1522h-10z" />
    <glyph glyph-name="questiondown" unicode="&#xbf;" horiz-adv-x="1228" 
d="M1108 288q-168 -308 -466 -308q-239 0 -370 145q-122 136 -122 337q0 296 345 455q74 33 74 139l193 93h10q0 -270 -175 -361q-249 -129 -249 -327q0 -138 67 -215q84 -96 227 -96q183 0 294 216h10zM775 1407.5q0 -50.5 -35 -86.5t-85 -36t-85 36t-35 86.5t35 86.5
t85 36t85 -36t35 -86.5z" />
    <glyph glyph-name="Agrave" unicode="&#xc0;" horiz-adv-x="1454" 
d="M180 -40v795q0 291 96 467q168 308 466 308q299 0 466 -308q96 -177 96 -467q0 -286 -96 -467q-135 -254 -352 -328h-10l-75 149q178 84 265 257q56 111 66 304h-722v-620l-190 -90h-10zM382 840h720q-10 192 -66 304q-108 216 -294 216q-185 0 -294 -216
q-56 -112 -66 -304zM626 1966h10l162 -345l-117 -55h-10l-221 316z" />
    <glyph glyph-name="Aacute" unicode="&#xc1;" horiz-adv-x="1410" 
d="M180 -40v795q0 291 96 467q168 308 466 308q299 0 466 -308q96 -177 96 -467q0 -286 -96 -467q-135 -254 -352 -328h-10l-75 149q178 84 265 257q56 111 66 304h-722v-620l-190 -90h-10zM382 840h720q-10 192 -66 304q-108 216 -294 216q-185 0 -294 -216
q-56 -112 -66 -304zM847 1966h10l176 -84l-221 -316h-10l-117 55z" />
    <glyph glyph-name="Acircumflex" unicode="&#xc2;" horiz-adv-x="1454" 
d="M180 -40v795q0 291 96 467q168 308 466 308q299 0 466 -308q96 -177 96 -467q0 -286 -96 -467q-135 -254 -352 -328h-10l-75 149q178 84 265 257q56 111 66 304h-722v-620l-190 -90h-10zM382 840h720q-10 192 -66 304q-108 216 -294 216q-185 0 -294 -216
q-56 -112 -66 -304zM464 1621l153 261l176 84h10l213 -345l-116 -55h-10l-150 208l-148 -208h-10z" />
    <glyph glyph-name="Atilde" unicode="&#xc3;" horiz-adv-x="1454" 
d="M180 -40v795q0 291 96 467q168 308 466 308q299 0 466 -308q96 -177 96 -467q0 -286 -96 -467q-135 -254 -352 -328h-10l-75 149q178 84 265 257q56 111 66 304h-722v-620l-190 -90h-10zM382 840h720q-10 192 -66 304q-108 216 -294 216q-185 0 -294 -216
q-56 -112 -66 -304zM501 1638q0 286 141 286q64 0 137 -70q51 -49 75 -49q34 0 34 72l110 47h6q0 -286 -141 -286q-64 0 -137 70q-51 49 -75 49q-34 0 -34 -72l-110 -47h-6z" />
    <glyph glyph-name="Adieresis" unicode="&#xc4;" horiz-adv-x="1454" 
d="M180 -40v795q0 291 96 467q168 308 466 308q299 0 466 -308q96 -177 96 -467q0 -286 -96 -467q-135 -254 -352 -328h-10l-75 149q178 84 265 257q56 111 66 304h-722v-620l-190 -90h-10zM382 840h720q-10 192 -66 304q-108 216 -294 216q-185 0 -294 -216
q-56 -112 -66 -304zM772 1802.5q0 50.5 35 86.5t85 36t85 -36t35 -86.5t-35 -86.5t-85 -36t-85 36t-35 86.5zM472 1802.5q0 50.5 35 86.5t85 36t85 -36t35 -86.5t-35 -86.5t-85 -36t-85 36t-35 86.5z" />
    <glyph glyph-name="Aring" unicode="&#xc5;" horiz-adv-x="1454" 
d="M180 -40v795q0 291 96 467q168 308 466 308q299 0 466 -308q96 -177 96 -467q0 -286 -96 -467q-135 -254 -352 -328h-10l-75 149q178 84 265 257q56 111 66 304h-722v-620l-190 -90h-10zM382 840h720q-10 192 -66 304q-108 216 -294 216q-185 0 -294 -216
q-56 -112 -66 -304zM735 1588q-80 0 -135 49q-62 55 -62 140q0 83 62 140q53 49 135 49q80 0 135 -49q62 -55 62 -140t-62 -140q-55 -49 -135 -49zM735 1862q-34 0 -54 -21t-20 -64q0 -46 21 -65q22 -20 52 -20q31 0 53 22q20 19 20 63q0 45 -22 66q-20 19 -50 19z" />
    <glyph glyph-name="AE" unicode="&#xc6;" horiz-adv-x="2104" 
d="M382 840h720q-10 192 -66 304q-108 216 -294 216q-185 0 -294 -216q-56 -112 -66 -304zM180 -40v795q0 291 96 467q168 308 466 308q295 0 461 -299q167 299 461 299h268v-10l-75 -160h-193q-186 0 -294 -216q-56 -112 -66 -304h568v-10l-75 -160h-495v-456q0 -44 50 -44
h394q118 0 148 117h10l150 -71q-60 -216 -308 -216h-394q-250 0 -250 214v456h-722v-620l-190 -90h-10z" />
    <glyph glyph-name="Ccedilla" unicode="&#xc7;" horiz-adv-x="1366" 
d="M1246 474q-19 -96 -68 -186q-149 -274 -402 -304q73 -86 73 -190q0 -137 -109 -244h-10l-190 90q134 87 134 208q0 64 -48 139q-237 39 -380 301q-96 176 -96 467t96 467q168 308 466 308q299 0 466 -308l-162 -78h-10q-108 216 -294 216q-185 0 -294 -216
q-68 -135 -68 -389q0 -257 68 -389q111 -216 294 -216q185 0 294 216l230 108h10z" />
    <glyph glyph-name="Egrave" unicode="&#xc8;" horiz-adv-x="1182" 
d="M430 0q-250 0 -250 214v541q0 291 96 467q168 308 466 308h268v-10l-75 -160h-193q-186 0 -294 -216q-56 -112 -66 -304h568v-10l-75 -160h-495v-456q0 -44 50 -44h394q118 0 148 117h10l150 -71q-60 -216 -308 -216h-394zM536 1966h10l162 -345l-117 -55h-10l-221 316z
" />
    <glyph glyph-name="Eacute" unicode="&#xc9;" horiz-adv-x="1182" 
d="M430 0q-250 0 -250 214v541q0 291 96 467q168 308 466 308h268v-10l-75 -160h-193q-186 0 -294 -216q-56 -112 -66 -304h568v-10l-75 -160h-495v-456q0 -44 50 -44h394q118 0 148 117h10l150 -71q-60 -216 -308 -216h-394zM714 1966h10l176 -84l-221 -316h-10l-117 55z
" />
    <glyph glyph-name="Ecircumflex" unicode="&#xca;" horiz-adv-x="1182" 
d="M430 0q-250 0 -250 214v541q0 291 96 467q168 308 466 308h268v-10l-75 -160h-193q-186 0 -294 -216q-56 -112 -66 -304h568v-10l-75 -160h-495v-456q0 -44 50 -44h394q118 0 148 117h10l150 -71q-60 -216 -308 -216h-394zM343 1621l153 261l176 84h10l213 -345l-116 -55
h-10l-150 208l-148 -208h-10z" />
    <glyph glyph-name="Edieresis" unicode="&#xcb;" horiz-adv-x="1182" 
d="M430 0q-250 0 -250 214v541q0 291 96 467q168 308 466 308h268v-10l-75 -160h-193q-186 0 -294 -216q-56 -112 -66 -304h568v-10l-75 -160h-495v-456q0 -44 50 -44h394q118 0 148 117h10l150 -71q-60 -216 -308 -216h-394zM647 1802.5q0 50.5 35 86.5t85 36t85 -36
t35 -86.5t-35 -86.5t-85 -36t-85 36t-35 86.5zM347 1802.5q0 50.5 35 86.5t85 36t85 -36t35 -86.5t-35 -86.5t-85 -36t-85 36t-35 86.5z" />
    <glyph glyph-name="Igrave" unicode="&#xcc;" 
d="M242 1966h10l162 -345l-117 -55h-10l-221 316zM200 -40v1500l190 90h10v-1500l-190 -90h-10z" />
    <glyph glyph-name="Iacute" unicode="&#xcd;" 
d="M348 1966h10l176 -84l-221 -316h-10l-117 55zM200 -40v1500l190 90h10v-1500l-190 -90h-10z" />
    <glyph glyph-name="Icircumflex" unicode="&#xce;" 
d="M200 -40v1500l190 90h10v-1500l-190 -90h-10zM24 1621l152 261l176 84h10l214 -345l-117 -55h-10l-150 208l-148 -208h-10z" />
    <glyph glyph-name="Idieresis" unicode="&#xcf;" 
d="M200 -40v1500l190 90h10v-1500l-190 -90h-10zM330 1802.5q0 50.5 35 86.5t85 36t85 -36t35 -86.5t-35 -86.5t-85 -36t-85 36t-35 86.5zM30 1802.5q0 50.5 35 86.5t85 36t85 -36t35 -86.5t-35 -86.5t-85 -36t-85 36t-35 86.5z" />
    <glyph glyph-name="Eth" unicode="&#xd0;" horiz-adv-x="1454" 
d="M742 170q187 0 292 222q70 148 70 363q0 253 -68 389q-108 216 -294 216q-185 0 -294 -216q-56 -111 -66 -304h469v-10l-75 -160h-396v-456q0 -44 50 -44h312zM430 0q-250 0 -250 214v456h-130v10l75 160h57q12 232 94 382q168 308 466 308q299 0 466 -308
q96 -177 96 -467q0 -251 -98 -441q-162 -314 -464 -314h-312z" />
    <glyph glyph-name="Ntilde" unicode="&#xd1;" horiz-adv-x="1454" 
d="M180 -40v795q0 291 96 467q168 308 466 308q299 0 466 -308q96 -176 96 -467q0 -286 -96 -467q-135 -254 -352 -328h-10l-75 149q178 84 265 257q68 133 68 389q0 254 -68 389q-108 216 -294 216t-294 -216q-68 -135 -68 -389v-705l-190 -90h-10zM501 1638q0 286 141 286
q64 0 137 -70q51 -49 75 -49q34 0 34 72l110 47h6q0 -286 -141 -286q-64 0 -137 70q-51 49 -75 49q-34 0 -34 -72l-110 -47h-6z" />
    <glyph glyph-name="Ograve" unicode="&#xd2;" horiz-adv-x="1424" 
d="M350 755q0 -257 68 -389q111 -216 294 -216q185 0 294 216q68 135 68 389t-68 389q-108 216 -294 216q-185 0 -294 -216q-68 -135 -68 -389zM150 755q0 291 96 467q168 308 466 308q299 0 466 -308q96 -177 96 -467q0 -291 -96 -467q-167 -308 -466 -308q-298 0 -466 308
q-96 176 -96 467zM596 1966h10l162 -345l-117 -55h-10l-221 316z" />
    <glyph glyph-name="Oacute" unicode="&#xd3;" horiz-adv-x="1424" 
d="M350 755q0 -257 68 -389q111 -216 294 -216q185 0 294 216q68 135 68 389t-68 389q-108 216 -294 216q-185 0 -294 -216q-68 -135 -68 -389zM150 755q0 291 96 467q168 308 466 308q299 0 466 -308q96 -177 96 -467q0 -291 -96 -467q-167 -308 -466 -308q-298 0 -466 308
q-96 176 -96 467zM817 1966h10l176 -84l-221 -316h-10l-117 55z" />
    <glyph glyph-name="Ocircumflex" unicode="&#xd4;" horiz-adv-x="1424" 
d="M350 755q0 -257 68 -389q111 -216 294 -216q185 0 294 216q68 135 68 389t-68 389q-108 216 -294 216q-185 0 -294 -216q-68 -135 -68 -389zM150 755q0 291 96 467q168 308 466 308q299 0 466 -308q96 -177 96 -467q0 -291 -96 -467q-167 -308 -466 -308q-298 0 -466 308
q-96 176 -96 467zM434 1621l153 261l176 84h10l213 -345l-116 -55h-10l-150 208l-148 -208h-10z" />
    <glyph glyph-name="Otilde" unicode="&#xd5;" horiz-adv-x="1424" 
d="M350 755q0 -257 68 -389q111 -216 294 -216q185 0 294 216q68 135 68 389t-68 389q-108 216 -294 216q-185 0 -294 -216q-68 -135 -68 -389zM150 755q0 291 96 467q168 308 466 308q299 0 466 -308q96 -177 96 -467q0 -291 -96 -467q-167 -308 -466 -308q-298 0 -466 308
q-96 176 -96 467zM471 1638q0 286 141 286q64 0 137 -70q51 -49 75 -49q34 0 34 72l110 47h6q0 -286 -141 -286q-64 0 -137 70q-51 49 -75 49q-34 0 -34 -72l-110 -47h-6z" />
    <glyph glyph-name="Odieresis" unicode="&#xd6;" horiz-adv-x="1424" 
d="M350 755q0 -257 68 -389q111 -216 294 -216q185 0 294 216q68 135 68 389t-68 389q-108 216 -294 216q-185 0 -294 -216q-68 -135 -68 -389zM150 755q0 291 96 467q168 308 466 308q299 0 466 -308q96 -177 96 -467q0 -291 -96 -467q-167 -308 -466 -308q-298 0 -466 308
q-96 176 -96 467zM742 1802.5q0 50.5 35 86.5t85 36t85 -36t35 -86.5t-35 -86.5t-85 -36t-85 36t-35 86.5zM442 1802.5q0 50.5 35 86.5t85 36t85 -36t35 -86.5t-35 -86.5t-85 -36t-85 36t-35 86.5z" />
    <glyph glyph-name="multiply" unicode="&#xd7;" horiz-adv-x="1075" 
d="M150 1014l7 7l179 64l201 -201l202 201l179 -64l7 -7l-259 -259l259 -259l-7 -7l-179 -64l-202 201l-201 -201l-179 64l-7 7l259 259z" />
    <glyph glyph-name="Oslash" unicode="&#xd8;" horiz-adv-x="1424" 
d="M411 -40h-10l-104 50l58 125q-60 63 -109 153q-96 176 -96 467t96 467q168 308 466 308q145 0 258 -72l43 92h10l104 -51l-58 -124q60 -63 109 -153q96 -177 96 -467t-96 -467q-167 -308 -466 -308q-144 0 -258 72zM350 755q0 -259 68 -389q12 -23 24 -43l452 971
q-79 66 -182 66q-185 0 -294 -216q-68 -135 -68 -389zM982 1188l-451 -971q79 -67 181 -67q185 0 294 216q68 135 68 389q0 259 -68 389q-12 23 -24 44z" />
    <glyph glyph-name="Ugrave" unicode="&#xd9;" horiz-adv-x="1474" 
d="M1274 1550v-795q0 -291 -96 -467q-168 -308 -466 -308q-299 0 -466 308q-96 176 -96 467q0 286 96 467q135 254 352 328h10l75 -149q-178 -84 -265 -257q-68 -133 -68 -389q0 -254 68 -389q108 -216 294 -216q185 0 294 216q68 135 68 389v705l190 90h10zM696 1966h10
l162 -345l-117 -55h-10l-221 316z" />
    <glyph glyph-name="Uacute" unicode="&#xda;" horiz-adv-x="1474" 
d="M1274 1550v-795q0 -291 -96 -467q-168 -308 -466 -308q-299 0 -466 308q-96 176 -96 467q0 286 96 467q135 254 352 328h10l75 -149q-178 -84 -265 -257q-68 -133 -68 -389q0 -254 68 -389q108 -216 294 -216q185 0 294 216q68 135 68 389v705l190 90h10zM917 1966h10
l176 -84l-221 -316h-10l-117 55z" />
    <glyph glyph-name="Ucircumflex" unicode="&#xdb;" horiz-adv-x="1474" 
d="M1274 1550v-795q0 -291 -96 -467q-168 -308 -466 -308q-299 0 -466 308q-96 176 -96 467q0 286 96 467q135 254 352 328h10l75 -149q-178 -84 -265 -257q-68 -133 -68 -389q0 -254 68 -389q108 -216 294 -216q185 0 294 216q68 135 68 389v705l190 90h10zM534 1621
l153 261l176 84h10l213 -345l-116 -55h-10l-150 208l-148 -208h-10z" />
    <glyph glyph-name="Udieresis" unicode="&#xdc;" horiz-adv-x="1474" 
d="M1274 1550v-795q0 -291 -96 -467q-168 -308 -466 -308q-299 0 -466 308q-96 176 -96 467q0 286 96 467q135 254 352 328h10l75 -149q-178 -84 -265 -257q-68 -133 -68 -389q0 -254 68 -389q108 -216 294 -216q185 0 294 216q68 135 68 389v705l190 90h10zM842 1802.5
q0 50.5 35 86.5t85 36t85 -36t35 -86.5t-35 -86.5t-85 -36t-85 36t-35 86.5zM542 1802.5q0 50.5 35 86.5t85 36t85 -36t35 -86.5t-35 -86.5t-85 -36t-85 36t-35 86.5z" />
    <glyph glyph-name="Yacute" unicode="&#xdd;" horiz-adv-x="1372" 
d="M972 -40v570q-126 -146 -315 -146q-258 0 -418 204q-119 152 -119 366q0 230 121 388q101 132 227 208h10l75 -149q-87 -59 -140 -137q-93 -137 -93 -310q0 -178 98.5 -289t238.5 -111q135 0 226 104q89 102 89 236v566l190 90h10v-1500l-190 -90h-10zM817 1966h10
l176 -84l-221 -316h-10l-117 55z" />
    <glyph glyph-name="Thorn" unicode="&#xde;" horiz-adv-x="1394" 
d="M400 558v-85h312q188 0 269 92q93 106 93 243q0 162 -96 262q-90 93 -216 93q-184 0 -294 -216q-68 -134 -68 -389zM200 -40v1500l190 90h10v-377q147 160 362 160q249 0 393 -184q119 -152 119 -341q0 -172 -121 -321q-150 -184 -441 -184h-312v-253l-190 -90h-10z" />
    <glyph glyph-name="germandbls" unicode="&#xdf;" horiz-adv-x="1249" 
d="M180 -40v1000q0 207 72 339q125 231 349 231q177 0 285 -96q124 -112 124 -289t-169 -281q59 -13 113 -59q145 -122 145 -333q0 -192 -147 -344q-140 -145 -357 -148h-80v10l74 159q121 0 219 99q88 88 88 220q0 129 -57 199q-78 96 -234 96h-81v10l71 158q110 0 170 67
q45 50 45 149q0 110 -59 164q-63 59 -139 59q-117 0 -191 -142q-41 -79 -41 -253v-925l-190 -90h-10z" />
    <glyph glyph-name="agrave" unicode="&#xe0;" horiz-adv-x="1060" 
d="M710 -40v140q-86 -119 -215 -120q-187 0 -291 113t-104 267q0 160 113 272q109 108 282 108q123 0 211 -110q-18 151 -37 188q-67 132 -180 132h-233v10l76 160h157q224 0 349 -231q72 -132 72 -339v-500l-190 -90h-10zM294 362q0 -90 54.5 -151t147.5 -61q92 0 154 63
q58 59 58 145q0 90 -62 151t-149 61q-93 0 -149 -62q-54 -61 -54 -146zM431 1566h10l162 -345l-117 -55h-10l-221 316z" />
    <glyph glyph-name="aacute" unicode="&#xe1;" horiz-adv-x="1060" 
d="M710 -40v140q-86 -119 -215 -120q-187 0 -291 113t-104 267q0 160 113 272q109 108 282 108q123 0 211 -110q-18 151 -37 188q-67 132 -180 132h-233v10l76 160h157q224 0 349 -231q72 -132 72 -339v-500l-190 -90h-10zM294 362q0 -90 54.5 -151t147.5 -61q92 0 154 63
q58 59 58 145q0 90 -62 151t-149 61q-93 0 -149 -62q-54 -61 -54 -146zM663 1566h10l176 -84l-221 -316h-10l-117 55z" />
    <glyph glyph-name="acircumflex" unicode="&#xe2;" horiz-adv-x="1060" 
d="M710 -40v140q-86 -119 -215 -120q-187 0 -291 113t-104 267q0 160 113 272q109 108 282 108q123 0 211 -110q-18 151 -37 188q-67 132 -180 132h-233v10l76 160h157q224 0 349 -231q72 -132 72 -339v-500l-190 -90h-10zM294 362q0 -90 54.5 -151t147.5 -61q92 0 154 63
q58 59 58 145q0 90 -62 151t-149 61q-93 0 -149 -62q-54 -61 -54 -146zM274 1221l153 261l176 84h10l213 -345l-116 -55h-10l-150 208l-148 -208h-10z" />
    <glyph glyph-name="atilde" unicode="&#xe3;" horiz-adv-x="1060" 
d="M710 -40v140q-86 -119 -215 -120q-187 0 -291 113t-104 267q0 160 113 272q109 108 282 108q123 0 211 -110q-18 151 -37 188q-67 132 -180 132h-233v10l76 160h157q224 0 349 -231q72 -132 72 -339v-500l-190 -90h-10zM294 362q0 -90 54.5 -151t147.5 -61q92 0 154 63
q58 59 58 145q0 90 -62 151t-149 61q-93 0 -149 -62q-54 -61 -54 -146zM322 1232q0 286 141 286q64 0 137 -70q51 -49 75 -49q34 0 34 72l110 47h6q0 -286 -141 -286q-64 0 -137 70q-51 49 -75 49q-34 0 -34 -72l-110 -47h-6z" />
    <glyph glyph-name="adieresis" unicode="&#xe4;" horiz-adv-x="1060" 
d="M710 -40v140q-86 -119 -215 -120q-187 0 -291 113t-104 267q0 160 113 272q109 108 282 108q123 0 211 -110q-18 151 -37 188q-67 132 -180 132h-233v10l76 160h157q224 0 349 -231q72 -132 72 -339v-500l-190 -90h-10zM294 362q0 -90 54.5 -151t147.5 -61q92 0 154 63
q58 59 58 145q0 90 -62 151t-149 61q-93 0 -149 -62q-54 -61 -54 -146zM577 1407.5q0 50.5 35 86.5t85 36t85 -36t35 -86.5t-35 -86.5t-85 -36t-85 36t-35 86.5zM277 1407.5q0 50.5 35 86.5t85 36t85 -36t35 -86.5t-35 -86.5t-85 -36t-85 36t-35 86.5z" />
    <glyph glyph-name="aring" unicode="&#xe5;" horiz-adv-x="1060" 
d="M710 -40v140q-86 -119 -215 -120q-187 0 -291 113t-104 267q0 160 113 272q109 108 282 108q123 0 211 -110q-18 151 -37 188q-67 132 -180 132h-233v10l76 160h157q224 0 349 -231q72 -132 72 -339v-500l-190 -90h-10zM294 362q0 -90 54.5 -151t147.5 -61q92 0 154 63
q58 59 58 145q0 90 -62 151t-149 61q-93 0 -149 -62q-54 -61 -54 -146zM550 1188q-80 0 -135 49q-62 55 -62 140q0 83 62 140q53 49 135 49q80 0 135 -49q62 -55 62 -140t-62 -140q-55 -49 -135 -49zM550 1462q-34 0 -54 -21t-20 -64q0 -46 21 -65q22 -20 52 -20q31 0 53 22
q20 19 20 63q0 45 -22 66q-20 19 -50 19z" />
    <glyph glyph-name="ae" unicode="&#xe6;" horiz-adv-x="1688" 
d="M294 362q0 -90 54.5 -151t147.5 -61q92 0 154 63q58 59 58 145q0 90 -62 151t-149 61q-93 0 -149 -62q-54 -61 -54 -146zM710 -40v140q-86 -119 -215 -120q-187 0 -291 113t-104 267q0 160 113 272q109 108 282 108q123 0 211 -110q-18 151 -37 188q-67 132 -180 132
h-233v10l76 160h157q200 0 321 -184q121 184 321 184q223 0 349 -230q31 -57 50 -133l-580 -472q67 -135 183 -135q113 0 178 132l217 95h10q-18 -95 -57 -166q-127 -231 -350 -231q-125 0 -221 75v-5l-190 -90h-10zM912 473l399 345q-65 132 -180 132q-113 0 -180 -132
q-41 -82 -41 -268q0 -41 2 -77z" />
    <glyph glyph-name="ccedilla" unicode="&#xe7;" horiz-adv-x="1098" 
d="M978 377q-18 -95 -57 -166q-108 -197 -287 -226q74 -86 74 -191q0 -137 -109 -244h-10l-190 90q134 87 134 208q0 67 -51 142q-158 39 -260 221q-72 128 -72 339q0 206 72 339q125 231 349 231t348 -228l-158 -74h-10q-66 132 -180 132t-180 -132q-41 -83 -41 -268
q0 -186 41 -268q68 -132 180 -132q114 0 180 132l217 95h10z" />
    <glyph glyph-name="egrave" unicode="&#xe8;" horiz-adv-x="1128" 
d="M978 377q-18 -95 -57 -166q-127 -231 -350 -231q-220 0 -349 231q-72 129 -72 339q0 207 72 339q125 231 349 231q223 0 349 -230q31 -57 50 -133l-580 -472q67 -135 183 -135q113 0 178 132l217 95h10zM352 473l399 345q-65 132 -180 132q-113 0 -180 -132
q-41 -82 -41 -268q0 -41 2 -77zM451 1566h10l162 -345l-117 -55h-10l-221 316z" />
    <glyph glyph-name="eacute" unicode="&#xe9;" horiz-adv-x="1128" 
d="M978 377q-18 -95 -57 -166q-127 -231 -350 -231q-220 0 -349 231q-72 129 -72 339q0 207 72 339q125 231 349 231q223 0 349 -230q31 -57 50 -133l-580 -472q67 -135 183 -135q113 0 178 132l217 95h10zM352 473l399 345q-65 132 -180 132q-113 0 -180 -132
q-41 -82 -41 -268q0 -41 2 -77zM683 1566h10l176 -84l-221 -316h-10l-117 55z" />
    <glyph glyph-name="ecircumflex" unicode="&#xea;" horiz-adv-x="1128" 
d="M978 377q-18 -95 -57 -166q-127 -231 -350 -231q-220 0 -349 231q-72 129 -72 339q0 207 72 339q125 231 349 231q223 0 349 -230q31 -57 50 -133l-580 -472q67 -135 183 -135q113 0 178 132l217 95h10zM352 473l399 345q-65 132 -180 132q-113 0 -180 -132
q-41 -82 -41 -268q0 -41 2 -77zM294 1221l153 261l176 84h10l213 -345l-116 -55h-10l-150 208l-148 -208h-10z" />
    <glyph glyph-name="edieresis" unicode="&#xeb;" horiz-adv-x="1128" 
d="M978 377q-18 -95 -57 -166q-127 -231 -350 -231q-220 0 -349 231q-72 129 -72 339q0 207 72 339q125 231 349 231q223 0 349 -230q31 -57 50 -133l-580 -472q67 -135 183 -135q113 0 178 132l217 95h10zM352 473l399 345q-65 132 -180 132q-113 0 -180 -132
q-41 -82 -41 -268q0 -41 2 -77zM597 1407.5q0 50.5 35 86.5t85 36t85 -36t35 -86.5t-35 -86.5t-85 -36t-85 36t-35 86.5zM297 1407.5q0 50.5 35 86.5t85 36t85 -36t35 -86.5t-35 -86.5t-85 -36t-85 36t-35 86.5z" />
    <glyph glyph-name="igrave" unicode="&#xec;" 
d="M200 -40v1090l190 90h10v-1090l-190 -90h-10zM242 1566h10l162 -345l-117 -55h-10l-221 316z" />
    <glyph glyph-name="iacute" unicode="&#xed;" 
d="M348 1566h10l176 -84l-221 -316h-10l-117 55zM200 -40v1090l190 90h10v-1090l-190 -90h-10z" />
    <glyph glyph-name="icircumflex" unicode="&#xee;" 
d="M24 1221l153 261l176 84h10l213 -345l-116 -55h-10l-150 208l-148 -208h-10zM200 -40v1090l190 90h10v-1090l-190 -90h-10z" />
    <glyph glyph-name="idieresis" unicode="&#xef;" 
d="M200 -40v1090l190 90h10v-1090l-190 -90h-10zM330 1407.5q0 50.5 35 86.5t85 36t85 -36t35 -86.5t-35 -86.5t-85 -36t-85 36t-35 86.5zM30 1407.5q0 50.5 35 86.5t85 36t85 -36t35 -86.5t-35 -86.5t-85 -36t-85 36t-35 86.5z" />
    <glyph glyph-name="eth" unicode="&#xf0;" horiz-adv-x="1180" 
d="M150 450q0 163 73 283q114 187 348 187q126 0 217 -55q-11 176 -65 282l-144 -108h-10l-157 68l222 166q-73 80 -175 128l75 149h10q136 -47 240 -164l101 75h10l157 -68l-177 -133q11 -18 21 -38q96 -192 96 -467v-305q0 -167 -73 -283q-118 -187 -348 -187
q-229 0 -348 187q-73 115 -73 283zM350 450q0 -124 51 -202q65 -98 170 -98t170 98q51 78 51 202q0 125 -51 202q-65 98 -170 98t-170 -98q-51 -76 -51 -202z" />
    <glyph glyph-name="ntilde" unicode="&#xf1;" horiz-adv-x="1143" 
d="M150 -40v590q0 208 72 339q125 231 349 231t349 -231q73 -133 73 -339q0 -192 -72 -339q-87 -183 -259 -251h-10l-75 149q121 43 174 173q42 104 42 268q0 185 -42 268q-66 132 -180 132t-180 -132q-41 -83 -41 -268v-500l-190 -90h-10zM342 1232q0 286 141 286
q64 0 137 -70q51 -49 75 -49q34 0 34 72l110 47h6q0 -286 -141 -286q-64 0 -137 70q-51 49 -75 49q-34 0 -34 -72l-110 -47h-6z" />
    <glyph glyph-name="ograve" unicode="&#xf2;" horiz-adv-x="1143" 
d="M350 550q0 -186 41 -268q66 -132 180 -132t180 132q42 83 42 268t-42 268q-65 132 -180 132t-181 -133q-40 -81 -40 -267zM150 550q0 208 72 339q125 231 349 231t349 -231q73 -133 73 -339q0 -209 -72 -339q-127 -231 -350 -231q-220 0 -349 231q-72 129 -72 339z
M451 1566h10l162 -345l-117 -55h-10l-221 316z" />
    <glyph glyph-name="oacute" unicode="&#xf3;" horiz-adv-x="1143" 
d="M350 550q0 -186 41 -268q66 -132 180 -132t180 132q42 83 42 268t-42 268q-65 132 -180 132t-181 -133q-40 -81 -40 -267zM150 550q0 208 72 339q125 231 349 231t349 -231q73 -133 73 -339q0 -209 -72 -339q-127 -231 -350 -231q-220 0 -349 231q-72 129 -72 339z
M683 1566h10l176 -84l-221 -316h-10l-117 55z" />
    <glyph glyph-name="ocircumflex" unicode="&#xf4;" horiz-adv-x="1143" 
d="M350 550q0 -186 41 -268q66 -132 180 -132t180 132q42 83 42 268t-42 268q-65 132 -180 132t-181 -133q-40 -81 -40 -267zM150 550q0 208 72 339q125 231 349 231t349 -231q73 -133 73 -339q0 -209 -72 -339q-127 -231 -350 -231q-220 0 -349 231q-72 129 -72 339z
M294 1221l153 261l176 84h10l213 -345l-116 -55h-10l-150 208l-148 -208h-10z" />
    <glyph glyph-name="otilde" unicode="&#xf5;" horiz-adv-x="1143" 
d="M350 550q0 -186 41 -268q66 -132 180 -132t180 132q42 83 42 268t-42 268q-65 132 -180 132t-181 -133q-40 -81 -40 -267zM150 550q0 208 72 339q125 231 349 231t349 -231q73 -133 73 -339q0 -209 -72 -339q-127 -231 -350 -231q-220 0 -349 231q-72 129 -72 339z
M342 1232q0 286 141 286q64 0 137 -70q51 -49 75 -49q34 0 34 72l110 47h6q0 -286 -141 -286q-64 0 -137 70q-51 49 -75 49q-34 0 -34 -72l-110 -47h-6z" />
    <glyph glyph-name="odieresis" unicode="&#xf6;" horiz-adv-x="1143" 
d="M350 550q0 -186 41 -268q66 -132 180 -132t180 132q42 83 42 268t-42 268q-65 132 -180 132t-181 -133q-40 -81 -40 -267zM150 550q0 208 72 339q125 231 349 231t349 -231q73 -133 73 -339q0 -209 -72 -339q-127 -231 -350 -231q-220 0 -349 231q-72 129 -72 339z
M597 1407.5q0 50.5 35 86.5t85 36t85 -36t35 -86.5t-35 -86.5t-85 -36t-85 36t-35 86.5zM297 1407.5q0 50.5 35 86.5t85 36t85 -36t35 -86.5t-35 -86.5t-85 -36t-85 36t-35 86.5z" />
    <glyph glyph-name="divide" unicode="&#xf7;" horiz-adv-x="1214" 
d="M488 1087.5q0 50.5 35 86.5t85 36t85 -36t35 -86.5t-35 -86.5t-85 -36t-85 36t-35 86.5zM488 427.5q0 50.5 35 86.5t85 36t85 -36t35 -86.5t-35 -86.5t-85 -36t-85 36t-35 86.5zM150 664v10l81 172h833v-10l-81 -172h-833z" />
    <glyph glyph-name="oslash" unicode="&#xf8;" horiz-adv-x="1143" 
d="M365 -40h-10l-104 50l45 96q-40 45 -74 105q-72 127 -72 339q0 207 72 339q126 231 349 231q97 0 175 -44l30 64h10l105 -51l-44 -94q40 -45 73 -106q73 -135 73 -339q0 -208 -72 -339q-127 -231 -350 -231q-97 0 -176 45zM673 918q-45 32 -102 32q-115 0 -181 -133
q-40 -81 -40 -267q0 -170 34 -253zM758 803l-289 -620q45 -33 102 -33q114 0 180 132q42 83 42 268q0 169 -35 253z" />
    <glyph glyph-name="ugrave" unicode="&#xf9;" horiz-adv-x="1173" 
d="M993 1140v-590q0 -208 -71 -339q-126 -231 -350 -231t-350 231q-72 133 -72 339q0 192 72 339q87 183 259 251h10l75 -149q-121 -43 -174 -173q-42 -104 -42 -268q0 -185 42 -268q66 -132 180 -132t180 132q41 83 41 268v500l190 90h10zM531 1566h10l162 -345l-117 -55
h-10l-221 316z" />
    <glyph glyph-name="uacute" unicode="&#xfa;" horiz-adv-x="1173" 
d="M993 1140v-590q0 -208 -71 -339q-126 -231 -350 -231t-350 231q-72 133 -72 339q0 192 72 339q87 183 259 251h10l75 -149q-121 -43 -174 -173q-42 -104 -42 -268q0 -185 42 -268q66 -132 180 -132t180 132q41 83 41 268v500l190 90h10zM763 1566h10l176 -84l-221 -316
h-10l-117 55z" />
    <glyph glyph-name="ucircumflex" unicode="&#xfb;" horiz-adv-x="1173" 
d="M993 1140v-590q0 -208 -71 -339q-126 -231 -350 -231t-350 231q-72 133 -72 339q0 192 72 339q87 183 259 251h10l75 -149q-121 -43 -174 -173q-42 -104 -42 -268q0 -185 42 -268q66 -132 180 -132t180 132q41 83 41 268v500l190 90h10zM374 1221l153 261l176 84h10
l213 -345l-116 -55h-10l-150 208l-148 -208h-10z" />
    <glyph glyph-name="udieresis" unicode="&#xfc;" horiz-adv-x="1173" 
d="M993 1140v-590q0 -208 -71 -339q-126 -231 -350 -231t-350 231q-72 133 -72 339q0 192 72 339q87 183 259 251h10l75 -149q-121 -43 -174 -173q-42 -104 -42 -268q0 -185 42 -268q66 -132 180 -132t180 132q41 83 41 268v500l190 90h10zM677 1407.5q0 50.5 35 86.5t85 36
t85 -36t35 -86.5t-35 -86.5t-85 -36t-85 36t-35 86.5zM377 1407.5q0 50.5 35 86.5t85 36t85 -36t35 -86.5t-35 -86.5t-85 -36t-85 36t-35 86.5z" />
    <glyph glyph-name="yacute" unicode="&#xfd;" horiz-adv-x="1193" 
d="M993 1140v-1000q0 -205 -71 -339q-124 -231 -350 -231h-241v10l76 160h165q126 0 180 132q37 91 37 208q-98 -100 -218 -100q-224 0 -349 231q-72 133 -72 339q0 188 72 339q87 183 259 251h10l75 -149q-121 -43 -174 -173q-42 -104 -42 -268q0 -185 42 -268
q66 -132 180 -132t180 132q41 83 41 268v500l190 90h10zM763 1566h10l176 -84l-221 -316h-10l-117 55z" />
    <glyph glyph-name="thorn" unicode="&#xfe;" horiz-adv-x="1193" 
d="M401 550q0 -186 41 -268q66 -132 180 -132t180 132q42 83 42 268t-42 268q-65 132 -180 132t-181 -133q-40 -81 -40 -267zM200 -450v1910l190 90h10v-534q101 104 222 104q220 0 349 -231q72 -129 72 -339q0 -208 -71 -339q-126 -231 -350 -231q-130 0 -222 105v-445
l-190 -90h-10z" />
    <glyph glyph-name="ydieresis" unicode="&#xff;" horiz-adv-x="1193" 
d="M993 1140v-1000q0 -205 -71 -339q-124 -231 -350 -231h-241v10l76 160h165q126 0 180 132q37 91 37 208q-98 -100 -218 -100q-224 0 -349 231q-72 133 -72 339q0 188 72 339q87 183 259 251h10l75 -149q-121 -43 -174 -173q-42 -104 -42 -268q0 -185 42 -268
q66 -132 180 -132t180 132q41 83 41 268v500l190 90h10zM677 1407.5q0 50.5 35 86.5t85 36t85 -36t35 -86.5t-35 -86.5t-85 -36t-85 36t-35 86.5zM377 1407.5q0 50.5 35 86.5t85 36t85 -36t35 -86.5t-35 -86.5t-85 -36t-85 36t-35 86.5z" />
    <glyph glyph-name="Amacron" unicode="&#x100;" horiz-adv-x="1454" 
d="M180 -40v795q0 291 96 467q168 308 466 308q299 0 466 -308q96 -177 96 -467q0 -286 -96 -467q-135 -254 -352 -328h-10l-75 149q178 84 265 257q56 111 66 304h-722v-620l-190 -90h-10zM382 840h720q-10 192 -66 304q-108 216 -294 216q-185 0 -294 -216
q-56 -112 -66 -304zM497 1638v10l81 172h458v-10l-81 -172h-458z" />
    <glyph glyph-name="amacron" unicode="&#x101;" horiz-adv-x="1060" 
d="M710 -40v140q-86 -119 -215 -120q-187 0 -291 113t-104 267q0 160 113 272q109 108 282 108q123 0 211 -110q-18 151 -37 188q-67 132 -180 132h-233v10l76 160h157q224 0 349 -231q72 -132 72 -339v-500l-190 -90h-10zM294 362q0 -90 54.5 -151t147.5 -61q92 0 154 63
q58 59 58 145q0 90 -62 151t-149 61q-93 0 -149 -62q-54 -61 -54 -146zM300 1232v10l81 172h458v-10l-81 -172h-458z" />
    <glyph glyph-name="Abreve" unicode="&#x102;" horiz-adv-x="1454" 
d="M180 -40v795q0 291 96 467q168 308 466 308q299 0 466 -308q96 -177 96 -467q0 -286 -96 -467q-135 -254 -352 -328h-10l-75 149q178 84 265 257q56 111 66 304h-722v-620l-190 -90h-10zM382 840h720q-10 192 -66 304q-108 216 -294 216q-185 0 -294 -216
q-56 -112 -66 -304zM498 1788v10l74 149q72 -134 172 -134t172 134l76 -149v-10q-102 -150 -250 -150q-154 0 -244 150z" />
    <glyph glyph-name="abreve" unicode="&#x103;" horiz-adv-x="1060" 
d="M710 -40v140q-86 -119 -215 -120q-187 0 -291 113t-104 267q0 160 113 272q109 108 282 108q123 0 211 -110q-18 151 -37 188q-67 132 -180 132h-233v10l76 160h157q224 0 349 -231q72 -132 72 -339v-500l-190 -90h-10zM294 362q0 -90 54.5 -151t147.5 -61q92 0 154 63
q58 59 58 145q0 90 -62 151t-149 61q-93 0 -149 -62q-54 -61 -54 -146zM300 1382v10l74 149q72 -134 172 -134t172 134l76 -149v-10q-102 -150 -250 -150q-154 0 -244 150z" />
    <glyph glyph-name="Aogonek" unicode="&#x104;" horiz-adv-x="1454" 
d="M382 840h720q-10 192 -66 304q-108 216 -294 216q-185 0 -294 -216q-56 -112 -66 -304zM180 -40v795q0 291 96 467q168 308 466 308q299 0 466 -308q96 -177 96 -467q0 -285 -96 -467q-101 -191 -249 -280q-60 -60 -60 -160q0 -121 134 -208l-190 -90h-10
q-109 107 -109 244q0 120 97 216l-50 99q178 84 265 257q56 111 66 304h-722v-620l-190 -90h-10z" />
    <glyph glyph-name="aogonek" unicode="&#x105;" horiz-adv-x="1060" 
d="M910 50l-29 -14q-87 -99 -87 -188q0 -121 134 -208l-190 -90h-10q-109 107 -109 244q0 116 91 210v96q-86 -120 -215 -120q-186 0 -291 113q-104 113 -104 267q0 160 113 272q109 108 282 108q123 0 211 -110q-18 151 -37 188q-67 132 -180 132h-233v10l76 160h157
q224 0 349 -231q72 -132 72 -339v-500zM294 362q0 -90 54.5 -151t147.5 -61q92 0 154 63q58 59 58 145q0 90 -62 151t-149 61q-93 0 -149 -62q-54 -61 -54 -146z" />
    <glyph glyph-name="Cacute" unicode="&#x106;" horiz-adv-x="1366" 
d="M1246 474q-19 -96 -68 -186q-168 -308 -466 -308t-466 308q-96 176 -96 467t96 467q168 308 466 308q299 0 466 -308l-162 -78h-10q-108 216 -294 216q-185 0 -294 -216q-68 -135 -68 -389q0 -257 68 -389q111 -216 294 -216q185 0 294 216l230 108h10zM817 1966h10
l176 -84l-221 -316h-10l-117 55z" />
    <glyph glyph-name="cacute" unicode="&#x107;" horiz-adv-x="1098" 
d="M978 377q-18 -95 -57 -166q-127 -231 -350 -231q-220 0 -349 231q-72 129 -72 339q0 206 72 339q125 231 349 231t348 -228l-158 -74h-10q-66 132 -180 132t-180 -132q-41 -83 -41 -268q0 -186 41 -268q68 -132 180 -132q114 0 180 132l217 95h10zM683 1566h10l176 -84
l-221 -316h-10l-117 55z" />
    <glyph glyph-name="Ccircumflex" unicode="&#x108;" horiz-adv-x="1366" 
d="M1246 474q-19 -96 -68 -186q-168 -308 -466 -308t-466 308q-96 176 -96 467t96 467q168 308 466 308q299 0 466 -308l-162 -78h-10q-108 216 -294 216q-185 0 -294 -216q-68 -135 -68 -389q0 -257 68 -389q111 -216 294 -216q185 0 294 216l230 108h10zM434 1621l153 261
l176 84h10l213 -345l-116 -55h-10l-150 208l-148 -208h-10z" />
    <glyph glyph-name="ccircumflex" unicode="&#x109;" horiz-adv-x="1098" 
d="M978 377q-18 -95 -57 -166q-127 -231 -350 -231q-220 0 -349 231q-72 129 -72 339q0 206 72 339q125 231 349 231t348 -228l-158 -74h-10q-66 132 -180 132t-180 -132q-41 -83 -41 -268q0 -186 41 -268q68 -132 180 -132q114 0 180 132l217 95h10zM294 1221l153 261
l176 84h10l213 -345l-116 -55h-10l-150 208l-148 -208h-10z" />
    <glyph glyph-name="Cdotaccent" unicode="&#x10a;" horiz-adv-x="1366" 
d="M1246 474q-19 -96 -68 -186q-168 -308 -466 -308t-466 308q-96 176 -96 467t96 467q168 308 466 308q299 0 466 -308l-162 -78h-10q-108 216 -294 216q-185 0 -294 -216q-68 -135 -68 -389q0 -257 68 -389q111 -216 294 -216q185 0 294 216l230 108h10zM585 1802.5
q0 50.5 35 86.5t85 36t85 -36t35 -86.5t-35 -86.5t-85 -36t-85 36t-35 86.5z" />
    <glyph glyph-name="cdotaccent" unicode="&#x10b;" horiz-adv-x="1098" 
d="M978 377q-18 -95 -57 -166q-127 -231 -350 -231q-220 0 -349 231q-72 129 -72 339q0 206 72 339q125 231 349 231t348 -228l-158 -74h-10q-66 132 -180 132t-180 -132q-41 -83 -41 -268q0 -186 41 -268q68 -132 180 -132q114 0 180 132l217 95h10zM445 1407.5
q0 50.5 35 86.5t85 36t85 -36t35 -86.5t-35 -86.5t-85 -36t-85 36t-35 86.5z" />
    <glyph glyph-name="Ccaron" unicode="&#x10c;" horiz-adv-x="1366" 
d="M1246 474q-19 -96 -68 -186q-168 -308 -466 -308t-466 308q-96 176 -96 467t96 467q168 308 466 308q299 0 466 -308l-162 -78h-10q-108 216 -294 216q-185 0 -294 -216q-68 -135 -68 -389q0 -257 68 -389q111 -216 294 -216q185 0 294 216l230 108h10zM647 1566
l-213 345l116 55h10l150 -208l148 208h10l118 -55l-153 -261l-176 -84h-10z" />
    <glyph glyph-name="ccaron" unicode="&#x10d;" horiz-adv-x="1098" 
d="M978 377q-18 -95 -57 -166q-127 -231 -350 -231q-220 0 -349 231q-72 129 -72 339q0 206 72 339q125 231 349 231t348 -228l-158 -74h-10q-66 132 -180 132t-180 -132q-41 -83 -41 -268q0 -186 41 -268q68 -132 180 -132q114 0 180 132l217 95h10zM480 1166l-213 345
l116 55h10l150 -208l148 208h10l118 -55l-153 -261l-176 -84h-10z" />
    <glyph glyph-name="Dcaron" unicode="&#x10e;" horiz-adv-x="1454" 
d="M430 0q-250 0 -250 214v541q0 291 96 467q168 308 466 308q299 0 466 -308q96 -176 96 -467q0 -251 -98 -441q-162 -314 -464 -314h-312zM742 170q187 0 292 222q70 148 70 363q0 253 -68 389q-108 216 -294 216q-185 0 -294 -216q-68 -134 -68 -389v-541q0 -44 50 -44
h312zM628 1566l-213 345l116 55h10l150 -208l148 208h10l118 -55l-153 -261l-176 -84h-10z" />
    <glyph glyph-name="dcaron" unicode="&#x10f;" horiz-adv-x="1210" 
d="M150 550q0 208 72 339q125 231 349 231q130 0 222 -105v445l190 90h10v-1000q0 -208 -72 -339q-127 -231 -350 -231q-220 0 -349 231q-72 129 -72 339zM350 550q0 -188 41 -268q68 -132 180 -132q113 0 180 132q42 83 42 268t-42 268q-66 131 -180 131t-180 -133
q-41 -83 -41 -266zM1174 1566h10l176 -84l-221 -316h-10l-117 55z" />
    <glyph glyph-name="Dcroat" unicode="&#x110;" horiz-adv-x="1454" 
d="M742 170q187 0 292 222q70 148 70 363q0 253 -68 389q-108 216 -294 216q-185 0 -294 -216q-56 -111 -66 -304h469v-10l-75 -160h-396v-456q0 -44 50 -44h312zM430 0q-250 0 -250 214v456h-130v10l75 160h57q12 232 94 382q168 308 466 308q299 0 466 -308
q96 -177 96 -467q0 -251 -98 -441q-162 -314 -464 -314h-312z" />
    <glyph glyph-name="dcroat" unicode="&#x111;" horiz-adv-x="1173" 
d="M350 550q0 -188 41 -268q68 -132 180 -132q113 0 180 132q42 83 42 268t-42 268q-66 131 -180 131t-180 -133q-41 -83 -41 -266zM150 550q0 207 72 339q126 231 349 231q130 0 222 -105v215h-246v10l75 160h171v60l190 90h10v-150h130v-10l-75 -160h-55v-680
q0 -208 -72 -339q-127 -231 -350 -231q-220 0 -349 231q-72 129 -72 339z" />
    <glyph glyph-name="Emacron" unicode="&#x112;" horiz-adv-x="1182" 
d="M430 0q-250 0 -250 214v541q0 291 96 467q168 308 466 308h268v-10l-75 -160h-193q-186 0 -294 -216q-56 -112 -66 -304h568v-10l-75 -160h-495v-456q0 -44 50 -44h394q118 0 148 117h10l150 -71q-60 -216 -308 -216h-394zM376 1638v10l81 172h458v-10l-81 -172h-458z
" />
    <glyph glyph-name="emacron" unicode="&#x113;" horiz-adv-x="1128" 
d="M978 377q-18 -95 -57 -166q-127 -231 -350 -231q-220 0 -349 231q-72 129 -72 339q0 207 72 339q125 231 349 231q223 0 349 -230q31 -57 50 -133l-580 -472q67 -135 183 -135q113 0 178 132l217 95h10zM352 473l399 345q-65 132 -180 132q-113 0 -180 -132
q-41 -82 -41 -268q0 -41 2 -77zM320 1232v10l81 172h458v-10l-81 -172h-458z" />
    <glyph glyph-name="Ebreve" unicode="&#x114;" horiz-adv-x="1182" 
d="M430 0q-250 0 -250 214v541q0 291 96 467q168 308 466 308h268v-10l-75 -160h-193q-186 0 -294 -216q-56 -112 -66 -304h568v-10l-75 -160h-495v-456q0 -44 50 -44h394q118 0 148 117h10l150 -71q-60 -216 -308 -216h-394zM368 1788v10l74 149q72 -134 172 -134t172 134
l76 -149v-10q-102 -150 -250 -150q-154 0 -244 150z" />
    <glyph glyph-name="ebreve" unicode="&#x115;" horiz-adv-x="1128" 
d="M978 377q-18 -95 -57 -166q-127 -231 -350 -231q-220 0 -349 231q-72 129 -72 339q0 207 72 339q125 231 349 231q223 0 349 -230q31 -57 50 -133l-580 -472q67 -135 183 -135q113 0 178 132l217 95h10zM352 473l399 345q-65 132 -180 132q-113 0 -180 -132
q-41 -82 -41 -268q0 -41 2 -77zM320 1382v10l74 149q72 -134 172 -134t172 134l76 -149v-10q-102 -150 -250 -150q-154 0 -244 150z" />
    <glyph glyph-name="Edotaccent" unicode="&#x116;" horiz-adv-x="1182" 
d="M430 0q-250 0 -250 214v541q0 291 96 467q168 308 466 308h268v-10l-75 -160h-193q-186 0 -294 -216q-56 -112 -66 -304h568v-10l-75 -160h-495v-456q0 -44 50 -44h394q118 0 148 117h10l150 -71q-60 -216 -308 -216h-394zM496 1802.5q0 50.5 35 86.5t85 36t85 -36
t35 -86.5t-35 -86.5t-85 -36t-85 36t-35 86.5z" />
    <glyph glyph-name="edotaccent" unicode="&#x117;" horiz-adv-x="1128" 
d="M978 377q-18 -95 -57 -166q-127 -231 -350 -231q-220 0 -349 231q-72 129 -72 339q0 207 72 339q125 231 349 231q223 0 349 -230q31 -57 50 -133l-580 -472q67 -135 183 -135q113 0 178 132l217 95h10zM352 473l399 345q-65 132 -180 132q-113 0 -180 -132
q-41 -82 -41 -268q0 -41 2 -77zM445 1407.5q0 50.5 35 86.5t85 36t85 -36t35 -86.5t-35 -86.5t-85 -36t-85 36t-35 86.5z" />
    <glyph glyph-name="Eogonek" unicode="&#x118;" horiz-adv-x="1182" 
d="M430 0q-250 0 -250 214v541q0 291 96 467q168 308 466 308h268v-10l-75 -160h-193q-186 0 -294 -216q-56 -112 -66 -304h568v-10l-75 -160h-495v-456q0 -44 50 -44h394q118 0 148 117h10l150 -71q-28 -101 -97 -154q-98 -80 -98 -214q0 -121 134 -208l-190 -90h-10
q-109 107 -109 244q0 115 87 207q-12 -1 -25 -1h-394z" />
    <glyph glyph-name="eogonek" unicode="&#x119;" horiz-adv-x="1128" 
d="M823 80q-114 -113 -114 -232q0 -121 134 -208l-190 -90h-10q-109 107 -109 244q0 103 70 187q-16 -1 -33 -1q-220 0 -349 231q-72 129 -72 339q0 206 72 339q125 231 349 231q223 0 349 -230q31 -57 50 -133l-580 -472q67 -135 183 -135q113 0 178 132l217 95h10
q-18 -94 -57 -166q-43 -79 -98 -131zM352 473l399 345q-65 132 -180 132q-113 0 -180 -132q-41 -82 -41 -268q0 -41 2 -77z" />
    <glyph glyph-name="Ecaron" unicode="&#x11a;" horiz-adv-x="1182" 
d="M430 0q-250 0 -250 214v541q0 291 96 467q168 308 466 308h268v-10l-75 -160h-193q-186 0 -294 -216q-56 -112 -66 -304h568v-10l-75 -160h-495v-456q0 -44 50 -44h394q118 0 148 117h10l150 -71q-60 -216 -308 -216h-394zM563 1566l-213 345l116 55h10l150 -208l148 208
h10l118 -55l-153 -261l-176 -84h-10z" />
    <glyph glyph-name="ecaron" unicode="&#x11b;" horiz-adv-x="1128" 
d="M978 377q-18 -95 -57 -166q-127 -231 -350 -231q-220 0 -349 231q-72 129 -72 339q0 207 72 339q125 231 349 231q223 0 349 -230q31 -57 50 -133l-580 -472q67 -135 183 -135q113 0 178 132l217 95h10zM352 473l399 345q-65 132 -180 132q-113 0 -180 -132
q-41 -82 -41 -268q0 -41 2 -77zM480 1166l-213 345l116 55h10l150 -208l148 208h10l118 -55l-153 -261l-176 -84h-10z" />
    <glyph glyph-name="Gcircumflex" unicode="&#x11c;" horiz-adv-x="1424" 
d="M1274 840v-85q0 -291 -96 -467q-167 -308 -466 -308q-298 0 -466 308q-96 176 -96 467t96 467q168 308 466 308q299 0 466 -308l-162 -78h-10q-108 216 -294 216q-184 0 -294 -216q-68 -135 -68 -389q0 -257 68 -389q111 -216 294 -216q185 0 294 216q56 112 66 304h-377
v10l75 160h504zM434 1621l153 261l176 84h10l213 -345l-116 -55h-10l-150 208l-148 -208h-10z" />
    <glyph glyph-name="gcircumflex" unicode="&#x11d;" horiz-adv-x="1163" 
d="M350 550q0 -186 41 -268q66 -132 180 -132t180 132q42 83 42 268t-42 268q-65 132 -180 132t-181 -133q-40 -81 -40 -267zM150 550q0 208 72 339q125 231 349 231t349 -231q73 -133 73 -339v-410q0 -205 -71 -339q-124 -231 -350 -231h-241v10l76 160h165q126 0 180 132
q37 91 37 208q-98 -100 -218 -100q-220 0 -349 231q-72 129 -72 339zM294 1221l153 261l176 84h10l213 -345l-116 -55h-10l-150 208l-148 -208h-10z" />
    <glyph glyph-name="Gbreve" unicode="&#x11e;" horiz-adv-x="1424" 
d="M1274 840v-85q0 -291 -96 -467q-167 -308 -466 -308q-298 0 -466 308q-96 176 -96 467t96 467q168 308 466 308q299 0 466 -308l-162 -78h-10q-108 216 -294 216q-184 0 -294 -216q-68 -135 -68 -389q0 -257 68 -389q111 -216 294 -216q185 0 294 216q56 112 66 304h-377
v10l75 160h504zM468 1788v10l74 149q72 -134 172 -134t172 134l76 -149v-10q-102 -150 -250 -150q-154 0 -244 150z" />
    <glyph glyph-name="gbreve" unicode="&#x11f;" horiz-adv-x="1163" 
d="M350 550q0 -186 41 -268q66 -132 180 -132t180 132q42 83 42 268t-42 268q-65 132 -180 132t-181 -133q-40 -81 -40 -267zM150 550q0 208 72 339q125 231 349 231t349 -231q73 -133 73 -339v-410q0 -205 -71 -339q-124 -231 -350 -231h-241v10l76 160h165q126 0 180 132
q37 91 37 208q-98 -100 -218 -100q-220 0 -349 231q-72 129 -72 339zM320 1382v10l74 149q72 -134 172 -134t172 134l76 -149v-10q-102 -150 -250 -150q-154 0 -244 150z" />
    <glyph glyph-name="Gdotaccent" unicode="&#x120;" horiz-adv-x="1424" 
d="M1274 840v-85q0 -291 -96 -467q-167 -308 -466 -308q-298 0 -466 308q-96 176 -96 467t96 467q168 308 466 308q299 0 466 -308l-162 -78h-10q-108 216 -294 216q-184 0 -294 -216q-68 -135 -68 -389q0 -257 68 -389q111 -216 294 -216q185 0 294 216q56 112 66 304h-377
v10l75 160h504zM585 1802.5q0 50.5 35 86.5t85 36t85 -36t35 -86.5t-35 -86.5t-85 -36t-85 36t-35 86.5z" />
    <glyph glyph-name="gdotaccent" unicode="&#x121;" horiz-adv-x="1163" 
d="M350 550q0 -186 41 -268q66 -132 180 -132t180 132q42 83 42 268t-42 268q-65 132 -180 132t-181 -133q-40 -81 -40 -267zM150 550q0 208 72 339q125 231 349 231t349 -231q73 -133 73 -339v-410q0 -205 -71 -339q-124 -231 -350 -231h-241v10l76 160h165q126 0 180 132
q37 91 37 208q-98 -100 -218 -100q-220 0 -349 231q-72 129 -72 339zM445 1407.5q0 50.5 35 86.5t85 36t85 -36t35 -86.5t-35 -86.5t-85 -36t-85 36t-35 86.5z" />
    <glyph glyph-name="Gcommaaccent" unicode="&#x122;" horiz-adv-x="1424" 
d="M1274 840v-85q0 -291 -96 -467q-167 -308 -466 -308q-298 0 -466 308q-96 176 -96 467t96 467q168 308 466 308q299 0 466 -308l-162 -78h-10q-108 216 -294 216q-184 0 -294 -216q-68 -135 -68 -389q0 -257 68 -389q111 -216 294 -216q185 0 294 216q56 112 66 304h-377
v10l75 160h504zM596 -450h-10l-176 84l221 316h10l117 -55z" />
    <glyph glyph-name="gcommaaccent" unicode="&#x123;" horiz-adv-x="1163" 
d="M350 550q0 -186 41 -268q66 -132 180 -132t180 132q42 83 42 268t-42 268q-65 132 -180 132t-181 -133q-40 -81 -40 -267zM150 550q0 208 72 339q125 231 349 231t349 -231q73 -133 73 -339v-410q0 -205 -71 -339q-124 -231 -350 -231h-241v10l76 160h165q126 0 180 132
q37 91 37 208q-98 -100 -218 -100q-220 0 -349 231q-72 129 -72 339zM683 1566h10l176 -84l-221 -316h-10l-117 55z" />
    <glyph glyph-name="Hcircumflex" unicode="&#x124;" horiz-adv-x="1454" 
d="M200 -40v1500l190 90h10v-710h702q-10 193 -66 304q-87 173 -265 257l75 149h10q217 -74 352 -328q96 -181 96 -467t-96 -467q-135 -254 -352 -328h-10l-75 149q178 84 265 257q56 111 66 304h-702v-620l-190 -90h-10zM374 1621l153 261l176 84h10l213 -345l-116 -55h-10
l-150 208l-148 -208h-10z" />
    <glyph glyph-name="hcircumflex" unicode="&#x125;" horiz-adv-x="1193" 
d="M200 -40v1500l190 90h10v-534q92 104 221 104q224 0 349 -231q73 -133 73 -339q0 -192 -72 -339q-87 -183 -259 -251h-10l-75 149q121 43 174 173q42 104 42 268q0 185 -42 268q-67 132 -180.5 132t-179.5 -132q-41 -83 -41 -268v-500l-190 -90h-10zM361 1621l153 261
l176 84h10l213 -345l-116 -55h-10l-150 208l-148 -208h-10z" />
    <glyph glyph-name="Hbar" unicode="&#x126;" horiz-adv-x="1454" 
d="M200 -40v1270h-150v10l75 160h75v60l190 90h10v-150h373l-2 1l75 149h10q128 -44 228 -150h320v-10l-75 -160h-125q98 -181 98 -470.5t-94 -471.5q-133 -253 -352 -328h-10l-75 149q178 84 265 257q56 111 66 304h-702v-620l-190 -90h-10zM983 1230h-583v-390h702
q-10 192 -66 304q-23 46 -53 86z" />
    <glyph glyph-name="hbar" unicode="&#x127;" horiz-adv-x="1193" 
d="M200 -40v1270h-150v10l75 160h75v60l190 90h10v-150h226v-10l-75 -160h-151v-214q92 104 221 104q223 0 349 -231q73 -134 73 -339q0 -192 -72 -339q-87 -183 -259 -251h-10l-75 149q121 43 174 173q42 104 42 268q0 185 -42 268q-67 132 -181 132q-113 0 -179 -132
q-41 -82 -41 -268v-500l-190 -90h-10z" />
    <glyph glyph-name="Itilde" unicode="&#x128;" 
d="M200 -40v1500l190 90h10v-1500l-190 -90h-10zM48 1638q0 286 141 286q64 0 137 -70q51 -49 75 -49q34 0 34 72l110 47h6q0 -286 -141 -286q-64 0 -137 70q-51 49 -75 49q-34 0 -34 -72l-110 -47h-6z" />
    <glyph glyph-name="itilde" unicode="&#x129;" 
d="M200 -40v1090l190 90h10v-1090l-190 -90h-10zM48 1232q0 286 141 286q64 0 137 -70q51 -49 75 -49q34 0 34 72l110 47h6q0 -286 -141 -286q-64 0 -137 70q-51 49 -75 49q-34 0 -34 -72l-110 -47h-6z" />
    <glyph glyph-name="Imacron" unicode="&#x12a;" 
d="M200 -40v1500l190 90h10v-1500l-190 -90h-10zM30 1638v10l81 172h458v-10l-81 -172h-458z" />
    <glyph glyph-name="imacron" unicode="&#x12b;" 
d="M200 -40v1090l190 90h10v-1090l-190 -90h-10zM30 1232v10l81 172h458v-10l-81 -172h-458z" />
    <glyph glyph-name="Ibreve" unicode="&#x12c;" 
d="M200 -40v1500l190 90h10v-1500l-190 -90h-10zM53 1788v10l74 149q72 -134 172 -134t172 134l76 -149v-10q-102 -150 -250 -150q-154 0 -244 150z" />
    <glyph glyph-name="ibreve" unicode="&#x12d;" 
d="M200 -40v1090l190 90h10v-1090l-190 -90h-10zM53 1382v10l74 149q72 -134 172 -134t172 134l76 -149v-10q-102 -150 -250 -150q-154 0 -244 150z" />
    <glyph glyph-name="Iogonek" unicode="&#x12e;" 
d="M200 10v1450l190 90h10v-1500l-39 -18q-83 -97 -83 -184q0 -121 134 -208l-190 -90h-10q-109 107 -109 244q0 120 97 216z" />
    <glyph glyph-name="iogonek" unicode="&#x12f;" 
d="M180 1407.5q0 50.5 35 86.5t85 36t85 -36t35 -86.5t-35 -86.5t-85 -36t-85 36t-35 86.5zM200 10v1040l190 90h10v-1090l-39 -18q-83 -97 -83 -184q0 -121 134 -208l-190 -90h-10q-109 107 -109 244q0 120 97 216z" />
    <glyph glyph-name="Idotaccent" unicode="&#x130;" 
d="M200 -40v1500l190 90h10v-1500l-190 -90h-10zM180 1802.5q0 50.5 35 86.5t85 36t85 -36t35 -86.5t-35 -86.5t-85 -36t-85 36t-35 86.5z" />
    <glyph glyph-name="dotlessi" unicode="&#x131;" 
d="M200 -40v1090l190 90h10v-1090l-190 -90h-10z" />
    <glyph glyph-name="IJ" unicode="&#x132;" horiz-adv-x="1777" 
d="M549 288l162 78h10q108 -216 294 -216q188 0 294 216q68 139 68 389v541q0 44 -50 44h-532v10l75 160h457q250 0 250 -214v-541q0 -291 -96 -467q-168 -308 -466 -308q-299 0 -466 308zM200 -40v1500l190 90h10v-1500l-190 -90h-10z" />
    <glyph glyph-name="ij" unicode="&#x133;" horiz-adv-x="1100" 
d="M479 -430l82 180q58 33 98 112q41 83 41 268v920l190 90h10v-1010q0 -208 -72 -339q-125 -231 -349 -231v10zM680 1407.5q0 50.5 35 86.5t85 36t85 -36t35 -86.5t-35 -86.5t-85 -36t-85 36t-35 86.5zM180 1407.5q0 50.5 35 86.5t85 36t85 -36t35 -86.5t-35 -86.5t-85 -36
t-85 36t-35 86.5zM200 -40v1090l190 90h10v-1090l-190 -90h-10z" />
    <glyph glyph-name="Jcircumflex" unicode="&#x134;" horiz-adv-x="1308" 
d="M80 288l162 78h10q108 -216 294 -216q188 0 294 216q68 139 68 389v541q0 44 -50 44h-532v10l75 160h457q250 0 250 -214v-541q0 -291 -96 -467q-168 -308 -466 -308q-299 0 -466 308zM468 1621l153 261l176 84h10l213 -345l-116 -55h-10l-150 208l-148 -208h-10z" />
    <glyph glyph-name="jcircumflex" unicode="&#x135;" 
d="M-21 -430l82 180q58 33 98 112q41 83 41 268v920l190 90h10v-1010q0 -208 -72 -339q-125 -231 -349 -231v10zM24 1221l153 261l176 84h10l213 -345l-116 -55h-10l-150 208l-148 -208h-10z" />
    <glyph glyph-name="Kcommaaccent" unicode="&#x136;" horiz-adv-x="1352" 
d="M200 -40v1500l190 90h10v-753l543 753h10l176 -83l-439 -593q275 0 413 -181q99 -130 99 -294q0 -170 -115 -295q-101 -112 -231 -144h-10l-75 149q91 19 144 73q87 88 87 217q0 141 -76 215q-92 90 -236 90q-131 0 -218 -103q-72 -85 -72 -217v-334l-190 -90h-10z
M596 -450h-10l-176 84l221 316h10l117 -55z" />
    <glyph glyph-name="kcommaaccent" unicode="&#x137;" horiz-adv-x="1180" 
d="M200 -40v1500l190 90h10v-833l384 423h10l176 -83l-298 -305q144 -19 234 -93q124 -102 124 -287q0 -143 -72 -240q-97 -132 -259 -172h-10l-75 149q133 40 174 94q42 56 42 169q0 115 -62.5 168.5t-152.5 53.5t-153 -54q-62 -54 -62 -168v-322l-190 -90h-10zM513 -450
h-10l-176 84l221 316h10l117 -55z" />
    <glyph glyph-name="kgreenlandic" unicode="&#x138;" horiz-adv-x="1180" 
d="M200 -40v1090l190 90h10v-423l384 423h10l176 -83l-298 -305q144 -19 234 -93q124 -102 124 -287q0 -143 -72 -240q-97 -132 -259 -172h-10l-75 149q133 40 174 94q42 56 42 169q0 115 -62.5 168.5t-152.5 53.5t-153 -54q-62 -54 -62 -168v-322l-190 -90h-10z" />
    <glyph glyph-name="Lacute" unicode="&#x139;" horiz-adv-x="1108" 
d="M450 0q-250 0 -250 214v1246l190 90h10v-1336q0 -44 50 -44h345q118 0 148 117h10l150 -71q-60 -216 -308 -216h-345zM348 1966h10l176 -84l-221 -316h-10l-117 55z" />
    <glyph glyph-name="lacute" unicode="&#x13a;" 
d="M348 1966h10l176 -84l-221 -316h-10l-117 55zM200 -40v1500l190 90h10v-1500l-190 -90h-10z" />
    <glyph glyph-name="Lcommaaccent" unicode="&#x13b;" horiz-adv-x="1108" 
d="M450 0q-250 0 -250 214v1246l190 90h10v-1336q0 -44 50 -44h345q118 0 148 117h10l150 -71q-60 -216 -308 -216h-345zM548 -450h-10l-176 84l221 316h10l117 -55z" />
    <glyph glyph-name="lcommaaccent" unicode="&#x13c;" 
d="M252 -450h-10l-176 84l221 316h10l117 -55zM200 -40v1500l190 90h10v-1500l-190 -90h-10z" />
    <glyph glyph-name="Lcaron" unicode="&#x13d;" horiz-adv-x="1108" 
d="M450 0q-250 0 -250 214v1246l190 90h10v-1336q0 -44 50 -44h345q118 0 148 117h10l150 -71q-60 -216 -308 -216h-345zM594 1566h10l176 -84l-221 -316h-10l-117 55z" />
    <glyph glyph-name="lcaron" unicode="&#x13e;" horiz-adv-x="630" 
d="M594 1566h10l176 -84l-221 -316h-10l-117 55zM200 -40v1500l190 90h10v-1500l-190 -90h-10z" />
    <glyph glyph-name="Ldot" unicode="&#x13f;" horiz-adv-x="1108" 
d="M450 0q-250 0 -250 214v1246l190 90h10v-1336q0 -44 50 -44h345q118 0 148 117h10l150 -71q-60 -216 -308 -216h-345zM505 997.5q0 50.5 35 86.5t85 36t85 -36t35 -86.5t-35 -86.5t-85 -36t-85 36t-35 86.5z" />
    <glyph glyph-name="ldot" unicode="&#x140;" horiz-adv-x="665" 
d="M505 997.5q0 50.5 35 86.5t85 36t85 -36t35 -86.5t-35 -86.5t-85 -36t-85 36t-35 86.5zM200 -40v1500l190 90h10v-1500l-190 -90h-10z" />
    <glyph glyph-name="Lslash" unicode="&#x141;" horiz-adv-x="1108" 
d="M450 0q-250 0 -250 214v1246l190 90h10v-833l317 423h10l158 -80l-485 -602v-244q0 -44 50 -44h345q118 0 148 117h10l150 -71q-60 -216 -308 -216h-345z" />
    <glyph glyph-name="lslash" unicode="&#x142;" horiz-adv-x="724" 
d="M262 -40v581l-74 -122h-10l-158 81l242 300v660l190 90h10v-532l74 122h10l158 -80l-242 -301v-709l-190 -90h-10z" />
    <glyph glyph-name="Nacute" unicode="&#x143;" horiz-adv-x="1454" 
d="M180 -40v795q0 291 96 467q168 308 466 308q299 0 466 -308q96 -176 96 -467q0 -286 -96 -467q-135 -254 -352 -328h-10l-75 149q178 84 265 257q68 133 68 389q0 254 -68 389q-108 216 -294 216t-294 -216q-68 -135 -68 -389v-705l-190 -90h-10zM847 1966h10l176 -84
l-221 -316h-10l-117 55z" />
    <glyph glyph-name="nacute" unicode="&#x144;" horiz-adv-x="1143" 
d="M150 -40v590q0 208 72 339q125 231 349 231t349 -231q73 -133 73 -339q0 -192 -72 -339q-87 -183 -259 -251h-10l-75 149q121 43 174 173q42 104 42 268q0 185 -42 268q-66 132 -180 132t-180 -132q-41 -83 -41 -268v-500l-190 -90h-10zM683 1566h10l176 -84l-221 -316
h-10l-117 55z" />
    <glyph glyph-name="Ncommaaccent" unicode="&#x145;" horiz-adv-x="1454" 
d="M180 -40v795q0 291 96 467q168 308 466 308q299 0 466 -308q96 -176 96 -467q0 -286 -96 -467q-135 -254 -352 -328h-10l-75 149q178 84 265 257q68 133 68 389q0 254 -68 389q-108 216 -294 216t-294 -216q-68 -135 -68 -389v-705l-190 -90h-10zM596 -450h-10l-176 84
l221 316h10l117 -55z" />
    <glyph glyph-name="ncommaaccent" unicode="&#x146;" horiz-adv-x="1143" 
d="M150 -40v590q0 208 72 339q125 231 349 231t349 -231q73 -133 73 -339q0 -192 -72 -339q-87 -183 -259 -251h-10l-75 149q121 43 174 173q42 104 42 268q0 185 -42 268q-66 132 -180 132t-180 -132q-41 -83 -41 -268v-500l-190 -90h-10zM471 -450h-10l-176 84l221 316h10
l117 -55z" />
    <glyph glyph-name="Ncaron" unicode="&#x147;" horiz-adv-x="1454" 
d="M180 -40v795q0 291 96 467q168 308 466 308q299 0 466 -308q96 -176 96 -467q0 -286 -96 -467q-135 -254 -352 -328h-10l-75 149q178 84 265 257q68 133 68 389q0 254 -68 389q-108 216 -294 216t-294 -216q-68 -135 -68 -389v-705l-190 -90h-10zM647 1566l-213 345
l116 55h10l150 -208l148 208h10l118 -55l-153 -261l-176 -84h-10z" />
    <glyph glyph-name="ncaron" unicode="&#x148;" horiz-adv-x="1143" 
d="M150 -40v590q0 208 72 339q125 231 349 231t349 -231q73 -133 73 -339q0 -192 -72 -339q-87 -183 -259 -251h-10l-75 149q121 43 174 173q42 104 42 268q0 185 -42 268q-66 132 -180 132t-180 -132q-41 -83 -41 -268v-500l-190 -90h-10zM480 1166l-213 345l116 55h10
l150 -208l148 208h10l118 -55l-153 -261l-176 -84h-10z" />
    <glyph glyph-name="napostrophe" unicode="&#x149;" horiz-adv-x="1143" 
d="M150 -40v590q0 208 72 339q125 231 349 231t349 -231q73 -133 73 -339q0 -192 -72 -339q-87 -183 -259 -251h-10l-75 149q121 43 174 173q42 104 42 268q0 185 -42 268q-66 132 -180 132t-180 -132q-41 -83 -41 -268v-500l-190 -90h-10zM210 1454h10l176 -84l-221 -316
h-10l-117 55z" />
    <glyph glyph-name="Eng" unicode="&#x14a;" horiz-adv-x="1484" 
d="M180 -40v795q0 291 96 467q168 308 466 308q299 0 466 -308q96 -176 96 -467v-400q0 -286 -96 -467q-135 -254 -352 -328h-10l-75 149q178 84 265 257q68 133 68 389v400q0 254 -68 389q-108 216 -294 216t-294 -216q-68 -135 -68 -389v-705l-190 -90h-10z" />
    <glyph glyph-name="eng" unicode="&#x14b;" horiz-adv-x="1163" 
d="M150 -40v590q0 208 72 339q125 231 349 231q222 0 349 -231q73 -133 73 -339v-195q0 -286 -96 -467q-135 -254 -352 -328h-10l-75 149q187 88 265 257q68 147 68 389v195q0 185 -42 268q-66 132 -180 132t-180 -132q-41 -83 -41 -268v-500l-190 -90h-10z" />
    <glyph glyph-name="Omacron" unicode="&#x14c;" horiz-adv-x="1424" 
d="M350 755q0 -257 68 -389q111 -216 294 -216q185 0 294 216q68 135 68 389t-68 389q-108 216 -294 216q-185 0 -294 -216q-68 -135 -68 -389zM150 755q0 291 96 467q168 308 466 308q299 0 466 -308q96 -177 96 -467q0 -291 -96 -467q-167 -308 -466 -308q-298 0 -466 308
q-96 176 -96 467zM467 1638v10l81 172h458v-10l-81 -172h-458z" />
    <glyph glyph-name="omacron" unicode="&#x14d;" horiz-adv-x="1143" 
d="M350 550q0 -186 41 -268q66 -132 180 -132t180 132q42 83 42 268t-42 268q-65 132 -180 132t-181 -133q-40 -81 -40 -267zM150 550q0 208 72 339q125 231 349 231t349 -231q73 -133 73 -339q0 -209 -72 -339q-127 -231 -350 -231q-220 0 -349 231q-72 129 -72 339z
M320 1232v10l81 172h458v-10l-81 -172h-458z" />
    <glyph glyph-name="Obreve" unicode="&#x14e;" horiz-adv-x="1424" 
d="M350 755q0 -257 68 -389q111 -216 294 -216q185 0 294 216q68 135 68 389t-68 389q-108 216 -294 216q-185 0 -294 -216q-68 -135 -68 -389zM150 755q0 291 96 467q168 308 466 308q299 0 466 -308q96 -177 96 -467q0 -291 -96 -467q-167 -308 -466 -308q-298 0 -466 308
q-96 176 -96 467zM468 1788v10l74 149q72 -134 172 -134t172 134l76 -149v-10q-102 -150 -250 -150q-154 0 -244 150z" />
    <glyph glyph-name="obreve" unicode="&#x14f;" horiz-adv-x="1143" 
d="M350 550q0 -186 41 -268q66 -132 180 -132t180 132q42 83 42 268t-42 268q-65 132 -180 132t-181 -133q-40 -81 -40 -267zM150 550q0 208 72 339q125 231 349 231t349 -231q73 -133 73 -339q0 -209 -72 -339q-127 -231 -350 -231q-220 0 -349 231q-72 129 -72 339z
M320 1382v10l74 149q72 -134 172 -134t172 134l76 -149v-10q-102 -150 -250 -150q-154 0 -244 150z" />
    <glyph glyph-name="Ohungarumlaut" unicode="&#x150;" horiz-adv-x="1424" 
d="M350 755q0 -257 68 -389q111 -216 294 -216q185 0 294 216q68 135 68 389t-68 389q-108 216 -294 216q-185 0 -294 -216q-68 -135 -68 -389zM150 755q0 291 96 467q168 308 466 308q299 0 466 -308q96 -177 96 -467q0 -291 -96 -467q-167 -308 -466 -308q-298 0 -466 308
q-96 176 -96 467zM933 1966h10l176 -84l-221 -316h-10l-117 55zM656 1966h10l176 -84l-221 -316h-10l-117 55z" />
    <glyph glyph-name="ohungarumlaut" unicode="&#x151;" horiz-adv-x="1143" 
d="M350 550q0 -186 41 -268q66 -132 180 -132t180 132q42 83 42 268t-42 268q-65 132 -180 132t-181 -133q-40 -81 -40 -267zM150 550q0 208 72 339q125 231 349 231t349 -231q73 -133 73 -339q0 -209 -72 -339q-127 -231 -350 -231q-220 0 -349 231q-72 129 -72 339z
M770 1566h10l176 -84l-221 -316h-10l-117 55zM493 1566h10l176 -84l-221 -316h-10l-117 55z" />
    <glyph glyph-name="OE" unicode="&#x152;" horiz-adv-x="2076" 
d="M1324 0q-208 0 -243 148q-149 -168 -369 -168q-298 0 -466 308q-96 176 -96 467t96 467q168 308 466 308q295 0 462 -301q168 301 462 301h268v-10l-75 -160h-193q-186 0 -294 -216q-56 -112 -66 -304h568v-10l-75 -160h-495v-456q0 -44 50 -44h394q118 0 148 117h10
l150 -71q-60 -216 -308 -216h-394zM350 755q0 -257 68 -389q111 -216 294 -216q185 0 294 216q68 135 68 389t-68 389q-108 216 -294 216q-185 0 -294 -216q-68 -135 -68 -389z" />
    <glyph glyph-name="oe" unicode="&#x153;" horiz-adv-x="1771" 
d="M150 550q0 207 72 339q126 231 349 231q200 0 321 -185q122 185 322 185q223 0 349 -230q31 -57 50 -133l-580 -472q67 -135 183 -135q113 0 178 132l217 95h10q-18 -95 -57 -166q-127 -231 -350 -231q-197 0 -321 185q-123 -185 -322 -185q-220 0 -349 231
q-72 129 -72 339zM350 550q0 -186 41 -268q66 -132 180 -132t180 132q42 83 42 268t-42 268q-65 132 -180 132t-181 -133q-40 -81 -40 -267zM995 473l399 345q-65 132 -180 132q-113 0 -180 -132q-41 -82 -41 -268q0 -41 2 -77z" />
    <glyph glyph-name="Racute" unicode="&#x154;" horiz-adv-x="1438" 
d="M380 670h312q188 0 269 92q93 106 93 243q0 162 -96 262q-90 93 -216 93q-184 0 -294 -216q-68 -134 -68 -389v-85zM180 -40v795q0 291 96 467q168 308 466 308q249 0 393 -184q119 -152 119 -341q0 -172 -121 -321q-78 -96 -194 -142l349 -499l-176 -83h-10l-377 540
h-345v-450l-190 -90h-10zM780 1966h10l176 -84l-221 -316h-10l-117 55z" />
    <glyph glyph-name="racute" unicode="&#x155;" horiz-adv-x="726" 
d="M150 -40v590q0 208 72 339q125 231 349 231h135v-10l-76 -160h-59q-114 0 -180 -132q-41 -83 -41 -268v-500l-190 -90h-10zM473 1566h10l176 -84l-221 -316h-10l-117 55z" />
    <glyph glyph-name="Rcommaaccent" unicode="&#x156;" horiz-adv-x="1438" 
d="M380 670h312q188 0 269 92q93 106 93 243q0 162 -96 262q-90 93 -216 93q-184 0 -294 -216q-68 -134 -68 -389v-85zM180 -40v795q0 291 96 467q168 308 466 308q249 0 393 -184q119 -152 119 -341q0 -172 -121 -321q-78 -96 -194 -142l349 -499l-176 -83h-10l-377 540
h-345v-450l-190 -90h-10zM596 -450h-10l-176 84l221 316h10l117 -55z" />
    <glyph glyph-name="rcommaaccent" unicode="&#x157;" horiz-adv-x="726" 
d="M150 -40v590q0 208 72 339q125 231 349 231h135v-10l-76 -160h-59q-114 0 -180 -132q-41 -83 -41 -268v-500l-190 -90h-10zM210 -450h-10l-176 84l221 316h10l117 -55z" />
    <glyph glyph-name="Rcaron" unicode="&#x158;" horiz-adv-x="1438" 
d="M380 670h312q188 0 269 92q93 106 93 243q0 162 -96 262q-90 93 -216 93q-184 0 -294 -216q-68 -134 -68 -389v-85zM180 -40v795q0 291 96 467q168 308 466 308q249 0 393 -184q119 -152 119 -341q0 -172 -121 -321q-78 -96 -194 -142l349 -499l-176 -83h-10l-377 540
h-345v-450l-190 -90h-10zM667 1566l-213 345l116 55h10l150 -208l148 208h10l118 -55l-153 -261l-176 -84h-10z" />
    <glyph glyph-name="rcaron" unicode="&#x159;" horiz-adv-x="726" 
d="M150 -40v590q0 208 72 339q125 231 349 231h135v-10l-76 -160h-59q-114 0 -180 -132q-41 -83 -41 -268v-500l-190 -90h-10zM327 1166l-213 345l116 55h10l150 -208l148 208h10l118 -55l-153 -261l-176 -84h-10z" />
    <glyph glyph-name="Sacute" unicode="&#x15a;" horiz-adv-x="1210" 
d="M120 288l162 78h10q108 -216 294 -216q128 0 229 115q73 84 73 213q0 100 -64 168q-74 79 -220 110q-152 31 -265 112q-138 100 -138 264q0 180 129 296q112 102 286 102q224 0 348 -228l-158 -75h-10q-67 133 -180 133q-96 -1 -155 -61q-60 -61 -60 -152q0 -80 53 -126
q67 -58 207 -86q187 -36 308 -156q121 -121 121 -307q0 -190 -144 -340q-143 -152 -360 -152q-299 0 -466 308zM701 1966h10l176 -84l-221 -316h-10l-117 55z" />
    <glyph glyph-name="sacute" unicode="&#x15b;" horiz-adv-x="1003" 
d="M120 208l158 74h10q66 -132 180 -132q110 0 170 72q49 59 49 129q0 73 -52 116q-54 44 -156 60q-130 21 -207 76q-108 77 -108 222q0 139 127 230q92 65 207 65q197 0 286 -190l-158 -74h-10q-45 94 -118 94q-59 0 -97 -30q-46 -36 -46 -99q0 -61 50 -88q51 -28 156 -49
q130 -26 211 -89q111 -86 111 -255q0 -131 -115 -248q-109 -112 -300 -112q-224 0 -348 228zM591 1566h10l176 -84l-221 -316h-10l-117 55z" />
    <glyph glyph-name="Scircumflex" unicode="&#x15c;" horiz-adv-x="1210" 
d="M120 288l162 78h10q108 -216 294 -216q128 0 229 115q73 84 73 213q0 100 -64 168q-74 79 -220 110q-152 31 -265 112q-138 100 -138 264q0 180 129 296q112 102 286 102q224 0 348 -228l-158 -75h-10q-67 133 -180 133q-96 -1 -155 -61q-60 -61 -60 -152q0 -80 53 -126
q67 -58 207 -86q187 -36 308 -156q121 -121 121 -307q0 -190 -144 -340q-143 -152 -360 -152q-299 0 -466 308zM330 1621l153 261l176 84h10l213 -345l-116 -55h-10l-150 208l-148 -208h-10z" />
    <glyph glyph-name="scircumflex" unicode="&#x15d;" horiz-adv-x="1003" 
d="M120 208l158 74h10q66 -132 180 -132q110 0 170 72q49 59 49 129q0 73 -52 116q-54 44 -156 60q-130 21 -207 76q-108 77 -108 222q0 139 127 230q92 65 207 65q197 0 286 -190l-158 -74h-10q-45 94 -118 94q-59 0 -97 -30q-46 -36 -46 -99q0 -61 50 -88q51 -28 156 -49
q130 -26 211 -89q111 -86 111 -255q0 -131 -115 -248q-109 -112 -300 -112q-224 0 -348 228zM204 1221l153 261l176 84h10l213 -345l-116 -55h-10l-150 208l-148 -208h-10z" />
    <glyph glyph-name="Scedilla" unicode="&#x15e;" horiz-adv-x="1210" 
d="M120 288l162 78h10q108 -216 294 -216q128 0 229 115q73 84 73 213q0 100 -64 168q-74 79 -220 110q-155 33 -265 112q-138 100 -138 264q0 179 129 296q113 102 286 102q224 0 348 -228l-158 -75h-10q-68 133 -180 133q-97 0 -155 -61q-60 -61 -60 -152q0 -80 53 -126
q67 -58 207 -86q190 -38 308 -156q121 -121 121 -307q0 -187 -144 -340q-113 -120 -273 -145q73 -85 73 -193q0 -137 -109 -244h-10l-190 90q134 87 134 208q0 64 -46 135q-255 29 -405 305z" />
    <glyph glyph-name="scedilla" unicode="&#x15f;" horiz-adv-x="1003" 
d="M120 208l158 74h10q66 -132 180 -132q110 0 170 72q49 59 49 129q0 73 -52 116q-53 43 -156 60q-130 21 -207 76q-108 77 -108 222q0 139 127 230q92 65 207 65q197 0 286 -190l-158 -74h-10q-45 94 -118 94q-59 0 -97 -30q-46 -36 -46 -99q0 -61 50 -88q52 -28 156 -49
q130 -26 211 -89q111 -86 111 -255q0 -130 -115 -248q-86 -88 -222 -107q73 -85 73 -191q0 -137 -109 -244h-10l-190 90q134 87 134 208q0 66 -49 139q-172 32 -275 221z" />
    <glyph glyph-name="Scaron" unicode="&#x160;" horiz-adv-x="1210" 
d="M120 288l162 78h10q108 -216 294 -216q128 0 229 115q73 84 73 213q0 100 -64 168q-74 79 -220 110q-152 31 -265 112q-138 100 -138 264q0 180 129 296q112 102 286 102q224 0 348 -228l-158 -75h-10q-67 133 -180 133q-96 -1 -155 -61q-60 -61 -60 -152q0 -80 53 -126
q67 -58 207 -86q187 -36 308 -156q121 -121 121 -307q0 -190 -144 -340q-143 -152 -360 -152q-299 0 -466 308zM508 1566l-213 345l116 55h10l150 -208l148 208h10l118 -55l-153 -261l-176 -84h-10z" />
    <glyph glyph-name="scaron" unicode="&#x161;" horiz-adv-x="1003" 
d="M120 208l158 74h10q66 -132 180 -132q110 0 170 72q49 59 49 129q0 73 -52 116q-54 44 -156 60q-130 21 -207 76q-108 77 -108 222q0 139 127 230q92 65 207 65q197 0 286 -190l-158 -74h-10q-45 94 -118 94q-59 0 -97 -30q-46 -36 -46 -99q0 -61 50 -88q51 -28 156 -49
q130 -26 211 -89q111 -86 111 -255q0 -131 -115 -248q-109 -112 -300 -112q-224 0 -348 228zM371 1166l-213 345l116 55h10l150 -208l148 208h10l118 -55l-153 -261l-176 -84h-10z" />
    <glyph glyph-name="Tcommaaccent" unicode="&#x162;" horiz-adv-x="1066" 
d="M433 -40l1 1380h-121q-119 0 -148 -117h-10l-150 71q59 216 308 216h748v-10l-75 -160h-352l-1 -1288q146 -111 146 -258q0 -137 -109 -244h-10l-190 90q134 87 134 208q0 75 -63 158l-98 -46h-10z" />
    <glyph glyph-name="tcommaaccent" unicode="&#x163;" horiz-adv-x="754" 
d="M277 -40v970h-257v10l75 160h182v360l190 90h10v-450h257v-10l-75 -160h-182v-878q146 -111 146 -258q0 -137 -109 -244h-10l-190 90q134 87 134 208q0 75 -63 158l-98 -46h-10z" />
    <glyph glyph-name="Tcaron" unicode="&#x164;" horiz-adv-x="1066" 
d="M433 -40l1 1380h-121q-119 0 -148 -117h-10l-150 71q59 216 308 216h748v-10l-75 -160h-352l-1 -1290l-190 -90h-10zM448 1566l-213 345l116 55h10l150 -208l148 208h10l118 -55l-153 -261l-176 -84h-10z" />
    <glyph glyph-name="tcaron" unicode="&#x165;" horiz-adv-x="764" 
d="M277 -40v970h-257v10l75 160h182v360l190 90h10v-450h257v-10l-75 -160h-182v-880l-190 -90h-10zM683 1566h10l176 -84l-221 -316h-10l-117 55z" />
    <glyph glyph-name="Tbar" unicode="&#x166;" horiz-adv-x="1066" 
d="M433 -40v598h-188v10l75 160h114v612h-121q-119 0 -148 -117h-10l-150 71q59 216 308 216h748v-10l-75 -160h-352v-612h187v-10l-75 -160h-113v-508l-190 -90h-10z" />
    <glyph glyph-name="tbar" unicode="&#x167;" horiz-adv-x="754" 
d="M277 -40v598h-188v10l75 160h113v202h-257v10l75 160h182v360l190 90h10v-450h257v-10l-75 -160h-182v-202h188v-10l-75 -160h-113v-508l-190 -90h-10z" />
    <glyph glyph-name="Utilde" unicode="&#x168;" horiz-adv-x="1474" 
d="M1274 1550v-795q0 -291 -96 -467q-168 -308 -466 -308q-299 0 -466 308q-96 176 -96 467q0 286 96 467q135 254 352 328h10l75 -149q-178 -84 -265 -257q-68 -133 -68 -389q0 -254 68 -389q108 -216 294 -216q185 0 294 216q68 135 68 389v705l190 90h10zM571 1638
q0 286 141 286q64 0 137 -70q51 -49 75 -49q34 0 34 72l110 47h6q0 -286 -141 -286q-64 0 -137 70q-51 49 -75 49q-34 0 -34 -72l-110 -47h-6z" />
    <glyph glyph-name="utilde" unicode="&#x169;" horiz-adv-x="1173" 
d="M993 1140v-590q0 -208 -71 -339q-126 -231 -350 -231t-350 231q-72 133 -72 339q0 192 72 339q87 183 259 251h10l75 -149q-121 -43 -174 -173q-42 -104 -42 -268q0 -185 42 -268q66 -132 180 -132t180 132q41 83 41 268v500l190 90h10zM422 1232q0 286 141 286
q64 0 137 -70q51 -49 75 -49q34 0 34 72l110 47h6q0 -286 -141 -286q-64 0 -137 70q-51 49 -75 49q-34 0 -34 -72l-110 -47h-6z" />
    <glyph glyph-name="Umacron" unicode="&#x16a;" horiz-adv-x="1474" 
d="M1274 1550v-795q0 -291 -96 -467q-168 -308 -466 -308q-299 0 -466 308q-96 176 -96 467q0 286 96 467q135 254 352 328h10l75 -149q-178 -84 -265 -257q-68 -133 -68 -389q0 -254 68 -389q108 -216 294 -216q185 0 294 216q68 135 68 389v705l190 90h10zM567 1638v10
l81 172h458v-10l-81 -172h-458z" />
    <glyph glyph-name="umacron" unicode="&#x16b;" horiz-adv-x="1173" 
d="M993 1140v-590q0 -208 -71 -339q-126 -231 -350 -231t-350 231q-72 133 -72 339q0 192 72 339q87 183 259 251h10l75 -149q-121 -43 -174 -173q-42 -104 -42 -268q0 -185 42 -268q66 -132 180 -132t180 132q41 83 41 268v500l190 90h10zM400 1232v10l81 172h458v-10
l-81 -172h-458z" />
    <glyph glyph-name="Ubreve" unicode="&#x16c;" horiz-adv-x="1474" 
d="M1274 1550v-795q0 -291 -96 -467q-168 -308 -466 -308q-299 0 -466 308q-96 176 -96 467q0 286 96 467q135 254 352 328h10l75 -149q-178 -84 -265 -257q-68 -133 -68 -389q0 -254 68 -389q108 -216 294 -216q185 0 294 216q68 135 68 389v705l190 90h10zM568 1788v10
l74 149q72 -134 172 -134t172 134l76 -149v-10q-102 -150 -250 -150q-154 0 -244 150z" />
    <glyph glyph-name="ubreve" unicode="&#x16d;" horiz-adv-x="1173" 
d="M993 1140v-590q0 -208 -71 -339q-126 -231 -350 -231t-350 231q-72 133 -72 339q0 192 72 339q87 183 259 251h10l75 -149q-121 -43 -174 -173q-42 -104 -42 -268q0 -185 42 -268q66 -132 180 -132t180 132q41 83 41 268v500l190 90h10zM400 1382v10l74 149
q72 -134 172 -134t172 134l76 -149v-10q-102 -150 -250 -150q-154 0 -244 150z" />
    <glyph glyph-name="Uring" unicode="&#x16e;" horiz-adv-x="1474" 
d="M1274 1550v-795q0 -291 -96 -467q-168 -308 -466 -308q-299 0 -466 308q-96 176 -96 467q0 286 96 467q135 254 352 328h10l75 -149q-178 -84 -265 -257q-68 -133 -68 -389q0 -254 68 -389q108 -216 294 -216q185 0 294 216q68 135 68 389v705l190 90h10zM805 1588
q-80 0 -135 49q-62 55 -62 140q0 83 62 140q53 49 135 49q80 0 135 -49q62 -55 62 -140t-62 -140q-55 -49 -135 -49zM805 1862q-34 0 -54 -21t-20 -64q0 -46 21 -65q22 -20 52 -20q31 0 53 22q20 19 20 63q0 45 -22 66q-20 19 -50 19z" />
    <glyph glyph-name="uring" unicode="&#x16f;" horiz-adv-x="1173" 
d="M993 1140v-590q0 -208 -71 -339q-126 -231 -350 -231t-350 231q-72 133 -72 339q0 192 72 339q87 183 259 251h10l75 -149q-121 -43 -174 -173q-42 -104 -42 -268q0 -185 42 -268q66 -132 180 -132t180 132q41 83 41 268v500l190 90h10zM646 1188q-80 0 -135 49
q-62 55 -62 140q0 83 62 140q53 49 135 49q80 0 135 -49q62 -55 62 -140t-62 -140q-55 -49 -135 -49zM646 1462q-34 0 -54 -21t-20 -64q0 -46 21 -65q22 -20 52 -20q31 0 53 22q20 19 20 63q0 45 -22 66q-20 19 -50 19z" />
    <glyph glyph-name="Uhungarumlaut" unicode="&#x170;" horiz-adv-x="1474" 
d="M1274 1550v-795q0 -291 -96 -467q-168 -308 -466 -308q-299 0 -466 308q-96 176 -96 467q0 286 96 467q135 254 352 328h10l75 -149q-178 -84 -265 -257q-68 -133 -68 -389q0 -254 68 -389q108 -216 294 -216q185 0 294 216q68 135 68 389v705l190 90h10zM1033 1966h10
l176 -84l-221 -316h-10l-117 55zM756 1966h10l176 -84l-221 -316h-10l-117 55z" />
    <glyph glyph-name="uhungarumlaut" unicode="&#x171;" horiz-adv-x="1173" 
d="M993 1140v-590q0 -208 -71 -339q-126 -231 -350 -231t-350 231q-72 133 -72 339q0 192 72 339q87 183 259 251h10l75 -149q-121 -43 -174 -173q-42 -104 -42 -268q0 -185 42 -268q66 -132 180 -132t180 132q41 83 41 268v500l190 90h10zM850 1566h10l176 -84l-221 -316
h-10l-117 55zM573 1566h10l176 -84l-221 -316h-10l-117 55z" />
    <glyph glyph-name="Uogonek" unicode="&#x172;" horiz-adv-x="1474" 
d="M1274 1550v-795q0 -290 -96 -467q-78 -144 -185 -220q-105 -112 -105 -220q0 -121 134 -208l-190 -90h-10q-109 107 -109 244q0 105 73 191q-36 -5 -74 -5q-299 0 -466 308q-96 177 -96 467q0 286 96 467q135 254 352 328h10l75 -149q-177 -84 -265 -257
q-68 -134 -68 -389q0 -254 68 -389q108 -216 294 -216q185 0 294 216q68 135 68 389v705l190 90h10z" />
    <glyph glyph-name="uogonek" unicode="&#x173;" horiz-adv-x="1173" 
d="M993 1140v-590q0 -209 -71 -339q-48 -88 -111 -143q-103 -110 -103 -220q0 -121 134 -208l-190 -90h-10q-109 107 -109 244q0 104 69 187q-15 -1 -30 -1q-224 0 -350 231q-72 133 -72 339q0 192 72 339q87 183 259 251h10l75 -149q-121 -43 -174 -173q-42 -104 -42 -268
q0 -185 42 -268q66 -132 180 -132t180 132q41 83 41 268v500l190 90h10z" />
    <glyph glyph-name="Wcircumflex" unicode="&#x174;" horiz-adv-x="2348" 
d="M1274 1550v-795q0 -254 68 -389q109 -216 294 -216t294 216q68 135 68 389q0 256 -68 389q-89 174 -265 257l75 149h10q217 -74 352 -328q96 -181 96 -467q0 -290 -96 -467q-167 -308 -466 -308q-294 0 -462 301q-168 -301 -462 -301q-299 0 -466 308q-96 177 -96 467
q0 286 96 467q135 254 352 328h10l75 -149q-177 -84 -265 -257q-68 -134 -68 -389q0 -254 68 -389q108 -216 294 -216q185 0 294 216q68 135 68 389v705l190 90h10zM903 1621l153 261l176 84h10l213 -345l-116 -55h-10l-150 208l-148 -208h-10z" />
    <glyph glyph-name="wcircumflex" unicode="&#x175;" horiz-adv-x="1786" 
d="M993 1140v-590q0 -183 41 -268q64 -132 180 -132q114 0 180 132q42 85 42 268q0 164 -42 268q-53 130 -174 173l75 149h10q172 -68 259 -251q72 -151 72 -339q0 -206 -72 -339q-126 -231 -350 -231q-199 0 -321 184q-122 -184 -321 -184q-225 0 -350 231q-72 133 -72 339
q0 188 72 339q87 183 259 251h10l75 -149q-121 -43 -174 -173q-42 -104 -42 -268q0 -183 42 -268q66 -132 180 -132t180 132q41 83 41 268v500l190 90h10zM618 1221l153 261l176 84h10l213 -345l-116 -55h-10l-150 208l-148 -208h-10z" />
    <glyph glyph-name="Ycircumflex" unicode="&#x176;" horiz-adv-x="1372" 
d="M972 -40v570q-126 -146 -315 -146q-258 0 -418 204q-119 152 -119 366q0 230 121 388q101 132 227 208h10l75 -149q-87 -59 -140 -137q-93 -137 -93 -310q0 -178 98.5 -289t238.5 -111q135 0 226 104q89 102 89 236v566l190 90h10v-1500l-190 -90h-10zM470 1621l153 261
l176 84h10l213 -345l-116 -55h-10l-150 208l-148 -208h-10z" />
    <glyph glyph-name="ycircumflex" unicode="&#x177;" horiz-adv-x="1193" 
d="M993 1140v-1000q0 -205 -71 -339q-124 -231 -350 -231h-241v10l76 160h165q126 0 180 132q37 91 37 208q-98 -100 -218 -100q-224 0 -349 231q-72 133 -72 339q0 188 72 339q87 183 259 251h10l75 -149q-121 -43 -174 -173q-42 -104 -42 -268q0 -185 42 -268
q66 -132 180 -132t180 132q41 83 41 268v500l190 90h10zM374 1221l153 261l176 84h10l213 -345l-116 -55h-10l-150 208l-148 -208h-10z" />
    <glyph glyph-name="Ydieresis" unicode="&#x178;" horiz-adv-x="1372" 
d="M972 -40v570q-126 -146 -315 -146q-258 0 -418 204q-119 152 -119 366q0 230 121 388q101 132 227 208h10l75 -149q-87 -59 -140 -137q-93 -137 -93 -310q0 -178 98.5 -289t238.5 -111q135 0 226 104q89 102 89 236v566l190 90h10v-1500l-190 -90h-10zM768 1802.5
q0 50.5 35 86.5t85 36t85 -36t35 -86.5t-35 -86.5t-85 -36t-85 36t-35 86.5zM468 1802.5q0 50.5 35 86.5t85 36t85 -36t35 -86.5t-35 -86.5t-85 -36t-85 36t-35 86.5z" />
    <glyph glyph-name="Zacute" unicode="&#x179;" horiz-adv-x="1208" 
d="M313 0q-193 0 -193 134q0 113 96 257l606 949h-635v10l75 160h560q198 0 198 -136q0 -102 -101 -255l-606 -949h467q118 0 148 117h10l150 -71q-60 -216 -308 -216h-467zM699 1966h10l176 -84l-221 -316h-10l-117 55z" />
    <glyph glyph-name="zacute" unicode="&#x17a;" horiz-adv-x="1053" 
d="M293 0q-193 0 -193 134q0 99 126 246l461 550h-520v10l75 160h445q193 0 193 -134q0 -91 -126 -242l-461 -554h352q118 0 148 117h10l150 -71q-60 -216 -308 -216h-352zM602 1566h10l176 -84l-221 -316h-10l-117 55z" />
    <glyph glyph-name="Zdotaccent" unicode="&#x17b;" horiz-adv-x="1208" 
d="M313 0q-193 0 -193 134q0 113 96 257l606 949h-635v10l75 160h560q198 0 198 -136q0 -102 -101 -255l-606 -949h467q118 0 148 117h10l150 -71q-60 -216 -308 -216h-467zM527 1802.5q0 50.5 35 86.5t85 36t85 -36t35 -86.5t-35 -86.5t-85 -36t-85 36t-35 86.5z" />
    <glyph glyph-name="zdotaccent" unicode="&#x17c;" horiz-adv-x="1053" 
d="M293 0q-193 0 -193 134q0 99 126 246l461 550h-520v10l75 160h445q193 0 193 -134q0 -91 -126 -242l-461 -554h352q118 0 148 117h10l150 -71q-60 -216 -308 -216h-352zM418 1407.5q0 50.5 35 86.5t85 36t85 -36t35 -86.5t-35 -86.5t-85 -36t-85 36t-35 86.5z" />
    <glyph glyph-name="Zcaron" unicode="&#x17d;" horiz-adv-x="1208" 
d="M313 0q-193 0 -193 134q0 113 96 257l606 949h-635v10l75 160h560q198 0 198 -136q0 -102 -101 -255l-606 -949h467q118 0 148 117h10l150 -71q-60 -216 -308 -216h-467zM569 1566l-213 345l116 55h10l150 -208l148 208h10l118 -55l-153 -261l-176 -84h-10z" />
    <glyph glyph-name="zcaron" unicode="&#x17e;" horiz-adv-x="1053" 
d="M293 0q-193 0 -193 134q0 99 126 246l461 550h-520v10l75 160h445q193 0 193 -134q0 -91 -126 -242l-461 -554h352q118 0 148 117h10l150 -71q-60 -216 -308 -216h-352zM480 1166l-213 345l116 55h10l150 -208l148 208h10l118 -55l-153 -261l-176 -84h-10z" />
    <glyph glyph-name="longs" unicode="&#x17f;" horiz-adv-x="856" 
d="M250 -40v870h-200v10l75 160h126q6 180 71 299q126 231 349 231h135v-10l-76 -160h-59q-110 0 -180 -132q-41 -77 -41 -230v-948l-190 -90h-10z" />
    <glyph glyph-name="uni0191" unicode="&#x191;" horiz-adv-x="1130" 
d="M-41 -430l82 180q62 34 98 112q41 89 41 268v625q0 289 96 467q168 308 466 308h268v-10l-75 -160h-193q-186 0 -294 -216q-56 -112 -66 -304h568v-10l-75 -160h-495v-540q0 -207 -72 -339q-126 -231 -349 -231v10z" />
    <glyph glyph-name="florin" unicode="&#x192;" horiz-adv-x="836" 
d="M-41 -430l82 180q66 37 98 112q41 98 41 268v830q0 208 72 339q126 231 349 231h135v-10l-76 -160h-59q-113 0 -180 -132q-36 -71 -41 -228h356v-10l-75 -160h-281v-700q0 -207 -72 -339q-126 -231 -349 -231v10z" />
    <glyph glyph-name="uni01E4" unicode="&#x1e4;" horiz-adv-x="1424" 
d="M1274 840v-85q0 -140 -22 -253h122v-10l-75 -160h-99q-10 -23 -22 -44q-176 -308 -466 -308q-298 0 -466 308q-96 176 -96 467t96 467q168 308 466 308q299 0 466 -308l-162 -78h-10q-108 216 -294 216q-184 0 -294 -216q-68 -135 -68 -389q0 -257 68 -389
q111 -216 294 -216q170 0 276 182h-190v10l75 160h178q16 75 21 168h-377v10l75 160h504z" />
    <glyph glyph-name="uni01E5" unicode="&#x1e5;" horiz-adv-x="1163" 
d="M150 550q0 207 72 339q126 231 349 231t349 -231q62 -114 71 -279h122v-10l-75 -160h-45v-300q0 -205 -71 -339q-124 -231 -350 -231h-241v10l76 160h165q126 0 180 132q37 91 37 208q-98 -100 -218 -100q-220 0 -349 231q-72 129 -72 339zM350 550q0 -186 41 -268
q66 -132 180 -132t180 132q28 56 37 158h-251v10l75 160h180q-6 139 -41 208q-67 132 -180 132q-115 0 -181 -133q-40 -81 -40 -267z" />
    <glyph glyph-name="AEacute" unicode="&#x1fc;" horiz-adv-x="2104" 
d="M382 840h720q-10 192 -66 304q-108 216 -294 216q-185 0 -294 -216q-56 -112 -66 -304zM180 -40v795q0 291 96 467q168 308 466 308q295 0 461 -299q167 299 461 299h268v-10l-75 -160h-193q-186 0 -294 -216q-56 -112 -66 -304h568v-10l-75 -160h-495v-456q0 -44 50 -44
h394q118 0 148 117h10l150 -71q-60 -216 -308 -216h-394q-250 0 -250 214v456h-722v-620l-190 -90h-10zM1235 1966h10l176 -84l-221 -316h-10l-117 55z" />
    <glyph glyph-name="aeacute" unicode="&#x1fd;" horiz-adv-x="1688" 
d="M294 362q0 -90 54.5 -151t147.5 -61q92 0 154 63q58 59 58 145q0 90 -62 151t-149 61q-93 0 -149 -62q-54 -61 -54 -146zM710 -40v140q-86 -119 -215 -120q-187 0 -291 113t-104 267q0 160 113 272q109 108 282 108q123 0 211 -110q-18 151 -37 188q-67 132 -180 132
h-233v10l76 160h157q200 0 321 -184q121 184 321 184q223 0 349 -230q31 -57 50 -133l-580 -472q67 -135 183 -135q113 0 178 132l217 95h10q-18 -95 -57 -166q-127 -231 -350 -231q-125 0 -221 75v-5l-190 -90h-10zM912 473l399 345q-65 132 -180 132q-113 0 -180 -132
q-41 -82 -41 -268q0 -41 2 -77zM910 1566h10l176 -84l-221 -316h-10l-117 55z" />
    <glyph glyph-name="Oslashacute" unicode="&#x1fe;" horiz-adv-x="1424" 
d="M411 -40h-10l-104 50l58 125q-60 63 -109 153q-96 176 -96 467t96 467q168 308 466 308q145 0 258 -72l43 92h10l104 -51l-58 -124q60 -63 109 -153q96 -177 96 -467t-96 -467q-167 -308 -466 -308q-144 0 -258 72zM350 755q0 -259 68 -389q12 -23 24 -43l452 971
q-79 66 -182 66q-185 0 -294 -216q-68 -135 -68 -389zM982 1188l-451 -971q79 -67 181 -67q185 0 294 216q68 135 68 389q0 259 -68 389q-12 23 -24 44zM817 1966h10l176 -84l-221 -316h-10l-117 55z" />
    <glyph glyph-name="oslashacute" unicode="&#x1ff;" horiz-adv-x="1143" 
d="M365 -40h-10l-104 50l45 96q-40 45 -74 105q-72 127 -72 339q0 207 72 339q126 231 349 231q97 0 175 -44l30 64h10l105 -51l-44 -94q40 -45 73 -106q73 -135 73 -339q0 -208 -72 -339q-127 -231 -350 -231q-97 0 -176 45zM673 918q-45 32 -102 32q-115 0 -181 -133
q-40 -81 -40 -267q0 -170 34 -253zM758 803l-289 -620q45 -33 102 -33q114 0 180 132q42 83 42 268q0 169 -35 253zM683 1566h10l176 -84l-221 -316h-10l-117 55z" />
    <glyph glyph-name="Scommaaccent" unicode="&#x218;" horiz-adv-x="1210" 
d="M120 288l162 78h10q108 -216 294 -216q128 0 229 115q73 84 73 213q0 100 -64 168q-74 79 -220 110q-152 31 -265 112q-138 100 -138 264q0 180 129 296q112 102 286 102q224 0 348 -228l-158 -75h-10q-67 133 -180 133q-96 -1 -155 -61q-60 -61 -60 -152q0 -80 53 -126
q67 -58 207 -86q187 -36 308 -156q121 -121 121 -307q0 -190 -144 -340q-143 -152 -360 -152q-299 0 -466 308zM501 -450h-10l-176 84l221 316h10l117 -55z" />
    <glyph glyph-name="scommaaccent" unicode="&#x219;" horiz-adv-x="1003" 
d="M120 208l158 74h10q66 -132 180 -132q110 0 170 72q49 59 49 129q0 73 -52 116q-54 44 -156 60q-130 21 -207 76q-108 77 -108 222q0 139 127 230q92 65 207 65q197 0 286 -190l-158 -74h-10q-45 94 -118 94q-59 0 -97 -30q-46 -36 -46 -99q0 -61 50 -88q51 -28 156 -49
q130 -26 211 -89q111 -86 111 -255q0 -131 -115 -248q-109 -112 -300 -112q-224 0 -348 228zM364 -450h-10l-176 84l221 316h10l117 -55z" />
    <glyph glyph-name="uni021A" unicode="&#x21a;" horiz-adv-x="1066" 
d="M433 -40l1 1380h-121q-119 0 -148 -117h-10l-150 71q59 216 308 216h748v-10l-75 -160h-352l-1 -1290l-190 -90h-10zM477 -450h-10l-176 84l221 316h10l117 -55z" />
    <glyph glyph-name="uni021B" unicode="&#x21b;" horiz-adv-x="754" 
d="M277 -40v970h-257v10l75 160h182v360l190 90h10v-450h257v-10l-75 -160h-182v-880l-190 -90h-10zM354 -450h-10l-176 84l221 316h10l117 -55z" />
    <glyph glyph-name="uni0237" unicode="&#x237;" 
d="M-21 -430l82 180q58 33 98 112q41 83 41 268v920l190 90h10v-1010q0 -208 -72 -339q-125 -231 -349 -231v10z" />
    <glyph glyph-name="Delta" unicode="&#x394;" horiz-adv-x="1138" 
d="M243 0q-193 0 -193 134q0 94 73 301l343 1033l173 82h10l366 -1115q73 -205 73 -301q0 -134 -193 -134h-652zM243 170h649l-321 1045z" />
    <glyph glyph-name="Pi" unicode="&#x3a0;" horiz-adv-x="1390" 
d="M200 -40v1336q0 214 250 214h490q250 0 250 -214v-1246l-190 -90h-10v1336q0 44 -50 44h-490q-50 0 -50 -44v-1246l-190 -90h-10z" />
    <glyph glyph-name="Sigma" unicode="&#x3a3;" horiz-adv-x="1168" 
d="M343 0q-193 0 -193 134q0 84 112 228l323 412l-292 374q-112 144 -112 228q0 134 193 134h568v-10l-75 -160h-493l443 -566l-474 -604h467q118 0 148 117h10l150 -71q-60 -216 -308 -216h-467z" />
    <glyph glyph-name="Omega" unicode="&#x3a9;" horiz-adv-x="1474" 
d="M630 0h-222q-248 0 -308 216l150 71h10q32 -117 148 -117h60v97q-296 178 -296 631q0 220 126 399q164 233 439 233q273 0 439 -233q126 -177 126 -399q0 -453 -296 -631v-97h60q116 0 148 117h10l150 -71q-60 -216 -308 -216h-222v368q258 131 258 530q0 177 -91 313
q-102 153 -272 153q-174 0 -276 -153q-91 -136 -91 -313q0 -399 258 -530v-368z" />
    <glyph glyph-name="mu" unicode="&#x3bc;" horiz-adv-x="1203" 
d="M180 -450v1000q0 188 72 339q87 183 259 251h10l75 -149q-121 -43 -174 -173q-42 -104 -42 -268q0 -185 42 -268q66 -132 180 -132t180 132q41 83 41 268v500l190 90h10v-590q0 -209 -71 -339q-126 -231 -350 -231q-127 0 -222 74v-414l-190 -90h-10z" />
    <glyph glyph-name="pi" unicode="&#x3c0;" horiz-adv-x="1173" 
d="M200 -40v926q0 214 250 214h273q250 0 250 -214v-836l-190 -90h-10v926q0 44 -50 44h-273q-50 0 -50 -44v-836l-190 -90h-10z" />
    <glyph glyph-name="uni1E02" unicode="&#x1e02;" horiz-adv-x="1397" 
d="M430 0q-250 0 -250 214v541q0 291 96 467q168 308 466 308q168 0 281 -92q133 -109 133 -297q0 -172 -152 -286q49 -21 97 -63q146 -133 146 -330q0 -198 -128 -325q-138 -137 -377 -137h-312zM742 756h-362v-1v-541q0 -44 50 -44h312q146 0 238 98q67 71 67 188
q0 123 -65 198q-88 102 -240 102zM389 926h353q100 0 161 65q54 59 54 155q0 95 -57.5 154.5t-157.5 59.5q-185 0 -294 -216q-43 -85 -59 -218zM574 1802.5q0 50.5 35 86.5t85 36t85 -36t35 -86.5t-35 -86.5t-85 -36t-85 36t-35 86.5z" />
    <glyph glyph-name="uni1E03" unicode="&#x1e03;" horiz-adv-x="1173" 
d="M380 550q0 -188 41 -268q68 -132 180 -132q113 0 180 132q42 83 42 268t-42 268q-66 131 -180 131q-115 0 -181 -133q-40 -81 -40 -266zM380 1016q99 104 221 104q224 0 349 -231q73 -133 73 -339q0 -208 -72 -339q-127 -231 -350 -231q-220 0 -349 231q-72 129 -72 339
v910l190 90h10v-534zM559 1407.5q0 50.5 35 86.5t85 36t85 -36t35 -86.5t-35 -86.5t-85 -36t-85 36t-35 86.5z" />
    <glyph glyph-name="uni1E0A" unicode="&#x1e0a;" horiz-adv-x="1454" 
d="M430 0q-250 0 -250 214v541q0 291 96 467q168 308 466 308q299 0 466 -308q96 -176 96 -467q0 -251 -98 -441q-162 -314 -464 -314h-312zM742 170q187 0 292 222q70 148 70 363q0 253 -68 389q-108 216 -294 216q-185 0 -294 -216q-68 -134 -68 -389v-541q0 -44 50 -44
h312zM595 1802.5q0 50.5 35 86.5t85 36t85 -36t35 -86.5t-35 -86.5t-85 -36t-85 36t-35 86.5z" />
    <glyph glyph-name="uni1E0B" unicode="&#x1e0b;" horiz-adv-x="1173" 
d="M150 550q0 208 72 339q125 231 349 231q130 0 222 -105v445l190 90h10v-1000q0 -208 -72 -339q-127 -231 -350 -231q-220 0 -349 231q-72 129 -72 339zM350 550q0 -188 41 -268q68 -132 180 -132q113 0 180 132q42 83 42 268t-42 268q-66 131 -180 131t-180 -133
q-41 -83 -41 -266zM346 1407.5q0 50.5 35 86.5t85 36t85 -36t35 -86.5t-35 -86.5t-85 -36t-85 36t-35 86.5z" />
    <glyph glyph-name="uni1E1E" unicode="&#x1e1e;" horiz-adv-x="1110" 
d="M180 -40v795q0 292 96 467q168 308 466 308h268v-10l-75 -160h-193q-186 0 -294 -216q-56 -112 -66 -304h568v-10l-75 -160h-495v-620l-190 -90h-10zM470 1802.5q0 50.5 35 86.5t85 36t85 -36t35 -86.5t-35 -86.5t-85 -36t-85 36t-35 86.5z" />
    <glyph glyph-name="uni1E1F" unicode="&#x1e1f;" horiz-adv-x="836" 
d="M180 -40v1000q0 208 72 339q126 231 349 231h135v-10l-76 -160h-59q-113 0 -180 -132q-36 -71 -41 -228h356v-10l-75 -160h-281v-780l-190 -90h-10zM340 1802.5q0 50.5 35 86.5t85 36t85 -36t35 -86.5t-35 -86.5t-85 -36t-85 36t-35 86.5z" />
    <glyph glyph-name="uni1E40" unicode="&#x1e40;" horiz-adv-x="2348" 
d="M1074 -40v795q0 254 -68 389q-110 216 -294 216q-186 0 -294 -216q-68 -135 -68 -389q0 -256 68 -389q89 -174 265 -257l-75 -149h-10q-217 74 -352 328q-96 181 -96 467q0 290 96 467q167 308 466 308q294 0 462 -301q168 301 462 301q299 0 466 -308q96 -177 96 -467
q0 -286 -96 -467q-135 -254 -352 -328h-10l-75 149q177 84 265 257q68 134 68 389q0 254 -68 389q-109 216 -294 216t-294 -216q-68 -135 -68 -389v-705l-190 -90h-10zM1086 1802.5q0 50.5 35 86.5t85 36t85 -36t35 -86.5t-35 -86.5t-85 -36t-85 36t-35 86.5z" />
    <glyph glyph-name="uni1E41" unicode="&#x1e41;" horiz-adv-x="1786" 
d="M793 -40v590q0 183 -41 268q-64 132 -180 132q-113 0 -180 -132q-42 -85 -42 -268q0 -164 42 -268q53 -130 174 -173l-75 -149h-10q-172 68 -259 251q-72 151 -72 339q0 206 72 339q126 231 350 231q199 0 321 -184q122 184 321 184q224 0 350 -231q72 -133 72 -339
q0 -192 -72 -339q-87 -183 -259 -251h-10l-75 149q121 43 174 173q42 104 42 268q0 183 -42 268q-66 132 -180 132t-180 -132q-41 -83 -41 -268v-500l-190 -90h-10zM770 1407.5q0 50.5 35 86.5t85 36t85 -36t35 -86.5t-35 -86.5t-85 -36t-85 36t-35 86.5z" />
    <glyph glyph-name="uni1E56" unicode="&#x1e56;" horiz-adv-x="1374" 
d="M180 -40v795q0 291 96 467q168 308 466 308q249 0 393 -184q119 -152 119 -341q0 -172 -121 -321q-150 -184 -441 -184h-312v-450l-190 -90h-10zM380 670h312q188 0 269 92q93 106 93 243q0 162 -96 262q-90 93 -216 93q-184 0 -294 -216q-68 -134 -68 -389v-85z
M595 1802.5q0 50.5 35 86.5t85 36t85 -36t35 -86.5t-35 -86.5t-85 -36t-85 36t-35 86.5z" />
    <glyph glyph-name="uni1E57" unicode="&#x1e57;" horiz-adv-x="1163" 
d="M371 550q0 -186 41 -268q66 -132 180 -132t180 132q42 83 42 268t-42 268q-65 132 -180 132t-181 -133q-40 -81 -40 -267zM170 -450v1000q0 208 72 339q127 231 350 231q220 0 349 -231q72 -129 72 -339q0 -208 -71 -339q-126 -231 -350 -231q-130 0 -222 105v-445
l-190 -90h-10zM500 1407.5q0 50.5 35 86.5t85 36t85 -36t35 -86.5t-35 -86.5t-85 -36t-85 36t-35 86.5z" />
    <glyph glyph-name="uni1E60" unicode="&#x1e60;" horiz-adv-x="1210" 
d="M120 288l162 78h10q108 -216 294 -216q128 0 229 115q73 84 73 213q0 100 -64 168q-74 79 -220 110q-152 31 -265 112q-138 100 -138 264q0 180 129 296q112 102 286 102q224 0 348 -228l-158 -75h-10q-67 133 -180 133q-96 -1 -155 -61q-60 -61 -60 -152q0 -80 53 -126
q67 -58 207 -86q187 -36 308 -156q121 -121 121 -307q0 -190 -144 -340q-143 -152 -360 -152q-299 0 -466 308zM476 1802.5q0 50.5 35 86.5t85 36t85 -36t35 -86.5t-35 -86.5t-85 -36t-85 36t-35 86.5z" />
    <glyph glyph-name="uni1E61" unicode="&#x1e61;" horiz-adv-x="1003" 
d="M120 208l158 74h10q66 -132 180 -132q110 0 170 72q49 59 49 129q0 73 -52 116q-54 44 -156 60q-130 21 -207 76q-108 77 -108 222q0 139 127 230q92 65 207 65q197 0 286 -190l-158 -74h-10q-45 94 -118 94q-59 0 -97 -30q-46 -36 -46 -99q0 -61 50 -88q51 -28 156 -49
q130 -26 211 -89q111 -86 111 -255q0 -131 -115 -248q-109 -112 -300 -112q-224 0 -348 228zM364 1407.5q0 50.5 35 86.5t85 36t85 -36t35 -86.5t-35 -86.5t-85 -36t-85 36t-35 86.5z" />
    <glyph glyph-name="uni1E6A" unicode="&#x1e6a;" horiz-adv-x="1066" 
d="M433 -40l1 1380h-121q-119 0 -148 -117h-10l-150 71q59 216 308 216h748v-10l-75 -160h-352l-1 -1290l-190 -90h-10zM406 1802.5q0 50.5 35 86.5t85 36t85 -36t35 -86.5t-35 -86.5t-85 -36t-85 36t-35 86.5z" />
    <glyph glyph-name="uni1E6B" unicode="&#x1e6b;" horiz-adv-x="754" 
d="M277 -40v970h-257v10l75 160h182v360l190 90h10v-450h257v-10l-75 -160h-182v-880l-190 -90h-10zM262 1802.5q0 50.5 35 86.5t85 36t85 -36t35 -86.5t-35 -86.5t-85 -36t-85 36t-35 86.5z" />
    <glyph glyph-name="Wgrave" unicode="&#x1e80;" horiz-adv-x="2348" 
d="M1274 1550v-795q0 -254 68 -389q109 -216 294 -216t294 216q68 135 68 389q0 256 -68 389q-89 174 -265 257l75 149h10q217 -74 352 -328q96 -181 96 -467q0 -290 -96 -467q-167 -308 -466 -308q-294 0 -462 301q-168 -301 -462 -301q-299 0 -466 308q-96 177 -96 467
q0 286 96 467q135 254 352 328h10l75 -149q-177 -84 -265 -257q-68 -134 -68 -389q0 -254 68 -389q108 -216 294 -216q185 0 294 216q68 135 68 389v705l190 90h10zM1051 1966h10l162 -345l-117 -55h-10l-221 316z" />
    <glyph glyph-name="wgrave" unicode="&#x1e81;" horiz-adv-x="1786" 
d="M993 1140v-590q0 -183 41 -268q64 -132 180 -132q114 0 180 132q42 85 42 268q0 164 -42 268q-53 130 -174 173l75 149h10q172 -68 259 -251q72 -151 72 -339q0 -206 -72 -339q-126 -231 -350 -231q-199 0 -321 184q-122 -184 -321 -184q-225 0 -350 231q-72 133 -72 339
q0 188 72 339q87 183 259 251h10l75 -149q-121 -43 -174 -173q-42 -104 -42 -268q0 -183 42 -268q66 -132 180 -132t180 132q41 83 41 268v500l190 90h10zM829 1566h10l162 -345l-117 -55h-10l-221 316z" />
    <glyph glyph-name="Wacute" unicode="&#x1e82;" horiz-adv-x="2348" 
d="M1274 1550v-795q0 -254 68 -389q109 -216 294 -216t294 216q68 135 68 389q0 256 -68 389q-89 174 -265 257l75 149h10q217 -74 352 -328q96 -181 96 -467q0 -290 -96 -467q-167 -308 -466 -308q-294 0 -462 301q-168 -301 -462 -301q-299 0 -466 308q-96 177 -96 467
q0 286 96 467q135 254 352 328h10l75 -149q-177 -84 -265 -257q-68 -134 -68 -389q0 -254 68 -389q108 -216 294 -216q185 0 294 216q68 135 68 389v705l190 90h10zM1253 1966h10l176 -84l-221 -316h-10l-117 55z" />
    <glyph glyph-name="wacute" unicode="&#x1e83;" horiz-adv-x="1786" 
d="M993 1140v-590q0 -183 41 -268q64 -132 180 -132q114 0 180 132q42 85 42 268q0 164 -42 268q-53 130 -174 173l75 149h10q172 -68 259 -251q72 -151 72 -339q0 -206 -72 -339q-126 -231 -350 -231q-199 0 -321 184q-122 -184 -321 -184q-225 0 -350 231q-72 133 -72 339
q0 188 72 339q87 183 259 251h10l75 -149q-121 -43 -174 -173q-42 -104 -42 -268q0 -183 42 -268q66 -132 180 -132t180 132q41 83 41 268v500l190 90h10zM917 1566h10l176 -84l-221 -316h-10l-117 55z" />
    <glyph glyph-name="Wdieresis" unicode="&#x1e84;" horiz-adv-x="2348" 
d="M1274 1550v-795q0 -254 68 -389q109 -216 294 -216t294 216q68 135 68 389q0 256 -68 389q-89 174 -265 257l75 149h10q217 -74 352 -328q96 -181 96 -467q0 -290 -96 -467q-167 -308 -466 -308q-294 0 -462 301q-168 -301 -462 -301q-299 0 -466 308q-96 177 -96 467
q0 286 96 467q135 254 352 328h10l75 -149q-177 -84 -265 -257q-68 -134 -68 -389q0 -254 68 -389q108 -216 294 -216q185 0 294 216q68 135 68 389v705l190 90h10zM1228 1802.5q0 50.5 35 86.5t85 36t85 -36t35 -86.5t-35 -86.5t-85 -36t-85 36t-35 86.5zM928 1802.5
q0 50.5 35 86.5t85 36t85 -36t35 -86.5t-35 -86.5t-85 -36t-85 36t-35 86.5z" />
    <glyph glyph-name="wdieresis" unicode="&#x1e85;" horiz-adv-x="1786" 
d="M993 1140v-590q0 -183 41 -268q64 -132 180 -132q114 0 180 132q42 85 42 268q0 164 -42 268q-53 130 -174 173l75 149h10q172 -68 259 -251q72 -151 72 -339q0 -206 -72 -339q-126 -231 -350 -231q-199 0 -321 184q-122 -184 -321 -184q-225 0 -350 231q-72 133 -72 339
q0 188 72 339q87 183 259 251h10l75 -149q-121 -43 -174 -173q-42 -104 -42 -268q0 -183 42 -268q66 -132 180 -132t180 132q41 83 41 268v500l190 90h10zM902 1407.5q0 50.5 35 86.5t85 36t85 -36t35 -86.5t-35 -86.5t-85 -36t-85 36t-35 86.5zM602 1407.5q0 50.5 35 86.5
t85 36t85 -36t35 -86.5t-35 -86.5t-85 -36t-85 36t-35 86.5z" />
    <glyph glyph-name="Ygrave" unicode="&#x1ef2;" horiz-adv-x="1372" 
d="M972 -40v570q-126 -146 -315 -146q-258 0 -418 204q-119 152 -119 366q0 230 121 388q101 132 227 208h10l75 -149q-87 -59 -140 -137q-93 -137 -93 -310q0 -178 98.5 -289t238.5 -111q135 0 226 104q89 102 89 236v566l190 90h10v-1500l-190 -90h-10zM696 1966h10
l162 -345l-117 -55h-10l-221 316z" />
    <glyph glyph-name="ygrave" unicode="&#x1ef3;" horiz-adv-x="1173" 
d="M993 1140v-1000q0 -205 -71 -339q-124 -231 -350 -231h-241v10l76 160h165q126 0 180 132q37 91 37 208q-98 -100 -218 -100q-224 0 -349 231q-72 133 -72 339q0 188 72 339q87 183 259 251h10l75 -149q-121 -43 -174 -173q-42 -104 -42 -268q0 -185 42 -268
q66 -132 180 -132t180 132q41 83 41 268v500l190 90h10zM573 1566h10l162 -345l-117 -55h-10l-221 316z" />
    <glyph glyph-name="uni2010" unicode="&#x2010;" horiz-adv-x="1214" 
d="M225 664v10l81 172h683v-10l-81 -172h-683z" />
    <glyph glyph-name="uni2011" unicode="&#x2011;" horiz-adv-x="1214" 
d="M225 664v10l81 172h683v-10l-81 -172h-683z" />
    <glyph glyph-name="figuredash" unicode="&#x2012;" horiz-adv-x="1214" 
d="M150 664v10l81 172h833v-10l-81 -172h-833z" />
    <glyph glyph-name="endash" unicode="&#x2013;" horiz-adv-x="1214" 
d="M150 664v10l81 172h833v-10l-81 -172h-833z" />
    <glyph glyph-name="emdash" unicode="&#x2014;" horiz-adv-x="1214" 
d="M25 664v10l81 172h1083v-10l-81 -172h-1083z" />
    <glyph glyph-name="afii00208" unicode="&#x2015;" horiz-adv-x="1214" 
d="M25 664v10l81 172h1083v-10l-81 -172h-1083z" />
    <glyph glyph-name="underscoredbl" unicode="&#x2017;" horiz-adv-x="1214" 
d="M150 -182v10l81 172h833v-10l-81 -172h-833zM150 -410v10l81 172h833v-10l-81 -172h-833z" />
    <glyph glyph-name="quoteleft" unicode="&#x2018;" horiz-adv-x="609" 
d="M395 1550l43 -50q-113 -115 -113 -216q0 -121 134 -208l-190 -90h-10q-109 107 -109 244q0 191 245 320z" />
    <glyph glyph-name="quoteright" unicode="&#x2019;" horiz-adv-x="609" 
d="M340 1550h10q109 -107 109 -244q0 -191 -245 -320l-43 50q113 115 113 216q0 121 -134 208z" />
    <glyph glyph-name="quotesinglbase" unicode="&#x201a;" horiz-adv-x="609" 
d="M340 278h10q109 -107 109 -244q0 -191 -245 -320l-43 50q113 115 113 216q0 121 -134 208z" />
    <glyph glyph-name="quotereversed" unicode="&#x201b;" horiz-adv-x="609" 
d="M259 1550h10l190 -90q-134 -87 -134 -208q0 -101 113 -216l-43 -50q-245 129 -245 320q0 137 109 244z" />
    <glyph glyph-name="quotedblleft" unicode="&#x201c;" horiz-adv-x="924" 
d="M395 1550l43 -50q-113 -115 -113 -216q0 -121 134 -208l-190 -90h-10q-109 107 -109 244q0 191 245 320zM710 1550l43 -50q-113 -115 -113 -216q0 -121 134 -208l-190 -90h-10q-109 107 -109 244q0 191 245 320z" />
    <glyph glyph-name="quotedblright" unicode="&#x201d;" horiz-adv-x="924" 
d="M655 1550h10q109 -107 109 -244q0 -191 -245 -320l-43 50q113 115 113 216q0 121 -134 208zM340 1550h10q109 -107 109 -244q0 -191 -245 -320l-43 50q113 115 113 216q0 121 -134 208z" />
    <glyph glyph-name="quotedblbase" unicode="&#x201e;" horiz-adv-x="924" 
d="M655 278h10q109 -107 109 -244q0 -191 -245 -320l-43 50q113 115 113 216q0 121 -134 208zM340 278h10q109 -107 109 -244q0 -191 -245 -320l-43 50q113 115 113 216q0 121 -134 208z" />
    <glyph glyph-name="uni201F" unicode="&#x201f;" horiz-adv-x="924" 
d="M259 1550h10l190 -90q-134 -87 -134 -208q0 -101 113 -216l-43 -50q-245 129 -245 320q0 137 109 244zM574 1550h10l190 -90q-134 -87 -134 -208q0 -101 113 -216l-43 -50q-245 129 -245 320q0 137 109 244z" />
    <glyph glyph-name="dagger" unicode="&#x2020;" horiz-adv-x="1214" 
d="M517 -40h-10v1036h-357v10l81 172h276v282l190 90h10v-372h357v-10l-81 -172h-276v-946z" />
    <glyph glyph-name="daggerdbl" unicode="&#x2021;" horiz-adv-x="1214" 
d="M517 -40h-10v372h-357v10l81 172h276v482h-357v10l81 172h276v282l190 90h10v-372h357v-10l-81 -172h-276v-482h357v-10l-81 -172h-276v-282z" />
    <glyph glyph-name="bullet" unicode="&#x2022;" horiz-adv-x="1038" 
d="M150 757q0 171 118 297q94 100 251 100q156 0 251 -100q118 -126 118 -300t-118 -300q-94 -100 -251 -100t-251 100q-118 126 -118 303z" />
    <glyph glyph-name="uni2023" unicode="&#x2023;" horiz-adv-x="928" 
d="M200 362v779l628 -375z" />
    <glyph glyph-name="onedotenleader" unicode="&#x2024;" 
d="M180 102.5q0 50.5 35 86.5t85 36t85 -36t35 -86.5t-35 -86.5t-85 -36t-85 36t-35 86.5z" />
    <glyph glyph-name="twodotenleader" unicode="&#x2025;" horiz-adv-x="936" 
d="M516 102.5q0 50.5 35 86.5t85 36t85 -36t35 -86.5t-35 -86.5t-85 -36t-85 36t-35 86.5zM180 102.5q0 50.5 35 86.5t85 36t85 -36t35 -86.5t-35 -86.5t-85 -36t-85 36t-35 86.5z" />
    <glyph glyph-name="ellipsis" unicode="&#x2026;" horiz-adv-x="1272" 
d="M852 102.5q0 50.5 35 86.5t85 36t85 -36t35 -86.5t-35 -86.5t-85 -36t-85 36t-35 86.5zM516 102.5q0 50.5 35 86.5t85 36t85 -36t35 -86.5t-35 -86.5t-85 -36t-85 36t-35 86.5zM180 102.5q0 50.5 35 86.5t85 36t85 -36t35 -86.5t-35 -86.5t-85 -36t-85 36t-35 86.5z" />
    <glyph glyph-name="uni2027" unicode="&#x2027;" 
d="M180 753.5q0 50.5 35 86.5t85 36t85 -36t35 -86.5t-35 -86.5t-85 -36t-85 36t-35 86.5z" />
    <glyph glyph-name="perthousand" unicode="&#x2030;" horiz-adv-x="2902" 
d="M2555 380q0 129 -56 200q-42 53 -116 53q-70 0 -115 -53q-58 -68 -58 -200q0 -133 58 -200q46 -53 115 -53q72 0 116 53q56 68 56 200zM2014 383q0 171 118 297q94 100 251 100q156 0 251 -100q118 -123 118 -300q0 -172 -118 -300q-94 -100 -251 -100t-251 100
q-118 126 -118 303zM691 1130q0 129 -56 200q-42 53 -116 53q-70 0 -115 -53q-58 -68 -58 -200q0 -134 58 -200q46 -53 115 -53q72 0 116 53q56 67 56 200zM150 1133q0 171 118 297q94 100 251 100q156 0 251 -100q118 -126 118 -300t-118 -300q-94 -100 -251 -100t-251 100
q-118 126 -118 303zM1705 380q0 129 -56 200q-42 53 -116 53q-70 0 -115 -53q-58 -68 -58 -200q0 -133 58 -200q46 -53 115 -53q72 0 116 53q56 68 56 200zM1164 383q0 171 118 297q94 100 251 100q156 0 251 -100q118 -123 118 -300q0 -172 -118 -300q-94 -100 -251 -100
t-251 100q-118 126 -118 303zM742 -40l-141 68l709 1522h10l141 -68l-709 -1522h-10z" />
    <glyph glyph-name="minute" unicode="&#x2032;" horiz-adv-x="680" 
d="M344 1550h10l176 -84l-253 -407h-10l-117 55z" />
    <glyph glyph-name="second" unicode="&#x2033;" horiz-adv-x="998" 
d="M662 1550h10l176 -84l-253 -407h-10l-117 55zM344 1550h10l176 -84l-253 -407h-10l-117 55z" />
    <glyph glyph-name="uni2034" unicode="&#x2034;" horiz-adv-x="1316" 
d="M980 1550h10l176 -84l-253 -407h-10l-117 55zM662 1550h10l176 -84l-253 -407h-10l-117 55zM344 1550h10l176 -84l-253 -407h-10l-117 55z" />
    <glyph glyph-name="uni2035" unicode="&#x2035;" horiz-adv-x="680" 
d="M326 1550h10l194 -436l-117 -55h-10l-253 407z" />
    <glyph glyph-name="uni2036" unicode="&#x2036;" horiz-adv-x="998" 
d="M326 1550h10l194 -436l-117 -55h-10l-253 407zM644 1550h10l194 -436l-117 -55h-10l-253 407z" />
    <glyph glyph-name="uni2037" unicode="&#x2037;" horiz-adv-x="1316" 
d="M336 1550l194 -436l-117 -55h-10l-253 407l176 84h10zM644 1550h10l194 -436l-117 -55h-10l-253 407zM962 1550h10l194 -436l-117 -55h-10l-253 407z" />
    <glyph glyph-name="guilsinglleft" unicode="&#x2039;" horiz-adv-x="823" 
d="M439 304l-289 488l289 492h10l174 -82l-242 -407l242 -409l-174 -82h-10z" />
    <glyph glyph-name="guilsinglright" unicode="&#x203a;" horiz-adv-x="823" 
d="M384 304h-10l-174 82l242 409l-242 407l174 82h10l289 -492z" />
    <glyph glyph-name="uni2043" unicode="&#x2043;" horiz-adv-x="1183" 
d="M682 1220v-299l189 109l157 -109l5 -8l-260 -150l260 -150l-5 -8l-157 -109l-189 109v-218l-172 -81h-10v299l-189 -109l-156 109l-5 8l259 150l-259 150l5 8l156 109l189 -109v218l172 81h10z" />
    <glyph glyph-name="fraction" unicode="&#x2044;" horiz-adv-x="974" 
d="M151 -140l-141 68l802 1722h10l142 -68l-803 -1722h-10z" />
    <glyph glyph-name="Euro" unicode="&#x20ac;" horiz-adv-x="1582" 
d="M1064 689v-10l-81 -172h-426q17 -83 47 -141q112 -216 294 -216q185 0 294 216l230 108h10q-19 -96 -68 -186q-168 -308 -466 -308q-297 0 -466 308q-51 93 -75 219h-207v10l81 172h106q-1 32 -1 66q0 37 2 73h-188v10l81 172h128q24 121 73 212q166 308 466 308
q299 0 466 -308l-162 -78h-10q-108 216 -294 216q-188 0 -294 -216q-28 -57 -45 -134h505v-10l-81 -172h-445q-2 -35 -2 -73q0 -34 1 -66h527z" />
    <glyph glyph-name="afii61248" unicode="&#x2105;" horiz-adv-x="1726" 
d="M1270 804q165 0 255 -166q51 -93 51 -245q0 -150 -51 -245q-91 -168 -255 -168t-255 168q-51 95 -51 245q0 152 51 245q90 166 255 166zM1270 670q-77 0 -125 -94q-31 -62 -31 -183q0 -122 31 -183q48 -94 127 -94q76 0 123 94q31 61 31 183q0 121 -31 183
q-48 94 -125 94zM750 996q-11 -69 -39 -126q-81 -164 -255 -164q-164 0 -255 168q-51 95 -51 245q0 152 51 245q90 166 255 166q175 0 267 -189l-109 -53h-26q-47 108 -128 108t-129 -94q-31 -62 -31 -183q0 -122 31 -183q48 -94 127 -94q74 0 123 94l128 60h41zM574 -40
l-141 68l709 1522h10l141 -68l-709 -1522h-10z" />
    <glyph glyph-name="afii61289" unicode="&#x2113;" horiz-adv-x="1108" 
d="M540 672q60 124 116 310q73 242 73 407q-52 -84 -115 -291q-74 -241 -74 -426zM150 0q100 146 190 296q-8 70 -8 148q0 148 29 289q120 600 215 710q76 88 194 88q51 0 90 -33q48 -39 48 -160q0 -92 -30 -246q-70 -350 -356 -820q33 -156 89 -156q19 0 42 24q31 32 63 88
h176q-77 -128 -141.5 -188t-148.5 -60q-128 0 -199 101l-52 -81h-201z" />
    <glyph glyph-name="trademark" unicode="&#x2122;" horiz-adv-x="1926" 
d="M897 705q-120 40 -193 177q-51 96 -51 246t51 245q91 167 255 167q142 0 231 -128q88 128 231 128q167 0 255 -167q51 -97 51 -245q0 -151 -51 -246q-72 -135 -194 -177h-25l-56 111q100 38 144 128q32 65 32 184t-32 183q-47 94 -124 94q-84 0 -125 -94
q-31 -71 -31 -183v-369l-115 -54h-35v423q0 122 -32 183q-49 94 -124 94q-79 0 -125 -94q-31 -63 -31 -183q0 -130 31 -184q46 -78 144 -128l-56 -111h-25zM369 705v690h-35q-44 0 -55 -59h-30l-99 47q37 147 184 147h399v-36l-47 -99h-167v-636l-115 -54h-35z" />
    <glyph glyph-name="uni2126" unicode="&#x2126;" horiz-adv-x="1474" 
d="M630 0h-222q-248 0 -308 216l150 71h10q32 -117 148 -117h60v97q-296 178 -296 631q0 220 126 399q164 233 439 233q273 0 439 -233q126 -177 126 -399q0 -453 -296 -631v-97h60q116 0 148 117h10l150 -71q-60 -216 -308 -216h-222v368q258 131 258 530q0 177 -91 313
q-102 153 -272 153q-174 0 -276 -153q-91 -136 -91 -313q0 -399 258 -530v-368z" />
    <glyph glyph-name="estimated" unicode="&#x212e;" horiz-adv-x="1358" 
d="M381 550v-371q120 -121 298 -121q254 0 395 246l72 -43q-120 -173 -232 -224.5t-235 -51.5q-237 0 -383 160t-146 405q0 247 147 406t382 159q214 0 366 -142t163 -423h-827zM977 624v297q-128 121 -300 121q-175 0 -296 -122v-296h596z" />
    <glyph glyph-name="partialdiff" unicode="&#x2202;" horiz-adv-x="1267" 
d="M458 0q-137 0 -222.5 91t-85.5 256q0 209 153 387q200 233 478 233q35 0 105 -2q0 148 -17 236q-22 112 -64 168q-44 58 -94 58q-67 0 -118 -80q-38 -60 -74 -190l-135 60q69 154 168 225q95 68 192 68q132 0 227 -139q96 -140 96 -420q0 -281 -87 -513
q-86 -224 -233 -331t-289 -107zM488 92q74 0 148 97q61 79 130 204q90 162 122 474q-40 16 -114 16q-107 0 -217 -128q-72 -83 -121 -174q-74 -137 -74 -248q0 -100 19 -158q28 -83 107 -83z" />
    <glyph glyph-name="uni2206" unicode="&#x2206;" horiz-adv-x="1138" 
d="M243 0q-193 0 -193 134q0 94 73 301l343 1033l173 82h10l366 -1115q73 -205 73 -301q0 -134 -193 -134h-652zM243 170h649l-321 1045z" />
    <glyph glyph-name="product" unicode="&#x220f;" horiz-adv-x="1390" 
d="M200 -450v1746q0 214 250 214h490q250 0 250 -214v-1656l-190 -90h-10v1746q0 44 -50 44h-490q-50 0 -50 -44v-1656l-190 -90h-10z" />
    <glyph glyph-name="summation" unicode="&#x2211;" horiz-adv-x="1168" 
d="M343 -410q-193 0 -193 133q0 97 83 236l353 637l-319 550q-85 144 -85 230q0 134 193 134h568v-10l-75 -160h-493l430 -752l-462 -828h467q118 0 148 117h10l150 -71q-60 -216 -308 -216h-467z" />
    <glyph glyph-name="minus" unicode="&#x2212;" horiz-adv-x="1214" 
d="M150 664v10l81 172h833v-10l-81 -172h-833z" />
    <glyph glyph-name="uni2215" unicode="&#x2215;" horiz-adv-x="974" 
d="M151 -140l-141 68l802 1722h10l142 -68l-803 -1722h-10z" />
    <glyph glyph-name="asteriskmath" unicode="&#x2217;" horiz-adv-x="1183" 
d="M682 1220v-299l189 109l157 -109l5 -8l-260 -150l260 -150l-5 -8l-157 -109l-189 109v-218l-172 -81h-10v299l-189 -109l-156 109l-5 8l259 150l-259 150l5 8l156 109l189 -109v218l172 81h10z" />
    <glyph glyph-name="uni2218" unicode="&#x2218;" horiz-adv-x="1038" 
d="M691 754q0 129 -56 200q-42 53 -116 53q-70 0 -115 -53q-58 -68 -58 -200q0 -134 58 -200q46 -53 115 -53q72 0 116 53q56 67 56 200zM150 757q0 171 118 297q94 100 251 100q156 0 251 -100q118 -126 118 -300t-118 -300q-94 -100 -251 -100t-251 100q-118 126 -118 303
z" />
    <glyph glyph-name="uni2219" unicode="&#x2219;" 
d="M180 753.5q0 50.5 35 86.5t85 36t85 -36t35 -86.5t-35 -86.5t-85 -36t-85 36t-35 86.5z" />
    <glyph glyph-name="radical" unicode="&#x221a;" horiz-adv-x="1452" 
d="M525 -40h-10l-206 609h-209v10l81 172h277l147 -480l452 1239h345v-10l-81 -172h-143l-480 -1286z" />
    <glyph glyph-name="uni221B" unicode="&#x221b;" horiz-adv-x="1452" 
d="M249 961l99 48h24q40 -97 118 -97q53 0 86 37q29 33 29 84q0 35 -25 62q-26 28 -100 28l-73 70l129 195h-218v33l42 89h223q103 0 103 -85q0 -42 -44 -104l-64 -86q50 -11 92 -48q70 -61 70 -153q0 -106 -67 -172q-73 -71 -188 -71q-150 0 -236 170zM525 -40h-10
l-206 609h-209v10l81 172h277l147 -480l452 1239h345v-10l-81 -172h-143l-480 -1286z" />
    <glyph glyph-name="infinity" unicode="&#x221e;" horiz-adv-x="1579" 
d="M1232 754q0 129 -56 200q-42 53 -116 53q-70 0 -115 -53q-58 -68 -58 -200q0 -134 58 -200q46 -53 115 -53q72 0 116 53q56 67 56 200zM150 757q0 171 118 297q94 100 251 100q160 0 251 -100q10 -11 19 -22l20 22q91 100 251 100q156 0 251 -100q118 -126 118 -300
t-118 -300q-94 -100 -251 -100q-160 0 -251 100q-10 11 -19 22l-20 -22q-91 -100 -251 -100q-157 0 -251 100q-118 126 -118 303zM691 754q0 129 -56 200q-42 53 -116 53q-70 0 -115 -53q-58 -68 -58 -200q0 -134 58 -200q46 -53 115 -53q72 0 116 53q56 67 56 200z" />
    <glyph glyph-name="approxequal" unicode="&#x2248;" horiz-adv-x="1138" 
d="M150 397q0 361 237 361q134 0 223 -101q73 -83 128 -83q72 0 72 103l168 81h10q0 -361 -237 -361q-134 0 -223 101q-73 83 -128 83q-72 0 -72 -103l-168 -81h-10zM150 748q0 361 237 361q134 0 223 -101q73 -83 128 -83q72 0 72 103l168 81h10q0 -361 -237 -361
q-134 0 -223 101q-73 83 -128 83q-72 0 -72 -103l-168 -81h-10z" />
    <glyph glyph-name="notequal" unicode="&#x2260;" horiz-adv-x="1214" 
d="M430 200l-141 68l100 214h-239v10l81 172h242l85 182h-408v10l81 172h412l131 282h10l141 -68l-100 -214h239v-10l-81 -172h-242l-85 -182h408v-10l-81 -172h-412l-131 -282h-10z" />
    <glyph glyph-name="equivalence" unicode="&#x2261;" horiz-adv-x="1214" 
d="M150 300v10l81 172h833v-10l-81 -172h-833zM150 1028v10l81 172h833v-10l-81 -172h-833zM150 664v10l81 172h833v-10l-81 -172h-833z" />
    <glyph glyph-name="lessequal" unicode="&#x2264;" horiz-adv-x="1338" 
d="M150 801v10l82 173l824 351l82 -173v-10l-674 -277l674 -277v-10l-82 -173zM150 191v10l81 172h907v-10l-81 -172h-907z" />
    <glyph glyph-name="greaterequal" unicode="&#x2265;" horiz-adv-x="1338" 
d="M1188 966v-10l-82 -173l-824 -351l-82 173v10l674 277l-674 277v10l82 173zM200 191v10l81 172h907v-10l-81 -172h-907z" />
    <glyph glyph-name="lozenge" unicode="&#x25ca;" horiz-adv-x="1174" 
d="M601 287l249 438l-271 475l-251 -446zM587 0l-467 738l467 772l467 -769z" />
    </font>
</defs>
</svg>
