<?xml version="1.0" standalone="no"?>
<!DOCTYPE svg PUBLIC "-//W3C//DTD SVG 1.1//EN" "http://www.w3.org/Graphics/SVG/1.1/DTD/svg11.dtd" >
<svg xmlns="http://www.w3.org/2000/svg" xmlns:xlink="http://www.w3.org/1999/xlink" version="1.1">
<metadata>
Created by FontForge 20170731 at Wed May 24 05:31:19 2000
 By Aleksey,,,
(c) 2000, Apostrophic Laboratories. All rights reserved. Distribute freely. apostrofe@mail.com
</metadata>
<defs>
<font id="Ritalin" horiz-adv-x="520" >
  <font-face 
    font-family="Ritalin"
    font-weight="400"
    font-stretch="normal"
    units-per-em="1000"
    panose-1="2 0 6 6 2 0 0 2 0 4"
    ascent="800"
    descent="-200"
    x-height="530"
    cap-height="730.5"
    bbox="-150 -354 1005 925"
    underline-thickness="20"
    underline-position="-183"
    unicode-range="U+0020-FB02"
  />
<missing-glyph horiz-adv-x="500" 
 />
    <glyph glyph-name=".notdef" horiz-adv-x="500" 
 />
    <glyph glyph-name=".null" horiz-adv-x="0" 
 />
    <glyph glyph-name="nonmarkingreturn" horiz-adv-x="500" 
 />
    <glyph glyph-name="space" unicode=" " horiz-adv-x="300" 
 />
    <glyph glyph-name="space" unicode="&#xa0;" horiz-adv-x="300" 
 />
    <glyph glyph-name="exclam" unicode="!" horiz-adv-x="223" 
d="M190 695l-45 -525q-1 -8 -6.5 -14t-13.5 -6t-14 6t-6 14v504q0 12 -11 18q-1 0 -13.5 3t-26.5 6.5l-26 6.5l-12 3q-6 3 -6 9q0 10 10 10h135q14 0 25 -10.5t10 -24.5zM75 52q0 -21 15.5 -36.5t36.5 -15.5q23 0 37.5 15.5t14.5 36.5q0 22 -14.5 37.5t-37.5 15.5
q-21 0 -36.5 -15.5t-15.5 -36.5v-1z" />
    <glyph glyph-name="quotedbl" unicode="&#x22;" horiz-adv-x="341" 
d="M268 538q0 -8 -6.5 -14.5t-15.5 -8.5q-8 0 -14 7t-7 16l-14 227q-1 14 10 24.5t25 10.5t25 -10.5t10 -24.5l-14 -227h1zM117 538q0 -8 -6.5 -14.5t-15.5 -8.5q-8 0 -14 7t-7 16l-14 227q-1 14 10 24.5t25 10.5t25 -10.5t10 -24.5l-14 -227h1z" />
    <glyph glyph-name="numbersign" unicode="#" horiz-adv-x="675" 
d="M438 381q8 38 16 76.5t16 74.5q-42 -3 -86.5 -6t-86.5 -5l-40 -140h181zM245 581q7 29 13 52.5t11 37.5q2 13 -6 18q-1 0 -17 3t-34.5 6.5t-33.5 6l-15 2.5q-10 3 -6 10q2 10 13 10h150q14 0 21.5 -10.5t2.5 -24.5l-31 -111h166q6 29 10.5 53t8.5 39q2 12 -6 18
q-2 0 -17.5 3t-34.5 6.5t-34 6l-15 2.5q-9 2 -5 10q2 10 13 10h150q14 0 21.5 -10.5t2.5 -24.5l-30 -113h84q6 0 13 -6.5t11 -13.5t2 -12.5t-8 -4.5l-31.5 -2.5t-82.5 -5.5l-41 -155h95q6 0 13 -6.5t11 -13.5q3 -7 1.5 -12.5t-7.5 -4.5l-35.5 -2.5t-90.5 -6.5l-49 -184
q-2 -8 -9.5 -14t-15.5 -6t-12.5 6t-2.5 14l3 14t8.5 39t13 57.5t15.5 70.5q-47 -3 -95 -6t-93 -5l-48 -171q-2 -8 -9.5 -14t-15.5 -6t-12.5 6t-2.5 14l3 13t7.5 35.5t11 53.5t13.5 66q-33 -2 -59 -2t-39 1q-8 -2 -9 -9q1 -2 6.5 -17.5t12 -34t12 -33.5l5.5 -15q4 -7 -3 -4
q-5 -1 -12 8q-1 2 -12.5 24.5t-24.5 48t-24 46.5l-11 21q-5 12 -1 21t15 8h158q8 35 15 70t15 67q-33 -2 -60 -2q-26 0 -39 1q-9 -2 -10 -9q1 -2 7 -17.5t13 -34t12.5 -33.5l5.5 -15q1 -7 -5 -4q-5 -1 -12 8l-8.5 17l-17.5 35t-20.5 40.5t-17 33.5t-7.5 14q-6 12 -2 21t15 8
h160z" />
    <glyph glyph-name="dollar" unicode="$" horiz-adv-x="526" 
d="M396 270q0 38 -27 63t-66 30l-8 1v-301l18 2q35 4 59 30t24 62v113zM225 671l-33 -6q-26 -5 -44 -24.5t-18 -47.5v-87q0 -30 21.5 -51.5t51.5 -21.5h22v238zM466 160q0 -32 -13.5 -60t-36.5 -50t-54.5 -35t-67.5 -15l1 -65q0 -14 -11 -24.5t-25 -10.5t-24.5 10.5
t-10.5 24.5v65h-144q-8 0 -14 6t-6 14t6 14t14 6l145 16v308q-34 0 -64 11t-52.5 30t-35.5 44.5t-13 54.5v86q0 29 13 54.5t35.5 45t52.5 31t64 11.5v70q0 14 10.5 24.5t24.5 10.5t24.5 -10.5t10.5 -24.5v-72h95q8 0 14 -6t6 -14t-6 -14t-14 -6l-95 -12v-245q36 -2 67 -15
t54 -35t36.5 -50t13.5 -60v-113v0z" />
    <glyph glyph-name="percent" unicode="%" horiz-adv-x="547" 
d="M478 254q0 22 -21 37.5t-45 15.5t-45 -15.5t-21 -37.5v-158q0 -23 21 -38t45 -15t45 15t21 38v158zM515 83q0 -17 -9 -32t-23.5 -26t-33.5 -17.5t-38 -6.5q-20 0 -39 6.5t-33.5 17.5t-23.5 26t-9 32v187q0 17 9 32t23.5 26.5t33.5 18t39 6.5q19 0 38 -6.5t33.5 -18
t23.5 -26.5t9 -32v-187v0zM207 634q0 22 -21 37.5t-45 15.5t-45 -15.5t-21 -37.5v-158q0 -23 21 -38t45 -15t45 15t21 38v158zM244 463q0 -17 -9 -32t-23.5 -26t-33.5 -17.5t-38 -6.5q-20 0 -39 6.5t-33.5 17.5t-23.5 26t-9 32v187q0 17 9 32t23.5 26.5t33.5 18t39 6.5
q19 0 38 -6.5t33.5 -18t23.5 -26.5t9 -32v-187v0zM515 695q10 14 5.5 24.5t-18.5 10.5h-23q-22 0 -50 -0.5t-52 -0.5h-25q-11 0 -16 -10q-5 -6 1 -9l14.5 -2.5t32.5 -6t33 -6.5t16 -3q5 -5 -1 -18q-13 -21 -42 -67t-66.5 -105t-79.5 -126t-81 -129t-72 -114t-51.5 -81.5
t-19.5 -31.5q-5 -8 -3 -14t10 -6t18 6t15 14l455 675v0z" />
    <glyph glyph-name="ampersand" unicode="&#x26;" horiz-adv-x="605" 
d="M410 363h-218q-26 -4 -44 -24.5t-18 -47.5v-107q0 -25 11.5 -46.5t31 -38t45 -26t52.5 -9.5t52 9.5t44.5 26t31.5 38t12 46.5v179zM575 278q0 -10 -10 -10q-6 0 -9 6l-3 12l-6.5 26t-6.5 26.5t-3 13.5q-6 11 -18 11h-40l1 -194q0 -36 -17 -68t-46.5 -56t-67.5 -37.5
t-79 -13.5t-79 13.5t-67 37.5t-46.5 56t-17.5 68v124q0 16 7 32.5t18 30.5t25 24.5t28 15.5q-14 5 -28 16.5t-25 26t-18 31.5t-7 33v87q0 29 13 54.5t35.5 44.5t52.5 30t64 11h185q8 0 14 -6t6 -14t-6 -14t-14 -6l-218 -25q-26 -3 -44 -26.5t-18 -50.5v-83q0 -27 18 -47.5
t44 -24.5h348q14 0 24.5 -10.5t10.5 -24.5v-120v0z" />
    <glyph glyph-name="quotesingle" unicode="'" horiz-adv-x="137" 
d="M93 538q0 -8 -6.5 -14.5t-15.5 -8.5q-8 0 -14 7t-7 16l-14 227q-1 14 10 24.5t25 10.5t25 -10.5t10 -24.5l-14 -227h1z" />
    <glyph glyph-name="parenleft" unicode="(" horiz-adv-x="255" 
d="M60 643q0 36 19 68t50 56t70.5 37.5t80.5 13.5q14 0 24.5 -10.5t10.5 -24.5t-10.5 -24.5t-24.5 -10.5q-27 0 -54 -9.5t-48 -26t-34.5 -38t-13.5 -46.5v-542q0 -25 13.5 -46.5t34.5 -38t48 -26t54 -9.5q14 0 24.5 -10.5t10.5 -24.5t-10.5 -24.5t-24.5 -10.5
q-41 0 -80.5 13.5t-70.5 37.5t-50 56t-19 68v572z" />
    <glyph glyph-name="parenright" unicode=")" horiz-adv-x="255" 
d="M314 71q0 -36 -19 -68t-50 -56t-70.5 -37.5t-80.5 -13.5q-14 0 -24.5 10.5t-10.5 24.5t10.5 24.5t24.5 10.5q27 0 54 9.5t48 26t34.5 38t13.5 46.5v542q0 25 -13.5 46.5t-34.5 38t-48 26t-54 9.5q-14 0 -24.5 10.5t-10.5 24.5t10.5 24.5t24.5 10.5q41 0 80.5 -13.5
t70.5 -37.5t50 -56t19 -68v-572z" />
    <glyph glyph-name="asterisk" unicode="*" horiz-adv-x="568" 
d="M415 425q1 1 14.5 8.5t27.5 14.5l-103 52q11 -15 23.5 -32.5t28.5 -40.5q6 -4 9 -2zM87 512v-18t-1 -31l101 61q-18 -2 -41 -3t-53 -2q-6 -2 -6 -7zM155 695q-1 -1 -8 -4.5t-16 -8.5t-18.5 -9.5t-15.5 -7.5l122 -70q1 1 1 2t1 2q-11 16 -25 38.5t-34 54.5q-2 4 -7 3z
M476 592q0 1 -0.5 9t-0.5 18v21v17l-123 -86q20 3 48.5 6.5t70.5 8.5q5 0 5 6zM342 733l-5.5 2.5t-13.5 6.5t-16.5 8.5t-14.5 7.5l-1 -133q3 -1 6.5 -1.5t6.5 -1.5q8 18 17 43t23 60q4 4 -2 8zM225 386l7 -4t16 -9t18 -10.5t15 -9.5l-5 132q-7 0 -10 1q-8 -17 -18.5 -39.5
t-24.5 -51.5q-2 -5 2 -9zM431 680q-1 0 -6 6.5t-11 15.5l-12 18t-10 14l-61 -128l6 -6q15 14 38 32t55 41q3 2 1 7zM140 445q1 0 6 -7t10.5 -16t11.5 -18.5t10 -14.5l58 109q-7 4 -12 11q-16 -11 -36.5 -24.5t-46.5 -30.5q-4 -5 -1 -9zM324 379q1 0 8.5 0.5t18 1t21.5 1.5
t18 1l-71 112q-5 -4 -11 -5q2 -20 4.5 -46t4.5 -61q0 -6 7 -4zM95 615q0 -1 -3.5 -8.5t-8.5 -16.5t-10 -18.5t-8 -15.5l141 1v8q-35 16 -103 53q-6 0 -8 -3zM249 736q-1 0 -9.5 -0.5t-19.5 -0.5q-10 0 -21 -0.5t-17 -0.5l65 -116q5 4 11 5q-2 20 -2 46v62q-1 4 -7 5z
M473 489q0 1 3.5 8.5t8 17t9.5 20t7 16.5l-149 -11q0 -2 -1 -4q18 -7 46.5 -19t68.5 -32q5 -2 7 4zM69 454q-6 12 -17 33t-18.5 36l-8.5 17q-7 18 9 16h20l-1 1v1q0 2 -0.5 19t-1 37t-1 36.5l-0.5 16.5q1 8 6.5 13t12.5 0l20 -11v4q0 1 9.5 15t21 30t20.5 29.5l9 13.5
q11 15 19 0l9 -18q1 2 2 3t16 9.5t32 18.5t31 18l14 8q8 3 14.5 1t6.5 -10l-1 -17h24q18 0 35 0.5t30 0.5h14q17 0 10 -14l-9 -18h4q1 -1 16.5 -8.5t33.5 -15.5t33 -15l15 -7q8 -4 9.5 -11t-6.5 -10l-18 -13q2 -1 2 -3q1 -1 9.5 -15.5t18.5 -31.5t18.5 -31l8.5 -14
q7 -15 -9 -17h-20q1 -1 1 -4q0 -2 1.5 -19t3 -36.5t3 -36l1.5 -16.5q-1 -8 -5.5 -12.5t-12.5 -1.5l-29 16q-7 -12 -19.5 -33t-21 -35t-9.5 -16q-10 -13 -21 0l-8 17h-1q-2 -2 -16 -11.5t-30.5 -20.5l-30 -20l-13.5 -9q-9 -5 -15.5 -2.5t-7.5 10.5v22q-1 0 -1 -1h-1
q-2 0 -19 1t-37 2t-36.5 1.5l-16.5 0.5q-18 3 -9 15l10 18q-2 2 -2 1q-1 0 -16 8t-33 17.5t-32.5 17.5l-14.5 8q-16 11 -4 22z" />
    <glyph glyph-name="plus" unicode="+" horiz-adv-x="470" 
d="M268 337h114q20 0 34 -5.5t14 -25.5t-14 -25t-34 -5h-120l-8 -166q0 -11 -5.5 -19t-16.5 -8q-12 0 -15.5 8t-3.5 19l-1 13.5t-3 36.5t-4.5 53t-5.5 63h-106q-20 0 -34 5t-14 25t14 25.5t34 5.5h102q-1 12 -1.5 27.5t-0.5 30.5v30v25q0 9 -4.5 16t-10.5 9q-2 1 -19 5
t-37 9l-36 9l-16 4q-9 4 -9 12q0 14 15 14h151q20 0 34.5 -14t13.5 -34z" />
    <glyph glyph-name="comma" unicode="," horiz-adv-x="264" 
d="M99 57q0 21 15.5 36.5t36.5 15.5q23 0 37.5 -15.5t15.5 -37.5q0 -16 -10 -29l-95 -178q0 -1 -3 -4t-9 -5t-14 2q-14 8 -13 18t7 21l49 136q-8 8 -12.5 18t-4.5 21v1z" />
    <glyph glyph-name="hyphen" unicode="-" horiz-adv-x="410" 
d="M95 259q-14 0 -24.5 10.5t-10.5 24.5t10.5 24.5t24.5 10.5h220q14 0 24.5 -10.5t10.5 -24.5t-10.5 -24.5t-24.5 -10.5h-220v0z" />
    <glyph glyph-name="hyphen" unicode="&#xad;" horiz-adv-x="410" 
d="M95 259q-14 0 -24.5 10.5t-10.5 24.5t10.5 24.5t24.5 10.5h220q14 0 24.5 -10.5t10.5 -24.5t-10.5 -24.5t-24.5 -10.5h-220v0z" />
    <glyph glyph-name="period" unicode="." horiz-adv-x="225" 
d="M60 52q0 21 15.5 37t37.5 16q23 1 37.5 -15t14.5 -38q0 -21 -15 -36.5t-38 -15.5q-21 0 -36.5 15.5t-15.5 36.5z" />
    <glyph glyph-name="slash" unicode="/" horiz-adv-x="350" 
d="M390 765l-374 -823q-4 -8 -13 -14t-17 -6t-11 6t1 14q1 2 16 39.5t41.5 102.5t58.5 143t66 160.5t64.5 155t54 126.5t33.5 75q5 13 -2 18q-1 0 -16.5 3t-33.5 6.5t-32.5 6l-14.5 2.5q-8 3 -3 9q2 5 6 7.5t9 2.5h25q24 0 52 0.5t50 0.5h23q14 0 19.5 -10.5t-2.5 -24.5z
" />
    <glyph glyph-name="zero" unicode="0" horiz-adv-x="560" 
d="M430 546q0 25 -13.5 46.5t-34.5 38t-48 26t-54 9.5t-54 -9.5t-48 -26t-34.5 -38t-13.5 -46.5v-362q0 -25 13.5 -46.5t34.5 -38t48 -26t54 -9.5t54 9.5t48 26t34.5 38t13.5 46.5v362zM500 169q0 -36 -19 -68t-50 -56t-70.5 -37.5t-80.5 -13.5t-80.5 13.5t-70.5 37.5
t-50 56t-19 68v392q0 36 19 68t50 56t70.5 37.5t80.5 13.5t80.5 -13.5t70.5 -37.5t50 -56t19 -68v-392v0z" />
    <glyph glyph-name="one" unicode="1" horiz-adv-x="235" 
d="M185 695l-40 -675q0 -8 -6 -14t-14 -6t-14 6t-6 14v654q0 12 -11 18q-1 0 -13.5 3t-26.5 6.5l-26 6.5l-12 3q-6 3 -6 9q0 10 10 10h130q14 0 25 -10.5t10 -24.5z" />
    <glyph glyph-name="two" unicode="2" horiz-adv-x="445" 
d="M390 429q-8 -10 -31.5 -40.5t-54.5 -70t-65 -83.5t-63 -80.5t-47.5 -60.5l-18.5 -24l285 -30q8 0 14 -6t6 -14t-6 -14t-14 -6h-350q-14 0 -24.5 10.5t-10.5 24.5q0 16 11 25l314 409q10 18 10 37v87q0 28 -18 48.5t-44 23.5l-198 25q-8 0 -14 6t-6 14t6 14t14 6h165
q34 0 64 -11t52.5 -30t35.5 -44.5t13 -54.5v-86q0 -41 -25 -75z" />
    <glyph glyph-name="three" unicode="3" horiz-adv-x="460" 
d="M330 291q0 27 -18 47.5t-44 24.5h-163q-14 0 -24.5 10.5t-10.5 24.5t10.5 24.5t24.5 10.5h163q26 4 44 24.5t18 47.5v83q0 27 -18 50.5t-44 26.5l-218 25q-8 0 -14 6t-6 14t6 14t14 6h185q34 0 64 -11t52.5 -30t35.5 -44.5t13 -54.5v-87q0 -16 -7 -33t-18 -31.5t-25 -26
t-28 -16.5q14 -5 28 -15.5t25 -24.5t18 -30.5t7 -32.5v-153q0 -29 -13 -54.5t-35.5 -44.5t-52.5 -30t-64 -11h-185q-8 0 -14 6t-6 14t6 14t14 6l218 25q27 3 45 26.5t18 50.5z" />
    <glyph glyph-name="four" unicode="4" horiz-adv-x="478" 
d="M398 495v-130l50 -5q8 0 14 -6t6 -14t-6 -14t-14 -6h-50v-300q0 -8 -6 -14t-14 -6t-14 6t-6 14l-30 300h-263q-14 0 -24.5 10.5t-10.5 24.5q0 8 2.5 15t7.5 15l179 336q10 15 28 15q14 0 24.5 -10.5t10.5 -24.5q0 -8 -3.5 -16.5t-8.5 -17.5l-150 -277l208 -19v124
q0 14 10.5 24.5t24.5 10.5t24.5 -10.5t10.5 -24.5z" />
    <glyph glyph-name="five" unicode="5" horiz-adv-x="490" 
d="M396 690l-236 -30q-8 0 -13.5 -6t-5.5 -14l-1 -187q0 -8 6 -14t14 -6h105q34 0 64 -11t52.5 -30t35.5 -44.5t13 -54.5v-153q0 -29 -13 -54.5t-35.5 -44.5t-52.5 -30t-64 -11h-185q-8 0 -14 6t-6 14t6 14t14 6l218 25q27 3 45 26.5t18 50.5l-1 149q0 27 -18 47.5t-44 24.5
h-193q-14 0 -24.5 10.5t-10.5 24.5v297q0 14 10.5 24.5t24.5 10.5h291q8 0 14 -6t6 -14t-6 -14t-14 -6z" />
    <glyph glyph-name="six" unicode="6" 
d="M390 243q0 25 -10 46.5t-28 38t-41.5 26t-50.5 9.5h-130v-179q0 -25 10 -46.5t28 -38t41.5 -26t50.5 -9.5t50.5 9.5t41.5 26t28 38t10 46.5v59zM460 169q0 -36 -16 -68t-43 -56t-63.5 -37.5t-77.5 -13.5t-77.5 13.5t-63.5 37.5t-43 56t-16 68v422q0 29 13 54.5t35.5 44.5
t52.5 30t64 11h185q8 0 14 -6t6 -14t-6 -14t-14 -6l-218 -25q-26 -3 -44 -23.5t-18 -48.5v-161h130q41 0 77.5 -13.5t63.5 -37.5t43 -56t16 -68v-89v0z" />
    <glyph glyph-name="seven" unicode="7" horiz-adv-x="433" 
d="M38 690q-8 0 -14 6t-6 14t6 14t14 6h350q14 0 24.5 -10.5t10.5 -24.5q0 -8 -2.5 -15t-7.5 -15l-341 -650q-10 -15 -28 -15q-14 0 -24.5 10.5t-8.5 24.5q0 8 2.5 16t6.5 13q6 9 26.5 46t48.5 90t60.5 115.5t63.5 122.5t57 111t41 80t16 31z" />
    <glyph glyph-name="eight" unicode="8" 
d="M390 291q0 27 -18 47.5t-44 24.5h-136q-26 -4 -44 -24.5t-18 -47.5v-149q0 -27 18 -47.5t44 -24.5h136q26 4 44 24.5t18 47.5v149zM390 588q0 27 -18 47.5t-44 24.5h-136q-26 -4 -44 -24.5t-18 -47.5v-83q0 -27 18 -47.5t44 -24.5h136q26 4 44 24.5t18 47.5v83zM460 140
q0 -29 -13 -54.5t-35.5 -44.5t-52.5 -30t-64 -11h-70q-34 0 -64 11t-52.5 30t-35.5 44.5t-13 54.5v153q0 16 7 32.5t18 30.5t25 24.5t28 15.5q-14 5 -28 16.5t-25 26t-18 31.5t-7 33v87q0 29 13 54.5t35.5 44.5t52.5 30t64 11h70q34 0 64 -11t52.5 -30t35.5 -44.5t13 -54.5
v-87q0 -16 -7 -33t-18 -31.5t-25 -26t-28 -16.5q14 -5 28 -15.5t25 -24.5t18 -30.5t7 -32.5v-153v0z" />
    <glyph glyph-name="nine" unicode="9" horiz-adv-x="566" 
d="M130 510q0 -25 10 -46.5t28 -38t41.5 -26t50.5 -9.5h130v157q0 25 -10 46.5t-28 38t-41.5 26t-50.5 9.5t-50.5 -9.5t-41.5 -26t-28 -38t-10 -46.5v-37zM60 562q0 36 16 68t43 56t63.5 37.5t77.5 13.5t77.5 -13.5t63.5 -37.5t43 -56t16 -68v-422q0 -29 -13 -54.5
t-35.5 -44.5t-52.5 -30t-64 -11h-185q-8 0 -14 6t-6 14t6 14t14 6l218 25q26 3 44 23.5t18 48.5v183h-130q-41 0 -77.5 13.5t-63.5 37.5t-43 56t-16 68v67v0z" />
    <glyph glyph-name="colon" unicode=":" horiz-adv-x="225" 
d="M60 102q0 21 15.5 37t37.5 16q23 1 37.5 -15t14.5 -38q0 -21 -15 -36.5t-38 -15.5q-21 0 -36.5 15.5t-15.5 36.5zM60 428q0 21 15.5 37t37.5 16q23 1 37.5 -15t14.5 -38q0 -21 -15 -36.5t-38 -15.5q-21 0 -36.5 15.5t-15.5 36.5z" />
    <glyph glyph-name="semicolon" unicode=";" horiz-adv-x="263" 
d="M98 428q0 21 15.5 37t37.5 15q23 1 37.5 -14.5t13.5 -37.5q0 -21 -14.5 -36.5t-37.5 -15.5q-21 0 -36.5 15.5t-15.5 36.5zM98 103q0 21 15.5 36.5t37.5 15.5q23 0 37.5 -15.5t15.5 -37.5q0 -8 -3 -15.5t-7 -13.5l-95 -178q0 -1 -3 -4t-9 -5t-14 2q-14 8 -13 18t6 21
l49 136q-8 8 -12.5 18t-4.5 21v1z" />
    <glyph glyph-name="semicolon" unicode="&#x37e;" horiz-adv-x="263" 
d="M98 428q0 21 15.5 37t37.5 15q23 1 37.5 -14.5t13.5 -37.5q0 -21 -14.5 -36.5t-37.5 -15.5q-21 0 -36.5 15.5t-15.5 36.5zM98 103q0 21 15.5 36.5t37.5 15.5q23 0 37.5 -15.5t15.5 -37.5q0 -8 -3 -15.5t-7 -13.5l-95 -178q0 -1 -3 -4t-9 -5t-14 2q-14 8 -13 18t6 21
l49 136q-8 8 -12.5 18t-4.5 21v1z" />
    <glyph glyph-name="less" unicode="&#x3c;" horiz-adv-x="312" 
d="M213 635q0 1 3 4t9 5t14 -3q14 -8 13 -17.5t-6 -20.5l-108 -250l108 -250q5 -11 6 -21.5t-13 -18.5q-8 -4 -14 -2t-9 5t-3 4l-153 285l153 280v0z" />
    <glyph glyph-name="equal" unicode="=" horiz-adv-x="411" 
d="M95 349q-14 0 -24.5 10.5t-10.5 24.5t10.5 24.5t24.5 10.5h221q14 0 24.5 -10.5t10.5 -24.5t-10.5 -24.5t-24.5 -10.5h-221v0zM95 199q-14 0 -24.5 10.5t-10.5 24.5t10.5 24.5t24.5 10.5h221q14 0 24.5 -10.5t10.5 -24.5t-10.5 -24.5t-24.5 -10.5h-221v0z" />
    <glyph glyph-name="greater" unicode="&#x3e;" horiz-adv-x="313" 
d="M99 635l154 -280l-154 -285q0 -1 -3 -4t-9 -5t-14 2q-14 8 -13 18.5t6 21.5l108 250l-108 250q-5 11 -6 20.5t13 17.5q8 5 14 3t9 -5t3 -4z" />
    <glyph glyph-name="question" unicode="?" horiz-adv-x="435" 
d="M125 269l-25 -99q0 -8 -6 -14t-14 -6t-14 6t-6 14v103q0 33 14.5 62t39 51t58 34.5t71.5 12.5h19q30 0 51.5 21.5t21.5 51.5v87q0 28 -18 48.5t-44 23.5l-198 25q-8 0 -14 6t-6 14t6 14t14 6h165q34 0 64 -11t52.5 -30t35.5 -44.5t13 -54.5v-86q0 -29 -13 -54.5
t-35.5 -45t-52.5 -30.5t-64 -11h-17q-39 0 -64 -26t-34 -68zM30 53q0 -22 15 -37.5t37 -15.5t37 15t15 37t-14 37.5t-37 15.5q-21 0 -37 -15t-16 -37z" />
    <glyph glyph-name="at" unicode="@" horiz-adv-x="881" 
d="M554 242q0 -19 9.5 -31.5t32.5 -17.5l72 -16q6 0 9.5 -4.5t3.5 -9.5q0 -13 -13 -13h-51q-23 0 -43 7.5t-35 20t-24 29.5t-9 37v219h-45q-6 0 -10.5 4.5t-4.5 10.5q0 5 4.5 9t10.5 4l45 16v111q0 10 6.5 16.5t17.5 6.5q9 0 16.5 -6.5t7.5 -16.5v-111h92q6 0 10 -4t4 -9
q0 -14 -14 -14l-92 -17v-221v0zM399 273q0 -33 -25.5 -57t-63.5 -24q-36 0 -61.5 16.5t-25.5 49.5q0 26 18.5 43t44.5 17h113v-45v0zM510 156q0 3 -4 7q-2 0 -13 3t-25 6.5t-15 3.5q-7 3 -7 12v225q0 19 -9 36t-24 30t-35 20.5t-43 7.5h-98q-5 0 -9.5 -4t-4.5 -9
q0 -6 4.5 -10t9.5 -4l120 -17q17 -3 29.5 -16.5t12.5 -31.5v-50h-100q-25 0 -47.5 -8.5t-39 -23t-26.5 -34.5t-10 -42q0 -24 10.5 -44.5t29 -35.5t43 -23t51.5 -8q17 0 33 7t28.5 16t20 16l7.5 7v-29q0 -6 3.5 -9.5t8.5 -3.5h92q7 0 7 6zM813 367q0 77 -29 144.5t-79.5 118
t-118 79.5t-144.5 29t-144.5 -29t-118 -79.5t-79.5 -118t-29 -144.5t29 -144.5t79.5 -118t118 -79.5t144.5 -29t144.5 29t118 79.5t79.5 118t29 144.5zM855 367q0 -86 -32.5 -161t-88.5 -130.5t-131.5 -88t-160.5 -32.5q-86 0 -161 32.5t-130.5 88t-88 130.5t-32.5 161
q0 85 32.5 160.5t88 131.5t130.5 88.5t161 32.5q85 0 160.5 -32.5t131.5 -88.5t88.5 -131.5t32.5 -160.5z" />
    <glyph glyph-name="A" unicode="A" horiz-adv-x="499" 
d="M237 580l-86 -260h170zM489 35q0 -14 -10.5 -24.5t-24.5 -10.5h-132q-10 0 -10 10q0 6 6 9l12 3l26 6.5t26.5 6.5t13.5 3q5 2 9 7t-1 19l-60 186h-217l-79 -237q-2 -8 -9.5 -11.5t-15.5 -1.5t-11.5 9.5t-1.5 15.5q1 2 10 35t25 91t35.5 126t39.5 140t37.5 133.5
t30.5 106.5t17 58q10 21 32 21q11 0 20 -6.5t13 -17.5l217 -666q2 -6 2 -11z" />
    <glyph glyph-name="B" unicode="B" 
d="M390 291q0 27 -18 47.5t-44 24.5h-198v-273q0 -8 6 -14t14 -6h178q26 4 44 24.5t18 47.5v149zM390 588q0 27 -18 47.5t-44 24.5h-198q-8 0 -14.5 -6t-5.5 -14l20 -207h198q26 4 44 24.5t18 47.5v83zM460 140q0 -29 -13 -54.5t-35.5 -44.5t-52.5 -30t-64 -11h-200
q-14 0 -24.5 10.5t-10.5 24.5v660q0 14 10.5 24.5t24.5 10.5h200q34 0 64 -11t52.5 -30t35.5 -44.5t13 -54.5v-87q0 -16 -7 -33t-18 -31.5t-25 -26t-28 -16.5q14 -5 28 -15.5t25 -24.5t18 -30.5t7 -32.5v-153v0z" />
    <glyph glyph-name="C" unicode="C" horiz-adv-x="440" 
d="M60 591q0 29 13 54.5t35.5 44.5t52.5 30t64 11h185q8 0 14 -6t6 -14t-6 -14t-14 -6l-218 -25q-26 -3 -44 -23.5t-18 -48.5v-457q0 -28 18 -48.5t44 -23.5l218 -25q8 0 14 -6t6 -14t-6 -14t-14 -6h-185q-34 0 -64 11t-52.5 30t-35.5 44.5t-13 54.5v451v0z" />
    <glyph glyph-name="D" unicode="D" horiz-adv-x="560" 
d="M430 540q0 25 -13.5 46.5t-34.5 38t-48 26t-54 9.5h-150q-8 0 -14 -6t-6 -14l1.5 -36t3.5 -92t5 -122.5t5 -127.5t3.5 -108.5t1.5 -63.5q0 -8 6 -14t14 -6h130q27 0 54 9.5t48 26t34.5 38t13.5 46.5v350zM500 175q0 -36 -19 -68t-50 -56t-70.5 -37.5t-80.5 -13.5h-185
q-14 0 -24.5 10.5t-10.5 24.5v660q0 14 10.5 24.5t24.5 10.5h185q41 0 80.5 -13.5t70.5 -37.5t50 -56t19 -68v-380v0z" />
    <glyph glyph-name="E" unicode="E" 
d="M130 105q0 -14 10 -23.5t25 -11.5q2 0 26 -3t63 -7.5t77.5 -9t69.5 -7.5t39 -3t14 -6t6 -14t-6 -14t-14 -6h-345q-14 0 -24.5 10.5t-10.5 24.5v660q0 14 10.5 24.5t24.5 10.5h345q8 0 14 -6t6 -14t-6 -14t-14 -6t-41 -3t-74.5 -7.5t-83.5 -9t-68 -7.5t-28 -3
q-14 0 -25.5 -10.5t-9.5 -24.5l20 -192h225q14 0 24.5 -10.5t10.5 -24.5v-120q0 -10 -10 -10q-6 0 -9 6l-3 12l-6.5 26t-6.5 26.5t-3 13.5q-6 11 -18 11h-204v-258z" />
    <glyph glyph-name="F" unicode="F" horiz-adv-x="490" 
d="M130 363v-328q0 -14 -10.5 -24.5t-24.5 -10.5t-24.5 10.5t-10.5 24.5v660q0 14 10.5 24.5t24.5 10.5h345q8 0 14 -6t6 -14t-6 -14t-14 -6t-41 -3t-74.5 -7.5t-83.5 -9t-68 -7.5t-28 -3q-14 0 -25.5 -10.5t-9.5 -24.5l20 -192h225q14 0 24.5 -10.5t10.5 -24.5v-120
q0 -10 -10 -10q-6 0 -9 6l-3 12l-6.5 26t-6.5 26.5t-3 13.5q-6 11 -18 11h-204z" />
    <glyph glyph-name="G" unicode="G" horiz-adv-x="540" 
d="M410 184v159q0 8 -6 14t-14 6h-129q-13 0 -18 -11q0 -1 -3 -13.5t-6.5 -26.5l-6.5 -26l-3 -12q-3 -6 -9 -6q-10 0 -10 10v120q0 14 10.5 24.5t24.5 10.5h205q14 0 24.5 -10.5t10.5 -24.5v-229q0 -36 -17.5 -68t-46.5 -56t-67 -37.5t-79 -13.5t-79 13.5t-67 37.5t-46.5 56
t-17.5 68v422q0 29 13 54.5t35.5 44.5t52.5 30t64 11h185q8 0 14 -6t6 -14t-6 -14t-14 -6l-218 -25q-27 -3 -45 -23.5t-18 -48.5l0.5 -26t0.5 -66v-89v-94v-82v-53q0 -25 11.5 -46.5t31 -38t45 -26t52.5 -9.5t52 9.5t44.5 26t31.5 38t12 46.5z" />
    <glyph glyph-name="H" unicode="H" 
d="M130 56q0 -13 11 -18q1 0 13.5 -3t26.5 -6.5l26 -6.5l12 -3q6 -3 6 -9q0 -10 -10 -10h-120q-14 0 -24.5 10.5t-10.5 24.5v660q0 14 10.5 24.5t24.5 10.5t24.5 -10.5t10.5 -24.5v-262h260v241q0 12 -11 18q-1 0 -13.5 3t-26.5 6.5l-26 6.5l-12 3q-6 3 -6 9q0 10 10 10h120
q14 0 24.5 -10.5t10.5 -24.5v-675q0 -8 -6 -14t-14 -6t-13.5 6t-6.5 14l-30 343h-260v-307v0z" />
    <glyph glyph-name="I" unicode="I" horiz-adv-x="235" 
d="M191 695l-46 -675q0 -8 -6 -14t-14 -6t-14 6t-6 14v654q0 12 -11 18q-1 0 -13.5 3t-26.5 6.5l-26 6.5l-12 3q-6 3 -6 9q0 10 10 10h136q14 0 25 -10.5t10 -24.5z" />
    <glyph glyph-name="J" unicode="J" horiz-adv-x="240" 
d="M110 674q0 12 -11 18q-1 0 -13.5 3t-26.5 6.5l-26 6.5l-12 3q-6 3 -6 9q0 10 10 10h120q14 0 24.5 -10.5t10.5 -24.5v-652q0 -29 -13 -54.5t-35.5 -44.5t-52.5 -30t-64 -11h-145q-8 0 -14 6t-6 14t6 14t14 6l178 25q26 4 44 24t18 48v634v0z" />
    <glyph glyph-name="K" unicode="K" horiz-adv-x="535" 
d="M175 35q0 -14 -10.5 -24.5t-24.5 -10.5q-15 0 -25 10.5t-10 24.5v639q0 13 -12 18q-1 0 -13 3t-26.5 6.5t-26.5 6.5l-12 3q-5 3 -5 9q0 10 10 10h120q14 0 24.5 -10.5t10.5 -24.5v-242q0 -8 5.5 -14t14.5 -6q6 0 13 5l239 283q12 15 29 5q7 -5 7.5 -13t-4.5 -15
l-214 -297l244 -337q4 -5 10 -14.5t6 -17.5q0 -14 -10.5 -23t-24.5 -9h-122q-10 0 -10 10q0 6 5 9l7.5 3t16.5 6.5t17 6.5t9 3l6 3t6.5 5t2 7.5t-6.5 10.5l-213 294q-7 5 -13 5q-9 0 -14.5 -6t-5.5 -14v-308v0z" />
    <glyph glyph-name="L" unicode="L" horiz-adv-x="470" 
d="M130 105q0 -14 10 -23.5t25 -11.5q2 0 26 -3t63 -7.5t77.5 -9t69.5 -7.5t39 -3t14 -6t6 -14t-6 -14t-14 -6h-345q-14 0 -24.5 10.5t-10.5 24.5v660q0 14 10.5 24.5t24.5 10.5t24.5 -10.5t10.5 -24.5v-590v0z" />
    <glyph glyph-name="M" unicode="M" horiz-adv-x="780" 
d="M420 154q-10 -18 -30 -18q-21 0 -31 19l-229 403v-502q0 -13 11 -18q1 0 13.5 -3t26.5 -6.5l26 -6.5l12 -3q6 -3 6 -9q0 -10 -10 -10h-120q-14 0 -24.5 10.5t-10.5 24.5v660q0 14 10.5 24.5t24.5 10.5q20 0 32 -20l263 -474l263 474q12 20 32 20q14 0 24.5 -10.5
t10.5 -24.5v-675q0 -8 -6 -14t-14 -6t-13.5 6t-6.5 14l-30 538z" />
    <glyph glyph-name="N" unicode="N" horiz-adv-x="562" 
d="M502 35q1 -14 -10 -24.5t-25 -10.5q-11 0 -19 6.5t-13 15.5l-305 536v-502q0 -13 11 -18q1 0 13.5 -3t26.5 -6.5l26 -6.5l12 -3q6 -3 6 -9q0 -10 -10 -10h-120q-14 0 -24.5 10.5t-10.5 24.5v660q0 14 10.5 24.5t25.5 10.5q19 0 31 -20l305 -550v550q0 8 6 14t14 6t14 -6
t6 -14l30 -675v0z" />
    <glyph glyph-name="O" unicode="O" horiz-adv-x="560" 
d="M430 546q0 25 -13.5 46.5t-34.5 38t-48 26t-54 9.5t-54 -9.5t-48 -26t-34.5 -38t-13.5 -46.5v-362q0 -25 13.5 -46.5t34.5 -38t48 -26t54 -9.5t54 9.5t48 26t34.5 38t13.5 46.5v362zM500 169q0 -36 -19 -68t-50 -56t-70.5 -37.5t-80.5 -13.5t-80.5 13.5t-70.5 37.5
t-50 56t-19 68v392q0 36 19 68t50 56t70.5 37.5t80.5 13.5t80.5 -13.5t70.5 -37.5t50 -56t19 -68v-392v0z" />
    <glyph glyph-name="P" unicode="P" 
d="M390 588q0 27 -18 47.5t-44 24.5h-198q-8 0 -14.5 -6t-5.5 -14l20 -207h198q26 4 44 24.5t18 47.5v83zM460 503q0 -29 -13 -54.5t-35.5 -44.5t-52.5 -30t-64 -11h-165l-30 -343q-1 -8 -6.5 -14t-13.5 -6t-14 6t-6 14v675q0 14 10.5 24.5t24.5 10.5h200q34 0 64 -11
t52.5 -30t35.5 -44.5t13 -54.5v-87v0z" />
    <glyph glyph-name="Q" unicode="Q" horiz-adv-x="589" 
d="M429 546q0 25 -13.5 46.5t-34.5 38t-48 26t-54 9.5t-54 -9.5t-48 -26t-34.5 -38t-13.5 -46.5v-362q0 -25 13.5 -46.5t34.5 -38t48 -26t54 -9.5t54 9.5t48 26t34.5 38t13.5 46.5v362zM527 -105q5 -9 -3 -12q-2 -1 -18 -10.5t-35.5 -21t-35 -20l-15.5 -8.5q-12 -8 -26 -4.5
t-22 16.5l-92 159q-41 0 -80.5 13.5t-70.5 37.5t-50 56t-19 68v392q0 36 19 68t50 56t70.5 37.5t80.5 13.5t80.5 -13.5t70.5 -37.5t50 -56t19 -68v-63v-82v-88v-80q0 -35 -0.5 -57.5l-0.5 -22.5q0 -30 -13 -57t-35.5 -49t-52 -38t-62.5 -23q1 0 8.5 -2.5t18 -9.5t14.5 -17
l45 -84q6 -11 19 -11q1 0 13 4t26.5 8t26.5 8l12 4q6 0 9 -6h-1z" />
    <glyph glyph-name="R" unicode="R" horiz-adv-x="567" 
d="M390 588q0 27 -18 47.5t-44 24.5h-198q-8 0 -14.5 -6t-5.5 -14l20 -207h198q26 4 44 24.5t18 47.5v83zM507 30q5 -6 4.5 -14.5t-7.5 -13.5q-14 -12 -28 3l-307 358h-39v-307q0 -13 11 -18q1 0 13.5 -3t26.5 -6.5l26 -6.5l12 -3q6 -3 6 -9q0 -10 -10 -10h-120
q-14 0 -24.5 10.5t-10.5 24.5v660q0 14 10.5 24.5t24.5 10.5h200q34 0 64 -11t52.5 -30t35.5 -44.5t13 -54.5v-87q0 -29 -13 -54.5t-35.5 -44.5t-52.5 -30t-64 -11h-23l235 -333v0z" />
    <glyph glyph-name="S" unicode="S" horiz-adv-x="466" 
d="M100 593v-87q0 -30 21.5 -51.5t51.5 -21.5h80q38 0 71.5 -12.5t58 -34.5t39 -51t14.5 -62v-113q0 -33 -14.5 -62t-39 -51t-58 -34.5t-71.5 -12.5h-203q-8 0 -14 6t-6 14t6 14t14 6l233 25q35 4 59 30t24 62v113q0 19 -7 36t-20 29.5t-30 20t-36 7.5h-78q-34 0 -64 11
t-52.5 30.5t-35.5 45t-13 54.5v86q0 29 13 54.5t35.5 44.5t52.5 30t64 11h165q8 0 14 -6t6 -14t-6 -14t-14 -6l-198 -25q-26 -3 -44 -23.5t-18 -48.5z" />
    <glyph glyph-name="T" unicode="T" horiz-adv-x="470" 
d="M200 20v640h-114q-13 0 -18 -11q0 -1 -3 -13.5t-6.5 -26.5l-6.5 -26l-3 -12q-3 -6 -9 -6q-10 0 -10 10v120q0 14 10.5 24.5t24.5 10.5h355q8 0 14 -6t6 -14t-6 -14t-14 -6l-150 -25l-30 -645q-1 -8 -6.5 -14t-13.5 -6t-14 6t-6 14z" />
    <glyph glyph-name="U" unicode="U" horiz-adv-x="560" 
d="M430 184v490q0 12 -11 18q-1 0 -13.5 3t-26.5 6.5l-26 6.5l-12 3q-6 3 -6 9q0 10 10 10h120q14 0 24.5 -10.5t10.5 -24.5v-526q0 -36 -19 -68t-50 -56t-70.5 -37.5t-80.5 -13.5t-80.5 13.5t-70.5 37.5t-50 56t-19 68v541q0 8 6 14t14 6t13.5 -6t6.5 -14q0 -1 1.5 -25.5
t4.5 -67t6 -93.5t6 -105.5t6 -101.5t4.5 -83t1.5 -50q0 -25 13.5 -46.5t34.5 -38t48 -26t54 -9.5t54 9.5t48 26t34.5 38t13.5 46.5z" />
    <glyph glyph-name="V" unicode="V" horiz-adv-x="499" 
d="M404 666q5 14 1 19t-9 7q-1 0 -13.5 3t-26.5 6.5l-26 6.5l-12 3q-6 3 -6 9q0 10 10 10h132q14 0 24.5 -10.5t10.5 -24.5q0 -5 -2 -11l-217 -666q-4 -11 -13 -17.5t-20 -6.5q-22 0 -32 21q-4 13 -17 58t-30.5 106.5t-37.5 133.5t-39.5 140t-35.5 126t-25 91t-10 35
q-2 8 1 15.5t11 9.5t16 -1.5t10 -11.5l189 -567l167 516v0z" />
    <glyph glyph-name="W" unicode="W" horiz-adv-x="821" 
d="M270 18q-3 -11 -12.5 -17.5t-20.5 -6.5q-22 0 -32 21q-4 13 -17 58t-30.5 106.5t-37.5 133.5t-39.5 140t-35.5 126t-25 91t-10 35q-2 8 1 15.5t11 9.5t16 -1.5t10 -11.5l189 -557l147 506q5 14 1 19t-9 7q-1 0 -13.5 3t-26.5 6.5l-26 6.5l-12 3q-6 3 -6 9q0 10 10 10h132
q14 0 24.5 -10.5t10.5 -24.5q0 -5 -2 -11l-33 -112l125 -412l167 506q5 14 1 19t-9 7q-1 0 -13.5 3t-26.5 6.5l-26 6.5l-12 3q-6 3 -6 9q0 10 10 10h132q14 0 24.5 -10.5t10.5 -24.5q0 -5 -2 -11l-217 -666q-4 -11 -13 -17.5t-20 -6.5t-20 5.5t-12 15.5q-5 14 -18 63
t-30 116t-36 144t-37 147l-136 -467v0z" />
    <glyph glyph-name="X" unicode="X" horiz-adv-x="482" 
d="M24 699q-4 7 -3 15t8 13t15 4t13 -8l169 -293l169 293q4 7 12.5 8t15.5 -4t8 -13t-4 -15l-139 -311l182 -342q2 -6 2 -11q0 -14 -10.5 -24.5t-24.5 -10.5h-132q-10 0 -10 10q0 6 5 9l12 3t26.5 6.5t26.5 6.5t13 3q5 2 9.5 7t-0.5 19l-164 276l-178 -330q-5 -7 -12.5 -9.5
t-14.5 1.5q-8 4 -10 12t2 15l152 359l-138 311v0z" />
    <glyph glyph-name="Y" unicode="Y" horiz-adv-x="459" 
d="M252 222v-187q0 -14 -10 -24.5t-25 -10.5q-14 0 -24.5 10t-10.5 24v190q-5 16 -19.5 57.5t-34 95t-40 111.5t-38 106t-29 79.5l-11.5 31.5q-3 8 0.5 15.5t11.5 9.5q9 2 16 -1.5t11 -11.5l174 -377l141 326q6 14 1.5 19t-9.5 7q-1 0 -13.5 3t-26.5 6.5l-26 6.5l-12 3
q-6 4 -6 9q0 10 10 10h132q15 0 25 -10.5t10 -24.5q0 -5 -2 -11z" />
    <glyph glyph-name="Z" unicode="Z" horiz-adv-x="460" 
d="M30 35q0 8 3 14l292 589q8 12 5.5 17.5t-6.5 9.5l-238 25q-8 0 -14 6t-6 14t6 14t14 6h309q14 0 24.5 -10.5t10.5 -24.5q0 -8 -3 -14l-292 -589q-8 -12 -5.5 -18t6.5 -9l270 -25q8 0 14 -6t6 -14t-6 -14t-14 -6h-341q-14 0 -24.5 10.5t-10.5 24.5z" />
    <glyph glyph-name="bracketleft" unicode="[" horiz-adv-x="132" 
d="M28 -89v867q0 4 2 12q1 9 10 14q10 9 23 9h119q10 0 10 -10q0 -6 -6 -9l-12 -3l-26 -6.5t-26.5 -6.5t-13.5 -3q-11 -6 -11 -18v-814h-1q1 -5 4 -9.5t7 -6.5q1 0 13 -3l26 -6.5t25.5 -6.5l11.5 -3q6 -3 6 -9q0 -10 -10 -10h-118q-13 0 -23 8q-9 5 -10 14z" />
    <glyph glyph-name="backslash" unicode="\" horiz-adv-x="352" 
d="M390 -43q8 -14 2.5 -24.5t-19.5 -10.5h-23q-22 0 -50 0.5t-52 0.5h-25q-5 0 -9 2.5t-6 7.5q-5 6 3 9l14.5 2.5t32.5 6t33.5 6.5t16.5 3q7 5 2 18q-10 21 -33.5 75t-54 126.5t-64.5 155t-66 160.5t-58.5 143t-41.5 102.5t-16 39.5q-4 8 -1 14t11 6t17 -6t13 -14l374 -823
v0z" />
    <glyph glyph-name="bracketright" unicode="]" horiz-adv-x="132" 
d="M102 -89q-1 -9 -10 -14q-10 -8 -23 -8h-118q-10 0 -10 10q0 6 6 9l11.5 3t25.5 6.5l26 6.5t13 3q4 2 7 6.5t4 9.5h-1v814q0 12 -11 18q-1 0 -13.5 3t-26.5 6.5l-26 6.5l-12 3q-6 3 -6 9q0 10 10 10h119q12 0 23 -9q9 -5 10 -14q2 -8 2 -12v-867v0z" />
    <glyph glyph-name="asciicircum" unicode="^" horiz-adv-x="536" 
d="M154 776q-6 -3 -14 -5t-13 3t-5.5 12t4.5 12l142 104l141 -105q6 -5 5.5 -10.5t-4.5 -10.5q-5 -7 -13.5 -5t-14.5 4l-113 48l-115 -48v1z" />
    <glyph glyph-name="underscore" unicode="_" horiz-adv-x="499" 
d="M38 -166q-14 0 -24.5 10.5t-10.5 24.5t10.5 24.5t24.5 10.5h423q14 0 24.5 -10.5t10.5 -24.5t-10.5 -24.5t-24.5 -10.5h-423v0z" />
    <glyph glyph-name="grave" unicode="`" horiz-adv-x="536" 
d="M338 772l-168 67l41 71l155 -116q5 -5 4.5 -11.5t-4.5 -11.5q-5 -6 -13.5 -3.5t-14.5 4.5z" />
    <glyph glyph-name="a" unicode="a" horiz-adv-x="565" 
d="M390 250h-167q-19 0 -36 -6.5t-29.5 -18.5t-20 -28.5t-7.5 -35.5q0 -25 10 -43t28 -30t41.5 -18t50.5 -6t50.5 9.5t41.5 26t28 38t10 46.5v66zM555 10q0 -10 -10 -10h-135q-8 0 -14 6t-6 14v43l-11 -11t-29.5 -23.5t-42 -23.5t-47.5 -11q-41 0 -77.5 12.5t-63.5 34.5
t-43 52.5t-16 66.5q0 33 14.5 62t39 51t58 34.5t71.5 12.5h147v73q0 28 -18 48t-44 24l-178 25q-8 0 -14 6t-6 14t6 14t14 6h145q34 0 64 -11t52.5 -30t35.5 -44.5t13 -54.5v-334q0 -13 11 -18q1 0 13.5 -3t26.5 -6.5l26 -6.5l12 -3q6 -3 6 -9z" />
    <glyph glyph-name="b" unicode="b" 
d="M390 346q0 25 -10.5 46.5t-28 38t-41 26t-50.5 9.5t-50.5 -9.5t-41.5 -26t-28 -38t-10 -46.5v-162q0 -25 10 -46.5t28 -38t41.5 -26t50.5 -9.5t50.5 9.5t41 26t28 38t10.5 46.5v162zM460 169q0 -36 -16 -68t-43 -56t-63.5 -37.5t-77.5 -13.5q-24 0 -47.5 11t-42 23.5
t-29.5 23.5l-11 11v-28q0 -14 -10.5 -24.5t-24.5 -10.5q-15 0 -25 10.5t-10 24.5v660q0 14 10 24.5t25 10.5h120q10 0 10 -10q0 -5 -6 -9l-12 -3l-26 -6.5t-26.5 -6.5t-13.5 -3q-11 -5 -11 -18v-207l11 11t29.5 23.5t42 23.5t47.5 11q41 0 77.5 -13.5t63.5 -37.5t43 -56
t16 -68v-192v0z" />
    <glyph glyph-name="c" unicode="c" horiz-adv-x="420" 
d="M60 390q0 29 13 54.5t35 44.5t52 30t65 11h145q8 0 14 -6t6 -14t-6 -14t-14 -6l-178 -25q-27 -4 -44.5 -24t-17.5 -48v-256q0 -28 17.5 -48t44.5 -24l178 -25q8 0 14 -6t6 -14t-6 -14t-14 -6h-145q-35 0 -65 11t-52 30t-35 44.5t-13 54.5v250v0z" />
    <glyph glyph-name="d" unicode="d" horiz-adv-x="565" 
d="M390 346q0 25 -10 46.5t-28 38t-41.5 26t-50.5 9.5t-50.5 -9.5t-41 -26t-28 -38t-10.5 -46.5v-162q0 -25 10.5 -46.5t28 -38t41 -26t50.5 -9.5t50.5 9.5t41.5 26t28 38t10 46.5v162zM555 10q0 -10 -10 -10h-135q-8 0 -14 6t-6 14v43l-11 -11t-29.5 -23.5t-42 -23.5
t-47.5 -11q-41 0 -77.5 13.5t-63.5 37.5t-43 56t-16 68v192q0 36 16 68t43 56t63.5 37.5t77.5 13.5q24 0 47.5 -11t42 -23.5t29.5 -23.5l11 -11v207q0 13 -11 18q-1 0 -13 3t-26.5 6.5t-26.5 6.5l-12 3q-6 4 -6 9q0 10 10 10h120q15 0 25 -10.5t10 -24.5v-639q0 -13 12 -18
q1 0 13 -3t26.5 -6.5t26.5 -6.5l12 -3q5 -3 5 -9z" />
    <glyph glyph-name="e" unicode="e" 
d="M390 346q0 25 -10 46.5t-28 38t-41.5 26t-50.5 9.5t-50.5 -9.5t-41.5 -26t-28 -38t-10 -46.5v-56l260 25v31zM460 285q0 -14 -10.5 -24.5t-24.5 -10.5h-295v-113q0 -28 18 -48t44 -24l178 -25q8 0 14 -6t6 -14t-6 -14t-14 -6h-145q-34 0 -64 11t-52.5 30t-35.5 44.5
t-13 54.5v221q0 36 16 68t43 56t63.5 37.5t77.5 13.5q42 0 78.5 -13.5t63.5 -37.5t42.5 -56t15.5 -68v-76v0z" />
    <glyph glyph-name="f" unicode="f" horiz-adv-x="419" 
d="M159 465l-30 -445q-1 -8 -6.5 -14t-13.5 -6t-14 6t-6 14v446h-69q-9 0 -14.5 6t-5.5 14t5.5 14t14.5 6l69 25v59q0 29 13 54.5t35 44.5t52 30t65 11h145q8 0 14 -6t6 -14t-6 -14t-14 -6l-178 -25q-27 -4 -44.5 -24t-17.5 -48v-63h137q9 0 14.5 -6t5.5 -14t-5.5 -14
t-14.5 -6z" />
    <glyph glyph-name="g" unicode="g" horiz-adv-x="565" 
d="M390 346q0 25 -10 46.5t-28 38t-41.5 26t-50.5 9.5t-50.5 -9.5t-41.5 -26t-28 -38t-10 -46.5v-162q0 -25 10 -46.5t28 -38t41.5 -26t50.5 -9.5t50.5 9.5t41.5 26t28 38t10 46.5v162zM555 520q0 -5 -6 -9l-12 -3l-26 -6.5t-26.5 -6.5t-13.5 -3q-11 -5 -11 -18v-680
q0 -29 -13 -54.5t-35.5 -44.5t-52.5 -30t-64 -11h-145q-8 0 -14 6t-6 14t6 14t14 6l178 25q26 4 44 24t18 48v272l-11 -11t-29.5 -23.5t-42 -23.5t-47.5 -11q-42 0 -78.5 13.5t-63.5 37.5t-42.5 56t-15.5 68v192q0 36 15.5 68t42.5 56t63.5 37.5t78.5 13.5q24 0 47.5 -11
t42 -23.5t29.5 -23.5l11 -11v43q0 8 6 14t14 6h135q10 0 10 -10z" />
    <glyph glyph-name="h" unicode="h" horiz-adv-x="565" 
d="M175 695v-228l11 11t29.5 23.5t42 23.5t47.5 11q42 0 78.5 -13.5t63.5 -37.5t42.5 -56t15.5 -68q0 -29 -3 -73t-7.5 -89t-9 -87t-7.5 -66t-3 -26q0 -8 -6 -14t-14 -6t-14 6t-6 14v326q0 25 -10 46.5t-28 38t-41.5 26t-50.5 9.5t-50.5 -9.5t-41.5 -26t-28 -38t-10 -46.5
v-290q0 -13 11 -18q1 0 13.5 -3t26.5 -6.5l26 -6.5l12 -3q6 -3 6 -9q0 -10 -10 -10h-120q-14 0 -24.5 10.5t-10.5 24.5v639q0 12 -11 18q-1 0 -13.5 3t-26.5 6.5l-26 6.5l-12 3q-6 3 -6 9q0 10 10 10h120q14 0 24.5 -10.5t10.5 -24.5z" />
    <glyph glyph-name="i" unicode="i" horiz-adv-x="235" 
d="M105 615q0 14 10.5 24.5t24.5 10.5q15 0 25 -10.5t10 -24.5t-10 -24.5t-25 -10.5q-14 0 -24.5 10.5t-10.5 24.5zM185 495q1 14 -9.5 24.5t-25.5 10.5h-130q-10 0 -10 -10q0 -5 6 -9l12 -3l26 -6.5t26.5 -6.5t13.5 -3q11 -5 11 -18v-454q0 -8 6 -14t14 -6t13.5 6t6.5 14
l40 475v0z" />
    <glyph glyph-name="j" unicode="j" horiz-adv-x="240" 
d="M110 615q0 14 10.5 24.5t24.5 10.5t24.5 -10.5t10.5 -24.5t-10.5 -24.5t-24.5 -10.5t-24.5 10.5t-10.5 24.5zM110 474q0 12 -11 18q-1 0 -13.5 3t-26.5 6.5l-26 6.5l-12 3q-6 3 -6 9q0 10 10 10h120q14 0 24.5 -10.5t10.5 -24.5v-703q0 -29 -13 -54.5t-35.5 -44.5
t-52.5 -30t-64 -11h-145q-8 0 -14 6t-6 14t6 14t14 6l178 25q26 4 44 24t18 48v685v0z" />
    <glyph glyph-name="k" unicode="k" horiz-adv-x="535" 
d="M175 35q0 -14 -10.5 -24.5t-24.5 -10.5q-15 0 -25 10.5t-10 24.5v639q0 13 -12 18q-1 0 -13 3t-26.5 6.5t-26.5 6.5l-12 3q-5 3 -5 9q0 10 10 10h120q14 0 24.5 -10.5t10.5 -24.5v-355q0 -8 5.5 -14t14.5 -6q6 0 13 5l220 198q5 7 13 8t15 -4t8 -13t-4 -15l-195 -211
l220 -224q20 -17 20 -32q0 -14 -10.5 -23t-24.5 -9h-132q-10 0 -10 10q0 6 5 9q2 1 12.5 5t23 9t13.5 5l6 3t6.5 5t2.5 7q0 5 -6 11l-183 181q-7 5 -13 5q-9 0 -14.5 -6t-5.5 -14v-195v0z" />
    <glyph glyph-name="l" unicode="l" horiz-adv-x="235" 
d="M182 695l-37 -675q0 -8 -6 -14t-14 -6t-14 6t-6 14v654q0 12 -11 18q-1 0 -13.5 3t-26.5 6.5l-26 6.5l-12 3q-6 3 -6 9q0 10 10 10h127q14 0 25 -10.5t10 -24.5z" />
    <glyph glyph-name="m" unicode="m" horiz-adv-x="895" 
d="M105 35v439q0 12 -11 18q-1 0 -13.5 3t-26.5 6.5l-26 6.5l-12 3q-6 3 -6 9q0 10 10 10h135q8 0 14 -6t6 -14v-43l11 11t29.5 23.5t42 23.5t47.5 11q52 0 95.5 -21t70.5 -56q26 36 70 56.5t94 20.5q41 0 77.5 -13.5t63.5 -37.5t43 -56t16 -68q0 -29 -3 -73t-7.5 -89
t-9 -87t-7.5 -66t-3 -26q0 -8 -6 -14t-14 -6t-14 6t-6 14v326q0 25 -10 46.5t-28 38t-41.5 26t-50.5 9.5t-50.5 -9.5t-41.5 -26t-28 -38t-10 -46.5v-290q0 -13 11 -18q1 0 13.5 -3t26.5 -6.5l26 -6.5l12 -3q6 -4 6 -9q0 -10 -10 -10h-120q-14 0 -24.5 10.5t-10.5 24.5v311
q0 25 -10 46.5t-28 38t-41.5 26t-50.5 9.5t-50.5 -9.5t-41.5 -26t-28 -38t-10 -46.5v-290q0 -13 11 -18q1 0 13.5 -3t26.5 -6.5l26 -6.5l12 -3q6 -4 6 -9q0 -10 -10 -10h-120q-14 0 -24.5 10.5t-10.5 24.5z" />
    <glyph glyph-name="n" unicode="n" horiz-adv-x="565" 
d="M20 530h135q8 0 14 -6t6 -14v-43l11 11t29.5 23.5t42 23.5t47.5 11q41 0 77.5 -13.5t63.5 -37.5t43 -56t16 -68q0 -29 -3 -73t-7.5 -89t-9 -87t-7.5 -66t-3 -26q0 -8 -6 -14t-14 -6t-14 6t-6 14v326q0 25 -10 46.5t-28 38t-41.5 26t-50.5 9.5t-50.5 -9.5t-41.5 -26
t-28 -38t-10 -46.5v-290q0 -13 11 -18q1 0 13.5 -3t26.5 -6.5l26 -6.5l12 -3q6 -3 6 -9q0 -10 -10 -10h-120q-14 0 -24.5 10.5t-10.5 24.5v439q0 12 -11 18q-1 0 -13.5 3t-26.5 6.5l-26 6.5l-12 3q-6 3 -6 9q0 10 10 10z" />
    <glyph glyph-name="o" unicode="o" 
d="M390 346q0 25 -10 46.5t-28 38t-41.5 26t-50.5 9.5t-50.5 -9.5t-41.5 -26t-28 -38t-10 -46.5v-162q0 -25 10 -46.5t28 -38t41.5 -26t50.5 -9.5t50.5 9.5t41.5 26t28 38t10 46.5v162zM460 169q0 -36 -16 -68t-43 -56t-63.5 -37.5t-77.5 -13.5t-77.5 13.5t-63.5 37.5
t-43 56t-16 68v192q0 36 16 68t43 56t63.5 37.5t77.5 13.5t77.5 -13.5t63.5 -37.5t43 -56t16 -68v-192v0z" />
    <glyph glyph-name="p" unicode="p" horiz-adv-x="565" 
d="M435 346q0 25 -10 46.5t-28 38t-41.5 26t-50.5 9.5t-50.5 -9.5t-41 -26t-28 -38t-10.5 -46.5v-162q0 -25 10.5 -46.5t28 -38t41 -26t50.5 -9.5t50.5 9.5t41.5 26t28 38t10 46.5v162zM505 169q0 -36 -15.5 -68t-42.5 -56t-63.5 -37.5t-78.5 -13.5q-24 0 -47.5 11t-42 23.5
t-29.5 23.5l-11 11l-30 -397q0 -8 -5.5 -14t-14.5 -6q-8 0 -14 6t-6 14v808q0 13 -11 18q-1 0 -13 3t-26.5 6.5t-26.5 6.5l-12 3q-6 4 -6 9q0 10 10 10h135q9 0 14.5 -6t5.5 -14v-43l11 11t29.5 23.5t42 23.5t47.5 11q42 0 78.5 -13.5t63.5 -37.5t42.5 -56t15.5 -68v-192v0z
" />
    <glyph glyph-name="q" unicode="q" horiz-adv-x="565" 
d="M390 346q0 25 -10 46.5t-28 38t-41.5 26t-50.5 9.5t-50.5 -9.5t-41.5 -26t-28 -38t-10 -46.5v-162q0 -25 10 -46.5t28 -38t41.5 -26t50.5 -9.5t50.5 9.5t41.5 26t28 38t10 46.5v162zM555 520q0 -6 -6 -9l-12 -3l-26 -6.5t-26.5 -6.5t-13.5 -3q-11 -6 -11 -18v-804
q0 -8 -6 -14t-14 -6t-14 6t-6 14l-30 393l-11 -11t-29.5 -23.5t-42 -23.5t-47.5 -11q-41 0 -77.5 13.5t-63.5 37.5t-43 56t-16 68v192q0 36 16 68t43 56t63.5 37.5t77.5 13.5q24 0 47.5 -11t42 -23.5t29.5 -23.5l11 -11v43q0 8 6 14t14 6h135q10 0 10 -10z" />
    <glyph glyph-name="r" unicode="r" horiz-adv-x="432" 
d="M175 346l-30 -326q0 -8 -6 -14t-14 -6t-14 6t-6 14v454q0 12 -11 18q-1 0 -13.5 3t-26.5 6.5l-26 6.5l-12 3q-6 3 -6 9q0 10 10 10h135q8 0 14 -6t6 -14v-43l11 11t29.5 23.5t42 23.5t47.5 11q17 0 31 -1.5t31 -8.5q25 -8 25 -33v-120q0 -10 -10 -10q-8 0 -9 6l-3 12
t-6.5 27t-6.5 28t-3 14q-4 7 -11 10q-9 2 -18.5 4t-19.5 2q-27 0 -50 -9.5t-40 -26t-27.5 -38t-12.5 -46.5z" />
    <glyph glyph-name="s" unicode="s" horiz-adv-x="426" 
d="M50 40l193 25q35 5 59 30.5t24 61.5q0 19 -7 36t-20 29.5t-30 20t-36 7.5h-38q-34 0 -64 11t-52.5 30t-35.5 44.5t-13 54.5t13 54.5t35.5 44.5t52.5 30t64 11h145q8 0 14 -6t6 -14t-6 -14t-14 -6l-178 -25q-26 -4 -44 -24t-18 -48q0 -30 21.5 -51.5t51.5 -21.5h40
q38 0 71.5 -12.5t58 -34.5t39 -51t14.5 -62t-14.5 -62t-39 -51t-58 -34.5t-71.5 -12.5h-163q-8 0 -14 6t-6 14t6 14t14 6z" />
    <glyph glyph-name="t" unicode="t" horiz-adv-x="369" 
d="M169 137q0 -28 14 -46t48 -26l108 -25q8 0 14 -6t6 -14t-6 -14t-14 -6h-75q-34 0 -64 11t-52.5 30t-35.5 44.5t-13 54.5v326h-69q-8 0 -14 6t-6 14t6 14t14 6l69 24v165q0 14 10 24.5t25 10.5q14 0 24.5 -10.5t10.5 -24.5v-165h138q8 0 14 -6t6 -14t-6 -14t-14 -6
l-138 -25v-328v0z" />
    <glyph glyph-name="u" unicode="u" horiz-adv-x="565" 
d="M545 0h-135q-8 0 -14 6t-6 14v43l-11 -11t-29.5 -23.5t-42 -23.5t-47.5 -11q-42 0 -78.5 13.5t-63.5 37.5t-42.5 56t-15.5 68q0 29 3 73t7.5 89t9 87t7.5 66t3 26q0 8 6 14t14 6t14 -6t6 -14v-326q0 -25 10 -46.5t28 -38t41.5 -26t50.5 -9.5t50.5 9.5t41.5 26t28 38
t10 46.5v290q0 12 -11 18q-1 0 -13.5 3t-26.5 6.5l-26 6.5l-12 3q-6 3 -6 9q0 10 10 10h120q14 0 24.5 -10.5t10.5 -24.5v-439q0 -13 11 -18q1 0 13.5 -3t26.5 -6.5l26 -6.5l12 -3q6 -3 6 -9q0 -10 -10 -10z" />
    <glyph glyph-name="v" unicode="v" horiz-adv-x="419" 
d="M324 466q5 14 1 19t-9 7q-1 0 -13.5 3t-26.5 6.5l-26 6.5l-12 3q-6 4 -6 9q0 10 10 10h132q14 0 24.5 -10.5t10.5 -24.5q0 -5 -2 -11l-177 -466q-4 -11 -12.5 -17.5t-20.5 -6.5q-22 0 -32 21q-5 16 -18.5 58.5t-30.5 96.5t-36 113.5t-34.5 108.5t-25.5 81l-10 32
q-2 8 1.5 15.5t11.5 9.5t15 -1.5t10 -11.5q38 -94 62.5 -154t39.5 -95.5t22.5 -53.5t11.5 -28.5t7.5 -19t10.5 -26.5l10.5 27t7 19t9.5 25.5t17 45.5t29.5 80t48.5 129z" />
    <glyph glyph-name="w" unicode="w" horiz-adv-x="672" 
d="M230 18q-4 -11 -12.5 -17.5t-20.5 -6.5q-22 0 -32 21q-5 16 -18.5 58.5t-30.5 96.5t-36 113.5t-34.5 108.5t-25.5 81l-10 32q-2 8 1.5 15.5t11.5 9.5t15 -1.5t10 -11.5q38 -94 62.5 -154t39.5 -95.5t22.5 -53.5t11.5 -28.5t7.5 -19t10.5 -26.5l10.5 27t7 19t9.5 25.5
t17 45.5t29.5 80t48.5 129q5 14 1 19t-9 7q-1 0 -13.5 3t-26.5 6.5l-26 6.5l-12 3q-6 4 -6 9q0 10 10 10h132q14 0 24.5 -10.5t10.5 -24.5q0 -5 -2 -11l-45 -116q21 -52 35 -85t22.5 -53.5t13 -31.5t7.5 -19l6 -16t9 -23l10.5 27t7 19t9.5 25.5t17 45.5t29.5 80t48.5 129
q5 14 1 19t-9 7q-1 0 -13.5 3t-26.5 6.5l-26 6.5l-12 3q-6 4 -6 9q0 10 10 10h132q14 0 24.5 -10.5t10.5 -24.5q0 -5 -2 -11l-177 -466q-4 -11 -12.5 -17.5t-20.5 -6.5q-22 0 -32 21q-4 12 -12.5 40t-20.5 65t-26 80.5t-27 87.5l-102 -270v0z" />
    <glyph glyph-name="x" unicode="x" horiz-adv-x="442" 
d="M24 499q-4 7 -3 15t8 13t15 4t13 -8l149 -193l149 193q5 7 13 8t15 -4t7.5 -13t-3.5 -15l-119 -211l162 -242q2 -6 2 -11q0 -14 -10.5 -24.5t-24.5 -10.5h-132q-10 0 -10 10q0 6 5 9l12 3t26.5 6.5t26.5 6.5t13 3q5 2 9.5 7t-0.5 19l-144 176l-158 -230q-5 -7 -12.5 -9.5
t-14.5 1.5q-8 4 -10 12t2 15l132 259l-118 211v0z" />
    <glyph glyph-name="y" unicode="y" horiz-adv-x="419" 
d="M109 -311q-1 -7 -4.5 -15.5t-9 -14.5t-11 -8t-10.5 3q-5 6 -4.5 13t4.5 21l88 336q-5 16 -18 57.5t-30 95t-35.5 111.5t-33.5 106t-25 79.5l-10 31.5q-2 8 1.5 15.5t11.5 9.5t15 -1.5t10 -11.5q38 -94 62.5 -154t39.5 -95.5t22.5 -53.5t12 -28.5t8 -19t10.5 -26.5
l10.5 27t7 19t9 25.5t17 45.5t30 80t47.5 129q5 14 1 19t-9 7q-1 0 -13.5 3t-26.5 6.5l-26 6.5l-12 3q-6 4 -6 9q0 10 10 10h132q15 0 25 -10.5t10 -24.5q0 -5 -2 -11z" />
    <glyph glyph-name="z" unicode="z" horiz-adv-x="420" 
d="M10 35q0 8 3 14l15 22t48 69.5t84.5 121t124.5 176.5q9 12 6.5 17.5t-6.5 9.5l-219 25q-8 0 -14 6t-6 14t6 14t14 6h309q14 0 24.5 -10.5t10.5 -24.5q0 -8 -3 -14l-272 -389q-8 -12 -5.5 -18t6.5 -9l220 -25q8 0 14 -6t6 -14t-6 -14t-14 -6h-311q-14 0 -24.5 10.5
t-10.5 24.5z" />
    <glyph glyph-name="braceleft" unicode="{" horiz-adv-x="258" 
d="M138 791q1 9 10 14q10 8 23 8h118q10 0 10 -10q0 -6 -6 -9l-11.5 -3t-25.5 -6.5l-26 -6.5t-13 -3q-4 -2 -7 -6.5t-4 -9.5h1v-814q0 -13 11 -18q1 0 13.5 -3t26.5 -6.5l26 -6.5l12 -3q6 -3 6 -9q0 -10 -10 -10h-119q-13 0 -23 9q-9 5 -10 14q-2 8 -2 12v371h-108
q-11 -1 -15 8t2 21q1 1 7.5 14t17 33.5t20.5 40.5l17.5 35l8.5 17q7 9 12 8q6 3 5 -4l-5.5 -15t-12.5 -33.5t-13 -34.5t-7 -17q1 -7 10 -9q9 1 25 1h36v431v0z" />
    <glyph glyph-name="bar" unicode="|" horiz-adv-x="218" 
d="M75 802q0 14 10.5 24.5t24.5 10.5t24.5 -10.5t10.5 -24.5l1 -867q0 -14 -11 -24.5t-25 -10.5t-24.5 10.5t-10.5 24.5v867z" />
    <glyph glyph-name="braceright" unicode="}" horiz-adv-x="271" 
d="M127 -89q-1 -9 -10 -14q-10 -8 -23 -8h-118q-10 0 -10 10q0 6 6 9l11.5 3t25.5 6.5l26 6.5t13 3q4 2 7 6.5t4 9.5h-1v814q0 12 -11 18q-1 0 -13.5 3t-26.5 6.5l-26 6.5l-12 3q-6 3 -6 9q0 10 10 10h119q12 0 23 -9q9 -5 10 -14q2 -8 2 -12v-371h108q11 1 15 -8t-2 -21
q-1 -1 -7.5 -14t-17 -33.5t-20.5 -40.5l-17.5 -35l-8.5 -17q-7 -9 -12 -8q-6 -3 -5 4l5.5 15t12.5 33.5t13 34t7 17.5q-1 7 -10 9q-9 -1 -25 -1h-36v-431v0z" />
    <glyph glyph-name="asciitilde" unicode="~" horiz-adv-x="452" 
d="M78 296q-5 -6 -11 -6t-11 6t-5 14t5 14l23 29q18 24 41 37.5t46 16t44.5 -7t37.5 -30.5q16 -20 37 -19.5t41 13.5l54 35q11 14 23 0q5 -6 4.5 -14t-5.5 -15l-22 -28q-19 -24 -42 -37.5t-46.5 -16t-45 6.5t-37.5 29t-36.5 19.5t-39.5 -12.5z" />
    <glyph glyph-name="exclamdown" unicode="&#xa1;" horiz-adv-x="179" 
d="M143 496q0 -21 -15.5 -36.5t-36.5 -15.5q-23 0 -37.5 15.5t-14.5 37.5q0 21 14.5 36.5t37.5 15.5q21 0 36.5 -15.5t15.5 -36.5v-1zM43 -146q-1 -14 10 -24.5t25 -10.5h120q10 0 10 10q0 6 -6 9l-12 3l-26 6.5t-26.5 6.5t-13.5 3q-11 5 -11 18v504q0 8 -6 14t-14 6
t-13.5 -6t-6.5 -14l-30 -525v0z" />
    <glyph glyph-name="cent" unicode="&#xa2;" horiz-adv-x="415" 
d="M107 366q0 -28 17.5 -48t44.5 -24l18 -3l-1 232l-17 -2q-27 -4 -44.5 -24t-17.5 -48v-83v0zM37 446q0 27 11.5 51t31.5 43t47 30.5t59 14.5v62q0 14 10.5 24.5t24.5 10.5t24.5 -10.5t10.5 -24.5v-61h91q8 0 14 -6t6 -14t-6 -14t-14 -6l-91 -13v-252l91 -12q8 0 14 -6
t6 -14t-6 -14t-14 -6h-91v-66q0 -14 -10 -24.5t-24 -10.5t-24.5 10.5t-10.5 24.5v66q-32 3 -59.5 14.5t-47.5 30.5t-31.5 43.5t-11.5 51.5v77v0z" />
    <glyph glyph-name="sterling" unicode="&#xa3;" horiz-adv-x="605" 
d="M65 292q-14 0 -24.5 10.5t-10.5 24.5t10.5 24.5t24.5 10.5h73v193q0 36 17.5 68t46.5 56t67 37.5t79 13.5q40 0 76 -14.5t64.5 -45.5t46.5 -78.5t22 -114.5q0 -8 -6 -14t-14 -6q-4 0 -9 6t-9 13h1l-6 12l5 -12q-3 6 -4.5 10t-0.5 2l-26 52q-11 22 -24 43.5t-30 38.5
t-38 27.5t-48 10.5t-52.5 -9.5t-45 -26t-31 -38t-11.5 -46.5v-178h77q14 0 24.5 -10.5t10.5 -24.5t-10.5 -24.5t-24.5 -10.5h-78v-77v-67v-51v-26q44 -4 96 -7.5t100.5 -6.5t88.5 -5.5t59 -5.5q8 0 14 -6t6 -14t-7 -17t-15 -9l-394 1q-5 0 -18 0.5t-27.5 2.5t-27 7t-17 14.5
t2.5 23.5t32 35q5 -2 14.5 -3.5t23.5 -3.5v215h-73v0z" />
    <glyph glyph-name="currency" unicode="&#xa4;" horiz-adv-x="555" 
d="M92 394q-14 0 -24.5 10.5t-10.5 24.5t10.5 24.5t24.5 10.5h57l11 127q3 29 18 54.5t39 44.5t55 30t65 11h185q8 0 13.5 -6t5.5 -14q-1 -8 -7.5 -14t-14.5 -6l-220 -25q-27 -3 -46.5 -23.5t-21.5 -48.5q0 -1 -1 -9t-3.5 -38t-7.5 -83h93q14 0 24.5 -10.5t10.5 -24.5
t-10.5 -24.5t-24.5 -10.5h-99q-2 -17 -3 -35t-3 -38h65q14 0 24.5 -10.5t10.5 -24.5t-10.5 -24.5t-24.5 -10.5h-71q-2 -26 -5 -54t-5 -60q-2 -28 14 -48.5t42 -23.5l216 -25q8 0 13.5 -6t4.5 -14q0 -8 -6.5 -14t-14.5 -6h-185q-34 0 -63 11t-50 30t-32 44.5t-8 54.5l9 111
h-79q-14 0 -24.5 10.5t-10.5 24.5t10.5 24.5t24.5 10.5h85l6 73h-51v0z" />
    <glyph glyph-name="yen" unicode="&#xa5;" horiz-adv-x="459" 
d="M128 145q-14 0 -24.5 10.5t-10.5 24.5t10.5 24.5t24.5 10.5h76v20l-195 449q-2 6 -2 11q0 14 10 24.5t25 10.5h132q10 0 10 -10q0 -5 -6 -9l-12 -3l-26 -6.5t-26.5 -6.5t-13.5 -3q-5 -2 -9.5 -7t1.5 -19l141 -326l174 377q4 8 11 11.5t16 1.5q8 -2 11.5 -9.5t0.5 -15.5
l-15 -40t-39.5 -105.5t-55.5 -149.5t-62 -173v-22h74q14 0 24.5 -10.5t10.5 -24.5t-10.5 -24.5t-24.5 -10.5h-74v-111q0 -14 -10.5 -24t-24.5 -10q-15 0 -25 10.5t-10 24.5v110h-76v0z" />
    <glyph glyph-name="brokenbar" unicode="&#xa6;" horiz-adv-x="218" 
d="M71 857q0 7 10.5 20t24.5 13t24.5 -13t10.5 -20v-330q0 -7 -11 -18.5t-25 -11.5t-24.5 11.5t-10.5 18.5zM75 313q0 7 10.5 20t24.5 13t24.5 -13t10.5 -20l1 -333q0 -7 -11 -18.5t-25 -11.5t-24.5 11.5t-10.5 18.5v333z" />
    <glyph glyph-name="section" unicode="&#xa7;" horiz-adv-x="426" 
d="M162 305q-26 -4 -44 -24t-18 -48q0 -30 21.5 -51.5t51.5 -21.5h40q53 0 97 -25q16 13 25.5 31.5t9.5 40.5q0 19 -7 36t-20 29.5t-30 20t-36 7.5h-38zM243 -95q35 5 59 30.5t24 61.5q0 19 -7 36t-20 29.5t-30 20t-36 7.5h-38q-34 0 -64 11t-52.5 30t-35.5 44.5t-13 54.5
q0 34 18 63t48 49q-22 19 -34.5 44t-12.5 54t13 54.5t35.5 44.5t52.5 30t64 11h145q8 0 14 -6t6 -14t-6 -14t-14 -6l-178 -25q-26 -4 -44 -24t-18 -48q0 -29 20 -50t49 -23h44q38 0 71.5 -12.5t58.5 -34.5t39.5 -51t13.5 -62q-2 -49 -17.5 -73t-46.5 -32q21 -21 33 -48
t12 -57q0 -33 -14.5 -62t-39 -51t-58 -34.5t-71.5 -12.5h-163q-8 0 -14 6t-6 14t6 14t14 6z" />
    <glyph glyph-name="dieresis" unicode="&#xa8;" horiz-adv-x="560" 
d="M326 813q0 16 11.5 27t27.5 11q17 -1 28.5 -12t11.5 -27t-11.5 -27.5t-28.5 -11.5q-16 0 -27.5 11.5t-11.5 27.5v1zM155 812q0 16 11.5 27t27.5 11q17 -1 28.5 -12t11.5 -27t-11.5 -27.5t-28.5 -11.5q-16 0 -27.5 11.5t-11.5 27.5v1z" />
    <glyph glyph-name="copyright" unicode="&#xa9;" horiz-adv-x="1000" 
d="M630 124q0 -16 -16 -16h-148q-27 0 -51 9t-42 24t-28.5 35.5t-10.5 43.5v361q0 23 10.5 43.5t28.5 35.5t42 24t51 9h53h48t34 -0.5l13 -0.5q7 0 11.5 -4.5t4.5 -10.5q0 -16 -16 -16l-174 -20q-21 -2 -35.5 -18.5t-14.5 -39.5v-365q0 -23 14.5 -39.5t35.5 -18.5l174 -20
q16 0 16 -16zM860 400q0 75 -28.5 140.5t-77 114t-114 77t-140.5 28.5t-140.5 -28.5t-114 -77t-77 -114t-28.5 -140.5t28.5 -140.5t77 -114t114 -77t140.5 -28.5t140.5 28.5t114 77t77 114t28.5 140.5zM900 400q0 -83 -31.5 -156t-85.5 -127t-127 -85.5t-156 -31.5
t-156 31.5t-127 85.5t-85.5 127t-31.5 156t31.5 156t85.5 127t127 85.5t156 31.5t156 -31.5t127 -85.5t85.5 -127t31.5 -156z" />
    <glyph glyph-name="ordfeminine" unicode="&#xaa;" horiz-adv-x="417" 
d="M257 553h-100q-23 0 -40 -15t-17 -38q-1 -30 22.5 -44.5t56.5 -13.5q32 0 55 21t23 50v40zM356 409q0 -6 -5 -6h-81q-12 0 -12 12v25q-1 -1 -11.5 -10t-29 -19.5t-37.5 -10.5q-25 0 -46.5 7.5t-38 20.5t-26 31t-9.5 40q0 20 8.5 37.5t23.5 30.5t34.5 20.5t42.5 7.5h89
l-2 44q0 17 -10 29t-26 14l-106 15q-12 0 -12 12t12 12h87q42 0 70.5 -24.5t28.5 -59.5v-201q0 -8 6 -10q1 0 8.5 -2t16 -4.5t16 -4l7.5 -1.5q3 -2 3 -5h-1z" />
    <glyph glyph-name="guillemotleft" unicode="&#xab;" horiz-adv-x="328" 
d="M260 481l5 4.5t14 -0.5q11 -5 10 -12.5t-5 -15.5l-79 -182l79 -183q4 -8 5 -16t-10 -13q-9 -5 -14 0l-5 5l-116 208l116 205v0zM150 481l5.5 4.5t13.5 -0.5q11 -5 10 -12.5t-4 -15.5l-79 -182l79 -183q4 -8 4.5 -16t-10.5 -13q-8 -5 -13.5 0l-5.5 5l-115 208l115 205v0z
" />
    <glyph glyph-name="logicalnot" unicode="&#xac;" horiz-adv-x="565" 
d="M497 360q14 0 24.5 -10t10.5 -25v-203q0 -10 -10 -10q-5 0 -9 6q0 1 -4.5 17t-11 41t-13 49t-11.5 41.5t-5 18.5q-5 11 -18 11h-413q-13 3 -13 19v45h473z" />
    <glyph glyph-name="registered" unicode="&#xae;" horiz-adv-x="893" 
d="M547 579q0 22 -14.5 38.5t-36.5 19.5h-157q-7 0 -12 -4.5t-5 -11.5l16 -166h158q21 3 35.5 19.5t14.5 38.5zM640 133q5 -5 4 -11t-6 -11q-5 -4 -11.5 -3t-11.5 6l-245 286h-32v-245q0 -10 10 -15q1 0 10.5 -2.5t21 -5.5t20.5 -5l9 -2q5 -3 5 -7q0 -8 -8 -8h-96
q-11 0 -19.5 8.5t-8.5 19.5v528q0 11 8.5 19.5t19.5 8.5l160 -1q27 0 51 -9t42 -24t28.5 -35t10.5 -43v-70q0 -23 -10.5 -43.5t-28.5 -35.5t-42 -24t-51 -9h-18l188 -266v-1zM807 400q0 75 -28.5 140.5t-77 114t-114 77t-140.5 28.5t-140.5 -28.5t-114 -77t-77 -114
t-28.5 -140.5t28.5 -140.5t77 -114t114 -77t140.5 -28.5t140.5 28.5t114 77t77 114t28.5 140.5zM847 400q0 -83 -31.5 -156t-85.5 -127t-127 -85.5t-156 -31.5t-156 31.5t-127 85.5t-85.5 127t-31.5 156t31.5 156t85.5 127t127 85.5t156 31.5t156 -31.5t127 -85.5t85.5 -127
t31.5 -156z" />
    <glyph glyph-name="macron" unicode="&#xaf;" horiz-adv-x="401" 
d="M89 816q-14 0 -24.5 10.5t-10.5 24.5t10.5 24.5t24.5 10.5h220q14 0 24.5 -10.5t10.5 -24.5t-10.5 -24.5t-24.5 -10.5h-220v0z" />
    <glyph glyph-name="macron" unicode="&#x2c9;" horiz-adv-x="401" 
d="M89 816q-14 0 -24.5 10.5t-10.5 24.5t10.5 24.5t24.5 10.5h220q14 0 24.5 -10.5t10.5 -24.5t-10.5 -24.5t-24.5 -10.5h-220v0z" />
    <glyph glyph-name="degree" unicode="&#xb0;" horiz-adv-x="360" 
d="M258 607q0 30 -23 51t-55 22q-32 -1 -55 -22t-23 -50v-11q0 -15 6 -28t16.5 -23t25 -15t30.5 -5q32 0 55 21t23 50v10zM300 588q0 -22 -9.5 -41t-26 -33.5t-38 -22.5t-46.5 -8t-46.5 8t-38 22.5t-26 33.5t-9.5 41v29q0 22 9.5 41t26 33t38 22.5t46.5 8.5t46.5 -8.5
t38 -22.5t26 -33.5t9.5 -41.5v-28v0z" />
    <glyph glyph-name="plusminus" unicode="&#xb1;" horiz-adv-x="466" 
d="M104 64q-14 0 -24.5 8t-10.5 22t10.5 21.5t24.5 7.5h314q14 0 24.5 -7.5t10.5 -21.5t-10.5 -22t-24.5 -8h-314v0zM291 416h114q20 0 34 -5.5t14 -25.5t-14 -25t-34 -5h-120l-8 -166q0 -11 -5.5 -19t-16.5 -8q-12 0 -15.5 8t-3.5 19l-1 13.5t-3 36.5t-4.5 53t-5.5 63h-106
q-20 0 -34 5t-14 25t14 25.5t34 5.5h102q-1 12 -1.5 27.5t-0.5 30.5v30v25q0 9 -4.5 16t-10.5 9q-2 1 -19 5t-37 9l-36 9l-16 4q-9 4 -9 12q0 14 15 14h151q20 0 34.5 -14t13.5 -34z" />
    <glyph glyph-name="twosuperior" unicode="&#xb2;" horiz-adv-x="325" 
d="M265 664q-6 -7 -26 -32.5t-44.5 -57l-49 -63t-40 -51t-16.5 -21.5l179 -19q12 0 12 -13q0 -12 -12 -12h-220q-9 0 -15.5 6.5t-6.5 15.5q0 10 7 15l197 257q6 10 6 23v55q0 17 -11 30t-28 15l-124 16q-5 0 -8.5 3.5t-3.5 8.5q0 13 12 13h104q21 0 40 -7t33 -19t22 -28
t8 -34v-54q0 -26 -15 -47z" />
    <glyph glyph-name="threesuperior" unicode="&#xb3;" horiz-adv-x="326" 
d="M231 569q0 17 -11.5 30.5t-28.5 15.5h-106q-9 0 -15.5 7t-6.5 16t6.5 15.5t15.5 6.5h106q17 3 28.5 16.5t11.5 30.5v53q0 18 -11.5 33t-28.5 17l-141 16q-13 0 -13 13t13 13h119q22 0 41.5 -7t34 -19.5t23 -29t8.5 -34.5v-56q0 -21 -16 -41.5t-35 -27.5q19 -7 35 -26.5
t16 -40.5v-99q0 -18 -8.5 -34.5t-23 -29t-34 -19.5t-41.5 -7h-119q-13 0 -13 13t13 13l141 16q17 2 28.5 17t11.5 33v96z" />
    <glyph glyph-name="acute" unicode="&#xb4;" horiz-adv-x="536" 
d="M199 771q-6 -3 -14.5 -4.5t-13.5 3.5t-5.5 12t4.5 12l155 116l41 -71l-167 -67v-1z" />
    <glyph glyph-name="mu" unicode="&#xb5;" horiz-adv-x="565" 
d="M95 -285q-2 -8 -13 -14t-19 -6t-20 6t-10 14l57 795q0 8 6 14t14 6t14 -6t6 -14v-326q0 -25 10 -46.5t28 -38t41.5 -26t50.5 -9.5t50.5 9.5t41.5 26t28 38t10 46.5v290q0 12 -11 18q-1 0 -13.5 3t-26.5 6.5l-26 6.5l-12 3q-6 3 -6 9q0 10 10 10h120q14 0 24.5 -10.5
t10.5 -24.5v-439q0 -13 11 -18q1 0 13.5 -3t26.5 -6.5l26 -6.5l12 -3q6 -3 6 -9q0 -10 -10 -10h-135q-8 0 -14 6t-6 14v43l-11 -11t-29.5 -23.5t-42 -23.5t-47.5 -11q-44 0 -81 14.5t-64 39.5l-20 -333v0z" />
    <glyph glyph-name="mu" unicode="&#x3bc;" horiz-adv-x="565" 
d="M95 -285q-2 -8 -13 -14t-19 -6t-20 6t-10 14l57 795q0 8 6 14t14 6t14 -6t6 -14v-326q0 -25 10 -46.5t28 -38t41.5 -26t50.5 -9.5t50.5 9.5t41.5 26t28 38t10 46.5v290q0 12 -11 18q-1 0 -13.5 3t-26.5 6.5l-26 6.5l-12 3q-6 3 -6 9q0 10 10 10h120q14 0 24.5 -10.5
t10.5 -24.5v-439q0 -13 11 -18q1 0 13.5 -3t26.5 -6.5l26 -6.5l12 -3q6 -3 6 -9q0 -10 -10 -10h-135q-8 0 -14 6t-6 14v43l-11 -11t-29.5 -23.5t-42 -23.5t-47.5 -11q-44 0 -81 14.5t-64 39.5l-20 -333v0z" />
    <glyph glyph-name="paragraph" unicode="&#xb6;" horiz-adv-x="623" 
d="M536 18q0 -8 -6 -14t-14 -6t-14 6t-6 14v35q0 36 0.5 91.5t0.5 122.5q0 68 0.5 131.5t0.5 115.5v76q0 10 2 21.5t6.5 20t12.5 13t21 1.5q14 0 25 -10.5t10 -24.5zM362 544q0 25 -10 46.5t-28 38t-41.5 26t-50.5 9.5t-50.5 -9.5t-41.5 -26t-28 -38t-10 -46.5v-1
q0 -25 10 -46.5t28 -38t41.5 -26t50.5 -9.5t50.5 9.5t41.5 26t28 38t10 46.5v1zM585 719q0 -6 -6 -9l-21 -7t-46 -15t-46.5 -15.5t-22.5 -7.5q-11 -6 -11 -18l-30 -633q0 -8 -6 -14t-14 -6t-14 6t-6 14v408l-11 -11t-29.5 -23.5t-42 -23.5t-47.5 -11q-41 0 -77.5 13.5
t-63.5 37.5t-43 56t-16 68v31q0 36 16 68t43 56t63.5 37.5t77.5 13.5q24 0 47.5 -11t42 -23.5t29.5 -23.5l11 -11v43q0 8 6 14t14 6h20t46.5 0.5t55.5 0.5h49h22q10 0 10 -10z" />
    <glyph glyph-name="periodcentered" unicode="&#xb7;" horiz-adv-x="225" 
d="M67 298q0 21 15.5 37t37.5 16q23 1 37.5 -15t14.5 -38q0 -21 -15 -36.5t-38 -15.5q-21 0 -36.5 15.5t-15.5 36.5z" />
    <glyph glyph-name="periodcentered" unicode="&#x22c5;" horiz-adv-x="225" 
d="M67 298q0 21 15.5 37t37.5 16q23 1 37.5 -15t14.5 -38q0 -21 -15 -36.5t-38 -15.5q-21 0 -36.5 15.5t-15.5 36.5z" />
    <glyph glyph-name="cedilla" unicode="&#xb8;" horiz-adv-x="554" 
d="M259 -63q14 0 22.5 -10.5t8.5 -24.5l-1 -67q0 -14 -8.5 -24.5t-22.5 -10.5h-120q-10 0 -10 10q0 6 6 9l15 3t33 6.5t33.5 6.5t17.5 3l9.5 3.5t8.5 14.5l-1 25q-1 11 -9.5 14.5l-8.5 3.5q-1 0 -10.5 3t-20 6.5t-19 6.5l-8.5 3q-6 3 -6 9v57q0 10 10 10q6 0 9 -6l9 -51h62
h1z" />
    <glyph glyph-name="onesuperior" unicode="&#xb9;" horiz-adv-x="200" 
d="M162 831l-40 -416q0 -13 -12 -13t-12 13v388q0 4 -2.5 7t-4.5 5q-1 0 -13.5 6.5t-22.5 12t-12 6.5q-4 3 -4 6q0 6 6 6h16t32.5 0.5t31.5 0.5h15q9 0 15.5 -6.5t6.5 -15.5z" />
    <glyph glyph-name="ordmasculine" unicode="&#xba;" horiz-adv-x="348" 
d="M258 607q0 30 -23 51t-55 22q-32 -1 -55 -22t-23 -50v-98q0 -15 6 -28t16.5 -23t25 -15t30.5 -5q32 0 55 21t23 50v97zM300 501q0 -22 -9.5 -41t-26 -33.5t-38 -22.5t-46.5 -8t-46.5 8t-38 22.5t-26 33.5t-9.5 41v116q0 22 9.5 41t26 33t38 22.5t46.5 8.5t46.5 -8.5
t38 -22.5t26 -33.5t9.5 -41.5v-115v0z" />
    <glyph glyph-name="guillemotright" unicode="&#xbb;" horiz-adv-x="328" 
d="M174 481l115 -205l-115 -208l-5.5 -5t-13.5 0q-11 5 -10.5 13t4.5 16l79 183l-79 182q-3 8 -4 15.5t10 12.5q8 5 13.5 0.5zM64 481l116 -205l-116 -208l-5 -5t-14 0q-11 5 -10 13t5 16l79 183l-79 182q-4 8 -5 15.5t10 12.5q9 5 14 0.5z" />
    <glyph glyph-name="onequarter" unicode="&#xbc;" horiz-adv-x="527" 
d="M423 765l-374 -823q-4 -8 -13 -14t-17 -6t-11 6t1 14q1 2 16 39.5t41.5 102.5t58.5 143t66 160.5t64.5 155t54 126.5t33.5 75q5 13 -2 18q-1 0 -16.5 3t-33.5 6.5t-32.5 6l-14.5 2.5q-8 3 -3 9q2 5 6 7.5t9 2.5h25q24 0 52 0.5t50 0.5h23q14 0 19.5 -10.5t-2.5 -24.5z
M172 783l-40 -416q0 -13 -12 -13t-12 13v388q0 4 -2.5 7t-4.5 5q-1 0 -13.5 6.5t-22.5 12t-12 6.5q-4 3 -4 6q0 6 6 6h16t32.5 0.5t31.5 0.5h15q9 0 15.5 -6.5t6.5 -15.5zM458 307v-80l31 -3q13 0 13 -13q0 -12 -13 -12h-31v-186q0 -5 -3.5 -8.5t-8.5 -3.5t-8.5 3.5
t-3.5 8.5l-19 186h-162q-9 0 -15.5 6.5t-6.5 15.5q0 7 6 18l111 208q7 9 17 9q9 0 15.5 -6.5t6.5 -15.5q0 -8 -8 -21l-92 -171l128 -12v77q0 9 6.5 15.5t15.5 6.5t15 -6.5t6 -15.5z" />
    <glyph glyph-name="onehalf" unicode="&#xbd;" horiz-adv-x="566" 
d="M423 765l-374 -823q-4 -8 -13 -14t-17 -6t-11 6t1 14q1 2 16 39.5t41.5 102.5t58.5 143t66 160.5t64.5 155t54 126.5t33.5 75q5 13 -2 18q-1 0 -16.5 3t-33.5 6.5t-32.5 6l-14.5 2.5q-8 3 -3 9q2 5 6 7.5t9 2.5h25q24 0 52 0.5t50 0.5h23q14 0 19.5 -10.5t-2.5 -24.5z
M172 783l-40 -416q0 -13 -12 -13t-12 13v388q0 4 -2.5 7t-4.5 5q-1 0 -13.5 6.5t-22.5 12t-12 6.5q-4 3 -4 6q0 6 6 6h16t32.5 0.5t31.5 0.5h15q9 0 15.5 -6.5t6.5 -15.5zM512 268q-6 -7 -26 -32.5t-44.5 -57l-49 -63t-40 -51t-16.5 -21.5l179 -19q12 0 12 -13
q0 -12 -12 -12h-220q-9 0 -15.5 6.5t-6.5 15.5q0 10 7 15l197 257q6 10 6 23v55q0 17 -11 30t-28 15l-124 16q-5 0 -8.5 3.5t-3.5 8.5q0 13 12 13h104q21 0 40 -7t33 -19t22 -28t8 -34v-54q0 -26 -15 -47z" />
    <glyph glyph-name="threequarters" unicode="&#xbe;" horiz-adv-x="630" 
d="M526 765l-374 -823q-4 -8 -13 -14t-17 -6t-11 6t1 14q1 2 16 39.5t41.5 102.5t58.5 143t66 160.5t64.5 155t54 126.5t33.5 75q5 13 -2 18q-1 0 -16.5 3t-33.5 6.5t-32.5 6l-14.5 2.5q-8 3 -3 9q2 5 6 7.5t9 2.5h25q24 0 52 0.5t50 0.5h23q14 0 19.5 -10.5t-2.5 -24.5z
M561 307v-80l31 -3q13 0 13 -13q0 -12 -13 -12h-31v-186q0 -5 -3.5 -8.5t-8.5 -3.5t-8.5 3.5t-3.5 8.5l-19 186h-162q-9 0 -15.5 6.5t-6.5 15.5q0 7 6 18l111 208q7 9 17 9q9 0 15.5 -6.5t6.5 -15.5q0 -8 -8 -21l-92 -171l128 -12v77q0 9 6.5 15.5t15.5 6.5t15 -6.5t6 -15.5
zM217 517q0 17 -11.5 30.5t-28.5 15.5h-106q-9 0 -15.5 7t-6.5 16t6.5 15.5t15.5 6.5h106q17 3 28.5 16.5t11.5 30.5v53q0 18 -11.5 33t-28.5 17l-141 16q-13 0 -13 13t13 13h119q22 0 41.5 -7t34 -19.5t23 -29t8.5 -34.5v-56q0 -21 -16 -41.5t-35 -27.5q19 -7 35 -26.5
t16 -40.5v-99q0 -18 -8.5 -34.5t-23 -29t-34 -19.5t-41.5 -7h-119q-13 0 -13 13t13 13l141 16q17 2 28.5 17t11.5 33v96z" />
    <glyph glyph-name="questiondown" unicode="&#xbf;" horiz-adv-x="435" 
d="M404 483q0 -22 -16 -37t-37 -15q-23 0 -37 15.5t-14 37.5t15 37t37 15t37 -15.5t15 -37.5zM309 267q-9 -42 -34 -68t-64 -26h-17q-34 0 -64 -11t-52.5 -30.5t-35.5 -45t-13 -54.5v-86q0 -29 13 -54.5t35.5 -44.5t52.5 -30t64 -11h165q8 0 14 6t6 14t-6 14t-14 6l-198 25
q-26 3 -44 23.5t-18 48.5v87q0 30 21.5 51.5t51.5 21.5h19q38 0 71.5 12.5t58 34.5t39 51t14.5 62v103q0 8 -6 14t-14 6t-14 -6t-6 -14l-25 -99v0z" />
    <glyph glyph-name="Agrave" unicode="&#xc0;" horiz-adv-x="499" 
d="M489 35q0 5 -2 11l-217 666q-4 11 -13 17.5t-20 6.5q-22 0 -32 -21q-4 -13 -17 -58t-30.5 -106.5t-37.5 -133.5t-39.5 -140t-35.5 -126t-25 -91t-10 -35q-2 -8 1.5 -15.5t11.5 -9.5t15.5 1.5t9.5 11.5l79 237h217l60 -186q5 -14 1 -19t-9 -7q-1 0 -13.5 -3t-26.5 -6.5
l-26 -6.5l-12 -3q-6 -3 -6 -9q0 -10 10 -10h132q14 0 24.5 10.5t10.5 24.5zM321 320h-170l86 260zM305 772l-168 67l41 71l155 -116q5 -5 4.5 -11.5t-4.5 -11.5q-5 -6 -13.5 -3.5t-14.5 4.5z" />
    <glyph glyph-name="Aacute" unicode="&#xc1;" horiz-adv-x="499" 
d="M173 771q-6 -3 -14.5 -4.5t-13.5 3.5t-5.5 12t4.5 12l155 116l41 -71l-167 -67v-1zM237 580l-86 -260h170zM489 35q0 -14 -10.5 -24.5t-24.5 -10.5h-132q-10 0 -10 10q0 6 6 9l12 3l26 6.5t26.5 6.5t13.5 3q5 2 9 7t-1 19l-60 186h-217l-79 -237q-2 -8 -9.5 -11.5
t-15.5 -1.5t-11.5 9.5t-1.5 15.5q1 2 10 35t25 91t35.5 126t39.5 140t37.5 133.5t30.5 106.5t17 58q10 21 32 21q11 0 20 -6.5t13 -17.5l217 -666q2 -6 2 -11z" />
    <glyph glyph-name="Acircumflex" unicode="&#xc2;" horiz-adv-x="499" 
d="M124 776q-6 -3 -14 -5t-13 3t-5.5 12t4.5 12l142 104l141 -105q6 -5 5.5 -10.5t-4.5 -10.5q-5 -7 -13.5 -5t-14.5 4l-113 48l-115 -48v1zM237 580l-86 -260h170zM489 35q0 -14 -10.5 -24.5t-24.5 -10.5h-132q-10 0 -10 10q0 6 6 9l12 3l26 6.5t26.5 6.5t13.5 3q5 2 9 7
t-1 19l-60 186h-217l-79 -237q-2 -8 -9.5 -11.5t-15.5 -1.5t-11.5 9.5t-1.5 15.5q1 2 10 35t25 91t35.5 126t39.5 140t37.5 133.5t30.5 106.5t17 58q10 21 32 21q11 0 20 -6.5t13 -17.5l217 -666q2 -6 2 -11z" />
    <glyph glyph-name="Atilde" unicode="&#xc3;" horiz-adv-x="499" 
d="M97 779q-5 -6 -11 -6t-11 6t-5 14t5 14l23 29q18 24 41 37.5t46 16t44.5 -7t37.5 -30.5q16 -20 37 -19.5t41 13.5l54 35q11 14 23 0q5 -6 4.5 -14t-5.5 -15l-22 -28q-19 -24 -42 -37.5t-46.5 -16t-45 6.5t-37.5 29t-36.5 19.5t-39.5 -12.5zM237 580l-86 -260h170zM489 35
q0 -14 -10.5 -24.5t-24.5 -10.5h-132q-10 0 -10 10q0 6 6 9l12 3l26 6.5t26.5 6.5t13.5 3q5 2 9 7t-1 19l-60 186h-217l-79 -237q-2 -8 -9.5 -11.5t-15.5 -1.5t-11.5 9.5t-1.5 15.5q1 2 10 35t25 91t35.5 126t39.5 140t37.5 133.5t30.5 106.5t17 58q10 21 32 21
q11 0 20 -6.5t13 -17.5l217 -666q2 -6 2 -11z" />
    <glyph glyph-name="Adieresis" unicode="&#xc4;" horiz-adv-x="499" 
d="M286 813q0 16 11.5 27t27.5 11q17 -1 28.5 -12t11.5 -27t-11.5 -27.5t-28.5 -11.5q-16 0 -27.5 11.5t-11.5 27.5v1zM115 812q0 16 11.5 27t27.5 11q17 -1 28.5 -12t11.5 -27t-11.5 -27.5t-28.5 -11.5q-16 0 -27.5 11.5t-11.5 27.5v1zM237 580l-86 -260h170zM489 35
q0 -14 -10.5 -24.5t-24.5 -10.5h-132q-10 0 -10 10q0 6 6 9l12 3l26 6.5t26.5 6.5t13.5 3q5 2 9 7t-1 19l-60 186h-217l-79 -237q-2 -8 -9.5 -11.5t-15.5 -1.5t-11.5 9.5t-1.5 15.5q1 2 10 35t25 91t35.5 126t39.5 140t37.5 133.5t30.5 106.5t17 58q10 21 32 21
q11 0 20 -6.5t13 -17.5l217 -666q2 -6 2 -11z" />
    <glyph glyph-name="Aring" unicode="&#xc5;" horiz-adv-x="499" 
d="M286 820q0 21 -15 36t-36 15t-36 -15t-16 -36t14.5 -36t36.5 -15t36 15t15 36h1zM313 820q0 -32 -23 -55t-56 -23q-32 0 -55 23t-23 55t23 55t56 23q32 0 55 -23t23 -55zM237 580l-86 -260h170zM489 35q0 -14 -10.5 -24.5t-24.5 -10.5h-132q-10 0 -10 10q0 6 6 9l12 3
l26 6.5t26.5 6.5t13.5 3q5 2 9 7t-1 19l-60 186h-217l-79 -237q-2 -8 -9.5 -11.5t-15.5 -1.5t-11.5 9.5t-1.5 15.5q1 2 10 35t25 91t35.5 126t39.5 140t37.5 133.5t30.5 106.5t17 58q10 21 32 21q11 0 20 -6.5t13 -17.5l217 -666q2 -6 2 -11z" />
    <glyph glyph-name="AE" unicode="&#xc6;" horiz-adv-x="886" 
d="M442 580l-170 -260h170v260zM517 106q0 -14 10 -23.5t25 -11.5q2 0 26 -3t63 -7.5t77.5 -9t69.5 -7.5t39 -3t14 -6t6 -14t-6 -14t-14 -6l-488 -1q-10 0 -7 10q3 6 9 9l12.5 3t28 6.5t28.5 6.5t14 3q5 2 11 7t7 19v186h-217l-158 -237q-5 -8 -14 -11.5t-15 -1.5
q-8 2 -9 9.5t4 15.5l16.5 27t43.5 71.5t62 102t72 118.5t74 121.5t68 111t52.5 86t29.5 47.5q18 21 40 21h3q3 0 12.5 0.5t29.5 0.5h58h93q57 0 140 -1q8 0 14 -6t6 -14t-6 -14t-14 -6t-41 -3t-74.5 -7.5t-83.5 -9t-68 -7.5t-28 -3q-14 0 -25.5 -10.5t-9.5 -24.5l20 -192
h225q14 0 24.5 -10.5t10.5 -24.5v-120q0 -10 -10 -10q-6 0 -9 6l-3 12l-6.5 26t-6.5 26.5t-3 13.5q-6 11 -18 11h-204v-258z" />
    <glyph glyph-name="Ccedilla" unicode="&#xc7;" horiz-adv-x="440" 
d="M299 -63q14 0 22.5 -10.5t8.5 -24.5l-1 -67q0 -14 -8.5 -24.5t-22.5 -10.5h-120q-10 0 -10 10q0 6 6 9l15 3t33 6.5t33.5 6.5t17.5 3l9.5 3.5t8.5 14.5l-1 25q-1 11 -9.5 14.5l-8.5 3.5q-1 0 -10.5 3t-20 6.5t-19 6.5l-8.5 3q-6 3 -6 9v57q0 10 10 10q6 0 9 -6l9 -51h62
h1zM60 591q0 29 13 54.5t35.5 44.5t52.5 30t64 11h185q8 0 14 -6t6 -14t-6 -14t-14 -6l-218 -25q-26 -3 -44 -23.5t-18 -48.5v-457q0 -28 18 -48.5t44 -23.5l218 -25q8 0 14 -6t6 -14t-6 -14t-14 -6h-185q-34 0 -64 11t-52.5 30t-35.5 44.5t-13 54.5v451v0z" />
    <glyph glyph-name="Egrave" unicode="&#xc8;" 
d="M130 363h204q12 0 18 -11q0 -1 3 -13.5t6.5 -26.5l6.5 -26l3 -12q3 -6 9 -6q10 0 10 10v120q0 14 -10.5 24.5t-24.5 10.5h-225l-20 192q-2 14 9.5 24.5t25.5 10.5q2 0 28 3t68 7.5t83.5 9t74.5 7.5t41 3t14 6t6 14t-6 14t-14 6h-345q-14 0 -24.5 -10.5t-10.5 -24.5v-660
q0 -14 10.5 -24.5t24.5 -10.5h345q8 0 14 6t6 14t-6 14t-14 6t-39 3t-69.5 7.5t-77.5 9t-63 7.5t-26 3q-15 2 -25 11.5t-10 23.5v258zM321 772l-168 67l41 71l155 -116q5 -5 4.5 -11.5t-4.5 -11.5q-5 -6 -13.5 -3.5t-14.5 4.5z" />
    <glyph glyph-name="Eacute" unicode="&#xc9;" 
d="M193 769q-6 -3 -14.5 -4.5t-13.5 3.5t-5.5 12t4.5 12l155 116l41 -71l-167 -67v-1zM130 105q0 -14 10 -23.5t25 -11.5q2 0 26 -3t63 -7.5t77.5 -9t69.5 -7.5t39 -3t14 -6t6 -14t-6 -14t-14 -6h-345q-14 0 -24.5 10.5t-10.5 24.5v660q0 14 10.5 24.5t24.5 10.5h345
q8 0 14 -6t6 -14t-6 -14t-14 -6t-41 -3t-74.5 -7.5t-83.5 -9t-68 -7.5t-28 -3q-14 0 -25.5 -10.5t-9.5 -24.5l20 -192h225q14 0 24.5 -10.5t10.5 -24.5v-120q0 -10 -10 -10q-6 0 -9 6l-3 12l-6.5 26t-6.5 26.5t-3 13.5q-6 11 -18 11h-204v-258z" />
    <glyph glyph-name="Ecircumflex" unicode="&#xca;" 
d="M151 776q-6 -3 -14 -5t-13 3t-5.5 12t4.5 12l142 104l141 -105q6 -5 5.5 -10.5t-4.5 -10.5q-5 -7 -13.5 -5t-14.5 4l-113 48l-115 -48v1zM130 105q0 -14 10 -23.5t25 -11.5q2 0 26 -3t63 -7.5t77.5 -9t69.5 -7.5t39 -3t14 -6t6 -14t-6 -14t-14 -6h-345q-14 0 -24.5 10.5
t-10.5 24.5v660q0 14 10.5 24.5t24.5 10.5h345q8 0 14 -6t6 -14t-6 -14t-14 -6t-41 -3t-74.5 -7.5t-83.5 -9t-68 -7.5t-28 -3q-14 0 -25.5 -10.5t-9.5 -24.5l20 -192h225q14 0 24.5 -10.5t10.5 -24.5v-120q0 -10 -10 -10q-6 0 -9 6l-3 12l-6.5 26t-6.5 26.5t-3 13.5
q-6 11 -18 11h-204v-258z" />
    <glyph glyph-name="Edieresis" unicode="&#xcb;" 
d="M306 813q0 16 11.5 27t27.5 11q17 -1 28.5 -12t11.5 -27t-11.5 -27.5t-28.5 -11.5q-16 0 -27.5 11.5t-11.5 27.5v1zM135 812q0 16 11.5 27t27.5 11q17 -1 28.5 -12t11.5 -27t-11.5 -27.5t-28.5 -11.5q-16 0 -27.5 11.5t-11.5 27.5v1zM130 105q0 -14 10 -23.5t25 -11.5
q2 0 26 -3t63 -7.5t77.5 -9t69.5 -7.5t39 -3t14 -6t6 -14t-6 -14t-14 -6h-345q-14 0 -24.5 10.5t-10.5 24.5v660q0 14 10.5 24.5t24.5 10.5h345q8 0 14 -6t6 -14t-6 -14t-14 -6t-41 -3t-74.5 -7.5t-83.5 -9t-68 -7.5t-28 -3q-14 0 -25.5 -10.5t-9.5 -24.5l20 -192h225
q14 0 24.5 -10.5t10.5 -24.5v-120q0 -10 -10 -10q-6 0 -9 6l-3 12l-6.5 26t-6.5 26.5t-3 13.5q-6 11 -18 11h-204v-258z" />
    <glyph glyph-name="Igrave" unicode="&#xcc;" horiz-adv-x="235" 
d="M191 695l-46 -675q0 -8 -6 -14t-14 -6t-14 6t-6 14v654q0 12 -11 18q-1 0 -13.5 3t-26.5 6.5l-26 6.5l-12 3q-6 3 -6 9q0 10 10 10h136q14 0 25 -10.5t10 -24.5zM189 772l-168 67l41 71l155 -116q5 -5 4.5 -11.5t-4.5 -11.5q-5 -6 -13.5 -3.5t-14.5 4.5z" />
    <glyph glyph-name="Iacute" unicode="&#xcd;" horiz-adv-x="235" 
d="M63 771q-6 -3 -14.5 -4.5t-13.5 3.5t-5.5 12t4.5 12l155 116l41 -71l-167 -67v-1zM191 695q1 14 -10 24.5t-25 10.5h-136q-10 0 -10 -10q0 -6 6 -9l12 -3l26 -6.5t26.5 -6.5t13.5 -3q11 -6 11 -18v-654q0 -8 6 -14t14 -6t14 6t6 14l46 675v0z" />
    <glyph glyph-name="Icircumflex" unicode="&#xce;" horiz-adv-x="235" 
d="M38 776q-6 -3 -14 -5t-13 3t-5.5 12t4.5 12l142 104l141 -105q6 -5 5.5 -10.5t-4.5 -10.5q-5 -7 -13.5 -5t-14.5 4l-113 48l-115 -48v1zM191 695q1 14 -10 24.5t-25 10.5h-136q-10 0 -10 -10q0 -6 6 -9l12 -3l26 -6.5t26.5 -6.5t13.5 -3q11 -6 11 -18v-654q0 -8 6 -14
t14 -6t14 6t6 14l46 675v0z" />
    <glyph glyph-name="Idieresis" unicode="&#xcf;" horiz-adv-x="235" 
d="M181 813q0 16 11.5 27t27.5 11q17 -1 28.5 -12t11.5 -27t-11.5 -27.5t-28.5 -11.5q-16 0 -27.5 11.5t-11.5 27.5v1zM10 812q0 16 11.5 27t27.5 11q17 -1 28.5 -12t11.5 -27t-11.5 -27.5t-28.5 -11.5q-16 0 -27.5 11.5t-11.5 27.5v1zM191 695q1 14 -10 24.5t-25 10.5h-136
q-10 0 -10 -10q0 -6 6 -9l12 -3l26 -6.5t26.5 -6.5t13.5 -3q11 -6 11 -18v-654q0 -8 6 -14t14 -6t14 6t6 14l46 675v0z" />
    <glyph glyph-name="Eth" unicode="&#xd0;" horiz-adv-x="627" 
d="M497 540q0 25 -13.5 46.5t-34.5 38t-48 26t-54 9.5h-150q-8 0 -14 -6t-6 -14l0.5 -19.5t2 -52.5t3 -75.5t3.5 -88.5h81q14 0 24.5 -10.5t10.5 -24.5t-10.5 -24.5t-24.5 -10.5h-78q1 -42 2.5 -81t3 -72t2 -57t0.5 -34q0 -8 6 -14t14 -6h130q27 0 54 9.5t48 26t34.5 38
t13.5 46.5v350zM47 334q-14 0 -24.5 10.5t-10.5 24.5t10.5 24.5t24.5 10.5h80v291q0 14 10.5 24.5t24.5 10.5h185q41 0 80.5 -13.5t70.5 -37.5t50 -56t19 -68v-380q0 -36 -19 -68t-50 -56t-70.5 -37.5t-80.5 -13.5h-185q-14 0 -24.5 10.5t-10.5 24.5v299h-80v0z" />
    <glyph glyph-name="Ntilde" unicode="&#xd1;" horiz-adv-x="562" 
d="M117 779q-5 -6 -11 -6t-11 6t-5 14t5 14l23 29q18 24 41 37.5t46 16t44.5 -7t37.5 -30.5q16 -20 37 -19.5t41 13.5l54 35q11 14 23 0q5 -6 4.5 -14t-5.5 -15l-22 -28q-19 -24 -42 -37.5t-46.5 -16t-45 6.5t-37.5 29t-36.5 19.5t-39.5 -12.5zM502 35q1 -14 -10 -24.5
t-25 -10.5q-11 0 -19 6.5t-13 15.5l-305 536v-502q0 -13 11 -18q1 0 13.5 -3t26.5 -6.5l26 -6.5l12 -3q6 -3 6 -9q0 -10 -10 -10h-120q-14 0 -24.5 10.5t-10.5 24.5v660q0 14 10.5 24.5t25.5 10.5q19 0 31 -20l305 -550v550q0 8 6 14t14 6t14 -6t6 -14l30 -675v0z" />
    <glyph glyph-name="Ograve" unicode="&#xd2;" horiz-adv-x="560" 
d="M500 169v392q0 36 -19 68t-50 56t-70.5 37.5t-80.5 13.5t-80.5 -13.5t-70.5 -37.5t-50 -56t-19 -68v-392q0 -36 19 -68t50 -56t70.5 -37.5t80.5 -13.5t80.5 13.5t70.5 37.5t50 56t19 68zM430 184q0 -25 -13.5 -46.5t-34.5 -38t-48 -26t-54 -9.5t-54 9.5t-48 26t-34.5 38
t-13.5 46.5v362q0 25 13.5 46.5t34.5 38t48 26t54 9.5t54 -9.5t48 -26t34.5 -38t13.5 -46.5v-362zM348 772l-168 67l41 71l155 -116q5 -5 4.5 -11.5t-4.5 -11.5q-5 -6 -13.5 -3.5t-14.5 4.5z" />
    <glyph glyph-name="Oacute" unicode="&#xd3;" horiz-adv-x="560" 
d="M216 771q-6 -3 -14.5 -4.5t-13.5 3.5t-5.5 12t4.5 12l155 116l41 -71l-167 -67v-1zM430 546q0 25 -13.5 46.5t-34.5 38t-48 26t-54 9.5t-54 -9.5t-48 -26t-34.5 -38t-13.5 -46.5v-362q0 -25 13.5 -46.5t34.5 -38t48 -26t54 -9.5t54 9.5t48 26t34.5 38t13.5 46.5v362z
M500 169q0 -36 -19 -68t-50 -56t-70.5 -37.5t-80.5 -13.5t-80.5 13.5t-70.5 37.5t-50 56t-19 68v392q0 36 19 68t50 56t70.5 37.5t80.5 13.5t80.5 -13.5t70.5 -37.5t50 -56t19 -68v-392v0z" />
    <glyph glyph-name="Ocircumflex" unicode="&#xd4;" horiz-adv-x="560" 
d="M174 776q-6 -3 -14 -5t-13 3t-5.5 12t4.5 12l142 104l141 -105q6 -5 5.5 -10.5t-4.5 -10.5q-5 -7 -13.5 -5t-14.5 4l-113 48l-115 -48v1zM430 546q0 25 -13.5 46.5t-34.5 38t-48 26t-54 9.5t-54 -9.5t-48 -26t-34.5 -38t-13.5 -46.5v-362q0 -25 13.5 -46.5t34.5 -38
t48 -26t54 -9.5t54 9.5t48 26t34.5 38t13.5 46.5v362zM500 169q0 -36 -19 -68t-50 -56t-70.5 -37.5t-80.5 -13.5t-80.5 13.5t-70.5 37.5t-50 56t-19 68v392q0 36 19 68t50 56t70.5 37.5t80.5 13.5t80.5 -13.5t70.5 -37.5t50 -56t19 -68v-392v0z" />
    <glyph glyph-name="Otilde" unicode="&#xd5;" horiz-adv-x="560" 
d="M147 779q-5 -6 -11 -6t-11 6t-5 14t5 14l23 29q18 24 41 37.5t46 16t44.5 -7t37.5 -30.5q16 -20 37 -19.5t41 13.5l54 35q11 14 23 0q5 -6 4.5 -14t-5.5 -15l-22 -28q-19 -24 -42 -37.5t-46.5 -16t-45 6.5t-37.5 29t-36.5 19.5t-39.5 -12.5zM430 546q0 25 -13.5 46.5
t-34.5 38t-48 26t-54 9.5t-54 -9.5t-48 -26t-34.5 -38t-13.5 -46.5v-362q0 -25 13.5 -46.5t34.5 -38t48 -26t54 -9.5t54 9.5t48 26t34.5 38t13.5 46.5v362zM500 169q0 -36 -19 -68t-50 -56t-70.5 -37.5t-80.5 -13.5t-80.5 13.5t-70.5 37.5t-50 56t-19 68v392q0 36 19 68
t50 56t70.5 37.5t80.5 13.5t80.5 -13.5t70.5 -37.5t50 -56t19 -68v-392v0z" />
    <glyph glyph-name="Odieresis" unicode="&#xd6;" horiz-adv-x="560" 
d="M326 813q0 16 11.5 27t27.5 11q17 -1 28.5 -12t11.5 -27t-11.5 -27.5t-28.5 -11.5q-16 0 -27.5 11.5t-11.5 27.5v1zM155 812q0 16 11.5 27t27.5 11q17 -1 28.5 -12t11.5 -27t-11.5 -27.5t-28.5 -11.5q-16 0 -27.5 11.5t-11.5 27.5v1zM430 546q0 25 -13.5 46.5t-34.5 38
t-48 26t-54 9.5t-54 -9.5t-48 -26t-34.5 -38t-13.5 -46.5v-362q0 -25 13.5 -46.5t34.5 -38t48 -26t54 -9.5t54 9.5t48 26t34.5 38t13.5 46.5v362zM500 169q0 -36 -19 -68t-50 -56t-70.5 -37.5t-80.5 -13.5t-80.5 13.5t-70.5 37.5t-50 56t-19 68v392q0 36 19 68t50 56
t70.5 37.5t80.5 13.5t80.5 -13.5t70.5 -37.5t50 -56t19 -68v-392v0z" />
    <glyph glyph-name="multiply" unicode="&#xd7;" horiz-adv-x="350" 
d="M143 278l-85 106q-10 11 -7.5 25.5t13.5 23.5q11 8 26 6.5t23 -12.5l65 -97l63 94q8 11 23 12.5t26 -6.5q11 -9 13.5 -23.5t-7.5 -25.5l-84 -103l73 -108l1 1q5 -7 4 -16t-8 -16q-6 -5 -15 -3.5t-15 8.5l-74 91l-76 -94q-6 -7 -15 -8.5t-15 3.5q-7 7 -8 16t4 16l1 -1z
" />
    <glyph glyph-name="Oslash" unicode="&#xd8;" horiz-adv-x="560" 
d="M130 184q0 -27 16 -51q24 58 51.5 126t56 137t55.5 134t49 116q-18 9 -38 14.5t-40 5.5q-27 0 -54 -9.5t-48 -26t-34.5 -38t-13.5 -46.5v-362v0zM430 546q0 31 -22 58l-230 -505q22 -17 48.5 -26t53.5 -9t54 9.5t48 26t34.5 38t13.5 46.5v362zM441 676q27 -23 43 -52.5
t16 -62.5v-392q0 -36 -19 -68t-50 -56t-70.5 -37.5t-80.5 -13.5q-35 0 -69 10t-63 27l-34 -75q-4 -8 -13 -14t-17 -6t-11 6t1 14l11 27.5t30 72.5q-26 23 -40.5 52t-14.5 61v392q0 36 19 68t50 56t70.5 37.5t80.5 13.5q28 0 55 -6.5t51 -17.5q7 15 12.5 26.5t9.5 19.5
q5 13 -2 18q-1 0 -16.5 3t-33.5 6.5t-32.5 6l-14.5 2.5q-8 3 -3 9q2 5 6 7.5t9 2.5h25q24 0 52 0.5t50 0.5h23q14 0 19.5 -10.5t-2.5 -24.5z" />
    <glyph glyph-name="Ugrave" unicode="&#xd9;" horiz-adv-x="560" 
d="M430 184v490q0 12 -11 18q-1 0 -13.5 3t-26.5 6.5l-26 6.5l-12 3q-6 3 -6 9q0 10 10 10h120q14 0 24.5 -10.5t10.5 -24.5v-526q0 -36 -19 -68t-50 -56t-70.5 -37.5t-80.5 -13.5t-80.5 13.5t-70.5 37.5t-50 56t-19 68v541q0 8 6 14t14 6t13.5 -6t6.5 -14q0 -1 1.5 -25.5
t4.5 -67t6 -93.5t6 -105.5t6 -101.5t4.5 -83t1.5 -50q0 -25 13.5 -46.5t34.5 -38t48 -26t54 -9.5t54 9.5t48 26t34.5 38t13.5 46.5zM331 773l-168 67l41 71l155 -116q5 -5 4.5 -11.5t-4.5 -11.5q-5 -6 -13.5 -3.5t-14.5 4.5z" />
    <glyph glyph-name="Uacute" unicode="&#xda;" horiz-adv-x="560" 
d="M215 771q-6 -3 -14.5 -4.5t-13.5 3.5t-5.5 12t4.5 12l155 116l41 -71l-167 -67v-1zM430 184q0 -25 -13.5 -46.5t-34.5 -38t-48 -26t-54 -9.5t-54 9.5t-48 26t-34.5 38t-13.5 46.5q0 14 -1.5 50t-4.5 83t-6 101.5t-6 105.5t-6 93.5t-4.5 67t-1.5 25.5q-1 8 -6.5 14
t-13.5 6t-14 -6t-6 -14v-541q0 -36 19 -68t50 -56t70.5 -37.5t80.5 -13.5t80.5 13.5t70.5 37.5t50 56t19 68v526q0 14 -10.5 24.5t-24.5 10.5h-120q-10 0 -10 -10q0 -6 6 -9l12 -3l26 -6.5t26.5 -6.5t13.5 -3q11 -6 11 -18v-490v0z" />
    <glyph glyph-name="Ucircumflex" unicode="&#xdb;" horiz-adv-x="560" 
d="M154 776q-6 -3 -14 -5t-13 3t-5.5 12t4.5 12l142 104l141 -105q6 -5 5.5 -10.5t-4.5 -10.5q-5 -7 -13.5 -5t-14.5 4l-113 48l-115 -48v1zM430 184q0 -25 -13.5 -46.5t-34.5 -38t-48 -26t-54 -9.5t-54 9.5t-48 26t-34.5 38t-13.5 46.5q0 14 -1.5 50t-4.5 83t-6 101.5
t-6 105.5t-6 93.5t-4.5 67t-1.5 25.5q-1 8 -6.5 14t-13.5 6t-14 -6t-6 -14v-541q0 -36 19 -68t50 -56t70.5 -37.5t80.5 -13.5t80.5 13.5t70.5 37.5t50 56t19 68v526q0 14 -10.5 24.5t-24.5 10.5h-120q-10 0 -10 -10q0 -6 6 -9l12 -3l26 -6.5t26.5 -6.5t13.5 -3q11 -6 11 -18
v-490v0z" />
    <glyph glyph-name="Udieresis" unicode="&#xdc;" horiz-adv-x="560" 
d="M326 813q0 16 11.5 27t27.5 11q17 -1 28.5 -12t11.5 -27t-11.5 -27.5t-28.5 -11.5q-16 0 -27.5 11.5t-11.5 27.5v1zM155 812q0 16 11.5 27t27.5 11q17 -1 28.5 -12t11.5 -27t-11.5 -27.5t-28.5 -11.5q-16 0 -27.5 11.5t-11.5 27.5v1zM430 184q0 -25 -13.5 -46.5
t-34.5 -38t-48 -26t-54 -9.5t-54 9.5t-48 26t-34.5 38t-13.5 46.5q0 14 -1.5 50t-4.5 83t-6 101.5t-6 105.5t-6 93.5t-4.5 67t-1.5 25.5q-1 8 -6.5 14t-13.5 6t-14 -6t-6 -14v-541q0 -36 19 -68t50 -56t70.5 -37.5t80.5 -13.5t80.5 13.5t70.5 37.5t50 56t19 68v526
q0 14 -10.5 24.5t-24.5 10.5h-120q-10 0 -10 -10q0 -6 6 -9l12 -3l26 -6.5t26.5 -6.5t13.5 -3q11 -6 11 -18v-490v0z" />
    <glyph glyph-name="Yacute" unicode="&#xdd;" horiz-adv-x="459" 
d="M156 770q-6 -3 -14.5 -4.5t-13.5 3.5t-5.5 12t4.5 12l155 116l41 -71l-167 -67v-1zM447 684q2 6 2 11q0 14 -10 24.5t-25 10.5h-132q-10 0 -10 -10q0 -5 6 -9l12 -3l26 -6.5t26.5 -6.5t13.5 -3q5 -2 9.5 -7t-1.5 -19l-141 -326l-174 377q-4 8 -11 11.5t-16 1.5
q-8 -2 -11.5 -9.5t-0.5 -15.5l11.5 -31.5t29 -79.5t38 -106t40 -111.5t34 -95t19.5 -57.5v-190q0 -14 10.5 -24t24.5 -10q15 0 25 10.5t10 24.5v187z" />
    <glyph glyph-name="Thorn" unicode="&#xde;" horiz-adv-x="565" 
d="M59 10q0 6 5 9l12 3t26.5 6.5t26.5 6.5t13 3q12 5 12 18v761q0 14 10 24.5t25 10.5h120q10 0 10 -10q0 -5 -6 -9l-12 -3t-26.5 -6.5t-26.5 -6.5t-13 -3q-11 -5 -11 -18v-179l11 11t29.5 23.5t42 23.5t47.5 11q41 0 77.5 -13.5t63.5 -37.5t43 -56t16 -68v-192
q0 -36 -16 -68t-43 -56t-63.5 -37.5t-77.5 -13.5q-24 0 -47.5 11t-42 23.5t-29.5 23.5l-11 11v-193q0 -8 -6 -14t-14 -6h-135q-10 0 -10 10zM224 334q0 -25 10 -46.5t28 -38t41.5 -26t50.5 -9.5t50.5 9.5t41 26t28 38t10.5 46.5v162q0 25 -10.5 46.5t-28 38t-41 26
t-50.5 9.5t-50.5 -9.5t-41.5 -26t-28 -38t-10 -46.5v-162z" />
    <glyph glyph-name="germandbls" unicode="&#xdf;" horiz-adv-x="542" 
d="M438 173q0 22 -9.5 41.5t-25.5 35t-37 26.5t-44 15h-91q-14 0 -24.5 10.5t-10.5 24.5q2 13 6 20.5t10 10.5t16 3.5t24 0.5h129q8 0 14 6t6 14v159q0 25 -12 46.5t-31.5 38t-44.5 26t-52 9.5t-52.5 -9.5t-45 -26t-31 -38t-11.5 -46.5q0 -43 -4 -258t-26 -594q0 -8 -6 -14
t-14 -6t-14 6t-6 14v867q0 36 17.5 68t46.5 56t67 37.5t79 13.5t79 -13.5t67 -37.5t46.5 -56t17.5 -68v-169q0 -5 -1 -15.5t-4.5 -21.5t-11.5 -19t-22 -7q16 -9 29.5 -25t24 -35.5t16.5 -39.5t6 -35v-152q0 -14 -10.5 -24.5t-24.5 -10.5h-257q-14 0 -24.5 10.5t-10.5 24.5
v120q0 10 10 10q6 0 9 -6l3 -12l6.5 -26t6.5 -26.5t3 -13.5q5 -11 18 -11h181q8 0 14 6t6 14v82v0z" />
    <glyph glyph-name="agrave" unicode="&#xe0;" horiz-adv-x="565" 
d="M555 10q0 6 -6 9l-12 3l-26 6.5t-26.5 6.5t-13.5 3q-11 5 -11 18v334q0 29 -13 54.5t-35.5 44.5t-52.5 30t-64 11h-145q-8 0 -14 -6t-6 -14t6 -14t14 -6l178 -25q26 -4 44 -24t18 -48v-73h-147q-38 0 -71.5 -12.5t-58 -34.5t-39 -51t-14.5 -62q0 -36 16 -66.5t43 -52.5
t63.5 -34.5t77.5 -12.5q24 0 47.5 11t42 23.5t29.5 23.5l11 11v-43q0 -8 6 -14t14 -6h135q10 0 10 10zM390 184q0 -25 -10 -46.5t-28 -38t-41.5 -26t-50.5 -9.5t-50.5 6t-41.5 18t-28 30t-10 43q0 19 7.5 35.5t20 28.5t29.5 18.5t36 6.5h167v-66zM327 572l-168 67l41 71
l155 -116q5 -5 4.5 -11.5t-4.5 -11.5q-5 -6 -13.5 -3.5t-14.5 4.5z" />
    <glyph glyph-name="aacute" unicode="&#xe1;" horiz-adv-x="565" 
d="M194 571q-6 -3 -14.5 -4.5t-13.5 3.5t-5.5 12t4.5 12l155 116l41 -71l-167 -67v-1zM390 250h-167q-19 0 -36 -6.5t-29.5 -18.5t-20 -28.5t-7.5 -35.5q0 -25 10 -43t28 -30t41.5 -18t50.5 -6t50.5 9.5t41.5 26t28 38t10 46.5v66zM555 10q0 -10 -10 -10h-135q-8 0 -14 6
t-6 14v43l-11 -11t-29.5 -23.5t-42 -23.5t-47.5 -11q-41 0 -77.5 12.5t-63.5 34.5t-43 52.5t-16 66.5q0 33 14.5 62t39 51t58 34.5t71.5 12.5h147v73q0 28 -18 48t-44 24l-178 25q-8 0 -14 6t-6 14t6 14t14 6h145q34 0 64 -11t52.5 -30t35.5 -44.5t13 -54.5v-334
q0 -13 11 -18q1 0 13.5 -3t26.5 -6.5l26 -6.5l12 -3q6 -3 6 -9z" />
    <glyph glyph-name="acircumflex" unicode="&#xe2;" horiz-adv-x="565" 
d="M154 576q-6 -3 -14 -5t-13 3t-5.5 12t4.5 12l142 104l141 -105q6 -5 5.5 -10.5t-4.5 -10.5q-5 -7 -13.5 -5t-14.5 4l-113 48l-115 -48v1zM390 250h-167q-19 0 -36 -6.5t-29.5 -18.5t-20 -28.5t-7.5 -35.5q0 -25 10 -43t28 -30t41.5 -18t50.5 -6t50.5 9.5t41.5 26t28 38
t10 46.5v66zM555 10q0 -10 -10 -10h-135q-8 0 -14 6t-6 14v43l-11 -11t-29.5 -23.5t-42 -23.5t-47.5 -11q-41 0 -77.5 12.5t-63.5 34.5t-43 52.5t-16 66.5q0 33 14.5 62t39 51t58 34.5t71.5 12.5h147v73q0 28 -18 48t-44 24l-178 25q-8 0 -14 6t-6 14t6 14t14 6h145
q34 0 64 -11t52.5 -30t35.5 -44.5t13 -54.5v-334q0 -13 11 -18q1 0 13.5 -3t26.5 -6.5l26 -6.5l12 -3q6 -3 6 -9z" />
    <glyph glyph-name="atilde" unicode="&#xe3;" horiz-adv-x="565" 
d="M127 579q-5 -6 -11 -6t-11 6t-5 14t5 14l23 29q18 24 41 37.5t46 16t44.5 -7t37.5 -30.5q16 -20 37 -19.5t41 13.5l54 35q11 14 23 0q5 -6 4.5 -14t-5.5 -15l-22 -28q-19 -24 -42 -37.5t-46.5 -16t-45 6.5t-37.5 29t-36.5 19.5t-39.5 -12.5zM390 250h-167q-19 0 -36 -6.5
t-29.5 -18.5t-20 -28.5t-7.5 -35.5q0 -25 10 -43t28 -30t41.5 -18t50.5 -6t50.5 9.5t41.5 26t28 38t10 46.5v66zM555 10q0 -10 -10 -10h-135q-8 0 -14 6t-6 14v43l-11 -11t-29.5 -23.5t-42 -23.5t-47.5 -11q-41 0 -77.5 12.5t-63.5 34.5t-43 52.5t-16 66.5q0 33 14.5 62
t39 51t58 34.5t71.5 12.5h147v73q0 28 -18 48t-44 24l-178 25q-8 0 -14 6t-6 14t6 14t14 6h145q34 0 64 -11t52.5 -30t35.5 -44.5t13 -54.5v-334q0 -13 11 -18q1 0 13.5 -3t26.5 -6.5l26 -6.5l12 -3q6 -3 6 -9z" />
    <glyph glyph-name="adieresis" unicode="&#xe4;" horiz-adv-x="565" 
d="M326 613q0 16 11.5 27t27.5 11q17 -1 28.5 -12t11.5 -27t-11.5 -27.5t-28.5 -11.5q-16 0 -27.5 11.5t-11.5 27.5v1zM155 612q0 16 11.5 27t27.5 11q17 -1 28.5 -12t11.5 -27t-11.5 -27.5t-28.5 -11.5q-16 0 -27.5 11.5t-11.5 27.5v1zM390 250h-167q-19 0 -36 -6.5
t-29.5 -18.5t-20 -28.5t-7.5 -35.5q0 -25 10 -43t28 -30t41.5 -18t50.5 -6t50.5 9.5t41.5 26t28 38t10 46.5v66zM555 10q0 -10 -10 -10h-135q-8 0 -14 6t-6 14v43l-11 -11t-29.5 -23.5t-42 -23.5t-47.5 -11q-41 0 -77.5 12.5t-63.5 34.5t-43 52.5t-16 66.5q0 33 14.5 62
t39 51t58 34.5t71.5 12.5h147v73q0 28 -18 48t-44 24l-178 25q-8 0 -14 6t-6 14t6 14t14 6h145q34 0 64 -11t52.5 -30t35.5 -44.5t13 -54.5v-334q0 -13 11 -18q1 0 13.5 -3t26.5 -6.5l26 -6.5l12 -3q6 -3 6 -9z" />
    <glyph glyph-name="aring" unicode="&#xe5;" horiz-adv-x="565" 
d="M336 650q0 21 -15 36t-36 15t-36 -15t-16 -36t14.5 -36t36.5 -15t36 15t15 36h1zM363 650q0 -32 -23 -55t-56 -23q-32 0 -55 23t-23 55t23 55t56 23q32 0 55 -23t23 -55zM390 250h-167q-19 0 -36 -6.5t-29.5 -18.5t-20 -28.5t-7.5 -35.5q0 -25 10 -43t28 -30t41.5 -18
t50.5 -6t50.5 9.5t41.5 26t28 38t10 46.5v66zM555 10q0 -10 -10 -10h-135q-8 0 -14 6t-6 14v43l-11 -11t-29.5 -23.5t-42 -23.5t-47.5 -11q-41 0 -77.5 12.5t-63.5 34.5t-43 52.5t-16 66.5q0 33 14.5 62t39 51t58 34.5t71.5 12.5h147v73q0 28 -18 48t-44 24l-178 25
q-8 0 -14 6t-6 14t6 14t14 6h145q34 0 64 -11t52.5 -30t35.5 -44.5t13 -54.5v-334q0 -13 11 -18q1 0 13.5 -3t26.5 -6.5l26 -6.5l12 -3q6 -3 6 -9z" />
    <glyph glyph-name="ae" unicode="&#xe6;" horiz-adv-x="773" 
d="M677 345q0 25 -10 46.5t-28 38t-41.5 26t-50.5 9.5q-26 0 -49.5 -9t-41 -25t-28 -36.5t-11.5 -44.5v-61l260 25v31zM347 250h-167q-19 0 -36 -6.5t-29.5 -18.5t-20 -28.5t-7.5 -35.5q0 -25 10 -43t28 -30t41.5 -18t50.5 -6t50.5 9.5t41.5 26t28 38t10 46.5v66zM747 284
q0 -14 -10.5 -24.5t-24.5 -10.5h-295v-113q0 -28 18 -48t44 -24l178 -25q8 0 14 -6t6 -14t-6 -14t-14 -6l-207 1q-19 0 -37 6.5t-32.5 16.5t-23.5 21t-10 19l-11 -11t-29.5 -23.5t-42 -23.5t-47.5 -11q-41 0 -77.5 12.5t-63.5 34.5t-43 52.5t-16 66.5q0 33 14.5 62t39 51
t58 34.5t71.5 12.5h147v73q0 28 -18 48t-44 24l-178 25q-8 0 -14 6t-6 14t6 14t14 6h145q43 0 79 -17t58 -46q28 31 69 49.5t89 18.5q42 0 78.5 -13.5t63.5 -37.5t42.5 -56t15.5 -68v-76v0z" />
    <glyph glyph-name="ccedilla" unicode="&#xe7;" horiz-adv-x="420" 
d="M289 -63q14 0 22.5 -10.5t8.5 -24.5l-1 -67q0 -14 -8.5 -24.5t-22.5 -10.5h-120q-10 0 -10 10q0 6 6 9l15 3t33 6.5t33.5 6.5t17.5 3l9.5 3.5t8.5 14.5l-1 25q-1 11 -9.5 14.5l-8.5 3.5q-1 0 -10.5 3t-20 6.5t-19 6.5l-8.5 3q-6 3 -6 9v57q0 10 10 10q6 0 9 -6l9 -51h62
h1zM60 390q0 29 13 54.5t35 44.5t52 30t65 11h145q8 0 14 -6t6 -14t-6 -14t-14 -6l-178 -25q-27 -4 -44.5 -24t-17.5 -48v-256q0 -28 17.5 -48t44.5 -24l178 -25q8 0 14 -6t6 -14t-6 -14t-14 -6h-145q-35 0 -65 11t-52 30t-35 44.5t-13 54.5v250v0z" />
    <glyph glyph-name="egrave" unicode="&#xe8;" 
d="M460 285v76q0 36 -15.5 68t-42.5 56t-63.5 37.5t-78.5 13.5q-41 0 -77.5 -13.5t-63.5 -37.5t-43 -56t-16 -68v-221q0 -29 13 -54.5t35.5 -44.5t52.5 -30t64 -11h145q8 0 14 6t6 14t-6 14t-14 6l-178 25q-26 4 -44 24t-18 48v113h295q14 0 24.5 10.5t10.5 24.5zM390 315
l-260 -25v56q0 25 10 46.5t28 38t41.5 26t50.5 9.5t50.5 -9.5t41.5 -26t28 -38t10 -46.5v-31zM325 572l-168 67l41 71l155 -116q5 -5 4.5 -11.5t-4.5 -11.5q-5 -6 -13.5 -3.5t-14.5 4.5z" />
    <glyph glyph-name="eacute" unicode="&#xe9;" 
d="M192 571q-6 -3 -14.5 -4.5t-13.5 3.5t-5.5 12t4.5 12l155 116l41 -71l-167 -67v-1zM390 346q0 25 -10 46.5t-28 38t-41.5 26t-50.5 9.5t-50.5 -9.5t-41.5 -26t-28 -38t-10 -46.5v-56l260 25v31zM460 285q0 -14 -10.5 -24.5t-24.5 -10.5h-295v-113q0 -28 18 -48t44 -24
l178 -25q8 0 14 -6t6 -14t-6 -14t-14 -6h-145q-34 0 -64 11t-52.5 30t-35.5 44.5t-13 54.5v221q0 36 16 68t43 56t63.5 37.5t77.5 13.5q42 0 78.5 -13.5t63.5 -37.5t42.5 -56t15.5 -68v-76v0z" />
    <glyph glyph-name="ecircumflex" unicode="&#xea;" 
d="M154 576q-6 -3 -14 -5t-13 3t-5.5 12t4.5 12l142 104l141 -105q6 -5 5.5 -10.5t-4.5 -10.5q-5 -7 -13.5 -5t-14.5 4l-113 48l-115 -48v1zM390 346q0 25 -10 46.5t-28 38t-41.5 26t-50.5 9.5t-50.5 -9.5t-41.5 -26t-28 -38t-10 -46.5v-56l260 25v31zM460 285
q0 -14 -10.5 -24.5t-24.5 -10.5h-295v-113q0 -28 18 -48t44 -24l178 -25q8 0 14 -6t6 -14t-6 -14t-14 -6h-145q-34 0 -64 11t-52.5 30t-35.5 44.5t-13 54.5v221q0 36 16 68t43 56t63.5 37.5t77.5 13.5q42 0 78.5 -13.5t63.5 -37.5t42.5 -56t15.5 -68v-76v0z" />
    <glyph glyph-name="edieresis" unicode="&#xeb;" 
d="M306 613q0 16 11.5 27t27.5 11q17 -1 28.5 -12t11.5 -27t-11.5 -27.5t-28.5 -11.5q-16 0 -27.5 11.5t-11.5 27.5v1zM135 612q0 16 11.5 27t27.5 11q17 -1 28.5 -12t11.5 -27t-11.5 -27.5t-28.5 -11.5q-16 0 -27.5 11.5t-11.5 27.5v1zM390 346q0 25 -10 46.5t-28 38
t-41.5 26t-50.5 9.5t-50.5 -9.5t-41.5 -26t-28 -38t-10 -46.5v-56l260 25v31zM460 285q0 -14 -10.5 -24.5t-24.5 -10.5h-295v-113q0 -28 18 -48t44 -24l178 -25q8 0 14 -6t6 -14t-6 -14t-14 -6h-145q-34 0 -64 11t-52.5 30t-35.5 44.5t-13 54.5v221q0 36 16 68t43 56
t63.5 37.5t77.5 13.5q42 0 78.5 -13.5t63.5 -37.5t42.5 -56t15.5 -68v-76v0z" />
    <glyph glyph-name="igrave" unicode="&#xec;" horiz-adv-x="235" 
d="M187 572l-168 67l41 71l155 -116q5 -5 4.5 -11.5t-4.5 -11.5q-5 -6 -13.5 -3.5t-14.5 4.5zM185 495l-40 -475q-1 -8 -6.5 -14t-13.5 -6t-14 6t-6 14v454q0 13 -11 18q-1 0 -13.5 3t-26.5 6.5l-26 6.5l-12 3q-6 4 -6 9q0 10 10 10h130q15 0 25.5 -10.5t9.5 -24.5z" />
    <glyph glyph-name="iacute" unicode="&#xed;" horiz-adv-x="235" 
d="M185 495q1 14 -9.5 24.5t-25.5 10.5h-130q-10 0 -10 -10q0 -5 6 -9l12 -3l26 -6.5t26.5 -6.5t13.5 -3q11 -5 11 -18v-454q0 -8 6 -14t14 -6t13.5 6t6.5 14l40 475v0zM57 570q-6 -3 -14.5 -4.5t-13.5 3.5t-5.5 12t4.5 12l155 116l41 -71l-167 -67v-1z" />
    <glyph glyph-name="icircumflex" unicode="&#xee;" horiz-adv-x="235" 
d="M185 495q1 14 -9.5 24.5t-25.5 10.5h-130q-10 0 -10 -10q0 -5 6 -9l12 -3l26 -6.5t26.5 -6.5t13.5 -3q11 -5 11 -18v-454q0 -8 6 -14t14 -6t13.5 6t6.5 14l40 475v0zM38 576q-6 -3 -14 -5t-13 3t-5.5 12t4.5 12l142 104l141 -105q6 -5 5.5 -10.5t-4.5 -10.5
q-5 -7 -13.5 -5t-14.5 4l-113 48l-115 -48v1z" />
    <glyph glyph-name="idieresis" unicode="&#xef;" horiz-adv-x="235" 
d="M185 495q1 14 -9.5 24.5t-25.5 10.5h-130q-10 0 -10 -10q0 -5 6 -9l12 -3l26 -6.5t26.5 -6.5t13.5 -3q11 -5 11 -18v-454q0 -8 6 -14t14 -6t13.5 6t6.5 14l40 475v0zM181 613q0 16 11.5 27t27.5 11q17 -1 28.5 -12t11.5 -27t-11.5 -27.5t-28.5 -11.5q-16 0 -27.5 11.5
t-11.5 27.5v1zM10 612q0 16 11.5 27t27.5 11q17 -1 28.5 -12t11.5 -27t-11.5 -27.5t-28.5 -11.5q-16 0 -27.5 11.5t-11.5 27.5v1z" />
    <glyph glyph-name="eth" unicode="&#xf0;" horiz-adv-x="586" 
d="M402 184v69q0 50 1 110h-261q-8 0 -14 -6t-6 -14v-159q0 -25 11.5 -46.5t31 -38t45 -26t52.5 -9.5t52 9.5t44.5 26t31.5 38t12 46.5zM338 558q-11 -10 -26 -10q-14 0 -24 11q-10 10 -10 24q0 15 11 25l58 56q-2 1 -4 1q-1 0 -3 1l-218 25q-8 0 -14 6t-6 14t6 14t14 6h185
q23 0 45 -5.5t41 -15.5l53 52q11 10 25 10q15 0 25 -11q10 -10 10 -25q0 -14 -11 -24l-48 -47q25 -34 25 -74v-158h52q14 0 24.5 -10.5t10.5 -24.5v-120q0 -10 -10 -10q-6 0 -9 6l-3 12l-6.5 26t-6.5 26.5t-3 13.5q-6 11 -18 11h-31v-194q0 -36 -17.5 -68t-46.5 -56
t-67 -37.5t-79 -13.5t-79 13.5t-67 37.5t-46.5 56t-17.5 68v229q0 14 10.5 24.5t24.5 10.5h316v161q0 6 -1 12t-3 12l-61 -60v0z" />
    <glyph glyph-name="ntilde" unicode="&#xf1;" horiz-adv-x="565" 
d="M137 579q-5 -6 -11 -6t-11 6t-5 14t5 14l23 29q18 24 41 37.5t46 16t44.5 -7t37.5 -30.5q16 -20 37 -19.5t41 13.5l54 35q11 14 23 0q5 -6 4.5 -14t-5.5 -15l-22 -28q-19 -24 -42 -37.5t-46.5 -16t-45 6.5t-37.5 29t-36.5 19.5t-39.5 -12.5zM20 530q-10 0 -10 -10
q0 -6 6 -9l12 -3l26 -6.5t26.5 -6.5t13.5 -3q11 -6 11 -18v-439q0 -14 10.5 -24.5t24.5 -10.5h120q10 0 10 10q0 6 -6 9l-12 3l-26 6.5t-26.5 6.5t-13.5 3q-11 5 -11 18v290q0 25 10 46.5t28 38t41.5 26t50.5 9.5t50.5 -9.5t41.5 -26t28 -38t10 -46.5v-326q0 -8 6 -14t14 -6
t14 6t6 14q0 2 3 26t7.5 66t9 87t7.5 89t3 73q0 36 -16 68t-43 56t-63.5 37.5t-77.5 13.5q-24 0 -47.5 -11t-42 -23.5t-29.5 -23.5l-11 -11v43q0 8 -6 14t-14 6h-135v0z" />
    <glyph glyph-name="ograve" unicode="&#xf2;" 
d="M460 169v192q0 36 -16 68t-43 56t-63.5 37.5t-77.5 13.5t-77.5 -13.5t-63.5 -37.5t-43 -56t-16 -68v-192q0 -36 16 -68t43 -56t63.5 -37.5t77.5 -13.5t77.5 13.5t63.5 37.5t43 56t16 68zM390 184q0 -25 -10 -46.5t-28 -38t-41.5 -26t-50.5 -9.5t-50.5 9.5t-41.5 26
t-28 38t-10 46.5v162q0 25 10 46.5t28 38t41.5 26t50.5 9.5t50.5 -9.5t41.5 -26t28 -38t10 -46.5v-162zM331 582l-168 67l41 71l155 -116q5 -5 4.5 -11.5t-4.5 -11.5q-5 -6 -13.5 -3.5t-14.5 4.5z" />
    <glyph glyph-name="oacute" unicode="&#xf3;" 
d="M189 571q-6 -3 -14.5 -4.5t-13.5 3.5t-5.5 12t4.5 12l155 116l41 -71l-167 -67v-1zM390 346q0 25 -10 46.5t-28 38t-41.5 26t-50.5 9.5t-50.5 -9.5t-41.5 -26t-28 -38t-10 -46.5v-162q0 -25 10 -46.5t28 -38t41.5 -26t50.5 -9.5t50.5 9.5t41.5 26t28 38t10 46.5v162z
M460 169q0 -36 -16 -68t-43 -56t-63.5 -37.5t-77.5 -13.5t-77.5 13.5t-63.5 37.5t-43 56t-16 68v192q0 36 16 68t43 56t63.5 37.5t77.5 13.5t77.5 -13.5t63.5 -37.5t43 -56t16 -68v-192v0z" />
    <glyph glyph-name="ocircumflex" unicode="&#xf4;" 
d="M144 576q-6 -3 -14 -5t-13 3t-5.5 12t4.5 12l142 104l141 -105q6 -5 5.5 -10.5t-4.5 -10.5q-5 -7 -13.5 -5t-14.5 4l-113 48l-115 -48v1zM390 346q0 25 -10 46.5t-28 38t-41.5 26t-50.5 9.5t-50.5 -9.5t-41.5 -26t-28 -38t-10 -46.5v-162q0 -25 10 -46.5t28 -38t41.5 -26
t50.5 -9.5t50.5 9.5t41.5 26t28 38t10 46.5v162zM460 169q0 -36 -16 -68t-43 -56t-63.5 -37.5t-77.5 -13.5t-77.5 13.5t-63.5 37.5t-43 56t-16 68v192q0 36 16 68t43 56t63.5 37.5t77.5 13.5t77.5 -13.5t63.5 -37.5t43 -56t16 -68v-192v0z" />
    <glyph glyph-name="otilde" unicode="&#xf5;" 
d="M117 579q-5 -6 -11 -6t-11 6t-5 14t5 14l23 29q18 24 41 37.5t46 16t44.5 -7t37.5 -30.5q16 -20 37 -19.5t41 13.5l54 35q11 14 23 0q5 -6 4.5 -14t-5.5 -15l-22 -28q-19 -24 -42 -37.5t-46.5 -16t-45 6.5t-37.5 29t-36.5 19.5t-39.5 -12.5zM390 346q0 25 -10 46.5
t-28 38t-41.5 26t-50.5 9.5t-50.5 -9.5t-41.5 -26t-28 -38t-10 -46.5v-162q0 -25 10 -46.5t28 -38t41.5 -26t50.5 -9.5t50.5 9.5t41.5 26t28 38t10 46.5v162zM460 169q0 -36 -16 -68t-43 -56t-63.5 -37.5t-77.5 -13.5t-77.5 13.5t-63.5 37.5t-43 56t-16 68v192q0 36 16 68
t43 56t63.5 37.5t77.5 13.5t77.5 -13.5t63.5 -37.5t43 -56t16 -68v-192v0z" />
    <glyph glyph-name="odieresis" unicode="&#xf6;" 
d="M306 613q0 16 11.5 27t27.5 11q17 -1 28.5 -12t11.5 -27t-11.5 -27.5t-28.5 -11.5q-16 0 -27.5 11.5t-11.5 27.5v1zM135 612q0 16 11.5 27t27.5 11q17 -1 28.5 -12t11.5 -27t-11.5 -27.5t-28.5 -11.5q-16 0 -27.5 11.5t-11.5 27.5v1zM390 346q0 25 -10 46.5t-28 38
t-41.5 26t-50.5 9.5t-50.5 -9.5t-41.5 -26t-28 -38t-10 -46.5v-162q0 -25 10 -46.5t28 -38t41.5 -26t50.5 -9.5t50.5 9.5t41.5 26t28 38t10 46.5v162zM460 169q0 -36 -16 -68t-43 -56t-63.5 -37.5t-77.5 -13.5t-77.5 13.5t-63.5 37.5t-43 56t-16 68v192q0 36 16 68t43 56
t63.5 37.5t77.5 13.5t77.5 -13.5t63.5 -37.5t43 -56t16 -68v-192v0z" />
    <glyph glyph-name="divide" unicode="&#xf7;" horiz-adv-x="410" 
d="M156 436q0 21 15.5 37t37.5 16q23 1 37.5 -15t14.5 -38q0 -21 -15 -36.5t-38 -15.5q-21 0 -36.5 15.5t-15.5 36.5zM160 152q0 21 15.5 37t37.5 16q23 1 37.5 -15t14.5 -38q0 -21 -15 -36.5t-38 -15.5q-21 0 -36.5 15.5t-15.5 36.5zM95 259q-14 0 -24.5 10.5t-10.5 24.5
t10.5 24.5t24.5 10.5h220q14 0 24.5 -10.5t10.5 -24.5t-10.5 -24.5t-24.5 -10.5h-220v0z" />
    <glyph glyph-name="oslash" unicode="&#xf8;" 
d="M390 346q0 41 -27 73l-161 -343q25 -12 58 -12q27 0 50.5 9.5t41.5 26t28 38t10 46.5v162zM130 184q0 -23 9 -44t25 -37q18 42 37 88t38 91.5t37.5 90t35.5 83.5q-12 5 -25 7.5t-27 2.5q-27 0 -50.5 -9.5t-41.5 -26t-28 -38t-10 -46.5v-162v0zM396 489q29 -24 46.5 -57
t17.5 -71v-192q0 -36 -16 -68t-43 -56t-63.5 -37.5t-77.5 -13.5q-49 0 -88 18l-51 -109q-4 -8 -13 -14t-17 -6t-11 6t1 14l14.5 36t38.5 93q-34 24 -54 59.5t-20 77.5v192q0 36 16 68t43 56t63.5 37.5t77.5 13.5q22 0 42 -4t39 -11q11 25 19.5 44t14.5 30q5 13 -2 18
q-1 0 -16.5 3t-33.5 6.5t-32.5 6l-14.5 2.5q-8 3 -3 9q2 5 6 7.5t9 2.5h25q24 0 52 0.5t50 0.5h23q14 0 19.5 -10.5t-2.5 -24.5z" />
    <glyph glyph-name="ugrave" unicode="&#xf9;" horiz-adv-x="565" 
d="M545 0h-135q-8 0 -14 6t-6 14v43l-11 -11t-29.5 -23.5t-42 -23.5t-47.5 -11q-42 0 -78.5 13.5t-63.5 37.5t-42.5 56t-15.5 68q0 29 3 73t7.5 89t9 87t7.5 66t3 26q0 8 6 14t14 6t14 -6t6 -14v-326q0 -25 10 -46.5t28 -38t41.5 -26t50.5 -9.5t50.5 9.5t41.5 26t28 38
t10 46.5v290q0 12 -11 18q-1 0 -13.5 3t-26.5 6.5l-26 6.5l-12 3q-6 3 -6 9q0 10 10 10h120q14 0 24.5 -10.5t10.5 -24.5v-439q0 -13 11 -18q1 0 13.5 -3t26.5 -6.5l26 -6.5l12 -3q6 -3 6 -9q0 -10 -10 -10zM309 572l-168 67l41 71l155 -116q5 -5 4.5 -11.5t-4.5 -11.5
q-5 -6 -13.5 -3.5t-14.5 4.5z" />
    <glyph glyph-name="uacute" unicode="&#xfa;" horiz-adv-x="565" 
d="M186 571q-6 -3 -14.5 -4.5t-13.5 3.5t-5.5 12t4.5 12l155 116l41 -71l-167 -67v-1zM545 0q10 0 10 10q0 6 -6 9l-12 3l-26 6.5t-26.5 6.5t-13.5 3q-11 5 -11 18v439q0 14 -10.5 24.5t-24.5 10.5h-120q-10 0 -10 -10q0 -6 6 -9l12 -3l26 -6.5t26.5 -6.5t13.5 -3
q11 -6 11 -18v-290q0 -25 -10 -46.5t-28 -38t-41.5 -26t-50.5 -9.5t-50.5 9.5t-41.5 26t-28 38t-10 46.5v326q0 8 -6 14t-14 6t-14 -6t-6 -14q0 -2 -3 -26t-7.5 -66t-9 -87t-7.5 -89t-3 -73q0 -36 15.5 -68t42.5 -56t63.5 -37.5t78.5 -13.5q24 0 47.5 11t42 23.5t29.5 23.5
l11 11v-43q0 -8 6 -14t14 -6h135v0z" />
    <glyph glyph-name="ucircumflex" unicode="&#xfb;" horiz-adv-x="565" 
d="M154 576q-6 -3 -14 -5t-13 3t-5.5 12t4.5 12l142 104l141 -105q6 -5 5.5 -10.5t-4.5 -10.5q-5 -7 -13.5 -5t-14.5 4l-113 48l-115 -48v1zM545 0q10 0 10 10q0 6 -6 9l-12 3l-26 6.5t-26.5 6.5t-13.5 3q-11 5 -11 18v439q0 14 -10.5 24.5t-24.5 10.5h-120q-10 0 -10 -10
q0 -6 6 -9l12 -3l26 -6.5t26.5 -6.5t13.5 -3q11 -6 11 -18v-290q0 -25 -10 -46.5t-28 -38t-41.5 -26t-50.5 -9.5t-50.5 9.5t-41.5 26t-28 38t-10 46.5v326q0 8 -6 14t-14 6t-14 -6t-6 -14q0 -2 -3 -26t-7.5 -66t-9 -87t-7.5 -89t-3 -73q0 -36 15.5 -68t42.5 -56t63.5 -37.5
t78.5 -13.5q24 0 47.5 11t42 23.5t29.5 23.5l11 11v-43q0 -8 6 -14t14 -6h135v0z" />
    <glyph glyph-name="udieresis" unicode="&#xfc;" horiz-adv-x="565" 
d="M306 613q0 16 11.5 27t27.5 11q17 -1 28.5 -12t11.5 -27t-11.5 -27.5t-28.5 -11.5q-16 0 -27.5 11.5t-11.5 27.5v1zM135 612q0 16 11.5 27t27.5 11q17 -1 28.5 -12t11.5 -27t-11.5 -27.5t-28.5 -11.5q-16 0 -27.5 11.5t-11.5 27.5v1zM545 0q10 0 10 10q0 6 -6 9l-12 3
l-26 6.5t-26.5 6.5t-13.5 3q-11 5 -11 18v439q0 14 -10.5 24.5t-24.5 10.5h-120q-10 0 -10 -10q0 -6 6 -9l12 -3l26 -6.5t26.5 -6.5t13.5 -3q11 -6 11 -18v-290q0 -25 -10 -46.5t-28 -38t-41.5 -26t-50.5 -9.5t-50.5 9.5t-41.5 26t-28 38t-10 46.5v326q0 8 -6 14t-14 6
t-14 -6t-6 -14q0 -2 -3 -26t-7.5 -66t-9 -87t-7.5 -89t-3 -73q0 -36 15.5 -68t42.5 -56t63.5 -37.5t78.5 -13.5q24 0 47.5 11t42 23.5t29.5 23.5l11 11v-43q0 -8 6 -14t14 -6h135v0z" />
    <glyph glyph-name="yacute" unicode="&#xfd;" horiz-adv-x="419" 
d="M138 593q-6 -3 -14.5 -4.5t-13.5 3.5t-5.5 12t4.5 12l155 116l41 -71l-167 -67v-1zM407 484q2 6 2 11q0 14 -10 24.5t-25 10.5h-132q-10 0 -10 -10q0 -5 6 -9l12 -3l26 -6.5t26.5 -6.5t13.5 -3q5 -2 9 -7t-1 -19q-29 -79 -47.5 -129t-30 -80t-17 -45.5t-9 -25.5t-7 -19
l-10.5 -27q-7 18 -10.5 26.5t-8 19t-12 28.5t-22.5 53.5t-39.5 95.5t-62.5 154q-3 8 -10 11.5t-15 1.5t-11.5 -9.5t-1.5 -15.5l10 -31.5t25 -79.5t33.5 -106t35.5 -111.5t30 -95t18 -57.5l-123 -336q0 -14 10.5 -24t24.5 -10q15 0 25 10.5t10 24.5z" />
    <glyph glyph-name="thorn" unicode="&#xfe;" horiz-adv-x="565" 
d="M59 -318q0 6 5 9l12 3t26.5 6.5t26.5 6.5t13 3q12 5 12 18v1091q0 14 10 24.5t25 10.5h120q10 0 10 -10q0 -5 -6 -9l-12 -3t-26.5 -6.5t-26.5 -6.5t-13 -3q-11 -5 -11 -18v-331l11 11t29.5 23.5t42 23.5t47.5 11q41 0 77.5 -13.5t63.5 -37.5t43 -56t16 -68v-192
q0 -36 -16 -68t-43 -56t-63.5 -37.5t-77.5 -13.5q-24 0 -47.5 11t-42 23.5t-29.5 23.5l-11 11v-371q0 -8 -6 -14t-14 -6h-135q-10 0 -10 10zM224 184q0 -25 10 -46.5t28 -38t41.5 -26t50.5 -9.5t50.5 9.5t41 26t28 38t10.5 46.5v162q0 25 -10.5 46.5t-28 38t-41 26
t-50.5 9.5t-50.5 -9.5t-41.5 -26t-28 -38t-10 -46.5v-162z" />
    <glyph glyph-name="ydieresis" unicode="&#xff;" horiz-adv-x="419" 
d="M407 484q2 6 2 11q0 14 -10 24.5t-25 10.5h-132q-10 0 -10 -10q0 -5 6 -9l12 -3l26 -6.5t26.5 -6.5t13.5 -3q5 -2 9 -7t-1 -19q-29 -79 -47.5 -129t-30 -80t-17 -45.5t-9 -25.5t-7 -19l-10.5 -27q-7 18 -10.5 26.5t-8 19t-12 28.5t-22.5 53.5t-39.5 95.5t-62.5 154
q-3 8 -10 11.5t-15 1.5t-11.5 -9.5t-1.5 -15.5l10 -31.5t25 -79.5t33.5 -106t35.5 -111.5t30 -95t18 -57.5l-123 -336q0 -14 10.5 -24t24.5 -10q15 0 25 10.5t10 24.5zM248 613q0 16 11.5 27t27.5 11q17 -1 28.5 -12t11.5 -27t-11.5 -27.5t-28.5 -11.5q-16 0 -27.5 11.5
t-11.5 27.5v1zM77 612q0 16 11.5 27t27.5 11q17 -1 28.5 -12t11.5 -27t-11.5 -27.5t-28.5 -11.5q-16 0 -27.5 11.5t-11.5 27.5v1z" />
    <glyph glyph-name="Amacron" unicode="&#x100;" horiz-adv-x="499" 
d="M237 580l-86 -260h170zM489 35q0 -14 -10.5 -24.5t-24.5 -10.5h-132q-10 0 -10 10q0 6 6 9l12 3l26 6.5t26.5 6.5t13.5 3q5 2 9 7t-1 19l-60 186h-217l-79 -237q-2 -8 -9.5 -11.5t-15.5 -1.5t-11.5 9.5t-1.5 15.5q1 2 10 35t25 91t35.5 126t39.5 140t37.5 133.5
t30.5 106.5t17 58q10 21 32 21q11 0 20 -6.5t13 -17.5l217 -666q2 -6 2 -11zM88 815q-14 0 -24.5 10.5t-10.5 24.5t10.5 24.5t24.5 10.5h220q14 0 24.5 -10.5t10.5 -24.5t-10.5 -24.5t-24.5 -10.5h-220v0z" />
    <glyph glyph-name="amacron" unicode="&#x101;" horiz-adv-x="565" 
d="M390 250h-167q-19 0 -36 -6.5t-29.5 -18.5t-20 -28.5t-7.5 -35.5q0 -25 10 -43t28 -30t41.5 -18t50.5 -6t50.5 9.5t41.5 26t28 38t10 46.5v66zM555 10q0 -10 -10 -10h-135q-8 0 -14 6t-6 14v43l-11 -11t-29.5 -23.5t-42 -23.5t-47.5 -11q-41 0 -77.5 12.5t-63.5 34.5
t-43 52.5t-16 66.5q0 33 14.5 62t39 51t58 34.5t71.5 12.5h147v73q0 28 -18 48t-44 24l-178 25q-8 0 -14 6t-6 14t6 14t14 6h145q34 0 64 -11t52.5 -30t35.5 -44.5t13 -54.5v-334q0 -13 11 -18q1 0 13.5 -3t26.5 -6.5l26 -6.5l12 -3q6 -3 6 -9zM179 619q-14 0 -24.5 10.5
t-10.5 24.5t10.5 24.5t24.5 10.5h220q14 0 24.5 -10.5t10.5 -24.5t-10.5 -24.5t-24.5 -10.5h-220v0z" />
    <glyph glyph-name="Abreve" unicode="&#x102;" horiz-adv-x="499" 
d="M237 580l-86 -260h170zM489 35q0 -14 -10.5 -24.5t-24.5 -10.5h-132q-10 0 -10 10q0 6 6 9l12 3l26 6.5t26.5 6.5t13.5 3q5 2 9 7t-1 19l-60 186h-217l-79 -237q-2 -8 -9.5 -11.5t-15.5 -1.5t-11.5 9.5t-1.5 15.5q1 2 10 35t25 91t35.5 126t39.5 140t37.5 133.5
t30.5 106.5t17 58q10 21 32 21q11 0 20 -6.5t13 -17.5l217 -666q2 -6 2 -11zM233 728q-23 0 -44 9.5t-37.5 27t-26.5 41t-11 50.5q-1 32 -0.5 41.5t14.5 8.5q7 0 15.5 -21t20 -45t27.5 -42.5t39 -14.5q7 -3 20 -1t27.5 13t29 34t23.5 62q0 7 4.5 11.5t10.5 4.5q19 0 19 -15
t-1 -35q-1 -30 -14 -54.5t-32 -41t-41.5 -25.5t-42.5 -8z" />
    <glyph glyph-name="abreve" unicode="&#x103;" horiz-adv-x="565" 
d="M390 250h-167q-19 0 -36 -6.5t-29.5 -18.5t-20 -28.5t-7.5 -35.5q0 -25 10 -43t28 -30t41.5 -18t50.5 -6t50.5 9.5t41.5 26t28 38t10 46.5v66zM555 10q0 -10 -10 -10h-135q-8 0 -14 6t-6 14v43l-11 -11t-29.5 -23.5t-42 -23.5t-47.5 -11q-41 0 -77.5 12.5t-63.5 34.5
t-43 52.5t-16 66.5q0 33 14.5 62t39 51t58 34.5t71.5 12.5h147v73q0 28 -18 48t-44 24l-178 25q-8 0 -14 6t-6 14t6 14t14 6h145q34 0 64 -11t52.5 -30t35.5 -44.5t13 -54.5v-334q0 -13 11 -18q1 0 13.5 -3t26.5 -6.5l26 -6.5l12 -3q6 -3 6 -9zM168 552q-23 0 -44 9.5
t-37.5 27t-26.5 41t-11 50.5q-1 32 -0.5 41.5t14.5 8.5q7 0 15.5 -21t20 -45t27.5 -42.5t39 -14.5q7 -3 20 -1t27.5 13t29 34t23.5 62q0 7 4.5 11.5t10.5 4.5q19 0 19 -15t-1 -35q-1 -30 -14 -54.5t-32 -41t-41.5 -25.5t-42.5 -8z" />
    <glyph glyph-name="Aogonek" unicode="&#x104;" horiz-adv-x="499" 
d="M237 580l-86 -260h170zM405 0h-83q-10 0 -10 10q0 6 6 9l12 3l26 6.5t26.5 6.5t13.5 3q5 2 9 7t-1 19l-60 186h-217l-79 -237q-2 -8 -9.5 -11.5t-15.5 -1.5t-11.5 9.5t-1.5 15.5q1 2 10 35t25 91t35.5 126t39.5 140t37.5 133.5t30.5 106.5t17 58q10 21 32 21
q11 0 20 -6.5t13 -17.5l217 -666q2 -6 2 -11q0 -14 -10.5 -24.5t-24.5 -10.5h-26v-37q0 -6 -6 -9l-8.5 -3t-19 -6.5t-20 -6.5t-10.5 -3l-8.5 -3.5t-9.5 -14.5l-1 -25q-1 -11 8.5 -14.5l9.5 -3.5q1 0 17 -3t34 -6.5t33 -6.5l15 -3q6 -3 6 -9q0 -10 -10 -10h-120
q-14 0 -22.5 10.5t-8.5 24.5l-1 67q0 14 8.5 24.5t22.5 10.5h63z" />
    <glyph glyph-name="aogonek" unicode="&#x105;" horiz-adv-x="565" 
d="M390 250h-167q-19 0 -36 -6.5t-29.5 -18.5t-20 -28.5t-7.5 -35.5q0 -25 10 -43t28 -30t41.5 -18t50.5 -6t50.5 9.5t41.5 26t28 38t10 46.5v66zM555 10q0 -10 -10 -10h-135q-8 0 -14 6t-6 14v43l-11 -11t-29.5 -23.5t-42 -23.5t-47.5 -11q-41 0 -77.5 12.5t-63.5 34.5
t-43 52.5t-16 66.5q0 33 14.5 62t39 51t58 34.5t71.5 12.5h147v73q0 28 -18 48t-44 24l-178 25q-8 0 -14 6t-6 14t6 14t14 6h145q34 0 64 -11t52.5 -30t35.5 -44.5t13 -54.5v-334q0 -13 11 -18q1 0 13.5 -3t26.5 -6.5l26 -6.5l12 -3q6 -3 6 -9zM231 -33h62l9 51q3 6 9 6
q10 0 10 -10v-57q0 -6 -6 -9l-8.5 -3t-19 -6.5t-20 -6.5t-10.5 -3l-8.5 -3.5t-9.5 -14.5l-1 -25q-1 -11 8.5 -14.5l9.5 -3.5q1 0 17 -3t34 -6.5t33 -6.5l15 -3q6 -3 6 -9q0 -10 -10 -10h-120q-14 0 -22.5 10.5t-8.5 24.5l-1 67q0 14 8.5 24.5t22.5 10.5h1z" />
    <glyph glyph-name="Cacute" unicode="&#x106;" horiz-adv-x="440" 
d="M60 591q0 29 13 54.5t35.5 44.5t52.5 30t64 11h185q8 0 14 -6t6 -14t-6 -14t-14 -6l-218 -25q-26 -3 -44 -23.5t-18 -48.5v-457q0 -28 18 -48.5t44 -23.5l218 -25q8 0 14 -6t6 -14t-6 -14t-14 -6h-185q-34 0 -64 11t-52.5 30t-35.5 44.5t-13 54.5v451v0zM199 771
q-6 -3 -14.5 -4.5t-13.5 3.5t-5.5 12t4.5 12l155 116l41 -71l-167 -67v-1z" />
    <glyph glyph-name="cacute" unicode="&#x107;" horiz-adv-x="420" 
d="M60 390q0 29 13 54.5t35 44.5t52 30t65 11h145q8 0 14 -6t6 -14t-6 -14t-14 -6l-178 -25q-27 -4 -44.5 -24t-17.5 -48v-256q0 -28 17.5 -48t44.5 -24l178 -25q8 0 14 -6t6 -14t-6 -14t-14 -6h-145q-35 0 -65 11t-52 30t-35 44.5t-13 54.5v250v0zM192 592
q-6 -3 -14.5 -4.5t-13.5 3.5t-5.5 12t4.5 12l155 116l41 -71l-167 -67v-1z" />
    <glyph glyph-name="Ccaron" unicode="&#x10c;" horiz-adv-x="440" 
d="M60 591q0 29 13 54.5t35.5 44.5t52.5 30t64 11h185q8 0 14 -6t6 -14t-6 -14t-14 -6l-218 -25q-26 -3 -44 -23.5t-18 -48.5v-457q0 -28 18 -48.5t44 -23.5l218 -25q8 0 14 -6t6 -14t-6 -14t-14 -6h-185q-34 0 -64 11t-52.5 30t-35.5 44.5t-13 54.5v451v0zM328 845
q6 3 14 5t13 -3t5.5 -12t-4.5 -12l-142 -104l-141 105q-6 5 -5.5 10.5t4.5 10.5q5 7 13.5 5t14.5 -4l113 -48l115 48v-1z" />
    <glyph glyph-name="ccaron" unicode="&#x10d;" horiz-adv-x="420" 
d="M60 390q0 29 13 54.5t35 44.5t52 30t65 11h145q8 0 14 -6t6 -14t-6 -14t-14 -6l-178 -25q-27 -4 -44.5 -24t-17.5 -48v-256q0 -28 17.5 -48t44.5 -24l178 -25q8 0 14 -6t6 -14t-6 -14t-14 -6h-145q-35 0 -65 11t-52 30t-35 44.5t-13 54.5v250v0zM348 694q6 3 14 5t13 -3
t5.5 -12t-4.5 -12l-142 -104l-141 105q-6 5 -5.5 10.5t4.5 10.5q5 7 13.5 5t14.5 -4l113 -48l115 48v-1z" />
    <glyph glyph-name="Dcaron" unicode="&#x10e;" horiz-adv-x="560" 
d="M430 540q0 25 -13.5 46.5t-34.5 38t-48 26t-54 9.5h-150q-8 0 -14 -6t-6 -14l1.5 -36t3.5 -92t5 -122.5t5 -127.5t3.5 -108.5t1.5 -63.5q0 -8 6 -14t14 -6h130q27 0 54 9.5t48 26t34.5 38t13.5 46.5v350zM500 175q0 -36 -19 -68t-50 -56t-70.5 -37.5t-80.5 -13.5h-185
q-14 0 -24.5 10.5t-10.5 24.5v660q0 14 10.5 24.5t24.5 10.5h185q41 0 80.5 -13.5t70.5 -37.5t50 -56t19 -68v-380v0zM328 847q6 3 14 5t13 -3t5.5 -12t-4.5 -12l-142 -104l-141 105q-6 5 -5.5 10.5t4.5 10.5q5 7 13.5 5t14.5 -4l113 -48l115 48v-1z" />
    <glyph glyph-name="dcaron" unicode="&#x10f;" horiz-adv-x="698" 
d="M390 346q0 25 -10 46.5t-28 38t-41.5 26t-50.5 9.5t-50.5 -9.5t-41 -26t-28 -38t-10.5 -46.5v-162q0 -25 10.5 -46.5t28 -38t41 -26t50.5 -9.5t50.5 9.5t41.5 26t28 38t10 46.5v162zM555 10q0 -10 -10 -10h-135q-8 0 -14 6t-6 14v43l-11 -11t-29.5 -23.5t-42 -23.5
t-47.5 -11q-41 0 -77.5 13.5t-63.5 37.5t-43 56t-16 68v192q0 36 16 68t43 56t63.5 37.5t77.5 13.5q24 0 47.5 -11t42 -23.5t29.5 -23.5l11 -11v207q0 13 -11 18q-1 0 -13 3t-26.5 6.5t-26.5 6.5l-12 3q-6 4 -6 9q0 10 10 10h120q15 0 25 -10.5t10 -24.5v-639q0 -13 12 -18
q1 0 13 -3t26.5 -6.5t26.5 -6.5l12 -3q5 -3 5 -9zM559 535q-3 -6 -12.5 -11t-17.5 -7q-8 -1 -12 2t-1 8q1 1 3 5.5l8 18t17 39t29 69.5q4 7 -3 12q-2 0 -17.5 7t-28 13.5t-14.5 7.5q-8 -2 -2 4q0 3 4 5.5t9 4.5q3 0 22 3t41.5 6.5t40.5 6l18 2.5q13 2 19 -4.5t0 -17.5z" />
    <glyph glyph-name="Dcroat" unicode="&#x110;" horiz-adv-x="627" 
d="M497 540q0 25 -13.5 46.5t-34.5 38t-48 26t-54 9.5h-150q-8 0 -14 -6t-6 -14l0.5 -19.5t2 -52.5t3 -75.5t3.5 -88.5h81q14 0 24.5 -10.5t10.5 -24.5t-10.5 -24.5t-24.5 -10.5h-78q1 -42 2.5 -81t3 -72t2 -57t0.5 -34q0 -8 6 -14t14 -6h130q27 0 54 9.5t48 26t34.5 38
t13.5 46.5v350zM47 334q-14 0 -24.5 10.5t-10.5 24.5t10.5 24.5t24.5 10.5h80v291q0 14 10.5 24.5t24.5 10.5h185q41 0 80.5 -13.5t70.5 -37.5t50 -56t19 -68v-380q0 -36 -19 -68t-50 -56t-70.5 -37.5t-80.5 -13.5h-185q-14 0 -24.5 10.5t-10.5 24.5v299h-80v0z" />
    <glyph glyph-name="dcroat" unicode="&#x111;" horiz-adv-x="571" 
d="M390 346q0 25 -10 46.5t-28 38t-41.5 26t-50.5 9.5t-50.5 -9.5t-41 -26t-28 -38t-10.5 -46.5v-162q0 -25 10.5 -46.5t28 -38t41 -26t50.5 -9.5t50.5 9.5t41.5 26t28 38t10 46.5v162zM555 10q0 -10 -10 -10h-135q-8 0 -14 6t-6 14v43l-11 -11t-29.5 -23.5t-42 -23.5
t-47.5 -11q-41 0 -77.5 13.5t-63.5 37.5t-43 56t-16 68v192q0 36 16 68t43 56t63.5 37.5t77.5 13.5q24 0 47.5 -11t42 -23.5t29.5 -23.5l11 -11v207q0 13 -11 18q-1 0 -13 3t-26.5 6.5t-26.5 6.5l-12 3q-6 4 -6 9q0 10 10 10h120q15 0 25 -10.5t10 -24.5v-639q0 -13 12 -18
q1 0 13 -3t26.5 -6.5t26.5 -6.5l12 -3q5 -3 5 -9zM308 583q-14 0 -24.5 10.5t-10.5 24.5t10.5 24.5t24.5 10.5h220q14 0 24.5 -10.5t10.5 -24.5t-10.5 -24.5t-24.5 -10.5h-220v0z" />
    <glyph glyph-name="Emacron" unicode="&#x112;" 
d="M130 105q0 -14 10 -23.5t25 -11.5q2 0 26 -3t63 -7.5t77.5 -9t69.5 -7.5t39 -3t14 -6t6 -14t-6 -14t-14 -6h-345q-14 0 -24.5 10.5t-10.5 24.5v660q0 14 10.5 24.5t24.5 10.5h345q8 0 14 -6t6 -14t-6 -14t-14 -6t-41 -3t-74.5 -7.5t-83.5 -9t-68 -7.5t-28 -3
q-14 0 -25.5 -10.5t-9.5 -24.5l20 -192h225q14 0 24.5 -10.5t10.5 -24.5v-120q0 -10 -10 -10q-6 0 -9 6l-3 12l-6.5 26t-6.5 26.5t-3 13.5q-6 11 -18 11h-204v-258zM150 816q-14 0 -24.5 10.5t-10.5 24.5t10.5 24.5t24.5 10.5h220q14 0 24.5 -10.5t10.5 -24.5t-10.5 -24.5
t-24.5 -10.5h-220v0z" />
    <glyph glyph-name="emacron" unicode="&#x113;" 
d="M390 346q0 25 -10 46.5t-28 38t-41.5 26t-50.5 9.5t-50.5 -9.5t-41.5 -26t-28 -38t-10 -46.5v-56l260 25v31zM460 285q0 -14 -10.5 -24.5t-24.5 -10.5h-295v-113q0 -28 18 -48t44 -24l178 -25q8 0 14 -6t6 -14t-6 -14t-14 -6h-145q-34 0 -64 11t-52.5 30t-35.5 44.5
t-13 54.5v221q0 36 16 68t43 56t63.5 37.5t77.5 13.5q42 0 78.5 -13.5t63.5 -37.5t42.5 -56t15.5 -68v-76v0zM140 614q-14 0 -24.5 10.5t-10.5 24.5t10.5 24.5t24.5 10.5h220q14 0 24.5 -10.5t10.5 -24.5t-10.5 -24.5t-24.5 -10.5h-220v0z" />
    <glyph glyph-name="Edotaccent" unicode="&#x116;" 
d="M130 105q0 -14 10 -23.5t25 -11.5q2 0 26 -3t63 -7.5t77.5 -9t69.5 -7.5t39 -3t14 -6t6 -14t-6 -14t-14 -6h-345q-14 0 -24.5 10.5t-10.5 24.5v660q0 14 10.5 24.5t24.5 10.5h345q8 0 14 -6t6 -14t-6 -14t-14 -6t-41 -3t-74.5 -7.5t-83.5 -9t-68 -7.5t-28 -3
q-14 0 -25.5 -10.5t-9.5 -24.5l20 -192h225q14 0 24.5 -10.5t10.5 -24.5v-120q0 -10 -10 -10q-6 0 -9 6l-3 12l-6.5 26t-6.5 26.5t-3 13.5q-6 11 -18 11h-204v-258zM221 853q0 21 15.5 37t37.5 16q23 1 37.5 -15t14.5 -38q0 -21 -15 -36.5t-38 -15.5q-21 0 -36.5 15.5
t-15.5 36.5z" />
    <glyph glyph-name="edotaccent" unicode="&#x117;" 
d="M390 346q0 25 -10 46.5t-28 38t-41.5 26t-50.5 9.5t-50.5 -9.5t-41.5 -26t-28 -38t-10 -46.5v-56l260 25v31zM460 285q0 -14 -10.5 -24.5t-24.5 -10.5h-295v-113q0 -28 18 -48t44 -24l178 -25q8 0 14 -6t6 -14t-6 -14t-14 -6h-145q-34 0 -64 11t-52.5 30t-35.5 44.5
t-13 54.5v221q0 36 16 68t43 56t63.5 37.5t77.5 13.5q42 0 78.5 -13.5t63.5 -37.5t42.5 -56t15.5 -68v-76v0zM205 650q0 21 15.5 37t37.5 16q23 1 37.5 -15t14.5 -38q0 -21 -15 -36.5t-38 -15.5q-21 0 -36.5 15.5t-15.5 36.5z" />
    <glyph glyph-name="Eogonek" unicode="&#x118;" 
d="M130 105q0 -14 10 -23.5t25 -11.5q2 0 26 -3t63 -7.5t77.5 -9t69.5 -7.5t39 -3t14 -6t6 -14t-6 -14t-14 -6h-345q-14 0 -24.5 10.5t-10.5 24.5v660q0 14 10.5 24.5t24.5 10.5h345q8 0 14 -6t6 -14t-6 -14t-14 -6t-41 -3t-74.5 -7.5t-83.5 -9t-68 -7.5t-28 -3
q-14 0 -25.5 -10.5t-9.5 -24.5l20 -192h225q14 0 24.5 -10.5t10.5 -24.5v-120q0 -10 -10 -10q-6 0 -9 6l-3 12l-6.5 26t-6.5 26.5t-3 13.5q-6 11 -18 11h-204v-258zM284 -29h62l9 51q3 6 9 6q10 0 10 -10v-57q0 -6 -6 -9l-8.5 -3t-19 -6.5t-20 -6.5t-10.5 -3l-8.5 -3.5
t-9.5 -14.5l-1 -25q-1 -11 8.5 -14.5l9.5 -3.5q1 0 17 -3t34 -6.5t33 -6.5l15 -3q6 -3 6 -9q0 -10 -10 -10h-120q-14 0 -22.5 10.5t-8.5 24.5l-1 67q0 14 8.5 24.5t22.5 10.5h1z" />
    <glyph glyph-name="eogonek" unicode="&#x119;" 
d="M390 346q0 25 -10 46.5t-28 38t-41.5 26t-50.5 9.5t-50.5 -9.5t-41.5 -26t-28 -38t-10 -46.5v-56l260 25v31zM269 0h-44q-34 0 -64 11t-52.5 30t-35.5 44.5t-13 54.5v221q0 36 16 68t43 56t63.5 37.5t77.5 13.5q42 0 78.5 -13.5t63.5 -37.5t42.5 -56t15.5 -68v-76
q0 -14 -10.5 -24.5t-24.5 -10.5h-295v-113q0 -28 18 -48t44 -24l178 -25q8 0 14 -6t6 -14t-6 -14t-14 -6h-76v-29q0 -6 -6 -9l-8.5 -3.5t-19 -7t-20 -6t-10.5 -2.5l-8.5 -3.5t-9.5 -14.5l-1 -25q-1 -11 8.5 -14.5l9.5 -3.5q1 0 17 -3t34 -6.5t33 -6.5l15 -3q6 -3 6 -9
q0 -10 -10 -10h-120q-14 0 -22.5 10.5t-8.5 24.5l-1 67q0 14 8.5 24.5t22.5 10.5h63z" />
    <glyph glyph-name="Ecaron" unicode="&#x11a;" 
d="M130 105q0 -14 10 -23.5t25 -11.5q2 0 26 -3t63 -7.5t77.5 -9t69.5 -7.5t39 -3t14 -6t6 -14t-6 -14t-14 -6h-345q-14 0 -24.5 10.5t-10.5 24.5v660q0 14 10.5 24.5t24.5 10.5h345q8 0 14 -6t6 -14t-6 -14t-14 -6t-41 -3t-74.5 -7.5t-83.5 -9t-68 -7.5t-28 -3
q-14 0 -25.5 -10.5t-9.5 -24.5l20 -192h225q14 0 24.5 -10.5t10.5 -24.5v-120q0 -10 -10 -10q-6 0 -9 6l-3 12l-6.5 26t-6.5 26.5t-3 13.5q-6 11 -18 11h-204v-258zM328 846q6 3 14 5t13 -3t5.5 -12t-4.5 -12l-142 -104l-141 105q-6 5 -5.5 10.5t4.5 10.5q5 7 13.5 5
t14.5 -4l113 -48l115 48v-1z" />
    <glyph glyph-name="ecaron" unicode="&#x11b;" 
d="M390 346q0 25 -10 46.5t-28 38t-41.5 26t-50.5 9.5t-50.5 -9.5t-41.5 -26t-28 -38t-10 -46.5v-56l260 25v31zM460 285q0 -14 -10.5 -24.5t-24.5 -10.5h-295v-113q0 -28 18 -48t44 -24l178 -25q8 0 14 -6t6 -14t-6 -14t-14 -6h-145q-34 0 -64 11t-52.5 30t-35.5 44.5
t-13 54.5v221q0 36 16 68t43 56t63.5 37.5t77.5 13.5q42 0 78.5 -13.5t63.5 -37.5t42.5 -56t15.5 -68v-76v0zM381 696q6 3 14 5t13 -3t5.5 -12t-4.5 -12l-142 -104l-141 105q-6 5 -5.5 10.5t4.5 10.5q5 7 13.5 5t14.5 -4l113 -48l115 48v-1z" />
    <glyph glyph-name="Gbreve" unicode="&#x11e;" horiz-adv-x="540" 
d="M410 184v159q0 8 -6 14t-14 6h-129q-13 0 -18 -11q0 -1 -3 -13.5t-6.5 -26.5l-6.5 -26l-3 -12q-3 -6 -9 -6q-10 0 -10 10v120q0 14 10.5 24.5t24.5 10.5h205q14 0 24.5 -10.5t10.5 -24.5v-229q0 -36 -17.5 -68t-46.5 -56t-67 -37.5t-79 -13.5t-79 13.5t-67 37.5t-46.5 56
t-17.5 68v422q0 29 13 54.5t35.5 44.5t52.5 30t64 11h185q8 0 14 -6t6 -14t-6 -14t-14 -6l-218 -25q-27 -3 -45 -23.5t-18 -48.5l0.5 -26t0.5 -66v-89v-94v-82v-53q0 -25 11.5 -46.5t31 -38t45 -26t52.5 -9.5t52 9.5t44.5 26t31.5 38t12 46.5zM252 728q-23 0 -44 9.5
t-37.5 27t-26.5 41t-11 50.5q-1 32 -0.5 41.5t14.5 8.5q7 0 15.5 -21t20 -45t27.5 -42.5t39 -14.5q7 -3 20 -1t27.5 13t29 34t23.5 62q0 7 4.5 11.5t10.5 4.5q19 0 19 -15t-1 -35q-1 -30 -14 -54.5t-32 -41t-41.5 -25.5t-42.5 -8z" />
    <glyph glyph-name="gbreve" unicode="&#x11f;" horiz-adv-x="565" 
d="M390 346q0 25 -10 46.5t-28 38t-41.5 26t-50.5 9.5t-50.5 -9.5t-41.5 -26t-28 -38t-10 -46.5v-162q0 -25 10 -46.5t28 -38t41.5 -26t50.5 -9.5t50.5 9.5t41.5 26t28 38t10 46.5v162zM555 520q0 -5 -6 -9l-12 -3l-26 -6.5t-26.5 -6.5t-13.5 -3q-11 -5 -11 -18v-680
q0 -29 -13 -54.5t-35.5 -44.5t-52.5 -30t-64 -11h-145q-8 0 -14 6t-6 14t6 14t14 6l178 25q26 4 44 24t18 48v272l-11 -11t-29.5 -23.5t-42 -23.5t-47.5 -11q-42 0 -78.5 13.5t-63.5 37.5t-42.5 56t-15.5 68v192q0 36 15.5 68t42.5 56t63.5 37.5t78.5 13.5q24 0 47.5 -11
t42 -23.5t29.5 -23.5l11 -11v43q0 8 6 14t14 6h135q10 0 10 -10zM168 552q-23 0 -44 9.5t-37.5 27t-26.5 41t-11 50.5q-1 32 -0.5 41.5t14.5 8.5q7 0 15.5 -21t20 -45t27.5 -42.5t39 -14.5q7 -3 20 -1t27.5 13t29 34t23.5 62q0 7 4.5 11.5t10.5 4.5q19 0 19 -15t-1 -35
q-1 -30 -14 -54.5t-32 -41t-41.5 -25.5t-42.5 -8z" />
    <glyph glyph-name="Gcommaaccent" unicode="&#x122;" horiz-adv-x="540" 
d="M410 184v159q0 8 -6 14t-14 6h-129q-13 0 -18 -11q0 -1 -3 -13.5t-6.5 -26.5l-6.5 -26l-3 -12q-3 -6 -9 -6q-10 0 -10 10v120q0 14 10.5 24.5t24.5 10.5h205q14 0 24.5 -10.5t10.5 -24.5v-229q0 -36 -17.5 -68t-46.5 -56t-67 -37.5t-79 -13.5t-79 13.5t-67 37.5t-46.5 56
t-17.5 68v422q0 29 13 54.5t35.5 44.5t52.5 30t64 11h185q8 0 14 -6t6 -14t-6 -14t-14 -6l-218 -25q-27 -3 -45 -23.5t-18 -48.5l0.5 -26t0.5 -66v-89v-94v-82v-53q0 -25 11.5 -46.5t31 -38t45 -26t52.5 -9.5t52 9.5t44.5 26t31.5 38t12 46.5zM98 -50q0 21 15.5 36.5
t36.5 15.5q23 0 37.5 -15.5t15.5 -37.5q0 -16 -10 -29l-95 -178q0 -1 -3 -4t-9 -5t-14 2q-14 8 -13 18t7 21l49 136q-8 8 -12.5 18t-4.5 21v1z" />
    <glyph glyph-name="gcommaaccent" unicode="&#x123;" horiz-adv-x="565" 
d="M311 634q0 -21 -15.5 -36.5t-36.5 -15.5q-23 0 -37.5 15.5t-15.5 37.5q0 16 10 29l95 178q0 1 3 4t9 5t14 -2q14 -8 13 -18t-7 -21l-49 -136q8 -8 12.5 -18t4.5 -21v-1zM390 346q0 25 -10 46.5t-28 38t-41.5 26t-50.5 9.5t-50.5 -9.5t-41.5 -26t-28 -38t-10 -46.5v-162
q0 -25 10 -46.5t28 -38t41.5 -26t50.5 -9.5t50.5 9.5t41.5 26t28 38t10 46.5v162zM555 520q0 -5 -6 -9l-12 -3l-26 -6.5t-26.5 -6.5t-13.5 -3q-11 -5 -11 -18v-680q0 -29 -13 -54.5t-35.5 -44.5t-52.5 -30t-64 -11h-145q-8 0 -14 6t-6 14t6 14t14 6l178 25q26 4 44 24t18 48
v272l-11 -11t-29.5 -23.5t-42 -23.5t-47.5 -11q-42 0 -78.5 13.5t-63.5 37.5t-42.5 56t-15.5 68v192q0 36 15.5 68t42.5 56t63.5 37.5t78.5 13.5q24 0 47.5 -11t42 -23.5t29.5 -23.5l11 -11v43q0 8 6 14t14 6h135q10 0 10 -10z" />
    <glyph glyph-name="Imacron" unicode="&#x12a;" horiz-adv-x="235" 
d="M191 695l-46 -675q0 -8 -6 -14t-14 -6t-14 6t-6 14v654q0 12 -11 18q-1 0 -13.5 3t-26.5 6.5l-26 6.5l-12 3q-6 3 -6 9q0 10 10 10h136q14 0 25 -10.5t10 -24.5zM16 820q-14 0 -24.5 10.5t-10.5 24.5t10.5 24.5t24.5 10.5h220q14 0 24.5 -10.5t10.5 -24.5t-10.5 -24.5
t-24.5 -10.5h-220v0z" />
    <glyph glyph-name="imacron" unicode="&#x12b;" horiz-adv-x="235" 
d="M185 495l-40 -475q-1 -8 -6.5 -14t-13.5 -6t-14 6t-6 14v454q0 13 -11 18q-1 0 -13.5 3t-26.5 6.5l-26 6.5l-12 3q-6 4 -6 9q0 10 10 10h130q15 0 25.5 -10.5t9.5 -24.5zM22 615q-14 0 -24.5 10.5t-10.5 24.5t10.5 24.5t24.5 10.5h220q14 0 24.5 -10.5t10.5 -24.5
t-10.5 -24.5t-24.5 -10.5h-220v0z" />
    <glyph glyph-name="Iogonek" unicode="&#x12e;" horiz-adv-x="235" 
d="M191 695l-46 -675q0 -8 -6 -14t-14 -6t-14 6t-6 14v654q0 12 -11 18q-1 0 -13.5 3t-26.5 6.5l-26 6.5l-12 3q-6 3 -6 9q0 10 10 10h136q14 0 25 -10.5t10 -24.5zM46 -29h62l9 51q3 6 9 6q10 0 10 -10v-57q0 -6 -6 -9l-8.5 -3t-19 -6.5t-20 -6.5t-10.5 -3l-8.5 -3.5
t-9.5 -14.5l-1 -25q-1 -11 8.5 -14.5l9.5 -3.5q1 0 17 -3t34 -6.5t33 -6.5l15 -3q6 -3 6 -9q0 -10 -10 -10h-120q-14 0 -22.5 10.5t-8.5 24.5l-1 67q0 14 8.5 24.5t22.5 10.5h1z" />
    <glyph glyph-name="iogonek" unicode="&#x12f;" horiz-adv-x="235" 
d="M105 615q0 14 10.5 24.5t24.5 10.5q15 0 25 -10.5t10 -24.5t-10 -24.5t-25 -10.5q-14 0 -24.5 10.5t-10.5 24.5zM185 495q1 14 -9.5 24.5t-25.5 10.5h-130q-10 0 -10 -10q0 -5 6 -9l12 -3l26 -6.5t26.5 -6.5t13.5 -3q11 -5 11 -18v-454q0 -8 6 -14t14 -6t13.5 6t6.5 14
l40 475v0zM48 -20h62l9 51q3 6 9 6q10 0 10 -10v-57q0 -6 -6 -9l-8.5 -3t-19 -6.5t-20 -6.5t-10.5 -3l-8.5 -3.5t-9.5 -14.5l-1 -25q-1 -11 8.5 -14.5l9.5 -3.5q1 0 17 -3t34 -6.5t33 -6.5l15 -3q6 -3 6 -9q0 -10 -10 -10h-120q-14 0 -22.5 10.5t-8.5 24.5l-1 67
q0 14 8.5 24.5t22.5 10.5h1z" />
    <glyph glyph-name="Idotaccent" unicode="&#x130;" horiz-adv-x="235" 
d="M191 695l-46 -675q0 -8 -6 -14t-14 -6t-14 6t-6 14v654q0 12 -11 18q-1 0 -13.5 3t-26.5 6.5l-26 6.5l-12 3q-6 3 -6 9q0 10 10 10h136q14 0 25 -10.5t10 -24.5zM87 853q0 21 15.5 37t37.5 16q23 1 37.5 -15t14.5 -38q0 -21 -15 -36.5t-38 -15.5q-21 0 -36.5 15.5
t-15.5 36.5z" />
    <glyph glyph-name="dotlessi" unicode="&#x131;" horiz-adv-x="235" 
d="M185 495l-40 -475q-1 -8 -6.5 -14t-13.5 -6t-14 6t-6 14v454q0 13 -11 18q-1 0 -13.5 3t-26.5 6.5l-26 6.5l-12 3q-6 4 -6 9q0 10 10 10h130q15 0 25.5 -10.5t9.5 -24.5z" />
    <glyph glyph-name="Kcommaaccent" unicode="&#x136;" horiz-adv-x="535" 
d="M175 35q0 -14 -10.5 -24.5t-24.5 -10.5q-15 0 -25 10.5t-10 24.5v639q0 13 -12 18q-1 0 -13 3t-26.5 6.5t-26.5 6.5l-12 3q-5 3 -5 9q0 10 10 10h120q14 0 24.5 -10.5t10.5 -24.5v-242q0 -8 5.5 -14t14.5 -6q6 0 13 5l239 283q12 15 29 5q7 -5 7.5 -13t-4.5 -15
l-214 -297l244 -337q4 -5 10 -14.5t6 -17.5q0 -14 -10.5 -23t-24.5 -9h-122q-10 0 -10 10q0 6 5 9l7.5 3t16.5 6.5t17 6.5t9 3l6 3t6.5 5t2 7.5t-6.5 10.5l-213 294q-7 5 -13 5q-9 0 -14.5 -6t-5.5 -14v-308v0zM98 43q0 21 15.5 36.5t36.5 15.5q23 0 37.5 -15.5t15.5 -37.5
q0 -16 -10 -29l-95 -178q0 -1 -3 -4t-9 -5t-14 2q-14 8 -13 18t7 21l49 136q-8 8 -12.5 18t-4.5 21v1z" />
    <glyph glyph-name="kcommaaccent" unicode="&#x137;" horiz-adv-x="535" 
d="M175 35q0 -14 -10.5 -24.5t-24.5 -10.5q-15 0 -25 10.5t-10 24.5v639q0 13 -12 18q-1 0 -13 3t-26.5 6.5t-26.5 6.5l-12 3q-5 3 -5 9q0 10 10 10h120q14 0 24.5 -10.5t10.5 -24.5v-355q0 -8 5.5 -14t14.5 -6q6 0 13 5l220 198q5 7 13 8t15 -4t8 -13t-4 -15l-195 -211
l220 -224q20 -17 20 -32q0 -14 -10.5 -23t-24.5 -9h-132q-10 0 -10 10q0 6 5 9q2 1 12.5 5t23 9t13.5 5l6 3t6.5 5t2.5 7q0 5 -6 11l-183 181q-7 5 -13 5q-9 0 -14.5 -6t-5.5 -14v-195v0zM198 39q0 21 15.5 36.5t36.5 15.5q23 0 37.5 -15.5t15.5 -37.5q0 -16 -10 -29
l-95 -178q0 -1 -3 -4t-9 -5t-14 2q-14 8 -13 18t7 21l49 136q-8 8 -12.5 18t-4.5 21v1z" />
    <glyph glyph-name="Lacute" unicode="&#x139;" horiz-adv-x="470" 
d="M130 105q0 -14 10 -23.5t25 -11.5q2 0 26 -3t63 -7.5t77.5 -9t69.5 -7.5t39 -3t14 -6t6 -14t-6 -14t-14 -6h-345q-14 0 -24.5 10.5t-10.5 24.5v660q0 14 10.5 24.5t24.5 10.5t24.5 -10.5t10.5 -24.5v-590v0zM47 770q-6 -3 -14.5 -4.5t-13.5 3.5t-5.5 12t4.5 12l155 116
l41 -71l-167 -67v-1z" />
    <glyph glyph-name="lacute" unicode="&#x13a;" horiz-adv-x="235" 
d="M182 695l-37 -675q0 -8 -6 -14t-14 -6t-14 6t-6 14v654q0 12 -11 18q-1 0 -13.5 3t-26.5 6.5l-26 6.5l-12 3q-6 3 -6 9q0 10 10 10h127q14 0 25 -10.5t10 -24.5zM55 770q-6 -3 -14.5 -4.5t-13.5 3.5t-5.5 12t4.5 12l155 116l41 -71l-167 -67v-1z" />
    <glyph glyph-name="Lcommaaccent" unicode="&#x13b;" horiz-adv-x="470" 
d="M130 105q0 -14 10 -23.5t25 -11.5q2 0 26 -3t63 -7.5t77.5 -9t69.5 -7.5t39 -3t14 -6t6 -14t-6 -14t-14 -6h-345q-14 0 -24.5 10.5t-10.5 24.5v660q0 14 10.5 24.5t24.5 10.5t24.5 -10.5t10.5 -24.5v-590v0zM98 -49q0 21 15.5 36.5t36.5 15.5q23 0 37.5 -15.5t15.5 -37.5
q0 -16 -10 -29l-95 -178q0 -1 -3 -4t-9 -5t-14 2q-14 8 -13 18t7 21l49 136q-8 8 -12.5 18t-4.5 21v1z" />
    <glyph glyph-name="lcommaaccent" unicode="&#x13c;" horiz-adv-x="235" 
d="M182 695l-37 -675q0 -8 -6 -14t-14 -6t-14 6t-6 14v654q0 12 -11 18q-1 0 -13.5 3t-26.5 6.5l-26 6.5l-12 3q-6 3 -6 9q0 10 10 10h127q14 0 25 -10.5t10 -24.5zM98 -47q0 21 15.5 36.5t36.5 15.5q23 0 37.5 -15.5t15.5 -37.5q0 -16 -10 -29l-95 -178q0 -1 -3 -4t-9 -5
t-14 2q-14 8 -13 18t7 21l49 136q-8 8 -12.5 18t-4.5 21v1z" />
    <glyph glyph-name="Lcaron" unicode="&#x13d;" horiz-adv-x="470" 
d="M130 105q0 -14 10 -23.5t25 -11.5q2 0 26 -3t63 -7.5t77.5 -9t69.5 -7.5t39 -3t14 -6t6 -14t-6 -14t-14 -6h-345q-14 0 -24.5 10.5t-10.5 24.5v660q0 14 10.5 24.5t24.5 10.5t24.5 -10.5t10.5 -24.5v-590v0zM286 531q-3 -6 -12.5 -11t-17.5 -7q-8 -1 -12 2t-1 8
q1 1 3 5.5l8 18t17 39t29 69.5q4 7 -3 12q-2 0 -17.5 7t-28 13.5t-14.5 7.5q-8 -2 -2 4q0 3 4 5.5t9 4.5q3 0 22 3t41.5 6.5t40.5 6l18 2.5q13 2 19 -4.5t0 -17.5z" />
    <glyph glyph-name="lcaron" unicode="&#x13e;" horiz-adv-x="401" 
d="M182 695l-37 -675q0 -8 -6 -14t-14 -6t-14 6t-6 14v654q0 12 -11 18q-1 0 -13.5 3t-26.5 6.5l-26 6.5l-12 3q-6 3 -6 9q0 10 10 10h127q14 0 25 -10.5t10 -24.5zM279 533q-3 -6 -12.5 -11t-17.5 -7q-8 -1 -12 2t-1 8q1 1 3 5.5l8 18t17 39t29 69.5q4 7 -3 12
q-2 0 -17.5 7t-28 13.5t-14.5 7.5q-8 -2 -2 4q0 3 4 5.5t9 4.5q3 0 22 3t41.5 6.5t40.5 6l18 2.5q13 2 19 -4.5t0 -17.5z" />
    <glyph glyph-name="Lslash" unicode="&#x141;" horiz-adv-x="571" 
d="M231 105q0 -14 10 -23.5t25 -11.5q2 0 26 -3t63 -7.5t77.5 -9t69.5 -7.5t39 -3t14 -6t6 -14t-6 -14t-14 -6h-345q-14 0 -24.5 10.5t-10.5 24.5v249l-115 -97q-6 -7 -16 -10t-18 -1t-9 8t4 14l12.5 11t34 30t49.5 44t58 53v359q0 14 10.5 24.5t24.5 10.5t24.5 -10.5
t10.5 -24.5v-295q37 35 68.5 65.5t49.5 50.5q8 11 3 18q-1 0 -15 7t-30.5 14.5t-30 14l-13.5 6.5q-6 5 0 10q2 4 7 5.5t10 0.5q1 -1 16.5 -5t36 -9.5t42.5 -11.5t35.5 -9.5t14.5 -3.5q14 -4 16 -15t-9 -23l-201 -171v-239v0z" />
    <glyph glyph-name="lslash" unicode="&#x142;" horiz-adv-x="468" 
d="M225 369l-19 -349q0 -8 -6 -14t-14 -6t-14 6t-6 14v299l-119 -99q-8 -6 -16 -11t-16 -3t-9 8t4 13l13 11t34.5 30t49.5 44t59 53v309q0 12 -11 18q-1 0 -13.5 3t-26.5 6.5l-26 6.5l-12 3q-6 3 -6 9q0 10 10 10h127q14 0 25 -10.5t10 -24.5l-15 -274q45 42 83.5 80
t58.5 61q7 12 2 18q-1 1 -15.5 7t-31 13.5t-30 13.5l-13.5 6q-8 4 -1 9q2 5 7 6.5t10 -0.5q2 0 25 -5.5t50 -11.5t49 -11l22 -5q14 -3 16.5 -14.5t-8.5 -23.5l2 -3z" />
    <glyph glyph-name="Nacute" unicode="&#x143;" horiz-adv-x="562" 
d="M502 35q1 -14 -10 -24.5t-25 -10.5q-11 0 -19 6.5t-13 15.5l-305 536v-502q0 -13 11 -18q1 0 13.5 -3t26.5 -6.5l26 -6.5l12 -3q6 -3 6 -9q0 -10 -10 -10h-120q-14 0 -24.5 10.5t-10.5 24.5v660q0 14 10.5 24.5t25.5 10.5q19 0 31 -20l305 -550v550q0 8 6 14t14 6t14 -6
t6 -14l30 -675v0zM198 770q-6 -3 -14.5 -4.5t-13.5 3.5t-5.5 12t4.5 12l155 116l41 -71l-167 -67v-1z" />
    <glyph glyph-name="nacute" unicode="&#x144;" horiz-adv-x="565" 
d="M20 530h135q8 0 14 -6t6 -14v-43l11 11t29.5 23.5t42 23.5t47.5 11q41 0 77.5 -13.5t63.5 -37.5t43 -56t16 -68q0 -29 -3 -73t-7.5 -89t-9 -87t-7.5 -66t-3 -26q0 -8 -6 -14t-14 -6t-14 6t-6 14v326q0 25 -10 46.5t-28 38t-41.5 26t-50.5 9.5t-50.5 -9.5t-41.5 -26
t-28 -38t-10 -46.5v-290q0 -13 11 -18q1 0 13.5 -3t26.5 -6.5l26 -6.5l12 -3q6 -3 6 -9q0 -10 -10 -10h-120q-14 0 -24.5 10.5t-10.5 24.5v439q0 12 -11 18q-1 0 -13.5 3t-26.5 6.5l-26 6.5l-12 3q-6 3 -6 9q0 10 10 10zM234 591q-6 -3 -14.5 -4.5t-13.5 3.5t-5.5 12t4.5 12
l155 116l41 -71l-167 -67v-1z" />
    <glyph glyph-name="Ncommaaccent" unicode="&#x145;" horiz-adv-x="562" 
d="M502 35q1 -14 -10 -24.5t-25 -10.5q-11 0 -19 6.5t-13 15.5l-305 536v-502q0 -13 11 -18q1 0 13.5 -3t26.5 -6.5l26 -6.5l12 -3q6 -3 6 -9q0 -10 -10 -10h-120q-14 0 -24.5 10.5t-10.5 24.5v660q0 14 10.5 24.5t25.5 10.5q19 0 31 -20l305 -550v550q0 8 6 14t14 6t14 -6
t6 -14l30 -675v0zM257 45q0 21 15.5 36.5t36.5 15.5q23 0 37.5 -15.5t15.5 -37.5q0 -16 -10 -29l-95 -178q0 -1 -3 -4t-9 -5t-14 2q-14 8 -13 18t7 21l49 136q-8 8 -12.5 18t-4.5 21v1z" />
    <glyph glyph-name="ncommaaccent" unicode="&#x146;" horiz-adv-x="565" 
d="M20 530h135q8 0 14 -6t6 -14v-43l11 11t29.5 23.5t42 23.5t47.5 11q41 0 77.5 -13.5t63.5 -37.5t43 -56t16 -68q0 -29 -3 -73t-7.5 -89t-9 -87t-7.5 -66t-3 -26q0 -8 -6 -14t-14 -6t-14 6t-6 14v326q0 25 -10 46.5t-28 38t-41.5 26t-50.5 9.5t-50.5 -9.5t-41.5 -26
t-28 -38t-10 -46.5v-290q0 -13 11 -18q1 0 13.5 -3t26.5 -6.5l26 -6.5l12 -3q6 -3 6 -9q0 -10 -10 -10h-120q-14 0 -24.5 10.5t-10.5 24.5v439q0 12 -11 18q-1 0 -13.5 3t-26.5 6.5l-26 6.5l-12 3q-6 3 -6 9q0 10 10 10zM299 40q0 21 15.5 36.5t36.5 15.5q23 0 37.5 -15.5
t15.5 -37.5q0 -16 -10 -29l-95 -178q0 -1 -3 -4t-9 -5t-14 2q-14 8 -13 18t7 21l49 136q-8 8 -12.5 18t-4.5 21v1z" />
    <glyph glyph-name="Ncaron" unicode="&#x147;" horiz-adv-x="562" 
d="M502 35q1 -14 -10 -24.5t-25 -10.5q-11 0 -19 6.5t-13 15.5l-305 536v-502q0 -13 11 -18q1 0 13.5 -3t26.5 -6.5l26 -6.5l12 -3q6 -3 6 -9q0 -10 -10 -10h-120q-14 0 -24.5 10.5t-10.5 24.5v660q0 14 10.5 24.5t25.5 10.5q19 0 31 -20l305 -550v550q0 8 6 14t14 6t14 -6
t6 -14l30 -675v0zM328 845q6 3 14 5t13 -3t5.5 -12t-4.5 -12l-142 -104l-141 105q-6 5 -5.5 10.5t4.5 10.5q5 7 13.5 5t14.5 -4l113 -48l115 48v-1z" />
    <glyph glyph-name="ncaron" unicode="&#x148;" horiz-adv-x="565" 
d="M20 530h135q8 0 14 -6t6 -14v-43l11 11t29.5 23.5t42 23.5t47.5 11q41 0 77.5 -13.5t63.5 -37.5t43 -56t16 -68q0 -29 -3 -73t-7.5 -89t-9 -87t-7.5 -66t-3 -26q0 -8 -6 -14t-14 -6t-14 6t-6 14v326q0 25 -10 46.5t-28 38t-41.5 26t-50.5 9.5t-50.5 -9.5t-41.5 -26
t-28 -38t-10 -46.5v-290q0 -13 11 -18q1 0 13.5 -3t26.5 -6.5l26 -6.5l12 -3q6 -3 6 -9q0 -10 -10 -10h-120q-14 0 -24.5 10.5t-10.5 24.5v439q0 12 -11 18q-1 0 -13.5 3t-26.5 6.5l-26 6.5l-12 3q-6 3 -6 9q0 10 10 10zM420 693q6 3 14 5t13 -3t5.5 -12t-4.5 -12l-142 -104
l-141 105q-6 5 -5.5 10.5t4.5 10.5q5 7 13.5 5t14.5 -4l113 -48l115 48v-1z" />
    <glyph glyph-name="Omacron" unicode="&#x14c;" horiz-adv-x="560" 
d="M430 546q0 25 -13.5 46.5t-34.5 38t-48 26t-54 9.5t-54 -9.5t-48 -26t-34.5 -38t-13.5 -46.5v-362q0 -25 13.5 -46.5t34.5 -38t48 -26t54 -9.5t54 9.5t48 26t34.5 38t13.5 46.5v362zM500 169q0 -36 -19 -68t-50 -56t-70.5 -37.5t-80.5 -13.5t-80.5 13.5t-70.5 37.5
t-50 56t-19 68v392q0 36 19 68t50 56t70.5 37.5t80.5 13.5t80.5 -13.5t70.5 -37.5t50 -56t19 -68v-392v0zM167 816q-14 0 -24.5 10.5t-10.5 24.5t10.5 24.5t24.5 10.5h220q14 0 24.5 -10.5t10.5 -24.5t-10.5 -24.5t-24.5 -10.5h-220v0z" />
    <glyph glyph-name="omacron" unicode="&#x14d;" 
d="M390 346q0 25 -10 46.5t-28 38t-41.5 26t-50.5 9.5t-50.5 -9.5t-41.5 -26t-28 -38t-10 -46.5v-162q0 -25 10 -46.5t28 -38t41.5 -26t50.5 -9.5t50.5 9.5t41.5 26t28 38t10 46.5v162zM460 169q0 -36 -16 -68t-43 -56t-63.5 -37.5t-77.5 -13.5t-77.5 13.5t-63.5 37.5
t-43 56t-16 68v192q0 36 16 68t43 56t63.5 37.5t77.5 13.5t77.5 -13.5t63.5 -37.5t43 -56t16 -68v-192v0zM149 613q-14 0 -24.5 10.5t-10.5 24.5t10.5 24.5t24.5 10.5h220q14 0 24.5 -10.5t10.5 -24.5t-10.5 -24.5t-24.5 -10.5h-220v0z" />
    <glyph glyph-name="Ohungarumlaut" unicode="&#x150;" horiz-adv-x="560" 
d="M430 546q0 25 -13.5 46.5t-34.5 38t-48 26t-54 9.5t-54 -9.5t-48 -26t-34.5 -38t-13.5 -46.5v-362q0 -25 13.5 -46.5t34.5 -38t48 -26t54 -9.5t54 9.5t48 26t34.5 38t13.5 46.5v362zM500 169q0 -36 -19 -68t-50 -56t-70.5 -37.5t-80.5 -13.5t-80.5 13.5t-70.5 37.5
t-50 56t-19 68v392q0 36 19 68t50 56t70.5 37.5t80.5 13.5t80.5 -13.5t70.5 -37.5t50 -56t19 -68v-392v0zM310.45 737.862q-3.56543 -4.98828 -10.3398 -6.05664q-6.77441 -1.06934 -12.4785 1.78125q-4.99121 3.56348 -5.70508 9.97656q-0.712891 6.41309 2.85254 12.1133
l85.5693 138.242q5.7041 8.55078 16.0439 9.97559q10.3398 1.42578 18.1836 -4.27539q8.55664 -5.7002 9.98242 -16.3896q1.42676 -10.6885 -4.99121 -18.5264l-99.8301 -126.128zM196.358 741.426q-3.56543 -4.98828 -9.9834 -6.05762q-6.41699 -1.06836 -12.1221 1.78223
q-4.99121 3.5625 -5.7041 9.97559q-0.713867 6.41309 2.85156 12.1143l84.8564 138.241q5.7041 8.55078 16.0439 9.97656q10.3398 1.4248 18.8965 -4.27539q7.84375 -5.70117 9.98242 -16.3896q2.13965 -10.6885 -4.27832 -18.5273l-101.256 -126.128z" />
    <glyph glyph-name="ohungarumlaut" unicode="&#x151;" 
d="M390 346q0 25 -10 46.5t-28 38t-41.5 26t-50.5 9.5t-50.5 -9.5t-41.5 -26t-28 -38t-10 -46.5v-162q0 -25 10 -46.5t28 -38t41.5 -26t50.5 -9.5t50.5 9.5t41.5 26t28 38t10 46.5v162zM460 169q0 -36 -16 -68t-43 -56t-63.5 -37.5t-77.5 -13.5t-77.5 13.5t-63.5 37.5
t-43 56t-16 68v192q0 36 16 68t43 56t63.5 37.5t77.5 13.5t77.5 -13.5t63.5 -37.5t43 -56t16 -68v-192v0zM297.162 554.469q-3.65039 -5.04297 -10.5859 -6.12402q-6.93652 -1.08105 -12.7773 1.80078q-5.11035 3.60254 -5.84082 10.0869q-0.729492 6.48438 2.9209 12.248
l87.6123 139.769q5.84082 8.64551 16.4268 10.0869q10.5869 1.44043 18.6182 -4.32324q8.76074 -5.76367 10.2217 -16.5703q1.45996 -10.8076 -5.11133 -18.7324l-102.214 -127.521zM180.346 558.07q-3.65039 -5.04297 -10.2207 -6.12305
q-6.57129 -1.08105 -12.4121 1.80078q-5.11133 3.60254 -5.84082 10.0859q-0.730469 6.48438 2.91992 12.248l86.8828 139.77q5.84082 8.64551 16.4268 10.0859q10.5869 1.44141 19.3477 -4.32227q8.03125 -5.76367 10.2217 -16.5703q2.19043 -10.8076 -4.38086 -18.7324
l-103.674 -127.521z" />
    <glyph glyph-name="OE" unicode="&#x152;" horiz-adv-x="827" 
d="M406 546q0 25 -13.5 46.5t-34.5 38t-48 26t-54 9.5t-54 -9.5t-48 -26t-34.5 -38t-13.5 -46.5v-362q0 -25 13.5 -46.5t34.5 -38t48 -26t54 -9.5t54 9.5t48 26t34.5 38t13.5 46.5v362zM479 106q0 -14 10 -23.5t25 -11.5q2 0 26 -3t63 -7.5t77.5 -9t69.5 -7.5t39 -3t14 -6
t6 -14t-6 -14t-14 -6h-345q-14 0 -24.5 10.5t-10.5 24.5v10q-32 -24 -71.5 -38t-81.5 -14q-41 0 -80.5 13.5t-70.5 37.5t-50 56t-19 68v392q0 36 19 68t50 56t70.5 37.5t80.5 13.5q42 0 81.5 -14t71.5 -38v12q0 14 10.5 24.5t24.5 10.5h345q8 0 14 -6t6 -14t-6 -14t-14 -6
t-41 -3t-74.5 -7.5t-83.5 -9t-68 -7.5t-28 -3q-14 0 -25.5 -10.5t-9.5 -24.5v-1q8 -15 12.5 -31t4.5 -33l1 -127h227q14 0 24.5 -10.5t10.5 -24.5v-120q0 -10 -10 -10q-6 0 -9 6l-3 12l-6.5 26t-6.5 26.5t-3 13.5q-6 11 -18 11h-204v-258z" />
    <glyph glyph-name="oe" unicode="&#x153;" horiz-adv-x="778" 
d="M688 345q0 25 -10 46.5t-28 38t-41.5 26t-50.5 9.5t-50.5 -9.5t-41.5 -26t-28 -38t-10 -46.5v-56l260 25v31zM358 346q0 25 -10 46.5t-28 38t-41.5 26t-50.5 9.5t-50.5 -9.5t-41.5 -26t-28 -38t-10 -46.5v-162q0 -25 10 -46.5t28 -38t41.5 -26t50.5 -9.5t50.5 9.5
t41.5 26t28 38t10 46.5v162zM428 136q0 -28 18 -48t44 -24l178 -25q8 0 14 -6t6 -14t-6 -14t-14 -6h-145q-43 0 -79 17t-59 45q-27 -31 -68 -49t-89 -18q-41 0 -77.5 13.5t-63.5 37.5t-43 56t-16 68v192q0 36 16 68t43 56t63.5 37.5t77.5 13.5q51 0 94.5 -21t70.5 -56
q27 35 70.5 55.5t94.5 20.5q42 0 78.5 -13.5t63.5 -37.5t42.5 -56t15.5 -68v-76q0 -14 -10.5 -24.5t-24.5 -10.5h-295v-113v0z" />
    <glyph glyph-name="Racute" unicode="&#x154;" horiz-adv-x="567" 
d="M390 588q0 27 -18 47.5t-44 24.5h-198q-8 0 -14.5 -6t-5.5 -14l20 -207h198q26 4 44 24.5t18 47.5v83zM507 30q5 -6 4.5 -14.5t-7.5 -13.5q-14 -12 -28 3l-307 358h-39v-307q0 -13 11 -18q1 0 13.5 -3t26.5 -6.5l26 -6.5l12 -3q6 -3 6 -9q0 -10 -10 -10h-120
q-14 0 -24.5 10.5t-10.5 24.5v660q0 14 10.5 24.5t24.5 10.5h200q34 0 64 -11t52.5 -30t35.5 -44.5t13 -54.5v-87q0 -29 -13 -54.5t-35.5 -44.5t-52.5 -30t-64 -11h-23l235 -333v0zM180 771q-6 -3 -14.5 -4.5t-13.5 3.5t-5.5 12t4.5 12l155 116l41 -71l-167 -67v-1z" />
    <glyph glyph-name="racute" unicode="&#x155;" horiz-adv-x="432" 
d="M175 346l-30 -326q0 -8 -6 -14t-14 -6t-14 6t-6 14v454q0 12 -11 18q-1 0 -13.5 3t-26.5 6.5l-26 6.5l-12 3q-6 3 -6 9q0 10 10 10h135q8 0 14 -6t6 -14v-43l11 11t29.5 23.5t42 23.5t47.5 11q17 0 31 -1.5t31 -8.5q25 -8 25 -33v-120q0 -10 -10 -10q-8 0 -9 6l-3 12
t-6.5 27t-6.5 28t-3 14q-4 7 -11 10q-9 2 -18.5 4t-19.5 2q-27 0 -50 -9.5t-40 -26t-27.5 -38t-12.5 -46.5zM173 592q-6 -3 -14.5 -4.5t-13.5 3.5t-5.5 12t4.5 12l155 116l41 -71l-167 -67v-1z" />
    <glyph glyph-name="Rcommaaccent" unicode="&#x156;" horiz-adv-x="567" 
d="M390 588q0 27 -18 47.5t-44 24.5h-198q-8 0 -14.5 -6t-5.5 -14l20 -207h198q26 4 44 24.5t18 47.5v83zM507 30q5 -6 4.5 -14.5t-7.5 -13.5q-14 -12 -28 3l-307 358h-39v-307q0 -13 11 -18q1 0 13.5 -3t26.5 -6.5l26 -6.5l12 -3q6 -3 6 -9q0 -10 -10 -10h-120
q-14 0 -24.5 10.5t-10.5 24.5v660q0 14 10.5 24.5t24.5 10.5h200q34 0 64 -11t52.5 -30t35.5 -44.5t13 -54.5v-87q0 -29 -13 -54.5t-35.5 -44.5t-52.5 -30t-64 -11h-23l235 -333v0zM251 56q0 21 15.5 36.5t36.5 15.5q23 0 37.5 -15.5t15.5 -37.5q0 -16 -10 -29l-95 -178
q0 -1 -3 -4t-9 -5t-14 2q-14 8 -13 18t7 21l49 136q-8 8 -12.5 18t-4.5 21v1z" />
    <glyph glyph-name="rcommaaccent" unicode="&#x157;" horiz-adv-x="432" 
d="M175 346l-30 -326q0 -8 -6 -14t-14 -6t-14 6t-6 14v454q0 12 -11 18q-1 0 -13.5 3t-26.5 6.5l-26 6.5l-12 3q-6 3 -6 9q0 10 10 10h135q8 0 14 -6t6 -14v-43l11 11t29.5 23.5t42 23.5t47.5 11q17 0 31 -1.5t31 -8.5q25 -8 25 -33v-120q0 -10 -10 -10q-8 0 -9 6l-3 12
t-6.5 27t-6.5 28t-3 14q-4 7 -11 10q-9 2 -18.5 4t-19.5 2q-27 0 -50 -9.5t-40 -26t-27.5 -38t-12.5 -46.5zM152 57q0 21 15.5 36.5t36.5 15.5q23 0 37.5 -15.5t15.5 -37.5q0 -16 -10 -29l-95 -178q0 -1 -3 -4t-9 -5t-14 2q-14 8 -13 18t7 21l49 136q-8 8 -12.5 18t-4.5 21
v1z" />
    <glyph glyph-name="Rcaron" unicode="&#x158;" horiz-adv-x="567" 
d="M390 588q0 27 -18 47.5t-44 24.5h-198q-8 0 -14.5 -6t-5.5 -14l20 -207h198q26 4 44 24.5t18 47.5v83zM507 30q5 -6 4.5 -14.5t-7.5 -13.5q-14 -12 -28 3l-307 358h-39v-307q0 -13 11 -18q1 0 13.5 -3t26.5 -6.5l26 -6.5l12 -3q6 -3 6 -9q0 -10 -10 -10h-120
q-14 0 -24.5 10.5t-10.5 24.5v660q0 14 10.5 24.5t24.5 10.5h200q34 0 64 -11t52.5 -30t35.5 -44.5t13 -54.5v-87q0 -29 -13 -54.5t-35.5 -44.5t-52.5 -30t-64 -11h-23l235 -333v0zM328 845q6 3 14 5t13 -3t5.5 -12t-4.5 -12l-142 -104l-141 105q-6 5 -5.5 10.5t4.5 10.5
q5 7 13.5 5t14.5 -4l113 -48l115 48v-1z" />
    <glyph glyph-name="rcaron" unicode="&#x159;" horiz-adv-x="432" 
d="M175 346l-30 -326q0 -8 -6 -14t-14 -6t-14 6t-6 14v454q0 12 -11 18q-1 0 -13.5 3t-26.5 6.5l-26 6.5l-12 3q-6 3 -6 9q0 10 10 10h135q8 0 14 -6t6 -14v-43l11 11t29.5 23.5t42 23.5t47.5 11q17 0 31 -1.5t31 -8.5q25 -8 25 -33v-120q0 -10 -10 -10q-8 0 -9 6l-3 12
t-6.5 27t-6.5 28t-3 14q-4 7 -11 10q-9 2 -18.5 4t-19.5 2q-27 0 -50 -9.5t-40 -26t-27.5 -38t-12.5 -46.5zM333 697q6 3 14 5t13 -3t5.5 -12t-4.5 -12l-142 -104l-141 105q-6 5 -5.5 10.5t4.5 10.5q5 7 13.5 5t14.5 -4l113 -48l115 48v-1z" />
    <glyph glyph-name="Sacute" unicode="&#x15a;" horiz-adv-x="466" 
d="M100 593v-87q0 -30 21.5 -51.5t51.5 -21.5h80q38 0 71.5 -12.5t58 -34.5t39 -51t14.5 -62v-113q0 -33 -14.5 -62t-39 -51t-58 -34.5t-71.5 -12.5h-203q-8 0 -14 6t-6 14t6 14t14 6l233 25q35 4 59 30t24 62v113q0 19 -7 36t-20 29.5t-30 20t-36 7.5h-78q-34 0 -64 11
t-52.5 30.5t-35.5 45t-13 54.5v86q0 29 13 54.5t35.5 44.5t52.5 30t64 11h165q8 0 14 -6t6 -14t-6 -14t-14 -6l-198 -25q-26 -3 -44 -23.5t-18 -48.5zM157 771q-6 -3 -14.5 -4.5t-13.5 3.5t-5.5 12t4.5 12l155 116l41 -71l-167 -67v-1z" />
    <glyph glyph-name="sacute" unicode="&#x15b;" horiz-adv-x="426" 
d="M50 40l193 25q35 5 59 30.5t24 61.5q0 19 -7 36t-20 29.5t-30 20t-36 7.5h-38q-34 0 -64 11t-52.5 30t-35.5 44.5t-13 54.5t13 54.5t35.5 44.5t52.5 30t64 11h145q8 0 14 -6t6 -14t-6 -14t-14 -6l-178 -25q-26 -4 -44 -24t-18 -48q0 -30 21.5 -51.5t51.5 -21.5h40
q38 0 71.5 -12.5t58 -34.5t39 -51t14.5 -62t-14.5 -62t-39 -51t-58 -34.5t-71.5 -12.5h-163q-8 0 -14 6t-6 14t6 14t14 6zM149 592q-6 -3 -14.5 -4.5t-13.5 3.5t-5.5 12t4.5 12l155 116l41 -71l-167 -67v-1z" />
    <glyph glyph-name="Scommaaccent" unicode="&#x15e;" horiz-adv-x="466" 
d="M100 593v-87q0 -30 21.5 -51.5t51.5 -21.5h80q38 0 71.5 -12.5t58 -34.5t39 -51t14.5 -62v-113q0 -33 -14.5 -62t-39 -51t-58 -34.5t-71.5 -12.5h-203q-8 0 -14 6t-6 14t6 14t14 6l233 25q35 4 59 30t24 62v113q0 19 -7 36t-20 29.5t-30 20t-36 7.5h-78q-34 0 -64 11
t-52.5 30.5t-35.5 45t-13 54.5v86q0 29 13 54.5t35.5 44.5t52.5 30t64 11h165q8 0 14 -6t6 -14t-6 -14t-14 -6l-198 -25q-26 -3 -44 -23.5t-18 -48.5zM98 -49q0 21 15.5 36.5t36.5 15.5q23 0 37.5 -15.5t15.5 -37.5q0 -16 -10 -29l-95 -178q0 -1 -3 -4t-9 -5t-14 2
q-14 8 -13 18t7 21l49 136q-8 8 -12.5 18t-4.5 21v1z" />
    <glyph glyph-name="scommaaccent" unicode="&#x15f;" horiz-adv-x="426" 
d="M50 40l193 25q35 5 59 30.5t24 61.5q0 19 -7 36t-20 29.5t-30 20t-36 7.5h-38q-34 0 -64 11t-52.5 30t-35.5 44.5t-13 54.5t13 54.5t35.5 44.5t52.5 30t64 11h145q8 0 14 -6t6 -14t-6 -14t-14 -6l-178 -25q-26 -4 -44 -24t-18 -48q0 -30 21.5 -51.5t51.5 -21.5h40
q38 0 71.5 -12.5t58 -34.5t39 -51t14.5 -62t-14.5 -62t-39 -51t-58 -34.5t-71.5 -12.5h-163q-8 0 -14 6t-6 14t6 14t14 6zM98 -51q0 21 15.5 36.5t36.5 15.5q23 0 37.5 -15.5t15.5 -37.5q0 -16 -10 -29l-95 -178q0 -1 -3 -4t-9 -5t-14 2q-14 8 -13 18t7 21l49 136
q-8 8 -12.5 18t-4.5 21v1z" />
    <glyph glyph-name="Scaron" unicode="&#x160;" horiz-adv-x="466" 
d="M345 890q6 3 14 5t13 -3t5.5 -12t-4.5 -12l-142 -104l-141 105q-6 5 -5.5 10.5t4.5 10.5q5 7 13.5 5t14.5 -4l113 -48l115 48v-1zM100 593q0 28 18 48.5t44 23.5l198 25q8 0 14 6t6 14t-6 14t-14 6h-165q-34 0 -64 -11t-52.5 -30t-35.5 -44.5t-13 -54.5v-86
q0 -29 13 -54.5t35.5 -45t52.5 -30.5t64 -11h78q19 0 36 -7.5t30 -20t20 -29.5t7 -36v-113q0 -36 -24 -62t-59 -30l-233 -25q-8 0 -14 -6t-6 -14t6 -14t14 -6h203q38 0 71.5 12.5t58 34.5t39 51t14.5 62v113q0 33 -14.5 62t-39 51t-58 34.5t-71.5 12.5h-80q-30 0 -51.5 21.5
t-21.5 51.5v87v0z" />
    <glyph glyph-name="scaron" unicode="&#x161;" horiz-adv-x="426" 
d="M325 692q6 3 14 5t13 -3t5.5 -12t-4.5 -12l-142 -104l-141 105q-6 5 -5.5 10.5t4.5 10.5q5 7 13.5 5t14.5 -4l113 -48l115 48v-1zM50 40q-8 0 -14 -6t-6 -14t6 -14t14 -6h163q38 0 71.5 12.5t58 34.5t39 51t14.5 62t-14.5 62t-39 51t-58 34.5t-71.5 12.5h-40
q-30 0 -51.5 21.5t-21.5 51.5q0 28 18 48t44 24l178 25q8 0 14 6t6 14t-6 14t-14 6h-145q-34 0 -64 -11t-52.5 -30t-35.5 -44.5t-13 -54.5t13 -54.5t35.5 -44.5t52.5 -30t64 -11h38q19 0 36 -7.5t30 -20t20 -29.5t7 -36q0 -36 -24 -61.5t-59 -30.5l-193 -25v0z" />
    <glyph glyph-name="Tcommaaccent" unicode="&#x162;" horiz-adv-x="470" 
d="M200 20v640h-114q-13 0 -18 -11q0 -1 -3 -13.5t-6.5 -26.5l-6.5 -26l-3 -12q-3 -6 -9 -6q-10 0 -10 10v120q0 14 10.5 24.5t24.5 10.5h355q8 0 14 -6t6 -14t-6 -14t-14 -6l-150 -25l-30 -645q-1 -8 -6.5 -14t-13.5 -6t-14 6t-6 14zM98 -51q0 21 15.5 36.5t36.5 15.5
q23 0 37.5 -15.5t15.5 -37.5q0 -16 -10 -29l-95 -178q0 -1 -3 -4t-9 -5t-14 2q-14 8 -13 18t7 21l49 136q-8 8 -12.5 18t-4.5 21v1z" />
    <glyph glyph-name="tcommaaccent" unicode="&#x163;" horiz-adv-x="369" 
d="M169 137q0 -28 14 -46t48 -26l108 -25q8 0 14 -6t6 -14t-6 -14t-14 -6h-75q-34 0 -64 11t-52.5 30t-35.5 44.5t-13 54.5v326h-69q-8 0 -14 6t-6 14t6 14t14 6l69 24v165q0 14 10 24.5t25 10.5q14 0 24.5 -10.5t10.5 -24.5v-165h138q8 0 14 -6t6 -14t-6 -14t-14 -6
l-138 -25v-328v0zM98 -52q0 21 15.5 36.5t36.5 15.5q23 0 37.5 -15.5t15.5 -37.5q0 -16 -10 -29l-95 -178q0 -1 -3 -4t-9 -5t-14 2q-14 8 -13 18t7 21l49 136q-8 8 -12.5 18t-4.5 21v1z" />
    <glyph glyph-name="Tcaron" unicode="&#x164;" horiz-adv-x="470" 
d="M200 20v640h-114q-13 0 -18 -11q0 -1 -3 -13.5t-6.5 -26.5l-6.5 -26l-3 -12q-3 -6 -9 -6q-10 0 -10 10v120q0 14 10.5 24.5t24.5 10.5h355q8 0 14 -6t6 -14t-6 -14t-14 -6l-150 -25l-30 -645q-1 -8 -6.5 -14t-13.5 -6t-14 6t-6 14zM328 846q6 3 14 5t13 -3t5.5 -12
t-4.5 -12l-142 -104l-141 105q-6 5 -5.5 10.5t4.5 10.5q5 7 13.5 5t14.5 -4l113 -48l115 48v-1z" />
    <glyph glyph-name="tcaron" unicode="&#x165;" horiz-adv-x="419" 
d="M169 137q0 -28 14 -46t48 -26l108 -25q8 0 14 -6t6 -14t-6 -14t-14 -6h-75q-34 0 -64 11t-52.5 30t-35.5 44.5t-13 54.5v326h-69q-8 0 -14 6t-6 14t6 14t14 6l69 24v165q0 14 10 24.5t25 10.5q14 0 24.5 -10.5t10.5 -24.5v-165h138q8 0 14 -6t6 -14t-6 -14t-14 -6
l-138 -25v-328v0zM297 533q-3 -6 -12.5 -11t-17.5 -7q-8 -1 -12 2t-1 8q1 1 3 5.5l8 18t17 39t29 69.5q4 7 -3 12q-2 0 -17.5 7t-28 13.5t-14.5 7.5q-8 -2 -2 4q0 3 4 5.5t9 4.5q3 0 22 3t41.5 6.5t40.5 6l18 2.5q13 2 19 -4.5t0 -17.5z" />
    <glyph glyph-name="Umacron" unicode="&#x16a;" horiz-adv-x="560" 
d="M430 184v490q0 12 -11 18q-1 0 -13.5 3t-26.5 6.5l-26 6.5l-12 3q-6 3 -6 9q0 10 10 10h120q14 0 24.5 -10.5t10.5 -24.5v-526q0 -36 -19 -68t-50 -56t-70.5 -37.5t-80.5 -13.5t-80.5 13.5t-70.5 37.5t-50 56t-19 68v541q0 8 6 14t14 6t13.5 -6t6.5 -14q0 -1 1.5 -25.5
t4.5 -67t6 -93.5t6 -105.5t6 -101.5t4.5 -83t1.5 -50q0 -25 13.5 -46.5t34.5 -38t48 -26t54 -9.5t54 9.5t48 26t34.5 38t13.5 46.5zM167 816q-14 0 -24.5 10.5t-10.5 24.5t10.5 24.5t24.5 10.5h220q14 0 24.5 -10.5t10.5 -24.5t-10.5 -24.5t-24.5 -10.5h-220v0z" />
    <glyph glyph-name="umacron" unicode="&#x16b;" horiz-adv-x="565" 
d="M545 0h-135q-8 0 -14 6t-6 14v43l-11 -11t-29.5 -23.5t-42 -23.5t-47.5 -11q-42 0 -78.5 13.5t-63.5 37.5t-42.5 56t-15.5 68q0 29 3 73t7.5 89t9 87t7.5 66t3 26q0 8 6 14t14 6t14 -6t6 -14v-326q0 -25 10 -46.5t28 -38t41.5 -26t50.5 -9.5t50.5 9.5t41.5 26t28 38
t10 46.5v290q0 12 -11 18q-1 0 -13.5 3t-26.5 6.5l-26 6.5l-12 3q-6 3 -6 9q0 10 10 10h120q14 0 24.5 -10.5t10.5 -24.5v-439q0 -13 11 -18q1 0 13.5 -3t26.5 -6.5l26 -6.5l12 -3q6 -3 6 -9q0 -10 -10 -10zM140 615q-14 0 -24.5 10.5t-10.5 24.5t10.5 24.5t24.5 10.5h220
q14 0 24.5 -10.5t10.5 -24.5t-10.5 -24.5t-24.5 -10.5h-220v0z" />
    <glyph glyph-name="Uring" unicode="&#x16e;" horiz-adv-x="560" 
d="M430 184v490q0 12 -11 18q-1 0 -13.5 3t-26.5 6.5l-26 6.5l-12 3q-6 3 -6 9q0 10 10 10h120q14 0 24.5 -10.5t10.5 -24.5v-526q0 -36 -19 -68t-50 -56t-70.5 -37.5t-80.5 -13.5t-80.5 13.5t-70.5 37.5t-50 56t-19 68v541q0 8 6 14t14 6t13.5 -6t6.5 -14q0 -1 1.5 -25.5
t4.5 -67t6 -93.5t6 -105.5t6 -101.5t4.5 -83t1.5 -50q0 -25 13.5 -46.5t34.5 -38t48 -26t54 -9.5t54 9.5t48 26t34.5 38t13.5 46.5zM327 822q0 21 -15 36t-36 15t-36 -15t-16 -36t14.5 -36t36.5 -15t36 15t15 36h1zM354 822q0 -32 -23 -55t-56 -23q-32 0 -55 23t-23 55
t23 55t56 23q32 0 55 -23t23 -55z" />
    <glyph glyph-name="uring" unicode="&#x16f;" horiz-adv-x="565" 
d="M545 0h-135q-8 0 -14 6t-6 14v43l-11 -11t-29.5 -23.5t-42 -23.5t-47.5 -11q-42 0 -78.5 13.5t-63.5 37.5t-42.5 56t-15.5 68q0 29 3 73t7.5 89t9 87t7.5 66t3 26q0 8 6 14t14 6t14 -6t6 -14v-326q0 -25 10 -46.5t28 -38t41.5 -26t50.5 -9.5t50.5 9.5t41.5 26t28 38
t10 46.5v290q0 12 -11 18q-1 0 -13.5 3t-26.5 6.5l-26 6.5l-12 3q-6 3 -6 9q0 10 10 10h120q14 0 24.5 -10.5t10.5 -24.5v-439q0 -13 11 -18q1 0 13.5 -3t26.5 -6.5l26 -6.5l12 -3q6 -3 6 -9q0 -10 -10 -10zM299 621q0 21 -15 36t-36 15t-36 -15t-16 -36t14.5 -36t36.5 -15
t36 15t15 36h1zM326 621q0 -32 -23 -55t-56 -23q-32 0 -55 23t-23 55t23 55t56 23q32 0 55 -23t23 -55z" />
    <glyph glyph-name="Uhungarumlaut" unicode="&#x170;" horiz-adv-x="560" 
d="M430 184v490q0 12 -11 18q-1 0 -13.5 3t-26.5 6.5l-26 6.5l-12 3q-6 3 -6 9q0 10 10 10h120q14 0 24.5 -10.5t10.5 -24.5v-526q0 -36 -19 -68t-50 -56t-70.5 -37.5t-80.5 -13.5t-80.5 13.5t-70.5 37.5t-50 56t-19 68v541q0 8 6 14t14 6t13.5 -6t6.5 -14q0 -1 1.5 -25.5
t4.5 -67t6 -93.5t6 -105.5t6 -101.5t4.5 -83t1.5 -50q0 -25 13.5 -46.5t34.5 -38t48 -26t54 -9.5t54 9.5t48 26t34.5 38t13.5 46.5zM293.45 733.862q-3.56543 -4.98828 -10.3398 -6.05664q-6.77441 -1.06934 -12.4785 1.78125q-4.99121 3.56348 -5.70508 9.97656
q-0.712891 6.41309 2.85254 12.1133l85.5693 138.242q5.7041 8.55078 16.0439 9.97559q10.3398 1.42578 18.1836 -4.27539q8.55664 -5.7002 9.98242 -16.3896q1.42676 -10.6885 -4.99121 -18.5264l-99.8301 -126.128zM179.358 737.426q-3.56543 -4.98828 -9.9834 -6.05762
q-6.41699 -1.06836 -12.1221 1.78223q-4.99121 3.5625 -5.7041 9.97559q-0.713867 6.41309 2.85156 12.1143l84.8564 138.241q5.7041 8.55078 16.0439 9.97656q10.3398 1.4248 18.8965 -4.27539q7.84375 -5.70117 9.98242 -16.3896q2.13965 -10.6885 -4.27832 -18.5273
l-101.256 -126.128z" />
    <glyph glyph-name="uhungarumlaut" unicode="&#x171;" horiz-adv-x="565" 
d="M545 0h-135q-8 0 -14 6t-6 14v43l-11 -11t-29.5 -23.5t-42 -23.5t-47.5 -11q-42 0 -78.5 13.5t-63.5 37.5t-42.5 56t-15.5 68q0 29 3 73t7.5 89t9 87t7.5 66t3 26q0 8 6 14t14 6t14 -6t6 -14v-326q0 -25 10 -46.5t28 -38t41.5 -26t50.5 -9.5t50.5 9.5t41.5 26t28 38
t10 46.5v290q0 12 -11 18q-1 0 -13.5 3t-26.5 6.5l-26 6.5l-12 3q-6 3 -6 9q0 10 10 10h120q14 0 24.5 -10.5t10.5 -24.5v-439q0 -13 11 -18q1 0 13.5 -3t26.5 -6.5l26 -6.5l12 -3q6 -3 6 -9q0 -10 -10 -10zM313.162 560.469q-3.65039 -5.04297 -10.5859 -6.12402
q-6.93652 -1.08105 -12.7773 1.80078q-5.11035 3.60254 -5.84082 10.0869q-0.729492 6.48438 2.9209 12.248l87.6123 139.769q5.84082 8.64551 16.4268 10.0869q10.5869 1.44043 18.6182 -4.32324q8.76074 -5.76367 10.2217 -16.5703q1.45996 -10.8076 -5.11133 -18.7324
l-102.214 -127.521zM196.346 564.07q-3.65039 -5.04297 -10.2207 -6.12305q-6.57129 -1.08105 -12.4121 1.80078q-5.11133 3.60254 -5.84082 10.0859q-0.730469 6.48438 2.91992 12.248l86.8828 139.77q5.84082 8.64551 16.4268 10.0859q10.5869 1.44141 19.3477 -4.32227
q8.03125 -5.76367 10.2217 -16.5703q2.19043 -10.8076 -4.38086 -18.7324l-103.674 -127.521z" />
    <glyph glyph-name="Uogonek" unicode="&#x172;" horiz-adv-x="560" 
d="M430 184v490q0 12 -11 18q-1 0 -13.5 3t-26.5 6.5l-26 6.5l-12 3q-6 3 -6 9q0 10 10 10h120q14 0 24.5 -10.5t10.5 -24.5v-526q0 -36 -19 -68t-50 -56t-70.5 -37.5t-80.5 -13.5t-80.5 13.5t-70.5 37.5t-50 56t-19 68v541q0 8 6 14t14 6t13.5 -6t6.5 -14q0 -1 1.5 -25.5
t4.5 -67t6 -93.5t6 -105.5t6 -101.5t4.5 -83t1.5 -50q0 -25 13.5 -46.5t34.5 -38t48 -26t54 -9.5t54 9.5t48 26t34.5 38t13.5 46.5zM204 -35h62l9 51q3 6 9 6q10 0 10 -10v-57q0 -6 -6 -9l-8.5 -3t-19 -6.5t-20 -6.5t-10.5 -3l-8.5 -3.5t-9.5 -14.5l-1 -25q-1 -11 8.5 -14.5
l9.5 -3.5q1 0 17 -3t34 -6.5t33 -6.5l15 -3q6 -3 6 -9q0 -10 -10 -10h-120q-14 0 -22.5 10.5t-8.5 24.5l-1 67q0 14 8.5 24.5t22.5 10.5h1z" />
    <glyph glyph-name="uogonek" unicode="&#x173;" horiz-adv-x="565" 
d="M545 0h-135q-8 0 -14 6t-6 14v43l-11 -11t-29.5 -23.5t-42 -23.5t-47.5 -11q-42 0 -78.5 13.5t-63.5 37.5t-42.5 56t-15.5 68q0 29 3 73t7.5 89t9 87t7.5 66t3 26q0 8 6 14t14 6t14 -6t6 -14v-326q0 -25 10 -46.5t28 -38t41.5 -26t50.5 -9.5t50.5 9.5t41.5 26t28 38
t10 46.5v290q0 12 -11 18q-1 0 -13.5 3t-26.5 6.5l-26 6.5l-12 3q-6 3 -6 9q0 10 10 10h120q14 0 24.5 -10.5t10.5 -24.5v-439q0 -13 11 -18q1 0 13.5 -3t26.5 -6.5l26 -6.5l12 -3q6 -3 6 -9q0 -10 -10 -10zM237 -25h62l9 51q3 6 9 6q10 0 10 -10v-57q0 -6 -6 -9l-8.5 -3
t-19 -6.5t-20 -6.5t-10.5 -3l-8.5 -3.5t-9.5 -14.5l-1 -25q-1 -11 8.5 -14.5l9.5 -3.5q1 0 17 -3t34 -6.5t33 -6.5l15 -3q6 -3 6 -9q0 -10 -10 -10h-120q-14 0 -22.5 10.5t-8.5 24.5l-1 67q0 14 8.5 24.5t22.5 10.5h1z" />
    <glyph glyph-name="Ydieresis" unicode="&#x178;" horiz-adv-x="459" 
d="M270 813q0 16 11.5 27t27.5 11q17 -1 28.5 -12t11.5 -27t-11.5 -27.5t-28.5 -11.5q-16 0 -27.5 11.5t-11.5 27.5v1zM99 812q0 16 11.5 27t27.5 11q17 -1 28.5 -12t11.5 -27t-11.5 -27.5t-28.5 -11.5q-16 0 -27.5 11.5t-11.5 27.5v1zM447 684q2 6 2 11q0 14 -10 24.5
t-25 10.5h-132q-10 0 -10 -10q0 -5 6 -9l12 -3l26 -6.5t26.5 -6.5t13.5 -3q5 -2 9.5 -7t-1.5 -19l-141 -326l-174 377q-4 8 -11 11.5t-16 1.5q-8 -2 -11.5 -9.5t-0.5 -15.5l11.5 -31.5t29 -79.5t38 -106t40 -111.5t34 -95t19.5 -57.5v-190q0 -14 10.5 -24t24.5 -10
q15 0 25 10.5t10 24.5v187z" />
    <glyph glyph-name="Zacute" unicode="&#x179;" horiz-adv-x="460" 
d="M30 35q0 8 3 14l292 589q8 12 5.5 17.5t-6.5 9.5l-238 25q-8 0 -14 6t-6 14t6 14t14 6h309q14 0 24.5 -10.5t10.5 -24.5q0 -8 -3 -14l-292 -589q-8 -12 -5.5 -18t6.5 -9l270 -25q8 0 14 -6t6 -14t-6 -14t-14 -6h-341q-14 0 -24.5 10.5t-10.5 24.5zM199 771
q-6 -3 -14.5 -4.5t-13.5 3.5t-5.5 12t4.5 12l155 116l41 -71l-167 -67v-1z" />
    <glyph glyph-name="zacute" unicode="&#x17a;" horiz-adv-x="420" 
d="M10 35q0 8 3 14l15 22t48 69.5t84.5 121t124.5 176.5q9 12 6.5 17.5t-6.5 9.5l-219 25q-8 0 -14 6t-6 14t6 14t14 6h309q14 0 24.5 -10.5t10.5 -24.5q0 -8 -3 -14l-272 -389q-8 -12 -5.5 -18t6.5 -9l220 -25q8 0 14 -6t6 -14t-6 -14t-14 -6h-311q-14 0 -24.5 10.5
t-10.5 24.5zM155 593q-6 -3 -14.5 -4.5t-13.5 3.5t-5.5 12t4.5 12l155 116l41 -71l-167 -67v-1z" />
    <glyph glyph-name="Zdotaccent" unicode="&#x17b;" horiz-adv-x="460" 
d="M30 35q0 8 3 14l292 589q8 12 5.5 17.5t-6.5 9.5l-238 25q-8 0 -14 6t-6 14t6 14t14 6h309q14 0 24.5 -10.5t10.5 -24.5q0 -8 -3 -14l-292 -589q-8 -12 -5.5 -18t6.5 -9l270 -25q8 0 14 -6t6 -14t-6 -14t-14 -6h-341q-14 0 -24.5 10.5t-10.5 24.5zM184 854q0 21 15.5 37
t37.5 16q23 1 37.5 -15t14.5 -38q0 -21 -15 -36.5t-38 -15.5q-21 0 -36.5 15.5t-15.5 36.5z" />
    <glyph glyph-name="zdotaccent" unicode="&#x17c;" horiz-adv-x="420" 
d="M10 35q0 8 3 14l15 22t48 69.5t84.5 121t124.5 176.5q9 12 6.5 17.5t-6.5 9.5l-219 25q-8 0 -14 6t-6 14t6 14t14 6h309q14 0 24.5 -10.5t10.5 -24.5q0 -8 -3 -14l-272 -389q-8 -12 -5.5 -18t6.5 -9l220 -25q8 0 14 -6t6 -14t-6 -14t-14 -6h-311q-14 0 -24.5 10.5
t-10.5 24.5zM50 652q0 21 15.5 37t37.5 16q23 1 37.5 -15t14.5 -38q0 -21 -15 -36.5t-38 -15.5q-21 0 -36.5 15.5t-15.5 36.5z" />
    <glyph glyph-name="Zcaron" unicode="&#x17d;" horiz-adv-x="460" 
d="M369 846q6 3 14 5t13 -3t5.5 -12t-4.5 -12l-142 -104l-141 105q-6 5 -5.5 10.5t4.5 10.5q5 7 13.5 5t14.5 -4l113 -48l115 48v-1zM30 35q0 -14 10.5 -24.5t24.5 -10.5h341q8 0 14 6t6 14t-6 14t-14 6l-270 25q-4 3 -6.5 9t5.5 18l292 589q3 6 3 14q0 14 -10.5 24.5
t-24.5 10.5h-309q-8 0 -14 -6t-6 -14t6 -14t14 -6l238 -25q4 -4 6.5 -9.5t-5.5 -17.5l-292 -589q-3 -6 -3 -14z" />
    <glyph glyph-name="zcaron" unicode="&#x17e;" horiz-adv-x="420" 
d="M344 676q6 3 14 5t13 -3t5.5 -12t-4.5 -12l-142 -104l-141 105q-6 5 -5.5 10.5t4.5 10.5q5 7 13.5 5t14.5 -4l113 -48l115 48v-1zM10 35q0 -14 10.5 -24.5t24.5 -10.5h311q8 0 14 6t6 14t-6 14t-14 6l-220 25q-4 3 -6.5 9t5.5 18l272 389q3 6 3 14q0 14 -10.5 24.5
t-24.5 10.5h-309q-8 0 -14 -6t-6 -14t6 -14t14 -6l219 -25q4 -4 6.5 -9.5t-6.5 -17.5q-73 -103 -124.5 -176.5t-84.5 -121t-48 -69.5l-15 -22q-3 -6 -3 -14z" />
    <glyph glyph-name="florin" unicode="&#x192;" horiz-adv-x="399" 
d="M181 252l-186 -563q-2 -8 -9.5 -14t-15.5 -6t-12.5 6t-2.5 14l155 555h-69q-9 0 -13 6t-2 14q3 8 10 14t16 6l76 25l78 281q8 29 27.5 54.5t47 44.5t60.5 30t68 11h145q8 0 12.5 -6t2.5 -14t-10 -14t-16 -6l-185 -25q-28 -4 -50.5 -24t-30.5 -48l-77 -276h137
q9 0 12.5 -6t1.5 -14t-9 -14t-16 -6z" />
    <glyph glyph-name="circumflex" unicode="&#x2c6;" horiz-adv-x="536" 
d="M154 776q-6 -3 -14 -5t-13 3t-5.5 12t4.5 12l142 104l141 -105q6 -5 5.5 -10.5t-4.5 -10.5q-5 -7 -13.5 -5t-14.5 4l-113 48l-115 -48v1z" />
    <glyph glyph-name="caron" unicode="&#x2c7;" horiz-adv-x="446" 
d="M329 894q6 3 14 5t13 -3t5.5 -12t-4.5 -12l-142 -104l-141 105q-6 5 -5.5 10.5t4.5 10.5q5 7 13.5 5t14.5 -4l113 -48l115 48v-1z" />
    <glyph glyph-name="breve" unicode="&#x2d8;" horiz-adv-x="350" 
d="M169 622q-23 0 -44 9.5t-37.5 27t-26.5 41t-11 50.5q-1 32 -0.5 41.5t14.5 8.5q7 0 15.5 -21t20 -45t27.5 -42.5t39 -14.5q7 -3 20 -1t27.5 13t29 34t23.5 62q0 7 4.5 11.5t10.5 4.5q19 0 19 -15t-1 -35q-1 -30 -14 -54.5t-32 -41t-41.5 -25.5t-42.5 -8z" />
    <glyph glyph-name="dotaccent" unicode="&#x2d9;" horiz-adv-x="203" 
d="M51 673q0 21 15.5 37t37.5 16q23 1 37.5 -15t14.5 -38q0 -21 -15 -36.5t-38 -15.5q-21 0 -36.5 15.5t-15.5 36.5z" />
    <glyph glyph-name="ring" unicode="&#x2da;" horiz-adv-x="309" 
d="M206 800q0 21 -15 36t-36 15t-36 -15t-16 -36t14.5 -36t36.5 -15t36 15t15 36h1zM233 800q0 -32 -23 -55t-56 -23q-32 0 -55 23t-23 55t23 55t56 23q32 0 55 -23t23 -55z" />
    <glyph glyph-name="ogonek" unicode="&#x2db;" horiz-adv-x="554" 
d="M160 -63h62l9 51q3 6 9 6q10 0 10 -10v-57q0 -6 -6 -9l-8.5 -3t-19 -6.5t-20 -6.5t-10.5 -3l-8.5 -3.5t-9.5 -14.5l-1 -25q-1 -11 8.5 -14.5l9.5 -3.5q1 0 17 -3t34 -6.5t33 -6.5l15 -3q6 -3 6 -9q0 -10 -10 -10h-120q-14 0 -22.5 10.5t-8.5 24.5l-1 67q0 14 8.5 24.5
t22.5 10.5h1z" />
    <glyph glyph-name="tilde" unicode="&#x2dc;" horiz-adv-x="536" 
d="M117 779q-5 -6 -11 -6t-11 6t-5 14t5 14l23 29q18 24 41 37.5t46 16t44.5 -7t37.5 -30.5q16 -20 37 -19.5t41 13.5l54 35q11 14 23 0q5 -6 4.5 -14t-5.5 -15l-22 -28q-19 -24 -42 -37.5t-46.5 -16t-45 6.5t-37.5 29t-36.5 19.5t-39.5 -12.5z" />
    <glyph glyph-name="hungarumlaut" unicode="&#x2dd;" horiz-adv-x="379" 
d="M218 585q-5 -7 -14.5 -8.5t-17.5 2.5q-7 5 -8 14t4 17l120 194q8 12 22.5 14t25.5 -6q12 -8 14 -23t-7 -26l-140 -177zM58 590q-5 -7 -14 -8.5t-17 2.5q-7 5 -8 14t4 17l119 194q8 12 22.5 14t26.5 -6q11 -8 14 -23t-6 -26l-142 -177z" />
    <glyph glyph-name="dieresistonos" unicode="&#x385;" horiz-adv-x="322" 
d="M218 626q0 16 11.5 27t27.5 11q17 -1 28.5 -12t11.5 -27t-11.5 -27.5t-28.5 -11.5q-16 0 -27.5 11.5t-11.5 27.5v1zM25 625q0 16 11.5 27t27.5 11q17 -1 28.5 -12t11.5 -27t-11.5 -27.5t-28.5 -11.5q-16 0 -27.5 11.5t-11.5 27.5v1zM184 542q0 -8 -6.5 -14.5t-15.5 -8.5
q-8 0 -14 7t-7 16l-14 161q-1 14 10 24.5t25 10.5t25 -10.5t10 -24.5l-14 -161h1z" />
    <glyph glyph-name="Alphatonos" unicode="&#x386;" horiz-adv-x="515" 
d="M253 580l-86 -260h170zM505 35q0 -14 -10.5 -24.5t-24.5 -10.5h-132q-10 0 -10 10q0 6 6 9l12 3l26 6.5t26.5 6.5t13.5 3q5 2 9 7t-1 19l-60 186h-217l-79 -237q-2 -8 -9.5 -11.5t-15.5 -1.5t-11.5 9.5t-1.5 15.5q1 2 10 35t25 91t35.5 126t39.5 140t37.5 133.5
t30.5 106.5t17 58q10 21 32 21q11 0 20 -6.5t13 -17.5l217 -666q2 -6 2 -11zM65 536q-3 -7 -12.5 -9t-17.5 1q-8 4 -9.5 13t2.5 17l68 155q5 14 19.5 17t26.5 -4q13 -7 17.5 -21.5t-3.5 -25.5l-91 -142v-1z" />
    <glyph glyph-name="Epsilontonos" unicode="&#x388;" horiz-adv-x="624" 
d="M260 367h204q12 0 18 11q0 1 3 13.5t6.5 26.5l6.5 26l3 12q3 6 9 6q10 0 10 -10v-120q0 -14 -10.5 -24.5t-24.5 -10.5h-225l-20 -192q-2 -14 9.5 -24.5t25.5 -10.5q2 0 28 -3t68 -7.5t83.5 -9t74.5 -7.5t41 -3t14 -6t6 -14t-6 -14t-14 -6h-345q-14 0 -24.5 10.5
t-10.5 24.5v660q0 14 10.5 24.5t24.5 10.5h345q8 0 14 -6t6 -14t-6 -14t-14 -6t-39 -3t-69.5 -7.5t-77.5 -9t-63 -7.5t-26 -3q-15 -2 -25 -11.5t-10 -23.5v-258zM67 532q-3 -7 -12.5 -9t-17.5 1q-8 4 -9.5 13t2.5 17l68 155q5 14 19.5 17t26.5 -4q13 -7 17.5 -21.5
t-3.5 -25.5l-91 -142v-1z" />
    <glyph glyph-name="Etatonos" unicode="&#x389;" horiz-adv-x="641" 
d="M511 56v307h-260l-30 -343q-1 -8 -6.5 -14t-13.5 -6t-14 6t-6 14v675q0 14 10.5 24.5t24.5 10.5h120q10 0 10 -10q0 -6 -6 -9l-12 -3l-26 -6.5t-26.5 -6.5t-13.5 -3q-11 -6 -11 -18v-241h260v262q0 14 10.5 24.5t24.5 10.5t24.5 -10.5t10.5 -24.5v-660q0 -14 -10.5 -24.5
t-24.5 -10.5h-120q-10 0 -10 10q0 6 6 9l12 3l26 6.5t26.5 6.5t13.5 3q11 5 11 18zM67 532q-3 -7 -12.5 -9t-17.5 1q-8 4 -9.5 13t2.5 17l68 155q5 14 19.5 17t26.5 -4q13 -7 17.5 -21.5t-3.5 -25.5l-91 -142v-1z" />
    <glyph glyph-name="Iotatonos" unicode="&#x38a;" horiz-adv-x="449" 
d="M67 532q-3 -7 -12.5 -9t-17.5 1q-8 4 -9.5 13t2.5 17l68 155q5 14 19.5 17t26.5 -4q13 -7 17.5 -21.5t-3.5 -25.5l-91 -142v-1zM181 2q-10 0 -10 10q0 6 6 9l11.5 3t25.5 6.5l26 6.5t13 3q7 6 10 12v624q0 12 -11 18q-1 0 -13.5 3t-26.5 6.5l-26 6.5l-12 3q-6 3 -6 9
q0 10 10 10l239 -1q10 0 10 -10q0 -6 -6 -9l-12 -3l-26 -6.5t-26.5 -6.5t-13.5 -3q-11 -6 -11 -18v-624q3 -6 10 -12q1 0 13 -3l26 -6.5t25.5 -6.5l11.5 -3q6 -3 6 -9q0 -10 -10 -10z" />
    <glyph glyph-name="Omicrontonos" unicode="&#x38c;" horiz-adv-x="648" 
d="M536 546q0 25 -13.5 46.5t-34.5 38t-48 26t-54 9.5t-54 -9.5t-48 -26t-34.5 -38t-13.5 -46.5v-362q0 -25 13.5 -46.5t34.5 -38t48 -26t54 -9.5t54 9.5t48 26t34.5 38t13.5 46.5v362zM606 169q0 -36 -19 -68t-50 -56t-70.5 -37.5t-80.5 -13.5t-80.5 13.5t-70.5 37.5
t-50 56t-19 68v392q0 36 19 68t50 56t70.5 37.5t80.5 13.5t80.5 -13.5t70.5 -37.5t50 -56t19 -68v-392v0zM67 533q-3 -7 -12.5 -9t-17.5 1q-8 4 -9.5 13t2.5 17l68 155q5 14 19.5 17t26.5 -4q13 -7 17.5 -21.5t-3.5 -25.5l-91 -142v-1z" />
    <glyph glyph-name="Upsilontonos" unicode="&#x38e;" horiz-adv-x="649" 
d="M177 685q-2 6 -2 11q0 14 10 24.5t25 10.5h7h1h124q10 0 10 -10q0 -5 -6 -9l-12 -3l-26 -6.5t-26.5 -6.5t-13.5 -3q-5 -2 -8.5 -5t-2.5 -10l150 -325l150 326q-1 9 -11 13q-1 0 -13.5 3t-26.5 6.5l-26 6.5l-12 3q-6 4 -6 9q0 10 10 10h115q5 3 15 1q1 -1 3 -1
q14 -1 24 -11t10 -24q0 -5 -2 -11l-195 -462v-187v-3q-2 -14 -11.5 -23t-23.5 -9t-24 9t-11 23v4v187zM67 531q-3 -7 -12.5 -9t-17.5 1q-8 4 -9.5 13t2.5 17l68 155q5 14 19.5 17t26.5 -4q13 -7 17.5 -21.5t-3.5 -25.5l-91 -142v-1z" />
    <glyph glyph-name="Omegatonos" unicode="&#x38f;" horiz-adv-x="767" 
d="M486 142q82 40 130 106t48 161q0 56 -17 103t-48 81.5t-75 53.5t-97 19t-95.5 -18.5t-72.5 -52t-46 -80t-16 -102.5q0 -95 47 -162t129 -107q0 -13 -0.5 -19.5t-0.5 -15.5v-24q0 -15 1 -46q0 -15 -9 -26t-24 -11h-194q-10 0 -10 11q0 6 5 9l12.5 3t28 6.5t28.5 7t14 3.5
q3 1 15.5 3t26.5 4.5t25.5 5.5t11.5 6v65q-90 37 -138 111t-48 169q0 71 23 130t64.5 101t99.5 65t128 23q69 0 126 -22t98 -63t63.5 -99t22.5 -129q0 -46 -13 -89t-37 -80.5t-59 -67.5t-78 -49q0 -7 0.5 -9t0.5 -7q0 -4 0.5 -14.5t0.5 -33.5q0 -3 10 -6t22.5 -5.5t24 -4.5
t14.5 -3q1 0 15 -3.5t30.5 -7t30 -6.5l13.5 -3q5 -3 5 -9q0 -11 -11 -11h-189q-15 0 -25.5 11t-10.5 26v102zM67 531q-3 -7 -12.5 -9t-17.5 1q-8 4 -9.5 13t2.5 17l68 155q5 14 19.5 17t26.5 -4q13 -7 17.5 -21.5t-3.5 -25.5l-91 -142v-1z" />
    <glyph glyph-name="iotadieresistonos" unicode="&#x390;" horiz-adv-x="215" 
d="M31 35l40 475q1 8 6.5 14t13.5 6t14 -6t6 -14v-454q0 -13 11 -18q1 0 13.5 -3t26.5 -6.5l26 -6.5l12 -3q6 -4 6 -9q0 -10 -10 -10h-130q-15 0 -25.5 10.5t-9.5 24.5zM137 645q0 13 9.5 22t22.5 9q14 -1 23 -10t9 -22t-9 -22t-23 -9q-13 0 -22.5 9t-9.5 22v1zM-19 644
q0 13 9.5 22t22.5 9q14 -1 23 -10t9 -22t-9 -22t-23 -9q-13 0 -22.5 9t-9.5 22v1zM110 577q0 -6 -5.5 -11.5t-12.5 -7.5q-6 0 -11 6t-6 13l-11 130q-1 11 8 19.5t20 8.5t20 -8.5t8 -19.5l-11 -130h1z" />
    <glyph glyph-name="Alpha" unicode="&#x391;" horiz-adv-x="499" 
d="M237 580l-86 -260h170zM489 35q0 -14 -10.5 -24.5t-24.5 -10.5h-132q-10 0 -10 10q0 6 6 9l12 3l26 6.5t26.5 6.5t13.5 3q5 2 9 7t-1 19l-60 186h-217l-79 -237q-2 -8 -9.5 -11.5t-15.5 -1.5t-11.5 9.5t-1.5 15.5q1 2 10 35t25 91t35.5 126t39.5 140t37.5 133.5
t30.5 106.5t17 58q10 21 32 21q11 0 20 -6.5t13 -17.5l217 -666q2 -6 2 -11z" />
    <glyph glyph-name="Beta" unicode="&#x392;" 
d="M390 291q0 27 -18 47.5t-44 24.5h-198v-273q0 -8 6 -14t14 -6h178q26 4 44 24.5t18 47.5v149zM390 588q0 27 -18 47.5t-44 24.5h-198q-8 0 -14.5 -6t-5.5 -14l20 -207h198q26 4 44 24.5t18 47.5v83zM460 140q0 -29 -13 -54.5t-35.5 -44.5t-52.5 -30t-64 -11h-200
q-14 0 -24.5 10.5t-10.5 24.5v660q0 14 10.5 24.5t24.5 10.5h200q34 0 64 -11t52.5 -30t35.5 -44.5t13 -54.5v-87q0 -16 -7 -33t-18 -31.5t-25 -26t-28 -16.5q14 -5 28 -15.5t25 -24.5t18 -30.5t7 -32.5v-153v0z" />
    <glyph glyph-name="Gamma" unicode="&#x393;" horiz-adv-x="500" 
d="M173 506l-31 -478q0 -12 -8 -20t-19 -8q-12 0 -20 8t-8 20v623q0 17 -14 24q-2 0 -10 4t-17 8t-16.5 7.5l-7.5 3.5q-8 5 -8 13q0 14 13 14h108t81 0.5t62 0.5q28 0 53.5 -0.5t53 -1.5t62.5 -2q17 -2 26 -15.5t9 -30.5v-164q0 -6 -5 -10t-10 -4q-9 0 -12 8l-36 144
q-6 9 -15 13q-12 3 -25 5.5t-27 2.5q-39 0 -71.5 -7.5t-56 -26.5t-37 -50.5t-14.5 -80.5z" />
    <glyph glyph-name="Delta" unicode="&#x394;" horiz-adv-x="499" 
d="M237 579l-176 -530q17 4 31.5 9t16.5 5q81 6 135 4.5t88.5 -6t52 -10t23 -7.5t3.5 2t-7 19zM39 1q-5 -4 -16 -2q-8 2 -11.5 9.5t-1.5 15.5q1 2 10 35t25 91t35.5 126t39.5 140t37.5 133.5t30.5 106.5t17 58q10 21 32 21q11 0 20 -6.5t13 -17.5l217 -664q2 -6 2 -11
q0 -14 -10.5 -24.5t-24.5 -10.5h-415z" />
    <glyph glyph-name="Epsilon" unicode="&#x395;" 
d="M130 367h204q12 0 18 11q0 1 3 13.5t6.5 26.5l6.5 26l3 12q3 6 9 6q10 0 10 -10v-120q0 -14 -10.5 -24.5t-24.5 -10.5h-225l-20 -192q-2 -14 9.5 -24.5t25.5 -10.5q2 0 28 -3t68 -7.5t83.5 -9t74.5 -7.5t41 -3t14 -6t6 -14t-6 -14t-14 -6h-345q-14 0 -24.5 10.5
t-10.5 24.5v660q0 14 10.5 24.5t24.5 10.5h345q8 0 14 -6t6 -14t-6 -14t-14 -6t-39 -3t-69.5 -7.5t-77.5 -9t-63 -7.5t-26 -3q-15 -2 -25 -11.5t-10 -23.5v-258z" />
    <glyph glyph-name="Zeta" unicode="&#x396;" horiz-adv-x="460" 
d="M30 35q0 8 3 14l292 589q8 12 5.5 17.5t-6.5 9.5l-238 25q-8 0 -14 6t-6 14t6 14t14 6h309q14 0 24.5 -10.5t10.5 -24.5q0 -8 -3 -14l-292 -589q-8 -12 -5.5 -18t6.5 -9l270 -25q8 0 14 -6t6 -14t-6 -14t-14 -6h-341q-14 0 -24.5 10.5t-10.5 24.5z" />
    <glyph glyph-name="Eta" unicode="&#x397;" 
d="M390 56v307h-260l-30 -343q-1 -8 -6.5 -14t-13.5 -6t-14 6t-6 14v675q0 14 10.5 24.5t24.5 10.5h120q10 0 10 -10q0 -6 -6 -9l-12 -3l-26 -6.5t-26.5 -6.5t-13.5 -3q-11 -6 -11 -18v-241h260v262q0 14 10.5 24.5t24.5 10.5t24.5 -10.5t10.5 -24.5v-660q0 -14 -10.5 -24.5
t-24.5 -10.5h-120q-10 0 -10 10q0 6 6 9l12 3l26 6.5t26.5 6.5t13.5 3q11 5 11 18z" />
    <glyph glyph-name="Theta" unicode="&#x398;" horiz-adv-x="560" 
d="M184 235q-10 0 -10 10v232q0 10 10 10q6 0 9 -6l3 -11.5t6.5 -25.5l6.5 -26t3 -13q3 -6 9 -9h107q7 3 11 10q0 1 3 13.5t6.5 26.5l6.5 26l3 12q3 6 9 6q10 0 10 -10v-238q0 -10 -10 -10q-6 0 -9 6l-3 12l-6.5 26t-6.5 26.5t-3 13.5q-4 7 -11 10h-107q-5 -2 -9 -9
q0 -1 -3 -13l-6.5 -26t-6.5 -25.5l-3 -11.5q-3 -6 -9 -6zM430 546q0 25 -13.5 46.5t-34.5 38t-48 26t-54 9.5t-54 -9.5t-48 -26t-34.5 -38t-13.5 -46.5v-362q0 -25 13.5 -46.5t34.5 -38t48 -26t54 -9.5t54 9.5t48 26t34.5 38t13.5 46.5v362zM500 169q0 -36 -19 -68t-50 -56
t-70.5 -37.5t-80.5 -13.5t-80.5 13.5t-70.5 37.5t-50 56t-19 68v392q0 36 19 68t50 56t70.5 37.5t80.5 13.5t80.5 -13.5t70.5 -37.5t50 -56t19 -68v-392v0z" />
    <glyph glyph-name="Iota" unicode="&#x399;" horiz-adv-x="300" 
d="M32 2q-10 0 -10 10q0 6 6 9l11.5 3t25.5 6.5l26 6.5t13 3q7 6 10 12v624q0 12 -11 18q-1 0 -13.5 3t-26.5 6.5l-26 6.5l-12 3q-6 3 -6 9q0 10 10 10l239 -1q10 0 10 -10q0 -6 -6 -9l-12 -3l-26 -6.5t-26.5 -6.5t-13.5 -3q-11 -6 -11 -18v-624q3 -6 10 -12q1 0 13 -3
l26 -6.5t25.5 -6.5l11.5 -3q6 -3 6 -9q0 -10 -10 -10z" />
    <glyph glyph-name="Kappa" unicode="&#x39a;" horiz-adv-x="535" 
d="M175 35q0 -14 -10.5 -24.5t-24.5 -10.5q-15 0 -25 10.5t-10 24.5v639q0 13 -12 18q-1 0 -13 3t-26.5 6.5t-26.5 6.5l-12 3q-5 3 -5 9q0 10 10 10h120q14 0 24.5 -10.5t10.5 -24.5v-242q0 -8 5.5 -14t14.5 -6q6 0 13 5l239 283q12 15 29 5q7 -5 7.5 -13t-4.5 -15
l-214 -297l244 -337q4 -5 10 -14.5t6 -17.5q0 -14 -10.5 -23t-24.5 -9h-122q-10 0 -10 10q0 6 5 9l7.5 3t16.5 6.5t17 6.5t9 3l6 3t6.5 5t2 7.5t-6.5 10.5l-213 294q-7 5 -13 5q-9 0 -14.5 -6t-5.5 -14v-308v0z" />
    <glyph glyph-name="Lambda" unicode="&#x39b;" horiz-adv-x="499" 
d="M237 580l-189 -567q-2 -8 -9.5 -11.5t-15.5 -1.5t-11.5 9.5t-1.5 15.5q1 2 10 35t25 91t35.5 126t39.5 140t37.5 133.5t30.5 106.5t17 58q10 21 32 21q11 0 20 -6.5t13 -17.5l217 -666q2 -6 2 -11q0 -14 -10.5 -24.5t-24.5 -10.5h-132q-10 0 -10 10q0 6 6 9l12 3l26 6.5
t26.5 6.5t13.5 3q5 2 9 7t-1 19z" />
    <glyph glyph-name="Mu" unicode="&#x39c;" horiz-adv-x="780" 
d="M420 154q-10 -18 -30 -18q-21 0 -31 19l-229 403v-502q0 -13 11 -18q1 0 13.5 -3t26.5 -6.5l26 -6.5l12 -3q6 -3 6 -9q0 -10 -10 -10h-120q-14 0 -24.5 10.5t-10.5 24.5v660q0 14 10.5 24.5t24.5 10.5q20 0 32 -20l263 -474l263 474q12 20 32 20q14 0 24.5 -10.5
t10.5 -24.5v-675q0 -8 -6 -14t-14 -6t-13.5 6t-6.5 14l-30 538z" />
    <glyph glyph-name="Nu" unicode="&#x39d;" horiz-adv-x="562" 
d="M502 35q1 -14 -10 -24.5t-25 -10.5q-11 0 -19 6.5t-13 15.5l-305 536v-502q0 -13 11 -18q1 0 13.5 -3t26.5 -6.5l26 -6.5l12 -3q6 -3 6 -9q0 -10 -10 -10h-120q-14 0 -24.5 10.5t-10.5 24.5v660q0 14 10.5 24.5t25.5 10.5q19 0 31 -20l305 -550v550q0 8 6 14t14 6t14 -6
t6 -14l30 -675v0z" />
    <glyph glyph-name="Xi" unicode="&#x39e;" horiz-adv-x="502" 
d="M62 1h371q4 0 12 2q9 1 14 10q9 10 9 23v119q0 10 -10 10q-6 0 -9 -6l-3 -12l-6.5 -26t-6.5 -26.5t-3 -13.5q-6 -11 -18 -11h-318v-1q-5 1 -9.5 4t-6.5 7q0 1 -3 13l-6.5 26t-6.5 25.5l-3 11.5q-3 6 -9 6q-10 0 -10 -10v-118q0 -13 8 -23q5 -9 14 -10zM59 729h371
q4 0 12 -2q9 -1 14 -10q9 -11 9 -23v-119q0 -10 -10 -10q-6 0 -9 6l-3 12l-6.5 26t-6.5 26.5t-3 13.5q-6 11 -18 11h-318v1q-5 -1 -9.5 -4t-6.5 -7q0 -1 -3 -13l-6.5 -26t-6.5 -25.5l-3 -11.5q-3 -6 -9 -6q-10 0 -10 10v118q0 13 8 23q5 9 14 10zM132 225q6 0 9 6l3 11.5
t6.5 25.5l6.5 26t3 13q4 7 9 9h157q7 -3 11 -10q0 -1 3 -13.5t6.5 -26.5l6.5 -26l3 -12q3 -6 9 -6q10 0 10 10v238q0 10 -10 10q-6 0 -9 -6l-3 -12l-6.5 -26t-6.5 -26.5t-3 -13.5q-4 -7 -11 -10h-157q-6 3 -9 9q0 1 -3 13l-6.5 26t-6.5 25.5l-3 11.5q-3 6 -9 6
q-10 0 -10 -10v-232q0 -10 10 -10z" />
    <glyph glyph-name="Omicron" unicode="&#x39f;" horiz-adv-x="560" 
d="M430 546q0 25 -13.5 46.5t-34.5 38t-48 26t-54 9.5t-54 -9.5t-48 -26t-34.5 -38t-13.5 -46.5v-362q0 -25 13.5 -46.5t34.5 -38t48 -26t54 -9.5t54 9.5t48 26t34.5 38t13.5 46.5v362zM500 169q0 -36 -19 -68t-50 -56t-70.5 -37.5t-80.5 -13.5t-80.5 13.5t-70.5 37.5
t-50 56t-19 68v392q0 36 19 68t50 56t70.5 37.5t80.5 13.5t80.5 -13.5t70.5 -37.5t50 -56t19 -68v-392v0z" />
    <glyph glyph-name="Pi" unicode="&#x3a0;" horiz-adv-x="806" 
d="M228 48q0 -20 -12 -33.5t-29 -13.5h-143q-5 0 -9 3.5t-4 10.5t9 12l14 4t30.5 8.5t31 8.5t15.5 4q14 6 14 24l1 557q0 9 -4.5 15.5t-9.5 9.5q-2 0 -16 4t-31 8.5t-30.5 8.5l-13.5 4q-9 4 -9 12q0 14 13 14h158q11 0 18 -8t7 -19v-58l13 14.5t34.5 32t49 32t56.5 14.5h62
q29 0 56.5 -14.5t49.5 -32t35 -32l13 -14.5v58q0 11 7 19t18 8h158q12 0 12 -14q0 -8 -8 -12l-14 -4t-31 -8.5t-31 -8.5t-15 -4q-5 -3 -9.5 -9.5t-4.5 -15.5v-557q0 -18 13 -24q1 0 15.5 -4t31.5 -8.5t31 -8.5l14 -4l5 -5t3 -7q0 -7 -4 -10.5t-8 -3.5h-143q-17 0 -28.5 13.5
t-11.5 33.5v414q0 33 -12 65t-33 57t-49 40t-60 15h-62q-32 0 -59.5 -15t-48.5 -40t-33 -57t-12 -65v-414v0z" />
    <glyph glyph-name="Rho" unicode="&#x3a1;" 
d="M390 588q0 27 -18 47.5t-44 24.5h-198q-8 0 -14.5 -6t-5.5 -14l20 -207h198q26 4 44 24.5t18 47.5v83zM460 503q0 -29 -13 -54.5t-35.5 -44.5t-52.5 -30t-64 -11h-165l-30 -343q-1 -8 -6.5 -14t-13.5 -6t-14 6t-6 14v675q0 14 10.5 24.5t24.5 10.5h200q34 0 64 -11
t52.5 -30t35.5 -44.5t13 -54.5v-87v0z" />
    <glyph glyph-name="Sigma" unicode="&#x3a3;" horiz-adv-x="524" 
d="M148 586l174 -200q5 -4 10 -9.5t3 -11.5q0 -7 -4.5 -13t-8.5 -8l-176 -191l264 -60q16 0 19 7t5 13q0 1 -1 16.5t-2.5 33.5t-2.5 32.5l-1 14.5q1 3 3 5.5t4 5.5q9 1 12 -9q1 -2 5.5 -18.5t11 -38t12.5 -44t10 -36.5t4 -15q4 -17 -3 -33t-21 -21q-4 0 -10 -2l-395 87
q-24 2 -34 29q-6 26 9 43q17 15 48 42t64.5 57t65.5 58.5t52 45.5q-20 16 -52 44.5t-65.5 59t-64.5 58t-48 42.5q-15 17 -9 43q10 26 34 28l395 86q2 -1 5 -2t5 -1q14 -5 21 -21t3 -34l-6.5 -22.5t-14 -50.5t-14.5 -51.5t-8 -26.5q-3 -10 -12 -8q-6 4 -7 11l1 14.5t2.5 32.5
t2.5 33t1 17q-2 6 -5 12.5t-19 6.5z" />
    <glyph glyph-name="Tau" unicode="&#x3a4;" horiz-adv-x="470" 
d="M200 20v640h-114q-13 0 -18 -11q0 -1 -3 -13.5t-6.5 -26.5l-6.5 -26l-3 -12q-3 -6 -9 -6q-10 0 -10 10v120q0 14 10.5 24.5t24.5 10.5h355q8 0 14 -6t6 -14t-6 -14t-14 -6l-150 -25l-30 -645q-1 -8 -6.5 -14t-13.5 -6t-14 6t-6 14z" />
    <glyph glyph-name="Upsilon" unicode="&#x3a5;" horiz-adv-x="487" 
d="M15 685q-2 6 -2 11q0 14 10 24.5t25 10.5h7h1h124q10 0 10 -10q0 -5 -6 -9l-12 -3l-26 -6.5t-26.5 -6.5t-13.5 -3q-5 -2 -8.5 -5t-2.5 -10l150 -325l150 326q-1 9 -11 13q-1 0 -13.5 3t-26.5 6.5l-26 6.5l-12 3q-6 4 -6 9q0 10 10 10h115q5 3 15 1q1 -1 3 -1
q14 -1 24 -11t10 -24q0 -5 -2 -11l-195 -462v-187v-3q-2 -14 -11.5 -23t-23.5 -9t-24 9t-11 23v4v187z" />
    <glyph glyph-name="Phi" unicode="&#x3a6;" horiz-adv-x="750" 
d="M410 558v-392h3q46 0 85.5 15.5t67.5 43.5t44 66.5t16 84.5q0 43 -17.5 77t-46.5 57t-68 35.5t-81 12.5h-3zM336 558q-39 1 -77 -13.5t-68.5 -40t-49.5 -60.5t-19 -75q0 -44 18 -81t47.5 -64t68 -42.5t80.5 -15.5h5v392h-5v0zM259 1q-10 0 -10 10q0 6 6 9l11.5 3
t25.5 6.5l26 6.5t13 3q7 6 10 12v71h-5q-54 0 -106.5 15.5t-94 45.5t-67.5 74.5t-26 102.5t25.5 103t67 75t94.5 45.5t108 15.5h4v76q0 12 -11 18q-1 0 -13.5 3t-26.5 6.5t-26 6l-12 2.5q-6 3 -6 9q0 10 10 10h239q10 0 10 -10q0 -6 -6 -9l-12 -3l-26 -6.5t-26.5 -6.5
t-13.5 -3q-11 -6 -11 -18v-75h3q57 0 110 -13t94 -41.5t65.5 -72.5t24.5 -105q0 -56 -26.5 -101t-68.5 -77t-94.5 -49.5t-104.5 -17.5h-3v-72q3 -6 10 -12q1 0 13 -3l26 -6.5t25.5 -6.5l11.5 -3q6 -3 6 -9q0 -10 -10 -10z" />
    <glyph glyph-name="Chi" unicode="&#x3a7;" horiz-adv-x="482" 
d="M24 699q-4 7 -3 15t8 13t15 4t13 -8l169 -293l169 293q4 7 12.5 8t15.5 -4t8 -13t-4 -15l-139 -311l182 -342q2 -6 2 -11q0 -14 -10.5 -24.5t-24.5 -10.5h-132q-10 0 -10 10q0 6 5 9l12 3t26.5 6.5t26.5 6.5t13 3q5 2 9.5 7t-0.5 19l-164 276l-178 -330q-5 -7 -12.5 -9.5
t-14.5 1.5q-8 4 -10 12t2 15l152 359l-138 311v0z" />
    <glyph glyph-name="Psi" unicode="&#x3a8;" horiz-adv-x="881" 
d="M702 696q0 14 10.5 24.5t24.5 10.5h120q10 0 10 -10q0 -6 -5 -9l-12 -3t-26.5 -6.5t-26.5 -6.5t-13 -3q-12 -5 -12 -18v-58h-1q-1 -41 -4.5 -81t-9.5 -79q-8 -48 -32.5 -85t-60.5 -62t-80.5 -38.5t-92.5 -16.5q-1 -1 -2 -1v0h-10v-207q3 -6 10 -12q1 0 13 -3l26 -6.5
t25.5 -6.5l11.5 -3q6 -3 6 -9q0 -10 -10 -10l-233 1q-10 0 -10 10q0 6 6 9l11.5 3t25.5 6.5l26 6.5t13 3q7 6 10 12v206h-10q-48 0 -93 14t-81 40t-61 63.5t-33 84.5q-6 39 -9.5 79t-4.5 81h-1v58q0 13 -12 18q-1 0 -13 3t-26.5 6.5t-26.5 6.5l-12 3q-5 3 -5 9q0 10 10 10
h120q14 0 24.5 -10.5t10.5 -24.5v-45q-3 -65 4 -128.5t31 -113t67 -80t111 -30.5h10v376q0 12 -11 18q-1 0 -13.5 3t-26.5 6.5l-26 6.5l-12 3q-6 3 -6 9q0 10 10 10l239 -1q10 0 10 -10q0 -6 -6 -9l-12 -3l-26 -6.5t-26.5 -6.5t-13.5 -3q-11 -6 -11 -18v-375h1v1h9
q68 0 111 30.5t67 80t31 113t4 128.5v45v0z" />
    <glyph glyph-name="Omega" unicode="&#x3a9;" horiz-adv-x="676" 
d="M395 142q82 40 130 106t48 161q0 56 -17 103t-48 81.5t-75 53.5t-97 19t-95.5 -18.5t-72.5 -52t-46 -80t-16 -102.5q0 -95 47 -162t129 -107q0 -13 -0.5 -19.5t-0.5 -15.5v-24q0 -15 1 -46q0 -15 -9 -26t-24 -11h-194q-10 0 -10 11q0 6 5 9l12.5 3t28 6.5t28.5 7t14 3.5
q3 1 15.5 3t26.5 4.5t25.5 5.5t11.5 6v65q-90 37 -138 111t-48 169q0 71 23 130t64.5 101t99.5 65t128 23q69 0 126 -22t98 -63t63.5 -99t22.5 -129q0 -46 -13 -89t-37 -80.5t-59 -67.5t-78 -49q0 -7 0.5 -9t0.5 -7q0 -4 0.5 -14.5t0.5 -33.5q0 -3 10 -6t22.5 -5.5t24 -4.5
t14.5 -3q1 0 15 -3.5t30.5 -7t30 -6.5l13.5 -3q5 -3 5 -9q0 -11 -11 -11h-189q-15 0 -25.5 11t-10.5 26v102z" />
    <glyph glyph-name="Iotadieresis" unicode="&#x3aa;" horiz-adv-x="300" 
d="M32 2q-10 0 -10 10q0 6 6 9l11.5 3t25.5 6.5l26 6.5t13 3q7 6 10 12v624q0 12 -11 18q-1 0 -13.5 3t-26.5 6.5l-26 6.5l-12 3q-6 3 -6 9q0 10 10 10l239 -1q10 0 10 -10q0 -6 -6 -9l-12 -3l-26 -6.5t-26.5 -6.5t-13.5 -3q-11 -6 -11 -18v-624q3 -6 10 -12q1 0 13 -3
l26 -6.5t25.5 -6.5l11.5 -3q6 -3 6 -9q0 -10 -10 -10zM195 815q0 16 11.5 27t27.5 11q17 -1 28.5 -12t11.5 -27t-11.5 -27.5t-28.5 -11.5q-16 0 -27.5 11.5t-11.5 27.5v1zM24 814q0 16 11.5 27t27.5 11q17 -1 28.5 -12t11.5 -27t-11.5 -27.5t-28.5 -11.5q-16 0 -27.5 11.5
t-11.5 27.5v1z" />
    <glyph glyph-name="Upsilondieresis" unicode="&#x3ab;" horiz-adv-x="487" 
d="M15 685q-2 6 -2 11q0 14 10 24.5t25 10.5h7h1h124q10 0 10 -10q0 -5 -6 -9l-12 -3l-26 -6.5t-26.5 -6.5t-13.5 -3q-5 -2 -8.5 -5t-2.5 -10l150 -325l150 326q-1 9 -11 13q-1 0 -13.5 3t-26.5 6.5l-26 6.5l-12 3q-6 4 -6 9q0 10 10 10h115q5 3 15 1q1 -1 3 -1
q14 -1 24 -11t10 -24q0 -5 -2 -11l-195 -462v-187v-3q-2 -14 -11.5 -23t-23.5 -9t-24 9t-11 23v4v187zM292 813q0 16 11.5 27t27.5 11q17 -1 28.5 -12t11.5 -27t-11.5 -27.5t-28.5 -11.5q-16 0 -27.5 11.5t-11.5 27.5v1zM121 812q0 16 11.5 27t27.5 11q17 -1 28.5 -12
t11.5 -27t-11.5 -27.5t-28.5 -11.5q-16 0 -27.5 11.5t-11.5 27.5v1z" />
    <glyph glyph-name="alphatonos" unicode="&#x3ac;" horiz-adv-x="515" 
d="M64 536q-3 -7 -12.5 -9t-17.5 1q-8 4 -9.5 13t2.5 17l68 155q5 14 19.5 17t26.5 -4q13 -7 17.5 -21.5t-3.5 -25.5l-91 -142v-1zM253 580l-86 -260h170zM505 35q0 -14 -10.5 -24.5t-24.5 -10.5h-132q-10 0 -10 10q0 6 6 9l12 3l26 6.5t26.5 6.5t13.5 3q5 2 9 7t-1 19
l-60 186h-217l-79 -237q-2 -8 -9.5 -11.5t-15.5 -1.5t-11.5 9.5t-1.5 15.5q1 2 10 35t25 91t35.5 126t39.5 140t37.5 133.5t30.5 106.5t17 58q10 21 32 21q11 0 20 -6.5t13 -17.5l217 -666q2 -6 2 -11z" />
    <glyph glyph-name="epsilontonos" unicode="&#x3ad;" horiz-adv-x="624" 
d="M260 367h204q12 0 18 11q0 1 3 13.5t6.5 26.5l6.5 26l3 12q3 6 9 6q10 0 10 -10v-120q0 -14 -10.5 -24.5t-24.5 -10.5h-225l-20 -192q-2 -14 9.5 -24.5t25.5 -10.5q2 0 28 -3t68 -7.5t83.5 -9t74.5 -7.5t41 -3t14 -6t6 -14t-6 -14t-14 -6h-345q-14 0 -24.5 10.5
t-10.5 24.5v660q0 14 10.5 24.5t24.5 10.5h345q8 0 14 -6t6 -14t-6 -14t-14 -6t-39 -3t-69.5 -7.5t-77.5 -9t-63 -7.5t-26 -3q-15 -2 -25 -11.5t-10 -23.5v-258zM54 532l91 142q8 11 3.5 25.5t-17.5 21.5q-12 7 -26.5 4t-19.5 -17l-68 -155q-4 -8 -2.5 -17t9.5 -13
q8 -3 17.5 -1t12.5 9v1z" />
    <glyph glyph-name="etatonos" unicode="&#x3ae;" horiz-adv-x="641" 
d="M511 56v307h-260l-30 -343q-1 -8 -6.5 -14t-13.5 -6t-14 6t-6 14v675q0 14 10.5 24.5t24.5 10.5h120q10 0 10 -10q0 -6 -6 -9l-12 -3l-26 -6.5t-26.5 -6.5t-13.5 -3q-11 -6 -11 -18v-241h260v262q0 14 10.5 24.5t24.5 10.5t24.5 -10.5t10.5 -24.5v-660q0 -14 -10.5 -24.5
t-24.5 -10.5h-120q-10 0 -10 10q0 6 6 9l12 3l26 6.5t26.5 6.5t13.5 3q11 5 11 18zM53 532l91 142q8 11 3.5 25.5t-17.5 21.5q-12 7 -26.5 4t-19.5 -17l-68 -155q-4 -8 -2.5 -17t9.5 -13q8 -3 17.5 -1t12.5 9v1z" />
    <glyph glyph-name="iotatonos" unicode="&#x3af;" horiz-adv-x="449" 
d="M181 2q-10 0 -10 10q0 6 6 9l11.5 3t25.5 6.5l26 6.5t13 3q7 6 10 12v624q0 12 -11 18q-1 0 -13.5 3t-26.5 6.5l-26 6.5l-12 3q-6 3 -6 9q0 10 10 10l239 -1q10 0 10 -10q0 -6 -6 -9l-12 -3l-26 -6.5t-26.5 -6.5t-13.5 -3q-11 -6 -11 -18v-624q3 -6 10 -12q1 0 13 -3
l26 -6.5t25.5 -6.5l11.5 -3q6 -3 6 -9q0 -10 -10 -10zM54 531q-3 -7 -12.5 -9t-17.5 1q-8 4 -9.5 13t2.5 17l68 155q5 14 19.5 17t26.5 -4q13 -7 17.5 -21.5t-3.5 -25.5l-91 -142v-1z" />
    <glyph glyph-name="upsilondieresistonos" unicode="&#x3b0;" horiz-adv-x="487" 
d="M15 685q-2 6 -2 11q0 14 10 24.5t25 10.5h7h1h124q10 0 10 -10q0 -5 -6 -9l-12 -3l-26 -6.5t-26.5 -6.5t-13.5 -3q-5 -2 -8.5 -5t-2.5 -10l150 -325l150 326q-1 9 -11 13q-1 0 -13.5 3t-26.5 6.5l-26 6.5l-12 3q-6 4 -6 9q0 10 10 10h115q5 3 15 1q1 -1 3 -1
q14 -1 24 -11t10 -24q0 -5 -2 -11l-195 -462v-187v-3q-2 -14 -11.5 -23t-23.5 -9t-24 9t-11 23v4v187zM302 813q0 16 11.5 27t27.5 11q17 -1 28.5 -12t11.5 -27t-11.5 -27.5t-28.5 -11.5q-16 0 -27.5 11.5t-11.5 27.5v1zM109 812q0 16 11.5 27t27.5 11q17 -1 28.5 -12
t11.5 -27t-11.5 -27.5t-28.5 -11.5q-16 0 -27.5 11.5t-11.5 27.5v1zM268 729q0 -8 -6.5 -14.5t-15.5 -8.5q-8 0 -14 7t-7 16l-14 161q-1 14 10 24.5t25 10.5t25 -10.5t10 -24.5l-14 -161h1z" />
    <glyph glyph-name="alpha" unicode="&#x3b1;" horiz-adv-x="499" 
d="M237 580l-86 -260h170zM489 35q0 -14 -10.5 -24.5t-24.5 -10.5h-132q-10 0 -10 10q0 6 6 9l12 3l26 6.5t26.5 6.5t13.5 3q5 2 9 7t-1 19l-60 186h-217l-79 -237q-2 -8 -9.5 -11.5t-15.5 -1.5t-11.5 9.5t-1.5 15.5q1 2 10 35t25 91t35.5 126t39.5 140t37.5 133.5
t30.5 106.5t17 58q10 21 32 21q11 0 20 -6.5t13 -17.5l217 -666q2 -6 2 -11z" />
    <glyph glyph-name="beta" unicode="&#x3b2;" 
d="M390 291q0 27 -18 47.5t-44 24.5h-198v-273q0 -8 6 -14t14 -6h178q26 4 44 24.5t18 47.5v149zM390 588q0 27 -18 47.5t-44 24.5h-198q-8 0 -14.5 -6t-5.5 -14l20 -207h198q26 4 44 24.5t18 47.5v83zM460 140q0 -29 -13 -54.5t-35.5 -44.5t-52.5 -30t-64 -11h-200
q-14 0 -24.5 10.5t-10.5 24.5v660q0 14 10.5 24.5t24.5 10.5h200q34 0 64 -11t52.5 -30t35.5 -44.5t13 -54.5v-87q0 -16 -7 -33t-18 -31.5t-25 -26t-28 -16.5q14 -5 28 -15.5t25 -24.5t18 -30.5t7 -32.5v-153v0z" />
    <glyph glyph-name="gamma" unicode="&#x3b3;" horiz-adv-x="500" 
d="M173 506l-31 -478q0 -12 -8 -20t-19 -8q-12 0 -20 8t-8 20v623q0 17 -14 24q-2 0 -10 4t-17 8t-16.5 7.5l-7.5 3.5q-8 5 -8 13q0 14 13 14h108t81 0.5t62 0.5q28 0 53.5 -0.5t53 -1.5t62.5 -2q17 -2 26 -15.5t9 -30.5v-164q0 -6 -5 -10t-10 -4q-9 0 -12 8l-36 144
q-6 9 -15 13q-12 3 -25 5.5t-27 2.5q-39 0 -71.5 -7.5t-56 -26.5t-37 -50.5t-14.5 -80.5z" />
    <glyph glyph-name="delta" unicode="&#x3b4;" horiz-adv-x="499" 
d="M237 579l-176 -530q17 4 31.5 9t16.5 5q81 6 135 4.5t88.5 -6t52 -10t23 -7.5t3.5 2t-7 19zM39 1q-5 -4 -16 -2q-8 2 -11.5 9.5t-1.5 15.5q1 2 10 35t25 91t35.5 126t39.5 140t37.5 133.5t30.5 106.5t17 58q10 21 32 21q11 0 20 -6.5t13 -17.5l217 -664q2 -6 2 -11
q0 -14 -10.5 -24.5t-24.5 -10.5h-415z" />
    <glyph glyph-name="epsilon" unicode="&#x3b5;" 
d="M130 367h204q12 0 18 11q0 1 3 13.5t6.5 26.5l6.5 26l3 12q3 6 9 6q10 0 10 -10v-120q0 -14 -10.5 -24.5t-24.5 -10.5h-225l-20 -192q-2 -14 9.5 -24.5t25.5 -10.5q2 0 28 -3t68 -7.5t83.5 -9t74.5 -7.5t41 -3t14 -6t6 -14t-6 -14t-14 -6h-345q-14 0 -24.5 10.5
t-10.5 24.5v660q0 14 10.5 24.5t24.5 10.5h345q8 0 14 -6t6 -14t-6 -14t-14 -6t-39 -3t-69.5 -7.5t-77.5 -9t-63 -7.5t-26 -3q-15 -2 -25 -11.5t-10 -23.5v-258z" />
    <glyph glyph-name="zeta" unicode="&#x3b6;" horiz-adv-x="460" 
d="M30 35q0 8 3 14l292 589q8 12 5.5 17.5t-6.5 9.5l-238 25q-8 0 -14 6t-6 14t6 14t14 6h309q14 0 24.5 -10.5t10.5 -24.5q0 -8 -3 -14l-292 -589q-8 -12 -5.5 -18t6.5 -9l270 -25q8 0 14 -6t6 -14t-6 -14t-14 -6h-341q-14 0 -24.5 10.5t-10.5 24.5z" />
    <glyph glyph-name="eta" unicode="&#x3b7;" 
d="M390 56v307h-260l-30 -343q-1 -8 -6.5 -14t-13.5 -6t-14 6t-6 14v675q0 14 10.5 24.5t24.5 10.5h120q10 0 10 -10q0 -6 -6 -9l-12 -3l-26 -6.5t-26.5 -6.5t-13.5 -3q-11 -6 -11 -18v-241h260v262q0 14 10.5 24.5t24.5 10.5t24.5 -10.5t10.5 -24.5v-660q0 -14 -10.5 -24.5
t-24.5 -10.5h-120q-10 0 -10 10q0 6 6 9l12 3l26 6.5t26.5 6.5t13.5 3q11 5 11 18z" />
    <glyph glyph-name="theta" unicode="&#x3b8;" horiz-adv-x="560" 
d="M184 235q-10 0 -10 10v232q0 10 10 10q6 0 9 -6l3 -11.5t6.5 -25.5l6.5 -26t3 -13q3 -6 9 -9h107q7 3 11 10q0 1 3 13.5t6.5 26.5l6.5 26l3 12q3 6 9 6q10 0 10 -10v-238q0 -10 -10 -10q-6 0 -9 6l-3 12l-6.5 26t-6.5 26.5t-3 13.5q-4 7 -11 10h-107q-5 -2 -9 -9
q0 -1 -3 -13l-6.5 -26t-6.5 -25.5l-3 -11.5q-3 -6 -9 -6zM430 546q0 25 -13.5 46.5t-34.5 38t-48 26t-54 9.5t-54 -9.5t-48 -26t-34.5 -38t-13.5 -46.5v-362q0 -25 13.5 -46.5t34.5 -38t48 -26t54 -9.5t54 9.5t48 26t34.5 38t13.5 46.5v362zM500 169q0 -36 -19 -68t-50 -56
t-70.5 -37.5t-80.5 -13.5t-80.5 13.5t-70.5 37.5t-50 56t-19 68v392q0 36 19 68t50 56t70.5 37.5t80.5 13.5t80.5 -13.5t70.5 -37.5t50 -56t19 -68v-392v0z" />
    <glyph glyph-name="iota" unicode="&#x3b9;" horiz-adv-x="300" 
d="M32 2q-10 0 -10 10q0 6 6 9l11.5 3t25.5 6.5l26 6.5t13 3q7 6 10 12v624q0 12 -11 18q-1 0 -13.5 3t-26.5 6.5l-26 6.5l-12 3q-6 3 -6 9q0 10 10 10l239 -1q10 0 10 -10q0 -6 -6 -9l-12 -3l-26 -6.5t-26.5 -6.5t-13.5 -3q-11 -6 -11 -18v-624q3 -6 10 -12q1 0 13 -3
l26 -6.5t25.5 -6.5l11.5 -3q6 -3 6 -9q0 -10 -10 -10z" />
    <glyph glyph-name="kappa" unicode="&#x3ba;" horiz-adv-x="535" 
d="M175 35q0 -14 -10.5 -24.5t-24.5 -10.5q-15 0 -25 10.5t-10 24.5v639q0 13 -12 18q-1 0 -13 3t-26.5 6.5t-26.5 6.5l-12 3q-5 3 -5 9q0 10 10 10h120q14 0 24.5 -10.5t10.5 -24.5v-242q0 -8 5.5 -14t14.5 -6q6 0 13 5l239 283q12 15 29 5q7 -5 7.5 -13t-4.5 -15
l-214 -297l244 -337q4 -5 10 -14.5t6 -17.5q0 -14 -10.5 -23t-24.5 -9h-122q-10 0 -10 10q0 6 5 9l7.5 3t16.5 6.5t17 6.5t9 3l6 3t6.5 5t2 7.5t-6.5 10.5l-213 294q-7 5 -13 5q-9 0 -14.5 -6t-5.5 -14v-308v0z" />
    <glyph glyph-name="lambda" unicode="&#x3bb;" horiz-adv-x="499" 
d="M237 580l-189 -567q-2 -8 -9.5 -11.5t-15.5 -1.5t-11.5 9.5t-1.5 15.5q1 2 10 35t25 91t35.5 126t39.5 140t37.5 133.5t30.5 106.5t17 58q10 21 32 21q11 0 20 -6.5t13 -17.5l217 -666q2 -6 2 -11q0 -14 -10.5 -24.5t-24.5 -10.5h-132q-10 0 -10 10q0 6 6 9l12 3l26 6.5
t26.5 6.5t13.5 3q5 2 9 7t-1 19z" />
    <glyph glyph-name="nu" unicode="&#x3bd;" horiz-adv-x="562" 
d="M502 35q1 -14 -10 -24.5t-25 -10.5q-11 0 -19 6.5t-13 15.5l-305 536v-502q0 -13 11 -18q1 0 13.5 -3t26.5 -6.5l26 -6.5l12 -3q6 -3 6 -9q0 -10 -10 -10h-120q-14 0 -24.5 10.5t-10.5 24.5v660q0 14 10.5 24.5t25.5 10.5q19 0 31 -20l305 -550v550q0 8 6 14t14 6t14 -6
t6 -14l30 -675v0z" />
    <glyph glyph-name="xi" unicode="&#x3be;" horiz-adv-x="502" 
d="M62 1h371q4 0 12 2q9 1 14 10q9 10 9 23v119q0 10 -10 10q-6 0 -9 -6l-3 -12l-6.5 -26t-6.5 -26.5t-3 -13.5q-6 -11 -18 -11h-318v-1q-5 1 -9.5 4t-6.5 7q0 1 -3 13l-6.5 26t-6.5 25.5l-3 11.5q-3 6 -9 6q-10 0 -10 -10v-118q0 -13 8 -23q5 -9 14 -10zM59 729h371
q4 0 12 -2q9 -1 14 -10q9 -11 9 -23v-119q0 -10 -10 -10q-6 0 -9 6l-3 12l-6.5 26t-6.5 26.5t-3 13.5q-6 11 -18 11h-318v1q-5 -1 -9.5 -4t-6.5 -7q0 -1 -3 -13l-6.5 -26t-6.5 -25.5l-3 -11.5q-3 -6 -9 -6q-10 0 -10 10v118q0 13 8 23q5 9 14 10zM132 225q6 0 9 6l3 11.5
t6.5 25.5l6.5 26t3 13q4 7 9 9h157q7 -3 11 -10q0 -1 3 -13.5t6.5 -26.5l6.5 -26l3 -12q3 -6 9 -6q10 0 10 10v238q0 10 -10 10q-6 0 -9 -6l-3 -12l-6.5 -26t-6.5 -26.5t-3 -13.5q-4 -7 -11 -10h-157q-6 3 -9 9q0 1 -3 13l-6.5 26t-6.5 25.5l-3 11.5q-3 6 -9 6
q-10 0 -10 -10v-232q0 -10 10 -10z" />
    <glyph glyph-name="omicron" unicode="&#x3bf;" horiz-adv-x="560" 
d="M430 546q0 25 -13.5 46.5t-34.5 38t-48 26t-54 9.5t-54 -9.5t-48 -26t-34.5 -38t-13.5 -46.5v-362q0 -25 13.5 -46.5t34.5 -38t48 -26t54 -9.5t54 9.5t48 26t34.5 38t13.5 46.5v362zM500 169q0 -36 -19 -68t-50 -56t-70.5 -37.5t-80.5 -13.5t-80.5 13.5t-70.5 37.5
t-50 56t-19 68v392q0 36 19 68t50 56t70.5 37.5t80.5 13.5t80.5 -13.5t70.5 -37.5t50 -56t19 -68v-392v0z" />
    <glyph glyph-name="pi" unicode="&#x3c0;" horiz-adv-x="806" 
d="M228 48q0 -20 -12 -33.5t-29 -13.5h-143q-5 0 -9 3.5t-4 10.5t9 12l14 4t30.5 8.5t31 8.5t15.5 4q14 6 14 24l1 557q0 9 -4.5 15.5t-9.5 9.5q-2 0 -16 4t-31 8.5t-30.5 8.5l-13.5 4q-9 4 -9 12q0 14 13 14h158q11 0 18 -8t7 -19v-58l13 14.5t34.5 32t49 32t56.5 14.5h62
q29 0 56.5 -14.5t49.5 -32t35 -32l13 -14.5v58q0 11 7 19t18 8h158q12 0 12 -14q0 -8 -8 -12l-14 -4t-31 -8.5t-31 -8.5t-15 -4q-5 -3 -9.5 -9.5t-4.5 -15.5v-557q0 -18 13 -24q1 0 15.5 -4t31.5 -8.5t31 -8.5l14 -4l5 -5t3 -7q0 -7 -4 -10.5t-8 -3.5h-143q-17 0 -28.5 13.5
t-11.5 33.5v414q0 33 -12 65t-33 57t-49 40t-60 15h-62q-32 0 -59.5 -15t-48.5 -40t-33 -57t-12 -65v-414v0z" />
    <glyph glyph-name="rho" unicode="&#x3c1;" 
d="M390 588q0 27 -18 47.5t-44 24.5h-198q-8 0 -14.5 -6t-5.5 -14l20 -207h198q26 4 44 24.5t18 47.5v83zM460 503q0 -29 -13 -54.5t-35.5 -44.5t-52.5 -30t-64 -11h-165l-30 -343q-1 -8 -6.5 -14t-13.5 -6t-14 6t-6 14v675q0 14 10.5 24.5t24.5 10.5h200q34 0 64 -11
t52.5 -30t35.5 -44.5t13 -54.5v-87v0z" />
    <glyph glyph-name="sigma1" unicode="&#x3c2;" horiz-adv-x="466" 
d="M372 -33q4 4 4 8t-8 7.5t-26 8t-49 10.5h-80q-38 0 -71.5 12.5t-58 34.5t-39 51t-14.5 62v209q0 33 14.5 62t39 51t58 34.5t71.5 12.5h203q8 0 14 -6t6 -14t-6 -14t-14 -6l-233 -25q-35 -4 -59 -30t-24 -62v-209q0 -19 7 -36t20 -29.5t29.5 -20t36.5 -7.5h78
q7 0 29.5 -4.5t49 -13.5t50.5 -23.5t34 -34t0.5 -44.5t-50.5 -56l-132 -99q-6 -5 -14.5 -3.5t-13.5 7.5q-5 7 -4 15t8 13l144 139v0z" />
    <glyph glyph-name="sigma" unicode="&#x3c3;" horiz-adv-x="524" 
d="M148 586l174 -200q5 -4 10 -9.5t3 -11.5q0 -7 -4.5 -13t-8.5 -8l-176 -191l264 -60q16 0 19 7t5 13q0 1 -1 16.5t-2.5 33.5t-2.5 32.5l-1 14.5q1 3 3 5.5t4 5.5q9 1 12 -9q1 -2 5.5 -18.5t11 -38t12.5 -44t10 -36.5t4 -15q4 -17 -3 -33t-21 -21q-4 0 -10 -2l-395 87
q-24 2 -34 29q-6 26 9 43q17 15 48 42t64.5 57t65.5 58.5t52 45.5q-20 16 -52 44.5t-65.5 59t-64.5 58t-48 42.5q-15 17 -9 43q10 26 34 28l395 86q2 -1 5 -2t5 -1q14 -5 21 -21t3 -34l-6.5 -22.5t-14 -50.5t-14.5 -51.5t-8 -26.5q-3 -10 -12 -8q-6 4 -7 11l1 14.5t2.5 32.5
t2.5 33t1 17q-2 6 -5 12.5t-19 6.5z" />
    <glyph glyph-name="tau" unicode="&#x3c4;" horiz-adv-x="470" 
d="M200 20v640h-114q-13 0 -18 -11q0 -1 -3 -13.5t-6.5 -26.5l-6.5 -26l-3 -12q-3 -6 -9 -6q-10 0 -10 10v120q0 14 10.5 24.5t24.5 10.5h355q8 0 14 -6t6 -14t-6 -14t-14 -6l-150 -25l-30 -645q-1 -8 -6.5 -14t-13.5 -6t-14 6t-6 14z" />
    <glyph glyph-name="upsilon" unicode="&#x3c5;" horiz-adv-x="487" 
d="M15 685q-2 6 -2 11q0 14 10 24.5t25 10.5h7h1h124q10 0 10 -10q0 -5 -6 -9l-12 -3l-26 -6.5t-26.5 -6.5t-13.5 -3q-5 -2 -8.5 -5t-2.5 -10l150 -325l150 326q-1 9 -11 13q-1 0 -13.5 3t-26.5 6.5l-26 6.5l-12 3q-6 4 -6 9q0 10 10 10h115q5 3 15 1q1 -1 3 -1
q14 -1 24 -11t10 -24q0 -5 -2 -11l-195 -462v-187v-3q-2 -14 -11.5 -23t-23.5 -9t-24 9t-11 23v4v187z" />
    <glyph glyph-name="phi" unicode="&#x3c6;" horiz-adv-x="750" 
d="M410 558v-392h3q46 0 85.5 15.5t67.5 43.5t44 66.5t16 84.5q0 43 -17.5 77t-46.5 57t-68 35.5t-81 12.5h-3zM336 558q-39 1 -77 -13.5t-68.5 -40t-49.5 -60.5t-19 -75q0 -44 18 -81t47.5 -64t68 -42.5t80.5 -15.5h5v392h-5v0zM259 1q-10 0 -10 10q0 6 6 9l11.5 3
t25.5 6.5l26 6.5t13 3q7 6 10 12v71h-5q-54 0 -106.5 15.5t-94 45.5t-67.5 74.5t-26 102.5t25.5 103t67 75t94.5 45.5t108 15.5h4v76q0 12 -11 18q-1 0 -13.5 3t-26.5 6.5t-26 6l-12 2.5q-6 3 -6 9q0 10 10 10h239q10 0 10 -10q0 -6 -6 -9l-12 -3l-26 -6.5t-26.5 -6.5
t-13.5 -3q-11 -6 -11 -18v-75h3q57 0 110 -13t94 -41.5t65.5 -72.5t24.5 -105q0 -56 -26.5 -101t-68.5 -77t-94.5 -49.5t-104.5 -17.5h-3v-72q3 -6 10 -12q1 0 13 -3l26 -6.5t25.5 -6.5l11.5 -3q6 -3 6 -9q0 -10 -10 -10z" />
    <glyph glyph-name="chi" unicode="&#x3c7;" horiz-adv-x="482" 
d="M24 699q-4 7 -3 15t8 13t15 4t13 -8l169 -293l169 293q4 7 12.5 8t15.5 -4t8 -13t-4 -15l-139 -311l182 -342q2 -6 2 -11q0 -14 -10.5 -24.5t-24.5 -10.5h-132q-10 0 -10 10q0 6 5 9l12 3t26.5 6.5t26.5 6.5t13 3q5 2 9.5 7t-0.5 19l-164 276l-178 -330q-5 -7 -12.5 -9.5
t-14.5 1.5q-8 4 -10 12t2 15l152 359l-138 311v0z" />
    <glyph glyph-name="psi" unicode="&#x3c8;" horiz-adv-x="881" 
d="M702 696q0 14 10.5 24.5t24.5 10.5h120q10 0 10 -10q0 -6 -5 -9l-12 -3t-26.5 -6.5t-26.5 -6.5t-13 -3q-12 -5 -12 -18v-58h-1q-1 -41 -4.5 -81t-9.5 -79q-8 -48 -32.5 -85t-60.5 -62t-80.5 -38.5t-92.5 -16.5q-1 -1 -2 -1v0h-10v-207q3 -6 10 -12q1 0 13 -3l26 -6.5
t25.5 -6.5l11.5 -3q6 -3 6 -9q0 -10 -10 -10l-233 1q-10 0 -10 10q0 6 6 9l11.5 3t25.5 6.5l26 6.5t13 3q7 6 10 12v206h-10q-48 0 -93 14t-81 40t-61 63.5t-33 84.5q-6 39 -9.5 79t-4.5 81h-1v58q0 13 -12 18q-1 0 -13 3t-26.5 6.5t-26.5 6.5l-12 3q-5 3 -5 9q0 10 10 10
h120q14 0 24.5 -10.5t10.5 -24.5v-45q-3 -65 4 -128.5t31 -113t67 -80t111 -30.5h10v376q0 12 -11 18q-1 0 -13.5 3t-26.5 6.5l-26 6.5l-12 3q-6 3 -6 9q0 10 10 10l239 -1q10 0 10 -10q0 -6 -6 -9l-12 -3l-26 -6.5t-26.5 -6.5t-13.5 -3q-11 -6 -11 -18v-375h1v1h9
q68 0 111 30.5t67 80t31 113t4 128.5v45v0z" />
    <glyph glyph-name="omega" unicode="&#x3c9;" horiz-adv-x="676" 
d="M395 142q82 40 130 106t48 161q0 56 -17 103t-48 81.5t-75 53.5t-97 19t-95.5 -18.5t-72.5 -52t-46 -80t-16 -102.5q0 -95 47 -162t129 -107q0 -13 -0.5 -19.5t-0.5 -15.5v-24q0 -15 1 -46q0 -15 -9 -26t-24 -11h-194q-10 0 -10 11q0 6 5 9l12.5 3t28 6.5t28.5 7t14 3.5
q3 1 15.5 3t26.5 4.5t25.5 5.5t11.5 6v65q-90 37 -138 111t-48 169q0 71 23 130t64.5 101t99.5 65t128 23q69 0 126 -22t98 -63t63.5 -99t22.5 -129q0 -46 -13 -89t-37 -80.5t-59 -67.5t-78 -49q0 -7 0.5 -9t0.5 -7q0 -4 0.5 -14.5t0.5 -33.5q0 -3 10 -6t22.5 -5.5t24 -4.5
t14.5 -3q1 0 15 -3.5t30.5 -7t30 -6.5l13.5 -3q5 -3 5 -9q0 -11 -11 -11h-189q-15 0 -25.5 11t-10.5 26v102z" />
    <glyph glyph-name="iotadieresis" unicode="&#x3ca;" horiz-adv-x="300" 
d="M194 815q0 16 11.5 27t27.5 11q17 -1 28.5 -12t11.5 -27t-11.5 -27.5t-28.5 -11.5q-16 0 -27.5 11.5t-11.5 27.5v1zM23 814q0 16 11.5 27t27.5 11q17 -1 28.5 -12t11.5 -27t-11.5 -27.5t-28.5 -11.5q-16 0 -27.5 11.5t-11.5 27.5v1zM32 2q-10 0 -10 10q0 6 6 9l11.5 3
t25.5 6.5l26 6.5t13 3q7 6 10 12v624q0 12 -11 18q-1 0 -13.5 3t-26.5 6.5l-26 6.5l-12 3q-6 3 -6 9q0 10 10 10l239 -1q10 0 10 -10q0 -6 -6 -9l-12 -3l-26 -6.5t-26.5 -6.5t-13.5 -3q-11 -6 -11 -18v-624q3 -6 10 -12q1 0 13 -3l26 -6.5t25.5 -6.5l11.5 -3q6 -3 6 -9
q0 -10 -10 -10z" />
    <glyph glyph-name="upsilondieresis" unicode="&#x3cb;" horiz-adv-x="487" 
d="M291 813q0 16 11.5 27t27.5 11q17 -1 28.5 -12t11.5 -27t-11.5 -27.5t-28.5 -11.5q-16 0 -27.5 11.5t-11.5 27.5v1zM120 812q0 16 11.5 27t27.5 11q17 -1 28.5 -12t11.5 -27t-11.5 -27.5t-28.5 -11.5q-16 0 -27.5 11.5t-11.5 27.5v1zM15 685q-2 6 -2 11q0 14 10 24.5
t25 10.5h7h1h124q10 0 10 -10q0 -5 -6 -9l-12 -3l-26 -6.5t-26.5 -6.5t-13.5 -3q-5 -2 -8.5 -5t-2.5 -10l150 -325l150 326q-1 9 -11 13q-1 0 -13.5 3t-26.5 6.5l-26 6.5l-12 3q-6 4 -6 9q0 10 10 10h115q5 3 15 1q1 -1 3 -1q14 -1 24 -11t10 -24q0 -5 -2 -11l-195 -462
v-187v-3q-2 -14 -11.5 -23t-23.5 -9t-24 9t-11 23v4v187z" />
    <glyph glyph-name="omicrontonos" unicode="&#x3cc;" horiz-adv-x="648" 
d="M56 532q-3 -7 -12.5 -9t-17.5 1q-8 4 -9.5 13t2.5 17l68 155q5 14 19.5 17t26.5 -4q13 -7 17.5 -21.5t-3.5 -25.5l-91 -142v-1zM536 546q0 25 -13.5 46.5t-34.5 38t-48 26t-54 9.5t-54 -9.5t-48 -26t-34.5 -38t-13.5 -46.5v-362q0 -25 13.5 -46.5t34.5 -38t48 -26
t54 -9.5t54 9.5t48 26t34.5 38t13.5 46.5v362zM606 169q0 -36 -19 -68t-50 -56t-70.5 -37.5t-80.5 -13.5t-80.5 13.5t-70.5 37.5t-50 56t-19 68v392q0 36 19 68t50 56t70.5 37.5t80.5 13.5t80.5 -13.5t70.5 -37.5t50 -56t19 -68v-392v0z" />
    <glyph glyph-name="upsilontonos" unicode="&#x3cd;" horiz-adv-x="649" 
d="M55 530q-3 -7 -12.5 -9t-17.5 1q-8 4 -9.5 13t2.5 17l68 155q5 14 19.5 17t26.5 -4q13 -7 17.5 -21.5t-3.5 -25.5l-91 -142v-1zM177 685q-2 6 -2 11q0 14 10 24.5t25 10.5h7h1h124q10 0 10 -10q0 -5 -6 -9l-12 -3l-26 -6.5t-26.5 -6.5t-13.5 -3q-5 -2 -8.5 -5t-2.5 -10
l150 -325l150 326q-1 9 -11 13q-1 0 -13.5 3t-26.5 6.5l-26 6.5l-12 3q-6 4 -6 9q0 10 10 10h115q5 3 15 1q1 -1 3 -1q14 -1 24 -11t10 -24q0 -5 -2 -11l-195 -462v-187v-3q-2 -14 -11.5 -23t-23.5 -9t-24 9t-11 23v4v187z" />
    <glyph glyph-name="omegatonos" unicode="&#x3ce;" horiz-adv-x="767" 
d="M62 530q-3 -7 -12.5 -9t-17.5 1q-8 4 -9.5 13t2.5 17l68 155q5 14 19.5 17t26.5 -4q13 -7 17.5 -21.5t-3.5 -25.5l-91 -142v-1zM486 142q82 40 130 106t48 161q0 56 -17 103t-48 81.5t-75 53.5t-97 19t-95.5 -18.5t-72.5 -52t-46 -80t-16 -102.5q0 -95 47 -162t129 -107
q0 -13 -0.5 -19.5t-0.5 -15.5v-24q0 -15 1 -46q0 -15 -9 -26t-24 -11h-194q-10 0 -10 11q0 6 5 9l12.5 3t28 6.5t28.5 7t14 3.5q3 1 15.5 3t26.5 4.5t25.5 5.5t11.5 6v65q-90 37 -138 111t-48 169q0 71 23 130t64.5 101t99.5 65t128 23q69 0 126 -22t98 -63t63.5 -99
t22.5 -129q0 -46 -13 -89t-37 -80.5t-59 -67.5t-78 -49q0 -7 0.5 -9t0.5 -7q0 -4 0.5 -14.5t0.5 -33.5q0 -3 10 -6t22.5 -5.5t24 -4.5t14.5 -3q1 0 15 -3.5t30.5 -7t30 -6.5l13.5 -3q5 -3 5 -9q0 -11 -11 -11h-189q-15 0 -25.5 11t-10.5 26v102z" />
    <glyph glyph-name="Upsilon1" unicode="&#x3d2;" horiz-adv-x="517" 
d="M29 685q-2 6 -2 11q0 14 10 24.5t25 10.5h7h1h124q10 0 10 -10q0 -5 -6 -9l-12 -3l-26 -6.5t-26.5 -6.5t-13.5 -3q-5 -2 -8.5 -5t-2.5 -10l150 -325l150 326q-1 9 -11 13q-1 0 -13.5 3t-26.5 6.5l-26 6.5l-12 3q-6 4 -6 9q0 10 10 10h115q5 3 15 1q1 -1 3 -1
q14 -1 24 -11t10 -24q0 -5 -2 -11l-195 -462v-187v-3q-2 -14 -11.5 -23t-23.5 -9t-24 9t-11 23v4v187z" />
    <glyph glyph-name="afii10023" unicode="&#x401;" 
d="M130 105q0 -14 10 -23.5t25 -11.5q2 0 26 -3t63 -7.5t77.5 -9t69.5 -7.5t39 -3t14 -6t6 -14t-6 -14t-14 -6h-345q-14 0 -24.5 10.5t-10.5 24.5v660q0 14 10.5 24.5t24.5 10.5h345q8 0 14 -6t6 -14t-6 -14t-14 -6t-41 -3t-74.5 -7.5t-83.5 -9t-68 -7.5t-28 -3
q-14 0 -25.5 -10.5t-9.5 -24.5l20 -192h225q14 0 24.5 -10.5t10.5 -24.5v-120q0 -10 -10 -10q-6 0 -9 6l-3 12l-6.5 26t-6.5 26.5t-3 13.5q-6 11 -18 11h-204v-258zM308 813q0 16 11.5 27t27.5 11q17 -1 28.5 -12t11.5 -27t-11.5 -27.5t-28.5 -11.5q-16 0 -27.5 11.5
t-11.5 27.5v1zM137 812q0 16 11.5 27t27.5 11q17 -1 28.5 -12t11.5 -27t-11.5 -27.5t-28.5 -11.5q-16 0 -27.5 11.5t-11.5 27.5v1z" />
    <glyph glyph-name="afii10051" unicode="&#x402;" horiz-adv-x="549" 
d="M200 660h-114q-13 0 -18 -11q0 -1 -3 -13.5t-6.5 -26.5l-6.5 -26l-3 -12q-3 -6 -9 -6q-10 0 -10 10v120q0 14 10.5 24.5t24.5 10.5l425 -1q8 0 14 -6t6 -14t-6 -14t-14 -6l-220 -24l-14 -289q9 4 24.5 9t34.5 8t39 3t38 -7q39 -15 68 -41t45.5 -58t19.5 -67t-10 -69
q-10 -27 -28.5 -67t-39 -80.5t-39.5 -78t-30.5 -59t-12.5 -23.5q-3 -8 -10.5 -11t-15.5 0q-8 2 -11 10t-1 16l118 304q9 23 7 47t-12.5 46t-29.5 39t-44 27q-29 11 -58.5 8.5t-53.5 -15.5l-14 -297q-1 -8 -6.5 -14t-13.5 -6t-14 6t-6 14v640z" />
    <glyph glyph-name="afii10052" unicode="&#x403;" horiz-adv-x="500" 
d="M173 506l-31 -478q0 -12 -8 -20t-19 -8q-12 0 -20 8t-8 20v623q0 17 -14 24q-2 0 -10 4t-17 8t-16.5 7.5l-7.5 3.5q-8 5 -8 13q0 14 13 14h108t81 0.5t62 0.5q28 0 53.5 -0.5t53 -1.5t62.5 -2q17 -2 26 -15.5t9 -30.5v-164q0 -6 -5 -10t-10 -4q-9 0 -12 8l-36 144
q-6 9 -15 13q-12 3 -25 5.5t-27 2.5q-39 0 -71.5 -7.5t-56 -26.5t-37 -50.5t-14.5 -80.5zM199 771q-6 -3 -14.5 -4.5t-13.5 3.5t-5.5 12t4.5 12l155 116l41 -71l-167 -67v-1z" />
    <glyph glyph-name="afii10053" unicode="&#x404;" horiz-adv-x="560" 
d="M130 305v-121q0 -21 10 -40.5t26.5 -35t38 -26.5t44.5 -15h1l175 -29q8 -1 14 -6.5t6 -13.5t-6 -14t-14 -6h-175v-2q-37 4 -71.5 19.5t-60.5 38.5t-42 52.5t-16 62.5v392q0 33 16 62.5t42 52.5t60.5 38t71.5 20v-2l175 -1q8 -1 14 -6.5t6 -13.5t-6 -14t-14 -6l-175 -27
v-1q-23 -5 -45 -15.5t-38.5 -26t-26.5 -35t-10 -40.5v-158l222 -20q8 -1 14 -6.5t6 -13.5t-6 -14t-14 -6z" />
    <glyph glyph-name="afii10054" unicode="&#x405;" horiz-adv-x="466" 
d="M100 593v-87q0 -30 21.5 -51.5t51.5 -21.5h80q38 0 71.5 -12.5t58 -34.5t39 -51t14.5 -62v-113q0 -33 -14.5 -62t-39 -51t-58 -34.5t-71.5 -12.5h-203q-8 0 -14 6t-6 14t6 14t14 6l233 25q35 4 59 30t24 62v113q0 19 -7 36t-20 29.5t-30 20t-36 7.5h-78q-34 0 -64 11
t-52.5 30.5t-35.5 45t-13 54.5v86q0 29 13 54.5t35.5 44.5t52.5 30t64 11h165q8 0 14 -6t6 -14t-6 -14t-14 -6l-198 -25q-26 -3 -44 -23.5t-18 -48.5z" />
    <glyph glyph-name="afii10056" unicode="&#x407;" horiz-adv-x="235" 
d="M181 813q0 16 11.5 27t27.5 11q17 -1 28.5 -12t11.5 -27t-11.5 -27.5t-28.5 -11.5q-16 0 -27.5 11.5t-11.5 27.5v1zM10 812q0 16 11.5 27t27.5 11q17 -1 28.5 -12t11.5 -27t-11.5 -27.5t-28.5 -11.5q-16 0 -27.5 11.5t-11.5 27.5v1zM191 695q1 14 -10 24.5t-25 10.5h-136
q-10 0 -10 -10q0 -6 6 -9l12 -3l26 -6.5t26.5 -6.5t13.5 -3q11 -6 11 -18v-654q0 -8 6 -14t14 -6t14 6t6 14l46 675v0z" />
    <glyph glyph-name="afii10057" unicode="&#x408;" horiz-adv-x="240" 
d="M110 674q0 12 -11 18q-1 0 -13.5 3t-26.5 6.5l-26 6.5l-12 3q-6 3 -6 9q0 10 10 10h120q14 0 24.5 -10.5t10.5 -24.5v-652q0 -29 -13 -54.5t-35.5 -44.5t-52.5 -30t-64 -11h-145q-8 0 -14 6t-6 14t6 14t14 6l178 25q26 4 44 24t18 48v634v0z" />
    <glyph glyph-name="afii10058" unicode="&#x409;" horiz-adv-x="887" 
d="M788 253q0 25 -10.5 46.5t-28 38t-41 26t-50.5 9.5q-55 0 -81.5 -6t-36.5 -18t-9.5 -30.5t-0.5 -43.5v-117q3 -22 1 -41t7 -33.5t35 -22.5t85 -8q27 0 50.5 9.5t41 26t28 38t10.5 46.5v80zM858 165q0 -36 -16 -68t-43 -56t-63.5 -37.5t-77.5 -13.5q-30 0 -54 1.5t-45 3
t-40.5 3t-39.5 1.5q-8 0 -13.5 6t-6.5 14v614q-6 24 -34 27l-11.5 2t-29 4.5t-38.5 6t-40 6.5l-137 -664q-2 -7 -6 -9q-5 -6 -13 -7.5t-23.5 7t-42 29t-67.5 58.5q-4 2 -4 6q0 5 2 7q3 3 5.5 3.5t5.5 0.5l10.5 -2.5t23.5 -5.5t24 -6t12 -3q5 -2 11.5 -1t12.5 14l117 608
q4 14 18 16q7 1 17 0h223q14 0 24.5 -10.5t10.5 -24.5v-259h128q41 0 77.5 -13.5t63.5 -37.5t43 -56t16 -68v-96v0z" />
    <glyph glyph-name="afii10059" unicode="&#x40a;" horiz-adv-x="788" 
d="M434 675v1q1 0 0 -2v1zM693 254q0 25 -10.5 46.5t-28 38t-41 26t-50.5 9.5q-55 0 -81.5 -6t-36.5 -18t-9.5 -30.5t-0.5 -43.5v-117q3 -22 1 -41t7 -33.5t35 -22.5t85 -8q27 0 50.5 9.5t41 26t28 38t10.5 46.5v80zM763 166q0 -36 -16 -68t-43 -56t-63.5 -37.5t-77.5 -13.5
q-30 0 -54 1.5t-45 3t-40.5 3t-39.5 1.5q-8 0 -13.5 6t-6.5 14v343h-260v-307q0 -13 11 -18q1 0 13.5 -3t26.5 -6.5l26 -6.5l12 -3q6 -3 6 -9q0 -10 -10 -10h-120q-14 0 -24.5 10.5t-10.5 24.5v660q0 14 10.5 24.5t24.5 10.5t24.5 -10.5t10.5 -24.5v-262h260v241
q0 12 -11 18q-1 0 -13.5 3t-26.5 6.5l-26 6.5l-12 3q-6 3 -6 9q0 10 10 10h120q14 0 24.5 -10.5t10.5 -24.5v-20q-1 0 -1 -3v1q1 0 1 1v-237h129q41 0 77.5 -13.5t63.5 -37.5t43 -56t16 -68v-96v0z" />
    <glyph glyph-name="afii10060" unicode="&#x40b;" horiz-adv-x="579" 
d="M200 660h-114q-13 0 -18 -11q0 -1 -3 -13.5t-6.5 -26.5l-6.5 -26l-3 -12q-3 -6 -9 -6q-10 0 -10 10v120q0 14 10.5 24.5t24.5 10.5l437 -1q8 0 14 -6t6 -14t-6 -14t-14 -6l-232 -24l-12 -266q18 14 41.5 25t49.5 11q42 0 78.5 -13.5t63.5 -37.5t42.5 -56t15.5 -68t-5 -78
t-10.5 -78t-10.5 -59.5l-5 -23.5q0 -8 -6 -14t-14 -6t-14 6t-6 14l1 224q0 25 -10 46.5t-28 38t-41.5 26t-50.5 9.5q-29 0 -53 -10t-42 -27l-14 -308q-1 -8 -6.5 -14t-13.5 -6t-14 6t-6 14v640z" />
    <glyph glyph-name="afii10061" unicode="&#x40c;" horiz-adv-x="535" 
d="M175 695v-308q0 -8 5.5 -14t14.5 -6q6 0 13 5l213 294q6 6 6.5 10.5t-2 7.5t-6.5 5l-6 3q-1 0 -9 3t-17 6.5t-16.5 6.5l-7.5 3q-5 3 -5 9q0 10 10 10h122q14 0 24.5 -9t10.5 -23q0 -8 -6 -17.5t-10 -14.5l-244 -337l214 -297q5 -7 4.5 -15t-7.5 -13q-17 -10 -29 5
l-239 283q-7 5 -13 5q-9 0 -14.5 -6t-5.5 -14v-242q0 -14 -10.5 -24.5t-24.5 -10.5h-120q-10 0 -10 10q0 6 5 9l12 3t26.5 6.5t26.5 6.5t13 3q12 5 12 18v639q0 14 10 24.5t25 10.5q14 0 24.5 -10.5t10.5 -24.5zM229 768q-6 -3 -14.5 -4.5t-13.5 3.5t-5.5 12t4.5 12l155 116
l41 -71l-167 -67v-1z" />
    <glyph glyph-name="afii10062" unicode="&#x40e;" horiz-adv-x="419" 
d="M151 39q-1 -7 -4.5 -15.5t-9 -14.5t-11 -8t-10.5 3q-5 6 -4.5 13t4.5 21l46 184q-5 16 -18 57.5t-30 95t-35.5 111.5t-33.5 106t-25 79.5l-10 31.5q-2 8 1.5 15.5t11.5 9.5t15 -1.5t10 -11.5q38 -94 62.5 -154t39.5 -95.5t22.5 -53.5t12 -28.5t8 -19t10.5 -26.5l10.5 27
t7 19t9 25.5t17 45.5t30 80t47.5 129q5 14 1 19t-9 7q-1 0 -13.5 3t-26.5 6.5l-26 6.5l-12 3q-6 4 -6 9q0 10 10 10h132q15 0 25 -10.5t10 -24.5q0 -5 -2 -11zM193 729q-23 0 -44 9.5t-37.5 27t-26.5 41t-11 50.5q-1 32 -0.5 41.5t14.5 8.5q7 0 15.5 -21t20 -45t27.5 -42.5
t39 -14.5q7 -3 20 -1t27.5 13t29 34t23.5 62q0 7 4.5 11.5t10.5 4.5q19 0 19 -15t-1 -35q-1 -30 -14 -54.5t-32 -41t-41.5 -25.5t-42.5 -8z" />
    <glyph glyph-name="afii10145" unicode="&#x40f;" horiz-adv-x="545" 
d="M302 -135q0 -8 -6.5 -14.5t-15.5 -8.5q-8 0 -14 7t-7 16l-14 131q-37 4 -71.5 19.5t-61 38.5t-42.5 52.5t-16 62.5v541q0 8 6 14t14 6t13.5 -6t6.5 -14q0 -1 1.5 -25.5t4.5 -67t6 -93.5t6 -105.5t6 -101.5t4.5 -83t1.5 -50q0 -21 12.5 -42.5t33.5 -39t49.5 -28
t60.5 -10.5q38 0 65.5 12t45 30t26 39t8.5 39q0 14 1.5 50t4.5 83t6 101.5t6 105.5t6 93.5t4.5 67t1.5 25.5q1 8 6.5 14t13.5 6t14 -6t6 -14v-541q0 -32 -14.5 -59t-39 -49t-58 -37.5t-72.5 -23.5l-10 -135h1z" />
    <glyph glyph-name="afii10017" unicode="&#x410;" horiz-adv-x="499" 
d="M237 580l-86 -260h170zM489 35q0 -14 -10.5 -24.5t-24.5 -10.5h-132q-10 0 -10 10q0 6 6 9l12 3l26 6.5t26.5 6.5t13.5 3q5 2 9 7t-1 19l-60 186h-217l-79 -237q-2 -8 -9.5 -11.5t-15.5 -1.5t-11.5 9.5t-1.5 15.5q1 2 10 35t25 91t35.5 126t39.5 140t37.5 133.5
t30.5 106.5t17 58q10 21 32 21q11 0 20 -6.5t13 -17.5l217 -666q2 -6 2 -11z" />
    <glyph glyph-name="afii10018" unicode="&#x411;" horiz-adv-x="645" 
d="M550 254q0 25 -10.5 46.5t-28 38t-41 26t-50.5 9.5q-55 0 -81.5 -6t-36.5 -18t-9.5 -30.5t-0.5 -43.5v-117q3 -22 1 -41t7 -33.5t35 -22.5t85 -8q27 0 50.5 9.5t41 26t28 38t10.5 46.5v80zM221 695q0 14 10.5 24.5t24.5 10.5l276 -1q10 0 10 -10q0 -6 -6 -9
q-2 0 -24 -5.5t-57.5 -13.5t-69 -16t-58 -14t-25.5 -6q-11 -6 -11 -18v-200h129q41 0 77.5 -13.5t63.5 -37.5t43 -56t16 -68v-96q0 -36 -16 -68t-43 -56t-63.5 -37.5t-77.5 -13.5q-30 0 -54 1.5t-45 3t-40.5 3t-39.5 1.5q-8 0 -13.5 6t-6.5 14v654v-1q1 0 1 -1q0 3 -1 3v20z
" />
    <glyph glyph-name="afii10019" unicode="&#x412;" 
d="M390 291q0 27 -18 47.5t-44 24.5h-198v-273q0 -8 6 -14t14 -6h178q26 4 44 24.5t18 47.5v149zM390 588q0 27 -18 47.5t-44 24.5h-198q-8 0 -14.5 -6t-5.5 -14l20 -207h198q26 4 44 24.5t18 47.5v83zM460 140q0 -29 -13 -54.5t-35.5 -44.5t-52.5 -30t-64 -11h-200
q-14 0 -24.5 10.5t-10.5 24.5v660q0 14 10.5 24.5t24.5 10.5h200q34 0 64 -11t52.5 -30t35.5 -44.5t13 -54.5v-87q0 -16 -7 -33t-18 -31.5t-25 -26t-28 -16.5q14 -5 28 -15.5t25 -24.5t18 -30.5t7 -32.5v-153v0z" />
    <glyph glyph-name="afii10020" unicode="&#x413;" horiz-adv-x="500" 
d="M173 506l-31 -478q0 -12 -8 -20t-19 -8q-12 0 -20 8t-8 20v623q0 17 -14 24q-2 0 -10 4t-17 8t-16.5 7.5l-7.5 3.5q-8 5 -8 13q0 14 13 14h108t81 0.5t62 0.5q28 0 53.5 -0.5t53 -1.5t62.5 -2q17 -2 26 -15.5t9 -30.5v-164q0 -6 -5 -10t-10 -4q-9 0 -12 8l-36 144
q-6 9 -15 13q-12 3 -25 5.5t-27 2.5q-39 0 -71.5 -7.5t-56 -26.5t-37 -50.5t-14.5 -80.5z" />
    <glyph glyph-name="afii10021" unicode="&#x414;" horiz-adv-x="591" 
d="M152 73h286v553q0 14 -10 23.5t-25 11.5q-2 0 -19 3t-45 7.5t-53 8.5zM84 73l131 642q4 14 18 16q7 1 17 0h223q14 0 24.5 -10.5t10.5 -24.5v-623h25q4 0 12 -2q9 -1 14 -10q9 -11 9 -23v-124q0 -10 -10 -10q-6 0 -9 6l-3 12l-6.5 26t-6.5 26.5t-3 13.5q-6 11 -18 11
h-430v1q-5 -1 -9.5 -4t-6.5 -7q0 -1 -3 -13l-6.5 -26t-6.5 -25.5l-3 -11.5q-3 -6 -9 -6q-10 0 -10 10v123q0 13 8 23q5 9 14 10h34z" />
    <glyph glyph-name="afii10022" unicode="&#x415;" 
d="M130 105q0 -14 10 -23.5t25 -11.5q2 0 26 -3t63 -7.5t77.5 -9t69.5 -7.5t39 -3t14 -6t6 -14t-6 -14t-14 -6h-345q-14 0 -24.5 10.5t-10.5 24.5v660q0 14 10.5 24.5t24.5 10.5h345q8 0 14 -6t6 -14t-6 -14t-14 -6t-41 -3t-74.5 -7.5t-83.5 -9t-68 -7.5t-28 -3
q-14 0 -25.5 -10.5t-9.5 -24.5l20 -192h225q14 0 24.5 -10.5t10.5 -24.5v-120q0 -10 -10 -10q-6 0 -9 6l-3 12l-6.5 26t-6.5 26.5t-3 13.5q-6 11 -18 11h-204v-258z" />
    <glyph glyph-name="afii10024" unicode="&#x416;" horiz-adv-x="630" 
d="M330 467l209 256q4 7 12.5 8t15.5 -4t8 -13t-4 -15l-208 -311l251 -342q2 -6 2 -11q0 -14 -10.5 -24.5t-24.5 -10.5h-132q-10 0 -10 10q0 6 5 9l12 3t26.5 6.5t26.5 6.5t13 3q5 2 9.5 7t-0.5 19l-210 246l-17 -290q0 -8 -6 -14t-14 -6t-14 6t-6 14v283l-207 -297
q-5 -7 -12.5 -9.5t-14.5 1.5q-8 4 -10 12t2 15l207 358l-193 312q-4 7 -3 15t8 13t15 4t13 -8l195 -258v213q0 12 -11 18q-1 0 -13.5 3t-26.5 6.5l-26 6.5l-12 3q-6 3 -6 9q0 10 10 10h130q14 0 25 -10.5t10 -24.5z" />
    <glyph glyph-name="afii10025" unicode="&#x417;" horiz-adv-x="460" 
d="M330 291q0 27 -18 47.5t-44 24.5l-11 1.5t-25 3.5t-28.5 3.5t-21.5 1.5q-14 0 -24.5 5t-10.5 19t10.5 18t24.5 4l86 14q26 4 44 24.5t18 47.5v83q0 27 -18 50.5t-44 26.5l-218 25q-8 0 -14 6t-6 14t6 14t14 6h185q34 0 64 -11t52.5 -30t35.5 -44.5t13 -54.5v-87
q0 -16 -7 -33t-18 -31.5t-25 -26t-28 -16.5q14 -5 28 -15.5t25 -24.5t18 -30.5t7 -32.5v-153q0 -29 -13 -54.5t-35.5 -44.5t-52.5 -30t-64 -11h-185q-8 0 -14 6t-6 14t6 14t14 6l218 25q27 3 45 26.5t18 50.5z" />
    <glyph glyph-name="afii10026" unicode="&#x418;" horiz-adv-x="562" 
d="M60 35l30 675q0 8 6 14t14 6t14 -6t6 -14v-550l305 550q12 20 31 20q15 0 25.5 -10.5t10.5 -24.5v-660q0 -14 -10.5 -24.5t-24.5 -10.5h-120q-10 0 -10 10q0 6 6 9l12 3l26 6.5t26.5 6.5t13.5 3q11 5 11 18v502l-305 -536q-5 -9 -13 -15.5t-19 -6.5q-14 0 -25 10.5
t-10 24.5z" />
    <glyph glyph-name="afii10027" unicode="&#x419;" horiz-adv-x="562" 
d="M60 35l30 675q0 8 6 14t14 6t14 -6t6 -14v-550l305 550q12 20 31 20q15 0 25.5 -10.5t10.5 -24.5v-660q0 -14 -10.5 -24.5t-24.5 -10.5h-120q-10 0 -10 10q0 6 6 9l12 3l26 6.5t26.5 6.5t13.5 3q11 5 11 18v502l-305 -536q-5 -9 -13 -15.5t-19 -6.5q-14 0 -25 10.5
t-10 24.5zM287 729q-23 0 -44 9.5t-37.5 27t-26.5 41t-11 50.5q-1 32 -0.5 41.5t14.5 8.5q7 0 15.5 -21t20 -45t27.5 -42.5t39 -14.5q7 -3 20 -1t27.5 13t29 34t23.5 62q0 7 4.5 11.5t10.5 4.5q19 0 19 -15t-1 -35q-1 -30 -14 -54.5t-32 -41t-41.5 -25.5t-42.5 -8z" />
    <glyph glyph-name="afii10028" unicode="&#x41a;" horiz-adv-x="535" 
d="M175 695v-308q0 -8 5.5 -14t14.5 -6q6 0 13 5l213 294q6 6 6.5 10.5t-2 7.5t-6.5 5l-6 3q-1 0 -9 3t-17 6.5t-16.5 6.5l-7.5 3q-5 3 -5 9q0 10 10 10h122q14 0 24.5 -9t10.5 -23q0 -8 -6 -17.5t-10 -14.5l-244 -337l214 -297q5 -7 4.5 -15t-7.5 -13q-17 -10 -29 5
l-239 283q-7 5 -13 5q-9 0 -14.5 -6t-5.5 -14v-242q0 -14 -10.5 -24.5t-24.5 -10.5h-120q-10 0 -10 10q0 6 5 9l12 3t26.5 6.5t26.5 6.5t13 3q12 5 12 18v639q0 14 10 24.5t25 10.5q14 0 24.5 -10.5t10.5 -24.5z" />
    <glyph glyph-name="afii10029" unicode="&#x41b;" horiz-adv-x="564" 
d="M237 714q4 14 18 16q7 1 17 0h223q14 0 24.5 -10.5t10.5 -24.5v-660q0 -14 -10.5 -24.5t-24.5 -10.5t-24.5 10.5t-10.5 24.5v590q0 14 -10 23.5t-25 11.5q-2 0 -19 3t-45 7.5t-53 8.5l-139 -662q-2 -7 -6 -9q-5 -6 -13 -7.5t-23.5 7t-42 29t-67.5 58.5q-4 2 -4 6q0 5 2 7
q3 3 5.5 3.5t5.5 0.5l10.5 -3t23.5 -6.5t24 -6.5t12 -3q5 -2 11.5 -1t12.5 14z" />
    <glyph glyph-name="afii10030" unicode="&#x41c;" horiz-adv-x="780" 
d="M420 154q-10 -18 -30 -18q-21 0 -31 19l-229 403v-502q0 -13 11 -18q1 0 13.5 -3t26.5 -6.5l26 -6.5l12 -3q6 -3 6 -9q0 -10 -10 -10h-120q-14 0 -24.5 10.5t-10.5 24.5v660q0 14 10.5 24.5t24.5 10.5q20 0 32 -20l263 -474l263 474q12 20 32 20q14 0 24.5 -10.5
t10.5 -24.5v-675q0 -8 -6 -14t-14 -6t-13.5 6t-6.5 14l-30 538z" />
    <glyph glyph-name="afii10031" unicode="&#x41d;" 
d="M130 56q0 -13 11 -18q1 0 13.5 -3t26.5 -6.5l26 -6.5l12 -3q6 -3 6 -9q0 -10 -10 -10h-120q-14 0 -24.5 10.5t-10.5 24.5v660q0 14 10.5 24.5t24.5 10.5t24.5 -10.5t10.5 -24.5v-262h260v241q0 12 -11 18q-1 0 -13.5 3t-26.5 6.5l-26 6.5l-12 3q-6 3 -6 9q0 10 10 10h120
q14 0 24.5 -10.5t10.5 -24.5v-675q0 -8 -6 -14t-14 -6t-13.5 6t-6.5 14l-30 343h-260v-307v0z" />
    <glyph glyph-name="afii10032" unicode="&#x41e;" horiz-adv-x="560" 
d="M430 546q0 25 -13.5 46.5t-34.5 38t-48 26t-54 9.5t-54 -9.5t-48 -26t-34.5 -38t-13.5 -46.5v-362q0 -25 13.5 -46.5t34.5 -38t48 -26t54 -9.5t54 9.5t48 26t34.5 38t13.5 46.5v362zM500 169q0 -36 -19 -68t-50 -56t-70.5 -37.5t-80.5 -13.5t-80.5 13.5t-70.5 37.5
t-50 56t-19 68v392q0 36 19 68t50 56t70.5 37.5t80.5 13.5t80.5 -13.5t70.5 -37.5t50 -56t19 -68v-392v0z" />
    <glyph glyph-name="afii10033" unicode="&#x41f;" horiz-adv-x="452" 
d="M410 20q0 -8 -6 -14t-14 -6t-14 6t-6 14q0 6 -2.5 43t-6.5 92t-9 121.5t-10 130t-9 118t-6.5 85.5t-2.5 33q0 11 -6 19h-164q-14 0 -23.5 -11.5t-11.5 -26.5q0 -2 -2.5 -32t-6.5 -83t-8.5 -114.5t-9.5 -125.5t-9 -117.5t-6.5 -89.5t-2.5 -42q0 -8 -6 -14t-14 -6t-14 6
t-6 14v674q0 14 10.5 24.5t24.5 10.5q89 1 149 1.5t98 0t57 -2.5t27.5 -5t9 -7.5t0.5 -11.5v-684z" />
    <glyph glyph-name="afii10034" unicode="&#x420;" 
d="M390 588q0 27 -18 47.5t-44 24.5h-198q-8 0 -14.5 -6t-5.5 -14l20 -207h198q26 4 44 24.5t18 47.5v83zM460 503q0 -29 -13 -54.5t-35.5 -44.5t-52.5 -30t-64 -11h-165l-30 -343q-1 -8 -6.5 -14t-13.5 -6t-14 6t-6 14v675q0 14 10.5 24.5t24.5 10.5h200q34 0 64 -11
t52.5 -30t35.5 -44.5t13 -54.5v-87v0z" />
    <glyph glyph-name="afii10035" unicode="&#x421;" horiz-adv-x="420" 
d="M53 577q6 28 17 55.5t30 49.5t45 35t62 12q42 3 82.5 -6.5t77.5 -29.5q5 -5 10 -10.5t7 -13.5l-5 -10l-8 2q-48 17 -93 17q-44 0 -92 -11q-25 -7 -42 -27.5t-19 -46.5q-7 -108 -7 -224t7 -225q2 -26 19 -47t42 -27q24 -5 47.5 -9.5t46.5 -6t45.5 1t46.5 10.5q5 2 10 0.5
t3 -8.5q-5 -15 -19 -25q-37 -20 -77.5 -28t-82.5 -4q-30 4 -55.5 18.5t-46 36.5t-34.5 48.5t-20 53.5q-5 49 -7.5 102.5t-2 107.5t3.5 107t9 102z" />
    <glyph glyph-name="afii10036" unicode="&#x422;" horiz-adv-x="470" 
d="M200 20v640h-114q-13 0 -18 -11q0 -1 -3 -13.5t-6.5 -26.5l-6.5 -26l-3 -12q-3 -6 -9 -6q-10 0 -10 10v120q0 14 10.5 24.5t24.5 10.5h355q8 0 14 -6t6 -14t-6 -14t-14 -6l-150 -25l-30 -645q-1 -8 -6.5 -14t-13.5 -6t-14 6t-6 14z" />
    <glyph glyph-name="afii10037" unicode="&#x423;" horiz-adv-x="419" 
d="M151 39q-1 -7 -4.5 -15.5t-9 -14.5t-11 -8t-10.5 3q-5 6 -4.5 13t4.5 21l46 184q-5 16 -18 57.5t-30 95t-35.5 111.5t-33.5 106t-25 79.5l-10 31.5q-2 8 1.5 15.5t11.5 9.5t15 -1.5t10 -11.5q38 -94 62.5 -154t39.5 -95.5t22.5 -53.5t12 -28.5t8 -19t10.5 -26.5l10.5 27
t7 19t9 25.5t17 45.5t30 80t47.5 129q5 14 1 19t-9 7q-1 0 -13.5 3t-26.5 6.5l-26 6.5l-12 3q-6 4 -6 9q0 10 10 10h132q15 0 25 -10.5t10 -24.5q0 -5 -2 -11z" />
    <glyph glyph-name="afii10038" unicode="&#x424;" horiz-adv-x="581" 
d="M111 275q0 -15 12 -29t31.5 -25.5t44 -20.5t48.5 -13v367q-24 -5 -48.5 -13.5t-44 -19.5t-31.5 -25t-12 -29v-192v0zM467 467q0 16 -13 30t-33.5 26t-46.5 20.5t-51 12.5v-371q25 4 51 12.5t46.5 20.5t33.5 26.5t13 30.5v192zM247 111q-44 5 -84 18t-70.5 31.5t-48.5 42
t-18 49.5v237q0 27 18 50.5t48.5 42t70.5 30.5t84 17v45q0 12 -11 18q-1 0 -13.5 3t-26.5 6.5l-26 6.5l-12 3q-6 3 -6 9q0 10 10 10h126q12 0 23 -9q9 -5 10 -14q2 -8 2 -12v-65q44 -4 85 -16.5t72.5 -31t50 -42.5t18.5 -51v-237q0 -26 -18.5 -50t-50 -42.5t-72.5 -31.5
t-85 -17v-55q0 -13 11 -18q1 0 13 -3l26 -6.5t25.5 -6.5l11.5 -3q6 -3 6 -9q0 -10 -10 -10h-126q-13 0 -23 8q-9 5 -10 14v89z" />
    <glyph glyph-name="afii10039" unicode="&#x425;" horiz-adv-x="482" 
d="M24 699q-4 7 -3 15t8 13t15 4t13 -8l169 -293l169 293q4 7 12.5 8t15.5 -4t8 -13t-4 -15l-139 -311l182 -342q2 -6 2 -11q0 -14 -10.5 -24.5t-24.5 -10.5h-132q-10 0 -10 10q0 6 5 9l12 3t26.5 6.5t26.5 6.5t13 3q5 2 9.5 7t-0.5 19l-164 276l-178 -330q-5 -7 -12.5 -9.5
t-14.5 1.5q-8 4 -10 12t2 15l152 359l-138 311v0z" />
    <glyph glyph-name="afii10040" unicode="&#x426;" horiz-adv-x="540" 
d="M478 66q14 0 24.5 -10t10.5 -25v-162q0 -10 -10 -10q-5 0 -9 6l-7 19t-15 42t-15.5 42t-7.5 20q-5 11 -18 11l-362 1q-14 0 -24.5 10.5t-10.5 24.5v674q0 8 6 14t14 6t14 -6t6 -14q0 -6 2.5 -42t6.5 -89.5t9 -117.5t9.5 -125.5t8.5 -114.5t6.5 -83t2.5 -32
q2 -15 11.5 -26.5t23.5 -11.5l164 -1q6 7 6 19q0 2 2.5 33.5t6.5 85.5t9 118t10 130t9 121.5t6.5 92.5t2.5 43q0 8 6 14t14 6t14 -6t6 -14v-643h68v0z" />
    <glyph glyph-name="afii10041" unicode="&#x427;" horiz-adv-x="472" 
d="M433 10q0 -10 -10 -10q-5 0 -9 6q-8 37 -15.5 76.5t-15 72.5t-15 54.5t-14.5 21.5h-280q-14 0 -24.5 10.5t-10.5 24.5l-1 443q0 8 6 14t14 6t14 -6t6 -14q0 -7 3.5 -37t8.5 -71.5t11 -88t11 -85.5t8.5 -65l3.5 -26q2 -15 11.5 -26.5t23.5 -11.5l184 2q6 7 6 19l3.5 27
t8.5 68.5t10.5 90.5t10.5 93t8.5 75.5t3.5 38.5q0 8 6 14t14 6t14 -6t6 -14z" />
    <glyph glyph-name="afii10042" unicode="&#x428;" horiz-adv-x="802" 
d="M656 70q14 0 23.5 10t11.5 25q0 2 2.5 32t6.5 83t8.5 114.5t9.5 125.5t9 117.5t6.5 89.5t2.5 42q0 8 6 14t14 6t14 -6t6 -14v-674q0 -14 -10.5 -24.5t-24.5 -10.5h-680q-14 0 -24.5 10.5t-10.5 24.5v674q0 8 6 14t14 6t14 -6t6 -14q0 -6 2.5 -43t6.5 -92.5t9 -121.5
t10 -130t9 -118t6.5 -85.5t2.5 -33.5q0 -14 10.5 -25.5t24.5 -9.5l208 20l23 554q0 14 2.5 24.5t16.5 10.5q16 1 19 -8.5t3 -47.5l22 -533h215z" />
    <glyph glyph-name="afii10043" unicode="&#x429;" horiz-adv-x="906" 
d="M844 66q14 0 24.5 -10t10.5 -25v-160q0 -10 -10 -10q-5 0 -9 6l-7 18.5t-15 41t-15.5 41.5t-7.5 20q-5 11 -18 11l-736 1q-14 0 -24.5 10.5t-10.5 24.5v674q0 8 6 14t14 6t14 -6t6 -14q0 -6 2.5 -42t6.5 -89.5t9 -117.5t9.5 -125.5t8.5 -114.5t6.5 -83t2.5 -32
q2 -15 11.5 -26.5t23.5 -11.5h215l22 536q0 38 3 47.5t19 8.5q14 0 16.5 -10.5t2.5 -24.5l23 -557l237 -1q6 7 6 19q0 2 2.5 33.5t6.5 85.5t9 118t10 130t9 121.5t6.5 92.5t2.5 43q0 8 6 14t14 6t14 -6t6 -14v-643h68v0z" />
    </font>
</defs>
</svg>
